<?xml version="1.0" encoding="utf-8" standalone="no"?>
<!DOCTYPE svg PUBLIC "-//W3C//DTD SVG 1.1//EN"
  "http://www.w3.org/Graphics/SVG/1.1/DTD/svg11.dtd">
<svg xmlns:xlink="http://www.w3.org/1999/xlink" width="236.40438pt" height="242.478437pt" viewBox="0 0 236.40438 242.478437" xmlns="http://www.w3.org/2000/svg" version="1.1">
 <metadata>
  <rdf:RDF xmlns:dc="http://purl.org/dc/elements/1.1/" xmlns:cc="http://creativecommons.org/ns#" xmlns:rdf="http://www.w3.org/1999/02/22-rdf-syntax-ns#">
   <cc:Work>
    <dc:type rdf:resource="http://purl.org/dc/dcmitype/StillImage"/>
    <dc:date>2025-06-11T09:21:55.253840</dc:date>
    <dc:format>image/svg+xml</dc:format>
    <dc:creator>
     <cc:Agent>
      <dc:title>Matplotlib v3.10.3, https://matplotlib.org/</dc:title>
     </cc:Agent>
    </dc:creator>
   </cc:Work>
  </rdf:RDF>
 </metadata>
 <defs>
  <style type="text/css">*{stroke-linejoin: round; stroke-linecap: butt}</style>
 </defs>
 <g id="figure_1">
  <g id="patch_1">
   <path d="M 0 242.478437 
L 236.40438 242.478437 
L 236.40438 0 
L 0 0 
L 0 242.478437 
z
" style="fill: none; opacity: 0"/>
  </g>
  <g id="patch_2">
   <path d="M 7.2 235.278437 
L 221.68 235.278437 
L 221.68 20.798437 
L 7.2 20.798437 
L 7.2 235.278437 
z
" style="fill: none"/>
  </g>
  <g id="pane3d_1">
   <g id="patch_3">
    <path d="M 27.252556 189.042616 
L 79.393304 142.053148 
L 78.296443 50.46632 
L 24.36073 88.84356 
" style="fill: none; opacity: 0"/>
   </g>
  </g>
  <g id="pane3d_2">
   <g id="patch_4">
    <path d="M 79.393304 142.053148 
L 201.680717 158.065517 
L 204.21038 63.517233 
L 78.296443 50.46632 
" style="fill: none; opacity: 0"/>
   </g>
  </g>
  <g id="pane3d_3">
   <g id="patch_5">
    <path d="M 27.252556 189.042616 
L 161.04946 208.744263 
L 201.680717 158.065517 
L 79.393304 142.053148 
" style="fill: none; opacity: 0"/>
   </g>
  </g>
  <g id="grid3d_1">
   <g id="Line3DCollection_1">
    <path d="M 27.252556 189.042616 
L 79.393304 142.053148 
L 78.296443 50.46632 
" style="fill: none; stroke: #b0b0b0; stroke-width: 0.8"/>
    <path d="M 48.823151 192.218894 
L 99.173159 144.643131 
L 98.644877 52.575424 
" style="fill: none; stroke: #b0b0b0; stroke-width: 0.8"/>
    <path d="M 70.677627 195.436975 
L 119.187854 147.263864 
L 119.24197 54.710302 
" style="fill: none; stroke: #b0b0b0; stroke-width: 0.8"/>
    <path d="M 92.821626 198.697687 
L 139.441597 149.915898 
L 140.092308 56.871429 
" style="fill: none; stroke: #b0b0b0; stroke-width: 0.8"/>
    <path d="M 115.26094 202.001885 
L 159.938696 152.599798 
L 161.200591 59.059291 
" style="fill: none; stroke: #b0b0b0; stroke-width: 0.8"/>
    <path d="M 138.001515 205.350444 
L 180.683562 155.31614 
L 182.571636 61.274388 
" style="fill: none; stroke: #b0b0b0; stroke-width: 0.8"/>
    <path d="M 161.04946 208.744263 
L 201.680717 158.065517 
L 204.21038 63.517233 
" style="fill: none; stroke: #b0b0b0; stroke-width: 0.8"/>
   </g>
  </g>
  <g id="grid3d_2">
   <g id="Line3DCollection_2">
    <path d="M 24.36073 88.84356 
L 27.252556 189.042616 
L 161.04946 208.744263 
" style="fill: none; stroke: #b0b0b0; stroke-width: 0.8"/>
    <path d="M 34.162832 81.869005 
L 36.704436 180.52454 
L 168.438574 199.527934 
" style="fill: none; stroke: #b0b0b0; stroke-width: 0.8"/>
    <path d="M 43.616707 75.142226 
L 45.830615 172.299989 
L 175.563112 190.641606 
" style="fill: none; stroke: #b0b0b0; stroke-width: 0.8"/>
    <path d="M 52.740587 68.65025 
L 54.647642 164.354046 
L 182.437035 182.067868 
" style="fill: none; stroke: #b0b0b0; stroke-width: 0.8"/>
    <path d="M 61.551454 62.380995 
L 63.170964 156.672791 
L 189.073337 173.79051 
" style="fill: none; stroke: #b0b0b0; stroke-width: 0.8"/>
    <path d="M 70.065144 56.323191 
L 71.415016 149.243215 
L 195.48413 165.794425 
" style="fill: none; stroke: #b0b0b0; stroke-width: 0.8"/>
    <path d="M 78.296443 50.46632 
L 79.393304 142.053148 
L 201.680717 158.065517 
" style="fill: none; stroke: #b0b0b0; stroke-width: 0.8"/>
   </g>
  </g>
  <g id="grid3d_3">
   <g id="Line3DCollection_3">
    <path d="M 201.680717 158.065517 
L 79.393304 142.053148 
L 27.252556 189.042616 
" style="fill: none; stroke: #b0b0b0; stroke-width: 0.8"/>
    <path d="M 201.988839 146.549212 
L 79.259578 130.887217 
L 26.900954 176.859924 
" style="fill: none; stroke: #b0b0b0; stroke-width: 0.8"/>
    <path d="M 202.29922 134.948455 
L 79.124907 119.642306 
L 26.546596 164.581761 
" style="fill: none; stroke: #b0b0b0; stroke-width: 0.8"/>
    <path d="M 202.611885 123.262314 
L 78.98928 108.317574 
L 26.189451 152.207003 
" style="fill: none; stroke: #b0b0b0; stroke-width: 0.8"/>
    <path d="M 202.926861 111.489842 
L 78.852687 96.912168 
L 25.829484 139.734503 
" style="fill: none; stroke: #b0b0b0; stroke-width: 0.8"/>
    <path d="M 203.244172 99.63008 
L 78.715117 85.425224 
L 25.466663 127.163099 
" style="fill: none; stroke: #b0b0b0; stroke-width: 0.8"/>
    <path d="M 203.563844 87.682053 
L 78.576561 73.855864 
L 25.100954 114.491611 
" style="fill: none; stroke: #b0b0b0; stroke-width: 0.8"/>
    <path d="M 203.885905 75.644772 
L 78.437006 62.203197 
L 24.732321 101.718837 
" style="fill: none; stroke: #b0b0b0; stroke-width: 0.8"/>
    <path d="M 204.21038 63.517233 
L 78.296443 50.46632 
L 24.36073 88.84356 
" style="fill: none; stroke: #b0b0b0; stroke-width: 0.8"/>
   </g>
  </g>
  <g id="axis3d_1">
   <g id="line2d_1">
    <path d="M 27.252556 189.042616 
L 161.04946 208.744263 
" style="fill: none; stroke: #000000; stroke-width: 0.8; stroke-linecap: square"/>
   </g>
   <g id="xtick_1">
    <g id="line2d_2">
     <path d="M 27.713947 188.626808 
L 26.327399 189.876371 
" style="fill: none; stroke: #000000; stroke-width: 0.8; stroke-linecap: square"/>
    </g>
    <g id="text_1">
     <!-- −3 -->
     <g transform="translate(15.657145 210.592014) scale(0.08 -0.08)">
      <defs>
       <path id="DejaVuSans-2212" d="M 678 2272 
L 4684 2272 
L 4684 1741 
L 678 1741 
L 678 2272 
z
" transform="scale(0.015625)"/>
       <path id="DejaVuSans-33" d="M 2597 2516 
Q 3050 2419 3304 2112 
Q 3559 1806 3559 1356 
Q 3559 666 3084 287 
Q 2609 -91 1734 -91 
Q 1441 -91 1130 -33 
Q 819 25 488 141 
L 488 750 
Q 750 597 1062 519 
Q 1375 441 1716 441 
Q 2309 441 2620 675 
Q 2931 909 2931 1356 
Q 2931 1769 2642 2001 
Q 2353 2234 1838 2234 
L 1294 2234 
L 1294 2753 
L 1863 2753 
Q 2328 2753 2575 2939 
Q 2822 3125 2822 3475 
Q 2822 3834 2567 4026 
Q 2313 4219 1838 4219 
Q 1578 4219 1281 4162 
Q 984 4106 628 3988 
L 628 4550 
Q 988 4650 1302 4700 
Q 1616 4750 1894 4750 
Q 2613 4750 3031 4423 
Q 3450 4097 3450 3541 
Q 3450 3153 3228 2886 
Q 3006 2619 2597 2516 
z
" transform="scale(0.015625)"/>
      </defs>
      <use xlink:href="#DejaVuSans-2212"/>
      <use xlink:href="#DejaVuSans-33" transform="translate(83.789062 0)"/>
     </g>
    </g>
   </g>
   <g id="xtick_2">
    <g id="line2d_3">
     <path d="M 49.268975 191.797635 
L 47.929193 193.063596 
" style="fill: none; stroke: #000000; stroke-width: 0.8; stroke-linecap: square"/>
    </g>
    <g id="text_2">
     <!-- −2 -->
     <g transform="translate(37.361328 213.895431) scale(0.08 -0.08)">
      <defs>
       <path id="DejaVuSans-32" d="M 1228 531 
L 3431 531 
L 3431 0 
L 469 0 
L 469 531 
Q 828 903 1448 1529 
Q 2069 2156 2228 2338 
Q 2531 2678 2651 2914 
Q 2772 3150 2772 3378 
Q 2772 3750 2511 3984 
Q 2250 4219 1831 4219 
Q 1534 4219 1204 4116 
Q 875 4013 500 3803 
L 500 4441 
Q 881 4594 1212 4672 
Q 1544 4750 1819 4750 
Q 2544 4750 2975 4387 
Q 3406 4025 3406 3419 
Q 3406 3131 3298 2873 
Q 3191 2616 2906 2266 
Q 2828 2175 2409 1742 
Q 1991 1309 1228 531 
z
" transform="scale(0.015625)"/>
      </defs>
      <use xlink:href="#DejaVuSans-2212"/>
      <use xlink:href="#DejaVuSans-32" transform="translate(83.789062 0)"/>
     </g>
    </g>
   </g>
   <g id="xtick_3">
    <g id="line2d_4">
     <path d="M 71.107433 195.010156 
L 69.815773 196.292839 
" style="fill: none; stroke: #000000; stroke-width: 0.8; stroke-linecap: square"/>
    </g>
    <g id="text_3">
     <!-- −1 -->
     <g transform="translate(59.353432 217.242669) scale(0.08 -0.08)">
      <defs>
       <path id="DejaVuSans-31" d="M 794 531 
L 1825 531 
L 1825 4091 
L 703 3866 
L 703 4441 
L 1819 4666 
L 2450 4666 
L 2450 531 
L 3481 531 
L 3481 0 
L 794 0 
L 794 531 
z
" transform="scale(0.015625)"/>
      </defs>
      <use xlink:href="#DejaVuSans-2212"/>
      <use xlink:href="#DejaVuSans-31" transform="translate(83.789062 0)"/>
     </g>
    </g>
   </g>
   <g id="xtick_4">
    <g id="line2d_5">
     <path d="M 93.23495 198.265198 
L 91.992809 199.564938 
" style="fill: none; stroke: #000000; stroke-width: 0.8; stroke-linecap: square"/>
    </g>
    <g id="text_4">
     <!-- 0 -->
     <g transform="translate(84.991099 220.634608) scale(0.08 -0.08)">
      <defs>
       <path id="DejaVuSans-30" d="M 2034 4250 
Q 1547 4250 1301 3770 
Q 1056 3291 1056 2328 
Q 1056 1369 1301 889 
Q 1547 409 2034 409 
Q 2525 409 2770 889 
Q 3016 1369 3016 2328 
Q 3016 3291 2770 3770 
Q 2525 4250 2034 4250 
z
M 2034 4750 
Q 2819 4750 3233 4129 
Q 3647 3509 3647 2328 
Q 3647 1150 3233 529 
Q 2819 -91 2034 -91 
Q 1250 -91 836 529 
Q 422 1150 422 2328 
Q 422 3509 836 4129 
Q 1250 4750 2034 4750 
z
" transform="scale(0.015625)"/>
      </defs>
      <use xlink:href="#DejaVuSans-30"/>
     </g>
    </g>
   </g>
   <g id="xtick_5">
    <g id="line2d_6">
     <path d="M 115.657302 201.563611 
L 114.466121 202.88075 
" style="fill: none; stroke: #000000; stroke-width: 0.8; stroke-linecap: square"/>
    </g>
    <g id="text_5">
     <!-- 1 -->
     <g transform="translate(107.576502 224.072149) scale(0.08 -0.08)">
      <use xlink:href="#DejaVuSans-31"/>
     </g>
    </g>
   </g>
   <g id="xtick_6">
    <g id="line2d_7">
     <path d="M 138.380422 204.906268 
L 137.241686 206.241158 
" style="fill: none; stroke: #000000; stroke-width: 0.8; stroke-linecap: square"/>
    </g>
    <g id="text_6">
     <!-- 2 -->
     <g transform="translate(130.467599 227.556216) scale(0.08 -0.08)">
      <use xlink:href="#DejaVuSans-32"/>
     </g>
    </g>
   </g>
   <g id="xtick_7">
    <g id="line2d_8">
     <path d="M 161.410401 208.294066 
L 160.325644 209.647068 
" style="fill: none; stroke: #000000; stroke-width: 0.8; stroke-linecap: square"/>
    </g>
    <g id="text_7">
     <!-- 3 -->
     <g transform="translate(153.670639 231.087762) scale(0.08 -0.08)">
      <use xlink:href="#DejaVuSans-33"/>
     </g>
    </g>
   </g>
   <g id="text_8">
    <!-- X -->
    <g transform="translate(78.139372 235.983876) scale(0.09 -0.09)">
     <defs>
      <path id="DejaVuSans-58" d="M 403 4666 
L 1081 4666 
L 2241 2931 
L 3406 4666 
L 4084 4666 
L 2584 2425 
L 4184 0 
L 3506 0 
L 2194 1984 
L 872 0 
L 191 0 
L 1856 2491 
L 403 4666 
z
" transform="scale(0.015625)"/>
     </defs>
     <use xlink:href="#DejaVuSans-58"/>
    </g>
   </g>
  </g>
  <g id="axis3d_2">
   <g id="line2d_9">
    <path d="M 201.680717 158.065517 
L 161.04946 208.744263 
" style="fill: none; stroke: #000000; stroke-width: 0.8; stroke-linecap: square"/>
   </g>
   <g id="xtick_8">
    <g id="line2d_10">
     <path d="M 159.936043 208.580312 
L 163.278462 209.072484 
" style="fill: none; stroke: #000000; stroke-width: 0.8; stroke-linecap: square"/>
    </g>
    <g id="text_9">
     <!-- −3 -->
     <g transform="translate(169.351382 227.277922) scale(0.08 -0.08)">
      <use xlink:href="#DejaVuSans-2212"/>
      <use xlink:href="#DejaVuSans-33" transform="translate(83.789062 0)"/>
     </g>
    </g>
   </g>
   <g id="xtick_9">
    <g id="line2d_11">
     <path d="M 167.343095 199.369905 
L 170.631626 199.844294 
" style="fill: none; stroke: #000000; stroke-width: 0.8; stroke-linecap: square"/>
    </g>
    <g id="text_10">
     <!-- −2 -->
     <g transform="translate(176.487563 217.826728) scale(0.08 -0.08)">
      <use xlink:href="#DejaVuSans-2212"/>
      <use xlink:href="#DejaVuSans-32" transform="translate(83.789062 0)"/>
     </g>
    </g>
   </g>
   <g id="xtick_10">
    <g id="line2d_12">
     <path d="M 174.485012 190.489184 
L 177.721337 190.946737 
" style="fill: none; stroke: #000000; stroke-width: 0.8; stroke-linecap: square"/>
    </g>
    <g id="text_11">
     <!-- −1 -->
     <g transform="translate(183.368018 208.71422) scale(0.08 -0.08)">
      <use xlink:href="#DejaVuSans-2212"/>
      <use xlink:href="#DejaVuSans-31" transform="translate(83.789062 0)"/>
     </g>
    </g>
   </g>
   <g id="xtick_11">
    <g id="line2d_13">
     <path d="M 181.375779 181.920759 
L 184.561504 182.362356 
" style="fill: none; stroke: #000000; stroke-width: 0.8; stroke-linecap: square"/>
    </g>
    <g id="text_12">
     <!-- 0 -->
     <g transform="translate(193.358124 199.922513) scale(0.08 -0.08)">
      <use xlink:href="#DejaVuSans-30"/>
     </g>
    </g>
   </g>
   <g id="xtick_12">
    <g id="line2d_14">
     <path d="M 188.028415 173.648442 
L 191.165074 174.074903 
" style="fill: none; stroke: #000000; stroke-width: 0.8; stroke-linecap: square"/>
    </g>
    <g id="text_13">
     <!-- 1 -->
     <g transform="translate(199.766703 191.43496) scale(0.08 -0.08)">
      <use xlink:href="#DejaVuSans-31"/>
     </g>
    </g>
   </g>
   <g id="xtick_13">
    <g id="line2d_15">
     <path d="M 194.455055 165.657143 
L 197.544115 166.069234 
" style="fill: none; stroke: #000000; stroke-width: 0.8; stroke-linecap: square"/>
    </g>
    <g id="text_14">
     <!-- 2 -->
     <g transform="translate(205.957342 183.236046) scale(0.08 -0.08)">
      <use xlink:href="#DejaVuSans-32"/>
     </g>
    </g>
   </g>
   <g id="xtick_14">
    <g id="line2d_16">
     <path d="M 200.667021 157.932783 
L 203.709886 158.331217 
" style="fill: none; stroke: #000000; stroke-width: 0.8; stroke-linecap: square"/>
    </g>
    <g id="text_15">
     <!-- 3 -->
     <g transform="translate(211.940975 175.311293) scale(0.08 -0.08)">
      <use xlink:href="#DejaVuSans-33"/>
     </g>
    </g>
   </g>
   <g id="text_16">
    <!-- Y -->
    <g transform="translate(208.990105 210.175107) scale(0.09 -0.09)">
     <defs>
      <path id="DejaVuSans-59" d="M -13 4666 
L 666 4666 
L 1959 2747 
L 3244 4666 
L 3922 4666 
L 2272 2222 
L 2272 0 
L 1638 0 
L 1638 2222 
L -13 4666 
z
" transform="scale(0.015625)"/>
     </defs>
     <use xlink:href="#DejaVuSans-59"/>
    </g>
   </g>
  </g>
  <g id="axis3d_3">
   <g id="line2d_17">
    <path d="M 201.680717 158.065517 
L 204.21038 63.517233 
" style="fill: none; stroke: #000000; stroke-width: 0.8; stroke-linecap: square"/>
   </g>
   <g id="xtick_15">
    <g id="line2d_18">
     <path d="M 200.667021 157.932783 
L 203.709886 158.331217 
" style="fill: none; stroke: #000000; stroke-width: 0.8; stroke-linecap: square"/>
    </g>
    <g id="text_17">
     <!-- −2.0 -->
     <g transform="translate(208.669916 161.178062) scale(0.08 -0.08)">
      <defs>
       <path id="DejaVuSans-2e" d="M 684 794 
L 1344 794 
L 1344 0 
L 684 0 
L 684 794 
z
" transform="scale(0.015625)"/>
      </defs>
      <use xlink:href="#DejaVuSans-2212"/>
      <use xlink:href="#DejaVuSans-32" transform="translate(83.789062 0)"/>
      <use xlink:href="#DejaVuSans-2e" transform="translate(147.412109 0)"/>
      <use xlink:href="#DejaVuSans-30" transform="translate(179.199219 0)"/>
     </g>
    </g>
   </g>
   <g id="xtick_16">
    <g id="line2d_19">
     <path d="M 200.97135 146.419366 
L 204.025605 146.809132 
" style="fill: none; stroke: #000000; stroke-width: 0.8; stroke-linecap: square"/>
    </g>
    <g id="text_18">
     <!-- −1.5 -->
     <g transform="translate(209.03664 149.726358) scale(0.08 -0.08)">
      <defs>
       <path id="DejaVuSans-35" d="M 691 4666 
L 3169 4666 
L 3169 4134 
L 1269 4134 
L 1269 2991 
Q 1406 3038 1543 3061 
Q 1681 3084 1819 3084 
Q 2600 3084 3056 2656 
Q 3513 2228 3513 1497 
Q 3513 744 3044 326 
Q 2575 -91 1722 -91 
Q 1428 -91 1123 -41 
Q 819 9 494 109 
L 494 744 
Q 775 591 1075 516 
Q 1375 441 1709 441 
Q 2250 441 2565 725 
Q 2881 1009 2881 1497 
Q 2881 1984 2565 2268 
Q 2250 2553 1709 2553 
Q 1456 2553 1204 2497 
Q 953 2441 691 2322 
L 691 4666 
z
" transform="scale(0.015625)"/>
      </defs>
      <use xlink:href="#DejaVuSans-2212"/>
      <use xlink:href="#DejaVuSans-31" transform="translate(83.789062 0)"/>
      <use xlink:href="#DejaVuSans-2e" transform="translate(147.412109 0)"/>
      <use xlink:href="#DejaVuSans-35" transform="translate(179.199219 0)"/>
     </g>
    </g>
   </g>
   <g id="xtick_17">
    <g id="line2d_20">
     <path d="M 201.27791 134.821543 
L 204.343641 135.202503 
" style="fill: none; stroke: #000000; stroke-width: 0.8; stroke-linecap: square"/>
    </g>
    <g id="text_19">
     <!-- −1.0 -->
     <g transform="translate(209.406034 138.191228) scale(0.08 -0.08)">
      <use xlink:href="#DejaVuSans-2212"/>
      <use xlink:href="#DejaVuSans-31" transform="translate(83.789062 0)"/>
      <use xlink:href="#DejaVuSans-2e" transform="translate(147.412109 0)"/>
      <use xlink:href="#DejaVuSans-30" transform="translate(179.199219 0)"/>
     </g>
    </g>
   </g>
   <g id="xtick_18">
    <g id="line2d_21">
     <path d="M 201.586726 123.138382 
L 204.66402 123.510396 
" style="fill: none; stroke: #000000; stroke-width: 0.8; stroke-linecap: square"/>
    </g>
    <g id="text_20">
     <!-- −0.5 -->
     <g transform="translate(209.77813 126.571755) scale(0.08 -0.08)">
      <use xlink:href="#DejaVuSans-2212"/>
      <use xlink:href="#DejaVuSans-30" transform="translate(83.789062 0)"/>
      <use xlink:href="#DejaVuSans-2e" transform="translate(147.412109 0)"/>
      <use xlink:href="#DejaVuSans-35" transform="translate(179.199219 0)"/>
     </g>
    </g>
   </g>
   <g id="xtick_19">
    <g id="line2d_22">
     <path d="M 201.897823 111.368939 
L 204.986766 111.731864 
" style="fill: none; stroke: #000000; stroke-width: 0.8; stroke-linecap: square"/>
    </g>
    <g id="text_21">
     <!-- 0.0 -->
     <g transform="translate(213.504831 114.867013) scale(0.08 -0.08)">
      <use xlink:href="#DejaVuSans-30"/>
      <use xlink:href="#DejaVuSans-2e" transform="translate(63.623047 0)"/>
      <use xlink:href="#DejaVuSans-30" transform="translate(95.410156 0)"/>
     </g>
    </g>
   </g>
   <g id="xtick_20">
    <g id="line2d_23">
     <path d="M 202.211226 99.512253 
L 205.311907 99.865944 
" style="fill: none; stroke: #000000; stroke-width: 0.8; stroke-linecap: square"/>
    </g>
    <g id="text_22">
     <!-- 0.5 -->
     <g transform="translate(213.882419 103.076059) scale(0.08 -0.08)">
      <use xlink:href="#DejaVuSans-30"/>
      <use xlink:href="#DejaVuSans-2e" transform="translate(63.623047 0)"/>
      <use xlink:href="#DejaVuSans-35" transform="translate(95.410156 0)"/>
     </g>
    </g>
   </g>
   <g id="xtick_21">
    <g id="line2d_24">
     <path d="M 202.52696 87.567352 
L 205.63947 87.91166 
" style="fill: none; stroke: #000000; stroke-width: 0.8; stroke-linecap: square"/>
    </g>
    <g id="text_23">
     <!-- 1.0 -->
     <g transform="translate(214.262797 91.197937) scale(0.08 -0.08)">
      <use xlink:href="#DejaVuSans-31"/>
      <use xlink:href="#DejaVuSans-2e" transform="translate(63.623047 0)"/>
      <use xlink:href="#DejaVuSans-30" transform="translate(95.410156 0)"/>
     </g>
    </g>
   </g>
   <g id="xtick_22">
    <g id="line2d_25">
     <path d="M 202.845052 75.533247 
L 205.969481 75.868022 
" style="fill: none; stroke: #000000; stroke-width: 0.8; stroke-linecap: square"/>
    </g>
    <g id="text_24">
     <!-- 1.5 -->
     <g transform="translate(214.645998 79.231676) scale(0.08 -0.08)">
      <use xlink:href="#DejaVuSans-31"/>
      <use xlink:href="#DejaVuSans-2e" transform="translate(63.623047 0)"/>
      <use xlink:href="#DejaVuSans-35" transform="translate(95.410156 0)"/>
     </g>
    </g>
   </g>
   <g id="xtick_23">
    <g id="line2d_26">
     <path d="M 203.165529 63.408934 
L 206.301967 63.734024 
" style="fill: none; stroke: #000000; stroke-width: 0.8; stroke-linecap: square"/>
    </g>
    <g id="text_25">
     <!-- 2.0 -->
     <g transform="translate(215.032053 67.176293) scale(0.08 -0.08)">
      <use xlink:href="#DejaVuSans-32"/>
      <use xlink:href="#DejaVuSans-2e" transform="translate(63.623047 0)"/>
      <use xlink:href="#DejaVuSans-30" transform="translate(95.410156 0)"/>
     </g>
    </g>
   </g>
   <g id="text_26">
    <!-- Z -->
    <g transform="translate(236.384943 108.145546) scale(0.09 -0.09)">
     <defs>
      <path id="DejaVuSans-5a" d="M 359 4666 
L 4025 4666 
L 4025 4184 
L 1075 531 
L 4097 531 
L 4097 0 
L 288 0 
L 288 481 
L 3238 4134 
L 359 4134 
L 359 4666 
z
" transform="scale(0.015625)"/>
     </defs>
     <use xlink:href="#DejaVuSans-5a"/>
    </g>
   </g>
  </g>
  <g id="axes_1">
   <g id="Poly3DCollection_1">
    <path d="M 73.908044 132.530736 
L 87.207563 129.687643 
L 92.431047 128.068818 
L 79.259578 130.887217 
z
" clip-path="url(#p2ea94929db)" style="fill: #c7a800; fill-opacity: 0.4; stroke: #000000; stroke-opacity: 0.4; stroke-width: 0.1"/>
    <path d="M 87.207563 129.687643 
L 100.652227 126.813522 
L 105.74456 125.220026 
L 92.431047 128.068818 
z
" clip-path="url(#p2ea94929db)" style="fill: #c7a800; fill-opacity: 0.4; stroke: #000000; stroke-opacity: 0.4; stroke-width: 0.1"/>
    <path d="M 100.652227 126.813522 
L 114.244425 123.907862 
L 119.202427 122.340345 
L 105.74456 125.220026 
z
" clip-path="url(#p2ea94929db)" style="fill: #c7a800; fill-opacity: 0.4; stroke: #000000; stroke-opacity: 0.4; stroke-width: 0.1"/>
    <path d="M 68.428022 134.213716 
L 81.857977 131.345548 
L 87.207563 129.687643 
L 73.908044 132.530736 
z
" clip-path="url(#p2ea94929db)" style="fill: #c7a800; fill-opacity: 0.4; stroke: #000000; stroke-opacity: 0.4; stroke-width: 0.1"/>
    <path d="M 114.244425 123.907862 
L 127.986599 120.970141 
L 132.807009 119.429271 
L 119.202427 122.340345 
z
" clip-path="url(#p2ea94929db)" style="fill: #c7a800; fill-opacity: 0.4; stroke: #000000; stroke-opacity: 0.4; stroke-width: 0.1"/>
    <path d="M 81.857977 131.345548 
L 95.436279 128.445699 
L 100.652227 126.813522 
L 87.207563 129.687643 
z
" clip-path="url(#p2ea94929db)" style="fill: #c7a800; fill-opacity: 0.4; stroke: #000000; stroke-opacity: 0.4; stroke-width: 0.1"/>
    <path d="M 127.986599 120.970141 
L 141.881245 117.999825 
L 146.560718 116.486287 
L 132.807009 119.429271 
z
" clip-path="url(#p2ea94929db)" style="fill: #c7a800; fill-opacity: 0.4; stroke: #000000; stroke-opacity: 0.4; stroke-width: 0.1"/>
    <path d="M 95.436279 128.445699 
L 109.1654 125.513641 
L 114.244425 123.907862 
L 100.652227 126.813522 
z
" clip-path="url(#p2ea94929db)" style="fill: #c7a800; fill-opacity: 0.4; stroke: #000000; stroke-opacity: 0.4; stroke-width: 0.1"/>
    <path d="M 62.814826 135.937595 
L 76.377664 133.043968 
L 81.857977 131.345548 
L 68.428022 134.213716 
z
" clip-path="url(#p2ea94929db)" style="fill: #c7a800; fill-opacity: 0.4; stroke: #000000; stroke-opacity: 0.4; stroke-width: 0.1"/>
    <path d="M 141.881245 117.999825 
L 155.930914 114.996369 
L 160.46602 113.510865 
L 146.560718 116.486287 
z
" clip-path="url(#p2ea94929db)" style="fill: #c7a800; fill-opacity: 0.4; stroke: #000000; stroke-opacity: 0.4; stroke-width: 0.1"/>
    <path d="M 109.1654 125.513641 
L 123.047867 122.548833 
L 127.986599 120.970141 
L 114.244425 123.907862 
z
" clip-path="url(#p2ea94929db)" style="fill: #c7a800; fill-opacity: 0.4; stroke: #000000; stroke-opacity: 0.4; stroke-width: 0.1"/>
    <path d="M 76.377664 133.043968 
L 90.092158 130.117985 
L 95.436279 128.445699 
L 81.857977 131.345548 
z
" clip-path="url(#p2ea94929db)" style="fill: #c7a800; fill-opacity: 0.4; stroke: #000000; stroke-opacity: 0.4; stroke-width: 0.1"/>
    <path d="M 155.930914 114.996369 
L 170.138216 111.959216 
L 174.525434 110.502466 
L 160.46602 113.510865 
z
" clip-path="url(#p2ea94929db)" style="fill: #c7a800; fill-opacity: 0.4; stroke: #000000; stroke-opacity: 0.4; stroke-width: 0.1"/>
    <path d="M 123.047867 122.548833 
L 137.086264 119.550723 
L 141.881245 117.999825 
L 127.986599 120.970141 
z
" clip-path="url(#p2ea94929db)" style="fill: #c7a800; fill-opacity: 0.4; stroke: #000000; stroke-opacity: 0.4; stroke-width: 0.1"/>
    <path d="M 90.092158 130.117985 
L 103.960865 127.1591 
L 109.1654 125.513641 
L 95.436279 128.445699 
z
" clip-path="url(#p2ea94929db)" style="fill: #c7a800; fill-opacity: 0.4; stroke: #000000; stroke-opacity: 0.4; stroke-width: 0.1"/>
    <path d="M 57.063544 137.703881 
L 70.761775 134.784403 
L 76.377664 133.043968 
L 62.814826 135.937595 
z
" clip-path="url(#p2ea94929db)" style="fill: #c7a800; fill-opacity: 0.4; stroke: #000000; stroke-opacity: 0.4; stroke-width: 0.1"/>
    <path d="M 170.138216 111.959216 
L 184.505818 108.887794 
L 188.741538 107.46054 
L 174.525434 110.502466 
z
" clip-path="url(#p2ea94929db)" style="fill: #c7a800; fill-opacity: 0.4; stroke: #000000; stroke-opacity: 0.4; stroke-width: 0.1"/>
    <path d="M 137.086264 119.550723 
L 151.283232 116.518749 
L 155.930914 114.996369 
L 141.881245 117.999825 
z
" clip-path="url(#p2ea94929db)" style="fill: #c7a800; fill-opacity: 0.4; stroke: #000000; stroke-opacity: 0.4; stroke-width: 0.1"/>
    <path d="M 103.960865 127.1591 
L 117.986403 124.166757 
L 123.047867 122.548833 
L 109.1654 125.513641 
z
" clip-path="url(#p2ea94929db)" style="fill: #c7a800; fill-opacity: 0.4; stroke: #000000; stroke-opacity: 0.4; stroke-width: 0.1"/>
    <path d="M 70.761775 134.784403 
L 84.615081 131.831875 
L 90.092158 130.117985 
L 76.377664 133.043968 
z
" clip-path="url(#p2ea94929db)" style="fill: #c7a800; fill-opacity: 0.4; stroke: #000000; stroke-opacity: 0.4; stroke-width: 0.1"/>
    <path d="M 184.505818 108.887794 
L 199.03645 105.781521 
L 203.116965 104.384522 
L 188.741538 107.46054 
z
" clip-path="url(#p2ea94929db)" style="fill: #c7a800; fill-opacity: 0.4; stroke: #000000; stroke-opacity: 0.4; stroke-width: 0.1"/>
    <path d="M 151.283232 116.518749 
L 165.641474 113.452332 
L 170.138216 111.959216 
L 155.930914 114.996369 
z
" clip-path="url(#p2ea94929db)" style="fill: #c7a800; fill-opacity: 0.4; stroke: #000000; stroke-opacity: 0.4; stroke-width: 0.1"/>
    <path d="M 117.986403 124.166757 
L 132.171445 121.140382 
L 137.086264 119.550723 
L 123.047867 122.548833 
z
" clip-path="url(#p2ea94929db)" style="fill: #c7a800; fill-opacity: 0.4; stroke: #000000; stroke-opacity: 0.4; stroke-width: 0.1"/>
    <path d="M 84.615081 131.831875 
L 98.626111 128.845731 
L 103.960865 127.1591 
L 90.092158 130.117985 
z
" clip-path="url(#p2ea94929db)" style="fill: #c7a800; fill-opacity: 0.4; stroke: #000000; stroke-opacity: 0.4; stroke-width: 0.1"/>
    <path d="M 51.169016 139.514161 
L 65.005215 136.568435 
L 70.761775 134.784403 
L 57.063544 137.703881 
z
" clip-path="url(#p2ea94929db)" style="fill: #c7a800; fill-opacity: 0.4; stroke: #000000; stroke-opacity: 0.4; stroke-width: 0.1"/>
    <path d="M 165.641474 113.452332 
L 180.163753 110.350883 
L 184.505818 108.887794 
L 170.138216 111.959216 
z
" clip-path="url(#p2ea94929db)" style="fill: #c7a800; fill-opacity: 0.4; stroke: #000000; stroke-opacity: 0.4; stroke-width: 0.1"/>
    <path d="M 132.171445 121.140382 
L 146.518729 118.079394 
L 151.283232 116.518749 
L 137.086264 119.550723 
z
" clip-path="url(#p2ea94929db)" style="fill: #c7a800; fill-opacity: 0.4; stroke: #000000; stroke-opacity: 0.4; stroke-width: 0.1"/>
    <path d="M 98.626111 128.845731 
L 112.797573 125.825394 
L 117.986403 124.166757 
L 103.960865 127.1591 
z
" clip-path="url(#p2ea94929db)" style="fill: #c7a800; fill-opacity: 0.4; stroke: #000000; stroke-opacity: 0.4; stroke-width: 0.1"/>
    <path d="M 65.005215 136.568435 
L 79.000024 133.588941 
L 84.615081 131.831875 
L 70.761775 134.784403 
z
" clip-path="url(#p2ea94929db)" style="fill: #c7a800; fill-opacity: 0.4; stroke: #000000; stroke-opacity: 0.4; stroke-width: 0.1"/>
    <path d="M 180.163753 110.350883 
L 194.852896 107.213797 
L 199.03645 105.781521 
L 184.505818 108.887794 
z
" clip-path="url(#p2ea94929db)" style="fill: #c7a800; fill-opacity: 0.4; stroke: #000000; stroke-opacity: 0.4; stroke-width: 0.1"/>
    <path d="M 146.518729 118.079394 
L 161.031055 114.983194 
L 165.641474 113.452332 
L 151.283232 116.518749 
z
" clip-path="url(#p2ea94929db)" style="fill: #c7a800; fill-opacity: 0.4; stroke: #000000; stroke-opacity: 0.4; stroke-width: 0.1"/>
    <path d="M 112.797573 125.825394 
L 127.132239 122.770274 
L 132.171445 121.140382 
L 117.986403 124.166757 
z
" clip-path="url(#p2ea94929db)" style="fill: #c7a800; fill-opacity: 0.4; stroke: #000000; stroke-opacity: 0.4; stroke-width: 0.1"/>
    <path d="M 79.000024 133.588941 
L 93.156187 130.575096 
L 98.626111 128.845731 
L 84.615081 131.831875 
z
" clip-path="url(#p2ea94929db)" style="fill: #c7a800; fill-opacity: 0.4; stroke: #000000; stroke-opacity: 0.4; stroke-width: 0.1"/>
    <path d="M 45.125824 141.370096 
L 59.102633 138.397721 
L 65.005215 136.568435 
L 51.169016 139.514161 
z
" clip-path="url(#p2ea94929db)" style="fill: #c7a800; fill-opacity: 0.4; stroke: #000000; stroke-opacity: 0.4; stroke-width: 0.1"/>
    <path d="M 161.031055 114.983194 
L 175.711285 111.851172 
L 180.163753 110.350883 
L 165.641474 113.452332 
z
" clip-path="url(#p2ea94929db)" style="fill: #c7a800; fill-opacity: 0.4; stroke: #000000; stroke-opacity: 0.4; stroke-width: 0.1"/>
    <path d="M 127.132239 122.770274 
L 141.632945 119.679766 
L 146.518729 118.079394 
L 132.171445 121.140382 
z
" clip-path="url(#p2ea94929db)" style="fill: #c7a800; fill-opacity: 0.4; stroke: #000000; stroke-opacity: 0.4; stroke-width: 0.1"/>
    <path d="M 93.156187 130.575096 
L 107.476509 127.5263 
L 112.797573 125.825394 
L 98.626111 128.845731 
z
" clip-path="url(#p2ea94929db)" style="fill: #c7a800; fill-opacity: 0.4; stroke: #000000; stroke-opacity: 0.4; stroke-width: 0.1"/>
    <path d="M 59.102633 138.397721 
L 73.241707 135.390837 
L 79.000024 133.588941 
L 65.005215 136.568435 
z
" clip-path="url(#p2ea94929db)" style="fill: #c7a800; fill-opacity: 0.4; stroke: #000000; stroke-opacity: 0.4; stroke-width: 0.1"/>
    <path d="M 175.711285 111.851172 
L 190.562352 108.682702 
L 194.852896 107.213797 
L 180.163753 110.350883 
z
" clip-path="url(#p2ea94929db)" style="fill: #c7a800; fill-opacity: 0.4; stroke: #000000; stroke-opacity: 0.4; stroke-width: 0.1"/>
    <path d="M 141.632945 119.679766 
L 156.302592 116.553252 
L 161.031055 114.983194 
L 146.518729 118.079394 
z
" clip-path="url(#p2ea94929db)" style="fill: #c7a800; fill-opacity: 0.4; stroke: #000000; stroke-opacity: 0.4; stroke-width: 0.1"/>
    <path d="M 107.476509 127.5263 
L 121.963863 124.441944 
L 127.132239 122.770274 
L 112.797573 125.825394 
z
" clip-path="url(#p2ea94929db)" style="fill: #c7a800; fill-opacity: 0.4; stroke: #000000; stroke-opacity: 0.4; stroke-width: 0.1"/>
    <path d="M 73.241707 135.390837 
L 87.54589 132.348841 
L 93.156187 130.575096 
L 79.000024 133.588941 
z
" clip-path="url(#p2ea94929db)" style="fill: #c7a800; fill-opacity: 0.4; stroke: #000000; stroke-opacity: 0.4; stroke-width: 0.1"/>
    <path d="M 38.92827 143.273438 
L 53.048399 140.274005 
L 59.102633 138.397721 
L 45.125824 141.370096 
z
" clip-path="url(#p2ea94929db)" style="fill: #c7a800; fill-opacity: 0.4; stroke: #000000; stroke-opacity: 0.4; stroke-width: 0.1"/>
    <path d="M 156.302592 116.553252 
L 171.144151 113.390099 
L 175.711285 111.851172 
L 161.031055 114.983194 
z
" clip-path="url(#p2ea94929db)" style="fill: #c7a800; fill-opacity: 0.4; stroke: #000000; stroke-opacity: 0.4; stroke-width: 0.1"/>
    <path d="M 121.963863 124.441944 
L 136.621189 121.321401 
L 141.632945 119.679766 
L 127.132239 122.770274 
z
" clip-path="url(#p2ea94929db)" style="fill: #c7a800; fill-opacity: 0.4; stroke: #000000; stroke-opacity: 0.4; stroke-width: 0.1"/>
    <path d="M 87.54589 132.348841 
L 102.01809 129.271113 
L 107.476509 127.5263 
L 93.156187 130.575096 
z
" clip-path="url(#p2ea94929db)" style="fill: #c7a800; fill-opacity: 0.4; stroke: #000000; stroke-opacity: 0.4; stroke-width: 0.1"/>
    <path d="M 53.048399 140.274005 
L 67.334576 137.2393 
L 73.241707 135.390837 
L 59.102633 138.397721 
z
" clip-path="url(#p2ea94929db)" style="fill: #c7a800; fill-opacity: 0.4; stroke: #000000; stroke-opacity: 0.4; stroke-width: 0.1"/>
    <path d="M 171.144151 113.390099 
L 186.16066 110.189659 
L 190.562352 108.682702 
L 175.711285 111.851172 
z
" clip-path="url(#p2ea94929db)" style="fill: #c7a800; fill-opacity: 0.4; stroke: #000000; stroke-opacity: 0.4; stroke-width: 0.1"/>
    <path d="M 136.621189 121.321401 
L 151.451495 118.16403 
L 156.302592 116.553252 
L 141.632945 119.679766 
z
" clip-path="url(#p2ea94929db)" style="fill: #c7a800; fill-opacity: 0.4; stroke: #000000; stroke-opacity: 0.4; stroke-width: 0.1"/>
    <path d="M 102.01809 129.271113 
L 116.661286 126.15702 
L 121.963863 124.441944 
L 107.476509 127.5263 
z
" clip-path="url(#p2ea94929db)" style="fill: #c7a800; fill-opacity: 0.4; stroke: #000000; stroke-opacity: 0.4; stroke-width: 0.1"/>
    <path d="M 67.334576 137.2393 
L 81.789748 134.168696 
L 87.54589 132.348841 
L 73.241707 135.390837 
z
" clip-path="url(#p2ea94929db)" style="fill: #c7a800; fill-opacity: 0.4; stroke: #000000; stroke-opacity: 0.4; stroke-width: 0.1"/>
    <path d="M 32.570366 145.226026 
L 46.836595 142.199123 
L 53.048399 140.274005 
L 38.92827 143.273438 
z
" clip-path="url(#p2ea94929db)" style="fill: #c7a800; fill-opacity: 0.4; stroke: #000000; stroke-opacity: 0.4; stroke-width: 0.1"/>
    <path d="M 151.451495 118.16403 
L 166.457862 114.969175 
L 171.144151 113.390099 
L 156.302592 116.553252 
z
" clip-path="url(#p2ea94929db)" style="fill: #c7a800; fill-opacity: 0.4; stroke: #000000; stroke-opacity: 0.4; stroke-width: 0.1"/>
    <path d="M 116.661286 126.15702 
L 131.478525 123.005915 
L 136.621189 121.321401 
L 121.963863 124.441944 
z
" clip-path="url(#p2ea94929db)" style="fill: #c7a800; fill-opacity: 0.4; stroke: #000000; stroke-opacity: 0.4; stroke-width: 0.1"/>
    <path d="M 81.789748 134.168696 
L 96.41693 131.061554 
L 102.01809 129.271113 
L 87.54589 132.348841 
z
" clip-path="url(#p2ea94929db)" style="fill: #c7a800; fill-opacity: 0.4; stroke: #000000; stroke-opacity: 0.4; stroke-width: 0.1"/>
    <path d="M 46.836595 142.199123 
L 61.272787 139.136158 
L 67.334576 137.2393 
L 53.048399 140.274005 
z
" clip-path="url(#p2ea94929db)" style="fill: #c7a800; fill-opacity: 0.4; stroke: #000000; stroke-opacity: 0.4; stroke-width: 0.1"/>
    <path d="M 166.457862 114.969175 
L 181.643444 111.736166 
L 186.16066 110.189659 
L 171.144151 113.390099 
z
" clip-path="url(#p2ea94929db)" style="fill: #c7a800; fill-opacity: 0.4; stroke: #000000; stroke-opacity: 0.4; stroke-width: 0.1"/>
    <path d="M 131.478525 123.005915 
L 146.472929 119.817133 
L 151.451495 118.16403 
L 136.621189 121.321401 
z
" clip-path="url(#p2ea94929db)" style="fill: #c7a800; fill-opacity: 0.4; stroke: #000000; stroke-opacity: 0.4; stroke-width: 0.1"/>
    <path d="M 96.41693 131.061554 
L 111.219212 127.917216 
L 116.661286 126.15702 
L 102.01809 129.271113 
z
" clip-path="url(#p2ea94929db)" style="fill: #c7a800; fill-opacity: 0.4; stroke: #000000; stroke-opacity: 0.4; stroke-width: 0.1"/>
    <path d="M 61.272787 139.136158 
L 75.881997 136.036484 
L 81.789748 134.168696 
L 67.334576 137.2393 
z
" clip-path="url(#p2ea94929db)" style="fill: #c7a800; fill-opacity: 0.4; stroke: #000000; stroke-opacity: 0.4; stroke-width: 0.1"/>
    <path d="M 26.045804 147.229796 
L 40.460987 144.175006 
L 46.836595 142.199123 
L 32.570366 145.226026 
z
" clip-path="url(#p2ea94929db)" style="fill: #c7a800; fill-opacity: 0.4; stroke: #000000; stroke-opacity: 0.4; stroke-width: 0.1"/>
    <path d="M 146.472929 119.817133 
L 161.647695 116.589994 
L 166.457862 114.969175 
L 151.451495 118.16403 
z
" clip-path="url(#p2ea94929db)" style="fill: #c7a800; fill-opacity: 0.4; stroke: #000000; stroke-opacity: 0.4; stroke-width: 0.1"/>
    <path d="M 111.219212 127.917216 
L 126.199756 124.735011 
L 131.478525 123.005915 
L 116.661286 126.15702 
z
" clip-path="url(#p2ea94929db)" style="fill: #c7a800; fill-opacity: 0.4; stroke: #000000; stroke-opacity: 0.4; stroke-width: 0.1"/>
    <path d="M 75.881997 136.036484 
L 90.667354 132.899436 
L 96.41693 131.061554 
L 81.789748 134.168696 
z
" clip-path="url(#p2ea94929db)" style="fill: #c7a800; fill-opacity: 0.4; stroke: #000000; stroke-opacity: 0.4; stroke-width: 0.1"/>
    <path d="M 40.460987 144.175006 
L 55.050185 141.083339 
L 61.272787 139.136158 
L 46.836595 142.199123 
z
" clip-path="url(#p2ea94929db)" style="fill: #c7a800; fill-opacity: 0.4; stroke: #000000; stroke-opacity: 0.4; stroke-width: 0.1"/>
    <path d="M 161.647695 116.589994 
L 177.006097 113.323802 
L 181.643444 111.736166 
L 166.457862 114.969175 
z
" clip-path="url(#p2ea94929db)" style="fill: #c7a800; fill-opacity: 0.4; stroke: #000000; stroke-opacity: 0.4; stroke-width: 0.1"/>
    <path d="M 126.199756 124.735011 
L 141.361803 121.514251 
L 146.472929 119.817133 
L 131.478525 123.005915 
z
" clip-path="url(#p2ea94929db)" style="fill: #c7a800; fill-opacity: 0.4; stroke: #000000; stroke-opacity: 0.4; stroke-width: 0.1"/>
    <path d="M 90.667354 132.899436 
L 105.632063 129.724335 
L 111.219212 127.917216 
L 96.41693 131.061554 
z
" clip-path="url(#p2ea94929db)" style="fill: #c7a800; fill-opacity: 0.4; stroke: #000000; stroke-opacity: 0.4; stroke-width: 0.1"/>
    <path d="M 55.050185 141.083339 
L 69.816569 137.954123 
L 75.881997 136.036484 
L 61.272787 139.136158 
z
" clip-path="url(#p2ea94929db)" style="fill: #c7a800; fill-opacity: 0.4; stroke: #000000; stroke-opacity: 0.4; stroke-width: 0.1"/>
    <path d="M 141.361803 121.514251 
L 156.708671 118.254231 
L 161.647695 116.589994 
L 146.472929 119.817133 
z
" clip-path="url(#p2ea94929db)" style="fill: #c7a800; fill-opacity: 0.4; stroke: #000000; stroke-opacity: 0.4; stroke-width: 0.1"/>
    <path d="M 105.632063 129.724335 
L 120.779408 126.510483 
L 126.199756 124.735011 
L 111.219212 127.917216 
z
" clip-path="url(#p2ea94929db)" style="fill: #c7a800; fill-opacity: 0.4; stroke: #000000; stroke-opacity: 0.4; stroke-width: 0.1"/>
    <path d="M 69.816569 137.954123 
L 84.763384 134.786672 
L 90.667354 132.899436 
L 75.881997 136.036484 
z
" clip-path="url(#p2ea94929db)" style="fill: #c7a800; fill-opacity: 0.4; stroke: #000000; stroke-opacity: 0.4; stroke-width: 0.1"/>
    <path d="M 156.708671 118.254231 
L 172.24376 114.954229 
L 177.006097 113.323802 
L 161.647695 116.589994 
z
" clip-path="url(#p2ea94929db)" style="fill: #c7a800; fill-opacity: 0.4; stroke: #000000; stroke-opacity: 0.4; stroke-width: 0.1"/>
    <path d="M 120.779408 126.510483 
L 136.112752 123.257168 
L 141.361803 121.514251 
L 126.199756 124.735011 
z
" clip-path="url(#p2ea94929db)" style="fill: #c7a800; fill-opacity: 0.4; stroke: #000000; stroke-opacity: 0.4; stroke-width: 0.1"/>
    <path d="M 84.763384 134.786672 
L 99.89396 131.580279 
L 105.632063 129.724335 
L 90.667354 132.899436 
z
" clip-path="url(#p2ea94929db)" style="fill: #c7a800; fill-opacity: 0.4; stroke: #000000; stroke-opacity: 0.4; stroke-width: 0.1"/>
    <path d="M 136.112752 123.257168 
L 151.635543 119.963656 
L 156.708671 118.254231 
L 141.361803 121.514251 
z
" clip-path="url(#p2ea94929db)" style="fill: #c7a800; fill-opacity: 0.4; stroke: #000000; stroke-opacity: 0.4; stroke-width: 0.1"/>
    <path d="M 99.89396 131.580279 
L 115.211706 128.334222 
L 120.779408 126.510483 
L 105.632063 129.724335 
z
" clip-path="url(#p2ea94929db)" style="fill: #c7a800; fill-opacity: 0.4; stroke: #000000; stroke-opacity: 0.4; stroke-width: 0.1"/>
    <path d="M 151.635543 119.963656 
L 167.351313 116.6292 
L 172.24376 114.954229 
L 156.708671 118.254231 
z
" clip-path="url(#p2ea94929db)" style="fill: #c7a800; fill-opacity: 0.4; stroke: #000000; stroke-opacity: 0.4; stroke-width: 0.1"/>
    <path d="M 115.211706 128.334222 
L 130.720116 125.04776 
L 136.112752 123.257168 
L 120.779408 126.510483 
z
" clip-path="url(#p2ea94929db)" style="fill: #c7a800; fill-opacity: 0.4; stroke: #000000; stroke-opacity: 0.4; stroke-width: 0.1"/>
    <path d="M 130.720116 125.04776 
L 146.422773 121.720135 
L 151.635543 119.963656 
L 136.112752 123.257168 
z
" clip-path="url(#p2ea94929db)" style="fill: #c7a800; fill-opacity: 0.4; stroke: #000000; stroke-opacity: 0.4; stroke-width: 0.1"/>
    <path d="M 146.422773 121.720135 
L 162.323349 118.350567 
L 167.351313 116.6292 
L 151.635543 119.963656 
z
" clip-path="url(#p2ea94929db)" style="fill: #c7a800; fill-opacity: 0.4; stroke: #000000; stroke-opacity: 0.4; stroke-width: 0.1"/>
   </g>
   <g id="text_27">
    <!-- 2 Planos Coincidentes -->
    <g transform="translate(59.472031 14.798437) scale(0.1 -0.1)">
     <defs>
      <path id="DejaVuSans-20" transform="scale(0.015625)"/>
      <path id="DejaVuSans-50" d="M 1259 4147 
L 1259 2394 
L 2053 2394 
Q 2494 2394 2734 2622 
Q 2975 2850 2975 3272 
Q 2975 3691 2734 3919 
Q 2494 4147 2053 4147 
L 1259 4147 
z
M 628 4666 
L 2053 4666 
Q 2838 4666 3239 4311 
Q 3641 3956 3641 3272 
Q 3641 2581 3239 2228 
Q 2838 1875 2053 1875 
L 1259 1875 
L 1259 0 
L 628 0 
L 628 4666 
z
" transform="scale(0.015625)"/>
      <path id="DejaVuSans-6c" d="M 603 4863 
L 1178 4863 
L 1178 0 
L 603 0 
L 603 4863 
z
" transform="scale(0.015625)"/>
      <path id="DejaVuSans-61" d="M 2194 1759 
Q 1497 1759 1228 1600 
Q 959 1441 959 1056 
Q 959 750 1161 570 
Q 1363 391 1709 391 
Q 2188 391 2477 730 
Q 2766 1069 2766 1631 
L 2766 1759 
L 2194 1759 
z
M 3341 1997 
L 3341 0 
L 2766 0 
L 2766 531 
Q 2569 213 2275 61 
Q 1981 -91 1556 -91 
Q 1019 -91 701 211 
Q 384 513 384 1019 
Q 384 1609 779 1909 
Q 1175 2209 1959 2209 
L 2766 2209 
L 2766 2266 
Q 2766 2663 2505 2880 
Q 2244 3097 1772 3097 
Q 1472 3097 1187 3025 
Q 903 2953 641 2809 
L 641 3341 
Q 956 3463 1253 3523 
Q 1550 3584 1831 3584 
Q 2591 3584 2966 3190 
Q 3341 2797 3341 1997 
z
" transform="scale(0.015625)"/>
      <path id="DejaVuSans-6e" d="M 3513 2113 
L 3513 0 
L 2938 0 
L 2938 2094 
Q 2938 2591 2744 2837 
Q 2550 3084 2163 3084 
Q 1697 3084 1428 2787 
Q 1159 2491 1159 1978 
L 1159 0 
L 581 0 
L 581 3500 
L 1159 3500 
L 1159 2956 
Q 1366 3272 1645 3428 
Q 1925 3584 2291 3584 
Q 2894 3584 3203 3211 
Q 3513 2838 3513 2113 
z
" transform="scale(0.015625)"/>
      <path id="DejaVuSans-6f" d="M 1959 3097 
Q 1497 3097 1228 2736 
Q 959 2375 959 1747 
Q 959 1119 1226 758 
Q 1494 397 1959 397 
Q 2419 397 2687 759 
Q 2956 1122 2956 1747 
Q 2956 2369 2687 2733 
Q 2419 3097 1959 3097 
z
M 1959 3584 
Q 2709 3584 3137 3096 
Q 3566 2609 3566 1747 
Q 3566 888 3137 398 
Q 2709 -91 1959 -91 
Q 1206 -91 779 398 
Q 353 888 353 1747 
Q 353 2609 779 3096 
Q 1206 3584 1959 3584 
z
" transform="scale(0.015625)"/>
      <path id="DejaVuSans-73" d="M 2834 3397 
L 2834 2853 
Q 2591 2978 2328 3040 
Q 2066 3103 1784 3103 
Q 1356 3103 1142 2972 
Q 928 2841 928 2578 
Q 928 2378 1081 2264 
Q 1234 2150 1697 2047 
L 1894 2003 
Q 2506 1872 2764 1633 
Q 3022 1394 3022 966 
Q 3022 478 2636 193 
Q 2250 -91 1575 -91 
Q 1294 -91 989 -36 
Q 684 19 347 128 
L 347 722 
Q 666 556 975 473 
Q 1284 391 1588 391 
Q 1994 391 2212 530 
Q 2431 669 2431 922 
Q 2431 1156 2273 1281 
Q 2116 1406 1581 1522 
L 1381 1569 
Q 847 1681 609 1914 
Q 372 2147 372 2553 
Q 372 3047 722 3315 
Q 1072 3584 1716 3584 
Q 2034 3584 2315 3537 
Q 2597 3491 2834 3397 
z
" transform="scale(0.015625)"/>
      <path id="DejaVuSans-43" d="M 4122 4306 
L 4122 3641 
Q 3803 3938 3442 4084 
Q 3081 4231 2675 4231 
Q 1875 4231 1450 3742 
Q 1025 3253 1025 2328 
Q 1025 1406 1450 917 
Q 1875 428 2675 428 
Q 3081 428 3442 575 
Q 3803 722 4122 1019 
L 4122 359 
Q 3791 134 3420 21 
Q 3050 -91 2638 -91 
Q 1578 -91 968 557 
Q 359 1206 359 2328 
Q 359 3453 968 4101 
Q 1578 4750 2638 4750 
Q 3056 4750 3426 4639 
Q 3797 4528 4122 4306 
z
" transform="scale(0.015625)"/>
      <path id="DejaVuSans-69" d="M 603 3500 
L 1178 3500 
L 1178 0 
L 603 0 
L 603 3500 
z
M 603 4863 
L 1178 4863 
L 1178 4134 
L 603 4134 
L 603 4863 
z
" transform="scale(0.015625)"/>
      <path id="DejaVuSans-63" d="M 3122 3366 
L 3122 2828 
Q 2878 2963 2633 3030 
Q 2388 3097 2138 3097 
Q 1578 3097 1268 2742 
Q 959 2388 959 1747 
Q 959 1106 1268 751 
Q 1578 397 2138 397 
Q 2388 397 2633 464 
Q 2878 531 3122 666 
L 3122 134 
Q 2881 22 2623 -34 
Q 2366 -91 2075 -91 
Q 1284 -91 818 406 
Q 353 903 353 1747 
Q 353 2603 823 3093 
Q 1294 3584 2113 3584 
Q 2378 3584 2631 3529 
Q 2884 3475 3122 3366 
z
" transform="scale(0.015625)"/>
      <path id="DejaVuSans-64" d="M 2906 2969 
L 2906 4863 
L 3481 4863 
L 3481 0 
L 2906 0 
L 2906 525 
Q 2725 213 2448 61 
Q 2172 -91 1784 -91 
Q 1150 -91 751 415 
Q 353 922 353 1747 
Q 353 2572 751 3078 
Q 1150 3584 1784 3584 
Q 2172 3584 2448 3432 
Q 2725 3281 2906 2969 
z
M 947 1747 
Q 947 1113 1208 752 
Q 1469 391 1925 391 
Q 2381 391 2643 752 
Q 2906 1113 2906 1747 
Q 2906 2381 2643 2742 
Q 2381 3103 1925 3103 
Q 1469 3103 1208 2742 
Q 947 2381 947 1747 
z
" transform="scale(0.015625)"/>
      <path id="DejaVuSans-65" d="M 3597 1894 
L 3597 1613 
L 953 1613 
Q 991 1019 1311 708 
Q 1631 397 2203 397 
Q 2534 397 2845 478 
Q 3156 559 3463 722 
L 3463 178 
Q 3153 47 2828 -22 
Q 2503 -91 2169 -91 
Q 1331 -91 842 396 
Q 353 884 353 1716 
Q 353 2575 817 3079 
Q 1281 3584 2069 3584 
Q 2775 3584 3186 3129 
Q 3597 2675 3597 1894 
z
M 3022 2063 
Q 3016 2534 2758 2815 
Q 2500 3097 2075 3097 
Q 1594 3097 1305 2825 
Q 1016 2553 972 2059 
L 3022 2063 
z
" transform="scale(0.015625)"/>
      <path id="DejaVuSans-74" d="M 1172 4494 
L 1172 3500 
L 2356 3500 
L 2356 3053 
L 1172 3053 
L 1172 1153 
Q 1172 725 1289 603 
Q 1406 481 1766 481 
L 2356 481 
L 2356 0 
L 1766 0 
Q 1100 0 847 248 
Q 594 497 594 1153 
L 594 3053 
L 172 3053 
L 172 3500 
L 594 3500 
L 594 4494 
L 1172 4494 
z
" transform="scale(0.015625)"/>
     </defs>
     <use xlink:href="#DejaVuSans-32"/>
     <use xlink:href="#DejaVuSans-20" transform="translate(63.623047 0)"/>
     <use xlink:href="#DejaVuSans-50" transform="translate(95.410156 0)"/>
     <use xlink:href="#DejaVuSans-6c" transform="translate(155.712891 0)"/>
     <use xlink:href="#DejaVuSans-61" transform="translate(183.496094 0)"/>
     <use xlink:href="#DejaVuSans-6e" transform="translate(244.775391 0)"/>
     <use xlink:href="#DejaVuSans-6f" transform="translate(308.154297 0)"/>
     <use xlink:href="#DejaVuSans-73" transform="translate(369.335938 0)"/>
     <use xlink:href="#DejaVuSans-20" transform="translate(421.435547 0)"/>
     <use xlink:href="#DejaVuSans-43" transform="translate(453.222656 0)"/>
     <use xlink:href="#DejaVuSans-6f" transform="translate(523.046875 0)"/>
     <use xlink:href="#DejaVuSans-69" transform="translate(584.228516 0)"/>
     <use xlink:href="#DejaVuSans-6e" transform="translate(612.011719 0)"/>
     <use xlink:href="#DejaVuSans-63" transform="translate(675.390625 0)"/>
     <use xlink:href="#DejaVuSans-69" transform="translate(730.371094 0)"/>
     <use xlink:href="#DejaVuSans-64" transform="translate(758.154297 0)"/>
     <use xlink:href="#DejaVuSans-65" transform="translate(821.630859 0)"/>
     <use xlink:href="#DejaVuSans-6e" transform="translate(883.154297 0)"/>
     <use xlink:href="#DejaVuSans-74" transform="translate(946.533203 0)"/>
     <use xlink:href="#DejaVuSans-65" transform="translate(985.742188 0)"/>
     <use xlink:href="#DejaVuSans-73" transform="translate(1047.265625 0)"/>
    </g>
   </g>
   <g id="Poly3DCollection_2">
    <path d="M 73.908044 132.530736 
L 87.207563 129.687643 
L 92.431047 128.068818 
L 79.259578 130.887217 
z
" clip-path="url(#p2ea94929db)" style="fill: #87c725; fill-opacity: 0.4; stroke: #808080; stroke-opacity: 0.4; stroke-width: 0.1"/>
    <path d="M 87.207563 129.687643 
L 100.652227 126.813522 
L 105.74456 125.220026 
L 92.431047 128.068818 
z
" clip-path="url(#p2ea94929db)" style="fill: #87c725; fill-opacity: 0.4; stroke: #808080; stroke-opacity: 0.4; stroke-width: 0.1"/>
    <path d="M 100.652227 126.813522 
L 114.244425 123.907862 
L 119.202427 122.340345 
L 105.74456 125.220026 
z
" clip-path="url(#p2ea94929db)" style="fill: #87c725; fill-opacity: 0.4; stroke: #808080; stroke-opacity: 0.4; stroke-width: 0.1"/>
    <path d="M 68.428022 134.213716 
L 81.857977 131.345548 
L 87.207563 129.687643 
L 73.908044 132.530736 
z
" clip-path="url(#p2ea94929db)" style="fill: #87c725; fill-opacity: 0.4; stroke: #808080; stroke-opacity: 0.4; stroke-width: 0.1"/>
    <path d="M 114.244425 123.907862 
L 127.986599 120.970141 
L 132.807009 119.429271 
L 119.202427 122.340345 
z
" clip-path="url(#p2ea94929db)" style="fill: #87c725; fill-opacity: 0.4; stroke: #808080; stroke-opacity: 0.4; stroke-width: 0.1"/>
    <path d="M 81.857977 131.345548 
L 95.436279 128.445699 
L 100.652227 126.813522 
L 87.207563 129.687643 
z
" clip-path="url(#p2ea94929db)" style="fill: #87c725; fill-opacity: 0.4; stroke: #808080; stroke-opacity: 0.4; stroke-width: 0.1"/>
    <path d="M 127.986599 120.970141 
L 141.881245 117.999825 
L 146.560718 116.486287 
L 132.807009 119.429271 
z
" clip-path="url(#p2ea94929db)" style="fill: #87c725; fill-opacity: 0.4; stroke: #808080; stroke-opacity: 0.4; stroke-width: 0.1"/>
    <path d="M 95.436279 128.445699 
L 109.1654 125.513641 
L 114.244425 123.907862 
L 100.652227 126.813522 
z
" clip-path="url(#p2ea94929db)" style="fill: #87c725; fill-opacity: 0.4; stroke: #808080; stroke-opacity: 0.4; stroke-width: 0.1"/>
    <path d="M 62.814826 135.937595 
L 76.377664 133.043968 
L 81.857977 131.345548 
L 68.428022 134.213716 
z
" clip-path="url(#p2ea94929db)" style="fill: #87c725; fill-opacity: 0.4; stroke: #808080; stroke-opacity: 0.4; stroke-width: 0.1"/>
    <path d="M 141.881245 117.999825 
L 155.930914 114.996369 
L 160.46602 113.510865 
L 146.560718 116.486287 
z
" clip-path="url(#p2ea94929db)" style="fill: #87c725; fill-opacity: 0.4; stroke: #808080; stroke-opacity: 0.4; stroke-width: 0.1"/>
    <path d="M 109.1654 125.513641 
L 123.047867 122.548833 
L 127.986599 120.970141 
L 114.244425 123.907862 
z
" clip-path="url(#p2ea94929db)" style="fill: #87c725; fill-opacity: 0.4; stroke: #808080; stroke-opacity: 0.4; stroke-width: 0.1"/>
    <path d="M 76.377664 133.043968 
L 90.092158 130.117985 
L 95.436279 128.445699 
L 81.857977 131.345548 
z
" clip-path="url(#p2ea94929db)" style="fill: #87c725; fill-opacity: 0.4; stroke: #808080; stroke-opacity: 0.4; stroke-width: 0.1"/>
    <path d="M 155.930914 114.996369 
L 170.138216 111.959216 
L 174.525434 110.502466 
L 160.46602 113.510865 
z
" clip-path="url(#p2ea94929db)" style="fill: #87c725; fill-opacity: 0.4; stroke: #808080; stroke-opacity: 0.4; stroke-width: 0.1"/>
    <path d="M 123.047867 122.548833 
L 137.086264 119.550723 
L 141.881245 117.999825 
L 127.986599 120.970141 
z
" clip-path="url(#p2ea94929db)" style="fill: #87c725; fill-opacity: 0.4; stroke: #808080; stroke-opacity: 0.4; stroke-width: 0.1"/>
    <path d="M 90.092158 130.117985 
L 103.960865 127.1591 
L 109.1654 125.513641 
L 95.436279 128.445699 
z
" clip-path="url(#p2ea94929db)" style="fill: #87c725; fill-opacity: 0.4; stroke: #808080; stroke-opacity: 0.4; stroke-width: 0.1"/>
    <path d="M 57.063544 137.703881 
L 70.761775 134.784403 
L 76.377664 133.043968 
L 62.814826 135.937595 
z
" clip-path="url(#p2ea94929db)" style="fill: #87c725; fill-opacity: 0.4; stroke: #808080; stroke-opacity: 0.4; stroke-width: 0.1"/>
    <path d="M 170.138216 111.959216 
L 184.505818 108.887794 
L 188.741538 107.46054 
L 174.525434 110.502466 
z
" clip-path="url(#p2ea94929db)" style="fill: #87c725; fill-opacity: 0.4; stroke: #808080; stroke-opacity: 0.4; stroke-width: 0.1"/>
    <path d="M 137.086264 119.550723 
L 151.283232 116.518749 
L 155.930914 114.996369 
L 141.881245 117.999825 
z
" clip-path="url(#p2ea94929db)" style="fill: #87c725; fill-opacity: 0.4; stroke: #808080; stroke-opacity: 0.4; stroke-width: 0.1"/>
    <path d="M 103.960865 127.1591 
L 117.986403 124.166757 
L 123.047867 122.548833 
L 109.1654 125.513641 
z
" clip-path="url(#p2ea94929db)" style="fill: #87c725; fill-opacity: 0.4; stroke: #808080; stroke-opacity: 0.4; stroke-width: 0.1"/>
    <path d="M 70.761775 134.784403 
L 84.615081 131.831875 
L 90.092158 130.117985 
L 76.377664 133.043968 
z
" clip-path="url(#p2ea94929db)" style="fill: #87c725; fill-opacity: 0.4; stroke: #808080; stroke-opacity: 0.4; stroke-width: 0.1"/>
    <path d="M 184.505818 108.887794 
L 199.03645 105.781521 
L 203.116965 104.384522 
L 188.741538 107.46054 
z
" clip-path="url(#p2ea94929db)" style="fill: #87c725; fill-opacity: 0.4; stroke: #808080; stroke-opacity: 0.4; stroke-width: 0.1"/>
    <path d="M 151.283232 116.518749 
L 165.641474 113.452332 
L 170.138216 111.959216 
L 155.930914 114.996369 
z
" clip-path="url(#p2ea94929db)" style="fill: #87c725; fill-opacity: 0.4; stroke: #808080; stroke-opacity: 0.4; stroke-width: 0.1"/>
    <path d="M 117.986403 124.166757 
L 132.171445 121.140382 
L 137.086264 119.550723 
L 123.047867 122.548833 
z
" clip-path="url(#p2ea94929db)" style="fill: #87c725; fill-opacity: 0.4; stroke: #808080; stroke-opacity: 0.4; stroke-width: 0.1"/>
    <path d="M 84.615081 131.831875 
L 98.626111 128.845731 
L 103.960865 127.1591 
L 90.092158 130.117985 
z
" clip-path="url(#p2ea94929db)" style="fill: #87c725; fill-opacity: 0.4; stroke: #808080; stroke-opacity: 0.4; stroke-width: 0.1"/>
    <path d="M 51.169016 139.514161 
L 65.005215 136.568435 
L 70.761775 134.784403 
L 57.063544 137.703881 
z
" clip-path="url(#p2ea94929db)" style="fill: #87c725; fill-opacity: 0.4; stroke: #808080; stroke-opacity: 0.4; stroke-width: 0.1"/>
    <path d="M 165.641474 113.452332 
L 180.163753 110.350883 
L 184.505818 108.887794 
L 170.138216 111.959216 
z
" clip-path="url(#p2ea94929db)" style="fill: #87c725; fill-opacity: 0.4; stroke: #808080; stroke-opacity: 0.4; stroke-width: 0.1"/>
    <path d="M 132.171445 121.140382 
L 146.518729 118.079394 
L 151.283232 116.518749 
L 137.086264 119.550723 
z
" clip-path="url(#p2ea94929db)" style="fill: #87c725; fill-opacity: 0.4; stroke: #808080; stroke-opacity: 0.4; stroke-width: 0.1"/>
    <path d="M 98.626111 128.845731 
L 112.797573 125.825394 
L 117.986403 124.166757 
L 103.960865 127.1591 
z
" clip-path="url(#p2ea94929db)" style="fill: #87c725; fill-opacity: 0.4; stroke: #808080; stroke-opacity: 0.4; stroke-width: 0.1"/>
    <path d="M 65.005215 136.568435 
L 79.000024 133.588941 
L 84.615081 131.831875 
L 70.761775 134.784403 
z
" clip-path="url(#p2ea94929db)" style="fill: #87c725; fill-opacity: 0.4; stroke: #808080; stroke-opacity: 0.4; stroke-width: 0.1"/>
    <path d="M 180.163753 110.350883 
L 194.852896 107.213797 
L 199.03645 105.781521 
L 184.505818 108.887794 
z
" clip-path="url(#p2ea94929db)" style="fill: #87c725; fill-opacity: 0.4; stroke: #808080; stroke-opacity: 0.4; stroke-width: 0.1"/>
    <path d="M 146.518729 118.079394 
L 161.031055 114.983194 
L 165.641474 113.452332 
L 151.283232 116.518749 
z
" clip-path="url(#p2ea94929db)" style="fill: #87c725; fill-opacity: 0.4; stroke: #808080; stroke-opacity: 0.4; stroke-width: 0.1"/>
    <path d="M 112.797573 125.825394 
L 127.132239 122.770274 
L 132.171445 121.140382 
L 117.986403 124.166757 
z
" clip-path="url(#p2ea94929db)" style="fill: #87c725; fill-opacity: 0.4; stroke: #808080; stroke-opacity: 0.4; stroke-width: 0.1"/>
    <path d="M 79.000024 133.588941 
L 93.156187 130.575096 
L 98.626111 128.845731 
L 84.615081 131.831875 
z
" clip-path="url(#p2ea94929db)" style="fill: #87c725; fill-opacity: 0.4; stroke: #808080; stroke-opacity: 0.4; stroke-width: 0.1"/>
    <path d="M 45.125824 141.370096 
L 59.102633 138.397721 
L 65.005215 136.568435 
L 51.169016 139.514161 
z
" clip-path="url(#p2ea94929db)" style="fill: #87c725; fill-opacity: 0.4; stroke: #808080; stroke-opacity: 0.4; stroke-width: 0.1"/>
    <path d="M 161.031055 114.983194 
L 175.711285 111.851172 
L 180.163753 110.350883 
L 165.641474 113.452332 
z
" clip-path="url(#p2ea94929db)" style="fill: #87c725; fill-opacity: 0.4; stroke: #808080; stroke-opacity: 0.4; stroke-width: 0.1"/>
    <path d="M 127.132239 122.770274 
L 141.632945 119.679766 
L 146.518729 118.079394 
L 132.171445 121.140382 
z
" clip-path="url(#p2ea94929db)" style="fill: #87c725; fill-opacity: 0.4; stroke: #808080; stroke-opacity: 0.4; stroke-width: 0.1"/>
    <path d="M 93.156187 130.575096 
L 107.476509 127.5263 
L 112.797573 125.825394 
L 98.626111 128.845731 
z
" clip-path="url(#p2ea94929db)" style="fill: #87c725; fill-opacity: 0.4; stroke: #808080; stroke-opacity: 0.4; stroke-width: 0.1"/>
    <path d="M 59.102633 138.397721 
L 73.241707 135.390837 
L 79.000024 133.588941 
L 65.005215 136.568435 
z
" clip-path="url(#p2ea94929db)" style="fill: #87c725; fill-opacity: 0.4; stroke: #808080; stroke-opacity: 0.4; stroke-width: 0.1"/>
    <path d="M 175.711285 111.851172 
L 190.562352 108.682702 
L 194.852896 107.213797 
L 180.163753 110.350883 
z
" clip-path="url(#p2ea94929db)" style="fill: #87c725; fill-opacity: 0.4; stroke: #808080; stroke-opacity: 0.4; stroke-width: 0.1"/>
    <path d="M 141.632945 119.679766 
L 156.302592 116.553252 
L 161.031055 114.983194 
L 146.518729 118.079394 
z
" clip-path="url(#p2ea94929db)" style="fill: #87c725; fill-opacity: 0.4; stroke: #808080; stroke-opacity: 0.4; stroke-width: 0.1"/>
    <path d="M 107.476509 127.5263 
L 121.963863 124.441944 
L 127.132239 122.770274 
L 112.797573 125.825394 
z
" clip-path="url(#p2ea94929db)" style="fill: #87c725; fill-opacity: 0.4; stroke: #808080; stroke-opacity: 0.4; stroke-width: 0.1"/>
    <path d="M 73.241707 135.390837 
L 87.54589 132.348841 
L 93.156187 130.575096 
L 79.000024 133.588941 
z
" clip-path="url(#p2ea94929db)" style="fill: #87c725; fill-opacity: 0.4; stroke: #808080; stroke-opacity: 0.4; stroke-width: 0.1"/>
    <path d="M 38.92827 143.273438 
L 53.048399 140.274005 
L 59.102633 138.397721 
L 45.125824 141.370096 
z
" clip-path="url(#p2ea94929db)" style="fill: #87c725; fill-opacity: 0.4; stroke: #808080; stroke-opacity: 0.4; stroke-width: 0.1"/>
    <path d="M 156.302592 116.553252 
L 171.144151 113.390099 
L 175.711285 111.851172 
L 161.031055 114.983194 
z
" clip-path="url(#p2ea94929db)" style="fill: #87c725; fill-opacity: 0.4; stroke: #808080; stroke-opacity: 0.4; stroke-width: 0.1"/>
    <path d="M 121.963863 124.441944 
L 136.621189 121.321401 
L 141.632945 119.679766 
L 127.132239 122.770274 
z
" clip-path="url(#p2ea94929db)" style="fill: #87c725; fill-opacity: 0.4; stroke: #808080; stroke-opacity: 0.4; stroke-width: 0.1"/>
    <path d="M 87.54589 132.348841 
L 102.01809 129.271113 
L 107.476509 127.5263 
L 93.156187 130.575096 
z
" clip-path="url(#p2ea94929db)" style="fill: #87c725; fill-opacity: 0.4; stroke: #808080; stroke-opacity: 0.4; stroke-width: 0.1"/>
    <path d="M 53.048399 140.274005 
L 67.334576 137.2393 
L 73.241707 135.390837 
L 59.102633 138.397721 
z
" clip-path="url(#p2ea94929db)" style="fill: #87c725; fill-opacity: 0.4; stroke: #808080; stroke-opacity: 0.4; stroke-width: 0.1"/>
    <path d="M 171.144151 113.390099 
L 186.16066 110.189659 
L 190.562352 108.682702 
L 175.711285 111.851172 
z
" clip-path="url(#p2ea94929db)" style="fill: #87c725; fill-opacity: 0.4; stroke: #808080; stroke-opacity: 0.4; stroke-width: 0.1"/>
    <path d="M 136.621189 121.321401 
L 151.451495 118.16403 
L 156.302592 116.553252 
L 141.632945 119.679766 
z
" clip-path="url(#p2ea94929db)" style="fill: #87c725; fill-opacity: 0.4; stroke: #808080; stroke-opacity: 0.4; stroke-width: 0.1"/>
    <path d="M 102.01809 129.271113 
L 116.661286 126.15702 
L 121.963863 124.441944 
L 107.476509 127.5263 
z
" clip-path="url(#p2ea94929db)" style="fill: #87c725; fill-opacity: 0.4; stroke: #808080; stroke-opacity: 0.4; stroke-width: 0.1"/>
    <path d="M 67.334576 137.2393 
L 81.789748 134.168696 
L 87.54589 132.348841 
L 73.241707 135.390837 
z
" clip-path="url(#p2ea94929db)" style="fill: #87c725; fill-opacity: 0.4; stroke: #808080; stroke-opacity: 0.4; stroke-width: 0.1"/>
    <path d="M 32.570366 145.226026 
L 46.836595 142.199123 
L 53.048399 140.274005 
L 38.92827 143.273438 
z
" clip-path="url(#p2ea94929db)" style="fill: #87c725; fill-opacity: 0.4; stroke: #808080; stroke-opacity: 0.4; stroke-width: 0.1"/>
    <path d="M 151.451495 118.16403 
L 166.457862 114.969175 
L 171.144151 113.390099 
L 156.302592 116.553252 
z
" clip-path="url(#p2ea94929db)" style="fill: #87c725; fill-opacity: 0.4; stroke: #808080; stroke-opacity: 0.4; stroke-width: 0.1"/>
    <path d="M 116.661286 126.15702 
L 131.478525 123.005915 
L 136.621189 121.321401 
L 121.963863 124.441944 
z
" clip-path="url(#p2ea94929db)" style="fill: #87c725; fill-opacity: 0.4; stroke: #808080; stroke-opacity: 0.4; stroke-width: 0.1"/>
    <path d="M 81.789748 134.168696 
L 96.41693 131.061554 
L 102.01809 129.271113 
L 87.54589 132.348841 
z
" clip-path="url(#p2ea94929db)" style="fill: #87c725; fill-opacity: 0.4; stroke: #808080; stroke-opacity: 0.4; stroke-width: 0.1"/>
    <path d="M 46.836595 142.199123 
L 61.272787 139.136158 
L 67.334576 137.2393 
L 53.048399 140.274005 
z
" clip-path="url(#p2ea94929db)" style="fill: #87c725; fill-opacity: 0.4; stroke: #808080; stroke-opacity: 0.4; stroke-width: 0.1"/>
    <path d="M 166.457862 114.969175 
L 181.643444 111.736166 
L 186.16066 110.189659 
L 171.144151 113.390099 
z
" clip-path="url(#p2ea94929db)" style="fill: #87c725; fill-opacity: 0.4; stroke: #808080; stroke-opacity: 0.4; stroke-width: 0.1"/>
    <path d="M 131.478525 123.005915 
L 146.472929 119.817133 
L 151.451495 118.16403 
L 136.621189 121.321401 
z
" clip-path="url(#p2ea94929db)" style="fill: #87c725; fill-opacity: 0.4; stroke: #808080; stroke-opacity: 0.4; stroke-width: 0.1"/>
    <path d="M 96.41693 131.061554 
L 111.219212 127.917216 
L 116.661286 126.15702 
L 102.01809 129.271113 
z
" clip-path="url(#p2ea94929db)" style="fill: #87c725; fill-opacity: 0.4; stroke: #808080; stroke-opacity: 0.4; stroke-width: 0.1"/>
    <path d="M 61.272787 139.136158 
L 75.881997 136.036484 
L 81.789748 134.168696 
L 67.334576 137.2393 
z
" clip-path="url(#p2ea94929db)" style="fill: #87c725; fill-opacity: 0.4; stroke: #808080; stroke-opacity: 0.4; stroke-width: 0.1"/>
    <path d="M 26.045804 147.229796 
L 40.460987 144.175006 
L 46.836595 142.199123 
L 32.570366 145.226026 
z
" clip-path="url(#p2ea94929db)" style="fill: #87c725; fill-opacity: 0.4; stroke: #808080; stroke-opacity: 0.4; stroke-width: 0.1"/>
    <path d="M 146.472929 119.817133 
L 161.647695 116.589994 
L 166.457862 114.969175 
L 151.451495 118.16403 
z
" clip-path="url(#p2ea94929db)" style="fill: #87c725; fill-opacity: 0.4; stroke: #808080; stroke-opacity: 0.4; stroke-width: 0.1"/>
    <path d="M 111.219212 127.917216 
L 126.199756 124.735011 
L 131.478525 123.005915 
L 116.661286 126.15702 
z
" clip-path="url(#p2ea94929db)" style="fill: #87c725; fill-opacity: 0.4; stroke: #808080; stroke-opacity: 0.4; stroke-width: 0.1"/>
    <path d="M 75.881997 136.036484 
L 90.667354 132.899436 
L 96.41693 131.061554 
L 81.789748 134.168696 
z
" clip-path="url(#p2ea94929db)" style="fill: #87c725; fill-opacity: 0.4; stroke: #808080; stroke-opacity: 0.4; stroke-width: 0.1"/>
    <path d="M 40.460987 144.175006 
L 55.050185 141.083339 
L 61.272787 139.136158 
L 46.836595 142.199123 
z
" clip-path="url(#p2ea94929db)" style="fill: #87c725; fill-opacity: 0.4; stroke: #808080; stroke-opacity: 0.4; stroke-width: 0.1"/>
    <path d="M 161.647695 116.589994 
L 177.006097 113.323802 
L 181.643444 111.736166 
L 166.457862 114.969175 
z
" clip-path="url(#p2ea94929db)" style="fill: #87c725; fill-opacity: 0.4; stroke: #808080; stroke-opacity: 0.4; stroke-width: 0.1"/>
    <path d="M 126.199756 124.735011 
L 141.361803 121.514251 
L 146.472929 119.817133 
L 131.478525 123.005915 
z
" clip-path="url(#p2ea94929db)" style="fill: #87c725; fill-opacity: 0.4; stroke: #808080; stroke-opacity: 0.4; stroke-width: 0.1"/>
    <path d="M 90.667354 132.899436 
L 105.632063 129.724335 
L 111.219212 127.917216 
L 96.41693 131.061554 
z
" clip-path="url(#p2ea94929db)" style="fill: #87c725; fill-opacity: 0.4; stroke: #808080; stroke-opacity: 0.4; stroke-width: 0.1"/>
    <path d="M 55.050185 141.083339 
L 69.816569 137.954123 
L 75.881997 136.036484 
L 61.272787 139.136158 
z
" clip-path="url(#p2ea94929db)" style="fill: #87c725; fill-opacity: 0.4; stroke: #808080; stroke-opacity: 0.4; stroke-width: 0.1"/>
    <path d="M 141.361803 121.514251 
L 156.708671 118.254231 
L 161.647695 116.589994 
L 146.472929 119.817133 
z
" clip-path="url(#p2ea94929db)" style="fill: #87c725; fill-opacity: 0.4; stroke: #808080; stroke-opacity: 0.4; stroke-width: 0.1"/>
    <path d="M 105.632063 129.724335 
L 120.779408 126.510483 
L 126.199756 124.735011 
L 111.219212 127.917216 
z
" clip-path="url(#p2ea94929db)" style="fill: #87c725; fill-opacity: 0.4; stroke: #808080; stroke-opacity: 0.4; stroke-width: 0.1"/>
    <path d="M 69.816569 137.954123 
L 84.763384 134.786672 
L 90.667354 132.899436 
L 75.881997 136.036484 
z
" clip-path="url(#p2ea94929db)" style="fill: #87c725; fill-opacity: 0.4; stroke: #808080; stroke-opacity: 0.4; stroke-width: 0.1"/>
    <path d="M 156.708671 118.254231 
L 172.24376 114.954229 
L 177.006097 113.323802 
L 161.647695 116.589994 
z
" clip-path="url(#p2ea94929db)" style="fill: #87c725; fill-opacity: 0.4; stroke: #808080; stroke-opacity: 0.4; stroke-width: 0.1"/>
    <path d="M 120.779408 126.510483 
L 136.112752 123.257168 
L 141.361803 121.514251 
L 126.199756 124.735011 
z
" clip-path="url(#p2ea94929db)" style="fill: #87c725; fill-opacity: 0.4; stroke: #808080; stroke-opacity: 0.4; stroke-width: 0.1"/>
    <path d="M 84.763384 134.786672 
L 99.89396 131.580279 
L 105.632063 129.724335 
L 90.667354 132.899436 
z
" clip-path="url(#p2ea94929db)" style="fill: #87c725; fill-opacity: 0.4; stroke: #808080; stroke-opacity: 0.4; stroke-width: 0.1"/>
    <path d="M 136.112752 123.257168 
L 151.635543 119.963656 
L 156.708671 118.254231 
L 141.361803 121.514251 
z
" clip-path="url(#p2ea94929db)" style="fill: #87c725; fill-opacity: 0.4; stroke: #808080; stroke-opacity: 0.4; stroke-width: 0.1"/>
    <path d="M 99.89396 131.580279 
L 115.211706 128.334222 
L 120.779408 126.510483 
L 105.632063 129.724335 
z
" clip-path="url(#p2ea94929db)" style="fill: #87c725; fill-opacity: 0.4; stroke: #808080; stroke-opacity: 0.4; stroke-width: 0.1"/>
    <path d="M 151.635543 119.963656 
L 167.351313 116.6292 
L 172.24376 114.954229 
L 156.708671 118.254231 
z
" clip-path="url(#p2ea94929db)" style="fill: #87c725; fill-opacity: 0.4; stroke: #808080; stroke-opacity: 0.4; stroke-width: 0.1"/>
    <path d="M 115.211706 128.334222 
L 130.720116 125.04776 
L 136.112752 123.257168 
L 120.779408 126.510483 
z
" clip-path="url(#p2ea94929db)" style="fill: #87c725; fill-opacity: 0.4; stroke: #808080; stroke-opacity: 0.4; stroke-width: 0.1"/>
    <path d="M 130.720116 125.04776 
L 146.422773 121.720135 
L 151.635543 119.963656 
L 136.112752 123.257168 
z
" clip-path="url(#p2ea94929db)" style="fill: #87c725; fill-opacity: 0.4; stroke: #808080; stroke-opacity: 0.4; stroke-width: 0.1"/>
    <path d="M 146.422773 121.720135 
L 162.323349 118.350567 
L 167.351313 116.6292 
L 151.635543 119.963656 
z
" clip-path="url(#p2ea94929db)" style="fill: #87c725; fill-opacity: 0.4; stroke: #808080; stroke-opacity: 0.4; stroke-width: 0.1"/>
   </g>
  </g>
 </g>
 <defs>
  <clipPath id="p2ea94929db">
   <rect x="7.2" y="20.798437" width="214.48" height="214.48"/>
  </clipPath>
 </defs>
</svg>
