<?xml version="1.0" encoding="utf-8" standalone="no"?>
<!DOCTYPE svg PUBLIC "-//W3C//DTD SVG 1.1//EN"
  "http://www.w3.org/Graphics/SVG/1.1/DTD/svg11.dtd">
<svg xmlns:xlink="http://www.w3.org/1999/xlink" width="231.479916pt" height="242.478437pt" viewBox="0 0 231.479916 242.478437" xmlns="http://www.w3.org/2000/svg" version="1.1">
 <metadata>
  <rdf:RDF xmlns:dc="http://purl.org/dc/elements/1.1/" xmlns:cc="http://creativecommons.org/ns#" xmlns:rdf="http://www.w3.org/1999/02/22-rdf-syntax-ns#">
   <cc:Work>
    <dc:type rdf:resource="http://purl.org/dc/dcmitype/StillImage"/>
    <dc:date>2025-06-11T09:21:55.072281</dc:date>
    <dc:format>image/svg+xml</dc:format>
    <dc:creator>
     <cc:Agent>
      <dc:title>Matplotlib v3.10.3, https://matplotlib.org/</dc:title>
     </cc:Agent>
    </dc:creator>
   </cc:Work>
  </rdf:RDF>
 </metadata>
 <defs>
  <style type="text/css">*{stroke-linejoin: round; stroke-linecap: butt}</style>
 </defs>
 <g id="figure_1">
  <g id="patch_1">
   <path d="M 0 242.478437 
L 231.479916 242.478437 
L 231.479916 0 
L 0 0 
L 0 242.478437 
z
" style="fill: none; opacity: 0"/>
  </g>
  <g id="patch_2">
   <path d="M 7.2 235.278437 
L 221.68 235.278437 
L 221.68 20.798437 
L 7.2 20.798437 
L 7.2 235.278437 
z
" style="fill: none"/>
  </g>
  <g id="pane3d_1">
   <g id="patch_3">
    <path d="M 27.252556 189.042616 
L 79.393304 142.053148 
L 78.296443 50.46632 
L 24.36073 88.84356 
" style="fill: none; opacity: 0"/>
   </g>
  </g>
  <g id="pane3d_2">
   <g id="patch_4">
    <path d="M 79.393304 142.053148 
L 201.680717 158.065517 
L 204.21038 63.517233 
L 78.296443 50.46632 
" style="fill: none; opacity: 0"/>
   </g>
  </g>
  <g id="pane3d_3">
   <g id="patch_5">
    <path d="M 27.252556 189.042616 
L 161.04946 208.744263 
L 201.680717 158.065517 
L 79.393304 142.053148 
" style="fill: none; opacity: 0"/>
   </g>
  </g>
  <g id="grid3d_1">
   <g id="Line3DCollection_1">
    <path d="M 27.252556 189.042616 
L 79.393304 142.053148 
L 78.296443 50.46632 
" style="fill: none; stroke: #b0b0b0; stroke-width: 0.8"/>
    <path d="M 48.823151 192.218894 
L 99.173159 144.643131 
L 98.644877 52.575424 
" style="fill: none; stroke: #b0b0b0; stroke-width: 0.8"/>
    <path d="M 70.677627 195.436975 
L 119.187854 147.263864 
L 119.24197 54.710302 
" style="fill: none; stroke: #b0b0b0; stroke-width: 0.8"/>
    <path d="M 92.821626 198.697687 
L 139.441597 149.915898 
L 140.092308 56.871429 
" style="fill: none; stroke: #b0b0b0; stroke-width: 0.8"/>
    <path d="M 115.26094 202.001885 
L 159.938696 152.599798 
L 161.200591 59.059291 
" style="fill: none; stroke: #b0b0b0; stroke-width: 0.8"/>
    <path d="M 138.001515 205.350444 
L 180.683562 155.31614 
L 182.571636 61.274388 
" style="fill: none; stroke: #b0b0b0; stroke-width: 0.8"/>
    <path d="M 161.04946 208.744263 
L 201.680717 158.065517 
L 204.21038 63.517233 
" style="fill: none; stroke: #b0b0b0; stroke-width: 0.8"/>
   </g>
  </g>
  <g id="grid3d_2">
   <g id="Line3DCollection_2">
    <path d="M 24.36073 88.84356 
L 27.252556 189.042616 
L 161.04946 208.744263 
" style="fill: none; stroke: #b0b0b0; stroke-width: 0.8"/>
    <path d="M 34.162832 81.869005 
L 36.704436 180.52454 
L 168.438574 199.527934 
" style="fill: none; stroke: #b0b0b0; stroke-width: 0.8"/>
    <path d="M 43.616707 75.142226 
L 45.830615 172.299989 
L 175.563112 190.641606 
" style="fill: none; stroke: #b0b0b0; stroke-width: 0.8"/>
    <path d="M 52.740587 68.65025 
L 54.647642 164.354046 
L 182.437035 182.067868 
" style="fill: none; stroke: #b0b0b0; stroke-width: 0.8"/>
    <path d="M 61.551454 62.380995 
L 63.170964 156.672791 
L 189.073337 173.79051 
" style="fill: none; stroke: #b0b0b0; stroke-width: 0.8"/>
    <path d="M 70.065144 56.323191 
L 71.415016 149.243215 
L 195.48413 165.794425 
" style="fill: none; stroke: #b0b0b0; stroke-width: 0.8"/>
    <path d="M 78.296443 50.46632 
L 79.393304 142.053148 
L 201.680717 158.065517 
" style="fill: none; stroke: #b0b0b0; stroke-width: 0.8"/>
   </g>
  </g>
  <g id="grid3d_3">
   <g id="Line3DCollection_3">
    <path d="M 201.680717 158.065517 
L 79.393304 142.053148 
L 27.252556 189.042616 
" style="fill: none; stroke: #b0b0b0; stroke-width: 0.8"/>
    <path d="M 202.174795 139.598951 
L 79.17889 124.149801 
L 26.688672 169.504554 
" style="fill: none; stroke: #b0b0b0; stroke-width: 0.8"/>
    <path d="M 202.674695 120.914756 
L 78.962039 106.042974 
L 26.117684 149.720359 
" style="fill: none; stroke: #b0b0b0; stroke-width: 0.8"/>
    <path d="M 203.180521 102.009062 
L 78.74271 87.729178 
L 25.539457 129.685348 
" style="fill: none; stroke: #b0b0b0; stroke-width: 0.8"/>
    <path d="M 203.69238 82.877907 
L 78.520859 69.204844 
L 24.953853 109.394723 
" style="fill: none; stroke: #b0b0b0; stroke-width: 0.8"/>
    <path d="M 204.21038 63.517233 
L 78.296443 50.46632 
L 24.36073 88.84356 
" style="fill: none; stroke: #b0b0b0; stroke-width: 0.8"/>
   </g>
  </g>
  <g id="axis3d_1">
   <g id="line2d_1">
    <path d="M 27.252556 189.042616 
L 161.04946 208.744263 
" style="fill: none; stroke: #000000; stroke-width: 0.8; stroke-linecap: square"/>
   </g>
   <g id="xtick_1">
    <g id="line2d_2">
     <path d="M 27.713947 188.626808 
L 26.327399 189.876371 
" style="fill: none; stroke: #000000; stroke-width: 0.8; stroke-linecap: square"/>
    </g>
    <g id="text_1">
     <!-- −3 -->
     <g transform="translate(15.657145 210.592014) scale(0.08 -0.08)">
      <defs>
       <path id="DejaVuSans-2212" d="M 678 2272 
L 4684 2272 
L 4684 1741 
L 678 1741 
L 678 2272 
z
" transform="scale(0.015625)"/>
       <path id="DejaVuSans-33" d="M 2597 2516 
Q 3050 2419 3304 2112 
Q 3559 1806 3559 1356 
Q 3559 666 3084 287 
Q 2609 -91 1734 -91 
Q 1441 -91 1130 -33 
Q 819 25 488 141 
L 488 750 
Q 750 597 1062 519 
Q 1375 441 1716 441 
Q 2309 441 2620 675 
Q 2931 909 2931 1356 
Q 2931 1769 2642 2001 
Q 2353 2234 1838 2234 
L 1294 2234 
L 1294 2753 
L 1863 2753 
Q 2328 2753 2575 2939 
Q 2822 3125 2822 3475 
Q 2822 3834 2567 4026 
Q 2313 4219 1838 4219 
Q 1578 4219 1281 4162 
Q 984 4106 628 3988 
L 628 4550 
Q 988 4650 1302 4700 
Q 1616 4750 1894 4750 
Q 2613 4750 3031 4423 
Q 3450 4097 3450 3541 
Q 3450 3153 3228 2886 
Q 3006 2619 2597 2516 
z
" transform="scale(0.015625)"/>
      </defs>
      <use xlink:href="#DejaVuSans-2212"/>
      <use xlink:href="#DejaVuSans-33" transform="translate(83.789062 0)"/>
     </g>
    </g>
   </g>
   <g id="xtick_2">
    <g id="line2d_3">
     <path d="M 49.268975 191.797635 
L 47.929193 193.063596 
" style="fill: none; stroke: #000000; stroke-width: 0.8; stroke-linecap: square"/>
    </g>
    <g id="text_2">
     <!-- −2 -->
     <g transform="translate(37.361328 213.895431) scale(0.08 -0.08)">
      <defs>
       <path id="DejaVuSans-32" d="M 1228 531 
L 3431 531 
L 3431 0 
L 469 0 
L 469 531 
Q 828 903 1448 1529 
Q 2069 2156 2228 2338 
Q 2531 2678 2651 2914 
Q 2772 3150 2772 3378 
Q 2772 3750 2511 3984 
Q 2250 4219 1831 4219 
Q 1534 4219 1204 4116 
Q 875 4013 500 3803 
L 500 4441 
Q 881 4594 1212 4672 
Q 1544 4750 1819 4750 
Q 2544 4750 2975 4387 
Q 3406 4025 3406 3419 
Q 3406 3131 3298 2873 
Q 3191 2616 2906 2266 
Q 2828 2175 2409 1742 
Q 1991 1309 1228 531 
z
" transform="scale(0.015625)"/>
      </defs>
      <use xlink:href="#DejaVuSans-2212"/>
      <use xlink:href="#DejaVuSans-32" transform="translate(83.789062 0)"/>
     </g>
    </g>
   </g>
   <g id="xtick_3">
    <g id="line2d_4">
     <path d="M 71.107433 195.010156 
L 69.815773 196.292839 
" style="fill: none; stroke: #000000; stroke-width: 0.8; stroke-linecap: square"/>
    </g>
    <g id="text_3">
     <!-- −1 -->
     <g transform="translate(59.353432 217.242669) scale(0.08 -0.08)">
      <defs>
       <path id="DejaVuSans-31" d="M 794 531 
L 1825 531 
L 1825 4091 
L 703 3866 
L 703 4441 
L 1819 4666 
L 2450 4666 
L 2450 531 
L 3481 531 
L 3481 0 
L 794 0 
L 794 531 
z
" transform="scale(0.015625)"/>
      </defs>
      <use xlink:href="#DejaVuSans-2212"/>
      <use xlink:href="#DejaVuSans-31" transform="translate(83.789062 0)"/>
     </g>
    </g>
   </g>
   <g id="xtick_4">
    <g id="line2d_5">
     <path d="M 93.23495 198.265198 
L 91.992809 199.564938 
" style="fill: none; stroke: #000000; stroke-width: 0.8; stroke-linecap: square"/>
    </g>
    <g id="text_4">
     <!-- 0 -->
     <g transform="translate(84.991099 220.634608) scale(0.08 -0.08)">
      <defs>
       <path id="DejaVuSans-30" d="M 2034 4250 
Q 1547 4250 1301 3770 
Q 1056 3291 1056 2328 
Q 1056 1369 1301 889 
Q 1547 409 2034 409 
Q 2525 409 2770 889 
Q 3016 1369 3016 2328 
Q 3016 3291 2770 3770 
Q 2525 4250 2034 4250 
z
M 2034 4750 
Q 2819 4750 3233 4129 
Q 3647 3509 3647 2328 
Q 3647 1150 3233 529 
Q 2819 -91 2034 -91 
Q 1250 -91 836 529 
Q 422 1150 422 2328 
Q 422 3509 836 4129 
Q 1250 4750 2034 4750 
z
" transform="scale(0.015625)"/>
      </defs>
      <use xlink:href="#DejaVuSans-30"/>
     </g>
    </g>
   </g>
   <g id="xtick_5">
    <g id="line2d_6">
     <path d="M 115.657302 201.563611 
L 114.466121 202.88075 
" style="fill: none; stroke: #000000; stroke-width: 0.8; stroke-linecap: square"/>
    </g>
    <g id="text_5">
     <!-- 1 -->
     <g transform="translate(107.576502 224.072149) scale(0.08 -0.08)">
      <use xlink:href="#DejaVuSans-31"/>
     </g>
    </g>
   </g>
   <g id="xtick_6">
    <g id="line2d_7">
     <path d="M 138.380422 204.906268 
L 137.241686 206.241158 
" style="fill: none; stroke: #000000; stroke-width: 0.8; stroke-linecap: square"/>
    </g>
    <g id="text_6">
     <!-- 2 -->
     <g transform="translate(130.467599 227.556216) scale(0.08 -0.08)">
      <use xlink:href="#DejaVuSans-32"/>
     </g>
    </g>
   </g>
   <g id="xtick_7">
    <g id="line2d_8">
     <path d="M 161.410401 208.294066 
L 160.325644 209.647068 
" style="fill: none; stroke: #000000; stroke-width: 0.8; stroke-linecap: square"/>
    </g>
    <g id="text_7">
     <!-- 3 -->
     <g transform="translate(153.670639 231.087762) scale(0.08 -0.08)">
      <use xlink:href="#DejaVuSans-33"/>
     </g>
    </g>
   </g>
   <g id="text_8">
    <!-- X -->
    <g transform="translate(78.139372 235.983876) scale(0.09 -0.09)">
     <defs>
      <path id="DejaVuSans-58" d="M 403 4666 
L 1081 4666 
L 2241 2931 
L 3406 4666 
L 4084 4666 
L 2584 2425 
L 4184 0 
L 3506 0 
L 2194 1984 
L 872 0 
L 191 0 
L 1856 2491 
L 403 4666 
z
" transform="scale(0.015625)"/>
     </defs>
     <use xlink:href="#DejaVuSans-58"/>
    </g>
   </g>
  </g>
  <g id="axis3d_2">
   <g id="line2d_9">
    <path d="M 201.680717 158.065517 
L 161.04946 208.744263 
" style="fill: none; stroke: #000000; stroke-width: 0.8; stroke-linecap: square"/>
   </g>
   <g id="xtick_8">
    <g id="line2d_10">
     <path d="M 159.936043 208.580312 
L 163.278462 209.072484 
" style="fill: none; stroke: #000000; stroke-width: 0.8; stroke-linecap: square"/>
    </g>
    <g id="text_9">
     <!-- −3 -->
     <g transform="translate(169.351382 227.277922) scale(0.08 -0.08)">
      <use xlink:href="#DejaVuSans-2212"/>
      <use xlink:href="#DejaVuSans-33" transform="translate(83.789062 0)"/>
     </g>
    </g>
   </g>
   <g id="xtick_9">
    <g id="line2d_11">
     <path d="M 167.343095 199.369905 
L 170.631626 199.844294 
" style="fill: none; stroke: #000000; stroke-width: 0.8; stroke-linecap: square"/>
    </g>
    <g id="text_10">
     <!-- −2 -->
     <g transform="translate(176.487563 217.826728) scale(0.08 -0.08)">
      <use xlink:href="#DejaVuSans-2212"/>
      <use xlink:href="#DejaVuSans-32" transform="translate(83.789062 0)"/>
     </g>
    </g>
   </g>
   <g id="xtick_10">
    <g id="line2d_12">
     <path d="M 174.485012 190.489184 
L 177.721337 190.946737 
" style="fill: none; stroke: #000000; stroke-width: 0.8; stroke-linecap: square"/>
    </g>
    <g id="text_11">
     <!-- −1 -->
     <g transform="translate(183.368018 208.71422) scale(0.08 -0.08)">
      <use xlink:href="#DejaVuSans-2212"/>
      <use xlink:href="#DejaVuSans-31" transform="translate(83.789062 0)"/>
     </g>
    </g>
   </g>
   <g id="xtick_11">
    <g id="line2d_13">
     <path d="M 181.375779 181.920759 
L 184.561504 182.362356 
" style="fill: none; stroke: #000000; stroke-width: 0.8; stroke-linecap: square"/>
    </g>
    <g id="text_12">
     <!-- 0 -->
     <g transform="translate(193.358124 199.922513) scale(0.08 -0.08)">
      <use xlink:href="#DejaVuSans-30"/>
     </g>
    </g>
   </g>
   <g id="xtick_12">
    <g id="line2d_14">
     <path d="M 188.028415 173.648442 
L 191.165074 174.074903 
" style="fill: none; stroke: #000000; stroke-width: 0.8; stroke-linecap: square"/>
    </g>
    <g id="text_13">
     <!-- 1 -->
     <g transform="translate(199.766703 191.43496) scale(0.08 -0.08)">
      <use xlink:href="#DejaVuSans-31"/>
     </g>
    </g>
   </g>
   <g id="xtick_13">
    <g id="line2d_15">
     <path d="M 194.455055 165.657143 
L 197.544115 166.069234 
" style="fill: none; stroke: #000000; stroke-width: 0.8; stroke-linecap: square"/>
    </g>
    <g id="text_14">
     <!-- 2 -->
     <g transform="translate(205.957342 183.236046) scale(0.08 -0.08)">
      <use xlink:href="#DejaVuSans-32"/>
     </g>
    </g>
   </g>
   <g id="xtick_14">
    <g id="line2d_16">
     <path d="M 200.667021 157.932783 
L 203.709886 158.331217 
" style="fill: none; stroke: #000000; stroke-width: 0.8; stroke-linecap: square"/>
    </g>
    <g id="text_15">
     <!-- 3 -->
     <g transform="translate(211.940975 175.311293) scale(0.08 -0.08)">
      <use xlink:href="#DejaVuSans-33"/>
     </g>
    </g>
   </g>
   <g id="text_16">
    <!-- Y -->
    <g transform="translate(208.990105 210.175107) scale(0.09 -0.09)">
     <defs>
      <path id="DejaVuSans-59" d="M -13 4666 
L 666 4666 
L 1959 2747 
L 3244 4666 
L 3922 4666 
L 2272 2222 
L 2272 0 
L 1638 0 
L 1638 2222 
L -13 4666 
z
" transform="scale(0.015625)"/>
     </defs>
     <use xlink:href="#DejaVuSans-59"/>
    </g>
   </g>
  </g>
  <g id="axis3d_3">
   <g id="line2d_17">
    <path d="M 201.680717 158.065517 
L 204.21038 63.517233 
" style="fill: none; stroke: #000000; stroke-width: 0.8; stroke-linecap: square"/>
   </g>
   <g id="xtick_15">
    <g id="line2d_18">
     <path d="M 200.667021 157.932783 
L 203.709886 158.331217 
" style="fill: none; stroke: #000000; stroke-width: 0.8; stroke-linecap: square"/>
    </g>
    <g id="text_17">
     <!-- −1 -->
     <g transform="translate(212.486166 161.178062) scale(0.08 -0.08)">
      <use xlink:href="#DejaVuSans-2212"/>
      <use xlink:href="#DejaVuSans-31" transform="translate(83.789062 0)"/>
     </g>
    </g>
   </g>
   <g id="xtick_16">
    <g id="line2d_19">
     <path d="M 201.155017 139.47086 
L 204.216147 139.855359 
" style="fill: none; stroke: #000000; stroke-width: 0.8; stroke-linecap: square"/>
    </g>
    <g id="text_18">
     <!-- 0 -->
     <g transform="translate(216.426079 142.815349) scale(0.08 -0.08)">
      <use xlink:href="#DejaVuSans-30"/>
     </g>
    </g>
   </g>
   <g id="xtick_17">
    <g id="line2d_20">
     <path d="M 201.648762 120.791426 
L 204.728379 121.161634 
" style="fill: none; stroke: #000000; stroke-width: 0.8; stroke-linecap: square"/>
    </g>
    <g id="text_19">
     <!-- 1 -->
     <g transform="translate(217.021001 124.237658) scale(0.08 -0.08)">
      <use xlink:href="#DejaVuSans-31"/>
     </g>
    </g>
   </g>
   <g id="xtick_18">
    <g id="line2d_21">
     <path d="M 202.148359 101.890616 
L 205.246686 102.246165 
" style="fill: none; stroke: #000000; stroke-width: 0.8; stroke-linecap: square"/>
    </g>
    <g id="text_20">
     <!-- 2 -->
     <g transform="translate(217.622929 105.441192) scale(0.08 -0.08)">
      <use xlink:href="#DejaVuSans-32"/>
     </g>
    </g>
   </g>
   <g id="xtick_19">
    <g id="line2d_22">
     <path d="M 202.653913 82.76447 
L 205.771179 83.104983 
" style="fill: none; stroke: #000000; stroke-width: 0.8; stroke-linecap: square"/>
    </g>
    <g id="text_21">
     <!-- 3 -->
     <g transform="translate(218.231987 86.422064) scale(0.08 -0.08)">
      <use xlink:href="#DejaVuSans-33"/>
     </g>
    </g>
   </g>
   <g id="xtick_20">
    <g id="line2d_23">
     <path d="M 203.165529 63.408934 
L 206.301967 63.734024 
" style="fill: none; stroke: #000000; stroke-width: 0.8; stroke-linecap: square"/>
    </g>
    <g id="text_22">
     <!-- 4 -->
     <g transform="translate(218.848303 67.176293) scale(0.08 -0.08)">
      <defs>
       <path id="DejaVuSans-34" d="M 2419 4116 
L 825 1625 
L 2419 1625 
L 2419 4116 
z
M 2253 4666 
L 3047 4666 
L 3047 1625 
L 3713 1625 
L 3713 1100 
L 3047 1100 
L 3047 0 
L 2419 0 
L 2419 1100 
L 313 1100 
L 313 1709 
L 2253 4666 
z
" transform="scale(0.015625)"/>
      </defs>
      <use xlink:href="#DejaVuSans-34"/>
     </g>
    </g>
   </g>
   <g id="text_23">
    <!-- Z -->
    <g transform="translate(236.384943 108.145546) scale(0.09 -0.09)">
     <defs>
      <path id="DejaVuSans-5a" d="M 359 4666 
L 4025 4666 
L 4025 4184 
L 1075 531 
L 4097 531 
L 4097 0 
L 288 0 
L 288 481 
L 3238 4134 
L 359 4134 
L 359 4666 
z
" transform="scale(0.015625)"/>
     </defs>
     <use xlink:href="#DejaVuSans-5a"/>
    </g>
   </g>
  </g>
  <g id="axes_1">
   <g id="Poly3DCollection_1">
    <path d="M 73.823216 126.323621 
L 87.168623 125.576883 
L 92.366163 119.778678 
L 79.135716 120.544825 
z
" clip-path="url(#p9affe67707)" style="fill: #d4b300; fill-opacity: 0.6; stroke: #000000; stroke-opacity: 0.6; stroke-width: 0.1"/>
    <path d="M 87.168623 125.576883 
L 100.641794 124.822996 
L 105.721939 119.005275 
L 92.366163 119.778678 
z
" clip-path="url(#p9affe67707)" style="fill: #d4b300; fill-opacity: 0.6; stroke: #000000; stroke-opacity: 0.6; stroke-width: 0.1"/>
    <path d="M 100.641794 124.822996 
L 114.244575 124.061856 
L 119.204833 118.22451 
L 105.721939 119.005275 
z
" clip-path="url(#p9affe67707)" style="fill: #d4b300; fill-opacity: 0.6; stroke: #000000; stroke-opacity: 0.6; stroke-width: 0.1"/>
    <path d="M 68.397408 132.225671 
L 81.859693 131.49935 
L 87.168623 125.576883 
L 73.823216 126.323621 
z
" clip-path="url(#p9affe67707)" style="fill: #d4b300; fill-opacity: 0.6; stroke: #000000; stroke-opacity: 0.6; stroke-width: 0.1"/>
    <path d="M 114.244575 124.061856 
L 127.978843 123.293359 
L 132.81667 117.436278 
L 119.204833 118.22451 
z
" clip-path="url(#p9affe67707)" style="fill: #d4b300; fill-opacity: 0.6; stroke: #000000; stroke-opacity: 0.6; stroke-width: 0.1"/>
    <path d="M 81.859693 131.49935 
L 95.45225 130.766 
L 100.641794 124.822996 
L 87.168623 125.576883 
z
" clip-path="url(#p9affe67707)" style="fill: #d4b300; fill-opacity: 0.6; stroke: #000000; stroke-opacity: 0.6; stroke-width: 0.1"/>
    <path d="M 127.978843 123.293359 
L 141.846515 122.517397 
L 146.559307 116.640472 
L 132.81667 117.436278 
z
" clip-path="url(#p9affe67707)" style="fill: #d4b300; fill-opacity: 0.6; stroke: #000000; stroke-opacity: 0.6; stroke-width: 0.1"/>
    <path d="M 95.45225 130.766 
L 109.176978 130.02552 
L 114.244575 124.061856 
L 100.641794 124.822996 
z
" clip-path="url(#p9affe67707)" style="fill: #d4b300; fill-opacity: 0.6; stroke: #000000; stroke-opacity: 0.6; stroke-width: 0.1"/>
    <path d="M 62.854628 138.25496 
L 76.435754 137.550118 
L 81.859693 131.49935 
L 68.397408 132.225671 
z
" clip-path="url(#p9affe67707)" style="fill: #d4b300; fill-opacity: 0.6; stroke: #000000; stroke-opacity: 0.6; stroke-width: 0.1"/>
    <path d="M 141.846515 122.517397 
L 155.849543 121.733862 
L 160.434639 115.836982 
L 146.559307 116.640472 
z
" clip-path="url(#p9affe67707)" style="fill: #d4b300; fill-opacity: 0.6; stroke: #000000; stroke-opacity: 0.6; stroke-width: 0.1"/>
    <path d="M 109.176978 130.02552 
L 123.035816 129.277804 
L 127.978843 123.293359 
L 114.244575 124.061856 
z
" clip-path="url(#p9affe67707)" style="fill: #d4b300; fill-opacity: 0.6; stroke: #000000; stroke-opacity: 0.6; stroke-width: 0.1"/>
    <path d="M 76.435754 137.550118 
L 90.149732 136.83838 
L 95.45225 130.766 
L 81.859693 131.49935 
z
" clip-path="url(#p9affe67707)" style="fill: #d4b300; fill-opacity: 0.6; stroke: #000000; stroke-opacity: 0.6; stroke-width: 0.1"/>
    <path d="M 155.849543 121.733862 
L 169.989919 120.942641 
L 174.444598 115.025696 
L 160.434639 115.836982 
z
" clip-path="url(#p9affe67707)" style="fill: #d4b300; fill-opacity: 0.6; stroke: #000000; stroke-opacity: 0.6; stroke-width: 0.1"/>
    <path d="M 123.035816 129.277804 
L 137.030738 128.522746 
L 141.846515 122.517397 
L 127.978843 123.293359 
z
" clip-path="url(#p9affe67707)" style="fill: #d4b300; fill-opacity: 0.6; stroke: #000000; stroke-opacity: 0.6; stroke-width: 0.1"/>
    <path d="M 90.149732 136.83838 
L 103.998522 136.119647 
L 109.176978 130.02552 
L 95.45225 130.766 
z
" clip-path="url(#p9affe67707)" style="fill: #d4b300; fill-opacity: 0.6; stroke: #000000; stroke-opacity: 0.6; stroke-width: 0.1"/>
    <path d="M 57.191053 144.415647 
L 70.893028 143.7334 
L 76.435754 137.550118 
L 62.854628 138.25496 
z
" clip-path="url(#p9affe67707)" style="fill: #d4b300; fill-opacity: 0.6; stroke: #000000; stroke-opacity: 0.6; stroke-width: 0.1"/>
    <path d="M 169.989919 120.942641 
L 184.269675 120.143622 
L 188.591152 114.2065 
L 174.444598 115.025696 
z
" clip-path="url(#p9affe67707)" style="fill: #d4b300; fill-opacity: 0.6; stroke: #000000; stroke-opacity: 0.6; stroke-width: 0.1"/>
    <path d="M 137.030738 128.522746 
L 151.163758 127.760237 
L 155.849543 121.733862 
L 141.846515 122.517397 
z
" clip-path="url(#p9affe67707)" style="fill: #d4b300; fill-opacity: 0.6; stroke: #000000; stroke-opacity: 0.6; stroke-width: 0.1"/>
    <path d="M 103.998522 136.119647 
L 117.984119 135.393813 
L 123.035816 129.277804 
L 109.176978 130.02552 
z
" clip-path="url(#p9affe67707)" style="fill: #d4b300; fill-opacity: 0.6; stroke: #000000; stroke-opacity: 0.6; stroke-width: 0.1"/>
    <path d="M 70.893028 143.7334 
L 84.730513 143.044406 
L 90.149732 136.83838 
L 76.435754 137.550118 
z
" clip-path="url(#p9affe67707)" style="fill: #d4b300; fill-opacity: 0.6; stroke: #000000; stroke-opacity: 0.6; stroke-width: 0.1"/>
    <path d="M 184.269675 120.143622 
L 198.69088 119.336687 
L 202.876308 113.379278 
L 188.591152 114.2065 
z
" clip-path="url(#p9affe67707)" style="fill: #d4b300; fill-opacity: 0.6; stroke: #000000; stroke-opacity: 0.6; stroke-width: 0.1"/>
    <path d="M 151.163758 127.760237 
L 165.436931 126.990166 
L 169.989919 120.942641 
L 155.849543 121.733862 
z
" clip-path="url(#p9affe67707)" style="fill: #d4b300; fill-opacity: 0.6; stroke: #000000; stroke-opacity: 0.6; stroke-width: 0.1"/>
    <path d="M 117.984119 135.393813 
L 132.108563 134.660773 
L 137.030738 128.522746 
L 123.035816 129.277804 
z
" clip-path="url(#p9affe67707)" style="fill: #d4b300; fill-opacity: 0.6; stroke: #000000; stroke-opacity: 0.6; stroke-width: 0.1"/>
    <path d="M 84.730513 143.044406 
L 98.705527 142.348565 
L 103.998522 136.119647 
L 90.149732 136.83838 
z
" clip-path="url(#p9affe67707)" style="fill: #d4b300; fill-opacity: 0.6; stroke: #000000; stroke-opacity: 0.6; stroke-width: 0.1"/>
    <path d="M 51.40269 150.712075 
L 65.227569 150.053599 
L 70.893028 143.7334 
L 57.191053 144.415647 
z
" clip-path="url(#p9affe67707)" style="fill: #d4b300; fill-opacity: 0.6; stroke: #000000; stroke-opacity: 0.6; stroke-width: 0.1"/>
    <path d="M 165.436931 126.990166 
L 179.852352 126.212421 
L 184.269675 120.143622 
L 169.989919 120.942641 
z
" clip-path="url(#p9affe67707)" style="fill: #d4b300; fill-opacity: 0.6; stroke: #000000; stroke-opacity: 0.6; stroke-width: 0.1"/>
    <path d="M 132.108563 134.660773 
L 146.373931 133.920419 
L 151.163758 127.760237 
L 137.030738 128.522746 
z
" clip-path="url(#p9affe67707)" style="fill: #d4b300; fill-opacity: 0.6; stroke: #000000; stroke-opacity: 0.6; stroke-width: 0.1"/>
    <path d="M 98.705527 142.348565 
L 112.820131 141.645772 
L 117.984119 135.393813 
L 103.998522 136.119647 
z
" clip-path="url(#p9affe67707)" style="fill: #d4b300; fill-opacity: 0.6; stroke: #000000; stroke-opacity: 0.6; stroke-width: 0.1"/>
    <path d="M 65.227569 150.053599 
L 79.190695 149.38854 
L 84.730513 143.044406 
L 70.893028 143.7334 
z
" clip-path="url(#p9affe67707)" style="fill: #d4b300; fill-opacity: 0.6; stroke: #000000; stroke-opacity: 0.6; stroke-width: 0.1"/>
    <path d="M 179.852352 126.212421 
L 194.412158 125.426886 
L 198.69088 119.336687 
L 184.269675 120.143622 
z
" clip-path="url(#p9affe67707)" style="fill: #d4b300; fill-opacity: 0.6; stroke: #000000; stroke-opacity: 0.6; stroke-width: 0.1"/>
    <path d="M 146.373931 133.920419 
L 160.782343 133.172642 
L 165.436931 126.990166 
L 151.163758 127.760237 
z
" clip-path="url(#p9affe67707)" style="fill: #d4b300; fill-opacity: 0.6; stroke: #000000; stroke-opacity: 0.6; stroke-width: 0.1"/>
    <path d="M 112.820131 141.645772 
L 127.076427 140.935925 
L 132.108563 134.660773 
L 117.984119 135.393813 
z
" clip-path="url(#p9affe67707)" style="fill: #d4b300; fill-opacity: 0.6; stroke: #000000; stroke-opacity: 0.6; stroke-width: 0.1"/>
    <path d="M 79.190695 149.38854 
L 93.294151 148.716796 
L 98.705527 142.348565 
L 84.730513 143.044406 
z
" clip-path="url(#p9affe67707)" style="fill: #d4b300; fill-opacity: 0.6; stroke: #000000; stroke-opacity: 0.6; stroke-width: 0.1"/>
    <path d="M 45.485368 157.14878 
L 59.435256 156.515314 
L 65.227569 150.053599 
L 51.40269 150.712075 
z
" clip-path="url(#p9affe67707)" style="fill: #d4b300; fill-opacity: 0.6; stroke: #000000; stroke-opacity: 0.6; stroke-width: 0.1"/>
    <path d="M 160.782343 133.172642 
L 175.33596 132.417328 
L 179.852352 126.212421 
L 165.436931 126.990166 
z
" clip-path="url(#p9affe67707)" style="fill: #d4b300; fill-opacity: 0.6; stroke: #000000; stroke-opacity: 0.6; stroke-width: 0.1"/>
    <path d="M 127.076427 140.935925 
L 141.476559 140.218916 
L 146.373931 133.920419 
L 132.108563 134.660773 
z
" clip-path="url(#p9affe67707)" style="fill: #d4b300; fill-opacity: 0.6; stroke: #000000; stroke-opacity: 0.6; stroke-width: 0.1"/>
    <path d="M 93.294151 148.716796 
L 107.540063 148.038267 
L 112.820131 141.645772 
L 98.705527 142.348565 
z
" clip-path="url(#p9affe67707)" style="fill: #d4b300; fill-opacity: 0.6; stroke: #000000; stroke-opacity: 0.6; stroke-width: 0.1"/>
    <path d="M 59.435256 156.515314 
L 73.526208 155.875442 
L 79.190695 149.38854 
L 65.227569 150.053599 
z
" clip-path="url(#p9affe67707)" style="fill: #d4b300; fill-opacity: 0.6; stroke: #000000; stroke-opacity: 0.6; stroke-width: 0.1"/>
    <path d="M 175.33596 132.417328 
L 190.03699 131.654364 
L 194.412158 125.426886 
L 179.852352 126.212421 
z
" clip-path="url(#p9affe67707)" style="fill: #d4b300; fill-opacity: 0.6; stroke: #000000; stroke-opacity: 0.6; stroke-width: 0.1"/>
    <path d="M 141.476559 140.218916 
L 156.022716 139.494636 
L 160.782343 133.172642 
L 146.373931 133.920419 
z
" clip-path="url(#p9affe67707)" style="fill: #d4b300; fill-opacity: 0.6; stroke: #000000; stroke-opacity: 0.6; stroke-width: 0.1"/>
    <path d="M 107.540063 148.038267 
L 121.930601 147.352849 
L 127.076427 140.935925 
L 112.820131 141.645772 
z
" clip-path="url(#p9affe67707)" style="fill: #d4b300; fill-opacity: 0.6; stroke: #000000; stroke-opacity: 0.6; stroke-width: 0.1"/>
    <path d="M 73.526208 155.875442 
L 87.760378 155.229067 
L 93.294151 148.716796 
L 79.190695 149.38854 
z
" clip-path="url(#p9affe67707)" style="fill: #d4b300; fill-opacity: 0.6; stroke: #000000; stroke-opacity: 0.6; stroke-width: 0.1"/>
    <path d="M 39.434731 163.730503 
L 53.511778 163.12335 
L 59.435256 156.515314 
L 45.485368 157.14878 
z
" clip-path="url(#p9affe67707)" style="fill: #d4b300; fill-opacity: 0.6; stroke: #000000; stroke-opacity: 0.6; stroke-width: 0.1"/>
    <path d="M 156.022716 139.494636 
L 170.717129 138.762974 
L 175.33596 132.417328 
L 160.782343 133.172642 
z
" clip-path="url(#p9affe67707)" style="fill: #d4b300; fill-opacity: 0.6; stroke: #000000; stroke-opacity: 0.6; stroke-width: 0.1"/>
    <path d="M 121.930601 147.352849 
L 136.467978 146.660438 
L 141.476559 140.218916 
L 127.076427 140.935925 
z
" clip-path="url(#p9affe67707)" style="fill: #d4b300; fill-opacity: 0.6; stroke: #000000; stroke-opacity: 0.6; stroke-width: 0.1"/>
    <path d="M 87.760378 155.229067 
L 102.139958 154.576089 
L 107.540063 148.038267 
L 93.294151 148.716796 
z
" clip-path="url(#p9affe67707)" style="fill: #d4b300; fill-opacity: 0.6; stroke: #000000; stroke-opacity: 0.6; stroke-width: 0.1"/>
    <path d="M 53.511778 163.12335 
L 67.732797 162.509988 
L 73.526208 155.875442 
L 59.435256 156.515314 
z
" clip-path="url(#p9affe67707)" style="fill: #d4b300; fill-opacity: 0.6; stroke: #000000; stroke-opacity: 0.6; stroke-width: 0.1"/>
    <path d="M 170.717129 138.762974 
L 185.562077 138.023816 
L 190.03699 131.654364 
L 175.33596 132.417328 
z
" clip-path="url(#p9affe67707)" style="fill: #d4b300; fill-opacity: 0.6; stroke: #000000; stroke-opacity: 0.6; stroke-width: 0.1"/>
    <path d="M 136.467978 146.660438 
L 151.154453 145.960925 
L 156.022716 139.494636 
L 141.476559 140.218916 
z
" clip-path="url(#p9affe67707)" style="fill: #d4b300; fill-opacity: 0.6; stroke: #000000; stroke-opacity: 0.6; stroke-width: 0.1"/>
    <path d="M 102.139958 154.576089 
L 116.667189 153.916405 
L 121.930601 147.352849 
L 107.540063 148.038267 
z
" clip-path="url(#p9affe67707)" style="fill: #d4b300; fill-opacity: 0.6; stroke: #000000; stroke-opacity: 0.6; stroke-width: 0.1"/>
    <path d="M 67.732797 162.509988 
L 82.100007 161.890321 
L 87.760378 155.229067 
L 73.526208 155.875442 
z
" clip-path="url(#p9affe67707)" style="fill: #d4b300; fill-opacity: 0.6; stroke: #000000; stroke-opacity: 0.6; stroke-width: 0.1"/>
    <path d="M 33.246221 170.4622 
L 47.452631 169.882735 
L 53.511778 163.12335 
L 39.434731 163.730503 
z
" clip-path="url(#p9affe67707)" style="fill: #d4b300; fill-opacity: 0.6; stroke: #000000; stroke-opacity: 0.6; stroke-width: 0.1"/>
    <path d="M 151.154453 145.960925 
L 165.992332 145.254201 
L 170.717129 138.762974 
L 156.022716 139.494636 
z
" clip-path="url(#p9affe67707)" style="fill: #d4b300; fill-opacity: 0.6; stroke: #000000; stroke-opacity: 0.6; stroke-width: 0.1"/>
    <path d="M 116.667189 153.916405 
L 131.344356 153.249914 
L 136.467978 146.660438 
L 121.930601 147.352849 
z
" clip-path="url(#p9affe67707)" style="fill: #d4b300; fill-opacity: 0.6; stroke: #000000; stroke-opacity: 0.6; stroke-width: 0.1"/>
    <path d="M 82.100007 161.890321 
L 96.615675 161.26425 
L 102.139958 154.576089 
L 87.760378 155.229067 
z
" clip-path="url(#p9affe67707)" style="fill: #d4b300; fill-opacity: 0.6; stroke: #000000; stroke-opacity: 0.6; stroke-width: 0.1"/>
    <path d="M 47.452631 169.882735 
L 61.806008 169.297276 
L 67.732797 162.509988 
L 53.511778 163.12335 
z
" clip-path="url(#p9affe67707)" style="fill: #d4b300; fill-opacity: 0.6; stroke: #000000; stroke-opacity: 0.6; stroke-width: 0.1"/>
    <path d="M 165.992332 145.254201 
L 180.983968 144.540153 
L 185.562077 138.023816 
L 170.717129 138.762974 
z
" clip-path="url(#p9affe67707)" style="fill: #d4b300; fill-opacity: 0.6; stroke: #000000; stroke-opacity: 0.6; stroke-width: 0.1"/>
    <path d="M 131.344356 153.249914 
L 146.173793 152.576507 
L 151.154453 145.960925 
L 136.467978 146.660438 
z
" clip-path="url(#p9affe67707)" style="fill: #d4b300; fill-opacity: 0.6; stroke: #000000; stroke-opacity: 0.6; stroke-width: 0.1"/>
    <path d="M 96.615675 161.26425 
L 111.282114 160.631677 
L 116.667189 153.916405 
L 102.139958 154.576089 
z
" clip-path="url(#p9affe67707)" style="fill: #d4b300; fill-opacity: 0.6; stroke: #000000; stroke-opacity: 0.6; stroke-width: 0.1"/>
    <path d="M 61.806008 169.297276 
L 76.308645 168.705729 
L 82.100007 161.890321 
L 67.732797 162.509988 
z
" clip-path="url(#p9affe67707)" style="fill: #d4b300; fill-opacity: 0.6; stroke: #000000; stroke-opacity: 0.6; stroke-width: 0.1"/>
    <path d="M 26.915071 177.349057 
L 41.253098 176.798729 
L 47.452631 169.882735 
L 33.246221 170.4622 
z
" clip-path="url(#p9affe67707)" style="fill: #d4b300; fill-opacity: 0.6; stroke: #000000; stroke-opacity: 0.6; stroke-width: 0.1"/>
    <path d="M 146.173793 152.576507 
L 161.157881 151.896078 
L 165.992332 145.254201 
L 151.154453 145.960925 
z
" clip-path="url(#p9affe67707)" style="fill: #d4b300; fill-opacity: 0.6; stroke: #000000; stroke-opacity: 0.6; stroke-width: 0.1"/>
    <path d="M 111.282114 160.631677 
L 126.101684 159.992499 
L 131.344356 153.249914 
L 116.667189 153.916405 
z
" clip-path="url(#p9affe67707)" style="fill: #d4b300; fill-opacity: 0.6; stroke: #000000; stroke-opacity: 0.6; stroke-width: 0.1"/>
    <path d="M 76.308645 168.705729 
L 90.962882 168.107998 
L 96.615675 161.26425 
L 82.100007 161.890321 
z
" clip-path="url(#p9affe67707)" style="fill: #d4b300; fill-opacity: 0.6; stroke: #000000; stroke-opacity: 0.6; stroke-width: 0.1"/>
    <path d="M 41.253098 176.798729 
L 55.741182 176.242643 
L 61.806008 169.297276 
L 47.452631 169.882735 
z
" clip-path="url(#p9affe67707)" style="fill: #d4b300; fill-opacity: 0.6; stroke: #000000; stroke-opacity: 0.6; stroke-width: 0.1"/>
    <path d="M 161.157881 151.896078 
L 176.299053 151.208516 
L 180.983968 144.540153 
L 165.992332 145.254201 
z
" clip-path="url(#p9affe67707)" style="fill: #d4b300; fill-opacity: 0.6; stroke: #000000; stroke-opacity: 0.6; stroke-width: 0.1"/>
    <path d="M 126.101684 159.992499 
L 141.076797 159.346612 
L 146.173793 152.576507 
L 131.344356 153.249914 
z
" clip-path="url(#p9affe67707)" style="fill: #d4b300; fill-opacity: 0.6; stroke: #000000; stroke-opacity: 0.6; stroke-width: 0.1"/>
    <path d="M 90.962882 168.107998 
L 105.771108 167.503986 
L 111.282114 160.631677 
L 96.615675 161.26425 
z
" clip-path="url(#p9affe67707)" style="fill: #d4b300; fill-opacity: 0.6; stroke: #000000; stroke-opacity: 0.6; stroke-width: 0.1"/>
    <path d="M 55.741182 176.242643 
L 70.38169 175.680705 
L 76.308645 168.705729 
L 61.806008 169.297276 
z
" clip-path="url(#p9affe67707)" style="fill: #d4b300; fill-opacity: 0.6; stroke: #000000; stroke-opacity: 0.6; stroke-width: 0.1"/>
    <path d="M 141.076797 159.346612 
L 156.209914 158.693911 
L 161.157881 151.896078 
L 146.173793 152.576507 
z
" clip-path="url(#p9affe67707)" style="fill: #d4b300; fill-opacity: 0.6; stroke: #000000; stroke-opacity: 0.6; stroke-width: 0.1"/>
    <path d="M 105.771108 167.503986 
L 120.735764 166.893593 
L 126.101684 159.992499 
L 111.282114 160.631677 
z
" clip-path="url(#p9affe67707)" style="fill: #d4b300; fill-opacity: 0.6; stroke: #000000; stroke-opacity: 0.6; stroke-width: 0.1"/>
    <path d="M 70.38169 175.680705 
L 85.17704 175.112825 
L 90.962882 168.107998 
L 76.308645 168.705729 
z
" clip-path="url(#p9affe67707)" style="fill: #d4b300; fill-opacity: 0.6; stroke: #000000; stroke-opacity: 0.6; stroke-width: 0.1"/>
    <path d="M 156.209914 158.693911 
L 171.50355 158.034286 
L 176.299053 151.208516 
L 161.157881 151.896078 
z
" clip-path="url(#p9affe67707)" style="fill: #d4b300; fill-opacity: 0.6; stroke: #000000; stroke-opacity: 0.6; stroke-width: 0.1"/>
    <path d="M 120.735764 166.893593 
L 135.859341 166.276719 
L 141.076797 159.346612 
L 126.101684 159.992499 
z
" clip-path="url(#p9affe67707)" style="fill: #d4b300; fill-opacity: 0.6; stroke: #000000; stroke-opacity: 0.6; stroke-width: 0.1"/>
    <path d="M 85.17704 175.112825 
L 100.129702 174.538906 
L 105.771108 167.503986 
L 90.962882 168.107998 
z
" clip-path="url(#p9affe67707)" style="fill: #d4b300; fill-opacity: 0.6; stroke: #000000; stroke-opacity: 0.6; stroke-width: 0.1"/>
    <path d="M 135.859341 166.276719 
L 151.144385 165.653258 
L 156.209914 158.693911 
L 141.076797 159.346612 
z
" clip-path="url(#p9affe67707)" style="fill: #d4b300; fill-opacity: 0.6; stroke: #000000; stroke-opacity: 0.6; stroke-width: 0.1"/>
    <path d="M 100.129702 174.538906 
L 115.242198 173.958853 
L 120.735764 166.893593 
L 105.771108 167.503986 
z
" clip-path="url(#p9affe67707)" style="fill: #d4b300; fill-opacity: 0.6; stroke: #000000; stroke-opacity: 0.6; stroke-width: 0.1"/>
    <path d="M 151.144385 165.653258 
L 166.593495 165.023105 
L 171.50355 158.034286 
L 156.209914 158.693911 
z
" clip-path="url(#p9affe67707)" style="fill: #d4b300; fill-opacity: 0.6; stroke: #000000; stroke-opacity: 0.6; stroke-width: 0.1"/>
    <path d="M 115.242198 173.958853 
L 130.517105 173.372566 
L 135.859341 166.276719 
L 120.735764 166.893593 
z
" clip-path="url(#p9affe67707)" style="fill: #d4b300; fill-opacity: 0.6; stroke: #000000; stroke-opacity: 0.6; stroke-width: 0.1"/>
    <path d="M 130.517105 173.372566 
L 145.957054 172.779944 
L 151.144385 165.653258 
L 135.859341 166.276719 
z
" clip-path="url(#p9affe67707)" style="fill: #d4b300; fill-opacity: 0.6; stroke: #000000; stroke-opacity: 0.6; stroke-width: 0.1"/>
    <path d="M 145.957054 172.779944 
L 161.564736 172.180884 
L 166.593495 165.023105 
L 151.144385 165.653258 
z
" clip-path="url(#p9affe67707)" style="fill: #d4b300; fill-opacity: 0.6; stroke: #000000; stroke-opacity: 0.6; stroke-width: 0.1"/>
   </g>
   <g id="text_24">
    <!-- 2 Planos Paralelos Distintos -->
    <g transform="translate(45.712656 14.798437) scale(0.1 -0.1)">
     <defs>
      <path id="DejaVuSans-20" transform="scale(0.015625)"/>
      <path id="DejaVuSans-50" d="M 1259 4147 
L 1259 2394 
L 2053 2394 
Q 2494 2394 2734 2622 
Q 2975 2850 2975 3272 
Q 2975 3691 2734 3919 
Q 2494 4147 2053 4147 
L 1259 4147 
z
M 628 4666 
L 2053 4666 
Q 2838 4666 3239 4311 
Q 3641 3956 3641 3272 
Q 3641 2581 3239 2228 
Q 2838 1875 2053 1875 
L 1259 1875 
L 1259 0 
L 628 0 
L 628 4666 
z
" transform="scale(0.015625)"/>
      <path id="DejaVuSans-6c" d="M 603 4863 
L 1178 4863 
L 1178 0 
L 603 0 
L 603 4863 
z
" transform="scale(0.015625)"/>
      <path id="DejaVuSans-61" d="M 2194 1759 
Q 1497 1759 1228 1600 
Q 959 1441 959 1056 
Q 959 750 1161 570 
Q 1363 391 1709 391 
Q 2188 391 2477 730 
Q 2766 1069 2766 1631 
L 2766 1759 
L 2194 1759 
z
M 3341 1997 
L 3341 0 
L 2766 0 
L 2766 531 
Q 2569 213 2275 61 
Q 1981 -91 1556 -91 
Q 1019 -91 701 211 
Q 384 513 384 1019 
Q 384 1609 779 1909 
Q 1175 2209 1959 2209 
L 2766 2209 
L 2766 2266 
Q 2766 2663 2505 2880 
Q 2244 3097 1772 3097 
Q 1472 3097 1187 3025 
Q 903 2953 641 2809 
L 641 3341 
Q 956 3463 1253 3523 
Q 1550 3584 1831 3584 
Q 2591 3584 2966 3190 
Q 3341 2797 3341 1997 
z
" transform="scale(0.015625)"/>
      <path id="DejaVuSans-6e" d="M 3513 2113 
L 3513 0 
L 2938 0 
L 2938 2094 
Q 2938 2591 2744 2837 
Q 2550 3084 2163 3084 
Q 1697 3084 1428 2787 
Q 1159 2491 1159 1978 
L 1159 0 
L 581 0 
L 581 3500 
L 1159 3500 
L 1159 2956 
Q 1366 3272 1645 3428 
Q 1925 3584 2291 3584 
Q 2894 3584 3203 3211 
Q 3513 2838 3513 2113 
z
" transform="scale(0.015625)"/>
      <path id="DejaVuSans-6f" d="M 1959 3097 
Q 1497 3097 1228 2736 
Q 959 2375 959 1747 
Q 959 1119 1226 758 
Q 1494 397 1959 397 
Q 2419 397 2687 759 
Q 2956 1122 2956 1747 
Q 2956 2369 2687 2733 
Q 2419 3097 1959 3097 
z
M 1959 3584 
Q 2709 3584 3137 3096 
Q 3566 2609 3566 1747 
Q 3566 888 3137 398 
Q 2709 -91 1959 -91 
Q 1206 -91 779 398 
Q 353 888 353 1747 
Q 353 2609 779 3096 
Q 1206 3584 1959 3584 
z
" transform="scale(0.015625)"/>
      <path id="DejaVuSans-73" d="M 2834 3397 
L 2834 2853 
Q 2591 2978 2328 3040 
Q 2066 3103 1784 3103 
Q 1356 3103 1142 2972 
Q 928 2841 928 2578 
Q 928 2378 1081 2264 
Q 1234 2150 1697 2047 
L 1894 2003 
Q 2506 1872 2764 1633 
Q 3022 1394 3022 966 
Q 3022 478 2636 193 
Q 2250 -91 1575 -91 
Q 1294 -91 989 -36 
Q 684 19 347 128 
L 347 722 
Q 666 556 975 473 
Q 1284 391 1588 391 
Q 1994 391 2212 530 
Q 2431 669 2431 922 
Q 2431 1156 2273 1281 
Q 2116 1406 1581 1522 
L 1381 1569 
Q 847 1681 609 1914 
Q 372 2147 372 2553 
Q 372 3047 722 3315 
Q 1072 3584 1716 3584 
Q 2034 3584 2315 3537 
Q 2597 3491 2834 3397 
z
" transform="scale(0.015625)"/>
      <path id="DejaVuSans-72" d="M 2631 2963 
Q 2534 3019 2420 3045 
Q 2306 3072 2169 3072 
Q 1681 3072 1420 2755 
Q 1159 2438 1159 1844 
L 1159 0 
L 581 0 
L 581 3500 
L 1159 3500 
L 1159 2956 
Q 1341 3275 1631 3429 
Q 1922 3584 2338 3584 
Q 2397 3584 2469 3576 
Q 2541 3569 2628 3553 
L 2631 2963 
z
" transform="scale(0.015625)"/>
      <path id="DejaVuSans-65" d="M 3597 1894 
L 3597 1613 
L 953 1613 
Q 991 1019 1311 708 
Q 1631 397 2203 397 
Q 2534 397 2845 478 
Q 3156 559 3463 722 
L 3463 178 
Q 3153 47 2828 -22 
Q 2503 -91 2169 -91 
Q 1331 -91 842 396 
Q 353 884 353 1716 
Q 353 2575 817 3079 
Q 1281 3584 2069 3584 
Q 2775 3584 3186 3129 
Q 3597 2675 3597 1894 
z
M 3022 2063 
Q 3016 2534 2758 2815 
Q 2500 3097 2075 3097 
Q 1594 3097 1305 2825 
Q 1016 2553 972 2059 
L 3022 2063 
z
" transform="scale(0.015625)"/>
      <path id="DejaVuSans-44" d="M 1259 4147 
L 1259 519 
L 2022 519 
Q 2988 519 3436 956 
Q 3884 1394 3884 2338 
Q 3884 3275 3436 3711 
Q 2988 4147 2022 4147 
L 1259 4147 
z
M 628 4666 
L 1925 4666 
Q 3281 4666 3915 4102 
Q 4550 3538 4550 2338 
Q 4550 1131 3912 565 
Q 3275 0 1925 0 
L 628 0 
L 628 4666 
z
" transform="scale(0.015625)"/>
      <path id="DejaVuSans-69" d="M 603 3500 
L 1178 3500 
L 1178 0 
L 603 0 
L 603 3500 
z
M 603 4863 
L 1178 4863 
L 1178 4134 
L 603 4134 
L 603 4863 
z
" transform="scale(0.015625)"/>
      <path id="DejaVuSans-74" d="M 1172 4494 
L 1172 3500 
L 2356 3500 
L 2356 3053 
L 1172 3053 
L 1172 1153 
Q 1172 725 1289 603 
Q 1406 481 1766 481 
L 2356 481 
L 2356 0 
L 1766 0 
Q 1100 0 847 248 
Q 594 497 594 1153 
L 594 3053 
L 172 3053 
L 172 3500 
L 594 3500 
L 594 4494 
L 1172 4494 
z
" transform="scale(0.015625)"/>
     </defs>
     <use xlink:href="#DejaVuSans-32"/>
     <use xlink:href="#DejaVuSans-20" transform="translate(63.623047 0)"/>
     <use xlink:href="#DejaVuSans-50" transform="translate(95.410156 0)"/>
     <use xlink:href="#DejaVuSans-6c" transform="translate(155.712891 0)"/>
     <use xlink:href="#DejaVuSans-61" transform="translate(183.496094 0)"/>
     <use xlink:href="#DejaVuSans-6e" transform="translate(244.775391 0)"/>
     <use xlink:href="#DejaVuSans-6f" transform="translate(308.154297 0)"/>
     <use xlink:href="#DejaVuSans-73" transform="translate(369.335938 0)"/>
     <use xlink:href="#DejaVuSans-20" transform="translate(421.435547 0)"/>
     <use xlink:href="#DejaVuSans-50" transform="translate(453.222656 0)"/>
     <use xlink:href="#DejaVuSans-61" transform="translate(509.025391 0)"/>
     <use xlink:href="#DejaVuSans-72" transform="translate(570.304688 0)"/>
     <use xlink:href="#DejaVuSans-61" transform="translate(611.417969 0)"/>
     <use xlink:href="#DejaVuSans-6c" transform="translate(672.697266 0)"/>
     <use xlink:href="#DejaVuSans-65" transform="translate(700.480469 0)"/>
     <use xlink:href="#DejaVuSans-6c" transform="translate(762.003906 0)"/>
     <use xlink:href="#DejaVuSans-6f" transform="translate(789.787109 0)"/>
     <use xlink:href="#DejaVuSans-73" transform="translate(850.96875 0)"/>
     <use xlink:href="#DejaVuSans-20" transform="translate(903.068359 0)"/>
     <use xlink:href="#DejaVuSans-44" transform="translate(934.855469 0)"/>
     <use xlink:href="#DejaVuSans-69" transform="translate(1011.857422 0)"/>
     <use xlink:href="#DejaVuSans-73" transform="translate(1039.640625 0)"/>
     <use xlink:href="#DejaVuSans-74" transform="translate(1091.740234 0)"/>
     <use xlink:href="#DejaVuSans-69" transform="translate(1130.949219 0)"/>
     <use xlink:href="#DejaVuSans-6e" transform="translate(1158.732422 0)"/>
     <use xlink:href="#DejaVuSans-74" transform="translate(1222.111328 0)"/>
     <use xlink:href="#DejaVuSans-6f" transform="translate(1261.320312 0)"/>
     <use xlink:href="#DejaVuSans-73" transform="translate(1322.501953 0)"/>
    </g>
   </g>
   <g id="Poly3DCollection_2">
    <path d="M 73.446843 98.783489 
L 86.906423 97.897919 
L 92.15143 92.342727 
L 78.808772 93.245259 
z
" clip-path="url(#p9affe67707)" style="fill: #90d427; fill-opacity: 0.6; stroke: #000000; stroke-opacity: 0.6; stroke-width: 0.1"/>
    <path d="M 86.906423 97.897919 
L 100.495987 97.003796 
L 105.621574 91.431571 
L 92.15143 92.342727 
z
" clip-path="url(#p9affe67707)" style="fill: #90d427; fill-opacity: 0.6; stroke: #000000; stroke-opacity: 0.6; stroke-width: 0.1"/>
    <path d="M 100.495987 97.003796 
L 114.217426 96.100996 
L 119.221037 90.511667 
L 105.621574 91.431571 
z
" clip-path="url(#p9affe67707)" style="fill: #90d427; fill-opacity: 0.6; stroke: #000000; stroke-opacity: 0.6; stroke-width: 0.1"/>
    <path d="M 67.969552 104.440874 
L 81.548021 103.573211 
L 86.906423 97.897919 
L 73.446843 98.783489 
z
" clip-path="url(#p9affe67707)" style="fill: #90d427; fill-opacity: 0.6; stroke: #000000; stroke-opacity: 0.6; stroke-width: 0.1"/>
    <path d="M 114.217426 96.100996 
L 128.07267 95.189392 
L 132.951691 89.582889 
L 119.221037 90.511667 
z
" clip-path="url(#p9affe67707)" style="fill: #90d427; fill-opacity: 0.6; stroke: #000000; stroke-opacity: 0.6; stroke-width: 0.1"/>
    <path d="M 81.548021 103.573211 
L 95.259047 102.697077 
L 100.495987 97.003796 
L 86.906423 97.897919 
z
" clip-path="url(#p9affe67707)" style="fill: #90d427; fill-opacity: 0.6; stroke: #000000; stroke-opacity: 0.6; stroke-width: 0.1"/>
    <path d="M 128.07267 95.189392 
L 142.063684 94.268856 
L 146.815445 88.645108 
L 132.951691 89.582889 
z
" clip-path="url(#p9affe67707)" style="fill: #90d427; fill-opacity: 0.6; stroke: #000000; stroke-opacity: 0.6; stroke-width: 0.1"/>
    <path d="M 95.259047 102.697077 
L 109.104579 101.812348 
L 114.217426 96.100996 
L 100.495987 97.003796 
z
" clip-path="url(#p9affe67707)" style="fill: #90d427; fill-opacity: 0.6; stroke: #000000; stroke-opacity: 0.6; stroke-width: 0.1"/>
    <path d="M 62.373136 110.221301 
L 76.072508 109.372541 
L 81.548021 103.573211 
L 67.969552 104.440874 
z
" clip-path="url(#p9affe67707)" style="fill: #90d427; fill-opacity: 0.6; stroke: #000000; stroke-opacity: 0.6; stroke-width: 0.1"/>
    <path d="M 142.063684 94.268856 
L 156.192476 93.339254 
L 160.814242 87.698193 
L 146.815445 88.645108 
z
" clip-path="url(#p9affe67707)" style="fill: #90d427; fill-opacity: 0.6; stroke: #000000; stroke-opacity: 0.6; stroke-width: 0.1"/>
    <path d="M 109.104579 101.812348 
L 123.086607 100.918898 
L 128.07267 95.189392 
L 114.217426 96.100996 
z
" clip-path="url(#p9affe67707)" style="fill: #90d427; fill-opacity: 0.6; stroke: #000000; stroke-opacity: 0.6; stroke-width: 0.1"/>
    <path d="M 76.072508 109.372541 
L 89.907085 108.515403 
L 95.259047 102.697077 
L 81.548021 103.573211 
z
" clip-path="url(#p9affe67707)" style="fill: #90d427; fill-opacity: 0.6; stroke: #000000; stroke-opacity: 0.6; stroke-width: 0.1"/>
    <path d="M 156.192476 93.339254 
L 170.461089 92.400453 
L 174.950066 86.742008 
L 160.814242 87.698193 
z
" clip-path="url(#p9affe67707)" style="fill: #90d427; fill-opacity: 0.6; stroke: #000000; stroke-opacity: 0.6; stroke-width: 0.1"/>
    <path d="M 123.086607 100.918898 
L 137.207158 100.016595 
L 142.063684 94.268856 
L 128.07267 95.189392 
z
" clip-path="url(#p9affe67707)" style="fill: #90d427; fill-opacity: 0.6; stroke: #000000; stroke-opacity: 0.6; stroke-width: 0.1"/>
    <path d="M 89.907085 108.515403 
L 103.878879 107.649765 
L 109.104579 101.812348 
L 95.259047 102.697077 
z
" clip-path="url(#p9affe67707)" style="fill: #90d427; fill-opacity: 0.6; stroke: #000000; stroke-opacity: 0.6; stroke-width: 0.1"/>
    <path d="M 56.653666 116.128828 
L 70.476001 115.30002 
L 76.072508 109.372541 
L 62.373136 110.221301 
z
" clip-path="url(#p9affe67707)" style="fill: #90d427; fill-opacity: 0.6; stroke: #000000; stroke-opacity: 0.6; stroke-width: 0.1"/>
    <path d="M 170.461089 92.400453 
L 184.87161 91.452316 
L 189.224938 85.776418 
L 174.950066 86.742008 
z
" clip-path="url(#p9affe67707)" style="fill: #90d427; fill-opacity: 0.6; stroke: #000000; stroke-opacity: 0.6; stroke-width: 0.1"/>
    <path d="M 137.207158 100.016595 
L 151.468302 99.105309 
L 156.192476 93.339254 
L 142.063684 94.268856 
z
" clip-path="url(#p9affe67707)" style="fill: #90d427; fill-opacity: 0.6; stroke: #000000; stroke-opacity: 0.6; stroke-width: 0.1"/>
    <path d="M 103.878879 107.649765 
L 117.98994 106.775498 
L 123.086607 100.918898 
L 109.104579 101.812348 
z
" clip-path="url(#p9affe67707)" style="fill: #90d427; fill-opacity: 0.6; stroke: #000000; stroke-opacity: 0.6; stroke-width: 0.1"/>
    <path d="M 70.476001 115.30002 
L 84.43627 114.46294 
L 89.907085 108.515403 
L 76.072508 109.372541 
z
" clip-path="url(#p9affe67707)" style="fill: #90d427; fill-opacity: 0.6; stroke: #000000; stroke-opacity: 0.6; stroke-width: 0.1"/>
    <path d="M 184.87161 91.452316 
L 199.426166 90.494701 
L 203.64092 84.801283 
L 189.224938 85.776418 
z
" clip-path="url(#p9affe67707)" style="fill: #90d427; fill-opacity: 0.6; stroke: #000000; stroke-opacity: 0.6; stroke-width: 0.1"/>
    <path d="M 151.468302 99.105309 
L 165.872149 98.184904 
L 170.461089 92.400453 
L 156.192476 93.339254 
z
" clip-path="url(#p9affe67707)" style="fill: #90d427; fill-opacity: 0.6; stroke: #000000; stroke-opacity: 0.6; stroke-width: 0.1"/>
    <path d="M 117.98994 106.775498 
L 132.242362 105.892472 
L 137.207158 100.016595 
L 123.086607 100.918898 
z
" clip-path="url(#p9affe67707)" style="fill: #90d427; fill-opacity: 0.6; stroke: #000000; stroke-opacity: 0.6; stroke-width: 0.1"/>
    <path d="M 84.43627 114.46294 
L 98.536547 113.617465 
L 103.878879 107.649765 
L 89.907085 108.515403 
z
" clip-path="url(#p9affe67707)" style="fill: #90d427; fill-opacity: 0.6; stroke: #000000; stroke-opacity: 0.6; stroke-width: 0.1"/>
    <path d="M 50.807038 122.167694 
L 64.754446 121.359942 
L 70.476001 115.30002 
L 56.653666 116.128828 
z
" clip-path="url(#p9affe67707)" style="fill: #90d427; fill-opacity: 0.6; stroke: #000000; stroke-opacity: 0.6; stroke-width: 0.1"/>
    <path d="M 165.872149 98.184904 
L 180.420852 97.255242 
L 184.87161 91.452316 
L 170.461089 92.400453 
z
" clip-path="url(#p9affe67707)" style="fill: #90d427; fill-opacity: 0.6; stroke: #000000; stroke-opacity: 0.6; stroke-width: 0.1"/>
    <path d="M 132.242362 105.892472 
L 146.638279 105.000556 
L 151.468302 99.105309 
L 137.207158 100.016595 
z
" clip-path="url(#p9affe67707)" style="fill: #90d427; fill-opacity: 0.6; stroke: #000000; stroke-opacity: 0.6; stroke-width: 0.1"/>
    <path d="M 98.536547 113.617465 
L 112.778948 112.763469 
L 117.98994 106.775498 
L 103.878879 107.649765 
z
" clip-path="url(#p9affe67707)" style="fill: #90d427; fill-opacity: 0.6; stroke: #000000; stroke-opacity: 0.6; stroke-width: 0.1"/>
    <path d="M 64.754446 121.359942 
L 78.842598 120.544039 
L 84.43627 114.46294 
L 70.476001 115.30002 
z
" clip-path="url(#p9affe67707)" style="fill: #90d427; fill-opacity: 0.6; stroke: #000000; stroke-opacity: 0.6; stroke-width: 0.1"/>
    <path d="M 180.420852 97.255242 
L 195.116607 96.316184 
L 199.426166 90.494701 
L 184.87161 91.452316 
z
" clip-path="url(#p9affe67707)" style="fill: #90d427; fill-opacity: 0.6; stroke: #000000; stroke-opacity: 0.6; stroke-width: 0.1"/>
    <path d="M 146.638279 105.000556 
L 161.17987 104.099615 
L 165.872149 98.184904 
L 151.468302 99.105309 
z
" clip-path="url(#p9affe67707)" style="fill: #90d427; fill-opacity: 0.6; stroke: #000000; stroke-opacity: 0.6; stroke-width: 0.1"/>
    <path d="M 112.778948 112.763469 
L 127.165635 111.90082 
L 132.242362 105.892472 
L 117.98994 106.775498 
z
" clip-path="url(#p9affe67707)" style="fill: #90d427; fill-opacity: 0.6; stroke: #000000; stroke-opacity: 0.6; stroke-width: 0.1"/>
    <path d="M 78.842598 120.544039 
L 93.073635 119.719861 
L 98.536547 113.617465 
L 84.43627 114.46294 
z
" clip-path="url(#p9affe67707)" style="fill: #90d427; fill-opacity: 0.6; stroke: #000000; stroke-opacity: 0.6; stroke-width: 0.1"/>
    <path d="M 44.828964 128.342328 
L 58.903603 127.556798 
L 64.754446 121.359942 
L 50.807038 122.167694 
z
" clip-path="url(#p9affe67707)" style="fill: #90d427; fill-opacity: 0.6; stroke: #000000; stroke-opacity: 0.6; stroke-width: 0.1"/>
    <path d="M 161.17987 104.099615 
L 175.869357 103.189511 
L 180.420852 97.255242 
L 165.872149 98.184904 
z
" clip-path="url(#p9affe67707)" style="fill: #90d427; fill-opacity: 0.6; stroke: #000000; stroke-opacity: 0.6; stroke-width: 0.1"/>
    <path d="M 127.165635 111.90082 
L 141.69881 111.029388 
L 146.638279 105.000556 
L 132.242362 105.892472 
z
" clip-path="url(#p9affe67707)" style="fill: #90d427; fill-opacity: 0.6; stroke: #000000; stroke-opacity: 0.6; stroke-width: 0.1"/>
    <path d="M 93.073635 119.719861 
L 107.449742 118.887281 
L 112.778948 112.763469 
L 98.536547 113.617465 
z
" clip-path="url(#p9affe67707)" style="fill: #90d427; fill-opacity: 0.6; stroke: #000000; stroke-opacity: 0.6; stroke-width: 0.1"/>
    <path d="M 58.903603 127.556798 
L 73.121883 126.763251 
L 78.842598 120.544039 
L 64.754446 121.359942 
z
" clip-path="url(#p9affe67707)" style="fill: #90d427; fill-opacity: 0.6; stroke: #000000; stroke-opacity: 0.6; stroke-width: 0.1"/>
    <path d="M 175.869357 103.189511 
L 190.709008 102.270103 
L 195.116607 96.316184 
L 180.420852 97.255242 
z
" clip-path="url(#p9affe67707)" style="fill: #90d427; fill-opacity: 0.6; stroke: #000000; stroke-opacity: 0.6; stroke-width: 0.1"/>
    <path d="M 141.69881 111.029388 
L 156.380722 110.149038 
L 161.17987 104.099615 
L 146.638279 105.000556 
z
" clip-path="url(#p9affe67707)" style="fill: #90d427; fill-opacity: 0.6; stroke: #000000; stroke-opacity: 0.6; stroke-width: 0.1"/>
    <path d="M 107.449742 118.887281 
L 121.973149 118.046171 
L 127.165635 111.90082 
L 112.778948 112.763469 
z
" clip-path="url(#p9affe67707)" style="fill: #90d427; fill-opacity: 0.6; stroke: #000000; stroke-opacity: 0.6; stroke-width: 0.1"/>
    <path d="M 73.121883 126.763251 
L 87.486014 125.961564 
L 93.073635 119.719861 
L 78.842598 120.544039 
z
" clip-path="url(#p9affe67707)" style="fill: #90d427; fill-opacity: 0.6; stroke: #000000; stroke-opacity: 0.6; stroke-width: 0.1"/>
    <path d="M 38.71496 134.657361 
L 52.91904 133.895282 
L 58.903603 127.556798 
L 44.828964 128.342328 
z
" clip-path="url(#p9affe67707)" style="fill: #90d427; fill-opacity: 0.6; stroke: #000000; stroke-opacity: 0.6; stroke-width: 0.1"/>
    <path d="M 156.380722 110.149038 
L 171.213666 109.259631 
L 175.869357 103.189511 
L 161.17987 104.099615 
z
" clip-path="url(#p9affe67707)" style="fill: #90d427; fill-opacity: 0.6; stroke: #000000; stroke-opacity: 0.6; stroke-width: 0.1"/>
    <path d="M 121.973149 118.046171 
L 136.646131 117.196398 
L 141.69881 111.029388 
L 127.165635 111.90082 
z
" clip-path="url(#p9affe67707)" style="fill: #90d427; fill-opacity: 0.6; stroke: #000000; stroke-opacity: 0.6; stroke-width: 0.1"/>
    <path d="M 87.486014 125.961564 
L 101.998251 125.151611 
L 107.449742 118.887281 
L 93.073635 119.719861 
z
" clip-path="url(#p9affe67707)" style="fill: #90d427; fill-opacity: 0.6; stroke: #000000; stroke-opacity: 0.6; stroke-width: 0.1"/>
    <path d="M 52.91904 133.895282 
L 67.269748 133.125335 
L 73.121883 126.763251 
L 58.903603 127.556798 
z
" clip-path="url(#p9affe67707)" style="fill: #90d427; fill-opacity: 0.6; stroke: #000000; stroke-opacity: 0.6; stroke-width: 0.1"/>
    <path d="M 171.213666 109.259631 
L 186.199985 108.361028 
L 190.709008 102.270103 
L 175.869357 103.189511 
z
" clip-path="url(#p9affe67707)" style="fill: #90d427; fill-opacity: 0.6; stroke: #000000; stroke-opacity: 0.6; stroke-width: 0.1"/>
    <path d="M 136.646131 117.196398 
L 151.47101 116.337827 
L 156.380722 110.149038 
L 141.69881 111.029388 
z
" clip-path="url(#p9affe67707)" style="fill: #90d427; fill-opacity: 0.6; stroke: #000000; stroke-opacity: 0.6; stroke-width: 0.1"/>
    <path d="M 101.998251 125.151611 
L 116.660898 124.333263 
L 121.973149 118.046171 
L 107.449742 118.887281 
z
" clip-path="url(#p9affe67707)" style="fill: #90d427; fill-opacity: 0.6; stroke: #000000; stroke-opacity: 0.6; stroke-width: 0.1"/>
    <path d="M 67.269748 133.125335 
L 81.769364 132.3474 
L 87.486014 125.961564 
L 73.121883 126.763251 
z
" clip-path="url(#p9affe67707)" style="fill: #90d427; fill-opacity: 0.6; stroke: #000000; stroke-opacity: 0.6; stroke-width: 0.1"/>
    <path d="M 32.460338 141.117636 
L 46.796121 140.380304 
L 52.91904 133.895282 
L 38.71496 134.657361 
z
" clip-path="url(#p9affe67707)" style="fill: #90d427; fill-opacity: 0.6; stroke: #000000; stroke-opacity: 0.6; stroke-width: 0.1"/>
    <path d="M 151.47101 116.337827 
L 166.450159 115.470323 
L 171.213666 109.259631 
L 156.380722 110.149038 
z
" clip-path="url(#p9affe67707)" style="fill: #90d427; fill-opacity: 0.6; stroke: #000000; stroke-opacity: 0.6; stroke-width: 0.1"/>
    <path d="M 116.660898 124.333263 
L 131.476305 123.506389 
L 136.646131 117.196398 
L 121.973149 118.046171 
z
" clip-path="url(#p9affe67707)" style="fill: #90d427; fill-opacity: 0.6; stroke: #000000; stroke-opacity: 0.6; stroke-width: 0.1"/>
    <path d="M 81.769364 132.3474 
L 96.420219 131.56135 
L 101.998251 125.151611 
L 87.486014 125.961564 
z
" clip-path="url(#p9affe67707)" style="fill: #90d427; fill-opacity: 0.6; stroke: #000000; stroke-opacity: 0.6; stroke-width: 0.1"/>
    <path d="M 46.796121 140.380304 
L 61.281611 139.635272 
L 67.269748 133.125335 
L 52.91904 133.895282 
z
" clip-path="url(#p9affe67707)" style="fill: #90d427; fill-opacity: 0.6; stroke: #000000; stroke-opacity: 0.6; stroke-width: 0.1"/>
    <path d="M 166.450159 115.470323 
L 181.585997 114.593744 
L 186.199985 108.361028 
L 171.213666 109.259631 
z
" clip-path="url(#p9affe67707)" style="fill: #90d427; fill-opacity: 0.6; stroke: #000000; stroke-opacity: 0.6; stroke-width: 0.1"/>
    <path d="M 131.476305 123.506389 
L 146.446871 122.670856 
L 151.47101 116.337827 
L 136.646131 117.196398 
z
" clip-path="url(#p9affe67707)" style="fill: #90d427; fill-opacity: 0.6; stroke: #000000; stroke-opacity: 0.6; stroke-width: 0.1"/>
    <path d="M 96.420219 131.56135 
L 111.224691 130.767058 
L 116.660898 124.333263 
L 101.998251 125.151611 
z
" clip-path="url(#p9affe67707)" style="fill: #90d427; fill-opacity: 0.6; stroke: #000000; stroke-opacity: 0.6; stroke-width: 0.1"/>
    <path d="M 61.281611 139.635272 
L 75.919164 138.882419 
L 81.769364 132.3474 
L 67.269748 133.125335 
z
" clip-path="url(#p9affe67707)" style="fill: #90d427; fill-opacity: 0.6; stroke: #000000; stroke-opacity: 0.6; stroke-width: 0.1"/>
    <path d="M 26.060189 147.728223 
L 40.529992 147.017007 
L 46.796121 140.380304 
L 32.460338 141.117636 
z
" clip-path="url(#p9affe67707)" style="fill: #90d427; fill-opacity: 0.6; stroke: #000000; stroke-opacity: 0.6; stroke-width: 0.1"/>
    <path d="M 146.446871 122.670856 
L 161.575047 121.826526 
L 166.450159 115.470323 
L 151.47101 116.337827 
z
" clip-path="url(#p9affe67707)" style="fill: #90d427; fill-opacity: 0.6; stroke: #000000; stroke-opacity: 0.6; stroke-width: 0.1"/>
    <path d="M 111.224691 130.767058 
L 126.18521 129.964394 
L 131.476305 123.506389 
L 116.660898 124.333263 
z
" clip-path="url(#p9affe67707)" style="fill: #90d427; fill-opacity: 0.6; stroke: #000000; stroke-opacity: 0.6; stroke-width: 0.1"/>
    <path d="M 75.919164 138.882419 
L 90.711187 138.121621 
L 96.420219 131.56135 
L 81.769364 132.3474 
z
" clip-path="url(#p9affe67707)" style="fill: #90d427; fill-opacity: 0.6; stroke: #000000; stroke-opacity: 0.6; stroke-width: 0.1"/>
    <path d="M 40.529992 147.017007 
L 55.152676 146.298276 
L 61.281611 139.635272 
L 46.796121 140.380304 
z
" clip-path="url(#p9affe67707)" style="fill: #90d427; fill-opacity: 0.6; stroke: #000000; stroke-opacity: 0.6; stroke-width: 0.1"/>
    <path d="M 161.575047 121.826526 
L 176.863335 120.97326 
L 181.585997 114.593744 
L 166.450159 115.470323 
z
" clip-path="url(#p9affe67707)" style="fill: #90d427; fill-opacity: 0.6; stroke: #000000; stroke-opacity: 0.6; stroke-width: 0.1"/>
    <path d="M 126.18521 129.964394 
L 141.304256 129.153225 
L 146.446871 122.670856 
L 131.476305 123.506389 
z
" clip-path="url(#p9affe67707)" style="fill: #90d427; fill-opacity: 0.6; stroke: #000000; stroke-opacity: 0.6; stroke-width: 0.1"/>
    <path d="M 90.711187 138.121621 
L 105.660139 137.352752 
L 111.224691 130.767058 
L 96.420219 131.56135 
z
" clip-path="url(#p9affe67707)" style="fill: #90d427; fill-opacity: 0.6; stroke: #000000; stroke-opacity: 0.6; stroke-width: 0.1"/>
    <path d="M 55.152676 146.298276 
L 69.930678 145.571911 
L 75.919164 138.882419 
L 61.281611 139.635272 
z
" clip-path="url(#p9affe67707)" style="fill: #90d427; fill-opacity: 0.6; stroke: #000000; stroke-opacity: 0.6; stroke-width: 0.1"/>
    <path d="M 141.304256 129.153225 
L 156.584361 128.333414 
L 161.575047 121.826526 
L 146.446871 122.670856 
z
" clip-path="url(#p9affe67707)" style="fill: #90d427; fill-opacity: 0.6; stroke: #000000; stroke-opacity: 0.6; stroke-width: 0.1"/>
    <path d="M 105.660139 137.352752 
L 120.76853 136.575682 
L 126.18521 129.964394 
L 111.224691 130.767058 
z
" clip-path="url(#p9affe67707)" style="fill: #90d427; fill-opacity: 0.6; stroke: #000000; stroke-opacity: 0.6; stroke-width: 0.1"/>
    <path d="M 69.930678 145.571911 
L 84.866486 144.83779 
L 90.711187 138.121621 
L 75.919164 138.882419 
z
" clip-path="url(#p9affe67707)" style="fill: #90d427; fill-opacity: 0.6; stroke: #000000; stroke-opacity: 0.6; stroke-width: 0.1"/>
    <path d="M 156.584361 128.333414 
L 172.028113 127.504824 
L 176.863335 120.97326 
L 161.575047 121.826526 
z
" clip-path="url(#p9affe67707)" style="fill: #90d427; fill-opacity: 0.6; stroke: #000000; stroke-opacity: 0.6; stroke-width: 0.1"/>
    <path d="M 120.76853 136.575682 
L 136.038925 135.79028 
L 141.304256 129.153225 
L 126.18521 129.964394 
z
" clip-path="url(#p9affe67707)" style="fill: #90d427; fill-opacity: 0.6; stroke: #000000; stroke-opacity: 0.6; stroke-width: 0.1"/>
    <path d="M 84.866486 144.83779 
L 99.962641 144.095788 
L 105.660139 137.352752 
L 90.711187 138.121621 
z
" clip-path="url(#p9affe67707)" style="fill: #90d427; fill-opacity: 0.6; stroke: #000000; stroke-opacity: 0.6; stroke-width: 0.1"/>
    <path d="M 136.038925 135.79028 
L 151.473943 134.996411 
L 156.584361 128.333414 
L 141.304256 129.153225 
z
" clip-path="url(#p9affe67707)" style="fill: #90d427; fill-opacity: 0.6; stroke: #000000; stroke-opacity: 0.6; stroke-width: 0.1"/>
    <path d="M 99.962641 144.095788 
L 115.221739 143.345776 
L 120.76853 136.575682 
L 105.660139 137.352752 
z
" clip-path="url(#p9affe67707)" style="fill: #90d427; fill-opacity: 0.6; stroke: #000000; stroke-opacity: 0.6; stroke-width: 0.1"/>
    <path d="M 151.473943 134.996411 
L 167.076261 134.193937 
L 172.028113 127.504824 
L 156.584361 128.333414 
z
" clip-path="url(#p9affe67707)" style="fill: #90d427; fill-opacity: 0.6; stroke: #000000; stroke-opacity: 0.6; stroke-width: 0.1"/>
    <path d="M 115.221739 143.345776 
L 130.646432 142.587626 
L 136.038925 135.79028 
L 120.76853 136.575682 
z
" clip-path="url(#p9affe67707)" style="fill: #90d427; fill-opacity: 0.6; stroke: #000000; stroke-opacity: 0.6; stroke-width: 0.1"/>
    <path d="M 130.646432 142.587626 
L 146.23943 141.821202 
L 151.473943 134.996411 
L 136.038925 135.79028 
z
" clip-path="url(#p9affe67707)" style="fill: #90d427; fill-opacity: 0.6; stroke: #000000; stroke-opacity: 0.6; stroke-width: 0.1"/>
    <path d="M 146.23943 141.821202 
L 162.003505 141.046371 
L 167.076261 134.193937 
L 151.473943 134.996411 
z
" clip-path="url(#p9affe67707)" style="fill: #90d427; fill-opacity: 0.6; stroke: #000000; stroke-opacity: 0.6; stroke-width: 0.1"/>
   </g>
  </g>
 </g>
 <defs>
  <clipPath id="p9affe67707">
   <rect x="7.2" y="20.798437" width="214.48" height="214.48"/>
  </clipPath>
 </defs>
</svg>
