<?xml version="1.0" encoding="utf-8" standalone="no"?>
<!DOCTYPE svg PUBLIC "-//W3C//DTD SVG 1.1//EN"
  "http://www.w3.org/Graphics/SVG/1.1/DTD/svg11.dtd">
<svg xmlns:xlink="http://www.w3.org/1999/xlink" width="247.128746pt" height="249.085353pt" viewBox="0 0 247.128746 249.085353" xmlns="http://www.w3.org/2000/svg" version="1.1">
 <metadata>
  <rdf:RDF xmlns:dc="http://purl.org/dc/elements/1.1/" xmlns:cc="http://creativecommons.org/ns#" xmlns:rdf="http://www.w3.org/1999/02/22-rdf-syntax-ns#">
   <cc:Work>
    <dc:type rdf:resource="http://purl.org/dc/dcmitype/StillImage"/>
    <dc:date>2025-06-11T09:21:55.427737</dc:date>
    <dc:format>image/svg+xml</dc:format>
    <dc:creator>
     <cc:Agent>
      <dc:title>Matplotlib v3.10.3, https://matplotlib.org/</dc:title>
     </cc:Agent>
    </dc:creator>
   </cc:Work>
  </rdf:RDF>
 </metadata>
 <defs>
  <style type="text/css">*{stroke-linejoin: round; stroke-linecap: butt}</style>
 </defs>
 <g id="figure_1">
  <g id="patch_1">
   <path d="M 0 249.085353 
L 247.128746 249.085353 
L 247.128746 0 
L 0 0 
L 0 249.085353 
z
" style="fill: none; opacity: 0"/>
  </g>
  <g id="patch_2">
   <path d="M 8.51213 235.297187 
L 222.99213 235.297187 
L 222.99213 20.817187 
L 8.51213 20.817187 
L 8.51213 235.297187 
z
" style="fill: none"/>
  </g>
  <g id="pane3d_1">
   <g id="patch_3">
    <path d="M 22.601884 175.051514 
L 110.881695 130.474253 
L 110.604393 41.919327 
L 18.882708 80.71186 
" style="fill: none; opacity: 0"/>
   </g>
  </g>
  <g id="pane3d_2">
   <g id="patch_4">
    <path d="M 110.881695 130.474253 
L 213.453596 167.39396 
L 217.075121 74.031891 
L 110.604393 41.919327 
" style="fill: none; opacity: 0"/>
   </g>
  </g>
  <g id="pane3d_3">
   <g id="patch_5">
    <path d="M 22.601884 175.051514 
L 127.671772 218.486496 
L 213.453596 167.39396 
L 110.881695 130.474253 
" style="fill: none; opacity: 0"/>
   </g>
  </g>
  <g id="grid3d_1">
   <g id="Line3DCollection_1">
    <path d="M 22.601884 175.051514 
L 110.881695 130.474253 
L 110.604393 41.919327 
" style="fill: none; stroke: #b0b0b0; stroke-width: 0.8"/>
    <path d="M 39.10213 181.872573 
L 127.064987 136.299264 
L 127.368657 46.975585 
" style="fill: none; stroke: #b0b0b0; stroke-width: 0.8"/>
    <path d="M 55.988026 188.853056 
L 143.59735 142.249919 
L 144.50772 52.144887 
" style="fill: none; stroke: #b0b0b0; stroke-width: 0.8"/>
    <path d="M 73.273252 195.998618 
L 160.490204 148.330329 
L 162.034295 57.431065 
" style="fill: none; stroke: #b0b0b0; stroke-width: 0.8"/>
    <path d="M 90.972142 203.315187 
L 177.755467 154.544784 
L 179.961673 62.838129 
" style="fill: none; stroke: #b0b0b0; stroke-width: 0.8"/>
    <path d="M 109.099727 210.808973 
L 195.405594 160.897766 
L 198.303762 68.370274 
" style="fill: none; stroke: #b0b0b0; stroke-width: 0.8"/>
    <path d="M 127.671772 218.486496 
L 213.453596 167.39396 
L 217.075121 74.031891 
" style="fill: none; stroke: #b0b0b0; stroke-width: 0.8"/>
   </g>
  </g>
  <g id="grid3d_2">
   <g id="Line3DCollection_2">
    <path d="M 18.882708 80.71186 
L 22.601884 175.051514 
L 127.671772 218.486496 
" style="fill: none; stroke: #b0b0b0; stroke-width: 0.8"/>
    <path d="M 35.235071 73.795833 
L 38.302908 167.123216 
L 142.998096 209.35798 
" style="fill: none; stroke: #b0b0b0; stroke-width: 0.8"/>
    <path d="M 51.137833 67.06996 
L 53.587907 159.404992 
L 157.8893 200.488626 
" style="fill: none; stroke: #b0b0b0; stroke-width: 0.8"/>
    <path d="M 66.609286 60.526504 
L 68.473198 151.888602 
L 172.363654 191.867552 
" style="fill: none; stroke: #b0b0b0; stroke-width: 0.8"/>
    <path d="M 81.666741 54.158143 
L 82.974258 144.566231 
L 186.43842 183.484477 
" style="fill: none; stroke: #b0b0b0; stroke-width: 0.8"/>
    <path d="M 96.326595 47.957942 
L 97.105774 137.430463 
L 200.129919 175.329679 
" style="fill: none; stroke: #b0b0b0; stroke-width: 0.8"/>
    <path d="M 110.604393 41.919327 
L 110.881695 130.474253 
L 213.453596 167.39396 
" style="fill: none; stroke: #b0b0b0; stroke-width: 0.8"/>
   </g>
  </g>
  <g id="grid3d_3">
   <g id="Line3DCollection_3">
    <path d="M 213.453596 167.39396 
L 110.881695 130.474253 
L 22.601884 175.051514 
" style="fill: none; stroke: #b0b0b0; stroke-width: 0.8"/>
    <path d="M 213.954554 154.479387 
L 110.843257 118.19911 
L 22.087641 162.007357 
" style="fill: none; stroke: #b0b0b0; stroke-width: 0.8"/>
    <path d="M 214.460834 141.427603 
L 110.804436 105.801892 
L 21.567862 148.822773 
" style="fill: none; stroke: #b0b0b0; stroke-width: 0.8"/>
    <path d="M 214.972522 128.236409 
L 110.765227 93.28077 
L 21.042456 135.49548 
" style="fill: none; stroke: #b0b0b0; stroke-width: 0.8"/>
    <path d="M 215.489705 114.90356 
L 110.725624 80.633876 
L 20.511333 122.023149 
" style="fill: none; stroke: #b0b0b0; stroke-width: 0.8"/>
    <path d="M 216.012471 101.426762 
L 110.685622 67.859306 
L 19.974398 108.403399 
" style="fill: none; stroke: #b0b0b0; stroke-width: 0.8"/>
    <path d="M 216.540912 87.803671 
L 110.645213 54.955118 
L 19.431556 94.633799 
" style="fill: none; stroke: #b0b0b0; stroke-width: 0.8"/>
    <path d="M 217.075121 74.031891 
L 110.604393 41.919327 
L 18.882708 80.71186 
" style="fill: none; stroke: #b0b0b0; stroke-width: 0.8"/>
   </g>
  </g>
  <g id="axis3d_1">
   <g id="line2d_1">
    <path d="M 22.601884 175.051514 
L 127.671772 218.486496 
" style="fill: none; stroke: #000000; stroke-width: 0.8; stroke-linecap: square"/>
   </g>
   <g id="xtick_1">
    <g id="line2d_2">
     <path d="M 23.365291 174.666028 
L 21.072074 175.823997 
" style="fill: none; stroke: #000000; stroke-width: 0.8; stroke-linecap: square"/>
    </g>
    <g id="text_1">
     <!-- −3 -->
     <g transform="translate(7.2 195.509656) scale(0.08 -0.08)">
      <defs>
       <path id="DejaVuSans-2212" d="M 678 2272 
L 4684 2272 
L 4684 1741 
L 678 1741 
L 678 2272 
z
" transform="scale(0.015625)"/>
       <path id="DejaVuSans-33" d="M 2597 2516 
Q 3050 2419 3304 2112 
Q 3559 1806 3559 1356 
Q 3559 666 3084 287 
Q 2609 -91 1734 -91 
Q 1441 -91 1130 -33 
Q 819 25 488 141 
L 488 750 
Q 750 597 1062 519 
Q 1375 441 1716 441 
Q 2309 441 2620 675 
Q 2931 909 2931 1356 
Q 2931 1769 2642 2001 
Q 2353 2234 1838 2234 
L 1294 2234 
L 1294 2753 
L 1863 2753 
Q 2328 2753 2575 2939 
Q 2822 3125 2822 3475 
Q 2822 3834 2567 4026 
Q 2313 4219 1838 4219 
Q 1578 4219 1281 4162 
Q 984 4106 628 3988 
L 628 4550 
Q 988 4650 1302 4700 
Q 1616 4750 1894 4750 
Q 2613 4750 3031 4423 
Q 3450 4097 3450 3541 
Q 3450 3153 3228 2886 
Q 3006 2619 2597 2516 
z
" transform="scale(0.015625)"/>
      </defs>
      <use xlink:href="#DejaVuSans-2212"/>
      <use xlink:href="#DejaVuSans-33" transform="translate(83.789062 0)"/>
     </g>
    </g>
   </g>
   <g id="xtick_2">
    <g id="line2d_3">
     <path d="M 39.863454 181.478133 
L 37.576461 182.663018 
" style="fill: none; stroke: #000000; stroke-width: 0.8; stroke-linecap: square"/>
    </g>
    <g id="text_2">
     <!-- −2 -->
     <g transform="translate(23.666545 202.529252) scale(0.08 -0.08)">
      <defs>
       <path id="DejaVuSans-32" d="M 1228 531 
L 3431 531 
L 3431 0 
L 469 0 
L 469 531 
Q 828 903 1448 1529 
Q 2069 2156 2228 2338 
Q 2531 2678 2651 2914 
Q 2772 3150 2772 3378 
Q 2772 3750 2511 3984 
Q 2250 4219 1831 4219 
Q 1534 4219 1204 4116 
Q 875 4013 500 3803 
L 500 4441 
Q 881 4594 1212 4672 
Q 1544 4750 1819 4750 
Q 2544 4750 2975 4387 
Q 3406 4025 3406 3419 
Q 3406 3131 3298 2873 
Q 3191 2616 2906 2266 
Q 2828 2175 2409 1742 
Q 1991 1309 1228 531 
z
" transform="scale(0.015625)"/>
      </defs>
      <use xlink:href="#DejaVuSans-2212"/>
      <use xlink:href="#DejaVuSans-32" transform="translate(83.789062 0)"/>
     </g>
    </g>
   </g>
   <g id="xtick_3">
    <g id="line2d_4">
     <path d="M 56.74696 188.449346 
L 54.46711 189.662096 
" style="fill: none; stroke: #000000; stroke-width: 0.8; stroke-linecap: square"/>
    </g>
    <g id="text_3">
     <!-- −1 -->
     <g transform="translate(40.51976 209.713684) scale(0.08 -0.08)">
      <defs>
       <path id="DejaVuSans-31" d="M 794 531 
L 1825 531 
L 1825 4091 
L 703 3866 
L 703 4441 
L 1819 4666 
L 2450 4666 
L 2450 531 
L 3481 531 
L 3481 0 
L 794 0 
L 794 531 
z
" transform="scale(0.015625)"/>
      </defs>
      <use xlink:href="#DejaVuSans-2212"/>
      <use xlink:href="#DejaVuSans-31" transform="translate(83.789062 0)"/>
     </g>
    </g>
   </g>
   <g id="xtick_4">
    <g id="line2d_5">
     <path d="M 74.02947 195.585309 
L 71.757743 196.826918 
" style="fill: none; stroke: #000000; stroke-width: 0.8; stroke-linecap: square"/>
    </g>
    <g id="text_4">
     <!-- 0 -->
     <g transform="translate(61.125301 217.068825) scale(0.08 -0.08)">
      <defs>
       <path id="DejaVuSans-30" d="M 2034 4250 
Q 1547 4250 1301 3770 
Q 1056 3291 1056 2328 
Q 1056 1369 1301 889 
Q 1547 409 2034 409 
Q 2525 409 2770 889 
Q 3016 1369 3016 2328 
Q 3016 3291 2770 3770 
Q 2525 4250 2034 4250 
z
M 2034 4750 
Q 2819 4750 3233 4129 
Q 3647 3509 3647 2328 
Q 3647 1150 3233 529 
Q 2819 -91 2034 -91 
Q 1250 -91 836 529 
Q 422 1150 422 2328 
Q 422 3509 836 4129 
Q 1250 4750 2034 4750 
z
" transform="scale(0.015625)"/>
      </defs>
      <use xlink:href="#DejaVuSans-30"/>
     </g>
    </g>
   </g>
   <g id="xtick_5">
    <g id="line2d_6">
     <path d="M 91.725296 202.89193 
L 89.462737 204.163441 
" style="fill: none; stroke: #000000; stroke-width: 0.8; stroke-linecap: square"/>
    </g>
    <g id="text_5">
     <!-- 1 -->
     <g transform="translate(78.793863 224.600834) scale(0.08 -0.08)">
      <use xlink:href="#DejaVuSans-31"/>
     </g>
    </g>
   </g>
   <g id="xtick_6">
    <g id="line2d_7">
     <path d="M 109.849446 210.375406 
L 107.597168 211.677912 
" style="fill: none; stroke: #000000; stroke-width: 0.8; stroke-linecap: square"/>
    </g>
    <g id="text_6">
     <!-- 2 -->
     <g transform="translate(96.892468 232.316168) scale(0.08 -0.08)">
      <use xlink:href="#DejaVuSans-32"/>
     </g>
    </g>
   </g>
   <g id="xtick_7">
    <g id="line2d_8">
     <path d="M 128.41766 218.042237 
L 126.176852 219.376885 
" style="fill: none; stroke: #000000; stroke-width: 0.8; stroke-linecap: square"/>
    </g>
    <g id="text_7">
     <!-- 3 -->
     <g transform="translate(115.43701 240.221603) scale(0.08 -0.08)">
      <use xlink:href="#DejaVuSans-33"/>
     </g>
    </g>
   </g>
   <g id="text_8">
    <!-- X -->
    <g transform="translate(49.197643 231.255034) scale(0.09 -0.09)">
     <defs>
      <path id="DejaVuSans-58" d="M 403 4666 
L 1081 4666 
L 2241 2931 
L 3406 4666 
L 4084 4666 
L 2584 2425 
L 4184 0 
L 3506 0 
L 2194 1984 
L 872 0 
L 191 0 
L 1856 2491 
L 403 4666 
z
" transform="scale(0.015625)"/>
     </defs>
     <use xlink:href="#DejaVuSans-58"/>
    </g>
   </g>
  </g>
  <g id="axis3d_2">
   <g id="line2d_9">
    <path d="M 213.453596 167.39396 
L 127.671772 218.486496 
" style="fill: none; stroke: #000000; stroke-width: 0.8; stroke-linecap: square"/>
   </g>
   <g id="xtick_8">
    <g id="line2d_10">
     <path d="M 126.769916 218.113676 
L 129.478672 219.233453 
" style="fill: none; stroke: #000000; stroke-width: 0.8; stroke-linecap: square"/>
    </g>
    <g id="text_9">
     <!-- −3 -->
     <g transform="translate(133.390042 239.27511) scale(0.08 -0.08)">
      <use xlink:href="#DejaVuSans-2212"/>
      <use xlink:href="#DejaVuSans-33" transform="translate(83.789062 0)"/>
     </g>
    </g>
   </g>
   <g id="xtick_9">
    <g id="line2d_11">
     <path d="M 142.100335 208.995817 
L 144.796746 210.083567 
" style="fill: none; stroke: #000000; stroke-width: 0.8; stroke-linecap: square"/>
    </g>
    <g id="text_10">
     <!-- −2 -->
     <g transform="translate(148.600869 229.902888) scale(0.08 -0.08)">
      <use xlink:href="#DejaVuSans-2212"/>
      <use xlink:href="#DejaVuSans-32" transform="translate(83.789062 0)"/>
     </g>
    </g>
   </g>
   <g id="xtick_10">
    <g id="line2d_12">
     <path d="M 156.995767 200.136669 
L 159.679435 201.193748 
" style="fill: none; stroke: #000000; stroke-width: 0.8; stroke-linecap: square"/>
    </g>
    <g id="text_11">
     <!-- −1 -->
     <g transform="translate(163.378402 220.797642) scale(0.08 -0.08)">
      <use xlink:href="#DejaVuSans-2212"/>
      <use xlink:href="#DejaVuSans-31" transform="translate(83.789062 0)"/>
     </g>
    </g>
   </g>
   <g id="xtick_11">
    <g id="line2d_13">
     <path d="M 171.474465 191.525375 
L 174.145043 192.553063 
" style="fill: none; stroke: #000000; stroke-width: 0.8; stroke-linecap: square"/>
    </g>
    <g id="text_12">
     <!-- 0 -->
     <g transform="translate(181.092769 211.948125) scale(0.08 -0.08)">
      <use xlink:href="#DejaVuSans-30"/>
     </g>
    </g>
   </g>
   <g id="xtick_12">
    <g id="line2d_14">
     <path d="M 185.553677 183.151679 
L 188.21086 184.151183 
" style="fill: none; stroke: #000000; stroke-width: 0.8; stroke-linecap: square"/>
    </g>
    <g id="text_13">
     <!-- 1 -->
     <g transform="translate(195.057463 203.343713) scale(0.08 -0.08)">
      <use xlink:href="#DejaVuSans-31"/>
     </g>
    </g>
   </g>
   <g id="xtick_13">
    <g id="line2d_15">
     <path d="M 199.249712 175.00588 
L 201.893233 175.978345 
" style="fill: none; stroke: #000000; stroke-width: 0.8; stroke-linecap: square"/>
    </g>
    <g id="text_14">
     <!-- 2 -->
     <g transform="translate(208.640661 194.974363) scale(0.08 -0.08)">
      <use xlink:href="#DejaVuSans-32"/>
     </g>
    </g>
   </g>
   <g id="xtick_14">
    <g id="line2d_16">
     <path d="M 212.578002 167.078799 
L 215.207631 168.025307 
" style="fill: none; stroke: #000000; stroke-width: 0.8; stroke-linecap: square"/>
    </g>
    <g id="text_15">
     <!-- 3 -->
     <g transform="translate(221.857784 186.83057) scale(0.08 -0.08)">
      <use xlink:href="#DejaVuSans-33"/>
     </g>
    </g>
   </g>
   <g id="text_16">
    <!-- Y -->
    <g transform="translate(194.21993 224.908772) scale(0.09 -0.09)">
     <defs>
      <path id="DejaVuSans-59" d="M -13 4666 
L 666 4666 
L 1959 2747 
L 3244 4666 
L 3922 4666 
L 2272 2222 
L 2272 0 
L 1638 0 
L 1638 2222 
L -13 4666 
z
" transform="scale(0.015625)"/>
     </defs>
     <use xlink:href="#DejaVuSans-59"/>
    </g>
   </g>
  </g>
  <g id="axis3d_3">
   <g id="line2d_17">
    <path d="M 213.453596 167.39396 
L 217.075121 74.031891 
" style="fill: none; stroke: #000000; stroke-width: 0.8; stroke-linecap: square"/>
   </g>
   <g id="xtick_15">
    <g id="line2d_18">
     <path d="M 212.578002 167.078799 
L 215.207631 168.025307 
" style="fill: none; stroke: #000000; stroke-width: 0.8; stroke-linecap: square"/>
    </g>
    <g id="text_17">
     <!-- −3 -->
     <g transform="translate(226.923629 172.695651) scale(0.08 -0.08)">
      <use xlink:href="#DejaVuSans-2212"/>
      <use xlink:href="#DejaVuSans-33" transform="translate(83.789062 0)"/>
     </g>
    </g>
   </g>
   <g id="xtick_16">
    <g id="line2d_19">
     <path d="M 213.074063 154.169581 
L 215.718413 155.100011 
" style="fill: none; stroke: #000000; stroke-width: 0.8; stroke-linecap: square"/>
    </g>
    <g id="text_18">
     <!-- −2 -->
     <g transform="translate(227.526116 159.794286) scale(0.08 -0.08)">
      <use xlink:href="#DejaVuSans-2212"/>
      <use xlink:href="#DejaVuSans-32" transform="translate(83.789062 0)"/>
     </g>
    </g>
   </g>
   <g id="xtick_17">
    <g id="line2d_20">
     <path d="M 213.575391 141.123285 
L 216.234628 142.037239 
" style="fill: none; stroke: #000000; stroke-width: 0.8; stroke-linecap: square"/>
    </g>
    <g id="text_19">
     <!-- −1 -->
     <g transform="translate(228.134996 146.756034) scale(0.08 -0.08)">
      <use xlink:href="#DejaVuSans-2212"/>
      <use xlink:href="#DejaVuSans-31" transform="translate(83.789062 0)"/>
     </g>
    </g>
   </g>
   <g id="xtick_18">
    <g id="line2d_21">
     <path d="M 214.082072 127.937714 
L 216.756362 128.834786 
" style="fill: none; stroke: #000000; stroke-width: 0.8; stroke-linecap: square"/>
    </g>
    <g id="text_20">
     <!-- 0 -->
     <g transform="translate(232.102246 133.578707) scale(0.08 -0.08)">
      <use xlink:href="#DejaVuSans-30"/>
     </g>
    </g>
   </g>
   <g id="xtick_19">
    <g id="line2d_22">
     <path d="M 214.59419 114.610626 
L 217.283706 115.490401 
" style="fill: none; stroke: #000000; stroke-width: 0.8; stroke-linecap: square"/>
    </g>
    <g id="text_21">
     <!-- 1 -->
     <g transform="translate(232.72422 120.260066) scale(0.08 -0.08)">
      <use xlink:href="#DejaVuSans-31"/>
     </g>
    </g>
   </g>
   <g id="xtick_20">
    <g id="line2d_23">
     <path d="M 215.111835 101.139731 
L 217.816749 102.001782 
" style="fill: none; stroke: #000000; stroke-width: 0.8; stroke-linecap: square"/>
    </g>
    <g id="text_22">
     <!-- 2 -->
     <g transform="translate(233.352901 106.797826) scale(0.08 -0.08)">
      <use xlink:href="#DejaVuSans-32"/>
     </g>
    </g>
   </g>
   <g id="xtick_21">
    <g id="line2d_24">
     <path d="M 215.635095 87.522689 
L 218.355585 88.366577 
" style="fill: none; stroke: #000000; stroke-width: 0.8; stroke-linecap: square"/>
    </g>
    <g id="text_23">
     <!-- 3 -->
     <g transform="translate(233.988396 93.189652) scale(0.08 -0.08)">
      <use xlink:href="#DejaVuSans-33"/>
     </g>
    </g>
   </g>
   <g id="xtick_22">
    <g id="line2d_25">
     <path d="M 216.164064 73.757108 
L 218.900309 74.582385 
" style="fill: none; stroke: #000000; stroke-width: 0.8; stroke-linecap: square"/>
    </g>
    <g id="text_24">
     <!-- 4 -->
     <g transform="translate(234.630817 79.433158) scale(0.08 -0.08)">
      <defs>
       <path id="DejaVuSans-34" d="M 2419 4116 
L 825 1625 
L 2419 1625 
L 2419 4116 
z
M 2253 4666 
L 3047 4666 
L 3047 1625 
L 3713 1625 
L 3713 1100 
L 3047 1100 
L 3047 0 
L 2419 0 
L 2419 1100 
L 313 1100 
L 313 1709 
L 2253 4666 
z
" transform="scale(0.015625)"/>
      </defs>
      <use xlink:href="#DejaVuSans-34"/>
     </g>
    </g>
   </g>
   <g id="text_25">
    <!-- Z -->
    <g transform="translate(254.964397 122.488162) scale(0.09 -0.09)">
     <defs>
      <path id="DejaVuSans-5a" d="M 359 4666 
L 4025 4666 
L 4025 4184 
L 1075 531 
L 4097 531 
L 4097 0 
L 288 0 
L 288 481 
L 3238 4134 
L 359 4134 
L 359 4666 
z
" transform="scale(0.015625)"/>
     </defs>
     <use xlink:href="#DejaVuSans-5a"/>
    </g>
   </g>
  </g>
  <g id="axes_1">
   <g id="Poly3DCollection_1">
    <path d="M 101.157562 50.318723 
L 112.312707 58.165768 
L 121.734256 49.66402 
L 110.604393 41.919327 
z
" clip-path="url(#p2188497490)" style="fill: #81be23; fill-opacity: 0.6; stroke: #000000; stroke-opacity: 0.6; stroke-width: 0.1"/>
    <path d="M 112.312707 58.165768 
L 123.594867 66.102161 
L 132.98995 57.496272 
L 121.734256 49.66402 
z
" clip-path="url(#p2188497490)" style="fill: #81be23; fill-opacity: 0.6; stroke: #000000; stroke-opacity: 0.6; stroke-width: 0.1"/>
    <path d="M 91.576842 58.837163 
L 102.756867 66.788698 
L 112.312707 58.165768 
L 101.157562 50.318723 
z
" clip-path="url(#p2188497490)" style="fill: #81be23; fill-opacity: 0.6; stroke: #000000; stroke-opacity: 0.6; stroke-width: 0.1"/>
    <path d="M 123.594867 66.102161 
L 135.006223 74.129436 
L 144.373621 65.417576 
L 132.98995 57.496272 
z
" clip-path="url(#p2188497490)" style="fill: #81be23; fill-opacity: 0.6; stroke: #000000; stroke-opacity: 0.6; stroke-width: 0.1"/>
    <path d="M 102.756867 66.788698 
L 114.065102 74.831419 
L 123.594867 66.102161 
L 112.312707 58.165768 
z
" clip-path="url(#p2188497490)" style="fill: #81be23; fill-opacity: 0.6; stroke: #000000; stroke-opacity: 0.6; stroke-width: 0.1"/>
    <path d="M 81.859366 67.477195 
L 93.063843 75.535418 
L 102.756867 66.788698 
L 91.576842 58.837163 
z
" clip-path="url(#p2188497490)" style="fill: #81be23; fill-opacity: 0.6; stroke: #000000; stroke-opacity: 0.6; stroke-width: 0.1"/>
    <path d="M 135.006223 74.129436 
L 146.549007 82.249164 
L 155.887463 73.429461 
L 144.373621 65.417576 
z
" clip-path="url(#p2188497490)" style="fill: #81be23; fill-opacity: 0.6; stroke: #000000; stroke-opacity: 0.6; stroke-width: 0.1"/>
    <path d="M 114.065102 74.831419 
L 125.503765 82.966905 
L 135.006223 74.129436 
L 123.594867 66.102161 
z
" clip-path="url(#p2188497490)" style="fill: #81be23; fill-opacity: 0.6; stroke: #000000; stroke-opacity: 0.6; stroke-width: 0.1"/>
    <path d="M 93.063843 75.535418 
L 104.397737 83.686719 
L 114.065102 74.831419 
L 102.756867 66.788698 
z
" clip-path="url(#p2188497490)" style="fill: #81be23; fill-opacity: 0.6; stroke: #000000; stroke-opacity: 0.6; stroke-width: 0.1"/>
    <path d="M 72.002185 76.241442 
L 83.230659 84.408615 
L 93.063843 75.535418 
L 81.859366 67.477195 
z
" clip-path="url(#p2188497490)" style="fill: #81be23; fill-opacity: 0.6; stroke: #000000; stroke-opacity: 0.6; stroke-width: 0.1"/>
    <path d="M 146.549007 82.249164 
L 158.225502 90.462951 
L 167.533724 81.533488 
L 155.887463 73.429461 
z
" clip-path="url(#p2188497490)" style="fill: #81be23; fill-opacity: 0.6; stroke: #000000; stroke-opacity: 0.6; stroke-width: 0.1"/>
    <path d="M 125.503765 82.966905 
L 137.075126 91.196769 
L 146.549007 82.249164 
L 135.006223 74.129436 
z
" clip-path="url(#p2188497490)" style="fill: #81be23; fill-opacity: 0.6; stroke: #000000; stroke-opacity: 0.6; stroke-width: 0.1"/>
    <path d="M 104.397737 83.686719 
L 115.863305 91.932718 
L 125.503765 82.966905 
L 114.065102 74.831419 
z
" clip-path="url(#p2188497490)" style="fill: #81be23; fill-opacity: 0.6; stroke: #000000; stroke-opacity: 0.6; stroke-width: 0.1"/>
    <path d="M 83.230659 84.408615 
L 94.589771 92.670809 
L 104.397737 83.686719 
L 93.063843 75.535418 
z
" clip-path="url(#p2188497490)" style="fill: #81be23; fill-opacity: 0.6; stroke: #000000; stroke-opacity: 0.6; stroke-width: 0.1"/>
    <path d="M 158.225502 90.462951 
L 170.038046 98.772441 
L 179.3147 89.731256 
L 167.533724 81.533488 
z
" clip-path="url(#p2188497490)" style="fill: #81be23; fill-opacity: 0.6; stroke: #000000; stroke-opacity: 0.6; stroke-width: 0.1"/>
    <path d="M 62.002265 85.132602 
L 73.254254 93.41105 
L 83.230659 84.408615 
L 72.002185 76.241442 
z
" clip-path="url(#p2188497490)" style="fill: #81be23; fill-opacity: 0.6; stroke: #000000; stroke-opacity: 0.6; stroke-width: 0.1"/>
    <path d="M 137.075126 91.196769 
L 148.781507 99.522663 
L 158.225502 90.462951 
L 146.549007 82.249164 
z
" clip-path="url(#p2188497490)" style="fill: #81be23; fill-opacity: 0.6; stroke: #000000; stroke-opacity: 0.6; stroke-width: 0.1"/>
    <path d="M 115.863305 91.932718 
L 127.462854 100.275077 
L 137.075126 91.196769 
L 125.503765 82.966905 
z
" clip-path="url(#p2188497490)" style="fill: #81be23; fill-opacity: 0.6; stroke: #000000; stroke-opacity: 0.6; stroke-width: 0.1"/>
    <path d="M 94.589771 92.670809 
L 106.081814 101.029693 
L 115.863305 91.932718 
L 104.397737 83.686719 
z
" clip-path="url(#p2188497490)" style="fill: #81be23; fill-opacity: 0.6; stroke: #000000; stroke-opacity: 0.6; stroke-width: 0.1"/>
    <path d="M 170.038046 98.772441 
L 181.98903 107.179315 
L 191.232741 98.024401 
L 179.3147 89.731256 
z
" clip-path="url(#p2188497490)" style="fill: #81be23; fill-opacity: 0.6; stroke: #000000; stroke-opacity: 0.6; stroke-width: 0.1"/>
    <path d="M 73.254254 93.41105 
L 84.638113 101.78652 
L 94.589771 92.670809 
L 83.230659 84.408615 
z
" clip-path="url(#p2188497490)" style="fill: #81be23; fill-opacity: 0.6; stroke: #000000; stroke-opacity: 0.6; stroke-width: 0.1"/>
    <path d="M 148.781507 99.522663 
L 160.625285 107.946277 
L 170.038046 98.772441 
L 158.225502 90.462951 
z
" clip-path="url(#p2188497490)" style="fill: #81be23; fill-opacity: 0.6; stroke: #000000; stroke-opacity: 0.6; stroke-width: 0.1"/>
    <path d="M 51.856483 94.153451 
L 63.131476 102.545569 
L 73.254254 93.41105 
L 62.002265 85.132602 
z
" clip-path="url(#p2188497490)" style="fill: #81be23; fill-opacity: 0.6; stroke: #000000; stroke-opacity: 0.6; stroke-width: 0.1"/>
    <path d="M 127.462854 100.275077 
L 139.198747 108.715493 
L 148.781507 99.522663 
L 137.075126 91.196769 
z
" clip-path="url(#p2188497490)" style="fill: #81be23; fill-opacity: 0.6; stroke: #000000; stroke-opacity: 0.6; stroke-width: 0.1"/>
    <path d="M 106.081814 101.029693 
L 117.709136 109.486973 
L 127.462854 100.275077 
L 115.863305 91.932718 
z
" clip-path="url(#p2188497490)" style="fill: #81be23; fill-opacity: 0.6; stroke: #000000; stroke-opacity: 0.6; stroke-width: 0.1"/>
    <path d="M 181.98903 107.179315 
L 194.080902 115.685297 
L 203.290256 106.414598 
L 191.232741 98.024401 
z
" clip-path="url(#p2188497490)" style="fill: #81be23; fill-opacity: 0.6; stroke: #000000; stroke-opacity: 0.6; stroke-width: 0.1"/>
    <path d="M 84.638113 101.78652 
L 96.156175 110.260728 
L 106.081814 101.029693 
L 94.589771 92.670809 
z
" clip-path="url(#p2188497490)" style="fill: #81be23; fill-opacity: 0.6; stroke: #000000; stroke-opacity: 0.6; stroke-width: 0.1"/>
    <path d="M 160.625285 107.946277 
L 172.608894 116.469343 
L 181.98903 107.179315 
L 170.038046 98.772441 
z
" clip-path="url(#p2188497490)" style="fill: #81be23; fill-opacity: 0.6; stroke: #000000; stroke-opacity: 0.6; stroke-width: 0.1"/>
    <path d="M 63.131476 102.545569 
L 74.539584 111.036767 
L 84.638113 101.78652 
L 73.254254 93.41105 
z
" clip-path="url(#p2188497490)" style="fill: #81be23; fill-opacity: 0.6; stroke: #000000; stroke-opacity: 0.6; stroke-width: 0.1"/>
    <path d="M 139.198747 108.715493 
L 151.073401 117.255706 
L 160.625285 107.946277 
L 148.781507 99.522663 
z
" clip-path="url(#p2188497490)" style="fill: #81be23; fill-opacity: 0.6; stroke: #000000; stroke-opacity: 0.6; stroke-width: 0.1"/>
    <path d="M 41.561623 103.306849 
L 52.859079 111.8151 
L 63.131476 102.545569 
L 51.856483 94.153451 
z
" clip-path="url(#p2188497490)" style="fill: #81be23; fill-opacity: 0.6; stroke: #000000; stroke-opacity: 0.6; stroke-width: 0.1"/>
    <path d="M 117.709136 109.486973 
L 129.47414 118.044398 
L 139.198747 108.715493 
L 127.462854 100.275077 
z
" clip-path="url(#p2188497490)" style="fill: #81be23; fill-opacity: 0.6; stroke: #000000; stroke-opacity: 0.6; stroke-width: 0.1"/>
    <path d="M 194.080902 115.685297 
L 206.316169 124.29215 
L 215.489705 114.90356 
L 203.290256 106.414598 
z
" clip-path="url(#p2188497490)" style="fill: #81be23; fill-opacity: 0.6; stroke: #000000; stroke-opacity: 0.6; stroke-width: 0.1"/>
    <path d="M 96.156175 110.260728 
L 107.810828 118.835429 
L 117.709136 109.486973 
L 106.081814 101.029693 
z
" clip-path="url(#p2188497490)" style="fill: #81be23; fill-opacity: 0.6; stroke: #000000; stroke-opacity: 0.6; stroke-width: 0.1"/>
    <path d="M 172.608894 116.469343 
L 184.734825 125.093631 
L 194.080902 115.685297 
L 181.98903 107.179315 
z
" clip-path="url(#p2188497490)" style="fill: #81be23; fill-opacity: 0.6; stroke: #000000; stroke-opacity: 0.6; stroke-width: 0.1"/>
    <path d="M 74.539584 111.036767 
L 86.083179 119.628809 
L 96.156175 110.260728 
L 84.638113 101.78652 
z
" clip-path="url(#p2188497490)" style="fill: #81be23; fill-opacity: 0.6; stroke: #000000; stroke-opacity: 0.6; stroke-width: 0.1"/>
    <path d="M 151.073401 117.255706 
L 163.089293 125.897497 
L 172.608894 116.469343 
L 160.625285 107.946277 
z
" clip-path="url(#p2188497490)" style="fill: #81be23; fill-opacity: 0.6; stroke: #000000; stroke-opacity: 0.6; stroke-width: 0.1"/>
    <path d="M 52.859079 111.8151 
L 64.290906 120.424548 
L 74.539584 111.036767 
L 63.131476 102.545569 
z
" clip-path="url(#p2188497490)" style="fill: #81be23; fill-opacity: 0.6; stroke: #000000; stroke-opacity: 0.6; stroke-width: 0.1"/>
    <path d="M 129.47414 118.044398 
L 141.379285 126.703756 
L 151.073401 117.255706 
L 139.198747 108.715493 
z
" clip-path="url(#p2188497490)" style="fill: #81be23; fill-opacity: 0.6; stroke: #000000; stroke-opacity: 0.6; stroke-width: 0.1"/>
    <path d="M 31.114376 112.595738 
L 42.433721 121.222658 
L 52.859079 111.8151 
L 41.561623 103.306849 
z
" clip-path="url(#p2188497490)" style="fill: #81be23; fill-opacity: 0.6; stroke: #000000; stroke-opacity: 0.6; stroke-width: 0.1"/>
    <path d="M 107.810828 118.835429 
L 119.604514 127.512421 
L 129.47414 118.044398 
L 117.709136 109.486973 
z
" clip-path="url(#p2188497490)" style="fill: #81be23; fill-opacity: 0.6; stroke: #000000; stroke-opacity: 0.6; stroke-width: 0.1"/>
    <path d="M 184.734825 125.093631 
L 197.005628 133.820957 
L 206.316169 124.29215 
L 194.080902 115.685297 
z
" clip-path="url(#p2188497490)" style="fill: #81be23; fill-opacity: 0.6; stroke: #000000; stroke-opacity: 0.6; stroke-width: 0.1"/>
    <path d="M 86.083179 119.628809 
L 97.764689 128.323502 
L 107.810828 118.835429 
L 96.156175 110.260728 
z
" clip-path="url(#p2188497490)" style="fill: #81be23; fill-opacity: 0.6; stroke: #000000; stroke-opacity: 0.6; stroke-width: 0.1"/>
    <path d="M 163.089293 125.897497 
L 175.248956 134.642688 
L 184.734825 125.093631 
L 172.608894 116.469343 
z
" clip-path="url(#p2188497490)" style="fill: #81be23; fill-opacity: 0.6; stroke: #000000; stroke-opacity: 0.6; stroke-width: 0.1"/>
    <path d="M 64.290906 120.424548 
L 75.859517 129.13701 
L 86.083179 119.628809 
L 74.539584 111.036767 
z
" clip-path="url(#p2188497490)" style="fill: #81be23; fill-opacity: 0.6; stroke: #000000; stroke-opacity: 0.6; stroke-width: 0.1"/>
    <path d="M 141.379285 126.703756 
L 153.427091 135.466881 
L 163.089293 125.897497 
L 151.073401 117.255706 
z
" clip-path="url(#p2188497490)" style="fill: #81be23; fill-opacity: 0.6; stroke: #000000; stroke-opacity: 0.6; stroke-width: 0.1"/>
    <path d="M 42.433721 121.222658 
L 53.888707 129.952955 
L 64.290906 120.424548 
L 52.859079 111.8151 
z
" clip-path="url(#p2188497490)" style="fill: #81be23; fill-opacity: 0.6; stroke: #000000; stroke-opacity: 0.6; stroke-width: 0.1"/>
    <path d="M 119.604514 127.512421 
L 131.539737 136.293547 
L 141.379285 126.703756 
L 129.47414 118.044398 
z
" clip-path="url(#p2188497490)" style="fill: #81be23; fill-opacity: 0.6; stroke: #000000; stroke-opacity: 0.6; stroke-width: 0.1"/>
    <path d="M 20.511333 122.023149 
L 31.851961 130.771349 
L 42.433721 121.222658 
L 31.114376 112.595738 
z
" clip-path="url(#p2188497490)" style="fill: #81be23; fill-opacity: 0.6; stroke: #000000; stroke-opacity: 0.6; stroke-width: 0.1"/>
    <path d="M 97.764689 128.323502 
L 109.5866 137.122699 
L 119.604514 127.512421 
L 107.810828 118.835429 
z
" clip-path="url(#p2188497490)" style="fill: #81be23; fill-opacity: 0.6; stroke: #000000; stroke-opacity: 0.6; stroke-width: 0.1"/>
    <path d="M 175.248956 134.642688 
L 187.554988 143.493146 
L 197.005628 133.820957 
L 184.734825 125.093631 
z
" clip-path="url(#p2188497490)" style="fill: #81be23; fill-opacity: 0.6; stroke: #000000; stroke-opacity: 0.6; stroke-width: 0.1"/>
    <path d="M 75.859517 129.13701 
L 87.567383 137.954346 
L 97.764689 128.323502 
L 86.083179 119.628809 
z
" clip-path="url(#p2188497490)" style="fill: #81be23; fill-opacity: 0.6; stroke: #000000; stroke-opacity: 0.6; stroke-width: 0.1"/>
    <path d="M 153.427091 135.466881 
L 165.620137 144.335648 
L 175.248956 134.642688 
L 163.089293 125.897497 
z
" clip-path="url(#p2188497490)" style="fill: #81be23; fill-opacity: 0.6; stroke: #000000; stroke-opacity: 0.6; stroke-width: 0.1"/>
    <path d="M 53.888707 129.952955 
L 65.481786 138.7885 
L 75.859517 129.13701 
L 64.290906 120.424548 
z
" clip-path="url(#p2188497490)" style="fill: #81be23; fill-opacity: 0.6; stroke: #000000; stroke-opacity: 0.6; stroke-width: 0.1"/>
    <path d="M 131.539737 136.293547 
L 143.61906 145.180693 
L 153.427091 135.466881 
L 141.379285 126.703756 
z
" clip-path="url(#p2188497490)" style="fill: #81be23; fill-opacity: 0.6; stroke: #000000; stroke-opacity: 0.6; stroke-width: 0.1"/>
    <path d="M 31.851961 130.771349 
L 43.32951 139.625172 
L 53.888707 129.952955 
L 42.433721 121.222658 
z
" clip-path="url(#p2188497490)" style="fill: #81be23; fill-opacity: 0.6; stroke: #000000; stroke-opacity: 0.6; stroke-width: 0.1"/>
    <path d="M 109.5866 137.122699 
L 121.551459 146.028293 
L 131.539737 136.293547 
L 119.604514 127.512421 
z
" clip-path="url(#p2188497490)" style="fill: #81be23; fill-opacity: 0.6; stroke: #000000; stroke-opacity: 0.6; stroke-width: 0.1"/>
    <path d="M 87.567383 137.954346 
L 99.417031 146.87846 
L 109.5866 137.122699 
L 97.764689 128.323502 
z
" clip-path="url(#p2188497490)" style="fill: #81be23; fill-opacity: 0.6; stroke: #000000; stroke-opacity: 0.6; stroke-width: 0.1"/>
    <path d="M 165.620137 144.335648 
L 177.961065 153.311979 
L 187.554988 143.493146 
L 175.248956 134.642688 
z
" clip-path="url(#p2188497490)" style="fill: #81be23; fill-opacity: 0.6; stroke: #000000; stroke-opacity: 0.6; stroke-width: 0.1"/>
    <path d="M 65.481786 138.7885 
L 77.215472 147.731205 
L 87.567383 137.954346 
L 75.859517 129.13701 
z
" clip-path="url(#p2188497490)" style="fill: #81be23; fill-opacity: 0.6; stroke: #000000; stroke-opacity: 0.6; stroke-width: 0.1"/>
    <path d="M 143.61906 145.180693 
L 155.845109 154.175789 
L 165.620137 144.335648 
L 153.427091 135.466881 
z
" clip-path="url(#p2188497490)" style="fill: #81be23; fill-opacity: 0.6; stroke: #000000; stroke-opacity: 0.6; stroke-width: 0.1"/>
    <path d="M 43.32951 139.625172 
L 54.946476 148.586541 
L 65.481786 138.7885 
L 53.888707 129.952955 
z
" clip-path="url(#p2188497490)" style="fill: #81be23; fill-opacity: 0.6; stroke: #000000; stroke-opacity: 0.6; stroke-width: 0.1"/>
    <path d="M 121.551459 146.028293 
L 133.661875 155.042227 
L 143.61906 145.180693 
L 131.539737 136.293547 
z
" clip-path="url(#p2188497490)" style="fill: #81be23; fill-opacity: 0.6; stroke: #000000; stroke-opacity: 0.6; stroke-width: 0.1"/>
    <path d="M 99.417031 146.87846 
L 111.411054 155.911304 
L 121.551459 146.028293 
L 109.5866 137.122699 
z
" clip-path="url(#p2188497490)" style="fill: #81be23; fill-opacity: 0.6; stroke: #000000; stroke-opacity: 0.6; stroke-width: 0.1"/>
    <path d="M 77.215472 147.731205 
L 89.092337 156.783034 
L 99.417031 146.87846 
L 87.567383 137.954346 
z
" clip-path="url(#p2188497490)" style="fill: #81be23; fill-opacity: 0.6; stroke: #000000; stroke-opacity: 0.6; stroke-width: 0.1"/>
    <path d="M 155.845109 154.175789 
L 168.220574 163.280815 
L 177.961065 153.311979 
L 165.620137 144.335648 
z
" clip-path="url(#p2188497490)" style="fill: #81be23; fill-opacity: 0.6; stroke: #000000; stroke-opacity: 0.6; stroke-width: 0.1"/>
    <path d="M 54.946476 148.586541 
L 66.705414 157.657427 
L 77.215472 147.731205 
L 65.481786 138.7885 
z
" clip-path="url(#p2188497490)" style="fill: #81be23; fill-opacity: 0.6; stroke: #000000; stroke-opacity: 0.6; stroke-width: 0.1"/>
    <path d="M 133.661875 155.042227 
L 145.92052 164.166489 
L 155.845109 154.175789 
L 143.61906 145.180693 
z
" clip-path="url(#p2188497490)" style="fill: #81be23; fill-opacity: 0.6; stroke: #000000; stroke-opacity: 0.6; stroke-width: 0.1"/>
    <path d="M 111.411054 155.911304 
L 123.552106 165.054878 
L 133.661875 155.042227 
L 121.551459 146.028293 
z
" clip-path="url(#p2188497490)" style="fill: #81be23; fill-opacity: 0.6; stroke: #000000; stroke-opacity: 0.6; stroke-width: 0.1"/>
    <path d="M 89.092337 156.783034 
L 101.115019 165.945995 
L 111.411054 155.911304 
L 99.417031 146.87846 
z
" clip-path="url(#p2188497490)" style="fill: #81be23; fill-opacity: 0.6; stroke: #000000; stroke-opacity: 0.6; stroke-width: 0.1"/>
    <path d="M 66.705414 157.657427 
L 78.608942 166.839852 
L 89.092337 156.783034 
L 77.215472 147.731205 
z
" clip-path="url(#p2188497490)" style="fill: #81be23; fill-opacity: 0.6; stroke: #000000; stroke-opacity: 0.6; stroke-width: 0.1"/>
    <path d="M 145.92052 164.166489 
L 158.330131 173.403118 
L 168.220574 163.280815 
L 155.845109 154.175789 
z
" clip-path="url(#p2188497490)" style="fill: #81be23; fill-opacity: 0.6; stroke: #000000; stroke-opacity: 0.6; stroke-width: 0.1"/>
    <path d="M 123.552106 165.054878 
L 135.842908 174.31123 
L 145.92052 164.166489 
L 133.661875 155.042227 
z
" clip-path="url(#p2188497490)" style="fill: #81be23; fill-opacity: 0.6; stroke: #000000; stroke-opacity: 0.6; stroke-width: 0.1"/>
    <path d="M 101.115019 165.945995 
L 113.28622 175.222148 
L 123.552106 165.054878 
L 111.411054 155.911304 
z
" clip-path="url(#p2188497490)" style="fill: #81be23; fill-opacity: 0.6; stroke: #000000; stroke-opacity: 0.6; stroke-width: 0.1"/>
    <path d="M 78.608942 166.839852 
L 90.659745 176.135884 
L 101.115019 165.945995 
L 89.092337 156.783034 
z
" clip-path="url(#p2188497490)" style="fill: #81be23; fill-opacity: 0.6; stroke: #000000; stroke-opacity: 0.6; stroke-width: 0.1"/>
    <path d="M 135.842908 174.31123 
L 148.286247 183.68246 
L 158.330131 173.403118 
L 145.92052 164.166489 
z
" clip-path="url(#p2188497490)" style="fill: #81be23; fill-opacity: 0.6; stroke: #000000; stroke-opacity: 0.6; stroke-width: 0.1"/>
    <path d="M 113.28622 175.222148 
L 125.608708 184.613603 
L 135.842908 174.31123 
L 123.552106 165.054878 
z
" clip-path="url(#p2188497490)" style="fill: #81be23; fill-opacity: 0.6; stroke: #000000; stroke-opacity: 0.6; stroke-width: 0.1"/>
    <path d="M 90.659745 176.135884 
L 102.860571 185.547645 
L 113.28622 175.222148 
L 101.115019 165.945995 
z
" clip-path="url(#p2188497490)" style="fill: #81be23; fill-opacity: 0.6; stroke: #000000; stroke-opacity: 0.6; stroke-width: 0.1"/>
    <path d="M 125.608708 184.613603 
L 138.085322 194.122524 
L 148.286247 183.68246 
L 135.842908 174.31123 
z
" clip-path="url(#p2188497490)" style="fill: #81be23; fill-opacity: 0.6; stroke: #000000; stroke-opacity: 0.6; stroke-width: 0.1"/>
    <path d="M 102.860571 185.547645 
L 115.214241 195.07731 
L 125.608708 184.613603 
L 113.28622 175.222148 
z
" clip-path="url(#p2188497490)" style="fill: #81be23; fill-opacity: 0.6; stroke: #000000; stroke-opacity: 0.6; stroke-width: 0.1"/>
    <path d="M 115.214241 195.07731 
L 127.723645 204.727109 
L 138.085322 194.122524 
L 125.608708 184.613603 
z
" clip-path="url(#p2188497490)" style="fill: #81be23; fill-opacity: 0.6; stroke: #000000; stroke-opacity: 0.6; stroke-width: 0.1"/>
   </g>
   <g id="text_26">
    <!-- 2 Planos: Interseção Reta -->
    <g transform="translate(52.178692 14.817187) scale(0.1 -0.1)">
     <defs>
      <path id="DejaVuSans-20" transform="scale(0.015625)"/>
      <path id="DejaVuSans-50" d="M 1259 4147 
L 1259 2394 
L 2053 2394 
Q 2494 2394 2734 2622 
Q 2975 2850 2975 3272 
Q 2975 3691 2734 3919 
Q 2494 4147 2053 4147 
L 1259 4147 
z
M 628 4666 
L 2053 4666 
Q 2838 4666 3239 4311 
Q 3641 3956 3641 3272 
Q 3641 2581 3239 2228 
Q 2838 1875 2053 1875 
L 1259 1875 
L 1259 0 
L 628 0 
L 628 4666 
z
" transform="scale(0.015625)"/>
      <path id="DejaVuSans-6c" d="M 603 4863 
L 1178 4863 
L 1178 0 
L 603 0 
L 603 4863 
z
" transform="scale(0.015625)"/>
      <path id="DejaVuSans-61" d="M 2194 1759 
Q 1497 1759 1228 1600 
Q 959 1441 959 1056 
Q 959 750 1161 570 
Q 1363 391 1709 391 
Q 2188 391 2477 730 
Q 2766 1069 2766 1631 
L 2766 1759 
L 2194 1759 
z
M 3341 1997 
L 3341 0 
L 2766 0 
L 2766 531 
Q 2569 213 2275 61 
Q 1981 -91 1556 -91 
Q 1019 -91 701 211 
Q 384 513 384 1019 
Q 384 1609 779 1909 
Q 1175 2209 1959 2209 
L 2766 2209 
L 2766 2266 
Q 2766 2663 2505 2880 
Q 2244 3097 1772 3097 
Q 1472 3097 1187 3025 
Q 903 2953 641 2809 
L 641 3341 
Q 956 3463 1253 3523 
Q 1550 3584 1831 3584 
Q 2591 3584 2966 3190 
Q 3341 2797 3341 1997 
z
" transform="scale(0.015625)"/>
      <path id="DejaVuSans-6e" d="M 3513 2113 
L 3513 0 
L 2938 0 
L 2938 2094 
Q 2938 2591 2744 2837 
Q 2550 3084 2163 3084 
Q 1697 3084 1428 2787 
Q 1159 2491 1159 1978 
L 1159 0 
L 581 0 
L 581 3500 
L 1159 3500 
L 1159 2956 
Q 1366 3272 1645 3428 
Q 1925 3584 2291 3584 
Q 2894 3584 3203 3211 
Q 3513 2838 3513 2113 
z
" transform="scale(0.015625)"/>
      <path id="DejaVuSans-6f" d="M 1959 3097 
Q 1497 3097 1228 2736 
Q 959 2375 959 1747 
Q 959 1119 1226 758 
Q 1494 397 1959 397 
Q 2419 397 2687 759 
Q 2956 1122 2956 1747 
Q 2956 2369 2687 2733 
Q 2419 3097 1959 3097 
z
M 1959 3584 
Q 2709 3584 3137 3096 
Q 3566 2609 3566 1747 
Q 3566 888 3137 398 
Q 2709 -91 1959 -91 
Q 1206 -91 779 398 
Q 353 888 353 1747 
Q 353 2609 779 3096 
Q 1206 3584 1959 3584 
z
" transform="scale(0.015625)"/>
      <path id="DejaVuSans-73" d="M 2834 3397 
L 2834 2853 
Q 2591 2978 2328 3040 
Q 2066 3103 1784 3103 
Q 1356 3103 1142 2972 
Q 928 2841 928 2578 
Q 928 2378 1081 2264 
Q 1234 2150 1697 2047 
L 1894 2003 
Q 2506 1872 2764 1633 
Q 3022 1394 3022 966 
Q 3022 478 2636 193 
Q 2250 -91 1575 -91 
Q 1294 -91 989 -36 
Q 684 19 347 128 
L 347 722 
Q 666 556 975 473 
Q 1284 391 1588 391 
Q 1994 391 2212 530 
Q 2431 669 2431 922 
Q 2431 1156 2273 1281 
Q 2116 1406 1581 1522 
L 1381 1569 
Q 847 1681 609 1914 
Q 372 2147 372 2553 
Q 372 3047 722 3315 
Q 1072 3584 1716 3584 
Q 2034 3584 2315 3537 
Q 2597 3491 2834 3397 
z
" transform="scale(0.015625)"/>
      <path id="DejaVuSans-3a" d="M 750 794 
L 1409 794 
L 1409 0 
L 750 0 
L 750 794 
z
M 750 3309 
L 1409 3309 
L 1409 2516 
L 750 2516 
L 750 3309 
z
" transform="scale(0.015625)"/>
      <path id="DejaVuSans-49" d="M 628 4666 
L 1259 4666 
L 1259 0 
L 628 0 
L 628 4666 
z
" transform="scale(0.015625)"/>
      <path id="DejaVuSans-74" d="M 1172 4494 
L 1172 3500 
L 2356 3500 
L 2356 3053 
L 1172 3053 
L 1172 1153 
Q 1172 725 1289 603 
Q 1406 481 1766 481 
L 2356 481 
L 2356 0 
L 1766 0 
Q 1100 0 847 248 
Q 594 497 594 1153 
L 594 3053 
L 172 3053 
L 172 3500 
L 594 3500 
L 594 4494 
L 1172 4494 
z
" transform="scale(0.015625)"/>
      <path id="DejaVuSans-65" d="M 3597 1894 
L 3597 1613 
L 953 1613 
Q 991 1019 1311 708 
Q 1631 397 2203 397 
Q 2534 397 2845 478 
Q 3156 559 3463 722 
L 3463 178 
Q 3153 47 2828 -22 
Q 2503 -91 2169 -91 
Q 1331 -91 842 396 
Q 353 884 353 1716 
Q 353 2575 817 3079 
Q 1281 3584 2069 3584 
Q 2775 3584 3186 3129 
Q 3597 2675 3597 1894 
z
M 3022 2063 
Q 3016 2534 2758 2815 
Q 2500 3097 2075 3097 
Q 1594 3097 1305 2825 
Q 1016 2553 972 2059 
L 3022 2063 
z
" transform="scale(0.015625)"/>
      <path id="DejaVuSans-72" d="M 2631 2963 
Q 2534 3019 2420 3045 
Q 2306 3072 2169 3072 
Q 1681 3072 1420 2755 
Q 1159 2438 1159 1844 
L 1159 0 
L 581 0 
L 581 3500 
L 1159 3500 
L 1159 2956 
Q 1341 3275 1631 3429 
Q 1922 3584 2338 3584 
Q 2397 3584 2469 3576 
Q 2541 3569 2628 3553 
L 2631 2963 
z
" transform="scale(0.015625)"/>
      <path id="DejaVuSans-e7" d="M 3122 3366 
L 3122 2828 
Q 2878 2963 2633 3030 
Q 2388 3097 2138 3097 
Q 1578 3097 1268 2742 
Q 959 2388 959 1747 
Q 959 1106 1268 751 
Q 1578 397 2138 397 
Q 2388 397 2633 464 
Q 2878 531 3122 666 
L 3122 134 
Q 2881 22 2623 -34 
Q 2366 -91 2075 -91 
Q 1284 -91 818 406 
Q 353 903 353 1747 
Q 353 2603 823 3093 
Q 1294 3584 2113 3584 
Q 2378 3584 2631 3529 
Q 2884 3475 3122 3366 
z
M 2309 0 
Q 2481 -194 2565 -358 
Q 2650 -522 2650 -672 
Q 2650 -950 2462 -1092 
Q 2275 -1234 1906 -1234 
Q 1763 -1234 1627 -1215 
Q 1491 -1197 1356 -1159 
L 1356 -750 
Q 1463 -803 1578 -826 
Q 1694 -850 1841 -850 
Q 2025 -850 2119 -775 
Q 2213 -700 2213 -556 
Q 2213 -463 2145 -327 
Q 2078 -191 1938 0 
L 2309 0 
z
" transform="scale(0.015625)"/>
      <path id="DejaVuSans-e3" d="M 2194 1759 
Q 1497 1759 1228 1600 
Q 959 1441 959 1056 
Q 959 750 1161 570 
Q 1363 391 1709 391 
Q 2188 391 2477 730 
Q 2766 1069 2766 1631 
L 2766 1759 
L 2194 1759 
z
M 3341 1997 
L 3341 0 
L 2766 0 
L 2766 531 
Q 2569 213 2275 61 
Q 1981 -91 1556 -91 
Q 1019 -91 701 211 
Q 384 513 384 1019 
Q 384 1609 779 1909 
Q 1175 2209 1959 2209 
L 2766 2209 
L 2766 2266 
Q 2766 2663 2505 2880 
Q 2244 3097 1772 3097 
Q 1472 3097 1187 3025 
Q 903 2953 641 2809 
L 641 3341 
Q 956 3463 1253 3523 
Q 1550 3584 1831 3584 
Q 2591 3584 2966 3190 
Q 3341 2797 3341 1997 
z
M 1844 4281 
L 1666 4453 
Q 1597 4516 1545 4545 
Q 1494 4575 1453 4575 
Q 1334 4575 1278 4461 
Q 1222 4347 1216 4091 
L 825 4091 
Q 831 4513 990 4742 
Q 1150 4972 1434 4972 
Q 1553 4972 1653 4928 
Q 1753 4884 1869 4781 
L 2047 4609 
Q 2116 4547 2167 4517 
Q 2219 4488 2259 4488 
Q 2378 4488 2434 4602 
Q 2491 4716 2497 4972 
L 2888 4972 
Q 2881 4550 2722 4320 
Q 2563 4091 2278 4091 
Q 2159 4091 2059 4134 
Q 1959 4178 1844 4281 
z
" transform="scale(0.015625)"/>
      <path id="DejaVuSans-52" d="M 2841 2188 
Q 3044 2119 3236 1894 
Q 3428 1669 3622 1275 
L 4263 0 
L 3584 0 
L 2988 1197 
Q 2756 1666 2539 1819 
Q 2322 1972 1947 1972 
L 1259 1972 
L 1259 0 
L 628 0 
L 628 4666 
L 2053 4666 
Q 2853 4666 3247 4331 
Q 3641 3997 3641 3322 
Q 3641 2881 3436 2590 
Q 3231 2300 2841 2188 
z
M 1259 4147 
L 1259 2491 
L 2053 2491 
Q 2509 2491 2742 2702 
Q 2975 2913 2975 3322 
Q 2975 3731 2742 3939 
Q 2509 4147 2053 4147 
L 1259 4147 
z
" transform="scale(0.015625)"/>
     </defs>
     <use xlink:href="#DejaVuSans-32"/>
     <use xlink:href="#DejaVuSans-20" transform="translate(63.623047 0)"/>
     <use xlink:href="#DejaVuSans-50" transform="translate(95.410156 0)"/>
     <use xlink:href="#DejaVuSans-6c" transform="translate(155.712891 0)"/>
     <use xlink:href="#DejaVuSans-61" transform="translate(183.496094 0)"/>
     <use xlink:href="#DejaVuSans-6e" transform="translate(244.775391 0)"/>
     <use xlink:href="#DejaVuSans-6f" transform="translate(308.154297 0)"/>
     <use xlink:href="#DejaVuSans-73" transform="translate(369.335938 0)"/>
     <use xlink:href="#DejaVuSans-3a" transform="translate(421.435547 0)"/>
     <use xlink:href="#DejaVuSans-20" transform="translate(455.126953 0)"/>
     <use xlink:href="#DejaVuSans-49" transform="translate(486.914062 0)"/>
     <use xlink:href="#DejaVuSans-6e" transform="translate(516.40625 0)"/>
     <use xlink:href="#DejaVuSans-74" transform="translate(579.785156 0)"/>
     <use xlink:href="#DejaVuSans-65" transform="translate(618.994141 0)"/>
     <use xlink:href="#DejaVuSans-72" transform="translate(680.517578 0)"/>
     <use xlink:href="#DejaVuSans-73" transform="translate(721.630859 0)"/>
     <use xlink:href="#DejaVuSans-65" transform="translate(773.730469 0)"/>
     <use xlink:href="#DejaVuSans-e7" transform="translate(835.253906 0)"/>
     <use xlink:href="#DejaVuSans-e3" transform="translate(890.234375 0)"/>
     <use xlink:href="#DejaVuSans-6f" transform="translate(951.513672 0)"/>
     <use xlink:href="#DejaVuSans-20" transform="translate(1012.695312 0)"/>
     <use xlink:href="#DejaVuSans-52" transform="translate(1044.482422 0)"/>
     <use xlink:href="#DejaVuSans-65" transform="translate(1109.464844 0)"/>
     <use xlink:href="#DejaVuSans-74" transform="translate(1170.988281 0)"/>
     <use xlink:href="#DejaVuSans-61" transform="translate(1210.197266 0)"/>
    </g>
   </g>
   <g id="Poly3DCollection_2">
    <path d="M 101.50964 101.865247 
L 112.419959 101.372845 
L 121.682431 92.715473 
L 110.765227 93.28077 
z
" clip-path="url(#p2188497490)" style="fill: #efc900; fill-opacity: 0.6; stroke: #000000; stroke-opacity: 0.6; stroke-width: 0.1"/>
    <path d="M 92.125534 110.568925 
L 103.027711 110.151514 
L 112.419959 101.372845 
L 101.50964 101.865247 
z
" clip-path="url(#p2188497490)" style="fill: #efc900; fill-opacity: 0.6; stroke: #000000; stroke-opacity: 0.6; stroke-width: 0.1"/>
    <path d="M 112.419959 101.372845 
L 123.527326 100.87155 
L 132.795434 92.140038 
L 121.682431 92.715473 
z
" clip-path="url(#p2188497490)" style="fill: #efc900; fill-opacity: 0.6; stroke: #000000; stroke-opacity: 0.6; stroke-width: 0.1"/>
    <path d="M 82.610211 119.394305 
L 93.502943 119.054046 
L 103.027711 110.151514 
L 92.125534 110.568925 
z
" clip-path="url(#p2188497490)" style="fill: #efc900; fill-opacity: 0.6; stroke: #000000; stroke-opacity: 0.6; stroke-width: 0.1"/>
    <path d="M 103.027711 110.151514 
L 114.128183 109.72651 
L 123.527326 100.87155 
L 112.419959 101.372845 
z
" clip-path="url(#p2188497490)" style="fill: #efc900; fill-opacity: 0.6; stroke: #000000; stroke-opacity: 0.6; stroke-width: 0.1"/>
    <path d="M 123.527326 100.87155 
L 134.837128 100.361119 
L 144.109551 91.55419 
L 132.795434 92.140038 
z
" clip-path="url(#p2188497490)" style="fill: #efc900; fill-opacity: 0.6; stroke: #000000; stroke-opacity: 0.6; stroke-width: 0.1"/>
    <path d="M 72.960902 128.343956 
L 83.842828 128.083083 
L 93.502943 119.054046 
L 82.610211 119.394305 
z
" clip-path="url(#p2188497490)" style="fill: #efc900; fill-opacity: 0.6; stroke: #000000; stroke-opacity: 0.6; stroke-width: 0.1"/>
    <path d="M 93.502943 119.054046 
L 104.595206 118.707555 
L 114.128183 109.72651 
L 103.027711 110.151514 
z
" clip-path="url(#p2188497490)" style="fill: #efc900; fill-opacity: 0.6; stroke: #000000; stroke-opacity: 0.6; stroke-width: 0.1"/>
    <path d="M 114.128183 109.72651 
L 125.432407 109.293706 
L 134.837128 100.361119 
L 123.527326 100.87155 
z
" clip-path="url(#p2188497490)" style="fill: #efc900; fill-opacity: 0.6; stroke: #000000; stroke-opacity: 0.6; stroke-width: 0.1"/>
    <path d="M 134.837128 100.361119 
L 146.354951 99.8413 
L 155.630291 90.957642 
L 144.109551 91.55419 
z
" clip-path="url(#p2188497490)" style="fill: #efc900; fill-opacity: 0.6; stroke: #000000; stroke-opacity: 0.6; stroke-width: 0.1"/>
    <path d="M 63.174756 137.420523 
L 74.044462 137.241339 
L 83.842828 128.083083 
L 72.960902 128.343956 
z
" clip-path="url(#p2188497490)" style="fill: #efc900; fill-opacity: 0.6; stroke: #000000; stroke-opacity: 0.6; stroke-width: 0.1"/>
    <path d="M 83.842828 128.083083 
L 94.925517 127.817397 
L 104.595206 118.707555 
L 93.502943 119.054046 
z
" clip-path="url(#p2188497490)" style="fill: #efc900; fill-opacity: 0.6; stroke: #000000; stroke-opacity: 0.6; stroke-width: 0.1"/>
    <path d="M 104.595206 118.707555 
L 115.892535 118.354658 
L 125.432407 109.293706 
L 114.128183 109.72651 
z
" clip-path="url(#p2188497490)" style="fill: #efc900; fill-opacity: 0.6; stroke: #000000; stroke-opacity: 0.6; stroke-width: 0.1"/>
    <path d="M 125.432407 109.293706 
L 136.946046 108.852883 
L 146.354951 99.8413 
L 134.837128 100.361119 
z
" clip-path="url(#p2188497490)" style="fill: #efc900; fill-opacity: 0.6; stroke: #000000; stroke-opacity: 0.6; stroke-width: 0.1"/>
    <path d="M 53.248841 146.626724 
L 64.104855 146.53161 
L 74.044462 137.241339 
L 63.174756 137.420523 
z
" clip-path="url(#p2188497490)" style="fill: #efc900; fill-opacity: 0.6; stroke: #000000; stroke-opacity: 0.6; stroke-width: 0.1"/>
    <path d="M 146.354951 99.8413 
L 158.086587 99.311831 
L 167.363365 90.3501 
L 155.630291 90.957642 
z
" clip-path="url(#p2188497490)" style="fill: #efc900; fill-opacity: 0.6; stroke: #000000; stroke-opacity: 0.6; stroke-width: 0.1"/>
    <path d="M 74.044462 137.241339 
L 85.116154 137.058826 
L 94.925517 127.817397 
L 83.842828 128.083083 
z
" clip-path="url(#p2188497490)" style="fill: #efc900; fill-opacity: 0.6; stroke: #000000; stroke-opacity: 0.6; stroke-width: 0.1"/>
    <path d="M 94.925517 127.817397 
L 106.214578 127.546763 
L 115.892535 118.354658 
L 104.595206 118.707555 
z
" clip-path="url(#p2188497490)" style="fill: #efc900; fill-opacity: 0.6; stroke: #000000; stroke-opacity: 0.6; stroke-width: 0.1"/>
    <path d="M 115.892535 118.354658 
L 127.400668 117.995176 
L 136.946046 108.852883 
L 125.432407 109.293706 
z
" clip-path="url(#p2188497490)" style="fill: #efc900; fill-opacity: 0.6; stroke: #000000; stroke-opacity: 0.6; stroke-width: 0.1"/>
    <path d="M 43.180141 155.965357 
L 54.020931 155.956769 
L 64.104855 146.53161 
L 53.248841 146.626724 
z
" clip-path="url(#p2188497490)" style="fill: #efc900; fill-opacity: 0.6; stroke: #000000; stroke-opacity: 0.6; stroke-width: 0.1"/>
    <path d="M 136.946046 108.852883 
L 148.674974 108.403818 
L 158.086587 99.311831 
L 146.354951 99.8413 
z
" clip-path="url(#p2188497490)" style="fill: #efc900; fill-opacity: 0.6; stroke: #000000; stroke-opacity: 0.6; stroke-width: 0.1"/>
    <path d="M 64.104855 146.53161 
L 75.164068 146.434715 
L 85.116154 137.058826 
L 74.044462 137.241339 
z
" clip-path="url(#p2188497490)" style="fill: #efc900; fill-opacity: 0.6; stroke: #000000; stroke-opacity: 0.6; stroke-width: 0.1"/>
    <path d="M 158.086587 99.311831 
L 170.038046 98.772441 
L 179.3147 89.731256 
L 167.363365 90.3501 
z
" clip-path="url(#p2188497490)" style="fill: #efc900; fill-opacity: 0.6; stroke: #000000; stroke-opacity: 0.6; stroke-width: 0.1"/>
    <path d="M 85.116154 137.058826 
L 96.395516 136.872889 
L 106.214578 127.546763 
L 94.925517 127.817397 
z
" clip-path="url(#p2188497490)" style="fill: #efc900; fill-opacity: 0.6; stroke: #000000; stroke-opacity: 0.6; stroke-width: 0.1"/>
    <path d="M 106.214578 127.546763 
L 117.715828 127.271043 
L 127.400668 117.995176 
L 115.892535 118.354658 
z
" clip-path="url(#p2188497490)" style="fill: #efc900; fill-opacity: 0.6; stroke: #000000; stroke-opacity: 0.6; stroke-width: 0.1"/>
    <path d="M 32.965553 165.439299 
L 43.789524 165.519776 
L 54.020931 155.956769 
L 43.180141 155.965357 
z
" clip-path="url(#p2188497490)" style="fill: #efc900; fill-opacity: 0.6; stroke: #000000; stroke-opacity: 0.6; stroke-width: 0.1"/>
    <path d="M 127.400668 117.995176 
L 139.125563 117.628923 
L 148.674974 108.403818 
L 136.946046 108.852883 
z
" clip-path="url(#p2188497490)" style="fill: #efc900; fill-opacity: 0.6; stroke: #000000; stroke-opacity: 0.6; stroke-width: 0.1"/>
    <path d="M 54.020931 155.956769 
L 65.066122 155.948019 
L 75.164068 146.434715 
L 64.104855 146.53161 
z
" clip-path="url(#p2188497490)" style="fill: #efc900; fill-opacity: 0.6; stroke: #000000; stroke-opacity: 0.6; stroke-width: 0.1"/>
    <path d="M 148.674974 108.403818 
L 160.625285 107.946277 
L 170.038046 98.772441 
L 158.086587 99.311831 
z
" clip-path="url(#p2188497490)" style="fill: #efc900; fill-opacity: 0.6; stroke: #000000; stroke-opacity: 0.6; stroke-width: 0.1"/>
    <path d="M 75.164068 146.434715 
L 86.432241 146.335989 
L 96.395516 136.872889 
L 85.116154 137.058826 
z
" clip-path="url(#p2188497490)" style="fill: #efc900; fill-opacity: 0.6; stroke: #000000; stroke-opacity: 0.6; stroke-width: 0.1"/>
    <path d="M 170.038046 98.772441 
L 182.215563 98.222848 
L 191.490441 89.100792 
L 179.3147 89.731256 
z
" clip-path="url(#p2188497490)" style="fill: #efc900; fill-opacity: 0.6; stroke: #000000; stroke-opacity: 0.6; stroke-width: 0.1"/>
    <path d="M 96.395516 136.872889 
L 107.888445 136.683432 
L 117.715828 127.271043 
L 106.214578 127.546763 
z
" clip-path="url(#p2188497490)" style="fill: #efc900; fill-opacity: 0.6; stroke: #000000; stroke-opacity: 0.6; stroke-width: 0.1"/>
    <path d="M 22.601884 175.051514 
L 33.407375 175.223678 
L 43.789524 165.519776 
L 32.965553 165.439299 
z
" clip-path="url(#p2188497490)" style="fill: #efc900; fill-opacity: 0.6; stroke: #000000; stroke-opacity: 0.6; stroke-width: 0.1"/>
    <path d="M 117.715828 127.271043 
L 129.435307 126.99009 
L 139.125563 117.628923 
L 127.400668 117.995176 
z
" clip-path="url(#p2188497490)" style="fill: #efc900; fill-opacity: 0.6; stroke: #000000; stroke-opacity: 0.6; stroke-width: 0.1"/>
    <path d="M 43.789524 165.519776 
L 54.819086 165.601782 
L 65.066122 155.948019 
L 54.020931 155.956769 
z
" clip-path="url(#p2188497490)" style="fill: #efc900; fill-opacity: 0.6; stroke: #000000; stroke-opacity: 0.6; stroke-width: 0.1"/>
    <path d="M 139.125563 117.628923 
L 151.073401 117.255706 
L 160.625285 107.946277 
L 148.674974 108.403818 
z
" clip-path="url(#p2188497490)" style="fill: #efc900; fill-opacity: 0.6; stroke: #000000; stroke-opacity: 0.6; stroke-width: 0.1"/>
    <path d="M 65.066122 155.948019 
L 76.321551 155.939102 
L 86.432241 146.335989 
L 75.164068 146.434715 
z
" clip-path="url(#p2188497490)" style="fill: #efc900; fill-opacity: 0.6; stroke: #000000; stroke-opacity: 0.6; stroke-width: 0.1"/>
    <path d="M 160.625285 107.946277 
L 172.803309 107.480017 
L 182.215563 98.222848 
L 170.038046 98.772441 
z
" clip-path="url(#p2188497490)" style="fill: #efc900; fill-opacity: 0.6; stroke: #000000; stroke-opacity: 0.6; stroke-width: 0.1"/>
    <path d="M 86.432241 146.335989 
L 97.91535 146.23538 
L 107.888445 136.683432 
L 96.395516 136.872889 
z
" clip-path="url(#p2188497490)" style="fill: #efc900; fill-opacity: 0.6; stroke: #000000; stroke-opacity: 0.6; stroke-width: 0.1"/>
    <path d="M 182.215563 98.222848 
L 194.625616 97.662761 
L 203.896971 88.458378 
L 191.490441 89.100792 
z
" clip-path="url(#p2188497490)" style="fill: #efc900; fill-opacity: 0.6; stroke: #000000; stroke-opacity: 0.6; stroke-width: 0.1"/>
    <path d="M 107.888445 136.683432 
L 119.601065 136.490353 
L 129.435307 126.99009 
L 117.715828 127.271043 
z
" clip-path="url(#p2188497490)" style="fill: #efc900; fill-opacity: 0.6; stroke: #000000; stroke-opacity: 0.6; stroke-width: 0.1"/>
    <path d="M 33.407375 175.223678 
L 44.419632 175.399137 
L 54.819086 165.601782 
L 43.789524 165.519776 
z
" clip-path="url(#p2188497490)" style="fill: #efc900; fill-opacity: 0.6; stroke: #000000; stroke-opacity: 0.6; stroke-width: 0.1"/>
    <path d="M 129.435307 126.99009 
L 141.379285 126.703756 
L 151.073401 117.255706 
L 139.125563 117.628923 
z
" clip-path="url(#p2188497490)" style="fill: #efc900; fill-opacity: 0.6; stroke: #000000; stroke-opacity: 0.6; stroke-width: 0.1"/>
    <path d="M 54.819086 165.601782 
L 66.060152 165.68536 
L 76.321551 155.939102 
L 65.066122 155.948019 
z
" clip-path="url(#p2188497490)" style="fill: #efc900; fill-opacity: 0.6; stroke: #000000; stroke-opacity: 0.6; stroke-width: 0.1"/>
    <path d="M 151.073401 117.255706 
L 163.250602 116.875324 
L 172.803309 107.480017 
L 160.625285 107.946277 
z
" clip-path="url(#p2188497490)" style="fill: #efc900; fill-opacity: 0.6; stroke: #000000; stroke-opacity: 0.6; stroke-width: 0.1"/>
    <path d="M 76.321551 155.939102 
L 87.793278 155.930014 
L 97.91535 146.23538 
L 86.432241 146.335989 
z
" clip-path="url(#p2188497490)" style="fill: #efc900; fill-opacity: 0.6; stroke: #000000; stroke-opacity: 0.6; stroke-width: 0.1"/>
    <path d="M 172.803309 107.480017 
L 185.215615 107.004788 
L 194.625616 97.662761 
L 182.215563 98.222848 
z
" clip-path="url(#p2188497490)" style="fill: #efc900; fill-opacity: 0.6; stroke: #000000; stroke-opacity: 0.6; stroke-width: 0.1"/>
    <path d="M 97.91535 146.23538 
L 109.619606 146.132833 
L 119.601065 136.490353 
L 107.888445 136.683432 
z
" clip-path="url(#p2188497490)" style="fill: #efc900; fill-opacity: 0.6; stroke: #000000; stroke-opacity: 0.6; stroke-width: 0.1"/>
    <path d="M 194.625616 97.662761 
L 207.274927 97.091875 
L 216.540912 87.803671 
L 203.896971 88.458378 
z
" clip-path="url(#p2188497490)" style="fill: #efc900; fill-opacity: 0.6; stroke: #000000; stroke-opacity: 0.6; stroke-width: 0.1"/>
    <path d="M 119.601065 136.490353 
L 131.539737 136.293547 
L 141.379285 126.703756 
L 129.435307 126.99009 
z
" clip-path="url(#p2188497490)" style="fill: #efc900; fill-opacity: 0.6; stroke: #000000; stroke-opacity: 0.6; stroke-width: 0.1"/>
    <path d="M 44.419632 175.399137 
L 55.644648 175.577986 
L 66.060152 165.68536 
L 54.819086 165.601782 
z
" clip-path="url(#p2188497490)" style="fill: #efc900; fill-opacity: 0.6; stroke: #000000; stroke-opacity: 0.6; stroke-width: 0.1"/>
    <path d="M 141.379285 126.703756 
L 153.554276 126.411884 
L 163.250602 116.875324 
L 151.073401 117.255706 
z
" clip-path="url(#p2188497490)" style="fill: #efc900; fill-opacity: 0.6; stroke: #000000; stroke-opacity: 0.6; stroke-width: 0.1"/>
    <path d="M 66.060152 165.68536 
L 77.518866 165.770556 
L 87.793278 155.930014 
L 76.321551 155.939102 
z
" clip-path="url(#p2188497490)" style="fill: #efc900; fill-opacity: 0.6; stroke: #000000; stroke-opacity: 0.6; stroke-width: 0.1"/>
    <path d="M 163.250602 116.875324 
L 175.663835 116.48757 
L 185.215615 107.004788 
L 172.803309 107.480017 
z
" clip-path="url(#p2188497490)" style="fill: #efc900; fill-opacity: 0.6; stroke: #000000; stroke-opacity: 0.6; stroke-width: 0.1"/>
    <path d="M 87.793278 155.930014 
L 99.487599 155.92075 
L 109.619606 146.132833 
L 97.91535 146.23538 
z
" clip-path="url(#p2188497490)" style="fill: #efc900; fill-opacity: 0.6; stroke: #000000; stroke-opacity: 0.6; stroke-width: 0.1"/>
    <path d="M 185.215615 107.004788 
L 197.86903 106.520327 
L 207.274927 97.091875 
L 194.625616 97.662761 
z
" clip-path="url(#p2188497490)" style="fill: #efc900; fill-opacity: 0.6; stroke: #000000; stroke-opacity: 0.6; stroke-width: 0.1"/>
    <path d="M 109.619606 146.132833 
L 121.551459 146.028293 
L 131.539737 136.293547 
L 119.601065 136.490353 
z
" clip-path="url(#p2188497490)" style="fill: #efc900; fill-opacity: 0.6; stroke: #000000; stroke-opacity: 0.6; stroke-width: 0.1"/>
    <path d="M 131.539737 136.293547 
L 143.711067 136.092907 
L 153.554276 126.411884 
L 141.379285 126.703756 
z
" clip-path="url(#p2188497490)" style="fill: #efc900; fill-opacity: 0.6; stroke: #000000; stroke-opacity: 0.6; stroke-width: 0.1"/>
    <path d="M 55.644648 175.577986 
L 67.088648 175.760324 
L 77.518866 165.770556 
L 66.060152 165.68536 
z
" clip-path="url(#p2188497490)" style="fill: #efc900; fill-opacity: 0.6; stroke: #000000; stroke-opacity: 0.6; stroke-width: 0.1"/>
    <path d="M 153.554276 126.411884 
L 165.967047 126.114312 
L 175.663835 116.48757 
L 163.250602 116.875324 
z
" clip-path="url(#p2188497490)" style="fill: #efc900; fill-opacity: 0.6; stroke: #000000; stroke-opacity: 0.6; stroke-width: 0.1"/>
    <path d="M 77.518866 165.770556 
L 89.20161 165.857418 
L 99.487599 155.92075 
L 87.793278 155.930014 
z
" clip-path="url(#p2188497490)" style="fill: #efc900; fill-opacity: 0.6; stroke: #000000; stroke-opacity: 0.6; stroke-width: 0.1"/>
    <path d="M 175.663835 116.48757 
L 188.320029 116.092226 
L 197.86903 106.520327 
L 185.215615 107.004788 
z
" clip-path="url(#p2188497490)" style="fill: #efc900; fill-opacity: 0.6; stroke: #000000; stroke-opacity: 0.6; stroke-width: 0.1"/>
    <path d="M 99.487599 155.92075 
L 111.411054 155.911304 
L 121.551459 146.028293 
L 109.619606 146.132833 
z
" clip-path="url(#p2188497490)" style="fill: #efc900; fill-opacity: 0.6; stroke: #000000; stroke-opacity: 0.6; stroke-width: 0.1"/>
    <path d="M 121.551459 146.028293 
L 133.717613 145.921699 
L 143.711067 136.092907 
L 131.539737 136.293547 
z
" clip-path="url(#p2188497490)" style="fill: #efc900; fill-opacity: 0.6; stroke: #000000; stroke-opacity: 0.6; stroke-width: 0.1"/>
    <path d="M 143.711067 136.092907 
L 156.121924 135.888318 
L 165.967047 126.114312 
L 153.554276 126.411884 
z
" clip-path="url(#p2188497490)" style="fill: #efc900; fill-opacity: 0.6; stroke: #000000; stroke-opacity: 0.6; stroke-width: 0.1"/>
    <path d="M 67.088648 175.760324 
L 78.758104 175.946254 
L 89.20161 165.857418 
L 77.518866 165.770556 
z
" clip-path="url(#p2188497490)" style="fill: #efc900; fill-opacity: 0.6; stroke: #000000; stroke-opacity: 0.6; stroke-width: 0.1"/>
    <path d="M 165.967047 126.114312 
L 178.624633 125.81087 
L 188.320029 116.092226 
L 175.663835 116.48757 
z
" clip-path="url(#p2188497490)" style="fill: #efc900; fill-opacity: 0.6; stroke: #000000; stroke-opacity: 0.6; stroke-width: 0.1"/>
    <path d="M 89.20161 165.857418 
L 101.115019 165.945995 
L 111.411054 155.911304 
L 99.487599 155.92075 
z
" clip-path="url(#p2188497490)" style="fill: #efc900; fill-opacity: 0.6; stroke: #000000; stroke-opacity: 0.6; stroke-width: 0.1"/>
    <path d="M 111.411054 155.911304 
L 123.570446 155.901672 
L 133.717613 145.921699 
L 121.551459 146.028293 
z
" clip-path="url(#p2188497490)" style="fill: #efc900; fill-opacity: 0.6; stroke: #000000; stroke-opacity: 0.6; stroke-width: 0.1"/>
    <path d="M 133.717613 145.921699 
L 146.125037 145.812992 
L 156.121924 135.888318 
L 143.711067 136.092907 
z
" clip-path="url(#p2188497490)" style="fill: #efc900; fill-opacity: 0.6; stroke: #000000; stroke-opacity: 0.6; stroke-width: 0.1"/>
    <path d="M 156.121924 135.888318 
L 168.779449 135.679662 
L 178.624633 125.81087 
L 165.967047 126.114312 
z
" clip-path="url(#p2188497490)" style="fill: #efc900; fill-opacity: 0.6; stroke: #000000; stroke-opacity: 0.6; stroke-width: 0.1"/>
    <path d="M 78.758104 175.946254 
L 90.659745 176.135884 
L 101.115019 165.945995 
L 89.20161 165.857418 
z
" clip-path="url(#p2188497490)" style="fill: #efc900; fill-opacity: 0.6; stroke: #000000; stroke-opacity: 0.6; stroke-width: 0.1"/>
    <path d="M 101.115019 165.945995 
L 113.265993 166.036338 
L 123.570446 155.901672 
L 111.411054 155.911304 
z
" clip-path="url(#p2188497490)" style="fill: #efc900; fill-opacity: 0.6; stroke: #000000; stroke-opacity: 0.6; stroke-width: 0.1"/>
    <path d="M 123.570446 155.901672 
L 135.972847 155.891846 
L 146.125037 145.812992 
L 133.717613 145.921699 
z
" clip-path="url(#p2188497490)" style="fill: #efc900; fill-opacity: 0.6; stroke: #000000; stroke-opacity: 0.6; stroke-width: 0.1"/>
    <path d="M 146.125037 145.812992 
L 158.78098 145.702107 
L 168.779449 135.679662 
L 156.121924 135.888318 
z
" clip-path="url(#p2188497490)" style="fill: #efc900; fill-opacity: 0.6; stroke: #000000; stroke-opacity: 0.6; stroke-width: 0.1"/>
    <path d="M 90.659745 176.135884 
L 102.800569 176.329324 
L 113.265993 166.036338 
L 101.115019 165.945995 
z
" clip-path="url(#p2188497490)" style="fill: #efc900; fill-opacity: 0.6; stroke: #000000; stroke-opacity: 0.6; stroke-width: 0.1"/>
    <path d="M 113.265993 166.036338 
L 125.661709 166.128501 
L 135.972847 155.891846 
L 123.570446 155.901672 
z
" clip-path="url(#p2188497490)" style="fill: #efc900; fill-opacity: 0.6; stroke: #000000; stroke-opacity: 0.6; stroke-width: 0.1"/>
    <path d="M 135.972847 155.891846 
L 148.625616 155.881823 
L 158.78098 145.702107 
L 146.125037 145.812992 
z
" clip-path="url(#p2188497490)" style="fill: #efc900; fill-opacity: 0.6; stroke: #000000; stroke-opacity: 0.6; stroke-width: 0.1"/>
    <path d="M 102.800569 176.329324 
L 115.18786 176.526692 
L 125.661709 166.128501 
L 113.265993 166.036338 
z
" clip-path="url(#p2188497490)" style="fill: #efc900; fill-opacity: 0.6; stroke: #000000; stroke-opacity: 0.6; stroke-width: 0.1"/>
    <path d="M 125.661709 166.128501 
L 138.309637 166.222539 
L 148.625616 155.881823 
L 135.972847 155.891846 
z
" clip-path="url(#p2188497490)" style="fill: #efc900; fill-opacity: 0.6; stroke: #000000; stroke-opacity: 0.6; stroke-width: 0.1"/>
    <path d="M 115.18786 176.526692 
L 127.829201 176.728107 
L 138.309637 166.222539 
L 125.661709 166.128501 
z
" clip-path="url(#p2188497490)" style="fill: #efc900; fill-opacity: 0.6; stroke: #000000; stroke-opacity: 0.6; stroke-width: 0.1"/>
   </g>
   <g id="line2d_26">
    <path d="M 90.659745 176.135884 
L 92.592207 174.252473 
L 94.519195 172.374398 
L 96.440732 170.501635 
L 98.356841 168.634162 
L 100.267546 166.771957 
L 102.172869 164.914997 
L 104.072833 163.06326 
L 105.96746 161.216724 
L 107.856772 159.375368 
L 109.740793 157.539169 
L 111.619545 155.708106 
L 113.493048 153.882157 
L 115.361327 152.061301 
L 117.224401 150.245518 
L 119.082293 148.434784 
L 120.935025 146.62908 
L 122.782618 144.828385 
L 124.625093 143.032677 
L 126.462472 141.241937 
L 128.294775 139.456143 
L 130.122024 137.675274 
L 131.94424 135.899312 
L 133.761443 134.128235 
L 135.573654 132.362023 
L 137.380893 130.600657 
L 139.183182 128.844116 
L 140.98054 127.09238 
L 142.772987 125.345431 
L 144.560544 123.603247 
L 146.34323 121.865811 
L 148.121066 120.133102 
L 149.894072 118.405101 
L 151.662266 116.681789 
L 153.425668 114.963146 
L 155.184298 113.249155 
L 156.938176 111.539796 
L 158.68732 109.835051 
L 160.43175 108.1349 
L 162.171484 106.439325 
L 163.906542 104.748308 
L 165.636943 103.06183 
L 167.362704 101.379874 
L 169.083846 99.70242 
L 170.800385 98.029451 
L 172.512342 96.36095 
L 174.219733 94.696897 
L 175.922578 93.037275 
L 177.620894 91.382068 
L 179.3147 89.731256 
" clip-path="url(#p2188497490)" style="fill: none; stroke: #ff4500; stroke-width: 2.5; stroke-linecap: square"/>
   </g>
  </g>
 </g>
 <defs>
  <clipPath id="p2188497490">
   <rect x="8.51213" y="20.817187" width="214.48" height="214.48"/>
  </clipPath>
 </defs>
</svg>
