<?xml version="1.0" encoding="utf-8" standalone="no"?>
<!DOCTYPE svg PUBLIC "-//W3C//DTD SVG 1.1//EN"
  "http://www.w3.org/Graphics/SVG/1.1/DTD/svg11.dtd">
<svg xmlns:xlink="http://www.w3.org/1999/xlink" width="232.1749pt" height="242.478437pt" viewBox="0 0 232.1749 242.478437" xmlns="http://www.w3.org/2000/svg" version="1.1">
 <metadata>
  <rdf:RDF xmlns:dc="http://purl.org/dc/elements/1.1/" xmlns:cc="http://creativecommons.org/ns#" xmlns:rdf="http://www.w3.org/1999/02/22-rdf-syntax-ns#">
   <cc:Work>
    <dc:type rdf:resource="http://purl.org/dc/dcmitype/StillImage"/>
    <dc:date>2025-06-11T09:21:56.071295</dc:date>
    <dc:format>image/svg+xml</dc:format>
    <dc:creator>
     <cc:Agent>
      <dc:title>Matplotlib v3.10.3, https://matplotlib.org/</dc:title>
     </cc:Agent>
    </dc:creator>
   </cc:Work>
  </rdf:RDF>
 </metadata>
 <defs>
  <style type="text/css">*{stroke-linejoin: round; stroke-linecap: butt}</style>
 </defs>
 <g id="figure_1">
  <g id="patch_1">
   <path d="M 0 242.478437 
L 232.1749 242.478437 
L 232.1749 0 
L 0 0 
L 0 242.478437 
z
" style="fill: none; opacity: 0"/>
  </g>
  <g id="patch_2">
   <path d="M 7.2 235.278437 
L 221.68 235.278437 
L 221.68 20.798437 
L 7.2 20.798437 
L 7.2 235.278437 
z
" style="fill: none"/>
  </g>
  <g id="pane3d_1">
   <g id="patch_3">
    <path d="M 26.824101 187.224269 
L 79.333412 150.111985 
L 78.506541 56.518435 
L 24.631752 83.929503 
" style="fill: none; opacity: 0"/>
   </g>
  </g>
  <g id="pane3d_2">
   <g id="patch_4">
    <path d="M 79.333412 150.111985 
L 201.904981 162.732159 
L 203.815637 65.824862 
L 78.506541 56.518435 
" style="fill: none; opacity: 0"/>
   </g>
  </g>
  <g id="pane3d_3">
   <g id="patch_5">
    <path d="M 26.824101 187.224269 
L 161.315854 202.854791 
L 201.904981 162.732159 
L 79.333412 150.111985 
" style="fill: none; opacity: 0"/>
   </g>
  </g>
  <g id="grid3d_1">
   <g id="Line3DCollection_1">
    <path d="M 26.824101 187.224269 
L 79.333412 150.111985 
L 78.506541 56.518435 
" style="fill: none; stroke: #b0b0b0; stroke-width: 0.8"/>
    <path d="M 48.48252 189.741393 
L 99.141315 152.15144 
L 98.742945 58.021348 
" style="fill: none; stroke: #b0b0b0; stroke-width: 0.8"/>
    <path d="M 70.435455 192.292745 
L 119.191423 154.215833 
L 119.232244 59.543042 
" style="fill: none; stroke: #b0b0b0; stroke-width: 0.8"/>
    <path d="M 92.688954 194.879028 
L 139.488206 156.305624 
L 139.979209 61.083873 
" style="fill: none; stroke: #b0b0b0; stroke-width: 0.8"/>
    <path d="M 115.249231 197.500965 
L 160.036244 158.421284 
L 160.98873 62.644203 
" style="fill: none; stroke: #b0b0b0; stroke-width: 0.8"/>
    <path d="M 138.122676 200.159298 
L 180.840232 160.563297 
L 182.265825 64.224405 
" style="fill: none; stroke: #b0b0b0; stroke-width: 0.8"/>
    <path d="M 161.315854 202.854791 
L 201.904981 162.732159 
L 203.815637 65.824862 
" style="fill: none; stroke: #b0b0b0; stroke-width: 0.8"/>
   </g>
  </g>
  <g id="grid3d_2">
   <g id="Line3DCollection_2">
    <path d="M 24.631752 83.929503 
L 26.824101 187.224269 
L 161.315854 202.854791 
" style="fill: none; stroke: #b0b0b0; stroke-width: 0.8"/>
    <path d="M 34.44264 78.9378 
L 36.367504 180.479227 
L 168.717986 195.537733 
" style="fill: none; stroke: #b0b0b0; stroke-width: 0.8"/>
    <path d="M 43.896619 74.12769 
L 45.571647 173.973966 
L 175.846351 188.491295 
" style="fill: none; stroke: #b0b0b0; stroke-width: 0.8"/>
    <path d="M 53.012817 69.489441 
L 54.454304 167.695924 
L 182.715861 181.700736 
" style="fill: none; stroke: #b0b0b0; stroke-width: 0.8"/>
    <path d="M 61.809018 65.014003 
L 63.03203 161.633399 
L 189.340366 175.152368 
" style="fill: none; stroke: #b0b0b0; stroke-width: 0.8"/>
    <path d="M 70.301781 60.692952 
L 71.320262 155.775481 
L 195.732742 168.83346 
" style="fill: none; stroke: #b0b0b0; stroke-width: 0.8"/>
    <path d="M 78.506541 56.518435 
L 79.333412 150.111985 
L 201.904981 162.732159 
" style="fill: none; stroke: #b0b0b0; stroke-width: 0.8"/>
   </g>
  </g>
  <g id="grid3d_3">
   <g id="Line3DCollection_3">
    <path d="M 201.904981 162.732159 
L 79.333412 150.111985 
L 26.824101 187.224269 
" style="fill: none; stroke: #b0b0b0; stroke-width: 0.8"/>
    <path d="M 202.280328 143.694796 
L 79.170867 131.71351 
L 26.393966 166.958011 
" style="fill: none; stroke: #b0b0b0; stroke-width: 0.8"/>
    <path d="M 202.659022 124.487686 
L 79.006926 113.156981 
L 25.959723 146.498218 
" style="fill: none; stroke: #b0b0b0; stroke-width: 0.8"/>
    <path d="M 203.041107 105.108548 
L 78.84157 94.440352 
L 25.521314 125.842105 
" style="fill: none; stroke: #b0b0b0; stroke-width: 0.8"/>
    <path d="M 203.42663 85.555061 
L 78.674781 75.561542 
L 25.078677 104.986831 
" style="fill: none; stroke: #b0b0b0; stroke-width: 0.8"/>
    <path d="M 203.815637 65.824862 
L 78.506541 56.518435 
L 24.631752 83.929503 
" style="fill: none; stroke: #b0b0b0; stroke-width: 0.8"/>
   </g>
  </g>
  <g id="axis3d_1">
   <g id="line2d_1">
    <path d="M 26.824101 187.224269 
L 161.315854 202.854791 
" style="fill: none; stroke: #000000; stroke-width: 0.8; stroke-linecap: square"/>
   </g>
   <g id="xtick_1">
    <g id="line2d_2">
     <path d="M 27.290214 186.894831 
L 25.889395 187.884895 
" style="fill: none; stroke: #000000; stroke-width: 0.8; stroke-linecap: square"/>
    </g>
    <g id="text_1">
     <!-- −3 -->
     <g transform="translate(15.091954 208.060526) scale(0.08 -0.08)">
      <defs>
       <path id="DejaVuSans-2212" d="M 678 2272 
L 4684 2272 
L 4684 1741 
L 678 1741 
L 678 2272 
z
" transform="scale(0.015625)"/>
       <path id="DejaVuSans-33" d="M 2597 2516 
Q 3050 2419 3304 2112 
Q 3559 1806 3559 1356 
Q 3559 666 3084 287 
Q 2609 -91 1734 -91 
Q 1441 -91 1130 -33 
Q 819 25 488 141 
L 488 750 
Q 750 597 1062 519 
Q 1375 441 1716 441 
Q 2309 441 2620 675 
Q 2931 909 2931 1356 
Q 2931 1769 2642 2001 
Q 2353 2234 1838 2234 
L 1294 2234 
L 1294 2753 
L 1863 2753 
Q 2328 2753 2575 2939 
Q 2822 3125 2822 3475 
Q 2822 3834 2567 4026 
Q 2313 4219 1838 4219 
Q 1578 4219 1281 4162 
Q 984 4106 628 3988 
L 628 4550 
Q 988 4650 1302 4700 
Q 1616 4750 1894 4750 
Q 2613 4750 3031 4423 
Q 3450 4097 3450 3541 
Q 3450 3153 3228 2886 
Q 3006 2619 2597 2516 
z
" transform="scale(0.015625)"/>
      </defs>
      <use xlink:href="#DejaVuSans-2212"/>
      <use xlink:href="#DejaVuSans-33" transform="translate(83.789062 0)"/>
     </g>
    </g>
   </g>
   <g id="xtick_2">
    <g id="line2d_3">
     <path d="M 48.932506 189.407493 
L 47.580138 190.41098 
" style="fill: none; stroke: #000000; stroke-width: 0.8; stroke-linecap: square"/>
    </g>
    <g id="text_2">
     <!-- −2 -->
     <g transform="translate(36.907517 210.701101) scale(0.08 -0.08)">
      <defs>
       <path id="DejaVuSans-32" d="M 1228 531 
L 3431 531 
L 3431 0 
L 469 0 
L 469 531 
Q 828 903 1448 1529 
Q 2069 2156 2228 2338 
Q 2531 2678 2651 2914 
Q 2772 3150 2772 3378 
Q 2772 3750 2511 3984 
Q 2250 4219 1831 4219 
Q 1534 4219 1204 4116 
Q 875 4013 500 3803 
L 500 4441 
Q 881 4594 1212 4672 
Q 1544 4750 1819 4750 
Q 2544 4750 2975 4387 
Q 3406 4025 3406 3419 
Q 3406 3131 3298 2873 
Q 3191 2616 2906 2266 
Q 2828 2175 2409 1742 
Q 1991 1309 1228 531 
z
" transform="scale(0.015625)"/>
      </defs>
      <use xlink:href="#DejaVuSans-2212"/>
      <use xlink:href="#DejaVuSans-32" transform="translate(83.789062 0)"/>
     </g>
    </g>
   </g>
   <g id="xtick_3">
    <g id="line2d_4">
     <path d="M 70.868831 191.954291 
L 69.566366 192.971476 
" style="fill: none; stroke: #000000; stroke-width: 0.8; stroke-linecap: square"/>
    </g>
    <g id="text_3">
     <!-- −1 -->
     <g transform="translate(59.022447 213.377911) scale(0.08 -0.08)">
      <defs>
       <path id="DejaVuSans-31" d="M 794 531 
L 1825 531 
L 1825 4091 
L 703 3866 
L 703 4441 
L 1819 4666 
L 2450 4666 
L 2450 531 
L 3481 531 
L 3481 0 
L 794 0 
L 794 531 
z
" transform="scale(0.015625)"/>
      </defs>
      <use xlink:href="#DejaVuSans-2212"/>
      <use xlink:href="#DejaVuSans-31" transform="translate(83.789062 0)"/>
     </g>
    </g>
   </g>
   <g id="xtick_4">
    <g id="line2d_5">
     <path d="M 93.105222 194.535927 
L 91.854158 195.567093 
" style="fill: none; stroke: #000000; stroke-width: 0.8; stroke-linecap: square"/>
    </g>
    <g id="text_4">
     <!-- 0 -->
     <g transform="translate(84.794826 216.091708) scale(0.08 -0.08)">
      <defs>
       <path id="DejaVuSans-30" d="M 2034 4250 
Q 1547 4250 1301 3770 
Q 1056 3291 1056 2328 
Q 1056 1369 1301 889 
Q 1547 409 2034 409 
Q 2525 409 2770 889 
Q 3016 1369 3016 2328 
Q 3016 3291 2770 3770 
Q 2525 4250 2034 4250 
z
M 2034 4750 
Q 2819 4750 3233 4129 
Q 3647 3509 3647 2328 
Q 3647 1150 3233 529 
Q 2819 -91 2034 -91 
Q 1250 -91 836 529 
Q 422 1150 422 2328 
Q 422 3509 836 4129 
Q 1250 4750 2034 4750 
z
" transform="scale(0.015625)"/>
      </defs>
      <use xlink:href="#DejaVuSans-30"/>
     </g>
    </g>
   </g>
   <g id="xtick_5">
    <g id="line2d_6">
     <path d="M 115.647877 197.15312 
L 114.449761 198.198557 
" style="fill: none; stroke: #000000; stroke-width: 0.8; stroke-linecap: square"/>
    </g>
    <g id="text_5">
     <!-- 1 -->
     <g transform="translate(107.527279 218.843264) scale(0.08 -0.08)">
      <use xlink:href="#DejaVuSans-31"/>
     </g>
    </g>
   </g>
   <g id="xtick_6">
    <g id="line2d_7">
     <path d="M 138.503169 199.80661 
L 137.359597 200.866616 
" style="fill: none; stroke: #000000; stroke-width: 0.8; stroke-linecap: square"/>
    </g>
    <g id="text_6">
     <!-- 2 -->
     <g transform="translate(130.578238 221.633372) scale(0.08 -0.08)">
      <use xlink:href="#DejaVuSans-32"/>
     </g>
    </g>
   </g>
   <g id="xtick_7">
    <g id="line2d_8">
     <path d="M 161.677646 202.497157 
L 160.590266 203.572039 
" style="fill: none; stroke: #000000; stroke-width: 0.8; stroke-linecap: square"/>
    </g>
    <g id="text_7">
     <!-- 3 -->
     <g transform="translate(153.954445 224.462849) scale(0.08 -0.08)">
      <use xlink:href="#DejaVuSans-33"/>
     </g>
    </g>
   </g>
   <g id="text_8">
    <!-- X -->
    <g transform="translate(77.850716 230.622189) scale(0.09 -0.09)">
     <defs>
      <path id="DejaVuSans-58" d="M 403 4666 
L 1081 4666 
L 2241 2931 
L 3406 4666 
L 4084 4666 
L 2584 2425 
L 4184 0 
L 3506 0 
L 2194 1984 
L 872 0 
L 191 0 
L 1856 2491 
L 403 4666 
z
" transform="scale(0.015625)"/>
     </defs>
     <use xlink:href="#DejaVuSans-58"/>
    </g>
   </g>
  </g>
  <g id="axis3d_2">
   <g id="line2d_9">
    <path d="M 201.904981 162.732159 
L 161.315854 202.854791 
" style="fill: none; stroke: #000000; stroke-width: 0.8; stroke-linecap: square"/>
   </g>
   <g id="xtick_8">
    <g id="line2d_10">
     <path d="M 160.195177 202.724547 
L 163.559466 203.115542 
" style="fill: none; stroke: #000000; stroke-width: 0.8; stroke-linecap: square"/>
    </g>
    <g id="text_9">
     <!-- −3 -->
     <g transform="translate(169.759046 221.410461) scale(0.08 -0.08)">
      <use xlink:href="#DejaVuSans-2212"/>
      <use xlink:href="#DejaVuSans-33" transform="translate(83.789062 0)"/>
     </g>
    </g>
   </g>
   <g id="xtick_9">
    <g id="line2d_11">
     <path d="M 167.61598 195.412349 
L 170.924175 195.788747 
" style="fill: none; stroke: #000000; stroke-width: 0.8; stroke-linecap: square"/>
    </g>
    <g id="text_10">
     <!-- −2 -->
     <g transform="translate(176.90348 213.845111) scale(0.08 -0.08)">
      <use xlink:href="#DejaVuSans-2212"/>
      <use xlink:href="#DejaVuSans-32" transform="translate(83.789062 0)"/>
     </g>
    </g>
   </g>
   <g id="xtick_10">
    <g id="line2d_12">
     <path d="M 174.762415 188.370505 
L 178.016324 188.733109 
" style="fill: none; stroke: #000000; stroke-width: 0.8; stroke-linecap: square"/>
    </g>
    <g id="text_11">
     <!-- −1 -->
     <g transform="translate(183.783224 206.560045) scale(0.08 -0.08)">
      <use xlink:href="#DejaVuSans-2212"/>
      <use xlink:href="#DejaVuSans-31" transform="translate(83.789062 0)"/>
     </g>
    </g>
   </g>
   <g id="xtick_11">
    <g id="line2d_13">
     <path d="M 181.649422 181.584292 
L 184.850772 181.933846 
" style="fill: none; stroke: #000000; stroke-width: 0.8; stroke-linecap: square"/>
    </g>
    <g id="text_12">
     <!-- 0 -->
     <g transform="translate(193.764596 199.53997) scale(0.08 -0.08)">
      <use xlink:href="#DejaVuSans-30"/>
     </g>
    </g>
   </g>
   <g id="xtick_12">
    <g id="line2d_14">
     <path d="M 188.290875 175.040039 
L 191.441311 175.377235 
" style="fill: none; stroke: #000000; stroke-width: 0.8; stroke-linecap: square"/>
    </g>
    <g id="text_13">
     <!-- 1 -->
     <g transform="translate(200.157256 192.770686) scale(0.08 -0.08)">
      <use xlink:href="#DejaVuSans-31"/>
     </g>
    </g>
   </g>
   <g id="xtick_13">
    <g id="line2d_15">
     <path d="M 194.699677 168.725032 
L 197.800771 169.050514 
" style="fill: none; stroke: #000000; stroke-width: 0.8; stroke-linecap: square"/>
    </g>
    <g id="text_14">
     <!-- 2 -->
     <g transform="translate(206.325546 186.238989) scale(0.08 -0.08)">
      <use xlink:href="#DejaVuSans-32"/>
     </g>
    </g>
   </g>
   <g id="xtick_14">
    <g id="line2d_16">
     <path d="M 200.887842 162.627433 
L 203.941096 162.941801 
" style="fill: none; stroke: #000000; stroke-width: 0.8; stroke-linecap: square"/>
    </g>
    <g id="text_15">
     <!-- 3 -->
     <g transform="translate(212.281077 179.932587) scale(0.08 -0.08)">
      <use xlink:href="#DejaVuSans-33"/>
     </g>
    </g>
   </g>
   <g id="text_16">
    <!-- Y -->
    <g transform="translate(209.57756 209.801155) scale(0.09 -0.09)">
     <defs>
      <path id="DejaVuSans-59" d="M -13 4666 
L 666 4666 
L 1959 2747 
L 3244 4666 
L 3922 4666 
L 2272 2222 
L 2272 0 
L 1638 0 
L 1638 2222 
L -13 4666 
z
" transform="scale(0.015625)"/>
     </defs>
     <use xlink:href="#DejaVuSans-59"/>
    </g>
   </g>
  </g>
  <g id="axis3d_3">
   <g id="line2d_17">
    <path d="M 201.904981 162.732159 
L 203.815637 65.824862 
" style="fill: none; stroke: #000000; stroke-width: 0.8; stroke-linecap: square"/>
   </g>
   <g id="xtick_15">
    <g id="line2d_18">
     <path d="M 200.887842 162.627433 
L 203.941096 162.941801 
" style="fill: none; stroke: #000000; stroke-width: 0.8; stroke-linecap: square"/>
    </g>
    <g id="text_17">
     <!-- −2 -->
     <g transform="translate(212.734597 166.471036) scale(0.08 -0.08)">
      <use xlink:href="#DejaVuSans-2212"/>
      <use xlink:href="#DejaVuSans-32" transform="translate(83.789062 0)"/>
     </g>
    </g>
   </g>
   <g id="xtick_16">
    <g id="line2d_19">
     <path d="M 201.258563 143.595356 
L 204.325712 143.893858 
" style="fill: none; stroke: #000000; stroke-width: 0.8; stroke-linecap: square"/>
    </g>
    <g id="text_18">
     <!-- −1 -->
     <g transform="translate(213.18115 147.551837) scale(0.08 -0.08)">
      <use xlink:href="#DejaVuSans-2212"/>
      <use xlink:href="#DejaVuSans-31" transform="translate(83.789062 0)"/>
     </g>
    </g>
   </g>
   <g id="xtick_17">
    <g id="line2d_20">
     <path d="M 201.632588 124.39363 
L 204.71376 124.67597 
" style="fill: none; stroke: #000000; stroke-width: 0.8; stroke-linecap: square"/>
    </g>
    <g id="text_19">
     <!-- 0 -->
     <g transform="translate(216.983533 128.465087) scale(0.08 -0.08)">
      <use xlink:href="#DejaVuSans-30"/>
     </g>
    </g>
   </g>
   <g id="xtick_18">
    <g id="line2d_21">
     <path d="M 202.009961 105.019977 
L 205.105286 105.285852 
" style="fill: none; stroke: #000000; stroke-width: 0.8; stroke-linecap: square"/>
    </g>
    <g id="text_20">
     <!-- 1 -->
     <g transform="translate(217.438048 109.208552) scale(0.08 -0.08)">
      <use xlink:href="#DejaVuSans-31"/>
     </g>
    </g>
   </g>
   <g id="xtick_19">
    <g id="line2d_22">
     <path d="M 202.390729 85.472078 
L 205.500336 85.72118 
" style="fill: none; stroke: #000000; stroke-width: 0.8; stroke-linecap: square"/>
    </g>
    <g id="text_21">
     <!-- 2 -->
     <g transform="translate(217.896624 89.779955) scale(0.08 -0.08)">
      <use xlink:href="#DejaVuSans-32"/>
     </g>
    </g>
   </g>
   <g id="xtick_20">
    <g id="line2d_23">
     <path d="M 202.774937 65.747571 
L 205.898959 65.979585 
" style="fill: none; stroke: #000000; stroke-width: 0.8; stroke-linecap: square"/>
    </g>
    <g id="text_22">
     <!-- 3 -->
     <g transform="translate(218.359316 70.176981) scale(0.08 -0.08)">
      <use xlink:href="#DejaVuSans-33"/>
     </g>
    </g>
   </g>
   <g id="text_23">
    <!-- Z -->
    <g transform="translate(236.227766 112.902795) scale(0.09 -0.09)">
     <defs>
      <path id="DejaVuSans-5a" d="M 359 4666 
L 4025 4666 
L 4025 4184 
L 1075 531 
L 4097 531 
L 4097 0 
L 288 0 
L 288 481 
L 3238 4134 
L 359 4134 
L 359 4666 
z
" transform="scale(0.015625)"/>
     </defs>
     <use xlink:href="#DejaVuSans-5a"/>
    </g>
   </g>
  </g>
  <g id="axes_1">
   <g id="Poly3DCollection_1">
    <path d="M 73.530698 105.198481 
L 86.967126 103.865229 
L 92.19664 96.844466 
L 78.874755 98.196585 
z
" clip-path="url(#pa983873b01)" style="fill: #debb00; fill-opacity: 0.3; stroke: #000000; stroke-opacity: 0.3; stroke-width: 0.1"/>
    <path d="M 86.967126 103.865229 
L 100.531014 102.519331 
L 105.643579 95.479655 
L 92.19664 96.844466 
z
" clip-path="url(#pa983873b01)" style="fill: #debb00; fill-opacity: 0.3; stroke: #000000; stroke-opacity: 0.3; stroke-width: 0.1"/>
    <path d="M 100.531014 102.519331 
L 114.224185 101.160604 
L 119.217343 94.101972 
L 105.643579 95.479655 
z
" clip-path="url(#pa983873b01)" style="fill: #debb00; fill-opacity: 0.3; stroke: #000000; stroke-opacity: 0.3; stroke-width: 0.1"/>
    <path d="M 68.073851 112.348155 
L 81.626715 111.034876 
L 86.967126 103.865229 
L 73.530698 105.198481 
z
" clip-path="url(#pa983873b01)" style="fill: #debb00; fill-opacity: 0.3; stroke: #000000; stroke-opacity: 0.3; stroke-width: 0.1"/>
    <path d="M 114.224185 101.160604 
L 128.048494 99.788864 
L 132.919733 92.711233 
L 119.217343 94.101972 
z
" clip-path="url(#pa983873b01)" style="fill: #debb00; fill-opacity: 0.3; stroke: #000000; stroke-opacity: 0.3; stroke-width: 0.1"/>
    <path d="M 81.626715 111.034876 
L 95.309512 109.709007 
L 100.531014 102.519331 
L 86.967126 103.865229 
z
" clip-path="url(#pa983873b01)" style="fill: #debb00; fill-opacity: 0.3; stroke: #000000; stroke-opacity: 0.3; stroke-width: 0.1"/>
    <path d="M 128.048494 99.788864 
L 142.005836 98.403925 
L 146.752587 91.307253 
L 132.919733 92.711233 
z
" clip-path="url(#pa983873b01)" style="fill: #debb00; fill-opacity: 0.3; stroke: #000000; stroke-opacity: 0.3; stroke-width: 0.1"/>
    <path d="M 95.309512 109.709007 
L 109.124121 108.370365 
L 114.224185 101.160604 
L 100.531014 102.519331 
z
" clip-path="url(#pa983873b01)" style="fill: #debb00; fill-opacity: 0.3; stroke: #000000; stroke-opacity: 0.3; stroke-width: 0.1"/>
    <path d="M 62.500607 119.650336 
L 76.171839 118.358193 
L 81.626715 111.034876 
L 68.073851 112.348155 
z
" clip-path="url(#pa983873b01)" style="fill: #debb00; fill-opacity: 0.3; stroke: #000000; stroke-opacity: 0.3; stroke-width: 0.1"/>
    <path d="M 142.005836 98.403925 
L 156.098139 97.005593 
L 160.717777 89.889841 
L 146.752587 91.307253 
z
" clip-path="url(#pa983873b01)" style="fill: #debb00; fill-opacity: 0.3; stroke: #000000; stroke-opacity: 0.3; stroke-width: 0.1"/>
    <path d="M 109.124121 108.370365 
L 123.072455 107.018765 
L 128.048494 99.788864 
L 114.224185 101.160604 
z
" clip-path="url(#pa983873b01)" style="fill: #debb00; fill-opacity: 0.3; stroke: #000000; stroke-opacity: 0.3; stroke-width: 0.1"/>
    <path d="M 76.171839 118.358193 
L 89.975552 117.053529 
L 95.309512 109.709007 
L 81.626715 111.034876 
z
" clip-path="url(#pa983873b01)" style="fill: #debb00; fill-opacity: 0.3; stroke: #000000; stroke-opacity: 0.3; stroke-width: 0.1"/>
    <path d="M 156.098139 97.005593 
L 170.327371 95.593675 
L 174.817212 88.458804 
L 160.717777 89.889841 
z
" clip-path="url(#pa983873b01)" style="fill: #debb00; fill-opacity: 0.3; stroke: #000000; stroke-opacity: 0.3; stroke-width: 0.1"/>
    <path d="M 123.072455 107.018765 
L 137.156466 105.654017 
L 142.005836 98.403925 
L 128.048494 99.788864 
z
" clip-path="url(#pa983873b01)" style="fill: #debb00; fill-opacity: 0.3; stroke: #000000; stroke-opacity: 0.3; stroke-width: 0.1"/>
    <path d="M 89.975552 117.053529 
L 103.91368 115.736161 
L 109.124121 108.370365 
L 95.309512 109.709007 
z
" clip-path="url(#pa983873b01)" style="fill: #debb00; fill-opacity: 0.3; stroke: #000000; stroke-opacity: 0.3; stroke-width: 0.1"/>
    <path d="M 56.8072 127.109956 
L 70.59878 125.840175 
L 76.171839 118.358193 
L 62.500607 119.650336 
z
" clip-path="url(#pa983873b01)" style="fill: #debb00; fill-opacity: 0.3; stroke: #000000; stroke-opacity: 0.3; stroke-width: 0.1"/>
    <path d="M 170.327371 95.593675 
L 184.695538 94.16797 
L 189.052835 87.013945 
L 174.817212 88.458804 
z
" clip-path="url(#pa983873b01)" style="fill: #debb00; fill-opacity: 0.3; stroke: #000000; stroke-opacity: 0.3; stroke-width: 0.1"/>
    <path d="M 137.156466 105.654017 
L 151.378142 104.27593 
L 156.098139 97.005593 
L 142.005836 98.403925 
z
" clip-path="url(#pa983873b01)" style="fill: #debb00; fill-opacity: 0.3; stroke: #000000; stroke-opacity: 0.3; stroke-width: 0.1"/>
    <path d="M 103.91368 115.736161 
L 117.988196 114.405901 
L 123.072455 107.018765 
L 109.124121 108.370365 
z
" clip-path="url(#pa983873b01)" style="fill: #debb00; fill-opacity: 0.3; stroke: #000000; stroke-opacity: 0.3; stroke-width: 0.1"/>
    <path d="M 70.59878 125.840175 
L 84.525462 124.557955 
L 89.975552 117.053529 
L 76.171839 118.358193 
z
" clip-path="url(#pa983873b01)" style="fill: #debb00; fill-opacity: 0.3; stroke: #000000; stroke-opacity: 0.3; stroke-width: 0.1"/>
    <path d="M 184.695538 94.16797 
L 199.204683 92.728277 
L 203.42663 85.555061 
L 189.052835 87.013945 
z
" clip-path="url(#pa983873b01)" style="fill: #debb00; fill-opacity: 0.3; stroke: #000000; stroke-opacity: 0.3; stroke-width: 0.1"/>
    <path d="M 151.378142 104.27593 
L 165.739513 102.884307 
L 170.327371 95.593675 
L 156.098139 97.005593 
z
" clip-path="url(#pa983873b01)" style="fill: #debb00; fill-opacity: 0.3; stroke: #000000; stroke-opacity: 0.3; stroke-width: 0.1"/>
    <path d="M 117.988196 114.405901 
L 132.201112 113.062561 
L 137.156466 105.654017 
L 123.072455 107.018765 
z
" clip-path="url(#pa983873b01)" style="fill: #debb00; fill-opacity: 0.3; stroke: #000000; stroke-opacity: 0.3; stroke-width: 0.1"/>
    <path d="M 84.525462 124.557955 
L 98.58924 123.263112 
L 103.91368 115.736161 
L 89.975552 117.053529 
z
" clip-path="url(#pa983873b01)" style="fill: #debb00; fill-opacity: 0.3; stroke: #000000; stroke-opacity: 0.3; stroke-width: 0.1"/>
    <path d="M 50.989702 134.732163 
L 64.903655 133.486034 
L 70.59878 125.840175 
L 56.8072 127.109956 
z
" clip-path="url(#pa983873b01)" style="fill: #debb00; fill-opacity: 0.3; stroke: #000000; stroke-opacity: 0.3; stroke-width: 0.1"/>
    <path d="M 165.739513 102.884307 
L 180.242646 101.478946 
L 184.695538 94.16797 
L 170.327371 95.593675 
z
" clip-path="url(#pa983873b01)" style="fill: #debb00; fill-opacity: 0.3; stroke: #000000; stroke-opacity: 0.3; stroke-width: 0.1"/>
    <path d="M 132.201112 113.062561 
L 146.55448 111.705946 
L 151.378142 104.27593 
L 137.156466 105.654017 
z
" clip-path="url(#pa983873b01)" style="fill: #debb00; fill-opacity: 0.3; stroke: #000000; stroke-opacity: 0.3; stroke-width: 0.1"/>
    <path d="M 98.58924 123.263112 
L 112.792149 121.95546 
L 117.988196 114.405901 
L 103.91368 115.736161 
z
" clip-path="url(#pa983873b01)" style="fill: #debb00; fill-opacity: 0.3; stroke: #000000; stroke-opacity: 0.3; stroke-width: 0.1"/>
    <path d="M 64.903655 133.486034 
L 78.955408 132.227564 
L 84.525462 124.557955 
L 70.59878 125.840175 
z
" clip-path="url(#pa983873b01)" style="fill: #debb00; fill-opacity: 0.3; stroke: #000000; stroke-opacity: 0.3; stroke-width: 0.1"/>
    <path d="M 180.242646 101.478946 
L 194.889652 100.059645 
L 199.204683 92.728277 
L 184.695538 94.16797 
z
" clip-path="url(#pa983873b01)" style="fill: #debb00; fill-opacity: 0.3; stroke: #000000; stroke-opacity: 0.3; stroke-width: 0.1"/>
    <path d="M 146.55448 111.705946 
L 161.050391 110.335858 
L 165.739513 102.884307 
L 151.378142 104.27593 
z
" clip-path="url(#pa983873b01)" style="fill: #debb00; fill-opacity: 0.3; stroke: #000000; stroke-opacity: 0.3; stroke-width: 0.1"/>
    <path d="M 112.792149 121.95546 
L 127.136263 120.634807 
L 132.201112 113.062561 
L 117.988196 114.405901 
z
" clip-path="url(#pa983873b01)" style="fill: #debb00; fill-opacity: 0.3; stroke: #000000; stroke-opacity: 0.3; stroke-width: 0.1"/>
    <path d="M 78.955408 132.227564 
L 93.147019 130.956567 
L 98.58924 123.263112 
L 84.525462 124.557955 
z
" clip-path="url(#pa983873b01)" style="fill: #debb00; fill-opacity: 0.3; stroke: #000000; stroke-opacity: 0.3; stroke-width: 0.1"/>
    <path d="M 45.044012 142.522331 
L 59.082409 141.301214 
L 64.903655 133.486034 
L 50.989702 134.732163 
z
" clip-path="url(#pa983873b01)" style="fill: #debb00; fill-opacity: 0.3; stroke: #000000; stroke-opacity: 0.3; stroke-width: 0.1"/>
    <path d="M 161.050391 110.335858 
L 175.69098 108.952096 
L 180.242646 101.478946 
L 165.739513 102.884307 
z
" clip-path="url(#pa983873b01)" style="fill: #debb00; fill-opacity: 0.3; stroke: #000000; stroke-opacity: 0.3; stroke-width: 0.1"/>
    <path d="M 127.136263 120.634807 
L 141.623699 119.300959 
L 146.55448 111.705946 
L 132.201112 113.062561 
z
" clip-path="url(#pa983873b01)" style="fill: #debb00; fill-opacity: 0.3; stroke: #000000; stroke-opacity: 0.3; stroke-width: 0.1"/>
    <path d="M 93.147019 130.956567 
L 107.480586 129.672858 
L 112.792149 121.95546 
L 98.58924 123.263112 
z
" clip-path="url(#pa983873b01)" style="fill: #debb00; fill-opacity: 0.3; stroke: #000000; stroke-opacity: 0.3; stroke-width: 0.1"/>
    <path d="M 59.082409 141.301214 
L 73.261386 140.06787 
L 78.955408 132.227564 
L 64.903655 133.486034 
z
" clip-path="url(#pa983873b01)" style="fill: #debb00; fill-opacity: 0.3; stroke: #000000; stroke-opacity: 0.3; stroke-width: 0.1"/>
    <path d="M 175.69098 108.952096 
L 190.478424 107.554454 
L 194.889652 100.059645 
L 180.242646 101.478946 
z
" clip-path="url(#pa983873b01)" style="fill: #debb00; fill-opacity: 0.3; stroke: #000000; stroke-opacity: 0.3; stroke-width: 0.1"/>
    <path d="M 141.623699 119.300959 
L 156.256616 117.953716 
L 161.050391 110.335858 
L 146.55448 111.705946 
z
" clip-path="url(#pa983873b01)" style="fill: #debb00; fill-opacity: 0.3; stroke: #000000; stroke-opacity: 0.3; stroke-width: 0.1"/>
    <path d="M 107.480586 129.672858 
L 121.958249 128.376243 
L 127.136263 120.634807 
L 112.792149 121.95546 
z
" clip-path="url(#pa983873b01)" style="fill: #debb00; fill-opacity: 0.3; stroke: #000000; stroke-opacity: 0.3; stroke-width: 0.1"/>
    <path d="M 73.261386 140.06787 
L 87.583064 138.822112 
L 93.147019 130.956567 
L 78.955408 132.227564 
z
" clip-path="url(#pa983873b01)" style="fill: #debb00; fill-opacity: 0.3; stroke: #000000; stroke-opacity: 0.3; stroke-width: 0.1"/>
    <path d="M 38.965845 150.486072 
L 53.130805 149.291403 
L 59.082409 141.301214 
L 45.044012 142.522331 
z
" clip-path="url(#pa983873b01)" style="fill: #debb00; fill-opacity: 0.3; stroke: #000000; stroke-opacity: 0.3; stroke-width: 0.1"/>
    <path d="M 156.256616 117.953716 
L 171.037216 116.592876 
L 175.69098 108.952096 
L 161.050391 110.335858 
z
" clip-path="url(#pa983873b01)" style="fill: #debb00; fill-opacity: 0.3; stroke: #000000; stroke-opacity: 0.3; stroke-width: 0.1"/>
    <path d="M 121.958249 128.376243 
L 136.582192 127.066527 
L 141.623699 119.300959 
L 127.136263 120.634807 
z
" clip-path="url(#pa983873b01)" style="fill: #debb00; fill-opacity: 0.3; stroke: #000000; stroke-opacity: 0.3; stroke-width: 0.1"/>
    <path d="M 87.583064 138.822112 
L 102.04961 137.563754 
L 107.480586 129.672858 
L 93.147019 130.956567 
z
" clip-path="url(#pa983873b01)" style="fill: #debb00; fill-opacity: 0.3; stroke: #000000; stroke-opacity: 0.3; stroke-width: 0.1"/>
    <path d="M 53.130805 149.291403 
L 67.439208 148.084636 
L 73.261386 140.06787 
L 59.082409 141.301214 
z
" clip-path="url(#pa983873b01)" style="fill: #debb00; fill-opacity: 0.3; stroke: #000000; stroke-opacity: 0.3; stroke-width: 0.1"/>
    <path d="M 171.037216 116.592876 
L 185.967746 115.218233 
L 190.478424 107.554454 
L 175.69098 108.952096 
z
" clip-path="url(#pa983873b01)" style="fill: #debb00; fill-opacity: 0.3; stroke: #000000; stroke-opacity: 0.3; stroke-width: 0.1"/>
    <path d="M 136.582192 127.066527 
L 151.354644 125.743511 
L 156.256616 117.953716 
L 141.623699 119.300959 
z
" clip-path="url(#pa983873b01)" style="fill: #debb00; fill-opacity: 0.3; stroke: #000000; stroke-opacity: 0.3; stroke-width: 0.1"/>
    <path d="M 102.04961 137.563754 
L 116.663233 136.292602 
L 121.958249 128.376243 
L 107.480586 129.672858 
z
" clip-path="url(#pa983873b01)" style="fill: #debb00; fill-opacity: 0.3; stroke: #000000; stroke-opacity: 0.3; stroke-width: 0.1"/>
    <path d="M 67.439208 148.084636 
L 81.893245 146.865586 
L 87.583064 138.822112 
L 73.261386 140.06787 
z
" clip-path="url(#pa983873b01)" style="fill: #debb00; fill-opacity: 0.3; stroke: #000000; stroke-opacity: 0.3; stroke-width: 0.1"/>
    <path d="M 32.750723 158.629255 
L 47.044415 157.462546 
L 53.130805 149.291403 
L 38.965845 150.486072 
z
" clip-path="url(#pa983873b01)" style="fill: #debb00; fill-opacity: 0.3; stroke: #000000; stroke-opacity: 0.3; stroke-width: 0.1"/>
    <path d="M 151.354644 125.743511 
L 166.277879 124.406991 
L 171.037216 116.592876 
L 156.256616 117.953716 
z
" clip-path="url(#pa983873b01)" style="fill: #debb00; fill-opacity: 0.3; stroke: #000000; stroke-opacity: 0.3; stroke-width: 0.1"/>
    <path d="M 116.663233 136.292602 
L 131.426186 135.008461 
L 136.582192 127.066527 
L 121.958249 128.376243 
z
" clip-path="url(#pa983873b01)" style="fill: #debb00; fill-opacity: 0.3; stroke: #000000; stroke-opacity: 0.3; stroke-width: 0.1"/>
    <path d="M 81.893245 146.865586 
L 96.495151 145.634065 
L 102.04961 137.563754 
L 87.583064 138.822112 
z
" clip-path="url(#pa983873b01)" style="fill: #debb00; fill-opacity: 0.3; stroke: #000000; stroke-opacity: 0.3; stroke-width: 0.1"/>
    <path d="M 47.044415 157.462546 
L 61.484501 156.283888 
L 67.439208 148.084636 
L 53.130805 149.291403 
z
" clip-path="url(#pa983873b01)" style="fill: #debb00; fill-opacity: 0.3; stroke: #000000; stroke-opacity: 0.3; stroke-width: 0.1"/>
    <path d="M 166.277879 124.406991 
L 181.354216 123.056759 
L 185.967746 115.218233 
L 171.037216 116.592876 
z
" clip-path="url(#pa983873b01)" style="fill: #debb00; fill-opacity: 0.3; stroke: #000000; stroke-opacity: 0.3; stroke-width: 0.1"/>
    <path d="M 131.426186 135.008461 
L 146.340771 133.71113 
L 151.354644 125.743511 
L 136.582192 127.066527 
z
" clip-path="url(#pa983873b01)" style="fill: #debb00; fill-opacity: 0.3; stroke: #000000; stroke-opacity: 0.3; stroke-width: 0.1"/>
    <path d="M 96.495151 145.634065 
L 111.247205 144.389881 
L 116.663233 136.292602 
L 102.04961 137.563754 
z
" clip-path="url(#pa983873b01)" style="fill: #debb00; fill-opacity: 0.3; stroke: #000000; stroke-opacity: 0.3; stroke-width: 0.1"/>
    <path d="M 61.484501 156.283888 
L 76.073243 155.093096 
L 81.893245 146.865586 
L 67.439208 148.084636 
z
" clip-path="url(#pa983873b01)" style="fill: #debb00; fill-opacity: 0.3; stroke: #000000; stroke-opacity: 0.3; stroke-width: 0.1"/>
    <path d="M 26.393966 166.958011 
L 40.818608 165.82086 
L 47.044415 157.462546 
L 32.750723 158.629255 
z
" clip-path="url(#pa983873b01)" style="fill: #debb00; fill-opacity: 0.3; stroke: #000000; stroke-opacity: 0.3; stroke-width: 0.1"/>
    <path d="M 146.340771 133.71113 
L 161.409335 132.400405 
L 166.277879 124.406991 
L 151.354644 125.743511 
z
" clip-path="url(#pa983873b01)" style="fill: #debb00; fill-opacity: 0.3; stroke: #000000; stroke-opacity: 0.3; stroke-width: 0.1"/>
    <path d="M 111.247205 144.389881 
L 126.151736 143.132837 
L 131.426186 135.008461 
L 116.663233 136.292602 
z
" clip-path="url(#pa983873b01)" style="fill: #debb00; fill-opacity: 0.3; stroke: #000000; stroke-opacity: 0.3; stroke-width: 0.1"/>
    <path d="M 76.073243 155.093096 
L 90.812947 153.889982 
L 96.495151 145.634065 
L 81.893245 146.865586 
z
" clip-path="url(#pa983873b01)" style="fill: #debb00; fill-opacity: 0.3; stroke: #000000; stroke-opacity: 0.3; stroke-width: 0.1"/>
    <path d="M 40.818608 165.82086 
L 55.392687 164.671928 
L 61.484501 156.283888 
L 47.044415 157.462546 
z
" clip-path="url(#pa983873b01)" style="fill: #debb00; fill-opacity: 0.3; stroke: #000000; stroke-opacity: 0.3; stroke-width: 0.1"/>
    <path d="M 161.409335 132.400405 
L 176.634276 131.076078 
L 181.354216 123.056759 
L 166.277879 124.406991 
z
" clip-path="url(#pa983873b01)" style="fill: #debb00; fill-opacity: 0.3; stroke: #000000; stroke-opacity: 0.3; stroke-width: 0.1"/>
    <path d="M 126.151736 143.132837 
L 141.21112 141.862732 
L 146.340771 133.71113 
L 131.426186 135.008461 
z
" clip-path="url(#pa983873b01)" style="fill: #debb00; fill-opacity: 0.3; stroke: #000000; stroke-opacity: 0.3; stroke-width: 0.1"/>
    <path d="M 90.812947 153.889982 
L 105.705968 152.674354 
L 111.247205 144.389881 
L 96.495151 145.634065 
z
" clip-path="url(#pa983873b01)" style="fill: #debb00; fill-opacity: 0.3; stroke: #000000; stroke-opacity: 0.3; stroke-width: 0.1"/>
    <path d="M 55.392687 164.671928 
L 70.118537 163.511031 
L 76.073243 155.093096 
L 61.484501 156.283888 
z
" clip-path="url(#pa983873b01)" style="fill: #debb00; fill-opacity: 0.3; stroke: #000000; stroke-opacity: 0.3; stroke-width: 0.1"/>
    <path d="M 141.21112 141.862732 
L 156.427783 140.579363 
L 161.409335 132.400405 
L 146.340771 133.71113 
z
" clip-path="url(#pa983873b01)" style="fill: #debb00; fill-opacity: 0.3; stroke: #000000; stroke-opacity: 0.3; stroke-width: 0.1"/>
    <path d="M 105.705968 152.674354 
L 120.754713 151.446015 
L 126.151736 143.132837 
L 111.247205 144.389881 
z
" clip-path="url(#pa983873b01)" style="fill: #debb00; fill-opacity: 0.3; stroke: #000000; stroke-opacity: 0.3; stroke-width: 0.1"/>
    <path d="M 70.118537 163.511031 
L 84.99854 162.337982 
L 90.812947 153.889982 
L 76.073243 155.093096 
z
" clip-path="url(#pa983873b01)" style="fill: #debb00; fill-opacity: 0.3; stroke: #000000; stroke-opacity: 0.3; stroke-width: 0.1"/>
    <path d="M 156.427783 140.579363 
L 171.804203 139.282519 
L 176.634276 131.076078 
L 161.409335 132.400405 
z
" clip-path="url(#pa983873b01)" style="fill: #debb00; fill-opacity: 0.3; stroke: #000000; stroke-opacity: 0.3; stroke-width: 0.1"/>
    <path d="M 120.754713 151.446015 
L 135.961635 150.204765 
L 141.21112 141.862732 
L 126.151736 143.132837 
z
" clip-path="url(#pa983873b01)" style="fill: #debb00; fill-opacity: 0.3; stroke: #000000; stroke-opacity: 0.3; stroke-width: 0.1"/>
    <path d="M 84.99854 162.337982 
L 100.035131 161.152588 
L 105.705968 152.674354 
L 90.812947 153.889982 
z
" clip-path="url(#pa983873b01)" style="fill: #debb00; fill-opacity: 0.3; stroke: #000000; stroke-opacity: 0.3; stroke-width: 0.1"/>
    <path d="M 135.961635 150.204765 
L 151.329242 148.950399 
L 156.427783 140.579363 
L 141.21112 141.862732 
z
" clip-path="url(#pa983873b01)" style="fill: #debb00; fill-opacity: 0.3; stroke: #000000; stroke-opacity: 0.3; stroke-width: 0.1"/>
    <path d="M 100.035131 161.152588 
L 115.230794 159.954654 
L 120.754713 151.446015 
L 105.705968 152.674354 
z
" clip-path="url(#pa983873b01)" style="fill: #debb00; fill-opacity: 0.3; stroke: #000000; stroke-opacity: 0.3; stroke-width: 0.1"/>
    <path d="M 151.329242 148.950399 
L 166.860094 147.682708 
L 171.804203 139.282519 
L 156.427783 140.579363 
z
" clip-path="url(#pa983873b01)" style="fill: #debb00; fill-opacity: 0.3; stroke: #000000; stroke-opacity: 0.3; stroke-width: 0.1"/>
    <path d="M 115.230794 159.954654 
L 130.588067 158.74398 
L 135.961635 150.204765 
L 120.754713 151.446015 
z
" clip-path="url(#pa983873b01)" style="fill: #debb00; fill-opacity: 0.3; stroke: #000000; stroke-opacity: 0.3; stroke-width: 0.1"/>
    <path d="M 130.588067 158.74398 
L 146.109541 157.520361 
L 151.329242 148.950399 
L 135.961635 150.204765 
z
" clip-path="url(#pa983873b01)" style="fill: #debb00; fill-opacity: 0.3; stroke: #000000; stroke-opacity: 0.3; stroke-width: 0.1"/>
    <path d="M 146.109541 157.520361 
L 161.797865 156.283589 
L 166.860094 147.682708 
L 151.329242 148.950399 
z
" clip-path="url(#pa983873b01)" style="fill: #debb00; fill-opacity: 0.3; stroke: #000000; stroke-opacity: 0.3; stroke-width: 0.1"/>
   </g>
   <g id="text_24">
    <!-- 3 Planos Coincidentes -->
    <g transform="translate(59.472031 14.798437) scale(0.1 -0.1)">
     <defs>
      <path id="DejaVuSans-20" transform="scale(0.015625)"/>
      <path id="DejaVuSans-50" d="M 1259 4147 
L 1259 2394 
L 2053 2394 
Q 2494 2394 2734 2622 
Q 2975 2850 2975 3272 
Q 2975 3691 2734 3919 
Q 2494 4147 2053 4147 
L 1259 4147 
z
M 628 4666 
L 2053 4666 
Q 2838 4666 3239 4311 
Q 3641 3956 3641 3272 
Q 3641 2581 3239 2228 
Q 2838 1875 2053 1875 
L 1259 1875 
L 1259 0 
L 628 0 
L 628 4666 
z
" transform="scale(0.015625)"/>
      <path id="DejaVuSans-6c" d="M 603 4863 
L 1178 4863 
L 1178 0 
L 603 0 
L 603 4863 
z
" transform="scale(0.015625)"/>
      <path id="DejaVuSans-61" d="M 2194 1759 
Q 1497 1759 1228 1600 
Q 959 1441 959 1056 
Q 959 750 1161 570 
Q 1363 391 1709 391 
Q 2188 391 2477 730 
Q 2766 1069 2766 1631 
L 2766 1759 
L 2194 1759 
z
M 3341 1997 
L 3341 0 
L 2766 0 
L 2766 531 
Q 2569 213 2275 61 
Q 1981 -91 1556 -91 
Q 1019 -91 701 211 
Q 384 513 384 1019 
Q 384 1609 779 1909 
Q 1175 2209 1959 2209 
L 2766 2209 
L 2766 2266 
Q 2766 2663 2505 2880 
Q 2244 3097 1772 3097 
Q 1472 3097 1187 3025 
Q 903 2953 641 2809 
L 641 3341 
Q 956 3463 1253 3523 
Q 1550 3584 1831 3584 
Q 2591 3584 2966 3190 
Q 3341 2797 3341 1997 
z
" transform="scale(0.015625)"/>
      <path id="DejaVuSans-6e" d="M 3513 2113 
L 3513 0 
L 2938 0 
L 2938 2094 
Q 2938 2591 2744 2837 
Q 2550 3084 2163 3084 
Q 1697 3084 1428 2787 
Q 1159 2491 1159 1978 
L 1159 0 
L 581 0 
L 581 3500 
L 1159 3500 
L 1159 2956 
Q 1366 3272 1645 3428 
Q 1925 3584 2291 3584 
Q 2894 3584 3203 3211 
Q 3513 2838 3513 2113 
z
" transform="scale(0.015625)"/>
      <path id="DejaVuSans-6f" d="M 1959 3097 
Q 1497 3097 1228 2736 
Q 959 2375 959 1747 
Q 959 1119 1226 758 
Q 1494 397 1959 397 
Q 2419 397 2687 759 
Q 2956 1122 2956 1747 
Q 2956 2369 2687 2733 
Q 2419 3097 1959 3097 
z
M 1959 3584 
Q 2709 3584 3137 3096 
Q 3566 2609 3566 1747 
Q 3566 888 3137 398 
Q 2709 -91 1959 -91 
Q 1206 -91 779 398 
Q 353 888 353 1747 
Q 353 2609 779 3096 
Q 1206 3584 1959 3584 
z
" transform="scale(0.015625)"/>
      <path id="DejaVuSans-73" d="M 2834 3397 
L 2834 2853 
Q 2591 2978 2328 3040 
Q 2066 3103 1784 3103 
Q 1356 3103 1142 2972 
Q 928 2841 928 2578 
Q 928 2378 1081 2264 
Q 1234 2150 1697 2047 
L 1894 2003 
Q 2506 1872 2764 1633 
Q 3022 1394 3022 966 
Q 3022 478 2636 193 
Q 2250 -91 1575 -91 
Q 1294 -91 989 -36 
Q 684 19 347 128 
L 347 722 
Q 666 556 975 473 
Q 1284 391 1588 391 
Q 1994 391 2212 530 
Q 2431 669 2431 922 
Q 2431 1156 2273 1281 
Q 2116 1406 1581 1522 
L 1381 1569 
Q 847 1681 609 1914 
Q 372 2147 372 2553 
Q 372 3047 722 3315 
Q 1072 3584 1716 3584 
Q 2034 3584 2315 3537 
Q 2597 3491 2834 3397 
z
" transform="scale(0.015625)"/>
      <path id="DejaVuSans-43" d="M 4122 4306 
L 4122 3641 
Q 3803 3938 3442 4084 
Q 3081 4231 2675 4231 
Q 1875 4231 1450 3742 
Q 1025 3253 1025 2328 
Q 1025 1406 1450 917 
Q 1875 428 2675 428 
Q 3081 428 3442 575 
Q 3803 722 4122 1019 
L 4122 359 
Q 3791 134 3420 21 
Q 3050 -91 2638 -91 
Q 1578 -91 968 557 
Q 359 1206 359 2328 
Q 359 3453 968 4101 
Q 1578 4750 2638 4750 
Q 3056 4750 3426 4639 
Q 3797 4528 4122 4306 
z
" transform="scale(0.015625)"/>
      <path id="DejaVuSans-69" d="M 603 3500 
L 1178 3500 
L 1178 0 
L 603 0 
L 603 3500 
z
M 603 4863 
L 1178 4863 
L 1178 4134 
L 603 4134 
L 603 4863 
z
" transform="scale(0.015625)"/>
      <path id="DejaVuSans-63" d="M 3122 3366 
L 3122 2828 
Q 2878 2963 2633 3030 
Q 2388 3097 2138 3097 
Q 1578 3097 1268 2742 
Q 959 2388 959 1747 
Q 959 1106 1268 751 
Q 1578 397 2138 397 
Q 2388 397 2633 464 
Q 2878 531 3122 666 
L 3122 134 
Q 2881 22 2623 -34 
Q 2366 -91 2075 -91 
Q 1284 -91 818 406 
Q 353 903 353 1747 
Q 353 2603 823 3093 
Q 1294 3584 2113 3584 
Q 2378 3584 2631 3529 
Q 2884 3475 3122 3366 
z
" transform="scale(0.015625)"/>
      <path id="DejaVuSans-64" d="M 2906 2969 
L 2906 4863 
L 3481 4863 
L 3481 0 
L 2906 0 
L 2906 525 
Q 2725 213 2448 61 
Q 2172 -91 1784 -91 
Q 1150 -91 751 415 
Q 353 922 353 1747 
Q 353 2572 751 3078 
Q 1150 3584 1784 3584 
Q 2172 3584 2448 3432 
Q 2725 3281 2906 2969 
z
M 947 1747 
Q 947 1113 1208 752 
Q 1469 391 1925 391 
Q 2381 391 2643 752 
Q 2906 1113 2906 1747 
Q 2906 2381 2643 2742 
Q 2381 3103 1925 3103 
Q 1469 3103 1208 2742 
Q 947 2381 947 1747 
z
" transform="scale(0.015625)"/>
      <path id="DejaVuSans-65" d="M 3597 1894 
L 3597 1613 
L 953 1613 
Q 991 1019 1311 708 
Q 1631 397 2203 397 
Q 2534 397 2845 478 
Q 3156 559 3463 722 
L 3463 178 
Q 3153 47 2828 -22 
Q 2503 -91 2169 -91 
Q 1331 -91 842 396 
Q 353 884 353 1716 
Q 353 2575 817 3079 
Q 1281 3584 2069 3584 
Q 2775 3584 3186 3129 
Q 3597 2675 3597 1894 
z
M 3022 2063 
Q 3016 2534 2758 2815 
Q 2500 3097 2075 3097 
Q 1594 3097 1305 2825 
Q 1016 2553 972 2059 
L 3022 2063 
z
" transform="scale(0.015625)"/>
      <path id="DejaVuSans-74" d="M 1172 4494 
L 1172 3500 
L 2356 3500 
L 2356 3053 
L 1172 3053 
L 1172 1153 
Q 1172 725 1289 603 
Q 1406 481 1766 481 
L 2356 481 
L 2356 0 
L 1766 0 
Q 1100 0 847 248 
Q 594 497 594 1153 
L 594 3053 
L 172 3053 
L 172 3500 
L 594 3500 
L 594 4494 
L 1172 4494 
z
" transform="scale(0.015625)"/>
     </defs>
     <use xlink:href="#DejaVuSans-33"/>
     <use xlink:href="#DejaVuSans-20" transform="translate(63.623047 0)"/>
     <use xlink:href="#DejaVuSans-50" transform="translate(95.410156 0)"/>
     <use xlink:href="#DejaVuSans-6c" transform="translate(155.712891 0)"/>
     <use xlink:href="#DejaVuSans-61" transform="translate(183.496094 0)"/>
     <use xlink:href="#DejaVuSans-6e" transform="translate(244.775391 0)"/>
     <use xlink:href="#DejaVuSans-6f" transform="translate(308.154297 0)"/>
     <use xlink:href="#DejaVuSans-73" transform="translate(369.335938 0)"/>
     <use xlink:href="#DejaVuSans-20" transform="translate(421.435547 0)"/>
     <use xlink:href="#DejaVuSans-43" transform="translate(453.222656 0)"/>
     <use xlink:href="#DejaVuSans-6f" transform="translate(523.046875 0)"/>
     <use xlink:href="#DejaVuSans-69" transform="translate(584.228516 0)"/>
     <use xlink:href="#DejaVuSans-6e" transform="translate(612.011719 0)"/>
     <use xlink:href="#DejaVuSans-63" transform="translate(675.390625 0)"/>
     <use xlink:href="#DejaVuSans-69" transform="translate(730.371094 0)"/>
     <use xlink:href="#DejaVuSans-64" transform="translate(758.154297 0)"/>
     <use xlink:href="#DejaVuSans-65" transform="translate(821.630859 0)"/>
     <use xlink:href="#DejaVuSans-6e" transform="translate(883.154297 0)"/>
     <use xlink:href="#DejaVuSans-74" transform="translate(946.533203 0)"/>
     <use xlink:href="#DejaVuSans-65" transform="translate(985.742188 0)"/>
     <use xlink:href="#DejaVuSans-73" transform="translate(1047.265625 0)"/>
    </g>
   </g>
   <g id="Poly3DCollection_2">
    <path d="M 73.530698 105.198481 
L 86.967126 103.865229 
L 92.19664 96.844466 
L 78.874755 98.196585 
z
" clip-path="url(#pa983873b01)" style="fill: #96de29; fill-opacity: 0.3; stroke: #a9a9a9; stroke-opacity: 0.3; stroke-width: 0.1"/>
    <path d="M 86.967126 103.865229 
L 100.531014 102.519331 
L 105.643579 95.479655 
L 92.19664 96.844466 
z
" clip-path="url(#pa983873b01)" style="fill: #96de29; fill-opacity: 0.3; stroke: #a9a9a9; stroke-opacity: 0.3; stroke-width: 0.1"/>
    <path d="M 100.531014 102.519331 
L 114.224185 101.160604 
L 119.217343 94.101972 
L 105.643579 95.479655 
z
" clip-path="url(#pa983873b01)" style="fill: #96de29; fill-opacity: 0.3; stroke: #a9a9a9; stroke-opacity: 0.3; stroke-width: 0.1"/>
    <path d="M 68.073851 112.348155 
L 81.626715 111.034876 
L 86.967126 103.865229 
L 73.530698 105.198481 
z
" clip-path="url(#pa983873b01)" style="fill: #96de29; fill-opacity: 0.3; stroke: #a9a9a9; stroke-opacity: 0.3; stroke-width: 0.1"/>
    <path d="M 114.224185 101.160604 
L 128.048494 99.788864 
L 132.919733 92.711233 
L 119.217343 94.101972 
z
" clip-path="url(#pa983873b01)" style="fill: #96de29; fill-opacity: 0.3; stroke: #a9a9a9; stroke-opacity: 0.3; stroke-width: 0.1"/>
    <path d="M 81.626715 111.034876 
L 95.309512 109.709007 
L 100.531014 102.519331 
L 86.967126 103.865229 
z
" clip-path="url(#pa983873b01)" style="fill: #96de29; fill-opacity: 0.3; stroke: #a9a9a9; stroke-opacity: 0.3; stroke-width: 0.1"/>
    <path d="M 128.048494 99.788864 
L 142.005836 98.403925 
L 146.752587 91.307253 
L 132.919733 92.711233 
z
" clip-path="url(#pa983873b01)" style="fill: #96de29; fill-opacity: 0.3; stroke: #a9a9a9; stroke-opacity: 0.3; stroke-width: 0.1"/>
    <path d="M 95.309512 109.709007 
L 109.124121 108.370365 
L 114.224185 101.160604 
L 100.531014 102.519331 
z
" clip-path="url(#pa983873b01)" style="fill: #96de29; fill-opacity: 0.3; stroke: #a9a9a9; stroke-opacity: 0.3; stroke-width: 0.1"/>
    <path d="M 62.500607 119.650336 
L 76.171839 118.358193 
L 81.626715 111.034876 
L 68.073851 112.348155 
z
" clip-path="url(#pa983873b01)" style="fill: #96de29; fill-opacity: 0.3; stroke: #a9a9a9; stroke-opacity: 0.3; stroke-width: 0.1"/>
    <path d="M 142.005836 98.403925 
L 156.098139 97.005593 
L 160.717777 89.889841 
L 146.752587 91.307253 
z
" clip-path="url(#pa983873b01)" style="fill: #96de29; fill-opacity: 0.3; stroke: #a9a9a9; stroke-opacity: 0.3; stroke-width: 0.1"/>
    <path d="M 109.124121 108.370365 
L 123.072455 107.018765 
L 128.048494 99.788864 
L 114.224185 101.160604 
z
" clip-path="url(#pa983873b01)" style="fill: #96de29; fill-opacity: 0.3; stroke: #a9a9a9; stroke-opacity: 0.3; stroke-width: 0.1"/>
    <path d="M 76.171839 118.358193 
L 89.975552 117.053529 
L 95.309512 109.709007 
L 81.626715 111.034876 
z
" clip-path="url(#pa983873b01)" style="fill: #96de29; fill-opacity: 0.3; stroke: #a9a9a9; stroke-opacity: 0.3; stroke-width: 0.1"/>
    <path d="M 156.098139 97.005593 
L 170.327371 95.593675 
L 174.817212 88.458804 
L 160.717777 89.889841 
z
" clip-path="url(#pa983873b01)" style="fill: #96de29; fill-opacity: 0.3; stroke: #a9a9a9; stroke-opacity: 0.3; stroke-width: 0.1"/>
    <path d="M 123.072455 107.018765 
L 137.156466 105.654017 
L 142.005836 98.403925 
L 128.048494 99.788864 
z
" clip-path="url(#pa983873b01)" style="fill: #96de29; fill-opacity: 0.3; stroke: #a9a9a9; stroke-opacity: 0.3; stroke-width: 0.1"/>
    <path d="M 89.975552 117.053529 
L 103.91368 115.736161 
L 109.124121 108.370365 
L 95.309512 109.709007 
z
" clip-path="url(#pa983873b01)" style="fill: #96de29; fill-opacity: 0.3; stroke: #a9a9a9; stroke-opacity: 0.3; stroke-width: 0.1"/>
    <path d="M 56.8072 127.109956 
L 70.59878 125.840175 
L 76.171839 118.358193 
L 62.500607 119.650336 
z
" clip-path="url(#pa983873b01)" style="fill: #96de29; fill-opacity: 0.3; stroke: #a9a9a9; stroke-opacity: 0.3; stroke-width: 0.1"/>
    <path d="M 170.327371 95.593675 
L 184.695538 94.16797 
L 189.052835 87.013945 
L 174.817212 88.458804 
z
" clip-path="url(#pa983873b01)" style="fill: #96de29; fill-opacity: 0.3; stroke: #a9a9a9; stroke-opacity: 0.3; stroke-width: 0.1"/>
    <path d="M 137.156466 105.654017 
L 151.378142 104.27593 
L 156.098139 97.005593 
L 142.005836 98.403925 
z
" clip-path="url(#pa983873b01)" style="fill: #96de29; fill-opacity: 0.3; stroke: #a9a9a9; stroke-opacity: 0.3; stroke-width: 0.1"/>
    <path d="M 103.91368 115.736161 
L 117.988196 114.405901 
L 123.072455 107.018765 
L 109.124121 108.370365 
z
" clip-path="url(#pa983873b01)" style="fill: #96de29; fill-opacity: 0.3; stroke: #a9a9a9; stroke-opacity: 0.3; stroke-width: 0.1"/>
    <path d="M 70.59878 125.840175 
L 84.525462 124.557955 
L 89.975552 117.053529 
L 76.171839 118.358193 
z
" clip-path="url(#pa983873b01)" style="fill: #96de29; fill-opacity: 0.3; stroke: #a9a9a9; stroke-opacity: 0.3; stroke-width: 0.1"/>
    <path d="M 184.695538 94.16797 
L 199.204683 92.728277 
L 203.42663 85.555061 
L 189.052835 87.013945 
z
" clip-path="url(#pa983873b01)" style="fill: #96de29; fill-opacity: 0.3; stroke: #a9a9a9; stroke-opacity: 0.3; stroke-width: 0.1"/>
    <path d="M 151.378142 104.27593 
L 165.739513 102.884307 
L 170.327371 95.593675 
L 156.098139 97.005593 
z
" clip-path="url(#pa983873b01)" style="fill: #96de29; fill-opacity: 0.3; stroke: #a9a9a9; stroke-opacity: 0.3; stroke-width: 0.1"/>
    <path d="M 117.988196 114.405901 
L 132.201112 113.062561 
L 137.156466 105.654017 
L 123.072455 107.018765 
z
" clip-path="url(#pa983873b01)" style="fill: #96de29; fill-opacity: 0.3; stroke: #a9a9a9; stroke-opacity: 0.3; stroke-width: 0.1"/>
    <path d="M 84.525462 124.557955 
L 98.58924 123.263112 
L 103.91368 115.736161 
L 89.975552 117.053529 
z
" clip-path="url(#pa983873b01)" style="fill: #96de29; fill-opacity: 0.3; stroke: #a9a9a9; stroke-opacity: 0.3; stroke-width: 0.1"/>
    <path d="M 50.989702 134.732163 
L 64.903655 133.486034 
L 70.59878 125.840175 
L 56.8072 127.109956 
z
" clip-path="url(#pa983873b01)" style="fill: #96de29; fill-opacity: 0.3; stroke: #a9a9a9; stroke-opacity: 0.3; stroke-width: 0.1"/>
    <path d="M 165.739513 102.884307 
L 180.242646 101.478946 
L 184.695538 94.16797 
L 170.327371 95.593675 
z
" clip-path="url(#pa983873b01)" style="fill: #96de29; fill-opacity: 0.3; stroke: #a9a9a9; stroke-opacity: 0.3; stroke-width: 0.1"/>
    <path d="M 132.201112 113.062561 
L 146.55448 111.705946 
L 151.378142 104.27593 
L 137.156466 105.654017 
z
" clip-path="url(#pa983873b01)" style="fill: #96de29; fill-opacity: 0.3; stroke: #a9a9a9; stroke-opacity: 0.3; stroke-width: 0.1"/>
    <path d="M 98.58924 123.263112 
L 112.792149 121.95546 
L 117.988196 114.405901 
L 103.91368 115.736161 
z
" clip-path="url(#pa983873b01)" style="fill: #96de29; fill-opacity: 0.3; stroke: #a9a9a9; stroke-opacity: 0.3; stroke-width: 0.1"/>
    <path d="M 64.903655 133.486034 
L 78.955408 132.227564 
L 84.525462 124.557955 
L 70.59878 125.840175 
z
" clip-path="url(#pa983873b01)" style="fill: #96de29; fill-opacity: 0.3; stroke: #a9a9a9; stroke-opacity: 0.3; stroke-width: 0.1"/>
    <path d="M 180.242646 101.478946 
L 194.889652 100.059645 
L 199.204683 92.728277 
L 184.695538 94.16797 
z
" clip-path="url(#pa983873b01)" style="fill: #96de29; fill-opacity: 0.3; stroke: #a9a9a9; stroke-opacity: 0.3; stroke-width: 0.1"/>
    <path d="M 146.55448 111.705946 
L 161.050391 110.335858 
L 165.739513 102.884307 
L 151.378142 104.27593 
z
" clip-path="url(#pa983873b01)" style="fill: #96de29; fill-opacity: 0.3; stroke: #a9a9a9; stroke-opacity: 0.3; stroke-width: 0.1"/>
    <path d="M 112.792149 121.95546 
L 127.136263 120.634807 
L 132.201112 113.062561 
L 117.988196 114.405901 
z
" clip-path="url(#pa983873b01)" style="fill: #96de29; fill-opacity: 0.3; stroke: #a9a9a9; stroke-opacity: 0.3; stroke-width: 0.1"/>
    <path d="M 78.955408 132.227564 
L 93.147019 130.956567 
L 98.58924 123.263112 
L 84.525462 124.557955 
z
" clip-path="url(#pa983873b01)" style="fill: #96de29; fill-opacity: 0.3; stroke: #a9a9a9; stroke-opacity: 0.3; stroke-width: 0.1"/>
    <path d="M 45.044012 142.522331 
L 59.082409 141.301214 
L 64.903655 133.486034 
L 50.989702 134.732163 
z
" clip-path="url(#pa983873b01)" style="fill: #96de29; fill-opacity: 0.3; stroke: #a9a9a9; stroke-opacity: 0.3; stroke-width: 0.1"/>
    <path d="M 161.050391 110.335858 
L 175.69098 108.952096 
L 180.242646 101.478946 
L 165.739513 102.884307 
z
" clip-path="url(#pa983873b01)" style="fill: #96de29; fill-opacity: 0.3; stroke: #a9a9a9; stroke-opacity: 0.3; stroke-width: 0.1"/>
    <path d="M 127.136263 120.634807 
L 141.623699 119.300959 
L 146.55448 111.705946 
L 132.201112 113.062561 
z
" clip-path="url(#pa983873b01)" style="fill: #96de29; fill-opacity: 0.3; stroke: #a9a9a9; stroke-opacity: 0.3; stroke-width: 0.1"/>
    <path d="M 93.147019 130.956567 
L 107.480586 129.672858 
L 112.792149 121.95546 
L 98.58924 123.263112 
z
" clip-path="url(#pa983873b01)" style="fill: #96de29; fill-opacity: 0.3; stroke: #a9a9a9; stroke-opacity: 0.3; stroke-width: 0.1"/>
    <path d="M 59.082409 141.301214 
L 73.261386 140.06787 
L 78.955408 132.227564 
L 64.903655 133.486034 
z
" clip-path="url(#pa983873b01)" style="fill: #96de29; fill-opacity: 0.3; stroke: #a9a9a9; stroke-opacity: 0.3; stroke-width: 0.1"/>
    <path d="M 175.69098 108.952096 
L 190.478424 107.554454 
L 194.889652 100.059645 
L 180.242646 101.478946 
z
" clip-path="url(#pa983873b01)" style="fill: #96de29; fill-opacity: 0.3; stroke: #a9a9a9; stroke-opacity: 0.3; stroke-width: 0.1"/>
    <path d="M 141.623699 119.300959 
L 156.256616 117.953716 
L 161.050391 110.335858 
L 146.55448 111.705946 
z
" clip-path="url(#pa983873b01)" style="fill: #96de29; fill-opacity: 0.3; stroke: #a9a9a9; stroke-opacity: 0.3; stroke-width: 0.1"/>
    <path d="M 107.480586 129.672858 
L 121.958249 128.376243 
L 127.136263 120.634807 
L 112.792149 121.95546 
z
" clip-path="url(#pa983873b01)" style="fill: #96de29; fill-opacity: 0.3; stroke: #a9a9a9; stroke-opacity: 0.3; stroke-width: 0.1"/>
    <path d="M 73.261386 140.06787 
L 87.583064 138.822112 
L 93.147019 130.956567 
L 78.955408 132.227564 
z
" clip-path="url(#pa983873b01)" style="fill: #96de29; fill-opacity: 0.3; stroke: #a9a9a9; stroke-opacity: 0.3; stroke-width: 0.1"/>
    <path d="M 38.965845 150.486072 
L 53.130805 149.291403 
L 59.082409 141.301214 
L 45.044012 142.522331 
z
" clip-path="url(#pa983873b01)" style="fill: #96de29; fill-opacity: 0.3; stroke: #a9a9a9; stroke-opacity: 0.3; stroke-width: 0.1"/>
    <path d="M 156.256616 117.953716 
L 171.037216 116.592876 
L 175.69098 108.952096 
L 161.050391 110.335858 
z
" clip-path="url(#pa983873b01)" style="fill: #96de29; fill-opacity: 0.3; stroke: #a9a9a9; stroke-opacity: 0.3; stroke-width: 0.1"/>
    <path d="M 121.958249 128.376243 
L 136.582192 127.066527 
L 141.623699 119.300959 
L 127.136263 120.634807 
z
" clip-path="url(#pa983873b01)" style="fill: #96de29; fill-opacity: 0.3; stroke: #a9a9a9; stroke-opacity: 0.3; stroke-width: 0.1"/>
    <path d="M 87.583064 138.822112 
L 102.04961 137.563754 
L 107.480586 129.672858 
L 93.147019 130.956567 
z
" clip-path="url(#pa983873b01)" style="fill: #96de29; fill-opacity: 0.3; stroke: #a9a9a9; stroke-opacity: 0.3; stroke-width: 0.1"/>
    <path d="M 53.130805 149.291403 
L 67.439208 148.084636 
L 73.261386 140.06787 
L 59.082409 141.301214 
z
" clip-path="url(#pa983873b01)" style="fill: #96de29; fill-opacity: 0.3; stroke: #a9a9a9; stroke-opacity: 0.3; stroke-width: 0.1"/>
    <path d="M 171.037216 116.592876 
L 185.967746 115.218233 
L 190.478424 107.554454 
L 175.69098 108.952096 
z
" clip-path="url(#pa983873b01)" style="fill: #96de29; fill-opacity: 0.3; stroke: #a9a9a9; stroke-opacity: 0.3; stroke-width: 0.1"/>
    <path d="M 136.582192 127.066527 
L 151.354644 125.743511 
L 156.256616 117.953716 
L 141.623699 119.300959 
z
" clip-path="url(#pa983873b01)" style="fill: #96de29; fill-opacity: 0.3; stroke: #a9a9a9; stroke-opacity: 0.3; stroke-width: 0.1"/>
    <path d="M 102.04961 137.563754 
L 116.663233 136.292602 
L 121.958249 128.376243 
L 107.480586 129.672858 
z
" clip-path="url(#pa983873b01)" style="fill: #96de29; fill-opacity: 0.3; stroke: #a9a9a9; stroke-opacity: 0.3; stroke-width: 0.1"/>
    <path d="M 67.439208 148.084636 
L 81.893245 146.865586 
L 87.583064 138.822112 
L 73.261386 140.06787 
z
" clip-path="url(#pa983873b01)" style="fill: #96de29; fill-opacity: 0.3; stroke: #a9a9a9; stroke-opacity: 0.3; stroke-width: 0.1"/>
    <path d="M 32.750723 158.629255 
L 47.044415 157.462546 
L 53.130805 149.291403 
L 38.965845 150.486072 
z
" clip-path="url(#pa983873b01)" style="fill: #96de29; fill-opacity: 0.3; stroke: #a9a9a9; stroke-opacity: 0.3; stroke-width: 0.1"/>
    <path d="M 151.354644 125.743511 
L 166.277879 124.406991 
L 171.037216 116.592876 
L 156.256616 117.953716 
z
" clip-path="url(#pa983873b01)" style="fill: #96de29; fill-opacity: 0.3; stroke: #a9a9a9; stroke-opacity: 0.3; stroke-width: 0.1"/>
    <path d="M 116.663233 136.292602 
L 131.426186 135.008461 
L 136.582192 127.066527 
L 121.958249 128.376243 
z
" clip-path="url(#pa983873b01)" style="fill: #96de29; fill-opacity: 0.3; stroke: #a9a9a9; stroke-opacity: 0.3; stroke-width: 0.1"/>
    <path d="M 81.893245 146.865586 
L 96.495151 145.634065 
L 102.04961 137.563754 
L 87.583064 138.822112 
z
" clip-path="url(#pa983873b01)" style="fill: #96de29; fill-opacity: 0.3; stroke: #a9a9a9; stroke-opacity: 0.3; stroke-width: 0.1"/>
    <path d="M 47.044415 157.462546 
L 61.484501 156.283888 
L 67.439208 148.084636 
L 53.130805 149.291403 
z
" clip-path="url(#pa983873b01)" style="fill: #96de29; fill-opacity: 0.3; stroke: #a9a9a9; stroke-opacity: 0.3; stroke-width: 0.1"/>
    <path d="M 166.277879 124.406991 
L 181.354216 123.056759 
L 185.967746 115.218233 
L 171.037216 116.592876 
z
" clip-path="url(#pa983873b01)" style="fill: #96de29; fill-opacity: 0.3; stroke: #a9a9a9; stroke-opacity: 0.3; stroke-width: 0.1"/>
    <path d="M 131.426186 135.008461 
L 146.340771 133.71113 
L 151.354644 125.743511 
L 136.582192 127.066527 
z
" clip-path="url(#pa983873b01)" style="fill: #96de29; fill-opacity: 0.3; stroke: #a9a9a9; stroke-opacity: 0.3; stroke-width: 0.1"/>
    <path d="M 96.495151 145.634065 
L 111.247205 144.389881 
L 116.663233 136.292602 
L 102.04961 137.563754 
z
" clip-path="url(#pa983873b01)" style="fill: #96de29; fill-opacity: 0.3; stroke: #a9a9a9; stroke-opacity: 0.3; stroke-width: 0.1"/>
    <path d="M 61.484501 156.283888 
L 76.073243 155.093096 
L 81.893245 146.865586 
L 67.439208 148.084636 
z
" clip-path="url(#pa983873b01)" style="fill: #96de29; fill-opacity: 0.3; stroke: #a9a9a9; stroke-opacity: 0.3; stroke-width: 0.1"/>
    <path d="M 26.393966 166.958011 
L 40.818608 165.82086 
L 47.044415 157.462546 
L 32.750723 158.629255 
z
" clip-path="url(#pa983873b01)" style="fill: #96de29; fill-opacity: 0.3; stroke: #a9a9a9; stroke-opacity: 0.3; stroke-width: 0.1"/>
    <path d="M 146.340771 133.71113 
L 161.409335 132.400405 
L 166.277879 124.406991 
L 151.354644 125.743511 
z
" clip-path="url(#pa983873b01)" style="fill: #96de29; fill-opacity: 0.3; stroke: #a9a9a9; stroke-opacity: 0.3; stroke-width: 0.1"/>
    <path d="M 111.247205 144.389881 
L 126.151736 143.132837 
L 131.426186 135.008461 
L 116.663233 136.292602 
z
" clip-path="url(#pa983873b01)" style="fill: #96de29; fill-opacity: 0.3; stroke: #a9a9a9; stroke-opacity: 0.3; stroke-width: 0.1"/>
    <path d="M 76.073243 155.093096 
L 90.812947 153.889982 
L 96.495151 145.634065 
L 81.893245 146.865586 
z
" clip-path="url(#pa983873b01)" style="fill: #96de29; fill-opacity: 0.3; stroke: #a9a9a9; stroke-opacity: 0.3; stroke-width: 0.1"/>
    <path d="M 40.818608 165.82086 
L 55.392687 164.671928 
L 61.484501 156.283888 
L 47.044415 157.462546 
z
" clip-path="url(#pa983873b01)" style="fill: #96de29; fill-opacity: 0.3; stroke: #a9a9a9; stroke-opacity: 0.3; stroke-width: 0.1"/>
    <path d="M 161.409335 132.400405 
L 176.634276 131.076078 
L 181.354216 123.056759 
L 166.277879 124.406991 
z
" clip-path="url(#pa983873b01)" style="fill: #96de29; fill-opacity: 0.3; stroke: #a9a9a9; stroke-opacity: 0.3; stroke-width: 0.1"/>
    <path d="M 126.151736 143.132837 
L 141.21112 141.862732 
L 146.340771 133.71113 
L 131.426186 135.008461 
z
" clip-path="url(#pa983873b01)" style="fill: #96de29; fill-opacity: 0.3; stroke: #a9a9a9; stroke-opacity: 0.3; stroke-width: 0.1"/>
    <path d="M 90.812947 153.889982 
L 105.705968 152.674354 
L 111.247205 144.389881 
L 96.495151 145.634065 
z
" clip-path="url(#pa983873b01)" style="fill: #96de29; fill-opacity: 0.3; stroke: #a9a9a9; stroke-opacity: 0.3; stroke-width: 0.1"/>
    <path d="M 55.392687 164.671928 
L 70.118537 163.511031 
L 76.073243 155.093096 
L 61.484501 156.283888 
z
" clip-path="url(#pa983873b01)" style="fill: #96de29; fill-opacity: 0.3; stroke: #a9a9a9; stroke-opacity: 0.3; stroke-width: 0.1"/>
    <path d="M 141.21112 141.862732 
L 156.427783 140.579363 
L 161.409335 132.400405 
L 146.340771 133.71113 
z
" clip-path="url(#pa983873b01)" style="fill: #96de29; fill-opacity: 0.3; stroke: #a9a9a9; stroke-opacity: 0.3; stroke-width: 0.1"/>
    <path d="M 105.705968 152.674354 
L 120.754713 151.446015 
L 126.151736 143.132837 
L 111.247205 144.389881 
z
" clip-path="url(#pa983873b01)" style="fill: #96de29; fill-opacity: 0.3; stroke: #a9a9a9; stroke-opacity: 0.3; stroke-width: 0.1"/>
    <path d="M 70.118537 163.511031 
L 84.99854 162.337982 
L 90.812947 153.889982 
L 76.073243 155.093096 
z
" clip-path="url(#pa983873b01)" style="fill: #96de29; fill-opacity: 0.3; stroke: #a9a9a9; stroke-opacity: 0.3; stroke-width: 0.1"/>
    <path d="M 156.427783 140.579363 
L 171.804203 139.282519 
L 176.634276 131.076078 
L 161.409335 132.400405 
z
" clip-path="url(#pa983873b01)" style="fill: #96de29; fill-opacity: 0.3; stroke: #a9a9a9; stroke-opacity: 0.3; stroke-width: 0.1"/>
    <path d="M 120.754713 151.446015 
L 135.961635 150.204765 
L 141.21112 141.862732 
L 126.151736 143.132837 
z
" clip-path="url(#pa983873b01)" style="fill: #96de29; fill-opacity: 0.3; stroke: #a9a9a9; stroke-opacity: 0.3; stroke-width: 0.1"/>
    <path d="M 84.99854 162.337982 
L 100.035131 161.152588 
L 105.705968 152.674354 
L 90.812947 153.889982 
z
" clip-path="url(#pa983873b01)" style="fill: #96de29; fill-opacity: 0.3; stroke: #a9a9a9; stroke-opacity: 0.3; stroke-width: 0.1"/>
    <path d="M 135.961635 150.204765 
L 151.329242 148.950399 
L 156.427783 140.579363 
L 141.21112 141.862732 
z
" clip-path="url(#pa983873b01)" style="fill: #96de29; fill-opacity: 0.3; stroke: #a9a9a9; stroke-opacity: 0.3; stroke-width: 0.1"/>
    <path d="M 100.035131 161.152588 
L 115.230794 159.954654 
L 120.754713 151.446015 
L 105.705968 152.674354 
z
" clip-path="url(#pa983873b01)" style="fill: #96de29; fill-opacity: 0.3; stroke: #a9a9a9; stroke-opacity: 0.3; stroke-width: 0.1"/>
    <path d="M 151.329242 148.950399 
L 166.860094 147.682708 
L 171.804203 139.282519 
L 156.427783 140.579363 
z
" clip-path="url(#pa983873b01)" style="fill: #96de29; fill-opacity: 0.3; stroke: #a9a9a9; stroke-opacity: 0.3; stroke-width: 0.1"/>
    <path d="M 115.230794 159.954654 
L 130.588067 158.74398 
L 135.961635 150.204765 
L 120.754713 151.446015 
z
" clip-path="url(#pa983873b01)" style="fill: #96de29; fill-opacity: 0.3; stroke: #a9a9a9; stroke-opacity: 0.3; stroke-width: 0.1"/>
    <path d="M 130.588067 158.74398 
L 146.109541 157.520361 
L 151.329242 148.950399 
L 135.961635 150.204765 
z
" clip-path="url(#pa983873b01)" style="fill: #96de29; fill-opacity: 0.3; stroke: #a9a9a9; stroke-opacity: 0.3; stroke-width: 0.1"/>
    <path d="M 146.109541 157.520361 
L 161.797865 156.283589 
L 166.860094 147.682708 
L 151.329242 148.950399 
z
" clip-path="url(#pa983873b01)" style="fill: #96de29; fill-opacity: 0.3; stroke: #a9a9a9; stroke-opacity: 0.3; stroke-width: 0.1"/>
   </g>
   <g id="Poly3DCollection_3">
    <path d="M 73.530698 105.198481 
L 86.967126 103.865229 
L 92.19664 96.844466 
L 78.874755 98.196585 
z
" clip-path="url(#pa983873b01)" style="fill: #3d719d; fill-opacity: 0.3; stroke: #696969; stroke-opacity: 0.3; stroke-width: 0.1"/>
    <path d="M 86.967126 103.865229 
L 100.531014 102.519331 
L 105.643579 95.479655 
L 92.19664 96.844466 
z
" clip-path="url(#pa983873b01)" style="fill: #3d719d; fill-opacity: 0.3; stroke: #696969; stroke-opacity: 0.3; stroke-width: 0.1"/>
    <path d="M 100.531014 102.519331 
L 114.224185 101.160604 
L 119.217343 94.101972 
L 105.643579 95.479655 
z
" clip-path="url(#pa983873b01)" style="fill: #3d719d; fill-opacity: 0.3; stroke: #696969; stroke-opacity: 0.3; stroke-width: 0.1"/>
    <path d="M 68.073851 112.348155 
L 81.626715 111.034876 
L 86.967126 103.865229 
L 73.530698 105.198481 
z
" clip-path="url(#pa983873b01)" style="fill: #3d719d; fill-opacity: 0.3; stroke: #696969; stroke-opacity: 0.3; stroke-width: 0.1"/>
    <path d="M 114.224185 101.160604 
L 128.048494 99.788864 
L 132.919733 92.711233 
L 119.217343 94.101972 
z
" clip-path="url(#pa983873b01)" style="fill: #3d719d; fill-opacity: 0.3; stroke: #696969; stroke-opacity: 0.3; stroke-width: 0.1"/>
    <path d="M 81.626715 111.034876 
L 95.309512 109.709007 
L 100.531014 102.519331 
L 86.967126 103.865229 
z
" clip-path="url(#pa983873b01)" style="fill: #3d719d; fill-opacity: 0.3; stroke: #696969; stroke-opacity: 0.3; stroke-width: 0.1"/>
    <path d="M 128.048494 99.788864 
L 142.005836 98.403925 
L 146.752587 91.307253 
L 132.919733 92.711233 
z
" clip-path="url(#pa983873b01)" style="fill: #3d719d; fill-opacity: 0.3; stroke: #696969; stroke-opacity: 0.3; stroke-width: 0.1"/>
    <path d="M 95.309512 109.709007 
L 109.124121 108.370365 
L 114.224185 101.160604 
L 100.531014 102.519331 
z
" clip-path="url(#pa983873b01)" style="fill: #3d719d; fill-opacity: 0.3; stroke: #696969; stroke-opacity: 0.3; stroke-width: 0.1"/>
    <path d="M 62.500607 119.650336 
L 76.171839 118.358193 
L 81.626715 111.034876 
L 68.073851 112.348155 
z
" clip-path="url(#pa983873b01)" style="fill: #3d719d; fill-opacity: 0.3; stroke: #696969; stroke-opacity: 0.3; stroke-width: 0.1"/>
    <path d="M 142.005836 98.403925 
L 156.098139 97.005593 
L 160.717777 89.889841 
L 146.752587 91.307253 
z
" clip-path="url(#pa983873b01)" style="fill: #3d719d; fill-opacity: 0.3; stroke: #696969; stroke-opacity: 0.3; stroke-width: 0.1"/>
    <path d="M 109.124121 108.370365 
L 123.072455 107.018765 
L 128.048494 99.788864 
L 114.224185 101.160604 
z
" clip-path="url(#pa983873b01)" style="fill: #3d719d; fill-opacity: 0.3; stroke: #696969; stroke-opacity: 0.3; stroke-width: 0.1"/>
    <path d="M 76.171839 118.358193 
L 89.975552 117.053529 
L 95.309512 109.709007 
L 81.626715 111.034876 
z
" clip-path="url(#pa983873b01)" style="fill: #3d719d; fill-opacity: 0.3; stroke: #696969; stroke-opacity: 0.3; stroke-width: 0.1"/>
    <path d="M 156.098139 97.005593 
L 170.327371 95.593675 
L 174.817212 88.458804 
L 160.717777 89.889841 
z
" clip-path="url(#pa983873b01)" style="fill: #3d719d; fill-opacity: 0.3; stroke: #696969; stroke-opacity: 0.3; stroke-width: 0.1"/>
    <path d="M 123.072455 107.018765 
L 137.156466 105.654017 
L 142.005836 98.403925 
L 128.048494 99.788864 
z
" clip-path="url(#pa983873b01)" style="fill: #3d719d; fill-opacity: 0.3; stroke: #696969; stroke-opacity: 0.3; stroke-width: 0.1"/>
    <path d="M 89.975552 117.053529 
L 103.91368 115.736161 
L 109.124121 108.370365 
L 95.309512 109.709007 
z
" clip-path="url(#pa983873b01)" style="fill: #3d719d; fill-opacity: 0.3; stroke: #696969; stroke-opacity: 0.3; stroke-width: 0.1"/>
    <path d="M 56.8072 127.109956 
L 70.59878 125.840175 
L 76.171839 118.358193 
L 62.500607 119.650336 
z
" clip-path="url(#pa983873b01)" style="fill: #3d719d; fill-opacity: 0.3; stroke: #696969; stroke-opacity: 0.3; stroke-width: 0.1"/>
    <path d="M 170.327371 95.593675 
L 184.695538 94.16797 
L 189.052835 87.013945 
L 174.817212 88.458804 
z
" clip-path="url(#pa983873b01)" style="fill: #3d719d; fill-opacity: 0.3; stroke: #696969; stroke-opacity: 0.3; stroke-width: 0.1"/>
    <path d="M 137.156466 105.654017 
L 151.378142 104.27593 
L 156.098139 97.005593 
L 142.005836 98.403925 
z
" clip-path="url(#pa983873b01)" style="fill: #3d719d; fill-opacity: 0.3; stroke: #696969; stroke-opacity: 0.3; stroke-width: 0.1"/>
    <path d="M 103.91368 115.736161 
L 117.988196 114.405901 
L 123.072455 107.018765 
L 109.124121 108.370365 
z
" clip-path="url(#pa983873b01)" style="fill: #3d719d; fill-opacity: 0.3; stroke: #696969; stroke-opacity: 0.3; stroke-width: 0.1"/>
    <path d="M 70.59878 125.840175 
L 84.525462 124.557955 
L 89.975552 117.053529 
L 76.171839 118.358193 
z
" clip-path="url(#pa983873b01)" style="fill: #3d719d; fill-opacity: 0.3; stroke: #696969; stroke-opacity: 0.3; stroke-width: 0.1"/>
    <path d="M 184.695538 94.16797 
L 199.204683 92.728277 
L 203.42663 85.555061 
L 189.052835 87.013945 
z
" clip-path="url(#pa983873b01)" style="fill: #3d719d; fill-opacity: 0.3; stroke: #696969; stroke-opacity: 0.3; stroke-width: 0.1"/>
    <path d="M 151.378142 104.27593 
L 165.739513 102.884307 
L 170.327371 95.593675 
L 156.098139 97.005593 
z
" clip-path="url(#pa983873b01)" style="fill: #3d719d; fill-opacity: 0.3; stroke: #696969; stroke-opacity: 0.3; stroke-width: 0.1"/>
    <path d="M 117.988196 114.405901 
L 132.201112 113.062561 
L 137.156466 105.654017 
L 123.072455 107.018765 
z
" clip-path="url(#pa983873b01)" style="fill: #3d719d; fill-opacity: 0.3; stroke: #696969; stroke-opacity: 0.3; stroke-width: 0.1"/>
    <path d="M 84.525462 124.557955 
L 98.58924 123.263112 
L 103.91368 115.736161 
L 89.975552 117.053529 
z
" clip-path="url(#pa983873b01)" style="fill: #3d719d; fill-opacity: 0.3; stroke: #696969; stroke-opacity: 0.3; stroke-width: 0.1"/>
    <path d="M 50.989702 134.732163 
L 64.903655 133.486034 
L 70.59878 125.840175 
L 56.8072 127.109956 
z
" clip-path="url(#pa983873b01)" style="fill: #3d719d; fill-opacity: 0.3; stroke: #696969; stroke-opacity: 0.3; stroke-width: 0.1"/>
    <path d="M 165.739513 102.884307 
L 180.242646 101.478946 
L 184.695538 94.16797 
L 170.327371 95.593675 
z
" clip-path="url(#pa983873b01)" style="fill: #3d719d; fill-opacity: 0.3; stroke: #696969; stroke-opacity: 0.3; stroke-width: 0.1"/>
    <path d="M 132.201112 113.062561 
L 146.55448 111.705946 
L 151.378142 104.27593 
L 137.156466 105.654017 
z
" clip-path="url(#pa983873b01)" style="fill: #3d719d; fill-opacity: 0.3; stroke: #696969; stroke-opacity: 0.3; stroke-width: 0.1"/>
    <path d="M 98.58924 123.263112 
L 112.792149 121.95546 
L 117.988196 114.405901 
L 103.91368 115.736161 
z
" clip-path="url(#pa983873b01)" style="fill: #3d719d; fill-opacity: 0.3; stroke: #696969; stroke-opacity: 0.3; stroke-width: 0.1"/>
    <path d="M 64.903655 133.486034 
L 78.955408 132.227564 
L 84.525462 124.557955 
L 70.59878 125.840175 
z
" clip-path="url(#pa983873b01)" style="fill: #3d719d; fill-opacity: 0.3; stroke: #696969; stroke-opacity: 0.3; stroke-width: 0.1"/>
    <path d="M 180.242646 101.478946 
L 194.889652 100.059645 
L 199.204683 92.728277 
L 184.695538 94.16797 
z
" clip-path="url(#pa983873b01)" style="fill: #3d719d; fill-opacity: 0.3; stroke: #696969; stroke-opacity: 0.3; stroke-width: 0.1"/>
    <path d="M 146.55448 111.705946 
L 161.050391 110.335858 
L 165.739513 102.884307 
L 151.378142 104.27593 
z
" clip-path="url(#pa983873b01)" style="fill: #3d719d; fill-opacity: 0.3; stroke: #696969; stroke-opacity: 0.3; stroke-width: 0.1"/>
    <path d="M 112.792149 121.95546 
L 127.136263 120.634807 
L 132.201112 113.062561 
L 117.988196 114.405901 
z
" clip-path="url(#pa983873b01)" style="fill: #3d719d; fill-opacity: 0.3; stroke: #696969; stroke-opacity: 0.3; stroke-width: 0.1"/>
    <path d="M 78.955408 132.227564 
L 93.147019 130.956567 
L 98.58924 123.263112 
L 84.525462 124.557955 
z
" clip-path="url(#pa983873b01)" style="fill: #3d719d; fill-opacity: 0.3; stroke: #696969; stroke-opacity: 0.3; stroke-width: 0.1"/>
    <path d="M 45.044012 142.522331 
L 59.082409 141.301214 
L 64.903655 133.486034 
L 50.989702 134.732163 
z
" clip-path="url(#pa983873b01)" style="fill: #3d719d; fill-opacity: 0.3; stroke: #696969; stroke-opacity: 0.3; stroke-width: 0.1"/>
    <path d="M 161.050391 110.335858 
L 175.69098 108.952096 
L 180.242646 101.478946 
L 165.739513 102.884307 
z
" clip-path="url(#pa983873b01)" style="fill: #3d719d; fill-opacity: 0.3; stroke: #696969; stroke-opacity: 0.3; stroke-width: 0.1"/>
    <path d="M 127.136263 120.634807 
L 141.623699 119.300959 
L 146.55448 111.705946 
L 132.201112 113.062561 
z
" clip-path="url(#pa983873b01)" style="fill: #3d719d; fill-opacity: 0.3; stroke: #696969; stroke-opacity: 0.3; stroke-width: 0.1"/>
    <path d="M 93.147019 130.956567 
L 107.480586 129.672858 
L 112.792149 121.95546 
L 98.58924 123.263112 
z
" clip-path="url(#pa983873b01)" style="fill: #3d719d; fill-opacity: 0.3; stroke: #696969; stroke-opacity: 0.3; stroke-width: 0.1"/>
    <path d="M 59.082409 141.301214 
L 73.261386 140.06787 
L 78.955408 132.227564 
L 64.903655 133.486034 
z
" clip-path="url(#pa983873b01)" style="fill: #3d719d; fill-opacity: 0.3; stroke: #696969; stroke-opacity: 0.3; stroke-width: 0.1"/>
    <path d="M 175.69098 108.952096 
L 190.478424 107.554454 
L 194.889652 100.059645 
L 180.242646 101.478946 
z
" clip-path="url(#pa983873b01)" style="fill: #3d719d; fill-opacity: 0.3; stroke: #696969; stroke-opacity: 0.3; stroke-width: 0.1"/>
    <path d="M 141.623699 119.300959 
L 156.256616 117.953716 
L 161.050391 110.335858 
L 146.55448 111.705946 
z
" clip-path="url(#pa983873b01)" style="fill: #3d719d; fill-opacity: 0.3; stroke: #696969; stroke-opacity: 0.3; stroke-width: 0.1"/>
    <path d="M 107.480586 129.672858 
L 121.958249 128.376243 
L 127.136263 120.634807 
L 112.792149 121.95546 
z
" clip-path="url(#pa983873b01)" style="fill: #3d719d; fill-opacity: 0.3; stroke: #696969; stroke-opacity: 0.3; stroke-width: 0.1"/>
    <path d="M 73.261386 140.06787 
L 87.583064 138.822112 
L 93.147019 130.956567 
L 78.955408 132.227564 
z
" clip-path="url(#pa983873b01)" style="fill: #3d719d; fill-opacity: 0.3; stroke: #696969; stroke-opacity: 0.3; stroke-width: 0.1"/>
    <path d="M 38.965845 150.486072 
L 53.130805 149.291403 
L 59.082409 141.301214 
L 45.044012 142.522331 
z
" clip-path="url(#pa983873b01)" style="fill: #3d719d; fill-opacity: 0.3; stroke: #696969; stroke-opacity: 0.3; stroke-width: 0.1"/>
    <path d="M 156.256616 117.953716 
L 171.037216 116.592876 
L 175.69098 108.952096 
L 161.050391 110.335858 
z
" clip-path="url(#pa983873b01)" style="fill: #3d719d; fill-opacity: 0.3; stroke: #696969; stroke-opacity: 0.3; stroke-width: 0.1"/>
    <path d="M 121.958249 128.376243 
L 136.582192 127.066527 
L 141.623699 119.300959 
L 127.136263 120.634807 
z
" clip-path="url(#pa983873b01)" style="fill: #3d719d; fill-opacity: 0.3; stroke: #696969; stroke-opacity: 0.3; stroke-width: 0.1"/>
    <path d="M 87.583064 138.822112 
L 102.04961 137.563754 
L 107.480586 129.672858 
L 93.147019 130.956567 
z
" clip-path="url(#pa983873b01)" style="fill: #3d719d; fill-opacity: 0.3; stroke: #696969; stroke-opacity: 0.3; stroke-width: 0.1"/>
    <path d="M 53.130805 149.291403 
L 67.439208 148.084636 
L 73.261386 140.06787 
L 59.082409 141.301214 
z
" clip-path="url(#pa983873b01)" style="fill: #3d719d; fill-opacity: 0.3; stroke: #696969; stroke-opacity: 0.3; stroke-width: 0.1"/>
    <path d="M 171.037216 116.592876 
L 185.967746 115.218233 
L 190.478424 107.554454 
L 175.69098 108.952096 
z
" clip-path="url(#pa983873b01)" style="fill: #3d719d; fill-opacity: 0.3; stroke: #696969; stroke-opacity: 0.3; stroke-width: 0.1"/>
    <path d="M 136.582192 127.066527 
L 151.354644 125.743511 
L 156.256616 117.953716 
L 141.623699 119.300959 
z
" clip-path="url(#pa983873b01)" style="fill: #3d719d; fill-opacity: 0.3; stroke: #696969; stroke-opacity: 0.3; stroke-width: 0.1"/>
    <path d="M 102.04961 137.563754 
L 116.663233 136.292602 
L 121.958249 128.376243 
L 107.480586 129.672858 
z
" clip-path="url(#pa983873b01)" style="fill: #3d719d; fill-opacity: 0.3; stroke: #696969; stroke-opacity: 0.3; stroke-width: 0.1"/>
    <path d="M 67.439208 148.084636 
L 81.893245 146.865586 
L 87.583064 138.822112 
L 73.261386 140.06787 
z
" clip-path="url(#pa983873b01)" style="fill: #3d719d; fill-opacity: 0.3; stroke: #696969; stroke-opacity: 0.3; stroke-width: 0.1"/>
    <path d="M 32.750723 158.629255 
L 47.044415 157.462546 
L 53.130805 149.291403 
L 38.965845 150.486072 
z
" clip-path="url(#pa983873b01)" style="fill: #3d719d; fill-opacity: 0.3; stroke: #696969; stroke-opacity: 0.3; stroke-width: 0.1"/>
    <path d="M 151.354644 125.743511 
L 166.277879 124.406991 
L 171.037216 116.592876 
L 156.256616 117.953716 
z
" clip-path="url(#pa983873b01)" style="fill: #3d719d; fill-opacity: 0.3; stroke: #696969; stroke-opacity: 0.3; stroke-width: 0.1"/>
    <path d="M 116.663233 136.292602 
L 131.426186 135.008461 
L 136.582192 127.066527 
L 121.958249 128.376243 
z
" clip-path="url(#pa983873b01)" style="fill: #3d719d; fill-opacity: 0.3; stroke: #696969; stroke-opacity: 0.3; stroke-width: 0.1"/>
    <path d="M 81.893245 146.865586 
L 96.495151 145.634065 
L 102.04961 137.563754 
L 87.583064 138.822112 
z
" clip-path="url(#pa983873b01)" style="fill: #3d719d; fill-opacity: 0.3; stroke: #696969; stroke-opacity: 0.3; stroke-width: 0.1"/>
    <path d="M 47.044415 157.462546 
L 61.484501 156.283888 
L 67.439208 148.084636 
L 53.130805 149.291403 
z
" clip-path="url(#pa983873b01)" style="fill: #3d719d; fill-opacity: 0.3; stroke: #696969; stroke-opacity: 0.3; stroke-width: 0.1"/>
    <path d="M 166.277879 124.406991 
L 181.354216 123.056759 
L 185.967746 115.218233 
L 171.037216 116.592876 
z
" clip-path="url(#pa983873b01)" style="fill: #3d719d; fill-opacity: 0.3; stroke: #696969; stroke-opacity: 0.3; stroke-width: 0.1"/>
    <path d="M 131.426186 135.008461 
L 146.340771 133.71113 
L 151.354644 125.743511 
L 136.582192 127.066527 
z
" clip-path="url(#pa983873b01)" style="fill: #3d719d; fill-opacity: 0.3; stroke: #696969; stroke-opacity: 0.3; stroke-width: 0.1"/>
    <path d="M 96.495151 145.634065 
L 111.247205 144.389881 
L 116.663233 136.292602 
L 102.04961 137.563754 
z
" clip-path="url(#pa983873b01)" style="fill: #3d719d; fill-opacity: 0.3; stroke: #696969; stroke-opacity: 0.3; stroke-width: 0.1"/>
    <path d="M 61.484501 156.283888 
L 76.073243 155.093096 
L 81.893245 146.865586 
L 67.439208 148.084636 
z
" clip-path="url(#pa983873b01)" style="fill: #3d719d; fill-opacity: 0.3; stroke: #696969; stroke-opacity: 0.3; stroke-width: 0.1"/>
    <path d="M 26.393966 166.958011 
L 40.818608 165.82086 
L 47.044415 157.462546 
L 32.750723 158.629255 
z
" clip-path="url(#pa983873b01)" style="fill: #3d719d; fill-opacity: 0.3; stroke: #696969; stroke-opacity: 0.3; stroke-width: 0.1"/>
    <path d="M 146.340771 133.71113 
L 161.409335 132.400405 
L 166.277879 124.406991 
L 151.354644 125.743511 
z
" clip-path="url(#pa983873b01)" style="fill: #3d719d; fill-opacity: 0.3; stroke: #696969; stroke-opacity: 0.3; stroke-width: 0.1"/>
    <path d="M 111.247205 144.389881 
L 126.151736 143.132837 
L 131.426186 135.008461 
L 116.663233 136.292602 
z
" clip-path="url(#pa983873b01)" style="fill: #3d719d; fill-opacity: 0.3; stroke: #696969; stroke-opacity: 0.3; stroke-width: 0.1"/>
    <path d="M 76.073243 155.093096 
L 90.812947 153.889982 
L 96.495151 145.634065 
L 81.893245 146.865586 
z
" clip-path="url(#pa983873b01)" style="fill: #3d719d; fill-opacity: 0.3; stroke: #696969; stroke-opacity: 0.3; stroke-width: 0.1"/>
    <path d="M 40.818608 165.82086 
L 55.392687 164.671928 
L 61.484501 156.283888 
L 47.044415 157.462546 
z
" clip-path="url(#pa983873b01)" style="fill: #3d719d; fill-opacity: 0.3; stroke: #696969; stroke-opacity: 0.3; stroke-width: 0.1"/>
    <path d="M 161.409335 132.400405 
L 176.634276 131.076078 
L 181.354216 123.056759 
L 166.277879 124.406991 
z
" clip-path="url(#pa983873b01)" style="fill: #3d719d; fill-opacity: 0.3; stroke: #696969; stroke-opacity: 0.3; stroke-width: 0.1"/>
    <path d="M 126.151736 143.132837 
L 141.21112 141.862732 
L 146.340771 133.71113 
L 131.426186 135.008461 
z
" clip-path="url(#pa983873b01)" style="fill: #3d719d; fill-opacity: 0.3; stroke: #696969; stroke-opacity: 0.3; stroke-width: 0.1"/>
    <path d="M 90.812947 153.889982 
L 105.705968 152.674354 
L 111.247205 144.389881 
L 96.495151 145.634065 
z
" clip-path="url(#pa983873b01)" style="fill: #3d719d; fill-opacity: 0.3; stroke: #696969; stroke-opacity: 0.3; stroke-width: 0.1"/>
    <path d="M 55.392687 164.671928 
L 70.118537 163.511031 
L 76.073243 155.093096 
L 61.484501 156.283888 
z
" clip-path="url(#pa983873b01)" style="fill: #3d719d; fill-opacity: 0.3; stroke: #696969; stroke-opacity: 0.3; stroke-width: 0.1"/>
    <path d="M 141.21112 141.862732 
L 156.427783 140.579363 
L 161.409335 132.400405 
L 146.340771 133.71113 
z
" clip-path="url(#pa983873b01)" style="fill: #3d719d; fill-opacity: 0.3; stroke: #696969; stroke-opacity: 0.3; stroke-width: 0.1"/>
    <path d="M 105.705968 152.674354 
L 120.754713 151.446015 
L 126.151736 143.132837 
L 111.247205 144.389881 
z
" clip-path="url(#pa983873b01)" style="fill: #3d719d; fill-opacity: 0.3; stroke: #696969; stroke-opacity: 0.3; stroke-width: 0.1"/>
    <path d="M 70.118537 163.511031 
L 84.99854 162.337982 
L 90.812947 153.889982 
L 76.073243 155.093096 
z
" clip-path="url(#pa983873b01)" style="fill: #3d719d; fill-opacity: 0.3; stroke: #696969; stroke-opacity: 0.3; stroke-width: 0.1"/>
    <path d="M 156.427783 140.579363 
L 171.804203 139.282519 
L 176.634276 131.076078 
L 161.409335 132.400405 
z
" clip-path="url(#pa983873b01)" style="fill: #3d719d; fill-opacity: 0.3; stroke: #696969; stroke-opacity: 0.3; stroke-width: 0.1"/>
    <path d="M 120.754713 151.446015 
L 135.961635 150.204765 
L 141.21112 141.862732 
L 126.151736 143.132837 
z
" clip-path="url(#pa983873b01)" style="fill: #3d719d; fill-opacity: 0.3; stroke: #696969; stroke-opacity: 0.3; stroke-width: 0.1"/>
    <path d="M 84.99854 162.337982 
L 100.035131 161.152588 
L 105.705968 152.674354 
L 90.812947 153.889982 
z
" clip-path="url(#pa983873b01)" style="fill: #3d719d; fill-opacity: 0.3; stroke: #696969; stroke-opacity: 0.3; stroke-width: 0.1"/>
    <path d="M 135.961635 150.204765 
L 151.329242 148.950399 
L 156.427783 140.579363 
L 141.21112 141.862732 
z
" clip-path="url(#pa983873b01)" style="fill: #3d719d; fill-opacity: 0.3; stroke: #696969; stroke-opacity: 0.3; stroke-width: 0.1"/>
    <path d="M 100.035131 161.152588 
L 115.230794 159.954654 
L 120.754713 151.446015 
L 105.705968 152.674354 
z
" clip-path="url(#pa983873b01)" style="fill: #3d719d; fill-opacity: 0.3; stroke: #696969; stroke-opacity: 0.3; stroke-width: 0.1"/>
    <path d="M 151.329242 148.950399 
L 166.860094 147.682708 
L 171.804203 139.282519 
L 156.427783 140.579363 
z
" clip-path="url(#pa983873b01)" style="fill: #3d719d; fill-opacity: 0.3; stroke: #696969; stroke-opacity: 0.3; stroke-width: 0.1"/>
    <path d="M 115.230794 159.954654 
L 130.588067 158.74398 
L 135.961635 150.204765 
L 120.754713 151.446015 
z
" clip-path="url(#pa983873b01)" style="fill: #3d719d; fill-opacity: 0.3; stroke: #696969; stroke-opacity: 0.3; stroke-width: 0.1"/>
    <path d="M 130.588067 158.74398 
L 146.109541 157.520361 
L 151.329242 148.950399 
L 135.961635 150.204765 
z
" clip-path="url(#pa983873b01)" style="fill: #3d719d; fill-opacity: 0.3; stroke: #696969; stroke-opacity: 0.3; stroke-width: 0.1"/>
    <path d="M 146.109541 157.520361 
L 161.797865 156.283589 
L 166.860094 147.682708 
L 151.329242 148.950399 
z
" clip-path="url(#pa983873b01)" style="fill: #3d719d; fill-opacity: 0.3; stroke: #696969; stroke-opacity: 0.3; stroke-width: 0.1"/>
   </g>
  </g>
 </g>
 <defs>
  <clipPath id="pa983873b01">
   <rect x="7.2" y="20.798437" width="214.48" height="214.48"/>
  </clipPath>
 </defs>
</svg>
