<?xml version="1.0" encoding="utf-8" standalone="no"?>
<!DOCTYPE svg PUBLIC "-//W3C//DTD SVG 1.1//EN"
  "http://www.w3.org/Graphics/SVG/1.1/DTD/svg11.dtd">
<svg xmlns:xlink="http://www.w3.org/1999/xlink" width="251.04252pt" height="254.11774pt" viewBox="0 0 251.04252 254.11774" xmlns="http://www.w3.org/2000/svg" version="1.1">
 <metadata>
  <rdf:RDF xmlns:dc="http://purl.org/dc/elements/1.1/" xmlns:cc="http://creativecommons.org/ns#" xmlns:rdf="http://www.w3.org/1999/02/22-rdf-syntax-ns#">
   <cc:Work>
    <dc:type rdf:resource="http://purl.org/dc/dcmitype/StillImage"/>
    <dc:date>2025-06-11T09:21:56.553340</dc:date>
    <dc:format>image/svg+xml</dc:format>
    <dc:creator>
     <cc:Agent>
      <dc:title>Matplotlib v3.10.3, https://matplotlib.org/</dc:title>
     </cc:Agent>
    </dc:creator>
   </cc:Work>
  </rdf:RDF>
 </metadata>
 <defs>
  <style type="text/css">*{stroke-linejoin: round; stroke-linecap: butt}</style>
 </defs>
 <g id="figure_1">
  <g id="patch_1">
   <path d="M 0 254.11774 
L 251.04252 254.11774 
L 251.04252 0 
L 0 0 
L 0 254.11774 
z
" style="fill: none; opacity: 0"/>
  </g>
  <g id="patch_2">
   <path d="M 10.458333 235.278437 
L 224.938333 235.278437 
L 224.938333 20.798437 
L 10.458333 20.798437 
L 10.458333 235.278437 
z
" style="fill: none"/>
  </g>
  <g id="pane3d_1">
   <g id="patch_3">
    <path d="M 25.405656 177.926159 
L 105.10755 122.185398 
L 104.448667 36.640293 
L 21.002013 87.473248 
" style="fill: none; opacity: 0"/>
   </g>
  </g>
  <g id="pane3d_2">
   <g id="patch_4">
    <path d="M 105.10755 122.185398 
L 213.459137 160.260718 
L 217.645228 71.323945 
L 104.448667 36.640293 
" style="fill: none; opacity: 0"/>
   </g>
  </g>
  <g id="pane3d_3">
   <g id="patch_5">
    <path d="M 25.405656 177.926159 
L 138.425685 222.852197 
L 213.459137 160.260718 
L 105.10755 122.185398 
" style="fill: none; opacity: 0"/>
   </g>
  </g>
  <g id="grid3d_1">
   <g id="Line3DCollection_1">
    <path d="M 25.405656 177.926159 
L 105.10755 122.185398 
L 104.448667 36.640293 
" style="fill: none; stroke: #b0b0b0; stroke-width: 0.8"/>
    <path d="M 38.803818 183.251997 
L 118.006622 126.7182 
L 117.895662 40.760479 
" style="fill: none; stroke: #b0b0b0; stroke-width: 0.8"/>
    <path d="M 52.401073 188.656975 
L 131.082373 131.313088 
L 131.534789 44.939534 
" style="fill: none; stroke: #b0b0b0; stroke-width: 0.8"/>
    <path d="M 66.201893 194.142871 
L 144.338458 135.971346 
L 145.370194 49.17873 
" style="fill: none; stroke: #b0b0b0; stroke-width: 0.8"/>
    <path d="M 80.210884 199.711517 
L 157.778634 140.694295 
L 159.406146 53.479374 
" style="fill: none; stroke: #b0b0b0; stroke-width: 0.8"/>
    <path d="M 94.432792 205.364797 
L 171.406763 145.483292 
L 173.647036 57.842811 
" style="fill: none; stroke: #b0b0b0; stroke-width: 0.8"/>
    <path d="M 108.872507 211.104658 
L 185.226815 150.339731 
L 188.097386 62.270427 
" style="fill: none; stroke: #b0b0b0; stroke-width: 0.8"/>
    <path d="M 123.535072 216.933102 
L 199.242874 155.265048 
L 202.761852 66.763649 
" style="fill: none; stroke: #b0b0b0; stroke-width: 0.8"/>
    <path d="M 138.425685 222.852197 
L 213.459137 160.260718 
L 217.645228 71.323945 
" style="fill: none; stroke: #b0b0b0; stroke-width: 0.8"/>
   </g>
  </g>
  <g id="grid3d_2">
   <g id="Line3DCollection_2">
    <path d="M 21.002013 87.473248 
L 25.405656 177.926159 
L 138.425685 222.852197 
" style="fill: none; stroke: #b0b0b0; stroke-width: 0.8"/>
    <path d="M 32.222944 80.637826 
L 36.090014 170.453887 
L 148.52602 214.42669 
" style="fill: none; stroke: #b0b0b0; stroke-width: 0.8"/>
    <path d="M 43.203633 73.948752 
L 46.555525 163.134669 
L 158.406879 206.184265 
" style="fill: none; stroke: #b0b0b0; stroke-width: 0.8"/>
    <path d="M 53.951713 67.401375 
L 56.808845 155.96385 
L 168.075339 198.119019 
" style="fill: none; stroke: #b0b0b0; stroke-width: 0.8"/>
    <path d="M 64.474499 60.99124 
L 66.856363 148.936962 
L 177.538177 190.2253 
" style="fill: none; stroke: #b0b0b0; stroke-width: 0.8"/>
    <path d="M 74.779 54.714078 
L 76.704213 142.049715 
L 186.801882 182.497693 
" style="fill: none; stroke: #b0b0b0; stroke-width: 0.8"/>
    <path d="M 84.871938 48.565791 
L 86.358288 135.297987 
L 195.872675 174.93101 
" style="fill: none; stroke: #b0b0b0; stroke-width: 0.8"/>
    <path d="M 94.759764 42.542453 
L 95.824252 128.677817 
L 204.75652 167.520275 
" style="fill: none; stroke: #b0b0b0; stroke-width: 0.8"/>
    <path d="M 104.448667 36.640293 
L 105.10755 122.185398 
L 213.459137 160.260718 
" style="fill: none; stroke: #b0b0b0; stroke-width: 0.8"/>
   </g>
  </g>
  <g id="grid3d_3">
   <g id="Line3DCollection_3">
    <path d="M 213.459137 160.260718 
L 105.10755 122.185398 
L 25.405656 177.926159 
" style="fill: none; stroke: #b0b0b0; stroke-width: 0.8"/>
    <path d="M 213.962543 149.56548 
L 105.028146 111.875987 
L 24.876615 167.059414 
" style="fill: none; stroke: #b0b0b0; stroke-width: 0.8"/>
    <path d="M 214.471435 138.753653 
L 104.947922 101.46033 
L 24.341662 156.071207 
" style="fill: none; stroke: #b0b0b0; stroke-width: 0.8"/>
    <path d="M 214.985906 127.823319 
L 104.866868 90.936775 
L 23.800695 144.959489 
" style="fill: none; stroke: #b0b0b0; stroke-width: 0.8"/>
    <path d="M 215.506047 116.772521 
L 104.78497 80.303636 
L 23.253613 133.722167 
" style="fill: none; stroke: #b0b0b0; stroke-width: 0.8"/>
    <path d="M 216.031952 105.599254 
L 104.702214 69.559195 
L 22.700311 122.357097 
" style="fill: none; stroke: #b0b0b0; stroke-width: 0.8"/>
    <path d="M 216.563718 94.301473 
L 104.618588 58.701692 
L 22.140684 110.862091 
" style="fill: none; stroke: #b0b0b0; stroke-width: 0.8"/>
    <path d="M 217.101443 82.877083 
L 104.534077 47.729336 
L 21.574622 99.234905 
" style="fill: none; stroke: #b0b0b0; stroke-width: 0.8"/>
    <path d="M 217.645228 71.323945 
L 104.448667 36.640293 
L 21.002013 87.473248 
" style="fill: none; stroke: #b0b0b0; stroke-width: 0.8"/>
   </g>
  </g>
  <g id="axis3d_1">
   <g id="line2d_1">
    <path d="M 25.405656 177.926159 
L 138.425685 222.852197 
" style="fill: none; stroke: #000000; stroke-width: 0.8; stroke-linecap: square"/>
   </g>
   <g id="xtick_1">
    <g id="line2d_2">
     <path d="M 26.096142 177.443257 
L 24.021907 178.893905 
" style="fill: none; stroke: #000000; stroke-width: 0.8; stroke-linecap: square"/>
    </g>
    <g id="text_1">
     <!-- −2.0 -->
     <g transform="translate(7.2 199.184931) scale(0.08 -0.08)">
      <defs>
       <path id="DejaVuSans-2212" d="M 678 2272 
L 4684 2272 
L 4684 1741 
L 678 1741 
L 678 2272 
z
" transform="scale(0.015625)"/>
       <path id="DejaVuSans-32" d="M 1228 531 
L 3431 531 
L 3431 0 
L 469 0 
L 469 531 
Q 828 903 1448 1529 
Q 2069 2156 2228 2338 
Q 2531 2678 2651 2914 
Q 2772 3150 2772 3378 
Q 2772 3750 2511 3984 
Q 2250 4219 1831 4219 
Q 1534 4219 1204 4116 
Q 875 4013 500 3803 
L 500 4441 
Q 881 4594 1212 4672 
Q 1544 4750 1819 4750 
Q 2544 4750 2975 4387 
Q 3406 4025 3406 3419 
Q 3406 3131 3298 2873 
Q 3191 2616 2906 2266 
Q 2828 2175 2409 1742 
Q 1991 1309 1228 531 
z
" transform="scale(0.015625)"/>
       <path id="DejaVuSans-2e" d="M 684 794 
L 1344 794 
L 1344 0 
L 684 0 
L 684 794 
z
" transform="scale(0.015625)"/>
       <path id="DejaVuSans-30" d="M 2034 4250 
Q 1547 4250 1301 3770 
Q 1056 3291 1056 2328 
Q 1056 1369 1301 889 
Q 1547 409 2034 409 
Q 2525 409 2770 889 
Q 3016 1369 3016 2328 
Q 3016 3291 2770 3770 
Q 2525 4250 2034 4250 
z
M 2034 4750 
Q 2819 4750 3233 4129 
Q 3647 3509 3647 2328 
Q 3647 1150 3233 529 
Q 2819 -91 2034 -91 
Q 1250 -91 836 529 
Q 422 1150 422 2328 
Q 422 3509 836 4129 
Q 1250 4750 2034 4750 
z
" transform="scale(0.015625)"/>
      </defs>
      <use xlink:href="#DejaVuSans-2212"/>
      <use xlink:href="#DejaVuSans-32" transform="translate(83.789062 0)"/>
      <use xlink:href="#DejaVuSans-2e" transform="translate(147.412109 0)"/>
      <use xlink:href="#DejaVuSans-30" transform="translate(179.199219 0)"/>
     </g>
    </g>
   </g>
   <g id="xtick_2">
    <g id="line2d_3">
     <path d="M 39.490368 182.761948 
L 37.427937 184.23408 
" style="fill: none; stroke: #000000; stroke-width: 0.8; stroke-linecap: square"/>
    </g>
    <g id="text_2">
     <!-- −1.5 -->
     <g transform="translate(20.590282 204.645049) scale(0.08 -0.08)">
      <defs>
       <path id="DejaVuSans-31" d="M 794 531 
L 1825 531 
L 1825 4091 
L 703 3866 
L 703 4441 
L 1819 4666 
L 2450 4666 
L 2450 531 
L 3481 531 
L 3481 0 
L 794 0 
L 794 531 
z
" transform="scale(0.015625)"/>
       <path id="DejaVuSans-35" d="M 691 4666 
L 3169 4666 
L 3169 4134 
L 1269 4134 
L 1269 2991 
Q 1406 3038 1543 3061 
Q 1681 3084 1819 3084 
Q 2600 3084 3056 2656 
Q 3513 2228 3513 1497 
Q 3513 744 3044 326 
Q 2575 -91 1722 -91 
Q 1428 -91 1123 -41 
Q 819 9 494 109 
L 494 744 
Q 775 591 1075 516 
Q 1375 441 1709 441 
Q 2250 441 2565 725 
Q 2881 1009 2881 1497 
Q 2881 1984 2565 2268 
Q 2250 2553 1709 2553 
Q 1456 2553 1204 2497 
Q 953 2441 691 2322 
L 691 4666 
z
" transform="scale(0.015625)"/>
      </defs>
      <use xlink:href="#DejaVuSans-2212"/>
      <use xlink:href="#DejaVuSans-31" transform="translate(83.789062 0)"/>
      <use xlink:href="#DejaVuSans-2e" transform="translate(147.412109 0)"/>
      <use xlink:href="#DejaVuSans-35" transform="translate(179.199219 0)"/>
     </g>
    </g>
   </g>
   <g id="xtick_3">
    <g id="line2d_4">
     <path d="M 53.083493 188.159619 
L 51.033449 189.653716 
" style="fill: none; stroke: #000000; stroke-width: 0.8; stroke-linecap: square"/>
    </g>
    <g id="text_3">
     <!-- −1.0 -->
     <g transform="translate(34.180364 210.186639) scale(0.08 -0.08)">
      <use xlink:href="#DejaVuSans-2212"/>
      <use xlink:href="#DejaVuSans-31" transform="translate(83.789062 0)"/>
      <use xlink:href="#DejaVuSans-2e" transform="translate(147.412109 0)"/>
      <use xlink:href="#DejaVuSans-30" transform="translate(179.199219 0)"/>
     </g>
    </g>
   </g>
   <g id="xtick_4">
    <g id="line2d_5">
     <path d="M 66.879982 193.638044 
L 64.842929 195.154601 
" style="fill: none; stroke: #000000; stroke-width: 0.8; stroke-linecap: square"/>
    </g>
    <g id="text_4">
     <!-- −0.5 -->
     <g transform="translate(47.974751 215.811539) scale(0.08 -0.08)">
      <use xlink:href="#DejaVuSans-2212"/>
      <use xlink:href="#DejaVuSans-30" transform="translate(83.789062 0)"/>
      <use xlink:href="#DejaVuSans-2e" transform="translate(147.412109 0)"/>
      <use xlink:href="#DejaVuSans-35" transform="translate(179.199219 0)"/>
     </g>
    </g>
   </g>
   <g id="xtick_5">
    <g id="line2d_6">
     <path d="M 80.884433 199.199049 
L 78.860997 200.738575 
" style="fill: none; stroke: #000000; stroke-width: 0.8; stroke-linecap: square"/>
    </g>
    <g id="text_5">
     <!-- 0.0 -->
     <g transform="translate(65.32996 221.52164) scale(0.08 -0.08)">
      <use xlink:href="#DejaVuSans-30"/>
      <use xlink:href="#DejaVuSans-2e" transform="translate(63.623047 0)"/>
      <use xlink:href="#DejaVuSans-30" transform="translate(95.410156 0)"/>
     </g>
    </g>
   </g>
   <g id="xtick_6">
    <g id="line2d_7">
     <path d="M 95.101584 204.844514 
L 93.092416 206.407536 
" style="fill: none; stroke: #000000; stroke-width: 0.8; stroke-linecap: square"/>
    </g>
    <g id="text_6">
     <!-- 0.5 -->
     <g transform="translate(79.547026 227.318893) scale(0.08 -0.08)">
      <use xlink:href="#DejaVuSans-30"/>
      <use xlink:href="#DejaVuSans-2e" transform="translate(63.623047 0)"/>
      <use xlink:href="#DejaVuSans-35" transform="translate(95.410156 0)"/>
     </g>
    </g>
   </g>
   <g id="xtick_7">
    <g id="line2d_8">
     <path d="M 109.536317 210.576378 
L 107.542094 212.163438 
" style="fill: none; stroke: #000000; stroke-width: 0.8; stroke-linecap: square"/>
    </g>
    <g id="text_7">
     <!-- 1.0 -->
     <g transform="translate(93.982753 233.20531) scale(0.08 -0.08)">
      <use xlink:href="#DejaVuSans-31"/>
      <use xlink:href="#DejaVuSans-2e" transform="translate(63.623047 0)"/>
      <use xlink:href="#DejaVuSans-30" transform="translate(95.410156 0)"/>
     </g>
    </g>
   </g>
   <g id="xtick_8">
    <g id="line2d_9">
     <path d="M 124.193667 216.396641 
L 122.215091 218.008297 
" style="fill: none; stroke: #000000; stroke-width: 0.8; stroke-linecap: square"/>
    </g>
    <g id="text_8">
     <!-- 1.5 -->
     <g transform="translate(108.642226 239.182963) scale(0.08 -0.08)">
      <use xlink:href="#DejaVuSans-31"/>
      <use xlink:href="#DejaVuSans-2e" transform="translate(63.623047 0)"/>
      <use xlink:href="#DejaVuSans-35" transform="translate(95.410156 0)"/>
     </g>
    </g>
   </g>
   <g id="xtick_9">
    <g id="line2d_10">
     <path d="M 139.078822 222.307363 
L 137.116623 223.944192 
" style="fill: none; stroke: #000000; stroke-width: 0.8; stroke-linecap: square"/>
    </g>
    <g id="text_9">
     <!-- 2.0 -->
     <g transform="translate(123.530687 245.25399) scale(0.08 -0.08)">
      <use xlink:href="#DejaVuSans-32"/>
      <use xlink:href="#DejaVuSans-2e" transform="translate(63.623047 0)"/>
      <use xlink:href="#DejaVuSans-30" transform="translate(95.410156 0)"/>
     </g>
    </g>
   </g>
   <g id="text_10">
    <!-- X -->
    <g transform="translate(58.515604 236.563006) scale(0.09 -0.09)">
     <defs>
      <path id="DejaVuSans-58" d="M 403 4666 
L 1081 4666 
L 2241 2931 
L 3406 4666 
L 4084 4666 
L 2584 2425 
L 4184 0 
L 3506 0 
L 2194 1984 
L 872 0 
L 191 0 
L 1856 2491 
L 403 4666 
z
" transform="scale(0.015625)"/>
     </defs>
     <use xlink:href="#DejaVuSans-58"/>
    </g>
   </g>
  </g>
  <g id="axis3d_2">
   <g id="line2d_11">
    <path d="M 213.459137 160.260718 
L 138.425685 222.852197 
" style="fill: none; stroke: #000000; stroke-width: 0.8; stroke-linecap: square"/>
   </g>
   <g id="xtick_10">
    <g id="line2d_12">
     <path d="M 137.465753 222.470619 
L 140.34842 223.616494 
" style="fill: none; stroke: #000000; stroke-width: 0.8; stroke-linecap: square"/>
    </g>
    <g id="text_11">
     <!-- −2.0 -->
     <g transform="translate(141.004529 243.102483) scale(0.08 -0.08)">
      <use xlink:href="#DejaVuSans-2212"/>
      <use xlink:href="#DejaVuSans-32" transform="translate(83.789062 0)"/>
      <use xlink:href="#DejaVuSans-2e" transform="translate(147.412109 0)"/>
      <use xlink:href="#DejaVuSans-30" transform="translate(179.199219 0)"/>
     </g>
    </g>
   </g>
   <g id="xtick_11">
    <g id="line2d_13">
     <path d="M 147.571657 214.053446 
L 150.437567 215.17428 
" style="fill: none; stroke: #000000; stroke-width: 0.8; stroke-linecap: square"/>
    </g>
    <g id="text_12">
     <!-- −1.5 -->
     <g transform="translate(150.985341 234.507973) scale(0.08 -0.08)">
      <use xlink:href="#DejaVuSans-2212"/>
      <use xlink:href="#DejaVuSans-31" transform="translate(83.789062 0)"/>
      <use xlink:href="#DejaVuSans-2e" transform="translate(147.412109 0)"/>
      <use xlink:href="#DejaVuSans-35" transform="translate(179.199219 0)"/>
     </g>
    </g>
   </g>
   <g id="xtick_12">
    <g id="line2d_14">
     <path d="M 157.458071 205.819086 
L 160.307269 206.915691 
" style="fill: none; stroke: #000000; stroke-width: 0.8; stroke-linecap: square"/>
    </g>
    <g id="text_13">
     <!-- −1.0 -->
     <g transform="translate(160.74894 226.100505) scale(0.08 -0.08)">
      <use xlink:href="#DejaVuSans-2212"/>
      <use xlink:href="#DejaVuSans-31" transform="translate(83.789062 0)"/>
      <use xlink:href="#DejaVuSans-2e" transform="translate(147.412109 0)"/>
      <use xlink:href="#DejaVuSans-30" transform="translate(179.199219 0)"/>
     </g>
    </g>
   </g>
   <g id="xtick_13">
    <g id="line2d_15">
     <path d="M 167.13207 197.761646 
L 169.964607 198.8348 
" style="fill: none; stroke: #000000; stroke-width: 0.8; stroke-linecap: square"/>
    </g>
    <g id="text_14">
     <!-- −0.5 -->
     <g transform="translate(170.302343 217.874038) scale(0.08 -0.08)">
      <use xlink:href="#DejaVuSans-2212"/>
      <use xlink:href="#DejaVuSans-30" transform="translate(83.789062 0)"/>
      <use xlink:href="#DejaVuSans-2e" transform="translate(147.412109 0)"/>
      <use xlink:href="#DejaVuSans-35" transform="translate(179.199219 0)"/>
     </g>
    </g>
   </g>
   <g id="xtick_14">
    <g id="line2d_16">
     <path d="M 176.600426 189.875485 
L 179.416363 190.925931 
" style="fill: none; stroke: #000000; stroke-width: 0.8; stroke-linecap: square"/>
    </g>
    <g id="text_15">
     <!-- 0.0 -->
     <g transform="translate(183.004139 209.822791) scale(0.08 -0.08)">
      <use xlink:href="#DejaVuSans-30"/>
      <use xlink:href="#DejaVuSans-2e" transform="translate(63.623047 0)"/>
      <use xlink:href="#DejaVuSans-30" transform="translate(95.410156 0)"/>
     </g>
    </g>
   </g>
   <g id="xtick_15">
    <g id="line2d_17">
     <path d="M 185.869628 182.155199 
L 188.669032 183.183651 
" style="fill: none; stroke: #000000; stroke-width: 0.8; stroke-linecap: square"/>
    </g>
    <g id="text_16">
     <!-- 0.5 -->
     <g transform="translate(192.15701 201.941223) scale(0.08 -0.08)">
      <use xlink:href="#DejaVuSans-30"/>
      <use xlink:href="#DejaVuSans-2e" transform="translate(63.623047 0)"/>
      <use xlink:href="#DejaVuSans-35" transform="translate(95.410156 0)"/>
     </g>
    </g>
   </g>
   <g id="xtick_16">
    <g id="line2d_18">
     <path d="M 194.945892 174.595609 
L 197.728838 175.602751 
" style="fill: none; stroke: #000000; stroke-width: 0.8; stroke-linecap: square"/>
    </g>
    <g id="text_17">
     <!-- 1.0 -->
     <g transform="translate(201.118997 194.224026) scale(0.08 -0.08)">
      <use xlink:href="#DejaVuSans-31"/>
      <use xlink:href="#DejaVuSans-2e" transform="translate(63.623047 0)"/>
      <use xlink:href="#DejaVuSans-30" transform="translate(95.410156 0)"/>
     </g>
    </g>
   </g>
   <g id="xtick_17">
    <g id="line2d_19">
     <path d="M 203.835183 167.19175 
L 206.60175 168.178237 
" style="fill: none; stroke: #000000; stroke-width: 0.8; stroke-linecap: square"/>
    </g>
    <g id="text_18">
     <!-- 1.5 -->
     <g transform="translate(209.896008 186.666113) scale(0.08 -0.08)">
      <use xlink:href="#DejaVuSans-31"/>
      <use xlink:href="#DejaVuSans-2e" transform="translate(63.623047 0)"/>
      <use xlink:href="#DejaVuSans-35" transform="translate(95.410156 0)"/>
     </g>
    </g>
   </g>
   <g id="xtick_18">
    <g id="line2d_20">
     <path d="M 212.543217 159.938858 
L 215.293492 160.90532 
" style="fill: none; stroke: #000000; stroke-width: 0.8; stroke-linecap: square"/>
    </g>
    <g id="text_19">
     <!-- 2.0 -->
     <g transform="translate(218.493713 179.262601) scale(0.08 -0.08)">
      <use xlink:href="#DejaVuSans-32"/>
      <use xlink:href="#DejaVuSans-2e" transform="translate(63.623047 0)"/>
      <use xlink:href="#DejaVuSans-30" transform="translate(95.410156 0)"/>
     </g>
    </g>
   </g>
   <g id="text_20">
    <!-- Y -->
    <g transform="translate(200.546498 222.14932) scale(0.09 -0.09)">
     <defs>
      <path id="DejaVuSans-59" d="M -13 4666 
L 666 4666 
L 1959 2747 
L 3244 4666 
L 3922 4666 
L 2272 2222 
L 2272 0 
L 1638 0 
L 1638 2222 
L -13 4666 
z
" transform="scale(0.015625)"/>
     </defs>
     <use xlink:href="#DejaVuSans-59"/>
    </g>
   </g>
  </g>
  <g id="axis3d_3">
   <g id="line2d_21">
    <path d="M 213.459137 160.260718 
L 217.645228 71.323945 
" style="fill: none; stroke: #000000; stroke-width: 0.8; stroke-linecap: square"/>
   </g>
   <g id="xtick_19">
    <g id="line2d_22">
     <path d="M 212.543217 159.938858 
L 215.293492 160.90532 
" style="fill: none; stroke: #000000; stroke-width: 0.8; stroke-linecap: square"/>
    </g>
    <g id="text_21">
     <!-- −2.0 -->
     <g transform="translate(222.584464 164.569814) scale(0.08 -0.08)">
      <use xlink:href="#DejaVuSans-2212"/>
      <use xlink:href="#DejaVuSans-32" transform="translate(83.789062 0)"/>
      <use xlink:href="#DejaVuSans-2e" transform="translate(147.412109 0)"/>
      <use xlink:href="#DejaVuSans-30" transform="translate(179.199219 0)"/>
     </g>
    </g>
   </g>
   <g id="xtick_20">
    <g id="line2d_23">
     <path d="M 213.041428 149.24679 
L 215.807314 150.20374 
" style="fill: none; stroke: #000000; stroke-width: 0.8; stroke-linecap: square"/>
    </g>
    <g id="text_22">
     <!-- −1.5 -->
     <g transform="translate(223.188462 153.892019) scale(0.08 -0.08)">
      <use xlink:href="#DejaVuSans-2212"/>
      <use xlink:href="#DejaVuSans-31" transform="translate(83.789062 0)"/>
      <use xlink:href="#DejaVuSans-2e" transform="translate(147.412109 0)"/>
      <use xlink:href="#DejaVuSans-35" transform="translate(179.199219 0)"/>
     </g>
    </g>
   </g>
   <g id="xtick_21">
    <g id="line2d_24">
     <path d="M 213.545068 138.43822 
L 216.326742 139.385394 
" style="fill: none; stroke: #000000; stroke-width: 0.8; stroke-linecap: square"/>
    </g>
    <g id="text_23">
     <!-- −1.0 -->
     <g transform="translate(223.799029 143.098121) scale(0.08 -0.08)">
      <use xlink:href="#DejaVuSans-2212"/>
      <use xlink:href="#DejaVuSans-31" transform="translate(83.789062 0)"/>
      <use xlink:href="#DejaVuSans-2e" transform="translate(147.412109 0)"/>
      <use xlink:href="#DejaVuSans-30" transform="translate(179.199219 0)"/>
     </g>
    </g>
   </g>
   <g id="xtick_22">
    <g id="line2d_25">
     <path d="M 214.054225 127.511235 
L 216.851868 128.44836 
" style="fill: none; stroke: #000000; stroke-width: 0.8; stroke-linecap: square"/>
    </g>
    <g id="text_24">
     <!-- −0.5 -->
     <g transform="translate(224.41627 132.186215) scale(0.08 -0.08)">
      <use xlink:href="#DejaVuSans-2212"/>
      <use xlink:href="#DejaVuSans-30" transform="translate(83.789062 0)"/>
      <use xlink:href="#DejaVuSans-2e" transform="translate(147.412109 0)"/>
      <use xlink:href="#DejaVuSans-35" transform="translate(179.199219 0)"/>
     </g>
    </g>
   </g>
   <g id="xtick_23">
    <g id="line2d_26">
     <path d="M 214.568991 116.463877 
L 217.382788 117.390674 
" style="fill: none; stroke: #000000; stroke-width: 0.8; stroke-linecap: square"/>
    </g>
    <g id="text_25">
     <!-- 0.0 -->
     <g transform="translate(228.392172 121.154355) scale(0.08 -0.08)">
      <use xlink:href="#DejaVuSans-30"/>
      <use xlink:href="#DejaVuSans-2e" transform="translate(63.623047 0)"/>
      <use xlink:href="#DejaVuSans-30" transform="translate(95.410156 0)"/>
     </g>
    </g>
   </g>
   <g id="xtick_24">
    <g id="line2d_27">
     <path d="M 215.08946 105.294147 
L 217.919596 106.210329 
" style="fill: none; stroke: #000000; stroke-width: 0.8; stroke-linecap: square"/>
    </g>
    <g id="text_26">
     <!-- 0.5 -->
     <g transform="translate(229.023096 110.000553) scale(0.08 -0.08)">
      <use xlink:href="#DejaVuSans-30"/>
      <use xlink:href="#DejaVuSans-2e" transform="translate(63.623047 0)"/>
      <use xlink:href="#DejaVuSans-35" transform="translate(95.410156 0)"/>
     </g>
    </g>
   </g>
   <g id="xtick_25">
    <g id="line2d_28">
     <path d="M 215.615725 94.000001 
L 218.462393 94.905272 
" style="fill: none; stroke: #000000; stroke-width: 0.8; stroke-linecap: square"/>
    </g>
    <g id="text_27">
     <!-- 1.0 -->
     <g transform="translate(229.661034 98.722776) scale(0.08 -0.08)">
      <use xlink:href="#DejaVuSans-31"/>
      <use xlink:href="#DejaVuSans-2e" transform="translate(63.623047 0)"/>
      <use xlink:href="#DejaVuSans-30" transform="translate(95.410156 0)"/>
     </g>
    </g>
   </g>
   <g id="xtick_26">
    <g id="line2d_29">
     <path d="M 216.147886 82.579347 
L 219.011278 83.473405 
" style="fill: none; stroke: #000000; stroke-width: 0.8; stroke-linecap: square"/>
    </g>
    <g id="text_28">
     <!-- 1.5 -->
     <g transform="translate(230.306101 87.318944) scale(0.08 -0.08)">
      <use xlink:href="#DejaVuSans-31"/>
      <use xlink:href="#DejaVuSans-2e" transform="translate(63.623047 0)"/>
      <use xlink:href="#DejaVuSans-35" transform="translate(95.410156 0)"/>
     </g>
    </g>
   </g>
   <g id="xtick_27">
    <g id="line2d_30">
     <path d="M 216.686041 71.030048 
L 219.566355 71.912582 
" style="fill: none; stroke: #000000; stroke-width: 0.8; stroke-linecap: square"/>
    </g>
    <g id="text_29">
     <!-- 2.0 -->
     <g transform="translate(230.958419 75.786934) scale(0.08 -0.08)">
      <use xlink:href="#DejaVuSans-32"/>
      <use xlink:href="#DejaVuSans-2e" transform="translate(63.623047 0)"/>
      <use xlink:href="#DejaVuSans-30" transform="translate(95.410156 0)"/>
     </g>
    </g>
   </g>
   <g id="text_30">
    <!-- Z -->
    <g transform="translate(254.139944 115.578095) scale(0.09 -0.09)">
     <defs>
      <path id="DejaVuSans-5a" d="M 359 4666 
L 4025 4666 
L 4025 4184 
L 1075 531 
L 4097 531 
L 4097 0 
L 288 0 
L 288 481 
L 3238 4134 
L 359 4134 
L 359 4666 
z
" transform="scale(0.015625)"/>
     </defs>
     <use xlink:href="#DejaVuSans-5a"/>
    </g>
   </g>
  </g>
  <g id="axes_1">
   <g id="line2d_31">
    <path d="M 108.523538 153.894043 
L 113.004257 150.599465 
L 117.442883 147.335837 
L 121.840006 144.102726 
L 126.196205 140.899704 
L 130.51205 137.726354 
L 134.788098 134.582266 
L 139.024898 131.467037 
L 143.222987 128.380271 
L 147.382893 125.32158 
L 151.505135 122.290582 
L 155.590223 119.286904 
L 159.638655 116.310176 
L 163.650924 113.36004 
L 167.627512 110.436139 
L 171.568893 107.538125 
L 175.475531 104.665656 
L 179.347885 101.818396 
L 183.186404 98.996014 
L 186.99153 96.198185 
" clip-path="url(#pf820c3ece6)" style="fill: none; stroke-dasharray: 6.475,2.8; stroke-dashoffset: 0; stroke: #ff4500; stroke-width: 1.75"/>
   </g>
   <g id="line2d_32">
    <path d="M 50.433311 132.547976 
L 55.043451 129.451348 
L 59.611594 126.38293 
L 64.138312 123.342337 
L 68.624165 120.329193 
L 73.069704 117.343127 
L 77.47547 114.383777 
L 81.841996 111.450785 
L 86.169802 108.5438 
L 90.459401 105.66248 
L 94.711297 102.806484 
L 98.925986 99.975481 
L 103.103952 97.169143 
L 107.245675 94.387151 
L 111.351623 91.629188 
L 115.422259 88.894945 
L 119.458035 86.184117 
L 123.459398 83.496404 
L 127.426787 80.831512 
L 131.360631 78.189152 
" clip-path="url(#pf820c3ece6)" style="fill: none; stroke-dasharray: 6.475,2.8; stroke-dashoffset: 0; stroke: #ff4500; stroke-width: 1.75"/>
   </g>
   <g id="Poly3DCollection_1">
    <path d="M 122.953386 137.237592 
L 131.082373 131.313088 
L 131.130784 122.070499 
L 122.964363 127.941161 
z
" clip-path="url(#pf820c3ece6)" style="fill: #486a14; fill-opacity: 0.6; stroke: #000000; stroke-opacity: 0.6; stroke-width: 0.1"/>
    <path d="M 122.964363 127.941161 
L 131.130784 122.070499 
L 131.179645 112.74217 
L 122.975442 118.557725 
z
" clip-path="url(#pf820c3ece6)" style="fill: #486a14; fill-opacity: 0.6; stroke: #000000; stroke-opacity: 0.6; stroke-width: 0.1"/>
    <path d="M 114.680552 143.266934 
L 122.953386 137.237592 
L 122.964363 127.941161 
L 114.652752 133.916195 
z
" clip-path="url(#pf820c3ece6)" style="fill: #486a14; fill-opacity: 0.6; stroke: #000000; stroke-opacity: 0.6; stroke-width: 0.1"/>
    <path d="M 122.975442 118.557725 
L 131.179645 112.74217 
L 131.228961 103.326901 
L 122.986625 109.086059 
z
" clip-path="url(#pf820c3ece6)" style="fill: #486a14; fill-opacity: 0.6; stroke: #000000; stroke-opacity: 0.6; stroke-width: 0.1"/>
    <path d="M 114.652752 133.916195 
L 122.964363 127.941161 
L 122.975442 118.557725 
L 114.624689 124.477162 
z
" clip-path="url(#pf820c3ece6)" style="fill: #486a14; fill-opacity: 0.6; stroke: #000000; stroke-opacity: 0.6; stroke-width: 0.1"/>
    <path d="M 122.986625 109.086059 
L 131.228961 103.326901 
L 131.278739 93.823471 
L 122.997914 99.524912 
z
" clip-path="url(#pf820c3ece6)" style="fill: #486a14; fill-opacity: 0.6; stroke: #000000; stroke-opacity: 0.6; stroke-width: 0.1"/>
    <path d="M 106.260018 149.403922 
L 114.680552 143.266934 
L 114.652752 133.916195 
L 106.192045 139.998411 
z
" clip-path="url(#pf820c3ece6)" style="fill: #486a14; fill-opacity: 0.6; stroke: #000000; stroke-opacity: 0.6; stroke-width: 0.1"/>
    <path d="M 114.624689 124.477162 
L 122.975442 118.557725 
L 122.986625 109.086059 
L 114.59636 114.948579 
z
" clip-path="url(#pf820c3ece6)" style="fill: #486a14; fill-opacity: 0.6; stroke: #000000; stroke-opacity: 0.6; stroke-width: 0.1"/>
    <path d="M 122.997914 99.524912 
L 131.278739 93.823471 
L 131.328986 84.230637 
L 123.009311 89.873009 
z
" clip-path="url(#pf820c3ece6)" style="fill: #486a14; fill-opacity: 0.6; stroke: #000000; stroke-opacity: 0.6; stroke-width: 0.1"/>
    <path d="M 106.192045 139.998411 
L 114.652752 133.916195 
L 114.624689 124.477162 
L 106.123425 130.50329 
z
" clip-path="url(#pf820c3ece6)" style="fill: #486a14; fill-opacity: 0.6; stroke: #000000; stroke-opacity: 0.6; stroke-width: 0.1"/>
    <path d="M 114.59636 114.948579 
L 122.986625 109.086059 
L 122.997914 99.524912 
L 114.567761 105.329166 
z
" clip-path="url(#pf820c3ece6)" style="fill: #486a14; fill-opacity: 0.6; stroke: #000000; stroke-opacity: 0.6; stroke-width: 0.1"/>
    <path d="M 123.009311 89.873009 
L 131.328986 84.230637 
L 131.379707 74.54713 
L 123.020816 80.129052 
z
" clip-path="url(#pf820c3ece6)" style="fill: #486a14; fill-opacity: 0.6; stroke: #000000; stroke-opacity: 0.6; stroke-width: 0.1"/>
    <path d="M 97.687793 155.651463 
L 106.260018 149.403922 
L 106.192045 139.998411 
L 97.578194 146.190719 
z
" clip-path="url(#pf820c3ece6)" style="fill: #486a14; fill-opacity: 0.6; stroke: #000000; stroke-opacity: 0.6; stroke-width: 0.1"/>
    <path d="M 106.123425 130.50329 
L 114.624689 124.477162 
L 114.59636 114.948579 
L 106.054147 120.91727 
z
" clip-path="url(#pf820c3ece6)" style="fill: #486a14; fill-opacity: 0.6; stroke: #000000; stroke-opacity: 0.6; stroke-width: 0.1"/>
    <path d="M 114.567761 105.329166 
L 122.997914 99.524912 
L 123.009311 89.873009 
L 114.538888 95.617617 
z
" clip-path="url(#pf820c3ece6)" style="fill: #486a14; fill-opacity: 0.6; stroke: #000000; stroke-opacity: 0.6; stroke-width: 0.1"/>
    <path d="M 123.020816 80.129052 
L 131.379707 74.54713 
L 131.43091 64.771659 
L 123.032431 70.291718 
z
" clip-path="url(#pf820c3ece6)" style="fill: #486a14; fill-opacity: 0.6; stroke: #000000; stroke-opacity: 0.6; stroke-width: 0.1"/>
    <path d="M 97.578194 146.190719 
L 106.192045 139.998411 
L 106.123425 130.50329 
L 97.467543 136.639018 
z
" clip-path="url(#pf820c3ece6)" style="fill: #486a14; fill-opacity: 0.6; stroke: #000000; stroke-opacity: 0.6; stroke-width: 0.1"/>
    <path d="M 106.054147 120.91727 
L 114.59636 114.948579 
L 114.567761 105.329166 
L 105.984204 111.239041 
z
" clip-path="url(#pf820c3ece6)" style="fill: #486a14; fill-opacity: 0.6; stroke: #000000; stroke-opacity: 0.6; stroke-width: 0.1"/>
    <path d="M 114.538888 95.617617 
L 123.009311 89.873009 
L 123.020816 80.129052 
L 114.509737 85.812602 
z
" clip-path="url(#pf820c3ece6)" style="fill: #486a14; fill-opacity: 0.6; stroke: #000000; stroke-opacity: 0.6; stroke-width: 0.1"/>
    <path d="M 123.032431 70.291718 
L 131.43091 64.771659 
L 131.482602 54.902908 
L 123.044158 60.359659 
z
" clip-path="url(#pf820c3ece6)" style="fill: #486a14; fill-opacity: 0.6; stroke: #000000; stroke-opacity: 0.6; stroke-width: 0.1"/>
    <path d="M 88.95974 162.012574 
L 97.687793 155.651463 
L 97.578194 146.190719 
L 88.807004 152.496135 
z
" clip-path="url(#pf820c3ece6)" style="fill: #486a14; fill-opacity: 0.6; stroke: #000000; stroke-opacity: 0.6; stroke-width: 0.1"/>
    <path d="M 97.467543 136.639018 
L 106.123425 130.50329 
L 106.054147 120.91727 
L 97.355822 126.995041 
z
" clip-path="url(#pf820c3ece6)" style="fill: #486a14; fill-opacity: 0.6; stroke: #000000; stroke-opacity: 0.6; stroke-width: 0.1"/>
    <path d="M 105.984204 111.239041 
L 114.567761 105.329166 
L 114.538888 95.617617 
L 105.913584 101.467265 
z
" clip-path="url(#pf820c3ece6)" style="fill: #486a14; fill-opacity: 0.6; stroke: #000000; stroke-opacity: 0.6; stroke-width: 0.1"/>
    <path d="M 114.509737 85.812602 
L 123.020816 80.129052 
L 123.032431 70.291718 
L 114.480305 75.912765 
z
" clip-path="url(#pf820c3ece6)" style="fill: #486a14; fill-opacity: 0.6; stroke: #000000; stroke-opacity: 0.6; stroke-width: 0.1"/>
    <path d="M 123.044158 60.359659 
L 131.482602 54.902908 
L 131.534789 44.939534 
L 123.055998 50.331499 
z
" clip-path="url(#pf820c3ece6)" style="fill: #486a14; fill-opacity: 0.6; stroke: #000000; stroke-opacity: 0.6; stroke-width: 0.1"/>
    <path d="M 88.807004 152.496135 
L 97.578194 146.190719 
L 97.467543 136.639018 
L 88.652786 142.887364 
z
" clip-path="url(#pf820c3ece6)" style="fill: #486a14; fill-opacity: 0.6; stroke: #000000; stroke-opacity: 0.6; stroke-width: 0.1"/>
    <path d="M 97.355822 126.995041 
L 106.054147 120.91727 
L 105.984204 111.239041 
L 97.243016 117.257445 
z
" clip-path="url(#pf820c3ece6)" style="fill: #486a14; fill-opacity: 0.6; stroke: #000000; stroke-opacity: 0.6; stroke-width: 0.1"/>
    <path d="M 105.913584 101.467265 
L 114.538888 95.617617 
L 114.509737 85.812602 
L 105.842278 91.60058 
z
" clip-path="url(#pf820c3ece6)" style="fill: #486a14; fill-opacity: 0.6; stroke: #000000; stroke-opacity: 0.6; stroke-width: 0.1"/>
    <path d="M 114.480305 75.912765 
L 123.032431 70.291718 
L 123.044158 60.359659 
L 114.450586 65.916725 
z
" clip-path="url(#pf820c3ece6)" style="fill: #486a14; fill-opacity: 0.6; stroke: #000000; stroke-opacity: 0.6; stroke-width: 0.1"/>
    <path d="M 80.071573 168.490379 
L 88.95974 162.012574 
L 88.807004 152.496135 
L 79.874123 158.917787 
z
" clip-path="url(#pf820c3ece6)" style="fill: #486a14; fill-opacity: 0.6; stroke: #000000; stroke-opacity: 0.6; stroke-width: 0.1"/>
    <path d="M 88.652786 142.887364 
L 97.467543 136.639018 
L 97.355822 126.995041 
L 88.497064 133.18491 
z
" clip-path="url(#pf820c3ece6)" style="fill: #486a14; fill-opacity: 0.6; stroke: #000000; stroke-opacity: 0.6; stroke-width: 0.1"/>
    <path d="M 97.243016 117.257445 
L 105.984204 111.239041 
L 105.913584 101.467265 
L 97.12911 107.424861 
z
" clip-path="url(#pf820c3ece6)" style="fill: #486a14; fill-opacity: 0.6; stroke: #000000; stroke-opacity: 0.6; stroke-width: 0.1"/>
    <path d="M 105.842278 91.60058 
L 114.509737 85.812602 
L 114.480305 75.912765 
L 105.770276 81.637596 
z
" clip-path="url(#pf820c3ece6)" style="fill: #486a14; fill-opacity: 0.6; stroke: #000000; stroke-opacity: 0.6; stroke-width: 0.1"/>
    <path d="M 114.450586 65.916725 
L 123.044158 60.359659 
L 123.055998 50.331499 
L 114.420577 55.823071 
z
" clip-path="url(#pf820c3ece6)" style="fill: #486a14; fill-opacity: 0.6; stroke: #000000; stroke-opacity: 0.6; stroke-width: 0.1"/>
    <path d="M 79.874123 158.917787 
L 88.807004 152.496135 
L 88.652786 142.887364 
L 79.67474 149.251458 
z
" clip-path="url(#pf820c3ece6)" style="fill: #486a14; fill-opacity: 0.6; stroke: #000000; stroke-opacity: 0.6; stroke-width: 0.1"/>
    <path d="M 88.497064 133.18491 
L 97.355822 126.995041 
L 97.243016 117.257445 
L 88.339816 123.387397 
z
" clip-path="url(#pf820c3ece6)" style="fill: #486a14; fill-opacity: 0.6; stroke: #000000; stroke-opacity: 0.6; stroke-width: 0.1"/>
    <path d="M 97.12911 107.424861 
L 105.913584 101.467265 
L 105.842278 91.60058 
L 97.014088 97.495891 
z
" clip-path="url(#pf820c3ece6)" style="fill: #486a14; fill-opacity: 0.6; stroke: #000000; stroke-opacity: 0.6; stroke-width: 0.1"/>
    <path d="M 105.770276 81.637596 
L 114.480305 75.912765 
L 114.450586 65.916725 
L 105.697569 71.576896 
z
" clip-path="url(#pf820c3ece6)" style="fill: #486a14; fill-opacity: 0.6; stroke: #000000; stroke-opacity: 0.6; stroke-width: 0.1"/>
    <path d="M 71.018843 175.088118 
L 80.071573 168.490379 
L 79.874123 158.917787 
L 70.775039 165.458919 
z
" clip-path="url(#pf820c3ece6)" style="fill: #486a14; fill-opacity: 0.6; stroke: #000000; stroke-opacity: 0.6; stroke-width: 0.1"/>
    <path d="M 79.67474 149.251458 
L 88.652786 142.887364 
L 88.497064 133.18491 
L 79.473395 139.490008 
z
" clip-path="url(#pf820c3ece6)" style="fill: #486a14; fill-opacity: 0.6; stroke: #000000; stroke-opacity: 0.6; stroke-width: 0.1"/>
    <path d="M 88.339816 123.387397 
L 97.243016 117.257445 
L 97.12911 107.424861 
L 88.181021 113.493421 
z
" clip-path="url(#pf820c3ece6)" style="fill: #486a14; fill-opacity: 0.6; stroke: #000000; stroke-opacity: 0.6; stroke-width: 0.1"/>
    <path d="M 97.014088 97.495891 
L 105.842278 91.60058 
L 105.770276 81.637596 
L 96.897932 87.469111 
z
" clip-path="url(#pf820c3ece6)" style="fill: #486a14; fill-opacity: 0.6; stroke: #000000; stroke-opacity: 0.6; stroke-width: 0.1"/>
    <path d="M 105.697569 71.576896 
L 114.450586 65.916725 
L 114.420577 55.823071 
L 105.624144 61.417036 
z
" clip-path="url(#pf820c3ece6)" style="fill: #486a14; fill-opacity: 0.6; stroke: #000000; stroke-opacity: 0.6; stroke-width: 0.1"/>
    <path d="M 70.775039 165.458919 
L 79.874123 158.917787 
L 79.67474 149.251458 
L 70.528825 155.734546 
z
" clip-path="url(#pf820c3ece6)" style="fill: #486a14; fill-opacity: 0.6; stroke: #000000; stroke-opacity: 0.6; stroke-width: 0.1"/>
    <path d="M 79.473395 139.490008 
L 88.497064 133.18491 
L 88.339816 123.387397 
L 79.270058 129.632027 
z
" clip-path="url(#pf820c3ece6)" style="fill: #486a14; fill-opacity: 0.6; stroke: #000000; stroke-opacity: 0.6; stroke-width: 0.1"/>
    <path d="M 88.181021 113.493421 
L 97.12911 107.424861 
L 97.014088 97.495891 
L 88.020654 103.501549 
z
" clip-path="url(#pf820c3ece6)" style="fill: #486a14; fill-opacity: 0.6; stroke: #000000; stroke-opacity: 0.6; stroke-width: 0.1"/>
    <path d="M 96.897932 87.469111 
L 105.770276 81.637596 
L 105.697569 71.576896 
L 96.780627 77.34307 
z
" clip-path="url(#pf820c3ece6)" style="fill: #486a14; fill-opacity: 0.6; stroke: #000000; stroke-opacity: 0.6; stroke-width: 0.1"/>
    <path d="M 61.796939 181.809154 
L 71.018843 175.088118 
L 70.775039 165.458919 
L 61.50507 172.122896 
z
" clip-path="url(#pf820c3ece6)" style="fill: #486a14; fill-opacity: 0.6; stroke: #000000; stroke-opacity: 0.6; stroke-width: 0.1"/>
    <path d="M 70.528825 155.734546 
L 79.67474 149.251458 
L 79.473395 139.490008 
L 70.280165 145.913583 
z
" clip-path="url(#pf820c3ece6)" style="fill: #486a14; fill-opacity: 0.6; stroke: #000000; stroke-opacity: 0.6; stroke-width: 0.1"/>
    <path d="M 79.270058 129.632027 
L 88.339816 123.387397 
L 88.181021 113.493421 
L 79.064701 119.676074 
z
" clip-path="url(#pf820c3ece6)" style="fill: #486a14; fill-opacity: 0.6; stroke: #000000; stroke-opacity: 0.6; stroke-width: 0.1"/>
    <path d="M 88.020654 103.501549 
L 97.014088 97.495891 
L 96.897932 87.469111 
L 87.858692 93.410323 
z
" clip-path="url(#pf820c3ece6)" style="fill: #486a14; fill-opacity: 0.6; stroke: #000000; stroke-opacity: 0.6; stroke-width: 0.1"/>
    <path d="M 96.780627 77.34307 
L 105.697569 71.576896 
L 105.624144 61.417036 
L 96.662154 67.116285 
z
" clip-path="url(#pf820c3ece6)" style="fill: #486a14; fill-opacity: 0.6; stroke: #000000; stroke-opacity: 0.6; stroke-width: 0.1"/>
    <path d="M 61.50507 172.122896 
L 70.775039 165.458919 
L 70.528825 155.734546 
L 61.210289 162.339998 
z
" clip-path="url(#pf820c3ece6)" style="fill: #486a14; fill-opacity: 0.6; stroke: #000000; stroke-opacity: 0.6; stroke-width: 0.1"/>
    <path d="M 70.280165 145.913583 
L 79.473395 139.490008 
L 79.270058 129.632027 
L 70.029023 135.994582 
z
" clip-path="url(#pf820c3ece6)" style="fill: #486a14; fill-opacity: 0.6; stroke: #000000; stroke-opacity: 0.6; stroke-width: 0.1"/>
    <path d="M 79.064701 119.676074 
L 88.181021 113.493421 
L 88.020654 103.501549 
L 78.857293 109.620682 
z
" clip-path="url(#pf820c3ece6)" style="fill: #486a14; fill-opacity: 0.6; stroke: #000000; stroke-opacity: 0.6; stroke-width: 0.1"/>
    <path d="M 87.858692 93.410323 
L 96.897932 87.469111 
L 96.780627 77.34307 
L 87.695112 83.218252 
z
" clip-path="url(#pf820c3ece6)" style="fill: #486a14; fill-opacity: 0.6; stroke: #000000; stroke-opacity: 0.6; stroke-width: 0.1"/>
    <path d="M 52.401073 188.656975 
L 61.796939 181.809154 
L 61.50507 172.122896 
L 52.059356 178.913212 
z
" clip-path="url(#pf820c3ece6)" style="fill: #486a14; fill-opacity: 0.6; stroke: #000000; stroke-opacity: 0.6; stroke-width: 0.1"/>
    <path d="M 61.210289 162.339998 
L 70.528825 155.734546 
L 70.280165 145.913583 
L 60.912552 152.459005 
z
" clip-path="url(#pf820c3ece6)" style="fill: #486a14; fill-opacity: 0.6; stroke: #000000; stroke-opacity: 0.6; stroke-width: 0.1"/>
    <path d="M 70.029023 135.994582 
L 79.270058 129.632027 
L 79.064701 119.676074 
L 69.775362 125.976068 
z
" clip-path="url(#pf820c3ece6)" style="fill: #486a14; fill-opacity: 0.6; stroke: #000000; stroke-opacity: 0.6; stroke-width: 0.1"/>
    <path d="M 78.857293 109.620682 
L 88.020654 103.501549 
L 87.858692 93.410323 
L 78.647802 99.464354 
z
" clip-path="url(#pf820c3ece6)" style="fill: #486a14; fill-opacity: 0.6; stroke: #000000; stroke-opacity: 0.6; stroke-width: 0.1"/>
    <path d="M 87.695112 83.218252 
L 96.780627 77.34307 
L 96.662154 67.116285 
L 87.529889 72.923817 
z
" clip-path="url(#pf820c3ece6)" style="fill: #486a14; fill-opacity: 0.6; stroke: #000000; stroke-opacity: 0.6; stroke-width: 0.1"/>
    <path d="M 52.059356 178.913212 
L 61.50507 172.122896 
L 61.210289 162.339998 
L 51.714197 169.071309 
z
" clip-path="url(#pf820c3ece6)" style="fill: #486a14; fill-opacity: 0.6; stroke: #000000; stroke-opacity: 0.6; stroke-width: 0.1"/>
    <path d="M 60.912552 152.459005 
L 70.280165 145.913583 
L 70.029023 135.994582 
L 60.611814 142.478435 
z
" clip-path="url(#pf820c3ece6)" style="fill: #486a14; fill-opacity: 0.6; stroke: #000000; stroke-opacity: 0.6; stroke-width: 0.1"/>
    <path d="M 69.775362 125.976068 
L 79.064701 119.676074 
L 78.857293 109.620682 
L 69.519143 115.856536 
z
" clip-path="url(#pf820c3ece6)" style="fill: #486a14; fill-opacity: 0.6; stroke: #000000; stroke-opacity: 0.6; stroke-width: 0.1"/>
    <path d="M 78.647802 99.464354 
L 87.858692 93.410323 
L 87.695112 83.218252 
L 78.436199 89.205563 
z
" clip-path="url(#pf820c3ece6)" style="fill: #486a14; fill-opacity: 0.6; stroke: #000000; stroke-opacity: 0.6; stroke-width: 0.1"/>
    <path d="M 51.714197 169.071309 
L 61.210289 162.339998 
L 60.912552 152.459005 
L 51.365544 159.129774 
z
" clip-path="url(#pf820c3ece6)" style="fill: #486a14; fill-opacity: 0.6; stroke: #000000; stroke-opacity: 0.6; stroke-width: 0.1"/>
    <path d="M 60.611814 142.478435 
L 70.029023 135.994582 
L 69.775362 125.976068 
L 60.30803 132.396776 
z
" clip-path="url(#pf820c3ece6)" style="fill: #486a14; fill-opacity: 0.6; stroke: #000000; stroke-opacity: 0.6; stroke-width: 0.1"/>
    <path d="M 69.519143 115.856536 
L 78.857293 109.620682 
L 78.647802 99.464354 
L 69.260327 105.63445 
z
" clip-path="url(#pf820c3ece6)" style="fill: #486a14; fill-opacity: 0.6; stroke: #000000; stroke-opacity: 0.6; stroke-width: 0.1"/>
    <path d="M 78.436199 89.205563 
L 87.695112 83.218252 
L 87.529889 72.923817 
L 78.222449 78.84275 
z
" clip-path="url(#pf820c3ece6)" style="fill: #486a14; fill-opacity: 0.6; stroke: #000000; stroke-opacity: 0.6; stroke-width: 0.1"/>
    <path d="M 51.365544 159.129774 
L 60.912552 152.459005 
L 60.611814 142.478435 
L 51.013344 149.087089 
z
" clip-path="url(#pf820c3ece6)" style="fill: #486a14; fill-opacity: 0.6; stroke: #000000; stroke-opacity: 0.6; stroke-width: 0.1"/>
    <path d="M 60.30803 132.396776 
L 69.775362 125.976068 
L 69.519143 115.856536 
L 60.001154 122.212483 
z
" clip-path="url(#pf820c3ece6)" style="fill: #486a14; fill-opacity: 0.6; stroke: #000000; stroke-opacity: 0.6; stroke-width: 0.1"/>
    <path d="M 69.260327 105.63445 
L 78.647802 99.464354 
L 78.436199 89.205563 
L 68.998875 95.308244 
z
" clip-path="url(#pf820c3ece6)" style="fill: #486a14; fill-opacity: 0.6; stroke: #000000; stroke-opacity: 0.6; stroke-width: 0.1"/>
    <path d="M 51.013344 149.087089 
L 60.611814 142.478435 
L 60.30803 132.396776 
L 50.657541 138.9417 
z
" clip-path="url(#pf820c3ece6)" style="fill: #486a14; fill-opacity: 0.6; stroke: #000000; stroke-opacity: 0.6; stroke-width: 0.1"/>
    <path d="M 60.001154 122.212483 
L 69.519143 115.856536 
L 69.260327 105.63445 
L 59.691138 111.92398 
z
" clip-path="url(#pf820c3ece6)" style="fill: #486a14; fill-opacity: 0.6; stroke: #000000; stroke-opacity: 0.6; stroke-width: 0.1"/>
    <path d="M 68.998875 95.308244 
L 78.436199 89.205563 
L 78.222449 78.84275 
L 68.734746 84.876318 
z
" clip-path="url(#pf820c3ece6)" style="fill: #486a14; fill-opacity: 0.6; stroke: #000000; stroke-opacity: 0.6; stroke-width: 0.1"/>
    <path d="M 50.657541 138.9417 
L 60.30803 132.396776 
L 60.001154 122.212483 
L 50.298082 128.692025 
z
" clip-path="url(#pf820c3ece6)" style="fill: #486a14; fill-opacity: 0.6; stroke: #000000; stroke-opacity: 0.6; stroke-width: 0.1"/>
    <path d="M 59.691138 111.92398 
L 69.260327 105.63445 
L 68.998875 95.308244 
L 59.377933 101.529662 
z
" clip-path="url(#pf820c3ece6)" style="fill: #486a14; fill-opacity: 0.6; stroke: #000000; stroke-opacity: 0.6; stroke-width: 0.1"/>
    <path d="M 50.298082 128.692025 
L 60.001154 122.212483 
L 59.691138 111.92398 
L 49.934908 118.336447 
z
" clip-path="url(#pf820c3ece6)" style="fill: #486a14; fill-opacity: 0.6; stroke: #000000; stroke-opacity: 0.6; stroke-width: 0.1"/>
    <path d="M 59.377933 101.529662 
L 68.998875 95.308244 
L 68.734746 84.876318 
L 59.06149 91.027886 
z
" clip-path="url(#pf820c3ece6)" style="fill: #486a14; fill-opacity: 0.6; stroke: #000000; stroke-opacity: 0.6; stroke-width: 0.1"/>
    <path d="M 49.934908 118.336447 
L 59.691138 111.92398 
L 59.377933 101.529662 
L 49.567962 107.873316 
z
" clip-path="url(#pf820c3ece6)" style="fill: #486a14; fill-opacity: 0.6; stroke: #000000; stroke-opacity: 0.6; stroke-width: 0.1"/>
    <path d="M 49.567962 107.873316 
L 59.377933 101.529662 
L 59.06149 91.027886 
L 49.197186 97.300948 
z
" clip-path="url(#pf820c3ece6)" style="fill: #486a14; fill-opacity: 0.6; stroke: #000000; stroke-opacity: 0.6; stroke-width: 0.1"/>
   </g>
   <g id="text_31">
    <!-- Prisma Triangular Oco (SI) -->
    <g transform="translate(52.879583 14.798437) scale(0.1 -0.1)">
     <defs>
      <path id="DejaVuSans-50" d="M 1259 4147 
L 1259 2394 
L 2053 2394 
Q 2494 2394 2734 2622 
Q 2975 2850 2975 3272 
Q 2975 3691 2734 3919 
Q 2494 4147 2053 4147 
L 1259 4147 
z
M 628 4666 
L 2053 4666 
Q 2838 4666 3239 4311 
Q 3641 3956 3641 3272 
Q 3641 2581 3239 2228 
Q 2838 1875 2053 1875 
L 1259 1875 
L 1259 0 
L 628 0 
L 628 4666 
z
" transform="scale(0.015625)"/>
      <path id="DejaVuSans-72" d="M 2631 2963 
Q 2534 3019 2420 3045 
Q 2306 3072 2169 3072 
Q 1681 3072 1420 2755 
Q 1159 2438 1159 1844 
L 1159 0 
L 581 0 
L 581 3500 
L 1159 3500 
L 1159 2956 
Q 1341 3275 1631 3429 
Q 1922 3584 2338 3584 
Q 2397 3584 2469 3576 
Q 2541 3569 2628 3553 
L 2631 2963 
z
" transform="scale(0.015625)"/>
      <path id="DejaVuSans-69" d="M 603 3500 
L 1178 3500 
L 1178 0 
L 603 0 
L 603 3500 
z
M 603 4863 
L 1178 4863 
L 1178 4134 
L 603 4134 
L 603 4863 
z
" transform="scale(0.015625)"/>
      <path id="DejaVuSans-73" d="M 2834 3397 
L 2834 2853 
Q 2591 2978 2328 3040 
Q 2066 3103 1784 3103 
Q 1356 3103 1142 2972 
Q 928 2841 928 2578 
Q 928 2378 1081 2264 
Q 1234 2150 1697 2047 
L 1894 2003 
Q 2506 1872 2764 1633 
Q 3022 1394 3022 966 
Q 3022 478 2636 193 
Q 2250 -91 1575 -91 
Q 1294 -91 989 -36 
Q 684 19 347 128 
L 347 722 
Q 666 556 975 473 
Q 1284 391 1588 391 
Q 1994 391 2212 530 
Q 2431 669 2431 922 
Q 2431 1156 2273 1281 
Q 2116 1406 1581 1522 
L 1381 1569 
Q 847 1681 609 1914 
Q 372 2147 372 2553 
Q 372 3047 722 3315 
Q 1072 3584 1716 3584 
Q 2034 3584 2315 3537 
Q 2597 3491 2834 3397 
z
" transform="scale(0.015625)"/>
      <path id="DejaVuSans-6d" d="M 3328 2828 
Q 3544 3216 3844 3400 
Q 4144 3584 4550 3584 
Q 5097 3584 5394 3201 
Q 5691 2819 5691 2113 
L 5691 0 
L 5113 0 
L 5113 2094 
Q 5113 2597 4934 2840 
Q 4756 3084 4391 3084 
Q 3944 3084 3684 2787 
Q 3425 2491 3425 1978 
L 3425 0 
L 2847 0 
L 2847 2094 
Q 2847 2600 2669 2842 
Q 2491 3084 2119 3084 
Q 1678 3084 1418 2786 
Q 1159 2488 1159 1978 
L 1159 0 
L 581 0 
L 581 3500 
L 1159 3500 
L 1159 2956 
Q 1356 3278 1631 3431 
Q 1906 3584 2284 3584 
Q 2666 3584 2933 3390 
Q 3200 3197 3328 2828 
z
" transform="scale(0.015625)"/>
      <path id="DejaVuSans-61" d="M 2194 1759 
Q 1497 1759 1228 1600 
Q 959 1441 959 1056 
Q 959 750 1161 570 
Q 1363 391 1709 391 
Q 2188 391 2477 730 
Q 2766 1069 2766 1631 
L 2766 1759 
L 2194 1759 
z
M 3341 1997 
L 3341 0 
L 2766 0 
L 2766 531 
Q 2569 213 2275 61 
Q 1981 -91 1556 -91 
Q 1019 -91 701 211 
Q 384 513 384 1019 
Q 384 1609 779 1909 
Q 1175 2209 1959 2209 
L 2766 2209 
L 2766 2266 
Q 2766 2663 2505 2880 
Q 2244 3097 1772 3097 
Q 1472 3097 1187 3025 
Q 903 2953 641 2809 
L 641 3341 
Q 956 3463 1253 3523 
Q 1550 3584 1831 3584 
Q 2591 3584 2966 3190 
Q 3341 2797 3341 1997 
z
" transform="scale(0.015625)"/>
      <path id="DejaVuSans-20" transform="scale(0.015625)"/>
      <path id="DejaVuSans-54" d="M -19 4666 
L 3928 4666 
L 3928 4134 
L 2272 4134 
L 2272 0 
L 1638 0 
L 1638 4134 
L -19 4134 
L -19 4666 
z
" transform="scale(0.015625)"/>
      <path id="DejaVuSans-6e" d="M 3513 2113 
L 3513 0 
L 2938 0 
L 2938 2094 
Q 2938 2591 2744 2837 
Q 2550 3084 2163 3084 
Q 1697 3084 1428 2787 
Q 1159 2491 1159 1978 
L 1159 0 
L 581 0 
L 581 3500 
L 1159 3500 
L 1159 2956 
Q 1366 3272 1645 3428 
Q 1925 3584 2291 3584 
Q 2894 3584 3203 3211 
Q 3513 2838 3513 2113 
z
" transform="scale(0.015625)"/>
      <path id="DejaVuSans-67" d="M 2906 1791 
Q 2906 2416 2648 2759 
Q 2391 3103 1925 3103 
Q 1463 3103 1205 2759 
Q 947 2416 947 1791 
Q 947 1169 1205 825 
Q 1463 481 1925 481 
Q 2391 481 2648 825 
Q 2906 1169 2906 1791 
z
M 3481 434 
Q 3481 -459 3084 -895 
Q 2688 -1331 1869 -1331 
Q 1566 -1331 1297 -1286 
Q 1028 -1241 775 -1147 
L 775 -588 
Q 1028 -725 1275 -790 
Q 1522 -856 1778 -856 
Q 2344 -856 2625 -561 
Q 2906 -266 2906 331 
L 2906 616 
Q 2728 306 2450 153 
Q 2172 0 1784 0 
Q 1141 0 747 490 
Q 353 981 353 1791 
Q 353 2603 747 3093 
Q 1141 3584 1784 3584 
Q 2172 3584 2450 3431 
Q 2728 3278 2906 2969 
L 2906 3500 
L 3481 3500 
L 3481 434 
z
" transform="scale(0.015625)"/>
      <path id="DejaVuSans-75" d="M 544 1381 
L 544 3500 
L 1119 3500 
L 1119 1403 
Q 1119 906 1312 657 
Q 1506 409 1894 409 
Q 2359 409 2629 706 
Q 2900 1003 2900 1516 
L 2900 3500 
L 3475 3500 
L 3475 0 
L 2900 0 
L 2900 538 
Q 2691 219 2414 64 
Q 2138 -91 1772 -91 
Q 1169 -91 856 284 
Q 544 659 544 1381 
z
M 1991 3584 
L 1991 3584 
z
" transform="scale(0.015625)"/>
      <path id="DejaVuSans-6c" d="M 603 4863 
L 1178 4863 
L 1178 0 
L 603 0 
L 603 4863 
z
" transform="scale(0.015625)"/>
      <path id="DejaVuSans-4f" d="M 2522 4238 
Q 1834 4238 1429 3725 
Q 1025 3213 1025 2328 
Q 1025 1447 1429 934 
Q 1834 422 2522 422 
Q 3209 422 3611 934 
Q 4013 1447 4013 2328 
Q 4013 3213 3611 3725 
Q 3209 4238 2522 4238 
z
M 2522 4750 
Q 3503 4750 4090 4092 
Q 4678 3434 4678 2328 
Q 4678 1225 4090 567 
Q 3503 -91 2522 -91 
Q 1538 -91 948 565 
Q 359 1222 359 2328 
Q 359 3434 948 4092 
Q 1538 4750 2522 4750 
z
" transform="scale(0.015625)"/>
      <path id="DejaVuSans-63" d="M 3122 3366 
L 3122 2828 
Q 2878 2963 2633 3030 
Q 2388 3097 2138 3097 
Q 1578 3097 1268 2742 
Q 959 2388 959 1747 
Q 959 1106 1268 751 
Q 1578 397 2138 397 
Q 2388 397 2633 464 
Q 2878 531 3122 666 
L 3122 134 
Q 2881 22 2623 -34 
Q 2366 -91 2075 -91 
Q 1284 -91 818 406 
Q 353 903 353 1747 
Q 353 2603 823 3093 
Q 1294 3584 2113 3584 
Q 2378 3584 2631 3529 
Q 2884 3475 3122 3366 
z
" transform="scale(0.015625)"/>
      <path id="DejaVuSans-6f" d="M 1959 3097 
Q 1497 3097 1228 2736 
Q 959 2375 959 1747 
Q 959 1119 1226 758 
Q 1494 397 1959 397 
Q 2419 397 2687 759 
Q 2956 1122 2956 1747 
Q 2956 2369 2687 2733 
Q 2419 3097 1959 3097 
z
M 1959 3584 
Q 2709 3584 3137 3096 
Q 3566 2609 3566 1747 
Q 3566 888 3137 398 
Q 2709 -91 1959 -91 
Q 1206 -91 779 398 
Q 353 888 353 1747 
Q 353 2609 779 3096 
Q 1206 3584 1959 3584 
z
" transform="scale(0.015625)"/>
      <path id="DejaVuSans-28" d="M 1984 4856 
Q 1566 4138 1362 3434 
Q 1159 2731 1159 2009 
Q 1159 1288 1364 580 
Q 1569 -128 1984 -844 
L 1484 -844 
Q 1016 -109 783 600 
Q 550 1309 550 2009 
Q 550 2706 781 3412 
Q 1013 4119 1484 4856 
L 1984 4856 
z
" transform="scale(0.015625)"/>
      <path id="DejaVuSans-53" d="M 3425 4513 
L 3425 3897 
Q 3066 4069 2747 4153 
Q 2428 4238 2131 4238 
Q 1616 4238 1336 4038 
Q 1056 3838 1056 3469 
Q 1056 3159 1242 3001 
Q 1428 2844 1947 2747 
L 2328 2669 
Q 3034 2534 3370 2195 
Q 3706 1856 3706 1288 
Q 3706 609 3251 259 
Q 2797 -91 1919 -91 
Q 1588 -91 1214 -16 
Q 841 59 441 206 
L 441 856 
Q 825 641 1194 531 
Q 1563 422 1919 422 
Q 2459 422 2753 634 
Q 3047 847 3047 1241 
Q 3047 1584 2836 1778 
Q 2625 1972 2144 2069 
L 1759 2144 
Q 1053 2284 737 2584 
Q 422 2884 422 3419 
Q 422 4038 858 4394 
Q 1294 4750 2059 4750 
Q 2388 4750 2728 4690 
Q 3069 4631 3425 4513 
z
" transform="scale(0.015625)"/>
      <path id="DejaVuSans-49" d="M 628 4666 
L 1259 4666 
L 1259 0 
L 628 0 
L 628 4666 
z
" transform="scale(0.015625)"/>
      <path id="DejaVuSans-29" d="M 513 4856 
L 1013 4856 
Q 1481 4119 1714 3412 
Q 1947 2706 1947 2009 
Q 1947 1309 1714 600 
Q 1481 -109 1013 -844 
L 513 -844 
Q 928 -128 1133 580 
Q 1338 1288 1338 2009 
Q 1338 2731 1133 3434 
Q 928 4138 513 4856 
z
" transform="scale(0.015625)"/>
     </defs>
     <use xlink:href="#DejaVuSans-50"/>
     <use xlink:href="#DejaVuSans-72" transform="translate(58.552734 0)"/>
     <use xlink:href="#DejaVuSans-69" transform="translate(99.666016 0)"/>
     <use xlink:href="#DejaVuSans-73" transform="translate(127.449219 0)"/>
     <use xlink:href="#DejaVuSans-6d" transform="translate(179.548828 0)"/>
     <use xlink:href="#DejaVuSans-61" transform="translate(276.960938 0)"/>
     <use xlink:href="#DejaVuSans-20" transform="translate(338.240234 0)"/>
     <use xlink:href="#DejaVuSans-54" transform="translate(370.027344 0)"/>
     <use xlink:href="#DejaVuSans-72" transform="translate(416.361328 0)"/>
     <use xlink:href="#DejaVuSans-69" transform="translate(457.474609 0)"/>
     <use xlink:href="#DejaVuSans-61" transform="translate(485.257812 0)"/>
     <use xlink:href="#DejaVuSans-6e" transform="translate(546.537109 0)"/>
     <use xlink:href="#DejaVuSans-67" transform="translate(609.916016 0)"/>
     <use xlink:href="#DejaVuSans-75" transform="translate(673.392578 0)"/>
     <use xlink:href="#DejaVuSans-6c" transform="translate(736.771484 0)"/>
     <use xlink:href="#DejaVuSans-61" transform="translate(764.554688 0)"/>
     <use xlink:href="#DejaVuSans-72" transform="translate(825.833984 0)"/>
     <use xlink:href="#DejaVuSans-20" transform="translate(866.947266 0)"/>
     <use xlink:href="#DejaVuSans-4f" transform="translate(898.734375 0)"/>
     <use xlink:href="#DejaVuSans-63" transform="translate(977.445312 0)"/>
     <use xlink:href="#DejaVuSans-6f" transform="translate(1032.425781 0)"/>
     <use xlink:href="#DejaVuSans-20" transform="translate(1093.607422 0)"/>
     <use xlink:href="#DejaVuSans-28" transform="translate(1125.394531 0)"/>
     <use xlink:href="#DejaVuSans-53" transform="translate(1164.408203 0)"/>
     <use xlink:href="#DejaVuSans-49" transform="translate(1227.884766 0)"/>
     <use xlink:href="#DejaVuSans-29" transform="translate(1257.376953 0)"/>
    </g>
   </g>
   <g id="Poly3DCollection_2">
    <path d="M 96.238093 75.00892 
L 108.046531 78.882825 
L 116.458565 73.365003 
L 104.702214 69.559195 
z
" clip-path="url(#pf820c3ece6)" style="fill: #36648a; fill-opacity: 0.6; stroke: #000000; stroke-opacity: 0.6; stroke-width: 0.1"/>
    <path d="M 108.046531 78.882825 
L 120.003648 82.805507 
L 128.361622 77.218302 
L 116.458565 73.365003 
z
" clip-path="url(#pf820c3ece6)" style="fill: #36648a; fill-opacity: 0.6; stroke: #000000; stroke-opacity: 0.6; stroke-width: 0.1"/>
    <path d="M 87.622319 80.556289 
L 99.482824 84.500136 
L 108.046531 78.882825 
L 96.238093 75.00892 
z
" clip-path="url(#pf820c3ece6)" style="fill: #36648a; fill-opacity: 0.6; stroke: #000000; stroke-opacity: 0.6; stroke-width: 0.1"/>
    <path d="M 120.003648 82.805507 
L 132.112271 86.777892 
L 140.414146 81.119989 
L 128.361622 77.218302 
z
" clip-path="url(#pf820c3ece6)" style="fill: #36648a; fill-opacity: 0.6; stroke: #000000; stroke-opacity: 0.6; stroke-width: 0.1"/>
    <path d="M 99.482824 84.500136 
L 111.49402 88.494091 
L 120.003648 82.805507 
L 108.046531 78.882825 
z
" clip-path="url(#pf820c3ece6)" style="fill: #36648a; fill-opacity: 0.6; stroke: #000000; stroke-opacity: 0.6; stroke-width: 0.1"/>
    <path d="M 78.850777 86.20395 
L 90.763306 90.219651 
L 99.482824 84.500136 
L 87.622319 80.556289 
z
" clip-path="url(#pf820c3ece6)" style="fill: #36648a; fill-opacity: 0.6; stroke: #000000; stroke-opacity: 0.6; stroke-width: 0.1"/>
    <path d="M 132.112271 86.777892 
L 144.375297 90.800931 
L 152.618971 85.070978 
L 140.414146 81.119989 
z
" clip-path="url(#pf820c3ece6)" style="fill: #36648a; fill-opacity: 0.6; stroke: #000000; stroke-opacity: 0.6; stroke-width: 0.1"/>
    <path d="M 111.49402 88.494091 
L 123.658796 92.539114 
L 132.112271 86.777892 
L 120.003648 82.805507 
z
" clip-path="url(#pf820c3ece6)" style="fill: #36648a; fill-opacity: 0.6; stroke: #000000; stroke-opacity: 0.6; stroke-width: 0.1"/>
    <path d="M 90.763306 90.219651 
L 102.828572 94.286838 
L 111.49402 88.494091 
L 99.482824 84.500136 
z
" clip-path="url(#pf820c3ece6)" style="fill: #36648a; fill-opacity: 0.6; stroke: #000000; stroke-opacity: 0.6; stroke-width: 0.1"/>
    <path d="M 144.375297 90.800931 
L 156.795699 94.875599 
L 164.979003 89.072212 
L 152.618971 85.070978 
z
" clip-path="url(#pf820c3ece6)" style="fill: #36648a; fill-opacity: 0.6; stroke: #000000; stroke-opacity: 0.6; stroke-width: 0.1"/>
    <path d="M 69.919207 91.954648 
L 81.883686 96.044184 
L 90.763306 90.219651 
L 78.850777 86.20395 
z
" clip-path="url(#pf820c3ece6)" style="fill: #36648a; fill-opacity: 0.6; stroke: #000000; stroke-opacity: 0.6; stroke-width: 0.1"/>
    <path d="M 123.658796 92.539114 
L 135.980117 96.636191 
L 144.375297 90.800931 
L 132.112271 86.777892 
z
" clip-path="url(#pf820c3ece6)" style="fill: #36648a; fill-opacity: 0.6; stroke: #000000; stroke-opacity: 0.6; stroke-width: 0.1"/>
    <path d="M 102.828572 94.286838 
L 115.049531 98.40651 
L 123.658796 92.539114 
L 111.49402 88.494091 
z
" clip-path="url(#pf820c3ece6)" style="fill: #36648a; fill-opacity: 0.6; stroke: #000000; stroke-opacity: 0.6; stroke-width: 0.1"/>
    <path d="M 156.795699 94.875599 
L 169.376525 99.002896 
L 177.497221 93.124654 
L 164.979003 89.072212 
z
" clip-path="url(#pf820c3ece6)" style="fill: #36648a; fill-opacity: 0.6; stroke: #000000; stroke-opacity: 0.6; stroke-width: 0.1"/>
    <path d="M 81.883686 96.044184 
L 94.002985 100.186637 
L 102.828572 94.286838 
L 90.763306 90.219651 
z
" clip-path="url(#pf820c3ece6)" style="fill: #36648a; fill-opacity: 0.6; stroke: #000000; stroke-opacity: 0.6; stroke-width: 0.1"/>
    <path d="M 135.980117 96.636191 
L 148.461025 100.786333 
L 156.795699 94.875599 
L 144.375297 90.800931 
z
" clip-path="url(#pf820c3ece6)" style="fill: #36648a; fill-opacity: 0.6; stroke: #000000; stroke-opacity: 0.6; stroke-width: 0.1"/>
    <path d="M 60.823187 97.811229 
L 72.839512 101.976654 
L 81.883686 96.044184 
L 69.919207 91.954648 
z
" clip-path="url(#pf820c3ece6)" style="fill: #36648a; fill-opacity: 0.6; stroke: #000000; stroke-opacity: 0.6; stroke-width: 0.1"/>
    <path d="M 115.049531 98.40651 
L 127.429217 102.579688 
L 135.980117 96.636191 
L 123.658796 92.539114 
z
" clip-path="url(#pf820c3ece6)" style="fill: #36648a; fill-opacity: 0.6; stroke: #000000; stroke-opacity: 0.6; stroke-width: 0.1"/>
    <path d="M 169.376525 99.002896 
L 182.120905 103.183849 
L 190.176681 97.229294 
L 177.497221 93.124654 
z
" clip-path="url(#pf820c3ece6)" style="fill: #36648a; fill-opacity: 0.6; stroke: #000000; stroke-opacity: 0.6; stroke-width: 0.1"/>
    <path d="M 94.002985 100.186637 
L 106.280129 104.383043 
L 115.049531 98.40651 
L 102.828572 94.286838 
z
" clip-path="url(#pf820c3ece6)" style="fill: #36648a; fill-opacity: 0.6; stroke: #000000; stroke-opacity: 0.6; stroke-width: 0.1"/>
    <path d="M 148.461025 100.786333 
L 161.104639 104.990579 
L 169.376525 99.002896 
L 156.795699 94.875599 
z
" clip-path="url(#pf820c3ece6)" style="fill: #36648a; fill-opacity: 0.6; stroke: #000000; stroke-opacity: 0.6; stroke-width: 0.1"/>
    <path d="M 72.839512 101.976654 
L 85.012778 106.196483 
L 94.002985 100.186637 
L 81.883686 96.044184 
z
" clip-path="url(#pf820c3ece6)" style="fill: #36648a; fill-opacity: 0.6; stroke: #000000; stroke-opacity: 0.6; stroke-width: 0.1"/>
    <path d="M 127.429217 102.579688 
L 139.970741 106.807422 
L 148.461025 100.786333 
L 135.980117 96.636191 
z
" clip-path="url(#pf820c3ece6)" style="fill: #36648a; fill-opacity: 0.6; stroke: #000000; stroke-opacity: 0.6; stroke-width: 0.1"/>
    <path d="M 182.120905 103.183849 
L 195.032047 107.41951 
L 203.020519 101.387147 
L 190.176681 97.229294 
z
" clip-path="url(#pf820c3ece6)" style="fill: #36648a; fill-opacity: 0.6; stroke: #000000; stroke-opacity: 0.6; stroke-width: 0.1"/>
    <path d="M 51.558135 103.776643 
L 63.626168 108.020091 
L 72.839512 101.976654 
L 60.823187 97.811229 
z
" clip-path="url(#pf820c3ece6)" style="fill: #36648a; fill-opacity: 0.6; stroke: #000000; stroke-opacity: 0.6; stroke-width: 0.1"/>
    <path d="M 106.280129 104.383043 
L 118.718222 108.634463 
L 127.429217 102.579688 
L 115.049531 98.40651 
z
" clip-path="url(#pf820c3ece6)" style="fill: #36648a; fill-opacity: 0.6; stroke: #000000; stroke-opacity: 0.6; stroke-width: 0.1"/>
    <path d="M 161.104639 104.990579 
L 173.914162 109.249993 
L 182.120905 103.183849 
L 169.376525 99.002896 
z
" clip-path="url(#pf820c3ece6)" style="fill: #36648a; fill-opacity: 0.6; stroke: #000000; stroke-opacity: 0.6; stroke-width: 0.1"/>
    <path d="M 85.012778 106.196483 
L 97.346079 110.471787 
L 106.280129 104.383043 
L 94.002985 100.186637 
z
" clip-path="url(#pf820c3ece6)" style="fill: #36648a; fill-opacity: 0.6; stroke: #000000; stroke-opacity: 0.6; stroke-width: 0.1"/>
    <path d="M 139.970741 106.807422 
L 152.677299 111.090789 
L 161.104639 104.990579 
L 148.461025 100.786333 
z
" clip-path="url(#pf820c3ece6)" style="fill: #36648a; fill-opacity: 0.6; stroke: #000000; stroke-opacity: 0.6; stroke-width: 0.1"/>
    <path d="M 195.032047 107.41951 
L 208.113248 111.710962 
L 216.031952 105.599254 
L 203.020519 101.387147 
z
" clip-path="url(#pf820c3ece6)" style="fill: #36648a; fill-opacity: 0.6; stroke: #000000; stroke-opacity: 0.6; stroke-width: 0.1"/>
    <path d="M 63.626168 108.020091 
L 75.853301 112.319482 
L 85.012778 106.196483 
L 72.839512 101.976654 
z
" clip-path="url(#pf820c3ece6)" style="fill: #36648a; fill-opacity: 0.6; stroke: #000000; stroke-opacity: 0.6; stroke-width: 0.1"/>
    <path d="M 118.718222 108.634463 
L 131.320449 112.941984 
L 139.970741 106.807422 
L 127.429217 102.579688 
z
" clip-path="url(#pf820c3ece6)" style="fill: #36648a; fill-opacity: 0.6; stroke: #000000; stroke-opacity: 0.6; stroke-width: 0.1"/>
    <path d="M 173.914162 109.249993 
L 186.892882 113.565668 
L 195.032047 107.41951 
L 182.120905 103.183849 
z
" clip-path="url(#pf820c3ece6)" style="fill: #36648a; fill-opacity: 0.6; stroke: #000000; stroke-opacity: 0.6; stroke-width: 0.1"/>
    <path d="M 42.119294 109.853954 
L 54.238862 114.177637 
L 63.626168 108.020091 
L 51.558135 103.776643 
z
" clip-path="url(#pf820c3ece6)" style="fill: #36648a; fill-opacity: 0.6; stroke: #000000; stroke-opacity: 0.6; stroke-width: 0.1"/>
    <path d="M 97.346079 110.471787 
L 109.842594 114.803669 
L 118.718222 108.634463 
L 106.280129 104.383043 
z
" clip-path="url(#pf820c3ece6)" style="fill: #36648a; fill-opacity: 0.6; stroke: #000000; stroke-opacity: 0.6; stroke-width: 0.1"/>
    <path d="M 152.677299 111.090789 
L 165.552169 115.430893 
L 173.914162 109.249993 
L 161.104639 104.990579 
z
" clip-path="url(#pf820c3ece6)" style="fill: #36648a; fill-opacity: 0.6; stroke: #000000; stroke-opacity: 0.6; stroke-width: 0.1"/>
    <path d="M 75.853301 112.319482 
L 88.242702 116.675932 
L 97.346079 110.471787 
L 85.012778 106.196483 
z
" clip-path="url(#pf820c3ece6)" style="fill: #36648a; fill-opacity: 0.6; stroke: #000000; stroke-opacity: 0.6; stroke-width: 0.1"/>
    <path d="M 131.320449 112.941984 
L 144.090082 117.306726 
L 152.677299 111.090789 
L 139.970741 106.807422 
z
" clip-path="url(#pf820c3ece6)" style="fill: #36648a; fill-opacity: 0.6; stroke: #000000; stroke-opacity: 0.6; stroke-width: 0.1"/>
    <path d="M 186.892882 113.565668 
L 200.044173 117.938726 
L 208.113248 111.710962 
L 195.032047 107.41951 
z
" clip-path="url(#pf820c3ece6)" style="fill: #36648a; fill-opacity: 0.6; stroke: #000000; stroke-opacity: 0.6; stroke-width: 0.1"/>
    <path d="M 54.238862 114.177637 
L 66.519729 118.558863 
L 75.853301 112.319482 
L 63.626168 108.020091 
z
" clip-path="url(#pf820c3ece6)" style="fill: #36648a; fill-opacity: 0.6; stroke: #000000; stroke-opacity: 0.6; stroke-width: 0.1"/>
    <path d="M 109.842594 114.803669 
L 122.505583 119.193259 
L 131.320449 112.941984 
L 118.718222 108.634463 
z
" clip-path="url(#pf820c3ece6)" style="fill: #36648a; fill-opacity: 0.6; stroke: #000000; stroke-opacity: 0.6; stroke-width: 0.1"/>
    <path d="M 165.552169 115.430893 
L 178.598718 119.82887 
L 186.892882 113.565668 
L 173.914162 109.249993 
z
" clip-path="url(#pf820c3ece6)" style="fill: #36648a; fill-opacity: 0.6; stroke: #000000; stroke-opacity: 0.6; stroke-width: 0.1"/>
    <path d="M 32.501727 116.046339 
L 44.672621 120.452554 
L 54.238862 114.177637 
L 42.119294 109.853954 
z
" clip-path="url(#pf820c3ece6)" style="fill: #36648a; fill-opacity: 0.6; stroke: #000000; stroke-opacity: 0.6; stroke-width: 0.1"/>
    <path d="M 88.242702 116.675932 
L 100.797622 121.090582 
L 109.842594 114.803669 
L 97.346079 110.471787 
z
" clip-path="url(#pf820c3ece6)" style="fill: #36648a; fill-opacity: 0.6; stroke: #000000; stroke-opacity: 0.6; stroke-width: 0.1"/>
    <path d="M 144.090082 117.306726 
L 157.030478 121.729836 
L 165.552169 115.430893 
L 152.677299 111.090789 
z
" clip-path="url(#pf820c3ece6)" style="fill: #36648a; fill-opacity: 0.6; stroke: #000000; stroke-opacity: 0.6; stroke-width: 0.1"/>
    <path d="M 66.519729 118.558863 
L 78.965136 122.998789 
L 88.242702 116.675932 
L 75.853301 112.319482 
z
" clip-path="url(#pf820c3ece6)" style="fill: #36648a; fill-opacity: 0.6; stroke: #000000; stroke-opacity: 0.6; stroke-width: 0.1"/>
    <path d="M 122.505583 119.193259 
L 135.338396 123.641717 
L 144.090082 117.306726 
L 131.320449 112.941984 
z
" clip-path="url(#pf820c3ece6)" style="fill: #36648a; fill-opacity: 0.6; stroke: #000000; stroke-opacity: 0.6; stroke-width: 0.1"/>
    <path d="M 178.598718 119.82887 
L 191.820403 124.285886 
L 200.044173 117.938726 
L 186.892882 113.565668 
z
" clip-path="url(#pf820c3ece6)" style="fill: #36648a; fill-opacity: 0.6; stroke: #000000; stroke-opacity: 0.6; stroke-width: 0.1"/>
    <path d="M 44.672621 120.452554 
L 57.007051 124.917973 
L 66.519729 118.558863 
L 54.238862 114.177637 
z
" clip-path="url(#pf820c3ece6)" style="fill: #36648a; fill-opacity: 0.6; stroke: #000000; stroke-opacity: 0.6; stroke-width: 0.1"/>
    <path d="M 100.797622 121.090582 
L 113.521401 125.564607 
L 122.505583 119.193259 
L 109.842594 114.803669 
z
" clip-path="url(#pf820c3ece6)" style="fill: #36648a; fill-opacity: 0.6; stroke: #000000; stroke-opacity: 0.6; stroke-width: 0.1"/>
    <path d="M 157.030478 121.729836 
L 170.145085 126.212492 
L 178.598718 119.82887 
L 165.552169 115.430893 
z
" clip-path="url(#pf820c3ece6)" style="fill: #36648a; fill-opacity: 0.6; stroke: #000000; stroke-opacity: 0.6; stroke-width: 0.1"/>
    <path d="M 22.700311 122.357097 
L 34.92228 126.848231 
L 44.672621 120.452554 
L 32.501727 116.046339 
z
" clip-path="url(#pf820c3ece6)" style="fill: #36648a; fill-opacity: 0.6; stroke: #000000; stroke-opacity: 0.6; stroke-width: 0.1"/>
    <path d="M 78.965136 122.998789 
L 91.578412 127.498603 
L 100.797622 121.090582 
L 88.242702 116.675932 
z
" clip-path="url(#pf820c3ece6)" style="fill: #36648a; fill-opacity: 0.6; stroke: #000000; stroke-opacity: 0.6; stroke-width: 0.1"/>
    <path d="M 135.338396 123.641717 
L 148.34447 128.150236 
L 157.030478 121.729836 
L 144.090082 117.306726 
z
" clip-path="url(#pf820c3ece6)" style="fill: #36648a; fill-opacity: 0.6; stroke: #000000; stroke-opacity: 0.6; stroke-width: 0.1"/>
    <path d="M 57.007051 124.917973 
L 69.508335 129.443799 
L 78.965136 122.998789 
L 66.519729 118.558863 
z
" clip-path="url(#pf820c3ece6)" style="fill: #36648a; fill-opacity: 0.6; stroke: #000000; stroke-opacity: 0.6; stroke-width: 0.1"/>
    <path d="M 113.521401 125.564607 
L 126.417468 130.099214 
L 135.338396 123.641717 
L 122.505583 119.193259 
z
" clip-path="url(#pf820c3ece6)" style="fill: #36648a; fill-opacity: 0.6; stroke: #000000; stroke-opacity: 0.6; stroke-width: 0.1"/>
    <path d="M 170.145085 126.212492 
L 183.437446 130.755906 
L 191.820403 124.285886 
L 178.598718 119.82887 
z
" clip-path="url(#pf820c3ece6)" style="fill: #36648a; fill-opacity: 0.6; stroke: #000000; stroke-opacity: 0.6; stroke-width: 0.1"/>
    <path d="M 34.92228 126.848231 
L 47.310061 131.400294 
L 57.007051 124.917973 
L 44.672621 120.452554 
z
" clip-path="url(#pf820c3ece6)" style="fill: #36648a; fill-opacity: 0.6; stroke: #000000; stroke-opacity: 0.6; stroke-width: 0.1"/>
    <path d="M 91.578412 127.498603 
L 104.362977 132.059524 
L 113.521401 125.564607 
L 100.797622 121.090582 
z
" clip-path="url(#pf820c3ece6)" style="fill: #36648a; fill-opacity: 0.6; stroke: #000000; stroke-opacity: 0.6; stroke-width: 0.1"/>
    <path d="M 148.34447 128.150236 
L 161.527341 132.720041 
L 170.145085 126.212492 
L 157.030478 121.729836 
z
" clip-path="url(#pf820c3ece6)" style="fill: #36648a; fill-opacity: 0.6; stroke: #000000; stroke-opacity: 0.6; stroke-width: 0.1"/>
    <path d="M 69.508335 129.443799 
L 82.179881 134.031265 
L 91.578412 127.498603 
L 78.965136 122.998789 
z
" clip-path="url(#pf820c3ece6)" style="fill: #36648a; fill-opacity: 0.6; stroke: #000000; stroke-opacity: 0.6; stroke-width: 0.1"/>
    <path d="M 126.417468 130.099214 
L 139.489347 134.695641 
L 148.34447 128.150236 
L 135.338396 123.641717 
z
" clip-path="url(#pf820c3ece6)" style="fill: #36648a; fill-opacity: 0.6; stroke: #000000; stroke-opacity: 0.6; stroke-width: 0.1"/>
    <path d="M 47.310061 131.400294 
L 59.867053 136.014537 
L 69.508335 129.443799 
L 57.007051 124.917973 
z
" clip-path="url(#pf820c3ece6)" style="fill: #36648a; fill-opacity: 0.6; stroke: #000000; stroke-opacity: 0.6; stroke-width: 0.1"/>
    <path d="M 104.362977 132.059524 
L 117.322343 136.682806 
L 126.417468 130.099214 
L 113.521401 125.564607 
z
" clip-path="url(#pf820c3ece6)" style="fill: #36648a; fill-opacity: 0.6; stroke: #000000; stroke-opacity: 0.6; stroke-width: 0.1"/>
    <path d="M 161.527341 132.720041 
L 174.890635 137.35239 
L 183.437446 130.755906 
L 170.145085 126.212492 
z
" clip-path="url(#pf820c3ece6)" style="fill: #36648a; fill-opacity: 0.6; stroke: #000000; stroke-opacity: 0.6; stroke-width: 0.1"/>
    <path d="M 82.179881 134.031265 
L 95.025193 138.681638 
L 104.362977 132.059524 
L 91.578412 127.498603 
z
" clip-path="url(#pf820c3ece6)" style="fill: #36648a; fill-opacity: 0.6; stroke: #000000; stroke-opacity: 0.6; stroke-width: 0.1"/>
    <path d="M 139.489347 134.695641 
L 152.740658 139.355161 
L 161.527341 132.720041 
L 148.34447 128.150236 
z
" clip-path="url(#pf820c3ece6)" style="fill: #36648a; fill-opacity: 0.6; stroke: #000000; stroke-opacity: 0.6; stroke-width: 0.1"/>
    <path d="M 59.867053 136.014537 
L 72.596746 140.69224 
L 82.179881 134.031265 
L 69.508335 129.443799 
z
" clip-path="url(#pf820c3ece6)" style="fill: #36648a; fill-opacity: 0.6; stroke: #000000; stroke-opacity: 0.6; stroke-width: 0.1"/>
    <path d="M 117.322343 136.682806 
L 130.460121 141.369737 
L 139.489347 134.695641 
L 126.417468 130.099214 
z
" clip-path="url(#pf820c3ece6)" style="fill: #36648a; fill-opacity: 0.6; stroke: #000000; stroke-opacity: 0.6; stroke-width: 0.1"/>
    <path d="M 95.025193 138.681638 
L 108.047868 143.396223 
L 117.322343 136.682806 
L 104.362977 132.059524 
z
" clip-path="url(#pf820c3ece6)" style="fill: #36648a; fill-opacity: 0.6; stroke: #000000; stroke-opacity: 0.6; stroke-width: 0.1"/>
    <path d="M 152.740658 139.355161 
L 166.175119 144.079082 
L 174.890635 137.35239 
L 161.527341 132.720041 
z
" clip-path="url(#pf820c3ece6)" style="fill: #36648a; fill-opacity: 0.6; stroke: #000000; stroke-opacity: 0.6; stroke-width: 0.1"/>
    <path d="M 72.596746 140.69224 
L 85.502727 145.434724 
L 95.025193 138.681638 
L 82.179881 134.031265 
z
" clip-path="url(#pf820c3ece6)" style="fill: #36648a; fill-opacity: 0.6; stroke: #000000; stroke-opacity: 0.6; stroke-width: 0.1"/>
    <path d="M 130.460121 141.369737 
L 143.78002 146.12164 
L 152.740658 139.355161 
L 139.489347 134.695641 
z
" clip-path="url(#pf820c3ece6)" style="fill: #36648a; fill-opacity: 0.6; stroke: #000000; stroke-opacity: 0.6; stroke-width: 0.1"/>
    <path d="M 108.047868 143.396223 
L 121.251606 148.176357 
L 130.460121 141.369737 
L 117.322343 136.682806 
z
" clip-path="url(#pf820c3ece6)" style="fill: #36648a; fill-opacity: 0.6; stroke: #000000; stroke-opacity: 0.6; stroke-width: 0.1"/>
    <path d="M 85.502727 145.434724 
L 98.588684 150.243342 
L 108.047868 143.396223 
L 95.025193 138.681638 
z
" clip-path="url(#pf820c3ece6)" style="fill: #36648a; fill-opacity: 0.6; stroke: #000000; stroke-opacity: 0.6; stroke-width: 0.1"/>
    <path d="M 143.78002 146.12164 
L 157.285853 150.939876 
L 166.175119 144.079082 
L 152.740658 139.355161 
z
" clip-path="url(#pf820c3ece6)" style="fill: #36648a; fill-opacity: 0.6; stroke: #000000; stroke-opacity: 0.6; stroke-width: 0.1"/>
    <path d="M 121.251606 148.176357 
L 134.64021 153.023418 
L 143.78002 146.12164 
L 130.460121 141.369737 
z
" clip-path="url(#pf820c3ece6)" style="fill: #36648a; fill-opacity: 0.6; stroke: #000000; stroke-opacity: 0.6; stroke-width: 0.1"/>
    <path d="M 98.588684 150.243342 
L 111.858409 155.119488 
L 121.251606 148.176357 
L 108.047868 143.396223 
z
" clip-path="url(#pf820c3ece6)" style="fill: #36648a; fill-opacity: 0.6; stroke: #000000; stroke-opacity: 0.6; stroke-width: 0.1"/>
    <path d="M 134.64021 153.023418 
L 148.217589 157.938821 
L 157.285853 150.939876 
L 143.78002 146.12164 
z
" clip-path="url(#pf820c3ece6)" style="fill: #36648a; fill-opacity: 0.6; stroke: #000000; stroke-opacity: 0.6; stroke-width: 0.1"/>
    <path d="M 111.858409 155.119488 
L 125.315799 160.064594 
L 134.64021 153.023418 
L 121.251606 148.176357 
z
" clip-path="url(#pf820c3ece6)" style="fill: #36648a; fill-opacity: 0.6; stroke: #000000; stroke-opacity: 0.6; stroke-width: 0.1"/>
    <path d="M 125.315799 160.064594 
L 138.964864 165.080134 
L 148.217589 157.938821 
L 134.64021 153.023418 
z
" clip-path="url(#pf820c3ece6)" style="fill: #36648a; fill-opacity: 0.6; stroke: #000000; stroke-opacity: 0.6; stroke-width: 0.1"/>
   </g>
   <g id="Poly3DCollection_3">
    <path d="M 177.355159 156.604218 
L 185.226815 150.339731 
L 185.533654 140.925913 
L 177.627068 147.135097 
z
" clip-path="url(#pf820c3ece6)" style="fill: #6a5a00; fill-opacity: 0.6; stroke: #000000; stroke-opacity: 0.6; stroke-width: 0.1"/>
    <path d="M 177.627068 147.135097 
L 185.533654 140.925913 
L 185.843419 131.422283 
L 177.901595 137.574813 
z
" clip-path="url(#pf820c3ece6)" style="fill: #6a5a00; fill-opacity: 0.6; stroke: #000000; stroke-opacity: 0.6; stroke-width: 0.1"/>
    <path d="M 169.340215 162.982739 
L 177.355159 156.604218 
L 177.627068 147.135097 
L 169.575862 153.457854 
z
" clip-path="url(#pf820c3ece6)" style="fill: #6a5a00; fill-opacity: 0.6; stroke: #000000; stroke-opacity: 0.6; stroke-width: 0.1"/>
    <path d="M 177.901595 137.574813 
L 185.843419 131.422283 
L 186.156155 121.827549 
L 178.178777 127.922044 
z
" clip-path="url(#pf820c3ece6)" style="fill: #6a5a00; fill-opacity: 0.6; stroke: #000000; stroke-opacity: 0.6; stroke-width: 0.1"/>
    <path d="M 169.575862 153.457854 
L 177.627068 147.135097 
L 177.901595 137.574813 
L 169.8138 143.840427 
z
" clip-path="url(#pf820c3ece6)" style="fill: #6a5a00; fill-opacity: 0.6; stroke: #000000; stroke-opacity: 0.6; stroke-width: 0.1"/>
    <path d="M 178.178777 127.922044 
L 186.156155 121.827549 
L 186.471902 112.140395 
L 178.458654 118.17544 
z
" clip-path="url(#pf820c3ece6)" style="fill: #6a5a00; fill-opacity: 0.6; stroke: #000000; stroke-opacity: 0.6; stroke-width: 0.1"/>
    <path d="M 161.178033 169.478435 
L 169.340215 162.982739 
L 169.575862 153.457854 
L 161.376032 159.897329 
z
" clip-path="url(#pf820c3ece6)" style="fill: #6a5a00; fill-opacity: 0.6; stroke: #000000; stroke-opacity: 0.6; stroke-width: 0.1"/>
    <path d="M 169.8138 143.840427 
L 177.901595 137.574813 
L 178.178777 127.922044 
L 170.05406 134.129102 
z
" clip-path="url(#pf820c3ece6)" style="fill: #6a5a00; fill-opacity: 0.6; stroke: #000000; stroke-opacity: 0.6; stroke-width: 0.1"/>
    <path d="M 178.458654 118.17544 
L 186.471902 112.140395 
L 186.790706 102.359478 
L 178.741265 108.333627 
z
" clip-path="url(#pf820c3ece6)" style="fill: #6a5a00; fill-opacity: 0.6; stroke: #000000; stroke-opacity: 0.6; stroke-width: 0.1"/>
    <path d="M 161.376032 159.897329 
L 169.575862 153.457854 
L 169.8138 143.840427 
L 161.575972 150.22227 
z
" clip-path="url(#pf820c3ece6)" style="fill: #6a5a00; fill-opacity: 0.6; stroke: #000000; stroke-opacity: 0.6; stroke-width: 0.1"/>
    <path d="M 170.05406 134.129102 
L 178.178777 127.922044 
L 178.458654 118.17544 
L 170.296678 124.322497 
z
" clip-path="url(#pf820c3ece6)" style="fill: #6a5a00; fill-opacity: 0.6; stroke: #000000; stroke-opacity: 0.6; stroke-width: 0.1"/>
    <path d="M 178.741265 108.333627 
L 186.790706 102.359478 
L 187.11261 92.483432 
L 179.02665 98.395202 
z
" clip-path="url(#pf820c3ece6)" style="fill: #6a5a00; fill-opacity: 0.6; stroke: #000000; stroke-opacity: 0.6; stroke-width: 0.1"/>
    <path d="M 152.864519 176.094565 
L 161.178033 169.478435 
L 161.376032 159.897329 
L 153.023422 166.456783 
z
" clip-path="url(#pf820c3ece6)" style="fill: #6a5a00; fill-opacity: 0.6; stroke: #000000; stroke-opacity: 0.6; stroke-width: 0.1"/>
    <path d="M 161.575972 150.22227 
L 169.8138 143.840427 
L 170.05406 134.129102 
L 161.777883 140.451871 
z
" clip-path="url(#pf820c3ece6)" style="fill: #6a5a00; fill-opacity: 0.6; stroke: #000000; stroke-opacity: 0.6; stroke-width: 0.1"/>
    <path d="M 170.296678 124.322497 
L 178.458654 118.17544 
L 178.741265 108.333627 
L 170.541687 114.419204 
z
" clip-path="url(#pf820c3ece6)" style="fill: #6a5a00; fill-opacity: 0.6; stroke: #000000; stroke-opacity: 0.6; stroke-width: 0.1"/>
    <path d="M 179.02665 98.395202 
L 187.11261 92.483432 
L 187.437661 82.51086 
L 179.31485 88.358737 
z
" clip-path="url(#pf820c3ece6)" style="fill: #6a5a00; fill-opacity: 0.6; stroke: #000000; stroke-opacity: 0.6; stroke-width: 0.1"/>
    <path d="M 153.023422 166.456783 
L 161.376032 159.897329 
L 161.575972 150.22227 
L 153.183898 156.723608 
z
" clip-path="url(#pf820c3ece6)" style="fill: #6a5a00; fill-opacity: 0.6; stroke: #000000; stroke-opacity: 0.6; stroke-width: 0.1"/>
    <path d="M 161.777883 140.451871 
L 170.05406 134.129102 
L 170.296678 124.322497 
L 161.981793 130.584714 
z
" clip-path="url(#pf820c3ece6)" style="fill: #6a5a00; fill-opacity: 0.6; stroke: #000000; stroke-opacity: 0.6; stroke-width: 0.1"/>
    <path d="M 170.541687 114.419204 
L 178.741265 108.333627 
L 179.02665 98.395202 
L 170.789125 104.417785 
z
" clip-path="url(#pf820c3ece6)" style="fill: #6a5a00; fill-opacity: 0.6; stroke: #000000; stroke-opacity: 0.6; stroke-width: 0.1"/>
    <path d="M 179.31485 88.358737 
L 187.437661 82.51086 
L 187.765904 72.440342 
L 179.605908 78.222774 
z
" clip-path="url(#pf820c3ece6)" style="fill: #6a5a00; fill-opacity: 0.6; stroke: #000000; stroke-opacity: 0.6; stroke-width: 0.1"/>
    <path d="M 144.395425 182.834511 
L 152.864519 176.094565 
L 153.023422 166.456783 
L 144.513724 173.139602 
z
" clip-path="url(#pf820c3ece6)" style="fill: #6a5a00; fill-opacity: 0.6; stroke: #000000; stroke-opacity: 0.6; stroke-width: 0.1"/>
    <path d="M 153.183898 156.723608 
L 161.575972 150.22227 
L 161.777883 140.451871 
L 153.345971 146.893617 
z
" clip-path="url(#pf820c3ece6)" style="fill: #6a5a00; fill-opacity: 0.6; stroke: #000000; stroke-opacity: 0.6; stroke-width: 0.1"/>
    <path d="M 161.981793 130.584714 
L 170.296678 124.322497 
L 170.541687 114.419204 
L 162.187733 120.619356 
z
" clip-path="url(#pf820c3ece6)" style="fill: #6a5a00; fill-opacity: 0.6; stroke: #000000; stroke-opacity: 0.6; stroke-width: 0.1"/>
    <path d="M 170.789125 104.417785 
L 179.02665 98.395202 
L 179.31485 88.358737 
L 171.039026 94.316774 
z
" clip-path="url(#pf820c3ece6)" style="fill: #6a5a00; fill-opacity: 0.6; stroke: #000000; stroke-opacity: 0.6; stroke-width: 0.1"/>
    <path d="M 179.605908 78.222774 
L 187.765904 72.440342 
L 188.097386 62.270427 
L 179.899865 67.985825 
z
" clip-path="url(#pf820c3ece6)" style="fill: #6a5a00; fill-opacity: 0.6; stroke: #000000; stroke-opacity: 0.6; stroke-width: 0.1"/>
    <path d="M 144.513724 173.139602 
L 153.023422 166.456783 
L 153.183898 156.723608 
L 144.633205 163.347828 
z
" clip-path="url(#pf820c3ece6)" style="fill: #6a5a00; fill-opacity: 0.6; stroke: #000000; stroke-opacity: 0.6; stroke-width: 0.1"/>
    <path d="M 153.345971 146.893617 
L 161.777883 140.451871 
L 161.981793 130.584714 
L 153.509664 136.965358 
z
" clip-path="url(#pf820c3ece6)" style="fill: #6a5a00; fill-opacity: 0.6; stroke: #000000; stroke-opacity: 0.6; stroke-width: 0.1"/>
    <path d="M 162.187733 120.619356 
L 170.541687 114.419204 
L 170.789125 104.417785 
L 162.395733 110.554323 
z
" clip-path="url(#pf820c3ece6)" style="fill: #6a5a00; fill-opacity: 0.6; stroke: #000000; stroke-opacity: 0.6; stroke-width: 0.1"/>
    <path d="M 171.039026 94.316774 
L 179.31485 88.358737 
L 179.605908 78.222774 
L 171.291428 84.114677 
z
" clip-path="url(#pf820c3ece6)" style="fill: #6a5a00; fill-opacity: 0.6; stroke: #000000; stroke-opacity: 0.6; stroke-width: 0.1"/>
    <path d="M 135.766342 189.70178 
L 144.395425 182.834511 
L 144.513724 173.139602 
L 135.842464 179.949299 
z
" clip-path="url(#pf820c3ece6)" style="fill: #6a5a00; fill-opacity: 0.6; stroke: #000000; stroke-opacity: 0.6; stroke-width: 0.1"/>
    <path d="M 144.633205 163.347828 
L 153.183898 156.723608 
L 153.345971 146.893617 
L 144.753886 153.457731 
z
" clip-path="url(#pf820c3ece6)" style="fill: #6a5a00; fill-opacity: 0.6; stroke: #000000; stroke-opacity: 0.6; stroke-width: 0.1"/>
    <path d="M 153.509664 136.965358 
L 161.981793 130.584714 
L 162.187733 120.619356 
L 153.675001 126.937351 
z
" clip-path="url(#pf820c3ece6)" style="fill: #6a5a00; fill-opacity: 0.6; stroke: #000000; stroke-opacity: 0.6; stroke-width: 0.1"/>
    <path d="M 162.395733 110.554323 
L 170.789125 104.417785 
L 171.039026 94.316774 
L 162.605823 100.388113 
z
" clip-path="url(#pf820c3ece6)" style="fill: #6a5a00; fill-opacity: 0.6; stroke: #000000; stroke-opacity: 0.6; stroke-width: 0.1"/>
    <path d="M 171.291428 84.114677 
L 179.605908 78.222774 
L 179.899865 67.985825 
L 171.546369 73.809969 
z
" clip-path="url(#pf820c3ece6)" style="fill: #6a5a00; fill-opacity: 0.6; stroke: #000000; stroke-opacity: 0.6; stroke-width: 0.1"/>
    <path d="M 135.842464 179.949299 
L 144.513724 173.139602 
L 144.633205 163.347828 
L 135.919353 170.098448 
z
" clip-path="url(#pf820c3ece6)" style="fill: #6a5a00; fill-opacity: 0.6; stroke: #000000; stroke-opacity: 0.6; stroke-width: 0.1"/>
    <path d="M 144.753886 153.457731 
L 153.345971 146.893617 
L 153.509664 136.965358 
L 144.875785 143.467821 
z
" clip-path="url(#pf820c3ece6)" style="fill: #6a5a00; fill-opacity: 0.6; stroke: #000000; stroke-opacity: 0.6; stroke-width: 0.1"/>
    <path d="M 153.675001 126.937351 
L 162.187733 120.619356 
L 162.395733 110.554323 
L 153.842008 116.808084 
z
" clip-path="url(#pf820c3ece6)" style="fill: #6a5a00; fill-opacity: 0.6; stroke: #000000; stroke-opacity: 0.6; stroke-width: 0.1"/>
    <path d="M 162.605823 100.388113 
L 171.039026 94.316774 
L 171.291428 84.114677 
L 162.818036 90.119191 
z
" clip-path="url(#pf820c3ece6)" style="fill: #6a5a00; fill-opacity: 0.6; stroke: #000000; stroke-opacity: 0.6; stroke-width: 0.1"/>
    <path d="M 126.972695 196.700014 
L 135.766342 189.70178 
L 135.842464 179.949299 
L 127.004996 186.889521 
z
" clip-path="url(#pf820c3ece6)" style="fill: #6a5a00; fill-opacity: 0.6; stroke: #000000; stroke-opacity: 0.6; stroke-width: 0.1"/>
    <path d="M 135.919353 170.098448 
L 144.633205 163.347828 
L 144.753886 153.457731 
L 135.997022 160.147732 
z
" clip-path="url(#pf820c3ece6)" style="fill: #6a5a00; fill-opacity: 0.6; stroke: #000000; stroke-opacity: 0.6; stroke-width: 0.1"/>
    <path d="M 144.875785 143.467821 
L 153.509664 136.965358 
L 153.675001 126.937351 
L 144.998921 133.37658 
z
" clip-path="url(#pf820c3ece6)" style="fill: #6a5a00; fill-opacity: 0.6; stroke: #000000; stroke-opacity: 0.6; stroke-width: 0.1"/>
    <path d="M 153.842008 116.808084 
L 162.395733 110.554323 
L 162.605823 100.388113 
L 154.01071 106.576016 
z
" clip-path="url(#pf820c3ece6)" style="fill: #6a5a00; fill-opacity: 0.6; stroke: #000000; stroke-opacity: 0.6; stroke-width: 0.1"/>
    <path d="M 162.818036 90.119191 
L 171.291428 84.114677 
L 171.546369 73.809969 
L 163.032404 79.745993 
z
" clip-path="url(#pf820c3ece6)" style="fill: #6a5a00; fill-opacity: 0.6; stroke: #000000; stroke-opacity: 0.6; stroke-width: 0.1"/>
    <path d="M 127.004996 186.889521 
L 135.842464 179.949299 
L 135.919353 170.098448 
L 127.037626 176.97912 
z
" clip-path="url(#pf820c3ece6)" style="fill: #6a5a00; fill-opacity: 0.6; stroke: #000000; stroke-opacity: 0.6; stroke-width: 0.1"/>
    <path d="M 135.997022 160.147732 
L 144.753886 153.457731 
L 144.875785 143.467821 
L 136.075482 150.095623 
z
" clip-path="url(#pf820c3ece6)" style="fill: #6a5a00; fill-opacity: 0.6; stroke: #000000; stroke-opacity: 0.6; stroke-width: 0.1"/>
    <path d="M 144.998921 133.37658 
L 153.675001 126.937351 
L 153.842008 116.808084 
L 145.123312 123.182458 
z
" clip-path="url(#pf820c3ece6)" style="fill: #6a5a00; fill-opacity: 0.6; stroke: #000000; stroke-opacity: 0.6; stroke-width: 0.1"/>
    <path d="M 154.01071 106.576016 
L 162.605823 100.388113 
L 162.818036 90.119191 
L 154.181132 96.239574 
z
" clip-path="url(#pf820c3ece6)" style="fill: #6a5a00; fill-opacity: 0.6; stroke: #000000; stroke-opacity: 0.6; stroke-width: 0.1"/>
    <path d="M 118.009729 203.832997 
L 126.972695 196.700014 
L 127.004996 186.889521 
L 117.996496 193.964058 
z
" clip-path="url(#pf820c3ece6)" style="fill: #6a5a00; fill-opacity: 0.6; stroke: #000000; stroke-opacity: 0.6; stroke-width: 0.1"/>
    <path d="M 127.037626 176.97912 
L 135.919353 170.098448 
L 135.997022 160.147732 
L 127.070591 166.967277 
z
" clip-path="url(#pf820c3ece6)" style="fill: #6a5a00; fill-opacity: 0.6; stroke: #000000; stroke-opacity: 0.6; stroke-width: 0.1"/>
    <path d="M 136.075482 150.095623 
L 144.875785 143.467821 
L 144.998921 133.37658 
L 136.154746 139.940565 
z
" clip-path="url(#pf820c3ece6)" style="fill: #6a5a00; fill-opacity: 0.6; stroke: #000000; stroke-opacity: 0.6; stroke-width: 0.1"/>
    <path d="M 145.123312 123.182458 
L 153.842008 116.808084 
L 154.01071 106.576016 
L 145.248977 112.883874 
z
" clip-path="url(#pf820c3ece6)" style="fill: #6a5a00; fill-opacity: 0.6; stroke: #000000; stroke-opacity: 0.6; stroke-width: 0.1"/>
    <path d="M 154.181132 96.239574 
L 162.818036 90.119191 
L 163.032404 79.745993 
L 154.353302 85.797153 
z
" clip-path="url(#pf820c3ece6)" style="fill: #6a5a00; fill-opacity: 0.6; stroke: #000000; stroke-opacity: 0.6; stroke-width: 0.1"/>
    <path d="M 117.996496 193.964058 
L 127.004996 186.889521 
L 127.037626 176.97912 
L 117.983127 183.993639 
z
" clip-path="url(#pf820c3ece6)" style="fill: #6a5a00; fill-opacity: 0.6; stroke: #000000; stroke-opacity: 0.6; stroke-width: 0.1"/>
    <path d="M 127.070591 166.967277 
L 135.997022 160.147732 
L 136.075482 150.095623 
L 127.103894 156.852426 
z
" clip-path="url(#pf820c3ece6)" style="fill: #6a5a00; fill-opacity: 0.6; stroke: #000000; stroke-opacity: 0.6; stroke-width: 0.1"/>
    <path d="M 136.154746 139.940565 
L 144.998921 133.37658 
L 145.123312 123.182458 
L 136.234825 129.680968 
z
" clip-path="url(#pf820c3ece6)" style="fill: #6a5a00; fill-opacity: 0.6; stroke: #000000; stroke-opacity: 0.6; stroke-width: 0.1"/>
    <path d="M 145.248977 112.883874 
L 154.01071 106.576016 
L 154.181132 96.239574 
L 145.375937 102.479214 
z
" clip-path="url(#pf820c3ece6)" style="fill: #6a5a00; fill-opacity: 0.6; stroke: #000000; stroke-opacity: 0.6; stroke-width: 0.1"/>
    <path d="M 108.872507 211.104658 
L 118.009729 203.832997 
L 117.996496 193.964058 
L 108.81195 201.176848 
z
" clip-path="url(#pf820c3ece6)" style="fill: #6a5a00; fill-opacity: 0.6; stroke: #000000; stroke-opacity: 0.6; stroke-width: 0.1"/>
    <path d="M 117.983127 183.993639 
L 127.037626 176.97912 
L 127.070591 166.967277 
L 117.96962 173.920165 
z
" clip-path="url(#pf820c3ece6)" style="fill: #6a5a00; fill-opacity: 0.6; stroke: #000000; stroke-opacity: 0.6; stroke-width: 0.1"/>
    <path d="M 127.103894 156.852426 
L 136.075482 150.095623 
L 136.154746 139.940565 
L 127.137542 146.632969 
z
" clip-path="url(#pf820c3ece6)" style="fill: #6a5a00; fill-opacity: 0.6; stroke: #000000; stroke-opacity: 0.6; stroke-width: 0.1"/>
    <path d="M 136.234825 129.680968 
L 145.123312 123.182458 
L 145.248977 112.883874 
L 136.315734 119.315208 
z
" clip-path="url(#pf820c3ece6)" style="fill: #6a5a00; fill-opacity: 0.6; stroke: #000000; stroke-opacity: 0.6; stroke-width: 0.1"/>
    <path d="M 145.375937 102.479214 
L 154.181132 96.239574 
L 154.353302 85.797153 
L 145.504211 91.966831 
z
" clip-path="url(#pf820c3ece6)" style="fill: #6a5a00; fill-opacity: 0.6; stroke: #000000; stroke-opacity: 0.6; stroke-width: 0.1"/>
    <path d="M 108.81195 201.176848 
L 117.996496 193.964058 
L 117.983127 183.993639 
L 108.750764 191.145949 
z
" clip-path="url(#pf820c3ece6)" style="fill: #6a5a00; fill-opacity: 0.6; stroke: #000000; stroke-opacity: 0.6; stroke-width: 0.1"/>
    <path d="M 117.96962 173.920165 
L 127.070591 166.967277 
L 127.103894 156.852426 
L 117.955973 163.742031 
z
" clip-path="url(#pf820c3ece6)" style="fill: #6a5a00; fill-opacity: 0.6; stroke: #000000; stroke-opacity: 0.6; stroke-width: 0.1"/>
    <path d="M 127.137542 146.632969 
L 136.154746 139.940565 
L 136.234825 129.680968 
L 127.17154 136.307276 
z
" clip-path="url(#pf820c3ece6)" style="fill: #6a5a00; fill-opacity: 0.6; stroke: #000000; stroke-opacity: 0.6; stroke-width: 0.1"/>
    <path d="M 136.315734 119.315208 
L 145.248977 112.883874 
L 145.375937 102.479214 
L 136.397483 108.841631 
z
" clip-path="url(#pf820c3ece6)" style="fill: #6a5a00; fill-opacity: 0.6; stroke: #000000; stroke-opacity: 0.6; stroke-width: 0.1"/>
    <path d="M 108.750764 191.145949 
L 117.983127 183.993639 
L 117.96962 173.920165 
L 108.68894 181.010347 
z
" clip-path="url(#pf820c3ece6)" style="fill: #6a5a00; fill-opacity: 0.6; stroke: #000000; stroke-opacity: 0.6; stroke-width: 0.1"/>
    <path d="M 117.955973 163.742031 
L 127.103894 156.852426 
L 127.137542 146.632969 
L 117.942183 153.457597 
z
" clip-path="url(#pf820c3ece6)" style="fill: #6a5a00; fill-opacity: 0.6; stroke: #000000; stroke-opacity: 0.6; stroke-width: 0.1"/>
    <path d="M 127.17154 136.307276 
L 136.234825 129.680968 
L 136.315734 119.315208 
L 127.205893 125.873681 
z
" clip-path="url(#pf820c3ece6)" style="fill: #6a5a00; fill-opacity: 0.6; stroke: #000000; stroke-opacity: 0.6; stroke-width: 0.1"/>
    <path d="M 136.397483 108.841631 
L 145.375937 102.479214 
L 145.504211 91.966831 
L 136.480088 98.258544 
z
" clip-path="url(#pf820c3ece6)" style="fill: #6a5a00; fill-opacity: 0.6; stroke: #000000; stroke-opacity: 0.6; stroke-width: 0.1"/>
    <path d="M 108.68894 181.010347 
L 117.96962 173.920165 
L 117.955973 163.742031 
L 108.626467 170.768394 
z
" clip-path="url(#pf820c3ece6)" style="fill: #6a5a00; fill-opacity: 0.6; stroke: #000000; stroke-opacity: 0.6; stroke-width: 0.1"/>
    <path d="M 117.942183 153.457597 
L 127.137542 146.632969 
L 127.17154 136.307276 
L 117.928248 143.06519 
z
" clip-path="url(#pf820c3ece6)" style="fill: #6a5a00; fill-opacity: 0.6; stroke: #000000; stroke-opacity: 0.6; stroke-width: 0.1"/>
    <path d="M 127.205893 125.873681 
L 136.315734 119.315208 
L 136.397483 108.841631 
L 127.240607 115.330483 
z
" clip-path="url(#pf820c3ece6)" style="fill: #6a5a00; fill-opacity: 0.6; stroke: #000000; stroke-opacity: 0.6; stroke-width: 0.1"/>
    <path d="M 108.626467 170.768394 
L 117.955973 163.742031 
L 117.942183 153.457597 
L 108.563335 160.418407 
z
" clip-path="url(#pf820c3ece6)" style="fill: #6a5a00; fill-opacity: 0.6; stroke: #000000; stroke-opacity: 0.6; stroke-width: 0.1"/>
    <path d="M 117.928248 143.06519 
L 127.17154 136.307276 
L 127.205893 125.873681 
L 117.914166 132.563099 
z
" clip-path="url(#pf820c3ece6)" style="fill: #6a5a00; fill-opacity: 0.6; stroke: #000000; stroke-opacity: 0.6; stroke-width: 0.1"/>
    <path d="M 127.240607 115.330483 
L 136.397483 108.841631 
L 136.480088 98.258544 
L 127.275687 104.675947 
z
" clip-path="url(#pf820c3ece6)" style="fill: #6a5a00; fill-opacity: 0.6; stroke: #000000; stroke-opacity: 0.6; stroke-width: 0.1"/>
    <path d="M 108.563335 160.418407 
L 117.942183 153.457597 
L 117.928248 143.06519 
L 108.499534 149.958669 
z
" clip-path="url(#pf820c3ece6)" style="fill: #6a5a00; fill-opacity: 0.6; stroke: #000000; stroke-opacity: 0.6; stroke-width: 0.1"/>
    <path d="M 117.914166 132.563099 
L 127.205893 125.873681 
L 127.240607 115.330483 
L 117.899935 121.949579 
z
" clip-path="url(#pf820c3ece6)" style="fill: #6a5a00; fill-opacity: 0.6; stroke: #000000; stroke-opacity: 0.6; stroke-width: 0.1"/>
    <path d="M 108.499534 149.958669 
L 117.928248 143.06519 
L 117.914166 132.563099 
L 108.435052 139.387423 
z
" clip-path="url(#pf820c3ece6)" style="fill: #6a5a00; fill-opacity: 0.6; stroke: #000000; stroke-opacity: 0.6; stroke-width: 0.1"/>
    <path d="M 117.899935 121.949579 
L 127.240607 115.330483 
L 127.275687 104.675947 
L 117.885552 111.222847 
z
" clip-path="url(#pf820c3ece6)" style="fill: #6a5a00; fill-opacity: 0.6; stroke: #000000; stroke-opacity: 0.6; stroke-width: 0.1"/>
    <path d="M 108.435052 139.387423 
L 117.914166 132.563099 
L 117.899935 121.949579 
L 108.369879 128.702878 
z
" clip-path="url(#pf820c3ece6)" style="fill: #6a5a00; fill-opacity: 0.6; stroke: #000000; stroke-opacity: 0.6; stroke-width: 0.1"/>
    <path d="M 108.369879 128.702878 
L 117.899935 121.949579 
L 117.885552 111.222847 
L 108.304004 117.903202 
z
" clip-path="url(#pf820c3ece6)" style="fill: #6a5a00; fill-opacity: 0.6; stroke: #000000; stroke-opacity: 0.6; stroke-width: 0.1"/>
   </g>
  </g>
 </g>
 <defs>
  <clipPath id="pf820c3ece6">
   <rect x="10.458333" y="20.798437" width="214.48" height="214.48"/>
  </clipPath>
 </defs>
</svg>
