<?xml version="1.0" encoding="utf-8" standalone="no"?>
<!DOCTYPE svg PUBLIC "-//W3C//DTD SVG 1.1//EN"
  "http://www.w3.org/Graphics/SVG/1.1/DTD/svg11.dtd">
<svg xmlns:xlink="http://www.w3.org/1999/xlink" width="247.715093pt" height="242.478437pt" viewBox="0 0 247.715093 242.478437" xmlns="http://www.w3.org/2000/svg" version="1.1">
 <metadata>
  <rdf:RDF xmlns:dc="http://purl.org/dc/elements/1.1/" xmlns:cc="http://creativecommons.org/ns#" xmlns:rdf="http://www.w3.org/1999/02/22-rdf-syntax-ns#">
   <cc:Work>
    <dc:type rdf:resource="http://purl.org/dc/dcmitype/StillImage"/>
    <dc:date>2025-06-11T09:21:56.223958</dc:date>
    <dc:format>image/svg+xml</dc:format>
    <dc:creator>
     <cc:Agent>
      <dc:title>Matplotlib v3.10.3, https://matplotlib.org/</dc:title>
     </cc:Agent>
    </dc:creator>
   </cc:Work>
  </rdf:RDF>
 </metadata>
 <defs>
  <style type="text/css">*{stroke-linejoin: round; stroke-linecap: butt}</style>
 </defs>
 <g id="figure_1">
  <g id="patch_1">
   <path d="M 0 242.478437 
L 247.715093 242.478437 
L 247.715093 0 
L 0 0 
L 0 242.478437 
z
" style="fill: none; opacity: 0"/>
  </g>
  <g id="patch_2">
   <path d="M 17.887873 235.278437 
L 232.367873 235.278437 
L 232.367873 20.798437 
L 17.887873 20.798437 
L 17.887873 235.278437 
z
" style="fill: none"/>
  </g>
  <g id="pane3d_1">
   <g id="patch_3">
    <path d="M 135.811511 147.866816 
L 224.815928 177.102566 
L 227.095113 76.440527 
L 135.979736 54.864388 
" style="fill: none; opacity: 0"/>
   </g>
  </g>
  <g id="pane3d_2">
   <g id="patch_4">
    <path d="M 135.811511 147.866816 
L 32.583313 172.057187 
L 30.367839 72.711163 
L 135.979736 54.864388 
" style="fill: none; opacity: 0"/>
   </g>
  </g>
  <g id="pane3d_3">
   <g id="patch_5">
    <path d="M 135.811511 147.866816 
L 32.583313 172.057187 
L 118.885629 205.905084 
L 224.815928 177.102566 
" style="fill: none; opacity: 0"/>
   </g>
  </g>
  <g id="grid3d_1">
   <g id="Line3DCollection_1">
    <path d="M 224.815928 177.102566 
L 135.811511 147.866816 
L 135.979736 54.864388 
" style="fill: none; stroke: #b0b0b0; stroke-width: 0.8"/>
    <path d="M 208.25696 181.60496 
L 119.587833 151.668653 
L 119.403369 57.665537 
" style="fill: none; stroke: #b0b0b0; stroke-width: 0.8"/>
    <path d="M 191.281609 186.22057 
L 102.989854 155.558204 
L 102.436104 60.532742 
" style="fill: none; stroke: #b0b0b0; stroke-width: 0.8"/>
    <path d="M 173.873968 190.953718 
L 86.004468 159.538538 
L 85.06395 63.468367 
" style="fill: none; stroke: #b0b0b0; stroke-width: 0.8"/>
    <path d="M 156.017314 195.808955 
L 68.617951 163.612874 
L 67.272238 66.474891 
" style="fill: none; stroke: #b0b0b0; stroke-width: 0.8"/>
    <path d="M 137.694044 200.791064 
L 50.815925 167.784579 
L 49.045583 69.554914 
" style="fill: none; stroke: #b0b0b0; stroke-width: 0.8"/>
    <path d="M 118.885629 205.905084 
L 32.583313 172.057187 
L 30.367839 72.711163 
" style="fill: none; stroke: #b0b0b0; stroke-width: 0.8"/>
   </g>
  </g>
  <g id="grid3d_2">
   <g id="Line3DCollection_2">
    <path d="M 135.979736 54.864388 
L 135.811511 147.866816 
L 32.583313 172.057187 
" style="fill: none; stroke: #b0b0b0; stroke-width: 0.8"/>
    <path d="M 150.108762 58.210144 
L 149.635329 152.407599 
L 45.915332 177.286025 
" style="fill: none; stroke: #b0b0b0; stroke-width: 0.8"/>
    <path d="M 164.636667 61.650355 
L 163.840928 157.073787 
L 59.643058 182.67006 
" style="fill: none; stroke: #b0b0b0; stroke-width: 0.8"/>
    <path d="M 179.580583 65.189077 
L 178.444343 161.870647 
L 73.784376 188.216305 
" style="fill: none; stroke: #b0b0b0; stroke-width: 0.8"/>
    <path d="M 194.95864 68.830604 
L 193.462524 166.803748 
L 88.35826 193.932205 
" style="fill: none; stroke: #b0b0b0; stroke-width: 0.8"/>
    <path d="M 210.790034 72.579481 
L 208.913395 171.878977 
L 103.384869 199.825663 
" style="fill: none; stroke: #b0b0b0; stroke-width: 0.8"/>
    <path d="M 227.095113 76.440527 
L 224.815928 177.102566 
L 118.885629 205.905084 
" style="fill: none; stroke: #b0b0b0; stroke-width: 0.8"/>
   </g>
  </g>
  <g id="grid3d_3">
   <g id="Line3DCollection_3">
    <path d="M 32.583313 172.057187 
L 135.811511 147.866816 
L 224.815928 177.102566 
" style="fill: none; stroke: #b0b0b0; stroke-width: 0.8"/>
    <path d="M 32.148297 152.550227 
L 135.844584 129.582405 
L 225.263337 157.342405 
" style="fill: none; stroke: #b0b0b0; stroke-width: 0.8"/>
    <path d="M 31.709296 132.864633 
L 135.87794 111.14198 
L 225.714901 137.398713 
" style="fill: none; stroke: #b0b0b0; stroke-width: 0.8"/>
    <path d="M 31.266258 112.997939 
L 135.911581 92.543534 
L 226.170678 117.268923 
" style="fill: none; stroke: #b0b0b0; stroke-width: 0.8"/>
    <path d="M 30.819124 92.947635 
L 135.945512 73.785028 
L 226.630729 96.950416 
" style="fill: none; stroke: #b0b0b0; stroke-width: 0.8"/>
    <path d="M 30.367839 72.711163 
L 135.979736 54.864388 
L 227.095113 76.440527 
" style="fill: none; stroke: #b0b0b0; stroke-width: 0.8"/>
   </g>
  </g>
  <g id="axis3d_1">
   <g id="line2d_1">
    <path d="M 224.815928 177.102566 
L 118.885629 205.905084 
" style="fill: none; stroke: #000000; stroke-width: 0.8; stroke-linecap: square"/>
   </g>
   <g id="xtick_1">
    <g id="line2d_2">
     <path d="M 224.041993 176.848347 
L 226.367062 177.612075 
" style="fill: none; stroke: #000000; stroke-width: 0.8; stroke-linecap: square"/>
    </g>
    <g id="text_1">
     <!-- −3 -->
     <g transform="translate(228.721343 196.669219) scale(0.08 -0.08)">
      <defs>
       <path id="DejaVuSans-2212" d="M 678 2272 
L 4684 2272 
L 4684 1741 
L 678 1741 
L 678 2272 
z
" transform="scale(0.015625)"/>
       <path id="DejaVuSans-33" d="M 2597 2516 
Q 3050 2419 3304 2112 
Q 3559 1806 3559 1356 
Q 3559 666 3084 287 
Q 2609 -91 1734 -91 
Q 1441 -91 1130 -33 
Q 819 25 488 141 
L 488 750 
Q 750 597 1062 519 
Q 1375 441 1716 441 
Q 2309 441 2620 675 
Q 2931 909 2931 1356 
Q 2931 1769 2642 2001 
Q 2353 2234 1838 2234 
L 1294 2234 
L 1294 2753 
L 1863 2753 
Q 2328 2753 2575 2939 
Q 2822 3125 2822 3475 
Q 2822 3834 2567 4026 
Q 2313 4219 1838 4219 
Q 1578 4219 1281 4162 
Q 984 4106 628 3988 
L 628 4550 
Q 988 4650 1302 4700 
Q 1616 4750 1894 4750 
Q 2613 4750 3031 4423 
Q 3450 4097 3450 3541 
Q 3450 3153 3228 2886 
Q 3006 2619 2597 2516 
z
" transform="scale(0.015625)"/>
      </defs>
      <use xlink:href="#DejaVuSans-2212"/>
      <use xlink:href="#DejaVuSans-33" transform="translate(83.789062 0)"/>
     </g>
    </g>
   </g>
   <g id="xtick_2">
    <g id="line2d_3">
     <path d="M 207.485175 181.344392 
L 209.803824 182.12721 
" style="fill: none; stroke: #000000; stroke-width: 0.8; stroke-linecap: square"/>
    </g>
    <g id="text_2">
     <!-- −2 -->
     <g transform="translate(212.172508 201.370787) scale(0.08 -0.08)">
      <defs>
       <path id="DejaVuSans-32" d="M 1228 531 
L 3431 531 
L 3431 0 
L 469 0 
L 469 531 
Q 828 903 1448 1529 
Q 2069 2156 2228 2338 
Q 2531 2678 2651 2914 
Q 2772 3150 2772 3378 
Q 2772 3750 2511 3984 
Q 2250 4219 1831 4219 
Q 1534 4219 1204 4116 
Q 875 4013 500 3803 
L 500 4441 
Q 881 4594 1212 4672 
Q 1544 4750 1819 4750 
Q 2544 4750 2975 4387 
Q 3406 4025 3406 3419 
Q 3406 3131 3298 2873 
Q 3191 2616 2906 2266 
Q 2828 2175 2409 1742 
Q 1991 1309 1228 531 
z
" transform="scale(0.015625)"/>
      </defs>
      <use xlink:href="#DejaVuSans-2212"/>
      <use xlink:href="#DejaVuSans-32" transform="translate(83.789062 0)"/>
     </g>
    </g>
   </g>
   <g id="xtick_3">
    <g id="line2d_4">
     <path d="M 190.512327 185.95341 
L 192.823496 186.756043 
" style="fill: none; stroke: #000000; stroke-width: 0.8; stroke-linecap: square"/>
    </g>
    <g id="text_3">
     <!-- −1 -->
     <g transform="translate(195.204684 206.191392) scale(0.08 -0.08)">
      <defs>
       <path id="DejaVuSans-31" d="M 794 531 
L 1825 531 
L 1825 4091 
L 703 3866 
L 703 4441 
L 1819 4666 
L 2450 4666 
L 2450 531 
L 3481 531 
L 3481 0 
L 794 0 
L 794 531 
z
" transform="scale(0.015625)"/>
      </defs>
      <use xlink:href="#DejaVuSans-2212"/>
      <use xlink:href="#DejaVuSans-31" transform="translate(83.789062 0)"/>
     </g>
    </g>
   </g>
   <g id="xtick_4">
    <g id="line2d_5">
     <path d="M 173.107569 190.679715 
L 175.410121 191.502925 
" style="fill: none; stroke: #000000; stroke-width: 0.8; stroke-linecap: square"/>
    </g>
    <g id="text_4">
     <!-- 0 -->
     <g transform="translate(181.153629 211.135611) scale(0.08 -0.08)">
      <defs>
       <path id="DejaVuSans-30" d="M 2034 4250 
Q 1547 4250 1301 3770 
Q 1056 3291 1056 2328 
Q 1056 1369 1301 889 
Q 1547 409 2034 409 
Q 2525 409 2770 889 
Q 3016 1369 3016 2328 
Q 3016 3291 2770 3770 
Q 2525 4250 2034 4250 
z
M 2034 4750 
Q 2819 4750 3233 4129 
Q 3647 3509 3647 2328 
Q 3647 1150 3233 529 
Q 2819 -91 2034 -91 
Q 1250 -91 836 529 
Q 422 1150 422 2328 
Q 422 3509 836 4129 
Q 1250 4750 2034 4750 
z
" transform="scale(0.015625)"/>
      </defs>
      <use xlink:href="#DejaVuSans-30"/>
     </g>
    </g>
   </g>
   <g id="xtick_5">
    <g id="line2d_6">
     <path d="M 155.254201 195.52784 
L 157.546921 196.37243 
" style="fill: none; stroke: #000000; stroke-width: 0.8; stroke-linecap: square"/>
    </g>
    <g id="text_5">
     <!-- 1 -->
     <g transform="translate(163.298641 216.208261) scale(0.08 -0.08)">
      <use xlink:href="#DejaVuSans-31"/>
     </g>
    </g>
   </g>
   <g id="xtick_6">
    <g id="line2d_7">
     <path d="M 136.934654 200.502558 
L 139.216236 201.36937 
" style="fill: none; stroke: #000000; stroke-width: 0.8; stroke-linecap: square"/>
    </g>
    <g id="text_6">
     <!-- 2 -->
     <g transform="translate(144.973748 221.414413) scale(0.08 -0.08)">
      <use xlink:href="#DejaVuSans-32"/>
     </g>
    </g>
   </g>
   <g id="xtick_7">
    <g id="line2d_8">
     <path d="M 118.130426 205.608893 
L 120.399472 206.498816 
" style="fill: none; stroke: #000000; stroke-width: 0.8; stroke-linecap: square"/>
    </g>
    <g id="text_7">
     <!-- 3 -->
     <g transform="translate(126.160153 226.759406) scale(0.08 -0.08)">
      <use xlink:href="#DejaVuSans-33"/>
     </g>
    </g>
   </g>
   <g id="text_8">
    <!-- X -->
    <g transform="translate(192.325424 224.348803) scale(0.09 -0.09)">
     <defs>
      <path id="DejaVuSans-58" d="M 403 4666 
L 1081 4666 
L 2241 2931 
L 3406 4666 
L 4084 4666 
L 2584 2425 
L 4184 0 
L 3506 0 
L 2194 1984 
L 872 0 
L 191 0 
L 1856 2491 
L 403 4666 
z
" transform="scale(0.015625)"/>
     </defs>
     <use xlink:href="#DejaVuSans-58"/>
    </g>
   </g>
  </g>
  <g id="axis3d_2">
   <g id="line2d_9">
    <path d="M 32.583313 172.057187 
L 118.885629 205.905084 
" style="fill: none; stroke: #000000; stroke-width: 0.8; stroke-linecap: square"/>
   </g>
   <g id="xtick_8">
    <g id="line2d_10">
     <path d="M 33.468549 171.849742 
L 30.809755 172.4728 
" style="fill: none; stroke: #000000; stroke-width: 0.8; stroke-linecap: square"/>
    </g>
    <g id="text_9">
     <!-- −3 -->
     <g transform="translate(15.453546 190.867655) scale(0.08 -0.08)">
      <use xlink:href="#DejaVuSans-2212"/>
      <use xlink:href="#DejaVuSans-33" transform="translate(83.789062 0)"/>
     </g>
    </g>
   </g>
   <g id="xtick_9">
    <g id="line2d_11">
     <path d="M 46.805657 177.07247 
L 44.131531 177.71389 
" style="fill: none; stroke: #000000; stroke-width: 0.8; stroke-linecap: square"/>
    </g>
    <g id="text_10">
     <!-- −2 -->
     <g transform="translate(28.69026 196.311033) scale(0.08 -0.08)">
      <use xlink:href="#DejaVuSans-2212"/>
      <use xlink:href="#DejaVuSans-32" transform="translate(83.789062 0)"/>
     </g>
    </g>
   </g>
   <g id="xtick_10">
    <g id="line2d_12">
     <path d="M 60.538388 182.450121 
L 57.849184 183.110726 
" style="fill: none; stroke: #000000; stroke-width: 0.8; stroke-linecap: square"/>
    </g>
    <g id="text_11">
     <!-- −1 -->
     <g transform="translate(42.321941 201.916835) scale(0.08 -0.08)">
      <use xlink:href="#DejaVuSans-2212"/>
      <use xlink:href="#DejaVuSans-31" transform="translate(83.789062 0)"/>
     </g>
    </g>
   </g>
   <g id="xtick_11">
    <g id="line2d_13">
     <path d="M 74.68461 187.989693 
L 71.980626 188.670356 
" style="fill: none; stroke: #000000; stroke-width: 0.8; stroke-linecap: square"/>
    </g>
    <g id="text_12">
     <!-- 0 -->
     <g transform="translate(59.71841 207.69244) scale(0.08 -0.08)">
      <use xlink:href="#DejaVuSans-30"/>
     </g>
    </g>
   </g>
   <g id="xtick_12">
    <g id="line2d_14">
     <path d="M 89.263282 193.69861 
L 86.544867 194.40026 
" style="fill: none; stroke: #000000; stroke-width: 0.8; stroke-linecap: square"/>
    </g>
    <g id="text_13">
     <!-- 1 -->
     <g transform="translate(74.194966 213.645683) scale(0.08 -0.08)">
      <use xlink:href="#DejaVuSans-31"/>
     </g>
    </g>
   </g>
   <g id="xtick_13">
    <g id="line2d_15">
     <path d="M 104.294544 199.584757 
L 101.562099 200.30838 
" style="fill: none; stroke: #000000; stroke-width: 0.8; stroke-linecap: square"/>
    </g>
    <g id="text_14">
     <!-- 2 -->
     <g transform="translate(89.123725 219.784886) scale(0.08 -0.08)">
      <use xlink:href="#DejaVuSans-32"/>
     </g>
    </g>
   </g>
   <g id="xtick_14">
    <g id="line2d_16">
     <path d="M 119.799804 205.65652 
L 117.053789 206.403163 
" style="fill: none; stroke: #000000; stroke-width: 0.8; stroke-linecap: square"/>
    </g>
    <g id="text_15">
     <!-- 3 -->
     <g transform="translate(104.526211 226.118902) scale(0.08 -0.08)">
      <use xlink:href="#DejaVuSans-33"/>
     </g>
    </g>
   </g>
   <g id="text_16">
    <!-- Y -->
    <g transform="translate(45.830633 220.010143) scale(0.09 -0.09)">
     <defs>
      <path id="DejaVuSans-59" d="M -13 4666 
L 666 4666 
L 1959 2747 
L 3244 4666 
L 3922 4666 
L 2272 2222 
L 2272 0 
L 1638 0 
L 1638 2222 
L -13 4666 
z
" transform="scale(0.015625)"/>
     </defs>
     <use xlink:href="#DejaVuSans-59"/>
    </g>
   </g>
  </g>
  <g id="axis3d_3">
   <g id="line2d_17">
    <path d="M 32.583313 172.057187 
L 30.367839 72.711163 
" style="fill: none; stroke: #000000; stroke-width: 0.8; stroke-linecap: square"/>
   </g>
   <g id="xtick_15">
    <g id="line2d_18">
     <path d="M 33.468549 171.849742 
L 30.809755 172.4728 
" style="fill: none; stroke: #000000; stroke-width: 0.8; stroke-linecap: square"/>
    </g>
    <g id="text_17">
     <!-- −1 -->
     <g transform="translate(7.2 177.624492) scale(0.08 -0.08)">
      <use xlink:href="#DejaVuSans-2212"/>
      <use xlink:href="#DejaVuSans-31" transform="translate(83.789062 0)"/>
     </g>
    </g>
   </g>
   <g id="xtick_16">
    <g id="line2d_19">
     <path d="M 33.037818 152.353206 
L 30.366138 152.94496 
" style="fill: none; stroke: #000000; stroke-width: 0.8; stroke-linecap: square"/>
    </g>
    <g id="text_18">
     <!-- 0 -->
     <g transform="translate(10.028795 158.143233) scale(0.08 -0.08)">
      <use xlink:href="#DejaVuSans-30"/>
     </g>
    </g>
   </g>
   <g id="xtick_17">
    <g id="line2d_20">
     <path d="M 32.603145 132.678235 
L 29.918453 133.238084 
" style="fill: none; stroke: #000000; stroke-width: 0.8; stroke-linecap: square"/>
    </g>
    <g id="text_19">
     <!-- 1 -->
     <g transform="translate(9.500931 138.483833) scale(0.08 -0.08)">
      <use xlink:href="#DejaVuSans-31"/>
     </g>
    </g>
   </g>
   <g id="xtick_18">
    <g id="line2d_21">
     <path d="M 32.164476 112.822369 
L 29.466645 113.349699 
" style="fill: none; stroke: #000000; stroke-width: 0.8; stroke-linecap: square"/>
    </g>
    <g id="text_20">
     <!-- 2 -->
     <g transform="translate(8.968218 118.643836) scale(0.08 -0.08)">
      <use xlink:href="#DejaVuSans-32"/>
     </g>
    </g>
   </g>
   <g id="xtick_19">
    <g id="line2d_22">
     <path d="M 31.721755 92.783102 
L 29.010656 93.277285 
" style="fill: none; stroke: #000000; stroke-width: 0.8; stroke-linecap: square"/>
    </g>
    <g id="text_21">
     <!-- 3 -->
     <g transform="translate(8.430589 98.620743) scale(0.08 -0.08)">
      <use xlink:href="#DejaVuSans-33"/>
     </g>
    </g>
   </g>
   <g id="xtick_20">
    <g id="line2d_23">
     <path d="M 31.274926 72.55788 
L 28.550429 73.018277 
" style="fill: none; stroke: #000000; stroke-width: 0.8; stroke-linecap: square"/>
    </g>
    <g id="text_22">
     <!-- 4 -->
     <g transform="translate(7.887975 78.412007) scale(0.08 -0.08)">
      <defs>
       <path id="DejaVuSans-34" d="M 2419 4116 
L 825 1625 
L 2419 1625 
L 2419 4116 
z
M 2253 4666 
L 3047 4666 
L 3047 1625 
L 3713 1625 
L 3713 1100 
L 3047 1100 
L 3047 0 
L 2419 0 
L 2419 1100 
L 313 1100 
L 313 1709 
L 2253 4666 
z
" transform="scale(0.015625)"/>
      </defs>
      <use xlink:href="#DejaVuSans-34"/>
     </g>
    </g>
   </g>
   <g id="text_23">
    <!-- Z -->
    <g transform="translate(-14.365271 124.46902) scale(0.09 -0.09)">
     <defs>
      <path id="DejaVuSans-5a" d="M 359 4666 
L 4025 4666 
L 4025 4184 
L 1075 531 
L 4097 531 
L 4097 0 
L 288 0 
L 288 481 
L 3238 4134 
L 359 4134 
L 359 4666 
z
" transform="scale(0.015625)"/>
     </defs>
     <use xlink:href="#DejaVuSans-5a"/>
    </g>
   </g>
  </g>
  <g id="axes_1">
   <g id="Poly3DCollection_1">
    <path d="M 135.824706 140.571647 
L 125.030727 141.818763 
L 134.197042 143.568355 
L 145.019587 142.295791 
z
" clip-path="url(#p2d59d2984a)" style="fill: #cfaf00; fill-opacity: 0.6; stroke: #000000; stroke-opacity: 0.6; stroke-width: 0.1"/>
    <path d="M 125.030727 141.818763 
L 114.065419 143.085675 
L 123.201085 144.861309 
L 134.197042 143.568355 
z
" clip-path="url(#p2d59d2984a)" style="fill: #cfaf00; fill-opacity: 0.6; stroke: #000000; stroke-opacity: 0.6; stroke-width: 0.1"/>
    <path d="M 145.019587 142.295791 
L 134.197042 143.568355 
L 143.537634 145.351211 
L 154.387895 144.052455 
z
" clip-path="url(#p2d59d2984a)" style="fill: #cfaf00; fill-opacity: 0.6; stroke: #000000; stroke-opacity: 0.6; stroke-width: 0.1"/>
    <path d="M 114.065419 143.085675 
L 102.924672 144.372856 
L 112.027516 146.175148 
L 123.201085 144.861309 
z
" clip-path="url(#p2d59d2984a)" style="fill: #cfaf00; fill-opacity: 0.6; stroke: #000000; stroke-opacity: 0.6; stroke-width: 0.1"/>
    <path d="M 134.197042 143.568355 
L 123.201085 144.861309 
L 132.51185 146.670976 
L 143.537634 145.351211 
z
" clip-path="url(#p2d59d2984a)" style="fill: #cfaf00; fill-opacity: 0.6; stroke: #000000; stroke-opacity: 0.6; stroke-width: 0.1"/>
    <path d="M 154.387895 144.052455 
L 143.537634 145.351211 
L 153.05752 147.168289 
L 163.934585 145.842568 
z
" clip-path="url(#p2d59d2984a)" style="fill: #cfaf00; fill-opacity: 0.6; stroke: #000000; stroke-opacity: 0.6; stroke-width: 0.1"/>
    <path d="M 102.924672 144.372856 
L 91.604242 145.680797 
L 100.671994 147.510381 
L 112.027516 146.175148 
z
" clip-path="url(#p2d59d2984a)" style="fill: #cfaf00; fill-opacity: 0.6; stroke: #000000; stroke-opacity: 0.6; stroke-width: 0.1"/>
    <path d="M 123.201085 144.861309 
L 112.027516 146.175148 
L 121.306251 148.012265 
L 132.51185 146.670976 
z
" clip-path="url(#p2d59d2984a)" style="fill: #cfaf00; fill-opacity: 0.6; stroke: #000000; stroke-opacity: 0.6; stroke-width: 0.1"/>
    <path d="M 143.537634 145.351211 
L 132.51185 146.670976 
L 142.002797 148.515664 
L 153.05752 147.168289 
z
" clip-path="url(#p2d59d2984a)" style="fill: #cfaf00; fill-opacity: 0.6; stroke: #000000; stroke-opacity: 0.6; stroke-width: 0.1"/>
    <path d="M 163.934585 145.842568 
L 153.05752 147.168289 
L 162.761913 149.020585 
L 173.664801 147.667094 
z
" clip-path="url(#p2d59d2984a)" style="fill: #cfaf00; fill-opacity: 0.6; stroke: #000000; stroke-opacity: 0.6; stroke-width: 0.1"/>
    <path d="M 91.604242 145.680797 
L 80.099746 147.010006 
L 89.130041 148.867536 
L 100.671994 147.510381 
z
" clip-path="url(#p2d59d2984a)" style="fill: #cfaf00; fill-opacity: 0.6; stroke: #000000; stroke-opacity: 0.6; stroke-width: 0.1"/>
    <path d="M 112.027516 146.175148 
L 100.671994 147.510381 
L 109.916402 149.375609 
L 121.306251 148.012265 
z
" clip-path="url(#p2d59d2984a)" style="fill: #cfaf00; fill-opacity: 0.6; stroke: #000000; stroke-opacity: 0.6; stroke-width: 0.1"/>
    <path d="M 132.51185 146.670976 
L 121.306251 148.012265 
L 130.766027 149.885227 
L 142.002797 148.515664 
z
" clip-path="url(#p2d59d2984a)" style="fill: #cfaf00; fill-opacity: 0.6; stroke: #000000; stroke-opacity: 0.6; stroke-width: 0.1"/>
    <path d="M 153.05752 147.168289 
L 142.002797 148.515664 
L 151.679206 150.396399 
L 162.761913 149.020585 
z
" clip-path="url(#p2d59d2984a)" style="fill: #cfaf00; fill-opacity: 0.6; stroke: #000000; stroke-opacity: 0.6; stroke-width: 0.1"/>
    <path d="M 173.664801 147.667094 
L 162.761913 149.020585 
L 172.65623 150.909132 
L 183.583886 149.527035 
z
" clip-path="url(#p2d59d2984a)" style="fill: #cfaf00; fill-opacity: 0.6; stroke: #000000; stroke-opacity: 0.6; stroke-width: 0.1"/>
    <path d="M 80.099746 147.010006 
L 68.406657 148.361003 
L 77.397026 150.247157 
L 89.130041 148.867536 
z
" clip-path="url(#p2d59d2984a)" style="fill: #cfaf00; fill-opacity: 0.6; stroke: #000000; stroke-opacity: 0.6; stroke-width: 0.1"/>
    <path d="M 100.671994 147.510381 
L 89.130041 148.867536 
L 98.337719 150.761555 
L 109.916402 149.375609 
z
" clip-path="url(#p2d59d2984a)" style="fill: #cfaf00; fill-opacity: 0.6; stroke: #000000; stroke-opacity: 0.6; stroke-width: 0.1"/>
    <path d="M 121.306251 148.012265 
L 109.916402 149.375609 
L 119.342677 151.277531 
L 130.766027 149.885227 
z
" clip-path="url(#p2d59d2984a)" style="fill: #cfaf00; fill-opacity: 0.6; stroke: #000000; stroke-opacity: 0.6; stroke-width: 0.1"/>
    <path d="M 142.002797 148.515664 
L 130.766027 149.885227 
L 140.412194 151.795093 
L 151.679206 150.396399 
z
" clip-path="url(#p2d59d2984a)" style="fill: #cfaf00; fill-opacity: 0.6; stroke: #000000; stroke-opacity: 0.6; stroke-width: 0.1"/>
    <path d="M 162.761913 149.020585 
L 151.679206 150.396399 
L 161.546568 152.314248 
L 172.65623 150.909132 
z
" clip-path="url(#p2d59d2984a)" style="fill: #cfaf00; fill-opacity: 0.6; stroke: #000000; stroke-opacity: 0.6; stroke-width: 0.1"/>
    <path d="M 183.583886 149.527035 
L 172.65623 150.909132 
L 182.746101 152.835004 
L 193.697392 151.423432 
z
" clip-path="url(#p2d59d2984a)" style="fill: #cfaf00; fill-opacity: 0.6; stroke: #000000; stroke-opacity: 0.6; stroke-width: 0.1"/>
    <path d="M 68.406657 148.361003 
L 56.520301 149.734331 
L 65.468165 151.649806 
L 77.397026 150.247157 
z
" clip-path="url(#p2d59d2984a)" style="fill: #cfaf00; fill-opacity: 0.6; stroke: #000000; stroke-opacity: 0.6; stroke-width: 0.1"/>
    <path d="M 89.130041 148.867536 
L 77.397026 150.247157 
L 86.56547 152.170671 
L 98.337719 150.761555 
z
" clip-path="url(#p2d59d2984a)" style="fill: #cfaf00; fill-opacity: 0.6; stroke: #000000; stroke-opacity: 0.6; stroke-width: 0.1"/>
    <path d="M 109.916402 149.375609 
L 98.337719 150.761555 
L 107.72806 152.693147 
L 119.342677 151.277531 
z
" clip-path="url(#p2d59d2984a)" style="fill: #cfaf00; fill-opacity: 0.6; stroke: #000000; stroke-opacity: 0.6; stroke-width: 0.1"/>
    <path d="M 130.766027 149.885227 
L 119.342677 151.277531 
L 128.95624 153.217242 
L 140.412194 151.795093 
z
" clip-path="url(#p2d59d2984a)" style="fill: #cfaf00; fill-opacity: 0.6; stroke: #000000; stroke-opacity: 0.6; stroke-width: 0.1"/>
    <path d="M 151.679206 150.396399 
L 140.412194 151.795093 
L 150.250315 153.742964 
L 161.546568 152.314248 
z
" clip-path="url(#p2d59d2984a)" style="fill: #cfaf00; fill-opacity: 0.6; stroke: #000000; stroke-opacity: 0.6; stroke-width: 0.1"/>
    <path d="M 172.65623 150.909132 
L 161.546568 152.314248 
L 171.610592 154.270321 
L 182.746101 152.835004 
z
" clip-path="url(#p2d59d2984a)" style="fill: #cfaf00; fill-opacity: 0.6; stroke: #000000; stroke-opacity: 0.6; stroke-width: 0.1"/>
    <path d="M 56.520301 149.734331 
L 44.435845 151.130547 
L 53.338515 153.076066 
L 65.468165 151.649806 
z
" clip-path="url(#p2d59d2984a)" style="fill: #cfaf00; fill-opacity: 0.6; stroke: #000000; stroke-opacity: 0.6; stroke-width: 0.1"/>
    <path d="M 193.697392 151.423432 
L 182.746101 152.835004 
L 193.037381 154.79932 
L 204.011093 153.357368 
z
" clip-path="url(#p2d59d2984a)" style="fill: #cfaf00; fill-opacity: 0.6; stroke: #000000; stroke-opacity: 0.6; stroke-width: 0.1"/>
    <path d="M 77.397026 150.247157 
L 65.468165 151.649806 
L 74.594757 153.603542 
L 86.56547 152.170671 
z
" clip-path="url(#p2d59d2984a)" style="fill: #cfaf00; fill-opacity: 0.6; stroke: #000000; stroke-opacity: 0.6; stroke-width: 0.1"/>
    <path d="M 98.337719 150.761555 
L 86.56547 152.170671 
L 95.917332 154.132665 
L 107.72806 152.693147 
z
" clip-path="url(#p2d59d2984a)" style="fill: #cfaf00; fill-opacity: 0.6; stroke: #000000; stroke-opacity: 0.6; stroke-width: 0.1"/>
    <path d="M 119.342677 151.277531 
L 107.72806 152.693147 
L 117.306552 154.663442 
L 128.95624 153.217242 
z
" clip-path="url(#p2d59d2984a)" style="fill: #cfaf00; fill-opacity: 0.6; stroke: #000000; stroke-opacity: 0.6; stroke-width: 0.1"/>
    <path d="M 140.412194 151.795093 
L 128.95624 153.217242 
L 138.762729 155.19588 
L 150.250315 153.742964 
z
" clip-path="url(#p2d59d2984a)" style="fill: #cfaf00; fill-opacity: 0.6; stroke: #000000; stroke-opacity: 0.6; stroke-width: 0.1"/>
    <path d="M 161.546568 152.314248 
L 150.250315 153.742964 
L 160.286178 155.729987 
L 171.610592 154.270321 
z
" clip-path="url(#p2d59d2984a)" style="fill: #cfaf00; fill-opacity: 0.6; stroke: #000000; stroke-opacity: 0.6; stroke-width: 0.1"/>
    <path d="M 44.435845 151.130547 
L 32.148297 152.550227 
L 41.002961 154.526536 
L 53.338515 153.076066 
z
" clip-path="url(#p2d59d2984a)" style="fill: #cfaf00; fill-opacity: 0.6; stroke: #000000; stroke-opacity: 0.6; stroke-width: 0.1"/>
    <path d="M 182.746101 152.835004 
L 171.610592 154.270321 
L 181.877216 156.265772 
L 193.037381 154.79932 
z
" clip-path="url(#p2d59d2984a)" style="fill: #cfaf00; fill-opacity: 0.6; stroke: #000000; stroke-opacity: 0.6; stroke-width: 0.1"/>
    <path d="M 65.468165 151.649806 
L 53.338515 153.076066 
L 62.42052 155.060775 
L 74.594757 153.603542 
z
" clip-path="url(#p2d59d2984a)" style="fill: #cfaf00; fill-opacity: 0.6; stroke: #000000; stroke-opacity: 0.6; stroke-width: 0.1"/>
    <path d="M 204.011093 153.357368 
L 193.037381 154.79932 
L 203.536162 156.803242 
L 214.530993 155.329968 
z
" clip-path="url(#p2d59d2984a)" style="fill: #cfaf00; fill-opacity: 0.6; stroke: #000000; stroke-opacity: 0.6; stroke-width: 0.1"/>
    <path d="M 86.56547 152.170671 
L 74.594757 153.603542 
L 83.905485 155.596696 
L 95.917332 154.132665 
z
" clip-path="url(#p2d59d2984a)" style="fill: #cfaf00; fill-opacity: 0.6; stroke: #000000; stroke-opacity: 0.6; stroke-width: 0.1"/>
    <path d="M 107.72806 152.693147 
L 95.917332 154.132665 
L 105.458174 156.134307 
L 117.306552 154.663442 
z
" clip-path="url(#p2d59d2984a)" style="fill: #cfaf00; fill-opacity: 0.6; stroke: #000000; stroke-opacity: 0.6; stroke-width: 0.1"/>
    <path d="M 128.95624 153.217242 
L 117.306552 154.663442 
L 127.078908 156.673614 
L 138.762729 155.19588 
z
" clip-path="url(#p2d59d2984a)" style="fill: #cfaf00; fill-opacity: 0.6; stroke: #000000; stroke-opacity: 0.6; stroke-width: 0.1"/>
    <path d="M 150.250315 153.742964 
L 138.762729 155.19588 
L 148.768011 157.214627 
L 160.286178 155.729987 
z
" clip-path="url(#p2d59d2984a)" style="fill: #cfaf00; fill-opacity: 0.6; stroke: #000000; stroke-opacity: 0.6; stroke-width: 0.1"/>
    <path d="M 171.610592 154.270321 
L 160.286178 155.729987 
L 170.525806 157.757354 
L 181.877216 156.265772 
z
" clip-path="url(#p2d59d2984a)" style="fill: #cfaf00; fill-opacity: 0.6; stroke: #000000; stroke-opacity: 0.6; stroke-width: 0.1"/>
    <path d="M 53.338515 153.076066 
L 41.002961 154.526536 
L 50.037524 156.542996 
L 62.42052 155.060775 
z
" clip-path="url(#p2d59d2984a)" style="fill: #cfaf00; fill-opacity: 0.6; stroke: #000000; stroke-opacity: 0.6; stroke-width: 0.1"/>
    <path d="M 193.037381 154.79932 
L 181.877216 156.265772 
L 192.35262 158.301802 
L 203.536162 156.803242 
z
" clip-path="url(#p2d59d2984a)" style="fill: #cfaf00; fill-opacity: 0.6; stroke: #000000; stroke-opacity: 0.6; stroke-width: 0.1"/>
    <path d="M 74.594757 153.603542 
L 62.42052 155.060775 
L 71.687336 157.085872 
L 83.905485 155.596696 
z
" clip-path="url(#p2d59d2984a)" style="fill: #cfaf00; fill-opacity: 0.6; stroke: #000000; stroke-opacity: 0.6; stroke-width: 0.1"/>
    <path d="M 214.530993 155.329968 
L 203.536162 156.803242 
L 214.248784 158.84798 
L 225.263337 157.342405 
z
" clip-path="url(#p2d59d2984a)" style="fill: #cfaf00; fill-opacity: 0.6; stroke: #000000; stroke-opacity: 0.6; stroke-width: 0.1"/>
    <path d="M 95.917332 154.132665 
L 83.905485 155.596696 
L 93.405979 157.630474 
L 105.458174 156.134307 
z
" clip-path="url(#p2d59d2984a)" style="fill: #cfaf00; fill-opacity: 0.6; stroke: #000000; stroke-opacity: 0.6; stroke-width: 0.1"/>
    <path d="M 117.306552 154.663442 
L 105.458174 156.134307 
L 115.193781 158.176809 
L 127.078908 156.673614 
z
" clip-path="url(#p2d59d2984a)" style="fill: #cfaf00; fill-opacity: 0.6; stroke: #000000; stroke-opacity: 0.6; stroke-width: 0.1"/>
    <path d="M 138.762729 155.19588 
L 127.078908 156.673614 
L 137.051074 158.724888 
L 148.768011 157.214627 
z
" clip-path="url(#p2d59d2984a)" style="fill: #cfaf00; fill-opacity: 0.6; stroke: #000000; stroke-opacity: 0.6; stroke-width: 0.1"/>
    <path d="M 160.286178 155.729987 
L 148.768011 157.214627 
L 158.978191 159.274717 
L 170.525806 157.757354 
z
" clip-path="url(#p2d59d2984a)" style="fill: #cfaf00; fill-opacity: 0.6; stroke: #000000; stroke-opacity: 0.6; stroke-width: 0.1"/>
    <path d="M 181.877216 156.265772 
L 170.525806 157.757354 
L 180.975467 159.826305 
L 192.35262 158.301802 
z
" clip-path="url(#p2d59d2984a)" style="fill: #cfaf00; fill-opacity: 0.6; stroke: #000000; stroke-opacity: 0.6; stroke-width: 0.1"/>
    <path d="M 62.42052 155.060775 
L 50.037524 156.542996 
L 59.257525 158.600845 
L 71.687336 157.085872 
z
" clip-path="url(#p2d59d2984a)" style="fill: #cfaf00; fill-opacity: 0.6; stroke: #000000; stroke-opacity: 0.6; stroke-width: 0.1"/>
    <path d="M 203.536162 156.803242 
L 192.35262 158.301802 
L 203.043239 160.379661 
L 214.248784 158.84798 
z
" clip-path="url(#p2d59d2984a)" style="fill: #cfaf00; fill-opacity: 0.6; stroke: #000000; stroke-opacity: 0.6; stroke-width: 0.1"/>
    <path d="M 83.905485 155.596696 
L 71.687336 157.085872 
L 81.144661 159.152601 
L 93.405979 157.630474 
z
" clip-path="url(#p2d59d2984a)" style="fill: #cfaf00; fill-opacity: 0.6; stroke: #000000; stroke-opacity: 0.6; stroke-width: 0.1"/>
    <path d="M 105.458174 156.134307 
L 93.405979 157.630474 
L 103.1021 159.706129 
L 115.193781 158.176809 
z
" clip-path="url(#p2d59d2984a)" style="fill: #cfaf00; fill-opacity: 0.6; stroke: #000000; stroke-opacity: 0.6; stroke-width: 0.1"/>
    <path d="M 127.078908 156.673614 
L 115.193781 158.176809 
L 125.130179 160.261437 
L 137.051074 158.724888 
z
" clip-path="url(#p2d59d2984a)" style="fill: #cfaf00; fill-opacity: 0.6; stroke: #000000; stroke-opacity: 0.6; stroke-width: 0.1"/>
    <path d="M 148.768011 157.214627 
L 137.051074 158.724888 
L 147.229241 160.818535 
L 158.978191 159.274717 
z
" clip-path="url(#p2d59d2984a)" style="fill: #cfaf00; fill-opacity: 0.6; stroke: #000000; stroke-opacity: 0.6; stroke-width: 0.1"/>
    <path d="M 170.525806 157.757354 
L 158.978191 159.274717 
L 169.39963 161.377432 
L 180.975467 159.826305 
z
" clip-path="url(#p2d59d2984a)" style="fill: #cfaf00; fill-opacity: 0.6; stroke: #000000; stroke-opacity: 0.6; stroke-width: 0.1"/>
    <path d="M 192.35262 158.301802 
L 180.975467 159.826305 
L 191.641691 161.938134 
L 203.043239 160.379661 
z
" clip-path="url(#p2d59d2984a)" style="fill: #cfaf00; fill-opacity: 0.6; stroke: #000000; stroke-opacity: 0.6; stroke-width: 0.1"/>
    <path d="M 71.687336 157.085872 
L 59.257525 158.600845 
L 68.668731 160.701371 
L 81.144661 159.152601 
z
" clip-path="url(#p2d59d2984a)" style="fill: #cfaf00; fill-opacity: 0.6; stroke: #000000; stroke-opacity: 0.6; stroke-width: 0.1"/>
    <path d="M 93.405979 157.630474 
L 81.144661 159.152601 
L 90.798432 161.26226 
L 103.1021 159.706129 
z
" clip-path="url(#p2d59d2984a)" style="fill: #cfaf00; fill-opacity: 0.6; stroke: #000000; stroke-opacity: 0.6; stroke-width: 0.1"/>
    <path d="M 115.193781 158.176809 
L 103.1021 159.706129 
L 112.999953 161.824969 
L 125.130179 160.261437 
z
" clip-path="url(#p2d59d2984a)" style="fill: #cfaf00; fill-opacity: 0.6; stroke: #000000; stroke-opacity: 0.6; stroke-width: 0.1"/>
    <path d="M 137.051074 158.724888 
L 125.130179 160.261437 
L 135.273644 162.389508 
L 147.229241 160.818535 
z
" clip-path="url(#p2d59d2984a)" style="fill: #cfaf00; fill-opacity: 0.6; stroke: #000000; stroke-opacity: 0.6; stroke-width: 0.1"/>
    <path d="M 158.978191 159.274717 
L 147.229241 160.818535 
L 157.619859 162.955884 
L 169.39963 161.377432 
z
" clip-path="url(#p2d59d2984a)" style="fill: #cfaf00; fill-opacity: 0.6; stroke: #000000; stroke-opacity: 0.6; stroke-width: 0.1"/>
    <path d="M 180.975467 159.826305 
L 169.39963 161.377432 
L 180.038952 163.524108 
L 191.641691 161.938134 
z
" clip-path="url(#p2d59d2984a)" style="fill: #cfaf00; fill-opacity: 0.6; stroke: #000000; stroke-opacity: 0.6; stroke-width: 0.1"/>
    <path d="M 81.144661 159.152601 
L 68.668731 160.701371 
L 78.277154 162.845913 
L 90.798432 161.26226 
z
" clip-path="url(#p2d59d2984a)" style="fill: #cfaf00; fill-opacity: 0.6; stroke: #000000; stroke-opacity: 0.6; stroke-width: 0.1"/>
    <path d="M 103.1021 159.706129 
L 90.798432 161.26226 
L 100.654832 163.4162 
L 112.999953 161.824969 
z
" clip-path="url(#p2d59d2984a)" style="fill: #cfaf00; fill-opacity: 0.6; stroke: #000000; stroke-opacity: 0.6; stroke-width: 0.1"/>
    <path d="M 125.130179 160.261437 
L 112.999953 161.824969 
L 123.1059 163.988356 
L 135.273644 162.389508 
z
" clip-path="url(#p2d59d2984a)" style="fill: #cfaf00; fill-opacity: 0.6; stroke: #000000; stroke-opacity: 0.6; stroke-width: 0.1"/>
    <path d="M 147.229241 160.818535 
L 135.273644 162.389508 
L 145.630718 164.562392 
L 157.619859 162.955884 
z
" clip-path="url(#p2d59d2984a)" style="fill: #cfaf00; fill-opacity: 0.6; stroke: #000000; stroke-opacity: 0.6; stroke-width: 0.1"/>
    <path d="M 169.39963 161.377432 
L 157.619859 162.955884 
L 168.22965 165.138317 
L 180.038952 163.524108 
z
" clip-path="url(#p2d59d2984a)" style="fill: #cfaf00; fill-opacity: 0.6; stroke: #000000; stroke-opacity: 0.6; stroke-width: 0.1"/>
    <path d="M 90.798432 161.26226 
L 78.277154 162.845913 
L 88.089057 165.035872 
L 100.654832 163.4162 
z
" clip-path="url(#p2d59d2984a)" style="fill: #cfaf00; fill-opacity: 0.6; stroke: #000000; stroke-opacity: 0.6; stroke-width: 0.1"/>
    <path d="M 112.999953 161.824969 
L 100.654832 163.4162 
L 110.720311 165.61583 
L 123.1059 163.988356 
z
" clip-path="url(#p2d59d2984a)" style="fill: #cfaf00; fill-opacity: 0.6; stroke: #000000; stroke-opacity: 0.6; stroke-width: 0.1"/>
    <path d="M 135.273644 162.389508 
L 123.1059 163.988356 
L 133.426573 166.19771 
L 145.630718 164.562392 
z
" clip-path="url(#p2d59d2984a)" style="fill: #cfaf00; fill-opacity: 0.6; stroke: #000000; stroke-opacity: 0.6; stroke-width: 0.1"/>
    <path d="M 157.619859 162.955884 
L 145.630718 164.562392 
L 156.208219 166.781522 
L 168.22965 165.138317 
z
" clip-path="url(#p2d59d2984a)" style="fill: #cfaf00; fill-opacity: 0.6; stroke: #000000; stroke-opacity: 0.6; stroke-width: 0.1"/>
    <path d="M 100.654832 163.4162 
L 88.089057 165.035872 
L 98.110974 167.272704 
L 110.720311 165.61583 
z
" clip-path="url(#p2d59d2984a)" style="fill: #cfaf00; fill-opacity: 0.6; stroke: #000000; stroke-opacity: 0.6; stroke-width: 0.1"/>
    <path d="M 123.1059 163.988356 
L 110.720311 165.61583 
L 121.00159 167.862619 
L 133.426573 166.19771 
z
" clip-path="url(#p2d59d2984a)" style="fill: #cfaf00; fill-opacity: 0.6; stroke: #000000; stroke-opacity: 0.6; stroke-width: 0.1"/>
    <path d="M 145.630718 164.562392 
L 133.426573 166.19771 
L 143.96889 168.454511 
L 156.208219 166.781522 
z
" clip-path="url(#p2d59d2984a)" style="fill: #cfaf00; fill-opacity: 0.6; stroke: #000000; stroke-opacity: 0.6; stroke-width: 0.1"/>
    <path d="M 110.720311 165.61583 
L 98.110974 167.272704 
L 108.34972 169.557931 
L 121.00159 167.862619 
z
" clip-path="url(#p2d59d2984a)" style="fill: #cfaf00; fill-opacity: 0.6; stroke: #000000; stroke-opacity: 0.6; stroke-width: 0.1"/>
    <path d="M 133.426573 166.19771 
L 121.00159 167.862619 
L 131.505687 170.158102 
L 143.96889 168.454511 
z
" clip-path="url(#p2d59d2984a)" style="fill: #cfaf00; fill-opacity: 0.6; stroke: #000000; stroke-opacity: 0.6; stroke-width: 0.1"/>
    <path d="M 121.00159 167.862619 
L 108.34972 169.557931 
L 118.812409 171.893141 
L 131.505687 170.158102 
z
" clip-path="url(#p2d59d2984a)" style="fill: #cfaf00; fill-opacity: 0.6; stroke: #000000; stroke-opacity: 0.6; stroke-width: 0.1"/>
   </g>
   <g id="text_24">
    <!-- 3 Planos Paralelos Distintos -->
    <g transform="translate(56.400529 14.798437) scale(0.1 -0.1)">
     <defs>
      <path id="DejaVuSans-20" transform="scale(0.015625)"/>
      <path id="DejaVuSans-50" d="M 1259 4147 
L 1259 2394 
L 2053 2394 
Q 2494 2394 2734 2622 
Q 2975 2850 2975 3272 
Q 2975 3691 2734 3919 
Q 2494 4147 2053 4147 
L 1259 4147 
z
M 628 4666 
L 2053 4666 
Q 2838 4666 3239 4311 
Q 3641 3956 3641 3272 
Q 3641 2581 3239 2228 
Q 2838 1875 2053 1875 
L 1259 1875 
L 1259 0 
L 628 0 
L 628 4666 
z
" transform="scale(0.015625)"/>
      <path id="DejaVuSans-6c" d="M 603 4863 
L 1178 4863 
L 1178 0 
L 603 0 
L 603 4863 
z
" transform="scale(0.015625)"/>
      <path id="DejaVuSans-61" d="M 2194 1759 
Q 1497 1759 1228 1600 
Q 959 1441 959 1056 
Q 959 750 1161 570 
Q 1363 391 1709 391 
Q 2188 391 2477 730 
Q 2766 1069 2766 1631 
L 2766 1759 
L 2194 1759 
z
M 3341 1997 
L 3341 0 
L 2766 0 
L 2766 531 
Q 2569 213 2275 61 
Q 1981 -91 1556 -91 
Q 1019 -91 701 211 
Q 384 513 384 1019 
Q 384 1609 779 1909 
Q 1175 2209 1959 2209 
L 2766 2209 
L 2766 2266 
Q 2766 2663 2505 2880 
Q 2244 3097 1772 3097 
Q 1472 3097 1187 3025 
Q 903 2953 641 2809 
L 641 3341 
Q 956 3463 1253 3523 
Q 1550 3584 1831 3584 
Q 2591 3584 2966 3190 
Q 3341 2797 3341 1997 
z
" transform="scale(0.015625)"/>
      <path id="DejaVuSans-6e" d="M 3513 2113 
L 3513 0 
L 2938 0 
L 2938 2094 
Q 2938 2591 2744 2837 
Q 2550 3084 2163 3084 
Q 1697 3084 1428 2787 
Q 1159 2491 1159 1978 
L 1159 0 
L 581 0 
L 581 3500 
L 1159 3500 
L 1159 2956 
Q 1366 3272 1645 3428 
Q 1925 3584 2291 3584 
Q 2894 3584 3203 3211 
Q 3513 2838 3513 2113 
z
" transform="scale(0.015625)"/>
      <path id="DejaVuSans-6f" d="M 1959 3097 
Q 1497 3097 1228 2736 
Q 959 2375 959 1747 
Q 959 1119 1226 758 
Q 1494 397 1959 397 
Q 2419 397 2687 759 
Q 2956 1122 2956 1747 
Q 2956 2369 2687 2733 
Q 2419 3097 1959 3097 
z
M 1959 3584 
Q 2709 3584 3137 3096 
Q 3566 2609 3566 1747 
Q 3566 888 3137 398 
Q 2709 -91 1959 -91 
Q 1206 -91 779 398 
Q 353 888 353 1747 
Q 353 2609 779 3096 
Q 1206 3584 1959 3584 
z
" transform="scale(0.015625)"/>
      <path id="DejaVuSans-73" d="M 2834 3397 
L 2834 2853 
Q 2591 2978 2328 3040 
Q 2066 3103 1784 3103 
Q 1356 3103 1142 2972 
Q 928 2841 928 2578 
Q 928 2378 1081 2264 
Q 1234 2150 1697 2047 
L 1894 2003 
Q 2506 1872 2764 1633 
Q 3022 1394 3022 966 
Q 3022 478 2636 193 
Q 2250 -91 1575 -91 
Q 1294 -91 989 -36 
Q 684 19 347 128 
L 347 722 
Q 666 556 975 473 
Q 1284 391 1588 391 
Q 1994 391 2212 530 
Q 2431 669 2431 922 
Q 2431 1156 2273 1281 
Q 2116 1406 1581 1522 
L 1381 1569 
Q 847 1681 609 1914 
Q 372 2147 372 2553 
Q 372 3047 722 3315 
Q 1072 3584 1716 3584 
Q 2034 3584 2315 3537 
Q 2597 3491 2834 3397 
z
" transform="scale(0.015625)"/>
      <path id="DejaVuSans-72" d="M 2631 2963 
Q 2534 3019 2420 3045 
Q 2306 3072 2169 3072 
Q 1681 3072 1420 2755 
Q 1159 2438 1159 1844 
L 1159 0 
L 581 0 
L 581 3500 
L 1159 3500 
L 1159 2956 
Q 1341 3275 1631 3429 
Q 1922 3584 2338 3584 
Q 2397 3584 2469 3576 
Q 2541 3569 2628 3553 
L 2631 2963 
z
" transform="scale(0.015625)"/>
      <path id="DejaVuSans-65" d="M 3597 1894 
L 3597 1613 
L 953 1613 
Q 991 1019 1311 708 
Q 1631 397 2203 397 
Q 2534 397 2845 478 
Q 3156 559 3463 722 
L 3463 178 
Q 3153 47 2828 -22 
Q 2503 -91 2169 -91 
Q 1331 -91 842 396 
Q 353 884 353 1716 
Q 353 2575 817 3079 
Q 1281 3584 2069 3584 
Q 2775 3584 3186 3129 
Q 3597 2675 3597 1894 
z
M 3022 2063 
Q 3016 2534 2758 2815 
Q 2500 3097 2075 3097 
Q 1594 3097 1305 2825 
Q 1016 2553 972 2059 
L 3022 2063 
z
" transform="scale(0.015625)"/>
      <path id="DejaVuSans-44" d="M 1259 4147 
L 1259 519 
L 2022 519 
Q 2988 519 3436 956 
Q 3884 1394 3884 2338 
Q 3884 3275 3436 3711 
Q 2988 4147 2022 4147 
L 1259 4147 
z
M 628 4666 
L 1925 4666 
Q 3281 4666 3915 4102 
Q 4550 3538 4550 2338 
Q 4550 1131 3912 565 
Q 3275 0 1925 0 
L 628 0 
L 628 4666 
z
" transform="scale(0.015625)"/>
      <path id="DejaVuSans-69" d="M 603 3500 
L 1178 3500 
L 1178 0 
L 603 0 
L 603 3500 
z
M 603 4863 
L 1178 4863 
L 1178 4134 
L 603 4134 
L 603 4863 
z
" transform="scale(0.015625)"/>
      <path id="DejaVuSans-74" d="M 1172 4494 
L 1172 3500 
L 2356 3500 
L 2356 3053 
L 1172 3053 
L 1172 1153 
Q 1172 725 1289 603 
Q 1406 481 1766 481 
L 2356 481 
L 2356 0 
L 1766 0 
Q 1100 0 847 248 
Q 594 497 594 1153 
L 594 3053 
L 172 3053 
L 172 3500 
L 594 3500 
L 594 4494 
L 1172 4494 
z
" transform="scale(0.015625)"/>
     </defs>
     <use xlink:href="#DejaVuSans-33"/>
     <use xlink:href="#DejaVuSans-20" transform="translate(63.623047 0)"/>
     <use xlink:href="#DejaVuSans-50" transform="translate(95.410156 0)"/>
     <use xlink:href="#DejaVuSans-6c" transform="translate(155.712891 0)"/>
     <use xlink:href="#DejaVuSans-61" transform="translate(183.496094 0)"/>
     <use xlink:href="#DejaVuSans-6e" transform="translate(244.775391 0)"/>
     <use xlink:href="#DejaVuSans-6f" transform="translate(308.154297 0)"/>
     <use xlink:href="#DejaVuSans-73" transform="translate(369.335938 0)"/>
     <use xlink:href="#DejaVuSans-20" transform="translate(421.435547 0)"/>
     <use xlink:href="#DejaVuSans-50" transform="translate(453.222656 0)"/>
     <use xlink:href="#DejaVuSans-61" transform="translate(509.025391 0)"/>
     <use xlink:href="#DejaVuSans-72" transform="translate(570.304688 0)"/>
     <use xlink:href="#DejaVuSans-61" transform="translate(611.417969 0)"/>
     <use xlink:href="#DejaVuSans-6c" transform="translate(672.697266 0)"/>
     <use xlink:href="#DejaVuSans-65" transform="translate(700.480469 0)"/>
     <use xlink:href="#DejaVuSans-6c" transform="translate(762.003906 0)"/>
     <use xlink:href="#DejaVuSans-6f" transform="translate(789.787109 0)"/>
     <use xlink:href="#DejaVuSans-73" transform="translate(850.96875 0)"/>
     <use xlink:href="#DejaVuSans-20" transform="translate(903.068359 0)"/>
     <use xlink:href="#DejaVuSans-44" transform="translate(934.855469 0)"/>
     <use xlink:href="#DejaVuSans-69" transform="translate(1011.857422 0)"/>
     <use xlink:href="#DejaVuSans-73" transform="translate(1039.640625 0)"/>
     <use xlink:href="#DejaVuSans-74" transform="translate(1091.740234 0)"/>
     <use xlink:href="#DejaVuSans-69" transform="translate(1130.949219 0)"/>
     <use xlink:href="#DejaVuSans-6e" transform="translate(1158.732422 0)"/>
     <use xlink:href="#DejaVuSans-74" transform="translate(1222.111328 0)"/>
     <use xlink:href="#DejaVuSans-6f" transform="translate(1261.320312 0)"/>
     <use xlink:href="#DejaVuSans-73" transform="translate(1322.501953 0)"/>
    </g>
   </g>
   <g id="Poly3DCollection_2">
    <path d="M 135.857892 122.225068 
L 125.017878 123.332458 
L 134.223759 124.914788 
L 145.092579 123.784478 
z
" clip-path="url(#p2d59d2984a)" style="fill: #8ccf26; fill-opacity: 0.6; stroke: #000000; stroke-opacity: 0.6; stroke-width: 0.1"/>
    <path d="M 125.017878 123.332458 
L 114.005063 124.4575 
L 123.180026 126.063288 
L 134.223759 124.914788 
z
" clip-path="url(#p2d59d2984a)" style="fill: #8ccf26; fill-opacity: 0.6; stroke: #000000; stroke-opacity: 0.6; stroke-width: 0.1"/>
    <path d="M 145.092579 123.784478 
L 134.223759 124.914788 
L 143.605434 126.527334 
L 154.502201 125.373427 
z
" clip-path="url(#p2d59d2984a)" style="fill: #8ccf26; fill-opacity: 0.6; stroke: #000000; stroke-opacity: 0.6; stroke-width: 0.1"/>
    <path d="M 114.005063 124.4575 
L 102.81528 125.60062 
L 111.957123 127.230421 
L 123.180026 126.063288 
z
" clip-path="url(#p2d59d2984a)" style="fill: #8ccf26; fill-opacity: 0.6; stroke: #000000; stroke-opacity: 0.6; stroke-width: 0.1"/>
    <path d="M 134.223759 124.914788 
L 123.180026 126.063288 
L 132.531616 127.69999 
L 143.605434 126.527334 
z
" clip-path="url(#p2d59d2984a)" style="fill: #8ccf26; fill-opacity: 0.6; stroke: #000000; stroke-opacity: 0.6; stroke-width: 0.1"/>
    <path d="M 154.502201 125.373427 
L 143.605434 126.527334 
L 153.167986 128.17097 
L 164.091774 126.992764 
z
" clip-path="url(#p2d59d2984a)" style="fill: #8ccf26; fill-opacity: 0.6; stroke: #000000; stroke-opacity: 0.6; stroke-width: 0.1"/>
    <path d="M 102.81528 125.60062 
L 91.444229 126.762259 
L 100.550654 128.416645 
L 111.957123 127.230421 
z
" clip-path="url(#p2d59d2984a)" style="fill: #8ccf26; fill-opacity: 0.6; stroke: #000000; stroke-opacity: 0.6; stroke-width: 0.1"/>
    <path d="M 123.180026 126.063288 
L 111.957123 127.230421 
L 121.276397 128.891855 
L 132.531616 127.69999 
z
" clip-path="url(#p2d59d2984a)" style="fill: #8ccf26; fill-opacity: 0.6; stroke: #000000; stroke-opacity: 0.6; stroke-width: 0.1"/>
    <path d="M 143.605434 126.527334 
L 132.531616 127.69999 
L 142.064983 129.368506 
L 153.167986 128.17097 
z
" clip-path="url(#p2d59d2984a)" style="fill: #8ccf26; fill-opacity: 0.6; stroke: #000000; stroke-opacity: 0.6; stroke-width: 0.1"/>
    <path d="M 164.091774 126.992764 
L 153.167986 128.17097 
L 162.916698 129.846604 
L 173.866513 128.643369 
z
" clip-path="url(#p2d59d2984a)" style="fill: #8ccf26; fill-opacity: 0.6; stroke: #000000; stroke-opacity: 0.6; stroke-width: 0.1"/>
    <path d="M 91.444229 126.762259 
L 79.887471 127.942869 
L 88.956079 129.62243 
L 100.550654 128.416645 
z
" clip-path="url(#p2d59d2984a)" style="fill: #8ccf26; fill-opacity: 0.6; stroke: #000000; stroke-opacity: 0.6; stroke-width: 0.1"/>
    <path d="M 111.957123 127.230421 
L 100.550654 128.416645 
L 109.835283 130.103405 
L 121.276397 128.891855 
z
" clip-path="url(#p2d59d2984a)" style="fill: #8ccf26; fill-opacity: 0.6; stroke: #000000; stroke-opacity: 0.6; stroke-width: 0.1"/>
    <path d="M 132.531616 127.69999 
L 121.276397 128.891855 
L 130.778318 130.58585 
L 142.064983 129.368506 
z
" clip-path="url(#p2d59d2984a)" style="fill: #8ccf26; fill-opacity: 0.6; stroke: #000000; stroke-opacity: 0.6; stroke-width: 0.1"/>
    <path d="M 153.167986 128.17097 
L 142.064983 129.368506 
L 151.785479 131.069772 
L 162.916698 129.846604 
z
" clip-path="url(#p2d59d2984a)" style="fill: #8ccf26; fill-opacity: 0.6; stroke: #000000; stroke-opacity: 0.6; stroke-width: 0.1"/>
    <path d="M 173.866513 128.643369 
L 162.916698 129.846604 
L 172.85706 131.555179 
L 183.831831 130.326156 
z
" clip-path="url(#p2d59d2984a)" style="fill: #8ccf26; fill-opacity: 0.6; stroke: #000000; stroke-opacity: 0.6; stroke-width: 0.1"/>
    <path d="M 79.887471 127.942869 
L 68.140417 129.142919 
L 77.168706 130.848266 
L 88.956079 129.62243 
z
" clip-path="url(#p2d59d2984a)" style="fill: #8ccf26; fill-opacity: 0.6; stroke: #000000; stroke-opacity: 0.6; stroke-width: 0.1"/>
    <path d="M 100.550654 128.416645 
L 88.956079 129.62243 
L 98.203629 131.335132 
L 109.835283 130.103405 
z
" clip-path="url(#p2d59d2984a)" style="fill: #8ccf26; fill-opacity: 0.6; stroke: #000000; stroke-opacity: 0.6; stroke-width: 0.1"/>
    <path d="M 121.276397 128.891855 
L 109.835283 130.103405 
L 119.303396 131.823499 
L 130.778318 130.58585 
z
" clip-path="url(#p2d59d2984a)" style="fill: #8ccf26; fill-opacity: 0.6; stroke: #000000; stroke-opacity: 0.6; stroke-width: 0.1"/>
    <path d="M 142.064983 129.368506 
L 130.778318 130.58585 
L 140.468308 132.313374 
L 151.785479 131.069772 
z
" clip-path="url(#p2d59d2984a)" style="fill: #8ccf26; fill-opacity: 0.6; stroke: #000000; stroke-opacity: 0.6; stroke-width: 0.1"/>
    <path d="M 162.916698 129.846604 
L 151.785479 131.069772 
L 161.698668 132.804764 
L 172.85706 131.555179 
z
" clip-path="url(#p2d59d2984a)" style="fill: #8ccf26; fill-opacity: 0.6; stroke: #000000; stroke-opacity: 0.6; stroke-width: 0.1"/>
    <path d="M 183.831831 130.326156 
L 172.85706 131.555179 
L 182.994778 133.297676 
L 193.993358 132.042076 
z
" clip-path="url(#p2d59d2984a)" style="fill: #8ccf26; fill-opacity: 0.6; stroke: #000000; stroke-opacity: 0.6; stroke-width: 0.1"/>
    <path d="M 68.140417 129.142919 
L 56.19833 130.362893 
L 65.183686 132.094656 
L 77.168706 130.848266 
z
" clip-path="url(#p2d59d2984a)" style="fill: #8ccf26; fill-opacity: 0.6; stroke: #000000; stroke-opacity: 0.6; stroke-width: 0.1"/>
    <path d="M 88.956079 129.62243 
L 77.168706 130.848266 
L 86.376636 132.587545 
L 98.203629 131.335132 
z
" clip-path="url(#p2d59d2984a)" style="fill: #8ccf26; fill-opacity: 0.6; stroke: #000000; stroke-opacity: 0.6; stroke-width: 0.1"/>
    <path d="M 109.835283 130.103405 
L 98.203629 131.335132 
L 107.635468 133.081966 
L 119.303396 131.823499 
z
" clip-path="url(#p2d59d2984a)" style="fill: #8ccf26; fill-opacity: 0.6; stroke: #000000; stroke-opacity: 0.6; stroke-width: 0.1"/>
    <path d="M 130.778318 130.58585 
L 119.303396 131.823499 
L 128.960489 133.577926 
L 140.468308 132.313374 
z
" clip-path="url(#p2d59d2984a)" style="fill: #8ccf26; fill-opacity: 0.6; stroke: #000000; stroke-opacity: 0.6; stroke-width: 0.1"/>
    <path d="M 151.785479 131.069772 
L 140.468308 132.313374 
L 150.352008 134.075433 
L 161.698668 132.804764 
z
" clip-path="url(#p2d59d2984a)" style="fill: #8ccf26; fill-opacity: 0.6; stroke: #000000; stroke-opacity: 0.6; stroke-width: 0.1"/>
    <path d="M 172.85706 131.555179 
L 161.698668 132.804764 
L 171.810337 134.574494 
L 182.994778 133.297676 
z
" clip-path="url(#p2d59d2984a)" style="fill: #8ccf26; fill-opacity: 0.6; stroke: #000000; stroke-opacity: 0.6; stroke-width: 0.1"/>
    <path d="M 56.19833 130.362893 
L 44.056311 131.603292 
L 52.996005 133.362122 
L 65.183686 132.094656 
z
" clip-path="url(#p2d59d2984a)" style="fill: #8ccf26; fill-opacity: 0.6; stroke: #000000; stroke-opacity: 0.6; stroke-width: 0.1"/>
    <path d="M 193.993358 132.042076 
L 182.994778 133.297676 
L 193.33579 135.075115 
L 204.356946 133.792116 
z
" clip-path="url(#p2d59d2984a)" style="fill: #8ccf26; fill-opacity: 0.6; stroke: #000000; stroke-opacity: 0.6; stroke-width: 0.1"/>
    <path d="M 77.168706 130.848266 
L 65.183686 132.094656 
L 74.349342 133.861168 
L 86.376636 132.587545 
z
" clip-path="url(#p2d59d2984a)" style="fill: #8ccf26; fill-opacity: 0.6; stroke: #000000; stroke-opacity: 0.6; stroke-width: 0.1"/>
    <path d="M 98.203629 131.335132 
L 86.376636 132.587545 
L 95.769623 134.361779 
L 107.635468 133.081966 
z
" clip-path="url(#p2d59d2984a)" style="fill: #8ccf26; fill-opacity: 0.6; stroke: #000000; stroke-opacity: 0.6; stroke-width: 0.1"/>
    <path d="M 119.303396 131.823499 
L 107.635468 133.081966 
L 117.257161 134.863961 
L 128.960489 133.577926 
z
" clip-path="url(#p2d59d2984a)" style="fill: #8ccf26; fill-opacity: 0.6; stroke: #000000; stroke-opacity: 0.6; stroke-width: 0.1"/>
    <path d="M 140.468308 132.313374 
L 128.960489 133.577926 
L 138.812275 135.367723 
L 150.352008 134.075433 
z
" clip-path="url(#p2d59d2984a)" style="fill: #8ccf26; fill-opacity: 0.6; stroke: #000000; stroke-opacity: 0.6; stroke-width: 0.1"/>
    <path d="M 161.698668 132.804764 
L 150.352008 134.075433 
L 160.435284 135.873072 
L 171.810337 134.574494 
z
" clip-path="url(#p2d59d2984a)" style="fill: #8ccf26; fill-opacity: 0.6; stroke: #000000; stroke-opacity: 0.6; stroke-width: 0.1"/>
    <path d="M 44.056311 131.603292 
L 31.709296 132.864633 
L 40.600479 134.651203 
L 52.996005 133.362122 
z
" clip-path="url(#p2d59d2984a)" style="fill: #8ccf26; fill-opacity: 0.6; stroke: #000000; stroke-opacity: 0.6; stroke-width: 0.1"/>
    <path d="M 182.994778 133.297676 
L 171.810337 134.574494 
L 182.126508 136.380015 
L 193.33579 135.075115 
z
" clip-path="url(#p2d59d2984a)" style="fill: #8ccf26; fill-opacity: 0.6; stroke: #000000; stroke-opacity: 0.6; stroke-width: 0.1"/>
    <path d="M 65.183686 132.094656 
L 52.996005 133.362122 
L 62.116615 135.156546 
L 74.349342 133.861168 
z
" clip-path="url(#p2d59d2984a)" style="fill: #8ccf26; fill-opacity: 0.6; stroke: #000000; stroke-opacity: 0.6; stroke-width: 0.1"/>
    <path d="M 204.356946 133.792116 
L 193.33579 135.075115 
L 203.886272 136.888559 
L 214.928682 135.577306 
z
" clip-path="url(#p2d59d2984a)" style="fill: #8ccf26; fill-opacity: 0.6; stroke: #000000; stroke-opacity: 0.6; stroke-width: 0.1"/>
    <path d="M 86.376636 132.587545 
L 74.349342 133.861168 
L 83.700781 135.663486 
L 95.769623 134.361779 
z
" clip-path="url(#p2d59d2984a)" style="fill: #8ccf26; fill-opacity: 0.6; stroke: #000000; stroke-opacity: 0.6; stroke-width: 0.1"/>
    <path d="M 107.635468 133.081966 
L 95.769623 134.361779 
L 105.353301 136.172032 
L 117.257161 134.863961 
z
" clip-path="url(#p2d59d2984a)" style="fill: #8ccf26; fill-opacity: 0.6; stroke: #000000; stroke-opacity: 0.6; stroke-width: 0.1"/>
    <path d="M 128.960489 133.577926 
L 117.257161 134.863961 
L 127.074499 136.682191 
L 138.812275 135.367723 
z
" clip-path="url(#p2d59d2984a)" style="fill: #8ccf26; fill-opacity: 0.6; stroke: #000000; stroke-opacity: 0.6; stroke-width: 0.1"/>
    <path d="M 150.352008 134.075433 
L 138.812275 135.367723 
L 148.864703 137.193971 
L 160.435284 135.873072 
z
" clip-path="url(#p2d59d2984a)" style="fill: #8ccf26; fill-opacity: 0.6; stroke: #000000; stroke-opacity: 0.6; stroke-width: 0.1"/>
    <path d="M 171.810337 134.574494 
L 160.435284 135.873072 
L 170.724242 137.70738 
L 182.126508 136.380015 
z
" clip-path="url(#p2d59d2984a)" style="fill: #8ccf26; fill-opacity: 0.6; stroke: #000000; stroke-opacity: 0.6; stroke-width: 0.1"/>
    <path d="M 52.996005 133.362122 
L 40.600479 134.651203 
L 49.673146 136.47424 
L 62.116615 135.156546 
z
" clip-path="url(#p2d59d2984a)" style="fill: #8ccf26; fill-opacity: 0.6; stroke: #000000; stroke-opacity: 0.6; stroke-width: 0.1"/>
    <path d="M 193.33579 135.075115 
L 182.126508 136.380015 
L 192.653448 138.222424 
L 203.886272 136.888559 
z
" clip-path="url(#p2d59d2984a)" style="fill: #8ccf26; fill-opacity: 0.6; stroke: #000000; stroke-opacity: 0.6; stroke-width: 0.1"/>
    <path d="M 74.349342 133.861168 
L 62.116615 135.156546 
L 71.42369 136.987655 
L 83.700781 135.663486 
z
" clip-path="url(#p2d59d2984a)" style="fill: #8ccf26; fill-opacity: 0.6; stroke: #000000; stroke-opacity: 0.6; stroke-width: 0.1"/>
    <path d="M 214.928682 135.577306 
L 203.886272 136.888559 
L 214.652654 138.739113 
L 225.714901 137.398713 
z
" clip-path="url(#p2d59d2984a)" style="fill: #8ccf26; fill-opacity: 0.6; stroke: #000000; stroke-opacity: 0.6; stroke-width: 0.1"/>
    <path d="M 95.769623 134.361779 
L 83.700781 135.663486 
L 93.243709 137.502711 
L 105.353301 136.172032 
z
" clip-path="url(#p2d59d2984a)" style="fill: #8ccf26; fill-opacity: 0.6; stroke: #000000; stroke-opacity: 0.6; stroke-width: 0.1"/>
    <path d="M 117.257161 134.863961 
L 105.353301 136.172032 
L 115.133538 138.019414 
L 127.074499 136.682191 
z
" clip-path="url(#p2d59d2984a)" style="fill: #8ccf26; fill-opacity: 0.6; stroke: #000000; stroke-opacity: 0.6; stroke-width: 0.1"/>
    <path d="M 138.812275 135.367723 
L 127.074499 136.682191 
L 137.09351 138.537773 
L 148.864703 137.193971 
z
" clip-path="url(#p2d59d2984a)" style="fill: #8ccf26; fill-opacity: 0.6; stroke: #000000; stroke-opacity: 0.6; stroke-width: 0.1"/>
    <path d="M 160.435284 135.873072 
L 148.864703 137.193971 
L 159.123965 139.057796 
L 170.724242 137.70738 
z
" clip-path="url(#p2d59d2984a)" style="fill: #8ccf26; fill-opacity: 0.6; stroke: #000000; stroke-opacity: 0.6; stroke-width: 0.1"/>
    <path d="M 182.126508 136.380015 
L 170.724242 137.70738 
L 181.225242 139.57949 
L 192.653448 138.222424 
z
" clip-path="url(#p2d59d2984a)" style="fill: #8ccf26; fill-opacity: 0.6; stroke: #000000; stroke-opacity: 0.6; stroke-width: 0.1"/>
    <path d="M 62.116615 135.156546 
L 49.673146 136.47424 
L 58.932911 138.334872 
L 71.42369 136.987655 
z
" clip-path="url(#p2d59d2984a)" style="fill: #8ccf26; fill-opacity: 0.6; stroke: #000000; stroke-opacity: 0.6; stroke-width: 0.1"/>
    <path d="M 203.886272 136.888559 
L 192.653448 138.222424 
L 203.397683 140.102864 
L 214.652654 138.739113 
z
" clip-path="url(#p2d59d2984a)" style="fill: #8ccf26; fill-opacity: 0.6; stroke: #000000; stroke-opacity: 0.6; stroke-width: 0.1"/>
    <path d="M 83.700781 135.663486 
L 71.42369 136.987655 
L 80.923006 138.856587 
L 93.243709 137.502711 
z
" clip-path="url(#p2d59d2984a)" style="fill: #8ccf26; fill-opacity: 0.6; stroke: #000000; stroke-opacity: 0.6; stroke-width: 0.1"/>
    <path d="M 105.353301 136.172032 
L 93.243709 137.502711 
L 102.984068 139.379986 
L 115.133538 138.019414 
z
" clip-path="url(#p2d59d2984a)" style="fill: #8ccf26; fill-opacity: 0.6; stroke: #000000; stroke-opacity: 0.6; stroke-width: 0.1"/>
    <path d="M 127.074499 136.682191 
L 115.133538 138.019414 
L 125.116442 139.905077 
L 137.09351 138.537773 
z
" clip-path="url(#p2d59d2984a)" style="fill: #8ccf26; fill-opacity: 0.6; stroke: #000000; stroke-opacity: 0.6; stroke-width: 0.1"/>
    <path d="M 148.864703 137.193971 
L 137.09351 138.537773 
L 147.320474 140.431868 
L 159.123965 139.057796 
z
" clip-path="url(#p2d59d2984a)" style="fill: #8ccf26; fill-opacity: 0.6; stroke: #000000; stroke-opacity: 0.6; stroke-width: 0.1"/>
    <path d="M 170.724242 137.70738 
L 159.123965 139.057796 
L 169.596511 140.960367 
L 181.225242 139.57949 
z
" clip-path="url(#p2d59d2984a)" style="fill: #8ccf26; fill-opacity: 0.6; stroke: #000000; stroke-opacity: 0.6; stroke-width: 0.1"/>
    <path d="M 192.653448 138.222424 
L 181.225242 139.57949 
L 191.944906 141.490584 
L 203.397683 140.102864 
z
" clip-path="url(#p2d59d2984a)" style="fill: #8ccf26; fill-opacity: 0.6; stroke: #000000; stroke-opacity: 0.6; stroke-width: 0.1"/>
    <path d="M 71.42369 136.987655 
L 58.932911 138.334872 
L 68.385622 140.234274 
L 80.923006 138.856587 
z
" clip-path="url(#p2d59d2984a)" style="fill: #8ccf26; fill-opacity: 0.6; stroke: #000000; stroke-opacity: 0.6; stroke-width: 0.1"/>
    <path d="M 93.243709 137.502711 
L 80.923006 138.856587 
L 90.620583 140.764525 
L 102.984068 139.379986 
z
" clip-path="url(#p2d59d2984a)" style="fill: #8ccf26; fill-opacity: 0.6; stroke: #000000; stroke-opacity: 0.6; stroke-width: 0.1"/>
    <path d="M 115.133538 138.019414 
L 102.984068 139.379986 
L 112.92805 141.296506 
L 125.116442 139.905077 
z
" clip-path="url(#p2d59d2984a)" style="fill: #8ccf26; fill-opacity: 0.6; stroke: #000000; stroke-opacity: 0.6; stroke-width: 0.1"/>
    <path d="M 137.09351 138.537773 
L 125.116442 139.905077 
L 135.308381 141.830225 
L 147.320474 140.431868 
z
" clip-path="url(#p2d59d2984a)" style="fill: #8ccf26; fill-opacity: 0.6; stroke: #000000; stroke-opacity: 0.6; stroke-width: 0.1"/>
    <path d="M 159.123965 139.057796 
L 147.320474 140.431868 
L 157.761931 142.365689 
L 169.596511 140.960367 
z
" clip-path="url(#p2d59d2984a)" style="fill: #8ccf26; fill-opacity: 0.6; stroke: #000000; stroke-opacity: 0.6; stroke-width: 0.1"/>
    <path d="M 181.225242 139.57949 
L 169.596511 140.960367 
L 180.289062 142.902908 
L 191.944906 141.490584 
z
" clip-path="url(#p2d59d2984a)" style="fill: #8ccf26; fill-opacity: 0.6; stroke: #000000; stroke-opacity: 0.6; stroke-width: 0.1"/>
    <path d="M 80.923006 138.856587 
L 68.385622 140.234274 
L 78.037375 142.17367 
L 90.620583 140.764525 
z
" clip-path="url(#p2d59d2984a)" style="fill: #8ccf26; fill-opacity: 0.6; stroke: #000000; stroke-opacity: 0.6; stroke-width: 0.1"/>
    <path d="M 102.984068 139.379986 
L 90.620583 140.764525 
L 100.522691 142.712704 
L 112.92805 141.296506 
z
" clip-path="url(#p2d59d2984a)" style="fill: #8ccf26; fill-opacity: 0.6; stroke: #000000; stroke-opacity: 0.6; stroke-width: 0.1"/>
    <path d="M 125.116442 139.905077 
L 112.92805 141.296506 
L 123.082107 143.253514 
L 135.308381 141.830225 
z
" clip-path="url(#p2d59d2984a)" style="fill: #8ccf26; fill-opacity: 0.6; stroke: #000000; stroke-opacity: 0.6; stroke-width: 0.1"/>
    <path d="M 147.320474 140.431868 
L 135.308381 141.830225 
L 145.715987 143.796109 
L 157.761931 142.365689 
z
" clip-path="url(#p2d59d2984a)" style="fill: #8ccf26; fill-opacity: 0.6; stroke: #000000; stroke-opacity: 0.6; stroke-width: 0.1"/>
    <path d="M 169.596511 140.960367 
L 157.761931 142.365689 
L 168.424702 144.340499 
L 180.289062 142.902908 
z
" clip-path="url(#p2d59d2984a)" style="fill: #8ccf26; fill-opacity: 0.6; stroke: #000000; stroke-opacity: 0.6; stroke-width: 0.1"/>
    <path d="M 90.620583 140.764525 
L 78.037375 142.17367 
L 87.894521 144.154338 
L 100.522691 142.712704 
z
" clip-path="url(#p2d59d2984a)" style="fill: #8ccf26; fill-opacity: 0.6; stroke: #000000; stroke-opacity: 0.6; stroke-width: 0.1"/>
    <path d="M 112.92805 141.296506 
L 100.522691 142.712704 
L 110.635872 144.70241 
L 123.082107 143.253514 
z
" clip-path="url(#p2d59d2984a)" style="fill: #8ccf26; fill-opacity: 0.6; stroke: #000000; stroke-opacity: 0.6; stroke-width: 0.1"/>
    <path d="M 135.308381 141.830225 
L 123.082107 143.253514 
L 133.452966 145.252307 
L 145.715987 143.796109 
z
" clip-path="url(#p2d59d2984a)" style="fill: #8ccf26; fill-opacity: 0.6; stroke: #000000; stroke-opacity: 0.6; stroke-width: 0.1"/>
    <path d="M 157.761931 142.365689 
L 145.715987 143.796109 
L 156.346181 145.804039 
L 168.424702 144.340499 
z
" clip-path="url(#p2d59d2984a)" style="fill: #8ccf26; fill-opacity: 0.6; stroke: #000000; stroke-opacity: 0.6; stroke-width: 0.1"/>
    <path d="M 100.522691 142.712704 
L 87.894521 144.154338 
L 97.963688 146.177609 
L 110.635872 144.70241 
z
" clip-path="url(#p2d59d2984a)" style="fill: #8ccf26; fill-opacity: 0.6; stroke: #000000; stroke-opacity: 0.6; stroke-width: 0.1"/>
    <path d="M 123.082107 143.253514 
L 110.635872 144.70241 
L 120.966947 146.734985 
L 133.452966 145.252307 
z
" clip-path="url(#p2d59d2984a)" style="fill: #8ccf26; fill-opacity: 0.6; stroke: #000000; stroke-opacity: 0.6; stroke-width: 0.1"/>
    <path d="M 145.715987 143.796109 
L 133.452966 145.252307 
L 144.047647 147.294237 
L 156.346181 145.804039 
z
" clip-path="url(#p2d59d2984a)" style="fill: #8ccf26; fill-opacity: 0.6; stroke: #000000; stroke-opacity: 0.6; stroke-width: 0.1"/>
    <path d="M 110.635872 144.70241 
L 97.963688 146.177609 
L 108.25179 148.244872 
L 120.966947 146.734985 
z
" clip-path="url(#p2d59d2984a)" style="fill: #8ccf26; fill-opacity: 0.6; stroke: #000000; stroke-opacity: 0.6; stroke-width: 0.1"/>
    <path d="M 133.452966 145.252307 
L 120.966947 146.734985 
L 131.523033 148.81183 
L 144.047647 147.294237 
z
" clip-path="url(#p2d59d2984a)" style="fill: #8ccf26; fill-opacity: 0.6; stroke: #000000; stroke-opacity: 0.6; stroke-width: 0.1"/>
    <path d="M 120.966947 146.734985 
L 108.25179 148.244872 
L 118.766048 150.357579 
L 131.523033 148.81183 
z
" clip-path="url(#p2d59d2984a)" style="fill: #8ccf26; fill-opacity: 0.6; stroke: #000000; stroke-opacity: 0.6; stroke-width: 0.1"/>
   </g>
   <g id="Poly3DCollection_3">
    <path d="M 135.891362 103.721677 
L 125.00492 104.68689 
L 134.250709 106.098992 
L 145.166201 105.113453 
z
" clip-path="url(#p2d59d2984a)" style="fill: #396a92; fill-opacity: 0.6; stroke: #000000; stroke-opacity: 0.6; stroke-width: 0.1"/>
    <path d="M 125.00492 104.68689 
L 113.944182 105.667556 
L 123.158782 107.100461 
L 134.250709 106.098992 
z
" clip-path="url(#p2d59d2984a)" style="fill: #396a92; fill-opacity: 0.6; stroke: #000000; stroke-opacity: 0.6; stroke-width: 0.1"/>
    <path d="M 145.166201 105.113453 
L 134.250709 106.098992 
L 143.673829 107.538177 
L 154.617501 106.531708 
z
" clip-path="url(#p2d59d2984a)" style="fill: #396a92; fill-opacity: 0.6; stroke: #000000; stroke-opacity: 0.6; stroke-width: 0.1"/>
    <path d="M 113.944182 105.667556 
L 102.704929 106.66405 
L 111.886108 108.118249 
L 123.158782 107.100461 
z
" clip-path="url(#p2d59d2984a)" style="fill: #396a92; fill-opacity: 0.6; stroke: #000000; stroke-opacity: 0.6; stroke-width: 0.1"/>
    <path d="M 134.250709 106.098992 
L 123.158782 107.100461 
L 132.551557 108.561072 
L 143.673829 107.538177 
z
" clip-path="url(#p2d59d2984a)" style="fill: #396a92; fill-opacity: 0.6; stroke: #000000; stroke-opacity: 0.6; stroke-width: 0.1"/>
    <path d="M 154.617501 106.531708 
L 143.673829 107.538177 
L 153.279432 109.005233 
L 164.250346 107.977205 
z
" clip-path="url(#p2d59d2984a)" style="fill: #396a92; fill-opacity: 0.6; stroke: #000000; stroke-opacity: 0.6; stroke-width: 0.1"/>
    <path d="M 102.704929 106.66405 
L 91.282804 107.676757 
L 100.428233 109.152758 
L 111.886108 108.118249 
z
" clip-path="url(#p2d59d2984a)" style="fill: #396a92; fill-opacity: 0.6; stroke: #000000; stroke-opacity: 0.6; stroke-width: 0.1"/>
    <path d="M 123.158782 107.100461 
L 111.886108 108.118249 
L 121.246276 109.600798 
L 132.551557 108.561072 
z
" clip-path="url(#p2d59d2984a)" style="fill: #396a92; fill-opacity: 0.6; stroke: #000000; stroke-opacity: 0.6; stroke-width: 0.1"/>
    <path d="M 143.673829 107.538177 
L 132.551557 108.561072 
L 142.127725 110.050201 
L 153.279432 109.005233 
z
" clip-path="url(#p2d59d2984a)" style="fill: #396a92; fill-opacity: 0.6; stroke: #000000; stroke-opacity: 0.6; stroke-width: 0.1"/>
    <path d="M 164.250346 107.977205 
L 153.279432 109.005233 
L 163.072869 110.500976 
L 174.070016 109.450737 
z
" clip-path="url(#p2d59d2984a)" style="fill: #396a92; fill-opacity: 0.6; stroke: #000000; stroke-opacity: 0.6; stroke-width: 0.1"/>
    <path d="M 91.282804 107.676757 
L 79.673307 108.706078 
L 88.780555 110.204405 
L 100.428233 109.152758 
z
" clip-path="url(#p2d59d2984a)" style="fill: #396a92; fill-opacity: 0.6; stroke: #000000; stroke-opacity: 0.6; stroke-width: 0.1"/>
    <path d="M 111.886108 108.118249 
L 100.428233 109.152758 
L 109.753433 110.657773 
L 121.246276 109.600798 
z
" clip-path="url(#p2d59d2984a)" style="fill: #396a92; fill-opacity: 0.6; stroke: #000000; stroke-opacity: 0.6; stroke-width: 0.1"/>
    <path d="M 132.551557 108.561072 
L 121.246276 109.600798 
L 130.79072 111.112534 
L 142.127725 110.050201 
z
" clip-path="url(#p2d59d2984a)" style="fill: #396a92; fill-opacity: 0.6; stroke: #000000; stroke-opacity: 0.6; stroke-width: 0.1"/>
    <path d="M 153.279432 109.005233 
L 142.127725 110.050201 
L 151.892711 111.568693 
L 163.072869 110.500976 
z
" clip-path="url(#p2d59d2984a)" style="fill: #396a92; fill-opacity: 0.6; stroke: #000000; stroke-opacity: 0.6; stroke-width: 0.1"/>
    <path d="M 174.070016 109.450737 
L 163.072869 110.500976 
L 173.059705 112.026257 
L 184.082 110.953128 
z
" clip-path="url(#p2d59d2984a)" style="fill: #396a92; fill-opacity: 0.6; stroke: #000000; stroke-opacity: 0.6; stroke-width: 0.1"/>
    <path d="M 79.673307 108.706078 
L 67.871788 109.752423 
L 76.938318 111.273618 
L 88.780555 110.204405 
z
" clip-path="url(#p2d59d2984a)" style="fill: #396a92; fill-opacity: 0.6; stroke: #000000; stroke-opacity: 0.6; stroke-width: 0.1"/>
    <path d="M 100.428233 109.152758 
L 88.780555 110.204405 
L 98.068322 111.732431 
L 109.753433 110.657773 
z
" clip-path="url(#p2d59d2984a)" style="fill: #396a92; fill-opacity: 0.6; stroke: #000000; stroke-opacity: 0.6; stroke-width: 0.1"/>
    <path d="M 121.246276 109.600798 
L 109.753433 110.657773 
L 119.263759 112.192666 
L 130.79072 111.112534 
z
" clip-path="url(#p2d59d2984a)" style="fill: #396a92; fill-opacity: 0.6; stroke: #000000; stroke-opacity: 0.6; stroke-width: 0.1"/>
    <path d="M 142.127725 110.050201 
L 130.79072 111.112534 
L 140.524934 112.654327 
L 151.892711 111.568693 
z
" clip-path="url(#p2d59d2984a)" style="fill: #396a92; fill-opacity: 0.6; stroke: #000000; stroke-opacity: 0.6; stroke-width: 0.1"/>
    <path d="M 163.072869 110.500976 
L 151.892711 111.568693 
L 161.852154 113.117423 
L 173.059705 112.026257 
z
" clip-path="url(#p2d59d2984a)" style="fill: #396a92; fill-opacity: 0.6; stroke: #000000; stroke-opacity: 0.6; stroke-width: 0.1"/>
    <path d="M 184.082 110.953128 
L 173.059705 112.026257 
L 183.245726 113.58196 
L 194.292004 112.485233 
z
" clip-path="url(#p2d59d2984a)" style="fill: #396a92; fill-opacity: 0.6; stroke: #000000; stroke-opacity: 0.6; stroke-width: 0.1"/>
    <path d="M 67.871788 109.752423 
L 55.873446 110.816219 
L 64.896607 112.360841 
L 76.938318 111.273618 
z
" clip-path="url(#p2d59d2984a)" style="fill: #396a92; fill-opacity: 0.6; stroke: #000000; stroke-opacity: 0.6; stroke-width: 0.1"/>
    <path d="M 88.780555 110.204405 
L 76.938318 111.273618 
L 86.186075 112.82522 
L 98.068322 111.732431 
z
" clip-path="url(#p2d59d2984a)" style="fill: #396a92; fill-opacity: 0.6; stroke: #000000; stroke-opacity: 0.6; stroke-width: 0.1"/>
    <path d="M 109.753433 110.657773 
L 98.068322 111.732431 
L 107.542028 113.291049 
L 119.263759 112.192666 
z
" clip-path="url(#p2d59d2984a)" style="fill: #396a92; fill-opacity: 0.6; stroke: #000000; stroke-opacity: 0.6; stroke-width: 0.1"/>
    <path d="M 130.79072 111.112534 
L 119.263759 112.192666 
L 128.964777 113.758334 
L 140.524934 112.654327 
z
" clip-path="url(#p2d59d2984a)" style="fill: #396a92; fill-opacity: 0.6; stroke: #000000; stroke-opacity: 0.6; stroke-width: 0.1"/>
    <path d="M 151.892711 111.568693 
L 140.524934 112.654327 
L 150.454636 114.227084 
L 161.852154 113.117423 
z
" clip-path="url(#p2d59d2984a)" style="fill: #396a92; fill-opacity: 0.6; stroke: #000000; stroke-opacity: 0.6; stroke-width: 0.1"/>
    <path d="M 173.059705 112.026257 
L 161.852154 113.117423 
L 172.011922 114.697305 
L 183.245726 113.58196 
z
" clip-path="url(#p2d59d2984a)" style="fill: #396a92; fill-opacity: 0.6; stroke: #000000; stroke-opacity: 0.6; stroke-width: 0.1"/>
    <path d="M 55.873446 110.816219 
L 43.673314 111.897906 
L 52.650339 113.466533 
L 64.896607 112.360841 
z
" clip-path="url(#p2d59d2984a)" style="fill: #396a92; fill-opacity: 0.6; stroke: #000000; stroke-opacity: 0.6; stroke-width: 0.1"/>
    <path d="M 194.292004 112.485233 
L 183.245726 113.58196 
L 193.636951 115.169003 
L 204.705962 114.047944 
z
" clip-path="url(#p2d59d2984a)" style="fill: #396a92; fill-opacity: 0.6; stroke: #000000; stroke-opacity: 0.6; stroke-width: 0.1"/>
    <path d="M 76.938318 111.273618 
L 64.896607 112.360841 
L 74.101663 113.936601 
L 86.186075 112.82522 
z
" clip-path="url(#p2d59d2984a)" style="fill: #396a92; fill-opacity: 0.6; stroke: #000000; stroke-opacity: 0.6; stroke-width: 0.1"/>
    <path d="M 98.068322 111.732431 
L 86.186075 112.82522 
L 95.620548 114.408149 
L 107.542028 113.291049 
z
" clip-path="url(#p2d59d2984a)" style="fill: #396a92; fill-opacity: 0.6; stroke: #000000; stroke-opacity: 0.6; stroke-width: 0.1"/>
    <path d="M 119.263759 112.192666 
L 107.542028 113.291049 
L 117.207313 114.881184 
L 128.964777 113.758334 
z
" clip-path="url(#p2d59d2984a)" style="fill: #396a92; fill-opacity: 0.6; stroke: #000000; stroke-opacity: 0.6; stroke-width: 0.1"/>
    <path d="M 140.524934 112.654327 
L 128.964777 113.758334 
L 138.862281 115.355715 
L 150.454636 114.227084 
z
" clip-path="url(#p2d59d2984a)" style="fill: #396a92; fill-opacity: 0.6; stroke: #000000; stroke-opacity: 0.6; stroke-width: 0.1"/>
    <path d="M 161.852154 113.117423 
L 150.454636 114.227084 
L 160.585774 115.831746 
L 172.011922 114.697305 
z
" clip-path="url(#p2d59d2984a)" style="fill: #396a92; fill-opacity: 0.6; stroke: #000000; stroke-opacity: 0.6; stroke-width: 0.1"/>
    <path d="M 43.673314 111.897906 
L 31.266258 112.997939 
L 40.194256 114.591169 
L 52.650339 113.466533 
z
" clip-path="url(#p2d59d2984a)" style="fill: #396a92; fill-opacity: 0.6; stroke: #000000; stroke-opacity: 0.6; stroke-width: 0.1"/>
    <path d="M 183.245726 113.58196 
L 172.011922 114.697305 
L 182.378119 116.309287 
L 193.636951 115.169003 
z
" clip-path="url(#p2d59d2984a)" style="fill: #396a92; fill-opacity: 0.6; stroke: #000000; stroke-opacity: 0.6; stroke-width: 0.1"/>
    <path d="M 64.896607 112.360841 
L 52.650339 113.466533 
L 61.809881 115.067053 
L 74.101663 113.936601 
z
" clip-path="url(#p2d59d2984a)" style="fill: #396a92; fill-opacity: 0.6; stroke: #000000; stroke-opacity: 0.6; stroke-width: 0.1"/>
    <path d="M 204.705962 114.047944 
L 193.636951 115.169003 
L 204.239644 116.788343 
L 215.330045 115.642186 
z
" clip-path="url(#p2d59d2984a)" style="fill: #396a92; fill-opacity: 0.6; stroke: #000000; stroke-opacity: 0.6; stroke-width: 0.1"/>
    <path d="M 86.186075 112.82522 
L 74.101663 113.936601 
L 83.494169 115.544449 
L 95.620548 114.408149 
z
" clip-path="url(#p2d59d2984a)" style="fill: #396a92; fill-opacity: 0.6; stroke: #000000; stroke-opacity: 0.6; stroke-width: 0.1"/>
    <path d="M 107.542028 113.291049 
L 95.620548 114.408149 
L 105.247449 116.023364 
L 117.207313 114.881184 
z
" clip-path="url(#p2d59d2984a)" style="fill: #396a92; fill-opacity: 0.6; stroke: #000000; stroke-opacity: 0.6; stroke-width: 0.1"/>
    <path d="M 128.964777 113.758334 
L 117.207313 114.881184 
L 127.070049 116.503805 
L 138.862281 115.355715 
z
" clip-path="url(#p2d59d2984a)" style="fill: #396a92; fill-opacity: 0.6; stroke: #000000; stroke-opacity: 0.6; stroke-width: 0.1"/>
    <path d="M 150.454636 114.227084 
L 138.862281 115.355715 
L 148.962301 116.985779 
L 160.585774 115.831746 
z
" clip-path="url(#p2d59d2984a)" style="fill: #396a92; fill-opacity: 0.6; stroke: #000000; stroke-opacity: 0.6; stroke-width: 0.1"/>
    <path d="M 172.011922 114.697305 
L 160.585774 115.831746 
L 170.924541 117.469295 
L 182.378119 116.309287 
z
" clip-path="url(#p2d59d2984a)" style="fill: #396a92; fill-opacity: 0.6; stroke: #000000; stroke-opacity: 0.6; stroke-width: 0.1"/>
    <path d="M 52.650339 113.466533 
L 40.194256 114.591169 
L 49.305346 116.217072 
L 61.809881 115.067053 
z
" clip-path="url(#p2d59d2984a)" style="fill: #396a92; fill-opacity: 0.6; stroke: #000000; stroke-opacity: 0.6; stroke-width: 0.1"/>
    <path d="M 193.636951 115.169003 
L 182.378119 116.309287 
L 192.957103 117.954358 
L 204.239644 116.788343 
z
" clip-path="url(#p2d59d2984a)" style="fill: #396a92; fill-opacity: 0.6; stroke: #000000; stroke-opacity: 0.6; stroke-width: 0.1"/>
    <path d="M 74.101663 113.936601 
L 61.809881 115.067053 
L 71.157564 116.700449 
L 83.494169 115.544449 
z
" clip-path="url(#p2d59d2984a)" style="fill: #396a92; fill-opacity: 0.6; stroke: #000000; stroke-opacity: 0.6; stroke-width: 0.1"/>
    <path d="M 215.330045 115.642186 
L 204.239644 116.788343 
L 215.060326 118.440977 
L 226.170678 117.268923 
z
" clip-path="url(#p2d59d2984a)" style="fill: #396a92; fill-opacity: 0.6; stroke: #000000; stroke-opacity: 0.6; stroke-width: 0.1"/>
    <path d="M 95.620548 114.408149 
L 83.494169 115.544449 
L 93.079911 117.185376 
L 105.247449 116.023364 
z
" clip-path="url(#p2d59d2984a)" style="fill: #396a92; fill-opacity: 0.6; stroke: #000000; stroke-opacity: 0.6; stroke-width: 0.1"/>
    <path d="M 117.207313 114.881184 
L 105.247449 116.023364 
L 115.072726 117.671863 
L 127.070049 116.503805 
z
" clip-path="url(#p2d59d2984a)" style="fill: #396a92; fill-opacity: 0.6; stroke: #000000; stroke-opacity: 0.6; stroke-width: 0.1"/>
    <path d="M 138.862281 115.355715 
L 127.070049 116.503805 
L 137.136347 118.159916 
L 148.962301 116.985779 
z
" clip-path="url(#p2d59d2984a)" style="fill: #396a92; fill-opacity: 0.6; stroke: #000000; stroke-opacity: 0.6; stroke-width: 0.1"/>
    <path d="M 160.585774 115.831746 
L 148.962301 116.985779 
L 159.271119 118.649542 
L 170.924541 117.469295 
z
" clip-path="url(#p2d59d2984a)" style="fill: #396a92; fill-opacity: 0.6; stroke: #000000; stroke-opacity: 0.6; stroke-width: 0.1"/>
    <path d="M 182.378119 116.309287 
L 170.924541 117.469295 
L 181.477385 119.14075 
L 192.957103 117.954358 
z
" clip-path="url(#p2d59d2984a)" style="fill: #396a92; fill-opacity: 0.6; stroke: #000000; stroke-opacity: 0.6; stroke-width: 0.1"/>
    <path d="M 61.809881 115.067053 
L 49.305346 116.217072 
L 58.605218 117.876664 
L 71.157564 116.700449 
z
" clip-path="url(#p2d59d2984a)" style="fill: #396a92; fill-opacity: 0.6; stroke: #000000; stroke-opacity: 0.6; stroke-width: 0.1"/>
    <path d="M 204.239644 116.788343 
L 192.957103 117.954358 
L 203.755493 119.633548 
L 215.060326 118.440977 
z
" clip-path="url(#p2d59d2984a)" style="fill: #396a92; fill-opacity: 0.6; stroke: #000000; stroke-opacity: 0.6; stroke-width: 0.1"/>
    <path d="M 83.494169 115.544449 
L 71.157564 116.700449 
L 80.699245 118.367743 
L 93.079911 117.185376 
z
" clip-path="url(#p2d59d2984a)" style="fill: #396a92; fill-opacity: 0.6; stroke: #000000; stroke-opacity: 0.6; stroke-width: 0.1"/>
    <path d="M 105.247449 116.023364 
L 93.079911 117.185376 
L 102.864914 118.860414 
L 115.072726 117.671863 
z
" clip-path="url(#p2d59d2984a)" style="fill: #396a92; fill-opacity: 0.6; stroke: #000000; stroke-opacity: 0.6; stroke-width: 0.1"/>
    <path d="M 127.070049 116.503805 
L 115.072726 117.671863 
L 125.102574 119.354685 
L 137.136347 118.159916 
z
" clip-path="url(#p2d59d2984a)" style="fill: #396a92; fill-opacity: 0.6; stroke: #000000; stroke-opacity: 0.6; stroke-width: 0.1"/>
    <path d="M 148.962301 116.985779 
L 137.136347 118.159916 
L 147.412577 119.850564 
L 159.271119 118.649542 
z
" clip-path="url(#p2d59d2984a)" style="fill: #396a92; fill-opacity: 0.6; stroke: #000000; stroke-opacity: 0.6; stroke-width: 0.1"/>
    <path d="M 170.924541 117.469295 
L 159.271119 118.649542 
L 169.795275 120.348059 
L 181.477385 119.14075 
z
" clip-path="url(#p2d59d2984a)" style="fill: #396a92; fill-opacity: 0.6; stroke: #000000; stroke-opacity: 0.6; stroke-width: 0.1"/>
    <path d="M 192.957103 117.954358 
L 181.477385 119.14075 
L 192.251025 120.847178 
L 203.755493 119.633548 
z
" clip-path="url(#p2d59d2984a)" style="fill: #396a92; fill-opacity: 0.6; stroke: #000000; stroke-opacity: 0.6; stroke-width: 0.1"/>
    <path d="M 71.157564 116.700449 
L 58.605218 117.876664 
L 68.0998 119.571003 
L 80.699245 118.367743 
z
" clip-path="url(#p2d59d2984a)" style="fill: #396a92; fill-opacity: 0.6; stroke: #000000; stroke-opacity: 0.6; stroke-width: 0.1"/>
    <path d="M 93.079911 117.185376 
L 80.699245 118.367743 
L 90.441026 120.070002 
L 102.864914 118.860414 
z
" clip-path="url(#p2d59d2984a)" style="fill: #396a92; fill-opacity: 0.6; stroke: #000000; stroke-opacity: 0.6; stroke-width: 0.1"/>
    <path d="M 115.072726 117.671863 
L 102.864914 118.860414 
L 112.855456 120.570637 
L 125.102574 119.354685 
z
" clip-path="url(#p2d59d2984a)" style="fill: #396a92; fill-opacity: 0.6; stroke: #000000; stroke-opacity: 0.6; stroke-width: 0.1"/>
    <path d="M 137.136347 118.159916 
L 125.102574 119.354685 
L 135.343451 121.072914 
L 147.412577 119.850564 
z
" clip-path="url(#p2d59d2984a)" style="fill: #396a92; fill-opacity: 0.6; stroke: #000000; stroke-opacity: 0.6; stroke-width: 0.1"/>
    <path d="M 159.271119 118.649542 
L 147.412577 119.850564 
L 157.905374 121.576843 
L 169.795275 120.348059 
z
" clip-path="url(#p2d59d2984a)" style="fill: #396a92; fill-opacity: 0.6; stroke: #000000; stroke-opacity: 0.6; stroke-width: 0.1"/>
    <path d="M 181.477385 119.14075 
L 169.795275 120.348059 
L 180.541589 122.082431 
L 192.251025 120.847178 
z
" clip-path="url(#p2d59d2984a)" style="fill: #396a92; fill-opacity: 0.6; stroke: #000000; stroke-opacity: 0.6; stroke-width: 0.1"/>
    <path d="M 80.699245 118.367743 
L 68.0998 119.571003 
L 77.795273 121.301191 
L 90.441026 120.070002 
z
" clip-path="url(#p2d59d2984a)" style="fill: #396a92; fill-opacity: 0.6; stroke: #000000; stroke-opacity: 0.6; stroke-width: 0.1"/>
    <path d="M 102.864914 118.860414 
L 90.441026 120.070002 
L 100.389268 121.808338 
L 112.855456 120.570637 
z
" clip-path="url(#p2d59d2984a)" style="fill: #396a92; fill-opacity: 0.6; stroke: #000000; stroke-opacity: 0.6; stroke-width: 0.1"/>
    <path d="M 125.102574 119.354685 
L 112.855456 120.570637 
L 123.058082 122.317165 
L 135.343451 121.072914 
z
" clip-path="url(#p2d59d2984a)" style="fill: #396a92; fill-opacity: 0.6; stroke: #000000; stroke-opacity: 0.6; stroke-width: 0.1"/>
    <path d="M 147.412577 119.850564 
L 135.343451 121.072914 
L 145.802087 122.827679 
L 157.905374 121.576843 
z
" clip-path="url(#p2d59d2984a)" style="fill: #396a92; fill-opacity: 0.6; stroke: #000000; stroke-opacity: 0.6; stroke-width: 0.1"/>
    <path d="M 169.795275 120.348059 
L 157.905374 121.576843 
L 168.621657 123.339889 
L 180.541589 122.082431 
z
" clip-path="url(#p2d59d2984a)" style="fill: #396a92; fill-opacity: 0.6; stroke: #000000; stroke-opacity: 0.6; stroke-width: 0.1"/>
    <path d="M 90.441026 120.070002 
L 77.795273 121.301191 
L 87.69808 123.068379 
L 100.389268 121.808338 
z
" clip-path="url(#p2d59d2984a)" style="fill: #396a92; fill-opacity: 0.6; stroke: #000000; stroke-opacity: 0.6; stroke-width: 0.1"/>
    <path d="M 112.855456 120.570637 
L 100.389268 121.808338 
L 110.550606 123.58391 
L 123.058082 122.317165 
z
" clip-path="url(#p2d59d2984a)" style="fill: #396a92; fill-opacity: 0.6; stroke: #000000; stroke-opacity: 0.6; stroke-width: 0.1"/>
    <path d="M 135.343451 121.072914 
L 123.058082 122.317165 
L 133.479618 124.101167 
L 145.802087 122.827679 
z
" clip-path="url(#p2d59d2984a)" style="fill: #396a92; fill-opacity: 0.6; stroke: #000000; stroke-opacity: 0.6; stroke-width: 0.1"/>
    <path d="M 157.905374 121.576843 
L 145.802087 122.827679 
L 156.485502 124.620157 
L 168.621657 123.339889 
z
" clip-path="url(#p2d59d2984a)" style="fill: #396a92; fill-opacity: 0.6; stroke: #000000; stroke-opacity: 0.6; stroke-width: 0.1"/>
    <path d="M 100.389268 121.808338 
L 87.69808 123.068379 
L 97.814944 124.873766 
L 110.550606 123.58391 
z
" clip-path="url(#p2d59d2984a)" style="fill: #396a92; fill-opacity: 0.6; stroke: #000000; stroke-opacity: 0.6; stroke-width: 0.1"/>
    <path d="M 123.058082 122.317165 
L 110.550606 123.58391 
L 120.93196 125.397927 
L 133.479618 124.101167 
z
" clip-path="url(#p2d59d2984a)" style="fill: #396a92; fill-opacity: 0.6; stroke: #000000; stroke-opacity: 0.6; stroke-width: 0.1"/>
    <path d="M 145.802087 122.827679 
L 133.479618 124.101167 
L 144.127186 125.923862 
L 156.485502 124.620157 
z
" clip-path="url(#p2d59d2984a)" style="fill: #396a92; fill-opacity: 0.6; stroke: #000000; stroke-opacity: 0.6; stroke-width: 0.1"/>
    <path d="M 110.550606 123.58391 
L 97.814944 124.873766 
L 108.152881 126.718604 
L 120.93196 125.397927 
z
" clip-path="url(#p2d59d2984a)" style="fill: #396a92; fill-opacity: 0.6; stroke: #000000; stroke-opacity: 0.6; stroke-width: 0.1"/>
    <path d="M 133.479618 124.101167 
L 120.93196 125.397927 
L 131.540554 127.251652 
L 144.127186 125.923862 
z
" clip-path="url(#p2d59d2984a)" style="fill: #396a92; fill-opacity: 0.6; stroke: #000000; stroke-opacity: 0.6; stroke-width: 0.1"/>
    <path d="M 120.93196 125.397927 
L 108.152881 126.718604 
L 118.719218 128.604201 
L 131.540554 127.251652 
z
" clip-path="url(#p2d59d2984a)" style="fill: #396a92; fill-opacity: 0.6; stroke: #000000; stroke-opacity: 0.6; stroke-width: 0.1"/>
   </g>
  </g>
 </g>
 <defs>
  <clipPath id="p2d59d2984a">
   <rect x="17.887873" y="20.798437" width="214.48" height="214.48"/>
  </clipPath>
 </defs>
</svg>
