<?xml version="1.0" encoding="utf-8" standalone="no"?>
<!DOCTYPE svg PUBLIC "-//W3C//DTD SVG 1.1//EN"
  "http://www.w3.org/Graphics/SVG/1.1/DTD/svg11.dtd">
<svg xmlns:xlink="http://www.w3.org/1999/xlink" width="246.384979pt" height="242.497187pt" viewBox="0 0 246.384979 242.497187" xmlns="http://www.w3.org/2000/svg" version="1.1">
 <metadata>
  <rdf:RDF xmlns:dc="http://purl.org/dc/elements/1.1/" xmlns:cc="http://creativecommons.org/ns#" xmlns:rdf="http://www.w3.org/1999/02/22-rdf-syntax-ns#">
   <cc:Work>
    <dc:type rdf:resource="http://purl.org/dc/dcmitype/StillImage"/>
    <dc:date>2025-06-11T09:21:55.915480</dc:date>
    <dc:format>image/svg+xml</dc:format>
    <dc:creator>
     <cc:Agent>
      <dc:title>Matplotlib v3.10.3, https://matplotlib.org/</dc:title>
     </cc:Agent>
    </dc:creator>
   </cc:Work>
  </rdf:RDF>
 </metadata>
 <defs>
  <style type="text/css">*{stroke-linejoin: round; stroke-linecap: butt}</style>
 </defs>
 <g id="figure_1">
  <g id="patch_1">
   <path d="M 0 242.497187 
L 246.384979 242.497187 
L 246.384979 0 
L 0 0 
L 0 242.497187 
z
" style="fill: none; opacity: 0"/>
  </g>
  <g id="patch_2">
   <path d="M 7.2 235.297187 
L 221.68 235.297187 
L 221.68 20.817188 
L 7.2 20.817188 
L 7.2 235.297187 
z
" style="fill: none"/>
  </g>
  <g id="pane3d_1">
   <g id="patch_3">
    <path d="M 26.323382 163.774928 
L 140.476239 140.175962 
L 141.142102 48.941606 
L 23.5584 68.180807 
" style="fill: none; opacity: 0"/>
   </g>
  </g>
  <g id="pane3d_2">
   <g id="patch_4">
    <path d="M 140.476239 140.175962 
L 212.099627 182.733003 
L 215.100663 83.67993 
L 141.142102 48.941606 
" style="fill: none; opacity: 0"/>
   </g>
  </g>
  <g id="pane3d_3">
   <g id="patch_5">
    <path d="M 26.323382 163.774928 
L 90.434459 211.302536 
L 212.099627 182.733003 
L 140.476239 140.175962 
" style="fill: none; opacity: 0"/>
   </g>
  </g>
  <g id="grid3d_1">
   <g id="Line3DCollection_1">
    <path d="M 26.323382 163.774928 
L 140.476239 140.175962 
L 141.142102 48.941606 
" style="fill: none; stroke: #b0b0b0; stroke-width: 0.8"/>
    <path d="M 36.162484 171.068972 
L 151.51741 146.736383 
L 152.516215 54.284025 
" style="fill: none; stroke: #b0b0b0; stroke-width: 0.8"/>
    <path d="M 46.318234 178.597757 
L 162.895153 153.496787 
L 164.24734 59.794133 
" style="fill: none; stroke: #b0b0b0; stroke-width: 0.8"/>
    <path d="M 56.806168 186.3728 
L 174.625096 160.466461 
L 176.352555 65.47995 
" style="fill: none; stroke: #b0b0b0; stroke-width: 0.8"/>
    <path d="M 67.642854 194.406385 
L 186.723851 167.655275 
L 188.850042 71.350018 
" style="fill: none; stroke: #b0b0b0; stroke-width: 0.8"/>
    <path d="M 78.845983 202.711625 
L 199.209088 175.073728 
L 201.759185 77.413441 
" style="fill: none; stroke: #b0b0b0; stroke-width: 0.8"/>
    <path d="M 90.434459 211.302536 
L 212.099627 182.733003 
L 215.100663 83.67993 
" style="fill: none; stroke: #b0b0b0; stroke-width: 0.8"/>
   </g>
  </g>
  <g id="grid3d_2">
   <g id="Line3DCollection_2">
    <path d="M 23.5584 68.180807 
L 26.323382 163.774928 
L 90.434459 211.302536 
" style="fill: none; stroke: #b0b0b0; stroke-width: 0.8"/>
    <path d="M 44.056068 64.826951 
L 46.197428 159.666341 
L 111.70881 206.306872 
" style="fill: none; stroke: #b0b0b0; stroke-width: 0.8"/>
    <path d="M 64.180464 61.534171 
L 65.720042 155.630406 
L 132.568903 201.408485 
" style="fill: none; stroke: #b0b0b0; stroke-width: 0.8"/>
    <path d="M 83.941695 58.300812 
L 84.900464 151.665213 
L 153.026722 196.60456 
" style="fill: none; stroke: #b0b0b0; stroke-width: 0.8"/>
    <path d="M 103.349501 55.125282 
L 103.747612 147.768918 
L 173.093792 191.892391 
" style="fill: none; stroke: #b0b0b0; stroke-width: 0.8"/>
    <path d="M 122.413281 52.006041 
L 122.270098 143.939741 
L 192.781202 187.269374 
" style="fill: none; stroke: #b0b0b0; stroke-width: 0.8"/>
    <path d="M 141.142102 48.941606 
L 140.476239 140.175962 
L 212.099627 182.733003 
" style="fill: none; stroke: #b0b0b0; stroke-width: 0.8"/>
   </g>
  </g>
  <g id="grid3d_3">
   <g id="Line3DCollection_3">
    <path d="M 212.099627 182.733003 
L 140.476239 140.175962 
L 26.323382 163.774928 
" style="fill: none; stroke: #b0b0b0; stroke-width: 0.8"/>
    <path d="M 212.586939 166.648643 
L 140.584617 125.326355 
L 25.87393 148.235962 
" style="fill: none; stroke: #b0b0b0; stroke-width: 0.8"/>
    <path d="M 213.079288 150.398 
L 140.694015 110.336982 
L 25.420017 132.542764 
" style="fill: none; stroke: #b0b0b0; stroke-width: 0.8"/>
    <path d="M 213.576755 133.978481 
L 140.804448 95.20586 
L 24.961576 116.693028 
" style="fill: none; stroke: #b0b0b0; stroke-width: 0.8"/>
    <path d="M 214.079418 117.38744 
L 140.91593 79.930969 
L 24.49854 100.684398 
" style="fill: none; stroke: #b0b0b0; stroke-width: 0.8"/>
    <path d="M 214.587359 100.622177 
L 141.028476 64.510251 
L 24.030838 84.514475 
" style="fill: none; stroke: #b0b0b0; stroke-width: 0.8"/>
    <path d="M 215.100663 83.67993 
L 141.142102 48.941606 
L 23.5584 68.180807 
" style="fill: none; stroke: #b0b0b0; stroke-width: 0.8"/>
   </g>
  </g>
  <g id="axis3d_1">
   <g id="line2d_1">
    <path d="M 26.323382 163.774928 
L 90.434459 211.302536 
" style="fill: none; stroke: #000000; stroke-width: 0.8; stroke-linecap: square"/>
   </g>
   <g id="xtick_1">
    <g id="line2d_2">
     <path d="M 27.285506 163.576027 
L 24.396636 164.173247 
" style="fill: none; stroke: #000000; stroke-width: 0.8; stroke-linecap: square"/>
    </g>
    <g id="text_1">
     <!-- −3 -->
     <g transform="translate(8.285823 181.995906) scale(0.08 -0.08)">
      <defs>
       <path id="DejaVuSans-2212" d="M 678 2272 
L 4684 2272 
L 4684 1741 
L 678 1741 
L 678 2272 
z
" transform="scale(0.015625)"/>
       <path id="DejaVuSans-33" d="M 2597 2516 
Q 3050 2419 3304 2112 
Q 3559 1806 3559 1356 
Q 3559 666 3084 287 
Q 2609 -91 1734 -91 
Q 1441 -91 1130 -33 
Q 819 25 488 141 
L 488 750 
Q 750 597 1062 519 
Q 1375 441 1716 441 
Q 2309 441 2620 675 
Q 2931 909 2931 1356 
Q 2931 1769 2642 2001 
Q 2353 2234 1838 2234 
L 1294 2234 
L 1294 2753 
L 1863 2753 
Q 2328 2753 2575 2939 
Q 2822 3125 2822 3475 
Q 2822 3834 2567 4026 
Q 2313 4219 1838 4219 
Q 1578 4219 1281 4162 
Q 984 4106 628 3988 
L 628 4550 
Q 988 4650 1302 4700 
Q 1616 4750 1894 4750 
Q 2613 4750 3031 4423 
Q 3450 4097 3450 3541 
Q 3450 3153 3228 2886 
Q 3006 2619 2597 2516 
z
" transform="scale(0.015625)"/>
      </defs>
      <use xlink:href="#DejaVuSans-2212"/>
      <use xlink:href="#DejaVuSans-33" transform="translate(83.789062 0)"/>
     </g>
    </g>
   </g>
   <g id="xtick_2">
    <g id="line2d_3">
     <path d="M 37.135523 170.863722 
L 34.213843 171.480012 
" style="fill: none; stroke: #000000; stroke-width: 0.8; stroke-linecap: square"/>
    </g>
    <g id="text_2">
     <!-- −2 -->
     <g transform="translate(17.95746 189.501486) scale(0.08 -0.08)">
      <defs>
       <path id="DejaVuSans-32" d="M 1228 531 
L 3431 531 
L 3431 0 
L 469 0 
L 469 531 
Q 828 903 1448 1529 
Q 2069 2156 2228 2338 
Q 2531 2678 2651 2914 
Q 2772 3150 2772 3378 
Q 2772 3750 2511 3984 
Q 2250 4219 1831 4219 
Q 1534 4219 1204 4116 
Q 875 4013 500 3803 
L 500 4441 
Q 881 4594 1212 4672 
Q 1544 4750 1819 4750 
Q 2544 4750 2975 4387 
Q 3406 4025 3406 3419 
Q 3406 3131 3298 2873 
Q 3191 2616 2906 2266 
Q 2828 2175 2409 1742 
Q 1991 1309 1228 531 
z
" transform="scale(0.015625)"/>
      </defs>
      <use xlink:href="#DejaVuSans-2212"/>
      <use xlink:href="#DejaVuSans-32" transform="translate(83.789062 0)"/>
     </g>
    </g>
   </g>
   <g id="xtick_3">
    <g id="line2d_4">
     <path d="M 47.302397 178.38585 
L 44.347274 179.022138 
" style="fill: none; stroke: #000000; stroke-width: 0.8; stroke-linecap: square"/>
    </g>
    <g id="text_3">
     <!-- −1 -->
     <g transform="translate(27.941169 197.249245) scale(0.08 -0.08)">
      <defs>
       <path id="DejaVuSans-31" d="M 794 531 
L 1825 531 
L 1825 4091 
L 703 3866 
L 703 4441 
L 1819 4666 
L 2450 4666 
L 2450 531 
L 3481 531 
L 3481 0 
L 794 0 
L 794 531 
z
" transform="scale(0.015625)"/>
      </defs>
      <use xlink:href="#DejaVuSans-2212"/>
      <use xlink:href="#DejaVuSans-31" transform="translate(83.789062 0)"/>
     </g>
    </g>
   </g>
   <g id="xtick_4">
    <g id="line2d_5">
     <path d="M 57.801667 186.153907 
L 54.81246 186.811182 
" style="fill: none; stroke: #000000; stroke-width: 0.8; stroke-linecap: square"/>
    </g>
    <g id="text_4">
     <!-- 0 -->
     <g transform="translate(41.604176 205.251099) scale(0.08 -0.08)">
      <defs>
       <path id="DejaVuSans-30" d="M 2034 4250 
Q 1547 4250 1301 3770 
Q 1056 3291 1056 2328 
Q 1056 1369 1301 889 
Q 1547 409 2034 409 
Q 2525 409 2770 889 
Q 3016 1369 3016 2328 
Q 3016 3291 2770 3770 
Q 2525 4250 2034 4250 
z
M 2034 4750 
Q 2819 4750 3233 4129 
Q 3647 3509 3647 2328 
Q 3647 1150 3233 529 
Q 2819 -91 2034 -91 
Q 1250 -91 836 529 
Q 422 1150 422 2328 
Q 422 3509 836 4129 
Q 1250 4750 2034 4750 
z
" transform="scale(0.015625)"/>
      </defs>
      <use xlink:href="#DejaVuSans-30"/>
     </g>
    </g>
   </g>
   <g id="xtick_5">
    <g id="line2d_6">
     <path d="M 68.649906 194.180154 
L 65.625963 194.859472 
" style="fill: none; stroke: #000000; stroke-width: 0.8; stroke-linecap: square"/>
    </g>
    <g id="text_5">
     <!-- 1 -->
     <g transform="translate(52.259107 213.519754) scale(0.08 -0.08)">
      <use xlink:href="#DejaVuSans-31"/>
     </g>
    </g>
   </g>
   <g id="xtick_6">
    <g id="line2d_7">
     <path d="M 79.864807 202.477681 
L 76.805467 203.18017 
" style="fill: none; stroke: #000000; stroke-width: 0.8; stroke-linecap: square"/>
    </g>
    <g id="text_6">
     <!-- 2 -->
     <g transform="translate(63.275324 222.068781) scale(0.08 -0.08)">
      <use xlink:href="#DejaVuSans-32"/>
     </g>
    </g>
   </g>
   <g id="xtick_7">
    <g id="line2d_8">
     <path d="M 91.465276 211.060478 
L 88.369874 211.787344 
" style="fill: none; stroke: #000000; stroke-width: 0.8; stroke-linecap: square"/>
    </g>
    <g id="text_7">
     <!-- 3 -->
     <g transform="translate(74.671517 230.912685) scale(0.08 -0.08)">
      <use xlink:href="#DejaVuSans-33"/>
     </g>
    </g>
   </g>
   <g id="text_8">
    <!-- X -->
    <g transform="translate(26.122438 216.768343) scale(0.09 -0.09)">
     <defs>
      <path id="DejaVuSans-58" d="M 403 4666 
L 1081 4666 
L 2241 2931 
L 3406 4666 
L 4084 4666 
L 2584 2425 
L 4184 0 
L 3506 0 
L 2194 1984 
L 872 0 
L 191 0 
L 1856 2491 
L 403 4666 
z
" transform="scale(0.015625)"/>
     </defs>
     <use xlink:href="#DejaVuSans-58"/>
    </g>
   </g>
  </g>
  <g id="axis3d_2">
   <g id="line2d_9">
    <path d="M 212.099627 182.733003 
L 90.434459 211.302536 
" style="fill: none; stroke: #000000; stroke-width: 0.8; stroke-linecap: square"/>
   </g>
   <g id="xtick_8">
    <g id="line2d_10">
     <path d="M 89.869113 210.883426 
L 91.567958 212.142835 
" style="fill: none; stroke: #000000; stroke-width: 0.8; stroke-linecap: square"/>
    </g>
    <g id="text_9">
     <!-- −3 -->
     <g transform="translate(91.96276 233.271936) scale(0.08 -0.08)">
      <use xlink:href="#DejaVuSans-2212"/>
      <use xlink:href="#DejaVuSans-33" transform="translate(83.789062 0)"/>
     </g>
    </g>
   </g>
   <g id="xtick_9">
    <g id="line2d_11">
     <path d="M 111.131641 205.89596 
L 112.865982 207.130715 
" style="fill: none; stroke: #000000; stroke-width: 0.8; stroke-linecap: square"/>
    </g>
    <g id="text_10">
     <!-- −2 -->
     <g transform="translate(113.31793 228.08266) scale(0.08 -0.08)">
      <use xlink:href="#DejaVuSans-2212"/>
      <use xlink:href="#DejaVuSans-32" transform="translate(83.789062 0)"/>
     </g>
    </g>
   </g>
   <g id="xtick_10">
    <g id="line2d_12">
     <path d="M 131.980478 201.005532 
L 133.748615 202.216351 
" style="fill: none; stroke: #000000; stroke-width: 0.8; stroke-linecap: square"/>
    </g>
    <g id="text_11">
     <!-- −1 -->
     <g transform="translate(134.254282 222.995156) scale(0.08 -0.08)">
      <use xlink:href="#DejaVuSans-2212"/>
      <use xlink:href="#DejaVuSans-31" transform="translate(83.789062 0)"/>
     </g>
    </g>
   </g>
   <g id="xtick_11">
    <g id="line2d_13">
     <path d="M 152.427579 196.209337 
L 154.227893 197.39691 
" style="fill: none; stroke: #000000; stroke-width: 0.8; stroke-linecap: square"/>
    </g>
    <g id="text_12">
     <!-- 0 -->
     <g transform="translate(158.135891 218.00646) scale(0.08 -0.08)">
      <use xlink:href="#DejaVuSans-30"/>
     </g>
    </g>
   </g>
   <g id="xtick_12">
    <g id="line2d_14">
     <path d="M 172.484447 191.504678 
L 174.31539 192.669667 
" style="fill: none; stroke: #000000; stroke-width: 0.8; stroke-linecap: square"/>
    </g>
    <g id="text_13">
     <!-- 1 -->
     <g transform="translate(178.27074 213.113721) scale(0.08 -0.08)">
      <use xlink:href="#DejaVuSans-31"/>
     </g>
    </g>
   </g>
   <g id="xtick_13">
    <g id="line2d_15">
     <path d="M 192.162146 186.888959 
L 194.022242 188.032003 
" style="fill: none; stroke: #000000; stroke-width: 0.8; stroke-linecap: square"/>
    </g>
    <g id="text_14">
     <!-- 2 -->
     <g transform="translate(198.021988 208.314195) scale(0.08 -0.08)">
      <use xlink:href="#DejaVuSans-32"/>
     </g>
    </g>
   </g>
   <g id="xtick_14">
    <g id="line2d_16">
     <path d="M 211.471327 182.359681 
L 213.359167 183.481394 
" style="fill: none; stroke: #000000; stroke-width: 0.8; stroke-linecap: square"/>
    </g>
    <g id="text_15">
     <!-- 3 -->
     <g transform="translate(217.400495 203.605246) scale(0.08 -0.08)">
      <use xlink:href="#DejaVuSans-33"/>
     </g>
    </g>
   </g>
   <g id="text_16">
    <!-- Y -->
    <g transform="translate(167.057842 232.679741) scale(0.09 -0.09)">
     <defs>
      <path id="DejaVuSans-59" d="M -13 4666 
L 666 4666 
L 1959 2747 
L 3244 4666 
L 3922 4666 
L 2272 2222 
L 2272 0 
L 1638 0 
L 1638 2222 
L -13 4666 
z
" transform="scale(0.015625)"/>
     </defs>
     <use xlink:href="#DejaVuSans-59"/>
    </g>
   </g>
  </g>
  <g id="axis3d_3">
   <g id="line2d_17">
    <path d="M 212.099627 182.733003 
L 215.100663 83.67993 
" style="fill: none; stroke: #000000; stroke-width: 0.8; stroke-linecap: square"/>
   </g>
   <g id="xtick_15">
    <g id="line2d_18">
     <path d="M 211.471327 182.359681 
L 213.359167 183.481394 
" style="fill: none; stroke: #000000; stroke-width: 0.8; stroke-linecap: square"/>
    </g>
    <g id="text_17">
     <!-- −3 -->
     <g transform="translate(226.199733 190.852403) scale(0.08 -0.08)">
      <use xlink:href="#DejaVuSans-2212"/>
      <use xlink:href="#DejaVuSans-33" transform="translate(83.789062 0)"/>
     </g>
    </g>
   </g>
   <g id="xtick_16">
    <g id="line2d_19">
     <path d="M 211.955029 166.285989 
L 213.853731 167.375658 
" style="fill: none; stroke: #000000; stroke-width: 0.8; stroke-linecap: square"/>
    </g>
    <g id="text_18">
     <!-- −2 -->
     <g transform="translate(226.792404 174.709783) scale(0.08 -0.08)">
      <use xlink:href="#DejaVuSans-2212"/>
      <use xlink:href="#DejaVuSans-32" transform="translate(83.789062 0)"/>
     </g>
    </g>
   </g>
   <g id="xtick_17">
    <g id="line2d_20">
     <path d="M 212.443728 150.046254 
L 214.353416 151.103155 
" style="fill: none; stroke: #000000; stroke-width: 0.8; stroke-linecap: square"/>
    </g>
    <g id="text_19">
     <!-- −1 -->
     <g transform="translate(227.391229 158.39956) scale(0.08 -0.08)">
      <use xlink:href="#DejaVuSans-2212"/>
      <use xlink:href="#DejaVuSans-31" transform="translate(83.789062 0)"/>
     </g>
    </g>
   </g>
   <g id="xtick_18">
    <g id="line2d_21">
     <path d="M 212.937501 133.637891 
L 214.858301 134.661281 
" style="fill: none; stroke: #000000; stroke-width: 0.8; stroke-linecap: square"/>
    </g>
    <g id="text_20">
     <!-- 0 -->
     <g transform="translate(231.348178 141.91911) scale(0.08 -0.08)">
      <use xlink:href="#DejaVuSans-30"/>
     </g>
    </g>
   </g>
   <g id="xtick_19">
    <g id="line2d_22">
     <path d="M 213.436429 117.058258 
L 215.368469 118.047378 
" style="fill: none; stroke: #000000; stroke-width: 0.8; stroke-linecap: square"/>
    </g>
    <g id="text_21">
     <!-- 1 -->
     <g transform="translate(231.959601 125.265753) scale(0.08 -0.08)">
      <use xlink:href="#DejaVuSans-31"/>
     </g>
    </g>
   </g>
   <g id="xtick_20">
    <g id="line2d_23">
     <path d="M 213.940591 100.304662 
L 215.884003 101.258732 
" style="fill: none; stroke: #000000; stroke-width: 0.8; stroke-linecap: square"/>
    </g>
    <g id="text_22">
     <!-- 2 -->
     <g transform="translate(232.577472 108.436755) scale(0.08 -0.08)">
      <use xlink:href="#DejaVuSans-32"/>
     </g>
    </g>
   </g>
   <g id="xtick_21">
    <g id="line2d_24">
     <path d="M 214.450071 83.374348 
L 216.404988 84.292572 
" style="fill: none; stroke: #000000; stroke-width: 0.8; stroke-linecap: square"/>
    </g>
    <g id="text_23">
     <!-- 3 -->
     <g transform="translate(233.201895 91.429322) scale(0.08 -0.08)">
      <use xlink:href="#DejaVuSans-33"/>
     </g>
    </g>
   </g>
   <g id="text_24">
    <!-- Z -->
    <g transform="translate(254.88562 140.530122) scale(0.09 -0.09)">
     <defs>
      <path id="DejaVuSans-5a" d="M 359 4666 
L 4025 4666 
L 4025 4184 
L 1075 531 
L 4097 531 
L 4097 0 
L 288 0 
L 288 481 
L 3238 4134 
L 359 4134 
L 359 4666 
z
" transform="scale(0.015625)"/>
     </defs>
     <use xlink:href="#DejaVuSans-5a"/>
    </g>
   </g>
  </g>
  <g id="axes_1">
   <g id="Poly3DCollection_1">
    <path d="M 176.16983 171.717949 
L 192.91701 171.335114 
L 193.169508 160.847757 
L 176.366539 161.223267 
z
" clip-path="url(#p78363ccf96)" style="fill: #5e8b1a; fill-opacity: 0.6; stroke: #000000; stroke-opacity: 0.6; stroke-width: 0.1"/>
    <path d="M 159.395237 172.101411 
L 176.16983 171.717949 
L 176.366539 161.223267 
L 159.535974 161.599394 
z
" clip-path="url(#p78363ccf96)" style="fill: #5e8b1a; fill-opacity: 0.6; stroke: #000000; stroke-opacity: 0.6; stroke-width: 0.1"/>
    <path d="M 142.593163 172.485501 
L 159.395237 172.101411 
L 159.535974 161.599394 
L 142.677744 161.976139 
z
" clip-path="url(#p78363ccf96)" style="fill: #5e8b1a; fill-opacity: 0.6; stroke: #000000; stroke-opacity: 0.6; stroke-width: 0.1"/>
    <path d="M 125.763541 172.870221 
L 142.593163 172.485501 
L 142.677744 161.976139 
L 125.791781 162.353504 
z
" clip-path="url(#p78363ccf96)" style="fill: #5e8b1a; fill-opacity: 0.6; stroke: #000000; stroke-opacity: 0.6; stroke-width: 0.1"/>
    <path d="M 108.906303 173.255571 
L 125.763541 172.870221 
L 125.791781 162.353504 
L 108.878017 162.73149 
z
" clip-path="url(#p78363ccf96)" style="fill: #5e8b1a; fill-opacity: 0.6; stroke: #000000; stroke-opacity: 0.6; stroke-width: 0.1"/>
    <path d="M 176.366539 161.223267 
L 193.169508 160.847757 
L 193.423699 150.29009 
L 176.564568 150.658169 
z
" clip-path="url(#p78363ccf96)" style="fill: #5e8b1a; fill-opacity: 0.6; stroke: #000000; stroke-opacity: 0.6; stroke-width: 0.1"/>
    <path d="M 92.021382 173.641555 
L 108.906303 173.255571 
L 108.878017 162.73149 
L 91.936383 163.110099 
z
" clip-path="url(#p78363ccf96)" style="fill: #5e8b1a; fill-opacity: 0.6; stroke: #000000; stroke-opacity: 0.6; stroke-width: 0.1"/>
    <path d="M 159.535974 161.599394 
L 176.366539 161.223267 
L 176.564568 150.658169 
L 159.677656 151.026853 
z
" clip-path="url(#p78363ccf96)" style="fill: #5e8b1a; fill-opacity: 0.6; stroke: #000000; stroke-opacity: 0.6; stroke-width: 0.1"/>
    <path d="M 75.108708 174.028173 
L 92.021382 173.641555 
L 91.936383 163.110099 
L 74.96681 163.489332 
z
" clip-path="url(#p78363ccf96)" style="fill: #5e8b1a; fill-opacity: 0.6; stroke: #000000; stroke-opacity: 0.6; stroke-width: 0.1"/>
    <path d="M 142.677744 161.976139 
L 159.535974 161.599394 
L 159.677656 151.026853 
L 142.762893 151.396146 
z
" clip-path="url(#p78363ccf96)" style="fill: #5e8b1a; fill-opacity: 0.6; stroke: #000000; stroke-opacity: 0.6; stroke-width: 0.1"/>
    <path d="M 58.168214 174.415428 
L 75.108708 174.028173 
L 74.96681 163.489332 
L 57.969229 163.869192 
z
" clip-path="url(#p78363ccf96)" style="fill: #5e8b1a; fill-opacity: 0.6; stroke: #000000; stroke-opacity: 0.6; stroke-width: 0.1"/>
    <path d="M 125.791781 162.353504 
L 142.677744 161.976139 
L 142.762893 151.396146 
L 125.820211 151.766049 
z
" clip-path="url(#p78363ccf96)" style="fill: #5e8b1a; fill-opacity: 0.6; stroke: #000000; stroke-opacity: 0.6; stroke-width: 0.1"/>
    <path d="M 41.199831 174.803319 
L 58.168214 174.415428 
L 57.969229 163.869192 
L 40.943571 164.249678 
z
" clip-path="url(#p78363ccf96)" style="fill: #5e8b1a; fill-opacity: 0.6; stroke: #000000; stroke-opacity: 0.6; stroke-width: 0.1"/>
    <path d="M 108.878017 162.73149 
L 125.791781 162.353504 
L 125.820211 151.766049 
L 108.84954 152.136562 
z
" clip-path="url(#p78363ccf96)" style="fill: #5e8b1a; fill-opacity: 0.6; stroke: #000000; stroke-opacity: 0.6; stroke-width: 0.1"/>
    <path d="M 176.564568 150.658169 
L 193.423699 150.29009 
L 193.6796 139.661406 
L 176.76393 140.021944 
z
" clip-path="url(#p78363ccf96)" style="fill: #5e8b1a; fill-opacity: 0.6; stroke: #000000; stroke-opacity: 0.6; stroke-width: 0.1"/>
    <path d="M 91.936383 163.110099 
L 108.878017 162.73149 
L 108.84954 152.136562 
L 91.850812 152.507688 
z
" clip-path="url(#p78363ccf96)" style="fill: #5e8b1a; fill-opacity: 0.6; stroke: #000000; stroke-opacity: 0.6; stroke-width: 0.1"/>
    <path d="M 159.677656 151.026853 
L 176.564568 150.658169 
L 176.76393 140.021944 
L 159.820292 140.383077 
z
" clip-path="url(#p78363ccf96)" style="fill: #5e8b1a; fill-opacity: 0.6; stroke: #000000; stroke-opacity: 0.6; stroke-width: 0.1"/>
    <path d="M 74.96681 163.489332 
L 91.936383 163.110099 
L 91.850812 152.507688 
L 74.823956 152.879428 
z
" clip-path="url(#p78363ccf96)" style="fill: #5e8b1a; fill-opacity: 0.6; stroke: #000000; stroke-opacity: 0.6; stroke-width: 0.1"/>
    <path d="M 142.762893 151.396146 
L 159.677656 151.026853 
L 159.820292 140.383077 
L 142.848616 140.744809 
z
" clip-path="url(#p78363ccf96)" style="fill: #5e8b1a; fill-opacity: 0.6; stroke: #000000; stroke-opacity: 0.6; stroke-width: 0.1"/>
    <path d="M 57.969229 163.869192 
L 74.96681 163.489332 
L 74.823956 152.879428 
L 57.768902 153.251784 
z
" clip-path="url(#p78363ccf96)" style="fill: #5e8b1a; fill-opacity: 0.6; stroke: #000000; stroke-opacity: 0.6; stroke-width: 0.1"/>
    <path d="M 125.820211 151.766049 
L 142.762893 151.396146 
L 142.848616 140.744809 
L 125.848833 141.107139 
z
" clip-path="url(#p78363ccf96)" style="fill: #5e8b1a; fill-opacity: 0.6; stroke: #000000; stroke-opacity: 0.6; stroke-width: 0.1"/>
    <path d="M 40.943571 164.249678 
L 57.969229 163.869192 
L 57.768902 153.251784 
L 40.685581 153.624757 
z
" clip-path="url(#p78363ccf96)" style="fill: #5e8b1a; fill-opacity: 0.6; stroke: #000000; stroke-opacity: 0.6; stroke-width: 0.1"/>
    <path d="M 108.84954 152.136562 
L 125.820211 151.766049 
L 125.848833 141.107139 
L 108.820871 141.47007 
z
" clip-path="url(#p78363ccf96)" style="fill: #5e8b1a; fill-opacity: 0.6; stroke: #000000; stroke-opacity: 0.6; stroke-width: 0.1"/>
    <path d="M 176.76393 140.021944 
L 193.6796 139.661406 
L 193.937227 128.960985 
L 176.964639 129.313871 
z
" clip-path="url(#p78363ccf96)" style="fill: #5e8b1a; fill-opacity: 0.6; stroke: #000000; stroke-opacity: 0.6; stroke-width: 0.1"/>
    <path d="M 91.850812 152.507688 
L 108.84954 152.136562 
L 108.820871 141.47007 
L 91.764662 141.833604 
z
" clip-path="url(#p78363ccf96)" style="fill: #5e8b1a; fill-opacity: 0.6; stroke: #000000; stroke-opacity: 0.6; stroke-width: 0.1"/>
    <path d="M 159.820292 140.383077 
L 176.76393 140.021944 
L 176.964639 129.313871 
L 159.963893 129.667343 
z
" clip-path="url(#p78363ccf96)" style="fill: #5e8b1a; fill-opacity: 0.6; stroke: #000000; stroke-opacity: 0.6; stroke-width: 0.1"/>
    <path d="M 74.823956 152.879428 
L 91.850812 152.507688 
L 91.764662 141.833604 
L 74.680134 142.19774 
z
" clip-path="url(#p78363ccf96)" style="fill: #5e8b1a; fill-opacity: 0.6; stroke: #000000; stroke-opacity: 0.6; stroke-width: 0.1"/>
    <path d="M 142.848616 140.744809 
L 159.820292 140.383077 
L 159.963893 129.667343 
L 142.93492 130.021403 
z
" clip-path="url(#p78363ccf96)" style="fill: #5e8b1a; fill-opacity: 0.6; stroke: #000000; stroke-opacity: 0.6; stroke-width: 0.1"/>
    <path d="M 57.768902 153.251784 
L 74.823956 152.879428 
L 74.680134 142.19774 
L 57.567218 142.562482 
z
" clip-path="url(#p78363ccf96)" style="fill: #5e8b1a; fill-opacity: 0.6; stroke: #000000; stroke-opacity: 0.6; stroke-width: 0.1"/>
    <path d="M 125.848833 141.107139 
L 142.848616 140.744809 
L 142.93492 130.021403 
L 125.877648 130.37605 
z
" clip-path="url(#p78363ccf96)" style="fill: #5e8b1a; fill-opacity: 0.6; stroke: #000000; stroke-opacity: 0.6; stroke-width: 0.1"/>
    <path d="M 40.685581 153.624757 
L 57.768902 153.251784 
L 57.567218 142.562482 
L 40.425842 142.92783 
z
" clip-path="url(#p78363ccf96)" style="fill: #5e8b1a; fill-opacity: 0.6; stroke: #000000; stroke-opacity: 0.6; stroke-width: 0.1"/>
    <path d="M 108.820871 141.47007 
L 125.848833 141.107139 
L 125.877648 130.37605 
L 108.792008 130.731287 
z
" clip-path="url(#p78363ccf96)" style="fill: #5e8b1a; fill-opacity: 0.6; stroke: #000000; stroke-opacity: 0.6; stroke-width: 0.1"/>
    <path d="M 176.964639 129.313871 
L 193.937227 128.960985 
L 194.1966 118.188098 
L 177.166709 118.533221 
z
" clip-path="url(#p78363ccf96)" style="fill: #5e8b1a; fill-opacity: 0.6; stroke: #000000; stroke-opacity: 0.6; stroke-width: 0.1"/>
    <path d="M 91.764662 141.833604 
L 108.820871 141.47007 
L 108.792008 130.731287 
L 91.677927 131.087116 
z
" clip-path="url(#p78363ccf96)" style="fill: #5e8b1a; fill-opacity: 0.6; stroke: #000000; stroke-opacity: 0.6; stroke-width: 0.1"/>
    <path d="M 159.963893 129.667343 
L 176.964639 129.313871 
L 177.166709 118.533221 
L 160.108469 118.878919 
z
" clip-path="url(#p78363ccf96)" style="fill: #5e8b1a; fill-opacity: 0.6; stroke: #000000; stroke-opacity: 0.6; stroke-width: 0.1"/>
    <path d="M 74.680134 142.19774 
L 91.764662 141.833604 
L 91.677927 131.087116 
L 74.535337 131.443537 
z
" clip-path="url(#p78363ccf96)" style="fill: #5e8b1a; fill-opacity: 0.6; stroke: #000000; stroke-opacity: 0.6; stroke-width: 0.1"/>
    <path d="M 142.93492 130.021403 
L 159.963893 129.667343 
L 160.108469 118.878919 
L 143.021809 119.225193 
z
" clip-path="url(#p78363ccf96)" style="fill: #5e8b1a; fill-opacity: 0.6; stroke: #000000; stroke-opacity: 0.6; stroke-width: 0.1"/>
    <path d="M 57.567218 142.562482 
L 74.680134 142.19774 
L 74.535337 131.443537 
L 57.364164 131.800553 
z
" clip-path="url(#p78363ccf96)" style="fill: #5e8b1a; fill-opacity: 0.6; stroke: #000000; stroke-opacity: 0.6; stroke-width: 0.1"/>
    <path d="M 125.877648 130.37605 
L 142.93492 130.021403 
L 143.021809 119.225193 
L 125.906659 119.572045 
z
" clip-path="url(#p78363ccf96)" style="fill: #5e8b1a; fill-opacity: 0.6; stroke: #000000; stroke-opacity: 0.6; stroke-width: 0.1"/>
    <path d="M 40.425842 142.92783 
L 57.567218 142.562482 
L 57.364164 131.800553 
L 40.164338 132.158164 
z
" clip-path="url(#p78363ccf96)" style="fill: #5e8b1a; fill-opacity: 0.6; stroke: #000000; stroke-opacity: 0.6; stroke-width: 0.1"/>
    <path d="M 108.792008 130.731287 
L 125.877648 130.37605 
L 125.906659 119.572045 
L 108.762948 119.919475 
z
" clip-path="url(#p78363ccf96)" style="fill: #5e8b1a; fill-opacity: 0.6; stroke: #000000; stroke-opacity: 0.6; stroke-width: 0.1"/>
    <path d="M 177.166709 118.533221 
L 194.1966 118.188098 
L 194.457735 107.342006 
L 177.370152 107.679253 
z
" clip-path="url(#p78363ccf96)" style="fill: #5e8b1a; fill-opacity: 0.6; stroke: #000000; stroke-opacity: 0.6; stroke-width: 0.1"/>
    <path d="M 91.677927 131.087116 
L 108.792008 130.731287 
L 108.762948 119.919475 
L 91.590603 120.267486 
z
" clip-path="url(#p78363ccf96)" style="fill: #5e8b1a; fill-opacity: 0.6; stroke: #000000; stroke-opacity: 0.6; stroke-width: 0.1"/>
    <path d="M 160.108469 118.878919 
L 177.166709 118.533221 
L 177.370152 107.679253 
L 160.254028 108.017063 
z
" clip-path="url(#p78363ccf96)" style="fill: #5e8b1a; fill-opacity: 0.6; stroke: #000000; stroke-opacity: 0.6; stroke-width: 0.1"/>
    <path d="M 74.535337 131.443537 
L 91.677927 131.087116 
L 91.590603 120.267486 
L 74.389553 120.616078 
z
" clip-path="url(#p78363ccf96)" style="fill: #5e8b1a; fill-opacity: 0.6; stroke: #000000; stroke-opacity: 0.6; stroke-width: 0.1"/>
    <path d="M 143.021809 119.225193 
L 160.108469 118.878919 
L 160.254028 108.017063 
L 143.109291 108.355438 
z
" clip-path="url(#p78363ccf96)" style="fill: #5e8b1a; fill-opacity: 0.6; stroke: #000000; stroke-opacity: 0.6; stroke-width: 0.1"/>
    <path d="M 57.364164 131.800553 
L 74.535337 131.443537 
L 74.389553 120.616078 
L 57.159725 120.965253 
z
" clip-path="url(#p78363ccf96)" style="fill: #5e8b1a; fill-opacity: 0.6; stroke: #000000; stroke-opacity: 0.6; stroke-width: 0.1"/>
    <path d="M 125.906659 119.572045 
L 143.021809 119.225193 
L 143.109291 108.355438 
L 125.935869 108.694378 
z
" clip-path="url(#p78363ccf96)" style="fill: #5e8b1a; fill-opacity: 0.6; stroke: #000000; stroke-opacity: 0.6; stroke-width: 0.1"/>
    <path d="M 40.164338 132.158164 
L 57.364164 131.800553 
L 57.159725 120.965253 
L 39.901049 121.315014 
z
" clip-path="url(#p78363ccf96)" style="fill: #5e8b1a; fill-opacity: 0.6; stroke: #000000; stroke-opacity: 0.6; stroke-width: 0.1"/>
    <path d="M 108.762948 119.919475 
L 125.906659 119.572045 
L 125.935869 108.694378 
L 108.73369 109.033887 
z
" clip-path="url(#p78363ccf96)" style="fill: #5e8b1a; fill-opacity: 0.6; stroke: #000000; stroke-opacity: 0.6; stroke-width: 0.1"/>
    <path d="M 177.370152 107.679253 
L 194.457735 107.342006 
L 194.72065 96.421962 
L 177.574984 96.751216 
z
" clip-path="url(#p78363ccf96)" style="fill: #5e8b1a; fill-opacity: 0.6; stroke: #000000; stroke-opacity: 0.6; stroke-width: 0.1"/>
    <path d="M 91.590603 120.267486 
L 108.762948 119.919475 
L 108.73369 109.033887 
L 91.502682 109.373964 
z
" clip-path="url(#p78363ccf96)" style="fill: #5e8b1a; fill-opacity: 0.6; stroke: #000000; stroke-opacity: 0.6; stroke-width: 0.1"/>
    <path d="M 160.254028 108.017063 
L 177.370152 107.679253 
L 177.574984 96.751216 
L 160.400581 97.081022 
z
" clip-path="url(#p78363ccf96)" style="fill: #5e8b1a; fill-opacity: 0.6; stroke: #000000; stroke-opacity: 0.6; stroke-width: 0.1"/>
    <path d="M 74.389553 120.616078 
L 91.590603 120.267486 
L 91.502682 109.373964 
L 74.242772 109.714612 
z
" clip-path="url(#p78363ccf96)" style="fill: #5e8b1a; fill-opacity: 0.6; stroke: #000000; stroke-opacity: 0.6; stroke-width: 0.1"/>
    <path d="M 143.109291 108.355438 
L 160.254028 108.017063 
L 160.400581 97.081022 
L 143.19737 97.411381 
z
" clip-path="url(#p78363ccf96)" style="fill: #5e8b1a; fill-opacity: 0.6; stroke: #000000; stroke-opacity: 0.6; stroke-width: 0.1"/>
    <path d="M 57.159725 120.965253 
L 74.389553 120.616078 
L 74.242772 109.714612 
L 56.953888 110.055831 
z
" clip-path="url(#p78363ccf96)" style="fill: #5e8b1a; fill-opacity: 0.6; stroke: #000000; stroke-opacity: 0.6; stroke-width: 0.1"/>
    <path d="M 125.935869 108.694378 
L 143.109291 108.355438 
L 143.19737 97.411381 
L 125.965278 97.742294 
z
" clip-path="url(#p78363ccf96)" style="fill: #5e8b1a; fill-opacity: 0.6; stroke: #000000; stroke-opacity: 0.6; stroke-width: 0.1"/>
    <path d="M 39.901049 121.315014 
L 57.159725 120.965253 
L 56.953888 110.055831 
L 39.635957 110.397624 
z
" clip-path="url(#p78363ccf96)" style="fill: #5e8b1a; fill-opacity: 0.6; stroke: #000000; stroke-opacity: 0.6; stroke-width: 0.1"/>
    <path d="M 108.73369 109.033887 
L 125.935869 108.694378 
L 125.965278 97.742294 
L 108.704232 98.073764 
z
" clip-path="url(#p78363ccf96)" style="fill: #5e8b1a; fill-opacity: 0.6; stroke: #000000; stroke-opacity: 0.6; stroke-width: 0.1"/>
    <path d="M 177.574984 96.751216 
L 194.72065 96.421962 
L 194.985365 85.427206 
L 177.781218 85.748349 
z
" clip-path="url(#p78363ccf96)" style="fill: #5e8b1a; fill-opacity: 0.6; stroke: #000000; stroke-opacity: 0.6; stroke-width: 0.1"/>
    <path d="M 91.502682 109.373964 
L 108.73369 109.033887 
L 108.704232 98.073764 
L 91.414158 98.405791 
z
" clip-path="url(#p78363ccf96)" style="fill: #5e8b1a; fill-opacity: 0.6; stroke: #000000; stroke-opacity: 0.6; stroke-width: 0.1"/>
    <path d="M 160.400581 97.081022 
L 177.574984 96.751216 
L 177.781218 85.748349 
L 160.548139 86.070033 
z
" clip-path="url(#p78363ccf96)" style="fill: #5e8b1a; fill-opacity: 0.6; stroke: #000000; stroke-opacity: 0.6; stroke-width: 0.1"/>
    <path d="M 74.242772 109.714612 
L 91.502682 109.373964 
L 91.414158 98.405791 
L 74.094985 98.738377 
z
" clip-path="url(#p78363ccf96)" style="fill: #5e8b1a; fill-opacity: 0.6; stroke: #000000; stroke-opacity: 0.6; stroke-width: 0.1"/>
    <path d="M 143.19737 97.411381 
L 160.400581 97.081022 
L 160.548139 86.070033 
L 143.286053 86.392259 
z
" clip-path="url(#p78363ccf96)" style="fill: #5e8b1a; fill-opacity: 0.6; stroke: #000000; stroke-opacity: 0.6; stroke-width: 0.1"/>
    <path d="M 56.953888 110.055831 
L 74.242772 109.714612 
L 74.094985 98.738377 
L 56.746638 99.071523 
z
" clip-path="url(#p78363ccf96)" style="fill: #5e8b1a; fill-opacity: 0.6; stroke: #000000; stroke-opacity: 0.6; stroke-width: 0.1"/>
    <path d="M 125.965278 97.742294 
L 143.19737 97.411381 
L 143.286053 86.392259 
L 125.994889 86.715027 
z
" clip-path="url(#p78363ccf96)" style="fill: #5e8b1a; fill-opacity: 0.6; stroke: #000000; stroke-opacity: 0.6; stroke-width: 0.1"/>
    <path d="M 39.635957 110.397624 
L 56.953888 110.055831 
L 56.746638 99.071523 
L 39.369044 99.405231 
z
" clip-path="url(#p78363ccf96)" style="fill: #5e8b1a; fill-opacity: 0.6; stroke: #000000; stroke-opacity: 0.6; stroke-width: 0.1"/>
    <path d="M 108.704232 98.073764 
L 125.965278 97.742294 
L 125.994889 86.715027 
L 108.674571 87.038339 
z
" clip-path="url(#p78363ccf96)" style="fill: #5e8b1a; fill-opacity: 0.6; stroke: #000000; stroke-opacity: 0.6; stroke-width: 0.1"/>
    <path d="M 177.781218 85.748349 
L 194.985365 85.427206 
L 195.251896 74.356968 
L 177.98887 74.669882 
z
" clip-path="url(#p78363ccf96)" style="fill: #5e8b1a; fill-opacity: 0.6; stroke: #000000; stroke-opacity: 0.6; stroke-width: 0.1"/>
    <path d="M 91.414158 98.405791 
L 108.704232 98.073764 
L 108.674571 87.038339 
L 91.325026 87.362197 
z
" clip-path="url(#p78363ccf96)" style="fill: #5e8b1a; fill-opacity: 0.6; stroke: #000000; stroke-opacity: 0.6; stroke-width: 0.1"/>
    <path d="M 160.548139 86.070033 
L 177.781218 85.748349 
L 177.98887 74.669882 
L 160.696711 74.983325 
z
" clip-path="url(#p78363ccf96)" style="fill: #5e8b1a; fill-opacity: 0.6; stroke: #000000; stroke-opacity: 0.6; stroke-width: 0.1"/>
    <path d="M 74.094985 98.738377 
L 91.414158 98.405791 
L 91.325026 87.362197 
L 73.946181 87.686602 
z
" clip-path="url(#p78363ccf96)" style="fill: #5e8b1a; fill-opacity: 0.6; stroke: #000000; stroke-opacity: 0.6; stroke-width: 0.1"/>
    <path d="M 143.286053 86.392259 
L 160.548139 86.070033 
L 160.696711 74.983325 
L 143.375347 75.297296 
z
" clip-path="url(#p78363ccf96)" style="fill: #5e8b1a; fill-opacity: 0.6; stroke: #000000; stroke-opacity: 0.6; stroke-width: 0.1"/>
    <path d="M 56.746638 99.071523 
L 74.094985 98.738377 
L 73.946181 87.686602 
L 56.537961 88.011555 
z
" clip-path="url(#p78363ccf96)" style="fill: #5e8b1a; fill-opacity: 0.6; stroke: #000000; stroke-opacity: 0.6; stroke-width: 0.1"/>
    <path d="M 125.994889 86.715027 
L 143.286053 86.392259 
L 143.375347 75.297296 
L 126.024703 75.611799 
z
" clip-path="url(#p78363ccf96)" style="fill: #5e8b1a; fill-opacity: 0.6; stroke: #000000; stroke-opacity: 0.6; stroke-width: 0.1"/>
    <path d="M 39.369044 99.405231 
L 56.746638 99.071523 
L 56.537961 88.011555 
L 39.100291 88.337058 
z
" clip-path="url(#p78363ccf96)" style="fill: #5e8b1a; fill-opacity: 0.6; stroke: #000000; stroke-opacity: 0.6; stroke-width: 0.1"/>
    <path d="M 108.674571 87.038339 
L 125.994889 86.715027 
L 126.024703 75.611799 
L 108.644706 75.926833 
z
" clip-path="url(#p78363ccf96)" style="fill: #5e8b1a; fill-opacity: 0.6; stroke: #000000; stroke-opacity: 0.6; stroke-width: 0.1"/>
    <path d="M 91.325026 87.362197 
L 108.674571 87.038339 
L 108.644706 75.926833 
L 91.235279 76.242401 
z
" clip-path="url(#p78363ccf96)" style="fill: #5e8b1a; fill-opacity: 0.6; stroke: #000000; stroke-opacity: 0.6; stroke-width: 0.1"/>
    <path d="M 73.946181 87.686602 
L 91.325026 87.362197 
L 91.235279 76.242401 
L 73.796349 76.558504 
z
" clip-path="url(#p78363ccf96)" style="fill: #5e8b1a; fill-opacity: 0.6; stroke: #000000; stroke-opacity: 0.6; stroke-width: 0.1"/>
    <path d="M 56.537961 88.011555 
L 73.946181 87.686602 
L 73.796349 76.558504 
L 56.327841 76.875143 
z
" clip-path="url(#p78363ccf96)" style="fill: #5e8b1a; fill-opacity: 0.6; stroke: #000000; stroke-opacity: 0.6; stroke-width: 0.1"/>
    <path d="M 39.100291 88.337058 
L 56.537961 88.011555 
L 56.327841 76.875143 
L 38.829679 77.192319 
z
" clip-path="url(#p78363ccf96)" style="fill: #5e8b1a; fill-opacity: 0.6; stroke: #000000; stroke-opacity: 0.6; stroke-width: 0.1"/>
   </g>
   <g id="text_25">
    <!-- 3 Planos: Interseção Reta -->
    <g transform="translate(50.866562 14.817188) scale(0.1 -0.1)">
     <defs>
      <path id="DejaVuSans-20" transform="scale(0.015625)"/>
      <path id="DejaVuSans-50" d="M 1259 4147 
L 1259 2394 
L 2053 2394 
Q 2494 2394 2734 2622 
Q 2975 2850 2975 3272 
Q 2975 3691 2734 3919 
Q 2494 4147 2053 4147 
L 1259 4147 
z
M 628 4666 
L 2053 4666 
Q 2838 4666 3239 4311 
Q 3641 3956 3641 3272 
Q 3641 2581 3239 2228 
Q 2838 1875 2053 1875 
L 1259 1875 
L 1259 0 
L 628 0 
L 628 4666 
z
" transform="scale(0.015625)"/>
      <path id="DejaVuSans-6c" d="M 603 4863 
L 1178 4863 
L 1178 0 
L 603 0 
L 603 4863 
z
" transform="scale(0.015625)"/>
      <path id="DejaVuSans-61" d="M 2194 1759 
Q 1497 1759 1228 1600 
Q 959 1441 959 1056 
Q 959 750 1161 570 
Q 1363 391 1709 391 
Q 2188 391 2477 730 
Q 2766 1069 2766 1631 
L 2766 1759 
L 2194 1759 
z
M 3341 1997 
L 3341 0 
L 2766 0 
L 2766 531 
Q 2569 213 2275 61 
Q 1981 -91 1556 -91 
Q 1019 -91 701 211 
Q 384 513 384 1019 
Q 384 1609 779 1909 
Q 1175 2209 1959 2209 
L 2766 2209 
L 2766 2266 
Q 2766 2663 2505 2880 
Q 2244 3097 1772 3097 
Q 1472 3097 1187 3025 
Q 903 2953 641 2809 
L 641 3341 
Q 956 3463 1253 3523 
Q 1550 3584 1831 3584 
Q 2591 3584 2966 3190 
Q 3341 2797 3341 1997 
z
" transform="scale(0.015625)"/>
      <path id="DejaVuSans-6e" d="M 3513 2113 
L 3513 0 
L 2938 0 
L 2938 2094 
Q 2938 2591 2744 2837 
Q 2550 3084 2163 3084 
Q 1697 3084 1428 2787 
Q 1159 2491 1159 1978 
L 1159 0 
L 581 0 
L 581 3500 
L 1159 3500 
L 1159 2956 
Q 1366 3272 1645 3428 
Q 1925 3584 2291 3584 
Q 2894 3584 3203 3211 
Q 3513 2838 3513 2113 
z
" transform="scale(0.015625)"/>
      <path id="DejaVuSans-6f" d="M 1959 3097 
Q 1497 3097 1228 2736 
Q 959 2375 959 1747 
Q 959 1119 1226 758 
Q 1494 397 1959 397 
Q 2419 397 2687 759 
Q 2956 1122 2956 1747 
Q 2956 2369 2687 2733 
Q 2419 3097 1959 3097 
z
M 1959 3584 
Q 2709 3584 3137 3096 
Q 3566 2609 3566 1747 
Q 3566 888 3137 398 
Q 2709 -91 1959 -91 
Q 1206 -91 779 398 
Q 353 888 353 1747 
Q 353 2609 779 3096 
Q 1206 3584 1959 3584 
z
" transform="scale(0.015625)"/>
      <path id="DejaVuSans-73" d="M 2834 3397 
L 2834 2853 
Q 2591 2978 2328 3040 
Q 2066 3103 1784 3103 
Q 1356 3103 1142 2972 
Q 928 2841 928 2578 
Q 928 2378 1081 2264 
Q 1234 2150 1697 2047 
L 1894 2003 
Q 2506 1872 2764 1633 
Q 3022 1394 3022 966 
Q 3022 478 2636 193 
Q 2250 -91 1575 -91 
Q 1294 -91 989 -36 
Q 684 19 347 128 
L 347 722 
Q 666 556 975 473 
Q 1284 391 1588 391 
Q 1994 391 2212 530 
Q 2431 669 2431 922 
Q 2431 1156 2273 1281 
Q 2116 1406 1581 1522 
L 1381 1569 
Q 847 1681 609 1914 
Q 372 2147 372 2553 
Q 372 3047 722 3315 
Q 1072 3584 1716 3584 
Q 2034 3584 2315 3537 
Q 2597 3491 2834 3397 
z
" transform="scale(0.015625)"/>
      <path id="DejaVuSans-3a" d="M 750 794 
L 1409 794 
L 1409 0 
L 750 0 
L 750 794 
z
M 750 3309 
L 1409 3309 
L 1409 2516 
L 750 2516 
L 750 3309 
z
" transform="scale(0.015625)"/>
      <path id="DejaVuSans-49" d="M 628 4666 
L 1259 4666 
L 1259 0 
L 628 0 
L 628 4666 
z
" transform="scale(0.015625)"/>
      <path id="DejaVuSans-74" d="M 1172 4494 
L 1172 3500 
L 2356 3500 
L 2356 3053 
L 1172 3053 
L 1172 1153 
Q 1172 725 1289 603 
Q 1406 481 1766 481 
L 2356 481 
L 2356 0 
L 1766 0 
Q 1100 0 847 248 
Q 594 497 594 1153 
L 594 3053 
L 172 3053 
L 172 3500 
L 594 3500 
L 594 4494 
L 1172 4494 
z
" transform="scale(0.015625)"/>
      <path id="DejaVuSans-65" d="M 3597 1894 
L 3597 1613 
L 953 1613 
Q 991 1019 1311 708 
Q 1631 397 2203 397 
Q 2534 397 2845 478 
Q 3156 559 3463 722 
L 3463 178 
Q 3153 47 2828 -22 
Q 2503 -91 2169 -91 
Q 1331 -91 842 396 
Q 353 884 353 1716 
Q 353 2575 817 3079 
Q 1281 3584 2069 3584 
Q 2775 3584 3186 3129 
Q 3597 2675 3597 1894 
z
M 3022 2063 
Q 3016 2534 2758 2815 
Q 2500 3097 2075 3097 
Q 1594 3097 1305 2825 
Q 1016 2553 972 2059 
L 3022 2063 
z
" transform="scale(0.015625)"/>
      <path id="DejaVuSans-72" d="M 2631 2963 
Q 2534 3019 2420 3045 
Q 2306 3072 2169 3072 
Q 1681 3072 1420 2755 
Q 1159 2438 1159 1844 
L 1159 0 
L 581 0 
L 581 3500 
L 1159 3500 
L 1159 2956 
Q 1341 3275 1631 3429 
Q 1922 3584 2338 3584 
Q 2397 3584 2469 3576 
Q 2541 3569 2628 3553 
L 2631 2963 
z
" transform="scale(0.015625)"/>
      <path id="DejaVuSans-e7" d="M 3122 3366 
L 3122 2828 
Q 2878 2963 2633 3030 
Q 2388 3097 2138 3097 
Q 1578 3097 1268 2742 
Q 959 2388 959 1747 
Q 959 1106 1268 751 
Q 1578 397 2138 397 
Q 2388 397 2633 464 
Q 2878 531 3122 666 
L 3122 134 
Q 2881 22 2623 -34 
Q 2366 -91 2075 -91 
Q 1284 -91 818 406 
Q 353 903 353 1747 
Q 353 2603 823 3093 
Q 1294 3584 2113 3584 
Q 2378 3584 2631 3529 
Q 2884 3475 3122 3366 
z
M 2309 0 
Q 2481 -194 2565 -358 
Q 2650 -522 2650 -672 
Q 2650 -950 2462 -1092 
Q 2275 -1234 1906 -1234 
Q 1763 -1234 1627 -1215 
Q 1491 -1197 1356 -1159 
L 1356 -750 
Q 1463 -803 1578 -826 
Q 1694 -850 1841 -850 
Q 2025 -850 2119 -775 
Q 2213 -700 2213 -556 
Q 2213 -463 2145 -327 
Q 2078 -191 1938 0 
L 2309 0 
z
" transform="scale(0.015625)"/>
      <path id="DejaVuSans-e3" d="M 2194 1759 
Q 1497 1759 1228 1600 
Q 959 1441 959 1056 
Q 959 750 1161 570 
Q 1363 391 1709 391 
Q 2188 391 2477 730 
Q 2766 1069 2766 1631 
L 2766 1759 
L 2194 1759 
z
M 3341 1997 
L 3341 0 
L 2766 0 
L 2766 531 
Q 2569 213 2275 61 
Q 1981 -91 1556 -91 
Q 1019 -91 701 211 
Q 384 513 384 1019 
Q 384 1609 779 1909 
Q 1175 2209 1959 2209 
L 2766 2209 
L 2766 2266 
Q 2766 2663 2505 2880 
Q 2244 3097 1772 3097 
Q 1472 3097 1187 3025 
Q 903 2953 641 2809 
L 641 3341 
Q 956 3463 1253 3523 
Q 1550 3584 1831 3584 
Q 2591 3584 2966 3190 
Q 3341 2797 3341 1997 
z
M 1844 4281 
L 1666 4453 
Q 1597 4516 1545 4545 
Q 1494 4575 1453 4575 
Q 1334 4575 1278 4461 
Q 1222 4347 1216 4091 
L 825 4091 
Q 831 4513 990 4742 
Q 1150 4972 1434 4972 
Q 1553 4972 1653 4928 
Q 1753 4884 1869 4781 
L 2047 4609 
Q 2116 4547 2167 4517 
Q 2219 4488 2259 4488 
Q 2378 4488 2434 4602 
Q 2491 4716 2497 4972 
L 2888 4972 
Q 2881 4550 2722 4320 
Q 2563 4091 2278 4091 
Q 2159 4091 2059 4134 
Q 1959 4178 1844 4281 
z
" transform="scale(0.015625)"/>
      <path id="DejaVuSans-52" d="M 2841 2188 
Q 3044 2119 3236 1894 
Q 3428 1669 3622 1275 
L 4263 0 
L 3584 0 
L 2988 1197 
Q 2756 1666 2539 1819 
Q 2322 1972 1947 1972 
L 1259 1972 
L 1259 0 
L 628 0 
L 628 4666 
L 2053 4666 
Q 2853 4666 3247 4331 
Q 3641 3997 3641 3322 
Q 3641 2881 3436 2590 
Q 3231 2300 2841 2188 
z
M 1259 4147 
L 1259 2491 
L 2053 2491 
Q 2509 2491 2742 2702 
Q 2975 2913 2975 3322 
Q 2975 3731 2742 3939 
Q 2509 4147 2053 4147 
L 1259 4147 
z
" transform="scale(0.015625)"/>
     </defs>
     <use xlink:href="#DejaVuSans-33"/>
     <use xlink:href="#DejaVuSans-20" transform="translate(63.623047 0)"/>
     <use xlink:href="#DejaVuSans-50" transform="translate(95.410156 0)"/>
     <use xlink:href="#DejaVuSans-6c" transform="translate(155.712891 0)"/>
     <use xlink:href="#DejaVuSans-61" transform="translate(183.496094 0)"/>
     <use xlink:href="#DejaVuSans-6e" transform="translate(244.775391 0)"/>
     <use xlink:href="#DejaVuSans-6f" transform="translate(308.154297 0)"/>
     <use xlink:href="#DejaVuSans-73" transform="translate(369.335938 0)"/>
     <use xlink:href="#DejaVuSans-3a" transform="translate(421.435547 0)"/>
     <use xlink:href="#DejaVuSans-20" transform="translate(455.126953 0)"/>
     <use xlink:href="#DejaVuSans-49" transform="translate(486.914062 0)"/>
     <use xlink:href="#DejaVuSans-6e" transform="translate(516.40625 0)"/>
     <use xlink:href="#DejaVuSans-74" transform="translate(579.785156 0)"/>
     <use xlink:href="#DejaVuSans-65" transform="translate(618.994141 0)"/>
     <use xlink:href="#DejaVuSans-72" transform="translate(680.517578 0)"/>
     <use xlink:href="#DejaVuSans-73" transform="translate(721.630859 0)"/>
     <use xlink:href="#DejaVuSans-65" transform="translate(773.730469 0)"/>
     <use xlink:href="#DejaVuSans-e7" transform="translate(835.253906 0)"/>
     <use xlink:href="#DejaVuSans-e3" transform="translate(890.234375 0)"/>
     <use xlink:href="#DejaVuSans-6f" transform="translate(951.513672 0)"/>
     <use xlink:href="#DejaVuSans-20" transform="translate(1012.695312 0)"/>
     <use xlink:href="#DejaVuSans-52" transform="translate(1044.482422 0)"/>
     <use xlink:href="#DejaVuSans-65" transform="translate(1109.464844 0)"/>
     <use xlink:href="#DejaVuSans-74" transform="translate(1170.988281 0)"/>
     <use xlink:href="#DejaVuSans-61" transform="translate(1210.197266 0)"/>
    </g>
   </g>
   <g id="Poly3DCollection_2">
    <path d="M 162.161742 163.206937 
L 174.625096 160.466461 
L 174.812026 150.187912 
L 162.308882 152.875581 
z
" clip-path="url(#p78363ccf96)" style="fill: #6a5a00; fill-opacity: 0.6; stroke: #000000; stroke-opacity: 0.6; stroke-width: 0.1"/>
    <path d="M 162.308882 152.875581 
L 174.812026 150.187912 
L 175.000179 139.842064 
L 162.456992 142.476174 
z
" clip-path="url(#p78363ccf96)" style="fill: #6a5a00; fill-opacity: 0.6; stroke: #000000; stroke-opacity: 0.6; stroke-width: 0.1"/>
    <path d="M 149.548101 165.980458 
L 162.161742 163.206937 
L 162.308882 152.875581 
L 149.654474 155.595767 
z
" clip-path="url(#p78363ccf96)" style="fill: #6a5a00; fill-opacity: 0.6; stroke: #000000; stroke-opacity: 0.6; stroke-width: 0.1"/>
    <path d="M 162.456992 142.476174 
L 175.000179 139.842064 
L 175.189568 129.428254 
L 162.60608 132.008039 
z
" clip-path="url(#p78363ccf96)" style="fill: #6a5a00; fill-opacity: 0.6; stroke: #000000; stroke-opacity: 0.6; stroke-width: 0.1"/>
    <path d="M 149.654474 155.595767 
L 162.308882 152.875581 
L 162.456992 142.476174 
L 149.761552 145.142257 
z
" clip-path="url(#p78363ccf96)" style="fill: #6a5a00; fill-opacity: 0.6; stroke: #000000; stroke-opacity: 0.6; stroke-width: 0.1"/>
    <path d="M 162.60608 132.008039 
L 175.189568 129.428254 
L 175.380206 118.945811 
L 162.756157 121.470494 
z
" clip-path="url(#p78363ccf96)" style="fill: #6a5a00; fill-opacity: 0.6; stroke: #000000; stroke-opacity: 0.6; stroke-width: 0.1"/>
    <path d="M 136.781437 168.787626 
L 149.548101 165.980458 
L 149.654474 155.595767 
L 136.846039 158.349062 
z
" clip-path="url(#p78363ccf96)" style="fill: #6a5a00; fill-opacity: 0.6; stroke: #000000; stroke-opacity: 0.6; stroke-width: 0.1"/>
    <path d="M 149.761552 145.142257 
L 162.456992 142.476174 
L 162.60608 132.008039 
L 149.869343 134.619243 
z
" clip-path="url(#p78363ccf96)" style="fill: #6a5a00; fill-opacity: 0.6; stroke: #000000; stroke-opacity: 0.6; stroke-width: 0.1"/>
    <path d="M 162.756157 121.470494 
L 175.380206 118.945811 
L 175.572104 108.394054 
L 162.907232 110.862847 
z
" clip-path="url(#p78363ccf96)" style="fill: #6a5a00; fill-opacity: 0.6; stroke: #000000; stroke-opacity: 0.6; stroke-width: 0.1"/>
    <path d="M 136.846039 158.349062 
L 149.654474 155.595767 
L 149.761552 145.142257 
L 136.911072 147.8409 
z
" clip-path="url(#p78363ccf96)" style="fill: #6a5a00; fill-opacity: 0.6; stroke: #000000; stroke-opacity: 0.6; stroke-width: 0.1"/>
    <path d="M 149.869343 134.619243 
L 162.60608 132.008039 
L 162.756157 121.470494 
L 149.977852 124.026027 
z
" clip-path="url(#p78363ccf96)" style="fill: #6a5a00; fill-opacity: 0.6; stroke: #000000; stroke-opacity: 0.6; stroke-width: 0.1"/>
    <path d="M 162.907232 110.862847 
L 175.572104 108.394054 
L 175.765275 97.772293 
L 163.059316 100.184394 
z
" clip-path="url(#p78363ccf96)" style="fill: #6a5a00; fill-opacity: 0.6; stroke: #000000; stroke-opacity: 0.6; stroke-width: 0.1"/>
    <path d="M 123.85895 171.629056 
L 136.781437 168.787626 
L 136.846039 158.349062 
L 123.880748 161.136074 
z
" clip-path="url(#p78363ccf96)" style="fill: #6a5a00; fill-opacity: 0.6; stroke: #000000; stroke-opacity: 0.6; stroke-width: 0.1"/>
    <path d="M 136.911072 147.8409 
L 149.761552 145.142257 
L 149.869343 134.619243 
L 136.97654 137.262441 
z
" clip-path="url(#p78363ccf96)" style="fill: #6a5a00; fill-opacity: 0.6; stroke: #000000; stroke-opacity: 0.6; stroke-width: 0.1"/>
    <path d="M 149.977852 124.026027 
L 162.756157 121.470494 
L 162.907232 110.862847 
L 150.087088 113.361907 
z
" clip-path="url(#p78363ccf96)" style="fill: #6a5a00; fill-opacity: 0.6; stroke: #000000; stroke-opacity: 0.6; stroke-width: 0.1"/>
    <path d="M 163.059316 100.184394 
L 175.765275 97.772293 
L 175.959732 87.079829 
L 163.212418 89.434425 
z
" clip-path="url(#p78363ccf96)" style="fill: #6a5a00; fill-opacity: 0.6; stroke: #000000; stroke-opacity: 0.6; stroke-width: 0.1"/>
    <path d="M 123.880748 161.136074 
L 136.846039 158.349062 
L 136.911072 147.8409 
L 123.902692 150.572702 
z
" clip-path="url(#p78363ccf96)" style="fill: #6a5a00; fill-opacity: 0.6; stroke: #000000; stroke-opacity: 0.6; stroke-width: 0.1"/>
    <path d="M 136.97654 137.262441 
L 149.869343 134.619243 
L 149.977852 124.026027 
L 137.042447 126.612979 
z
" clip-path="url(#p78363ccf96)" style="fill: #6a5a00; fill-opacity: 0.6; stroke: #000000; stroke-opacity: 0.6; stroke-width: 0.1"/>
    <path d="M 150.087088 113.361907 
L 162.907232 110.862847 
L 163.059316 100.184394 
L 150.197057 102.626166 
z
" clip-path="url(#p78363ccf96)" style="fill: #6a5a00; fill-opacity: 0.6; stroke: #000000; stroke-opacity: 0.6; stroke-width: 0.1"/>
    <path d="M 163.212418 89.434425 
L 175.959732 87.079829 
L 176.155487 76.315954 
L 163.366549 78.612219 
z
" clip-path="url(#p78363ccf96)" style="fill: #6a5a00; fill-opacity: 0.6; stroke: #000000; stroke-opacity: 0.6; stroke-width: 0.1"/>
    <path d="M 110.777769 174.505381 
L 123.85895 171.629056 
L 123.880748 161.136074 
L 110.755702 163.957428 
z
" clip-path="url(#p78363ccf96)" style="fill: #6a5a00; fill-opacity: 0.6; stroke: #000000; stroke-opacity: 0.6; stroke-width: 0.1"/>
    <path d="M 123.902692 150.572702 
L 136.911072 147.8409 
L 136.97654 137.262441 
L 123.924784 139.938227 
z
" clip-path="url(#p78363ccf96)" style="fill: #6a5a00; fill-opacity: 0.6; stroke: #000000; stroke-opacity: 0.6; stroke-width: 0.1"/>
    <path d="M 137.042447 126.612979 
L 149.977852 124.026027 
L 150.087088 113.361907 
L 137.108798 115.891794 
z
" clip-path="url(#p78363ccf96)" style="fill: #6a5a00; fill-opacity: 0.6; stroke: #000000; stroke-opacity: 0.6; stroke-width: 0.1"/>
    <path d="M 150.197057 102.626166 
L 163.059316 100.184394 
L 163.212418 89.434425 
L 150.307767 91.818082 
z
" clip-path="url(#p78363ccf96)" style="fill: #6a5a00; fill-opacity: 0.6; stroke: #000000; stroke-opacity: 0.6; stroke-width: 0.1"/>
    <path d="M 163.366549 78.612219 
L 176.155487 76.315954 
L 176.352555 65.47995 
L 163.521719 67.717045 
z
" clip-path="url(#p78363ccf96)" style="fill: #6a5a00; fill-opacity: 0.6; stroke: #000000; stroke-opacity: 0.6; stroke-width: 0.1"/>
    <path d="M 110.755702 163.957428 
L 123.880748 161.136074 
L 123.902692 150.572702 
L 110.733486 153.338278 
z
" clip-path="url(#p78363ccf96)" style="fill: #6a5a00; fill-opacity: 0.6; stroke: #000000; stroke-opacity: 0.6; stroke-width: 0.1"/>
    <path d="M 123.924784 139.938227 
L 136.97654 137.262441 
L 137.042447 126.612979 
L 123.947026 129.231932 
z
" clip-path="url(#p78363ccf96)" style="fill: #6a5a00; fill-opacity: 0.6; stroke: #000000; stroke-opacity: 0.6; stroke-width: 0.1"/>
    <path d="M 137.108798 115.891794 
L 150.087088 113.361907 
L 150.197057 102.626166 
L 137.175597 105.098162 
z
" clip-path="url(#p78363ccf96)" style="fill: #6a5a00; fill-opacity: 0.6; stroke: #000000; stroke-opacity: 0.6; stroke-width: 0.1"/>
    <path d="M 150.307767 91.818082 
L 163.212418 89.434425 
L 163.366549 78.612219 
L 150.419226 80.936921 
z
" clip-path="url(#p78363ccf96)" style="fill: #6a5a00; fill-opacity: 0.6; stroke: #000000; stroke-opacity: 0.6; stroke-width: 0.1"/>
    <path d="M 97.534953 177.417247 
L 110.777769 174.505381 
L 110.755702 163.957428 
L 97.46793 166.813761 
z
" clip-path="url(#p78363ccf96)" style="fill: #6a5a00; fill-opacity: 0.6; stroke: #000000; stroke-opacity: 0.6; stroke-width: 0.1"/>
    <path d="M 110.733486 153.338278 
L 123.902692 150.572702 
L 123.924784 139.938227 
L 110.71112 142.647207 
z
" clip-path="url(#p78363ccf96)" style="fill: #6a5a00; fill-opacity: 0.6; stroke: #000000; stroke-opacity: 0.6; stroke-width: 0.1"/>
    <path d="M 123.947026 129.231932 
L 137.042447 126.612979 
L 137.108798 115.891794 
L 123.969418 118.453084 
z
" clip-path="url(#p78363ccf96)" style="fill: #6a5a00; fill-opacity: 0.6; stroke: #000000; stroke-opacity: 0.6; stroke-width: 0.1"/>
    <path d="M 137.175597 105.098162 
L 150.197057 102.626166 
L 150.307767 91.818082 
L 137.24285 94.231344 
z
" clip-path="url(#p78363ccf96)" style="fill: #6a5a00; fill-opacity: 0.6; stroke: #000000; stroke-opacity: 0.6; stroke-width: 0.1"/>
    <path d="M 150.419226 80.936921 
L 163.366549 78.612219 
L 163.521719 67.717045 
L 150.531441 69.981939 
z
" clip-path="url(#p78363ccf96)" style="fill: #6a5a00; fill-opacity: 0.6; stroke: #000000; stroke-opacity: 0.6; stroke-width: 0.1"/>
    <path d="M 97.46793 166.813761 
L 110.755702 163.957428 
L 110.733486 153.338278 
L 97.400451 156.138258 
z
" clip-path="url(#p78363ccf96)" style="fill: #6a5a00; fill-opacity: 0.6; stroke: #000000; stroke-opacity: 0.6; stroke-width: 0.1"/>
    <path d="M 110.71112 142.647207 
L 123.924784 139.938227 
L 123.947026 129.231932 
L 110.688601 131.883484 
z
" clip-path="url(#p78363ccf96)" style="fill: #6a5a00; fill-opacity: 0.6; stroke: #000000; stroke-opacity: 0.6; stroke-width: 0.1"/>
    <path d="M 123.969418 118.453084 
L 137.108798 115.891794 
L 137.175597 105.098162 
L 123.991962 107.600944 
z
" clip-path="url(#p78363ccf96)" style="fill: #6a5a00; fill-opacity: 0.6; stroke: #000000; stroke-opacity: 0.6; stroke-width: 0.1"/>
    <path d="M 137.24285 94.231344 
L 150.307767 91.818082 
L 150.419226 80.936921 
L 137.310559 83.290593 
z
" clip-path="url(#p78363ccf96)" style="fill: #6a5a00; fill-opacity: 0.6; stroke: #000000; stroke-opacity: 0.6; stroke-width: 0.1"/>
    <path d="M 84.127487 180.365316 
L 97.534953 177.417247 
L 97.46793 166.813761 
L 84.014386 169.705728 
z
" clip-path="url(#p78363ccf96)" style="fill: #6a5a00; fill-opacity: 0.6; stroke: #000000; stroke-opacity: 0.6; stroke-width: 0.1"/>
    <path d="M 97.400451 156.138258 
L 110.733486 153.338278 
L 110.71112 142.647207 
L 97.332513 145.390002 
z
" clip-path="url(#p78363ccf96)" style="fill: #6a5a00; fill-opacity: 0.6; stroke: #000000; stroke-opacity: 0.6; stroke-width: 0.1"/>
    <path d="M 110.688601 131.883484 
L 123.947026 129.231932 
L 123.969418 118.453084 
L 110.665929 121.046363 
z
" clip-path="url(#p78363ccf96)" style="fill: #6a5a00; fill-opacity: 0.6; stroke: #000000; stroke-opacity: 0.6; stroke-width: 0.1"/>
    <path d="M 123.991962 107.600944 
L 137.175597 105.098162 
L 137.24285 94.231344 
L 124.01466 96.674763 
z
" clip-path="url(#p78363ccf96)" style="fill: #6a5a00; fill-opacity: 0.6; stroke: #000000; stroke-opacity: 0.6; stroke-width: 0.1"/>
    <path d="M 137.310559 83.290593 
L 150.419226 80.936921 
L 150.531441 69.981939 
L 137.378732 72.275154 
z
" clip-path="url(#p78363ccf96)" style="fill: #6a5a00; fill-opacity: 0.6; stroke: #000000; stroke-opacity: 0.6; stroke-width: 0.1"/>
    <path d="M 84.014386 169.705728 
L 97.46793 166.813761 
L 97.400451 156.138258 
L 83.900512 158.973289 
z
" clip-path="url(#p78363ccf96)" style="fill: #6a5a00; fill-opacity: 0.6; stroke: #000000; stroke-opacity: 0.6; stroke-width: 0.1"/>
    <path d="M 97.332513 145.390002 
L 110.71112 142.647207 
L 110.688601 131.883484 
L 97.264111 134.568247 
z
" clip-path="url(#p78363ccf96)" style="fill: #6a5a00; fill-opacity: 0.6; stroke: #000000; stroke-opacity: 0.6; stroke-width: 0.1"/>
    <path d="M 110.665929 121.046363 
L 123.969418 118.453084 
L 123.991962 107.600944 
L 110.643102 110.135093 
z
" clip-path="url(#p78363ccf96)" style="fill: #6a5a00; fill-opacity: 0.6; stroke: #000000; stroke-opacity: 0.6; stroke-width: 0.1"/>
    <path d="M 124.01466 96.674763 
L 137.24285 94.231344 
L 137.310559 83.290593 
L 124.037513 85.67378 
z
" clip-path="url(#p78363ccf96)" style="fill: #6a5a00; fill-opacity: 0.6; stroke: #000000; stroke-opacity: 0.6; stroke-width: 0.1"/>
    <path d="M 70.552281 183.350268 
L 84.127487 180.365316 
L 84.014386 169.705728 
L 70.39195 172.634 
z
" clip-path="url(#p78363ccf96)" style="fill: #6a5a00; fill-opacity: 0.6; stroke: #000000; stroke-opacity: 0.6; stroke-width: 0.1"/>
    <path d="M 83.900512 158.973289 
L 97.400451 156.138258 
L 97.332513 145.390002 
L 83.785858 148.16725 
z
" clip-path="url(#p78363ccf96)" style="fill: #6a5a00; fill-opacity: 0.6; stroke: #000000; stroke-opacity: 0.6; stroke-width: 0.1"/>
    <path d="M 97.264111 134.568247 
L 110.688601 131.883484 
L 110.665929 121.046363 
L 97.195239 123.672236 
z
" clip-path="url(#p78363ccf96)" style="fill: #6a5a00; fill-opacity: 0.6; stroke: #000000; stroke-opacity: 0.6; stroke-width: 0.1"/>
    <path d="M 110.643102 110.135093 
L 123.991962 107.600944 
L 124.01466 96.674763 
L 110.620118 99.14891 
z
" clip-path="url(#p78363ccf96)" style="fill: #6a5a00; fill-opacity: 0.6; stroke: #000000; stroke-opacity: 0.6; stroke-width: 0.1"/>
    <path d="M 124.037513 85.67378 
L 137.310559 83.290593 
L 137.378732 72.275154 
L 124.060523 74.597223 
z
" clip-path="url(#p78363ccf96)" style="fill: #6a5a00; fill-opacity: 0.6; stroke: #000000; stroke-opacity: 0.6; stroke-width: 0.1"/>
    <path d="M 70.39195 172.634 
L 84.014386 169.705728 
L 83.900512 158.973289 
L 70.230515 161.844033 
z
" clip-path="url(#p78363ccf96)" style="fill: #6a5a00; fill-opacity: 0.6; stroke: #000000; stroke-opacity: 0.6; stroke-width: 0.1"/>
    <path d="M 83.785858 148.16725 
L 97.332513 145.390002 
L 97.264111 134.568247 
L 83.670415 137.28685 
z
" clip-path="url(#p78363ccf96)" style="fill: #6a5a00; fill-opacity: 0.6; stroke: #000000; stroke-opacity: 0.6; stroke-width: 0.1"/>
    <path d="M 97.195239 123.672236 
L 110.665929 121.046363 
L 110.643102 110.135093 
L 97.125892 112.701202 
z
" clip-path="url(#p78363ccf96)" style="fill: #6a5a00; fill-opacity: 0.6; stroke: #000000; stroke-opacity: 0.6; stroke-width: 0.1"/>
    <path d="M 110.620118 99.14891 
L 124.01466 96.674763 
L 124.037513 85.67378 
L 110.596976 88.087039 
z
" clip-path="url(#p78363ccf96)" style="fill: #6a5a00; fill-opacity: 0.6; stroke: #000000; stroke-opacity: 0.6; stroke-width: 0.1"/>
    <path d="M 56.806168 186.3728 
L 70.552281 183.350268 
L 70.39195 172.634 
L 56.59742 175.599266 
z
" clip-path="url(#p78363ccf96)" style="fill: #6a5a00; fill-opacity: 0.6; stroke: #000000; stroke-opacity: 0.6; stroke-width: 0.1"/>
    <path d="M 70.230515 161.844033 
L 83.900512 158.973289 
L 83.785858 148.16725 
L 70.067967 150.979603 
z
" clip-path="url(#p78363ccf96)" style="fill: #6a5a00; fill-opacity: 0.6; stroke: #000000; stroke-opacity: 0.6; stroke-width: 0.1"/>
    <path d="M 83.670415 137.28685 
L 97.264111 134.568247 
L 97.195239 123.672236 
L 83.554174 126.33132 
z
" clip-path="url(#p78363ccf96)" style="fill: #6a5a00; fill-opacity: 0.6; stroke: #000000; stroke-opacity: 0.6; stroke-width: 0.1"/>
    <path d="M 97.125892 112.701202 
L 110.643102 110.135093 
L 110.620118 99.14891 
L 97.056067 101.654368 
z
" clip-path="url(#p78363ccf96)" style="fill: #6a5a00; fill-opacity: 0.6; stroke: #000000; stroke-opacity: 0.6; stroke-width: 0.1"/>
    <path d="M 110.596976 88.087039 
L 124.037513 85.67378 
L 124.060523 74.597223 
L 110.573674 76.948696 
z
" clip-path="url(#p78363ccf96)" style="fill: #6a5a00; fill-opacity: 0.6; stroke: #000000; stroke-opacity: 0.6; stroke-width: 0.1"/>
    <path d="M 56.59742 175.599266 
L 70.39195 172.634 
L 70.230515 161.844033 
L 56.387227 164.751168 
z
" clip-path="url(#p78363ccf96)" style="fill: #6a5a00; fill-opacity: 0.6; stroke: #000000; stroke-opacity: 0.6; stroke-width: 0.1"/>
    <path d="M 70.067967 150.979603 
L 83.785858 148.16725 
L 83.670415 137.28685 
L 69.904294 140.039936 
z
" clip-path="url(#p78363ccf96)" style="fill: #6a5a00; fill-opacity: 0.6; stroke: #000000; stroke-opacity: 0.6; stroke-width: 0.1"/>
    <path d="M 83.554174 126.33132 
L 97.195239 123.672236 
L 97.125892 112.701202 
L 83.437128 115.299878 
z
" clip-path="url(#p78363ccf96)" style="fill: #6a5a00; fill-opacity: 0.6; stroke: #000000; stroke-opacity: 0.6; stroke-width: 0.1"/>
    <path d="M 97.056067 101.654368 
L 110.620118 99.14891 
L 110.596976 88.087039 
L 96.985758 90.530945 
z
" clip-path="url(#p78363ccf96)" style="fill: #6a5a00; fill-opacity: 0.6; stroke: #000000; stroke-opacity: 0.6; stroke-width: 0.1"/>
    <path d="M 56.387227 164.751168 
L 70.230515 161.844033 
L 70.067967 150.979603 
L 56.175574 153.827731 
z
" clip-path="url(#p78363ccf96)" style="fill: #6a5a00; fill-opacity: 0.6; stroke: #000000; stroke-opacity: 0.6; stroke-width: 0.1"/>
    <path d="M 69.904294 140.039936 
L 83.670415 137.28685 
L 83.554174 126.33132 
L 69.739482 129.024249 
z
" clip-path="url(#p78363ccf96)" style="fill: #6a5a00; fill-opacity: 0.6; stroke: #000000; stroke-opacity: 0.6; stroke-width: 0.1"/>
    <path d="M 83.437128 115.299878 
L 97.125892 112.701202 
L 97.056067 101.654368 
L 83.319268 104.191734 
z
" clip-path="url(#p78363ccf96)" style="fill: #6a5a00; fill-opacity: 0.6; stroke: #000000; stroke-opacity: 0.6; stroke-width: 0.1"/>
    <path d="M 96.985758 90.530945 
L 110.596976 88.087039 
L 110.573674 76.948696 
L 96.914959 79.330134 
z
" clip-path="url(#p78363ccf96)" style="fill: #6a5a00; fill-opacity: 0.6; stroke: #000000; stroke-opacity: 0.6; stroke-width: 0.1"/>
    <path d="M 56.175574 153.827731 
L 70.067967 150.979603 
L 69.904294 140.039936 
L 55.962446 142.828166 
z
" clip-path="url(#p78363ccf96)" style="fill: #6a5a00; fill-opacity: 0.6; stroke: #000000; stroke-opacity: 0.6; stroke-width: 0.1"/>
    <path d="M 69.739482 129.024249 
L 83.554174 126.33132 
L 83.437128 115.299878 
L 69.573522 117.931747 
z
" clip-path="url(#p78363ccf96)" style="fill: #6a5a00; fill-opacity: 0.6; stroke: #000000; stroke-opacity: 0.6; stroke-width: 0.1"/>
    <path d="M 83.319268 104.191734 
L 97.056067 101.654368 
L 96.985758 90.530945 
L 83.200586 93.006084 
z
" clip-path="url(#p78363ccf96)" style="fill: #6a5a00; fill-opacity: 0.6; stroke: #000000; stroke-opacity: 0.6; stroke-width: 0.1"/>
    <path d="M 55.962446 142.828166 
L 69.904294 140.039936 
L 69.739482 129.024249 
L 55.747828 131.751675 
z
" clip-path="url(#p78363ccf96)" style="fill: #6a5a00; fill-opacity: 0.6; stroke: #000000; stroke-opacity: 0.6; stroke-width: 0.1"/>
    <path d="M 69.573522 117.931747 
L 83.437128 115.299878 
L 83.319268 104.191734 
L 69.4064 106.761623 
z
" clip-path="url(#p78363ccf96)" style="fill: #6a5a00; fill-opacity: 0.6; stroke: #000000; stroke-opacity: 0.6; stroke-width: 0.1"/>
    <path d="M 83.200586 93.006084 
L 96.985758 90.530945 
L 96.914959 79.330134 
L 83.081073 81.742114 
z
" clip-path="url(#p78363ccf96)" style="fill: #6a5a00; fill-opacity: 0.6; stroke: #000000; stroke-opacity: 0.6; stroke-width: 0.1"/>
    <path d="M 55.747828 131.751675 
L 69.739482 129.024249 
L 69.573522 117.931747 
L 55.531703 120.597447 
z
" clip-path="url(#p78363ccf96)" style="fill: #6a5a00; fill-opacity: 0.6; stroke: #000000; stroke-opacity: 0.6; stroke-width: 0.1"/>
    <path d="M 69.4064 106.761623 
L 83.319268 104.191734 
L 83.200586 93.006084 
L 69.238105 95.513059 
z
" clip-path="url(#p78363ccf96)" style="fill: #6a5a00; fill-opacity: 0.6; stroke: #000000; stroke-opacity: 0.6; stroke-width: 0.1"/>
    <path d="M 55.531703 120.597447 
L 69.573522 117.931747 
L 69.4064 106.761623 
L 55.314056 109.364663 
z
" clip-path="url(#p78363ccf96)" style="fill: #6a5a00; fill-opacity: 0.6; stroke: #000000; stroke-opacity: 0.6; stroke-width: 0.1"/>
    <path d="M 69.238105 95.513059 
L 83.200586 93.006084 
L 83.081073 81.742114 
L 69.068624 84.185226 
z
" clip-path="url(#p78363ccf96)" style="fill: #6a5a00; fill-opacity: 0.6; stroke: #000000; stroke-opacity: 0.6; stroke-width: 0.1"/>
    <path d="M 55.314056 109.364663 
L 69.4064 106.761623 
L 69.238105 95.513059 
L 55.094871 98.052488 
z
" clip-path="url(#p78363ccf96)" style="fill: #6a5a00; fill-opacity: 0.6; stroke: #000000; stroke-opacity: 0.6; stroke-width: 0.1"/>
    <path d="M 55.094871 98.052488 
L 69.238105 95.513059 
L 69.068624 84.185226 
L 54.874132 86.660079 
z
" clip-path="url(#p78363ccf96)" style="fill: #6a5a00; fill-opacity: 0.6; stroke: #000000; stroke-opacity: 0.6; stroke-width: 0.1"/>
   </g>
   <g id="Poly3DCollection_3">
    <path d="M 148.6535 154.99962 
L 157.163255 150.09102 
L 157.290248 140.013345 
L 148.754457 144.826724 
z
" clip-path="url(#p78363ccf96)" style="fill: #182c3d; fill-opacity: 0.6; stroke: #000000; stroke-opacity: 0.6; stroke-width: 0.1"/>
    <path d="M 148.754457 144.826724 
L 157.290248 140.013345 
L 157.418053 129.871194 
L 148.856067 134.588023 
z
" clip-path="url(#p78363ccf96)" style="fill: #182c3d; fill-opacity: 0.6; stroke: #000000; stroke-opacity: 0.6; stroke-width: 0.1"/>
    <path d="M 148.856067 134.588023 
L 157.418053 129.871194 
L 157.546678 119.663946 
L 148.958337 124.282876 
z
" clip-path="url(#p78363ccf96)" style="fill: #182c3d; fill-opacity: 0.6; stroke: #000000; stroke-opacity: 0.6; stroke-width: 0.1"/>
    <path d="M 148.958337 124.282876 
L 157.546678 119.663946 
L 157.676132 109.390972 
L 149.061272 113.910634 
z
" clip-path="url(#p78363ccf96)" style="fill: #182c3d; fill-opacity: 0.6; stroke: #000000; stroke-opacity: 0.6; stroke-width: 0.1"/>
    <path d="M 139.954732 160.017246 
L 148.6535 154.99962 
L 148.754457 144.826724 
L 140.028457 149.747362 
z
" clip-path="url(#p78363ccf96)" style="fill: #182c3d; fill-opacity: 0.6; stroke: #000000; stroke-opacity: 0.6; stroke-width: 0.1"/>
    <path d="M 149.061272 113.910634 
L 157.676132 109.390972 
L 157.806422 99.051635 
L 149.16488 103.470641 
z
" clip-path="url(#p78363ccf96)" style="fill: #182c3d; fill-opacity: 0.6; stroke: #000000; stroke-opacity: 0.6; stroke-width: 0.1"/>
    <path d="M 140.028457 149.747362 
L 148.754457 144.826724 
L 148.856067 134.588023 
L 140.102665 139.410303 
z
" clip-path="url(#p78363ccf96)" style="fill: #182c3d; fill-opacity: 0.6; stroke: #000000; stroke-opacity: 0.6; stroke-width: 0.1"/>
    <path d="M 149.16488 103.470641 
L 157.806422 99.051635 
L 157.937556 88.64529 
L 149.269167 92.962229 
z
" clip-path="url(#p78363ccf96)" style="fill: #182c3d; fill-opacity: 0.6; stroke: #000000; stroke-opacity: 0.6; stroke-width: 0.1"/>
    <path d="M 140.102665 139.410303 
L 148.856067 134.588023 
L 148.958337 124.282876 
L 140.17736 129.005408 
z
" clip-path="url(#p78363ccf96)" style="fill: #182c3d; fill-opacity: 0.6; stroke: #000000; stroke-opacity: 0.6; stroke-width: 0.1"/>
    <path d="M 149.269167 92.962229 
L 157.937556 88.64529 
L 158.069543 78.171283 
L 149.37414 82.384724 
z
" clip-path="url(#p78363ccf96)" style="fill: #182c3d; fill-opacity: 0.6; stroke: #000000; stroke-opacity: 0.6; stroke-width: 0.1"/>
    <path d="M 140.17736 129.005408 
L 148.958337 124.282876 
L 149.061272 113.910634 
L 140.252546 118.532006 
z
" clip-path="url(#p78363ccf96)" style="fill: #182c3d; fill-opacity: 0.6; stroke: #000000; stroke-opacity: 0.6; stroke-width: 0.1"/>
    <path d="M 131.060584 165.147571 
L 139.954732 160.017246 
L 140.028457 149.747362 
L 131.10582 154.778885 
z
" clip-path="url(#p78363ccf96)" style="fill: #182c3d; fill-opacity: 0.6; stroke: #000000; stroke-opacity: 0.6; stroke-width: 0.1"/>
    <path d="M 149.37414 82.384724 
L 158.069543 78.171283 
L 158.202391 67.628953 
L 149.479805 71.737443 
z
" clip-path="url(#p78363ccf96)" style="fill: #182c3d; fill-opacity: 0.6; stroke: #000000; stroke-opacity: 0.6; stroke-width: 0.1"/>
    <path d="M 140.252546 118.532006 
L 149.061272 113.910634 
L 149.16488 103.470641 
L 140.328229 107.989419 
z
" clip-path="url(#p78363ccf96)" style="fill: #182c3d; fill-opacity: 0.6; stroke: #000000; stroke-opacity: 0.6; stroke-width: 0.1"/>
    <path d="M 131.10582 154.778885 
L 140.028457 149.747362 
L 140.102665 139.410303 
L 131.151355 144.341611 
z
" clip-path="url(#p78363ccf96)" style="fill: #182c3d; fill-opacity: 0.6; stroke: #000000; stroke-opacity: 0.6; stroke-width: 0.1"/>
    <path d="M 149.479805 71.737443 
L 158.202391 67.628953 
L 158.336108 57.017628 
L 149.586169 61.019692 
z
" clip-path="url(#p78363ccf96)" style="fill: #182c3d; fill-opacity: 0.6; stroke: #000000; stroke-opacity: 0.6; stroke-width: 0.1"/>
    <path d="M 140.328229 107.989419 
L 149.16488 103.470641 
L 149.269167 92.962229 
L 140.404414 97.376959 
z
" clip-path="url(#p78363ccf96)" style="fill: #182c3d; fill-opacity: 0.6; stroke: #000000; stroke-opacity: 0.6; stroke-width: 0.1"/>
    <path d="M 131.151355 144.341611 
L 140.102665 139.410303 
L 140.17736 129.005408 
L 131.197193 133.835066 
z
" clip-path="url(#p78363ccf96)" style="fill: #182c3d; fill-opacity: 0.6; stroke: #000000; stroke-opacity: 0.6; stroke-width: 0.1"/>
    <path d="M 140.404414 97.376959 
L 149.269167 92.962229 
L 149.37414 82.384724 
L 140.481106 86.693929 
z
" clip-path="url(#p78363ccf96)" style="fill: #182c3d; fill-opacity: 0.6; stroke: #000000; stroke-opacity: 0.6; stroke-width: 0.1"/>
    <path d="M 131.197193 133.835066 
L 140.17736 129.005408 
L 140.252546 118.532006 
L 131.243335 123.258559 
z
" clip-path="url(#p78363ccf96)" style="fill: #182c3d; fill-opacity: 0.6; stroke: #000000; stroke-opacity: 0.6; stroke-width: 0.1"/>
    <path d="M 121.964399 170.394435 
L 131.060584 165.147571 
L 131.10582 154.778885 
L 121.979822 159.925084 
z
" clip-path="url(#p78363ccf96)" style="fill: #182c3d; fill-opacity: 0.6; stroke: #000000; stroke-opacity: 0.6; stroke-width: 0.1"/>
    <path d="M 140.481106 86.693929 
L 149.37414 82.384724 
L 149.479805 71.737443 
L 140.558309 75.939623 
z
" clip-path="url(#p78363ccf96)" style="fill: #182c3d; fill-opacity: 0.6; stroke: #000000; stroke-opacity: 0.6; stroke-width: 0.1"/>
    <path d="M 131.243335 123.258559 
L 140.252546 118.532006 
L 140.328229 107.989419 
L 131.289787 112.611387 
z
" clip-path="url(#p78363ccf96)" style="fill: #182c3d; fill-opacity: 0.6; stroke: #000000; stroke-opacity: 0.6; stroke-width: 0.1"/>
    <path d="M 121.979822 159.925084 
L 131.10582 154.778885 
L 131.151355 144.341611 
L 121.995349 149.385687 
z
" clip-path="url(#p78363ccf96)" style="fill: #182c3d; fill-opacity: 0.6; stroke: #000000; stroke-opacity: 0.6; stroke-width: 0.1"/>
    <path d="M 140.558309 75.939623 
L 149.479805 71.737443 
L 149.586169 61.019692 
L 140.636029 65.113325 
z
" clip-path="url(#p78363ccf96)" style="fill: #182c3d; fill-opacity: 0.6; stroke: #000000; stroke-opacity: 0.6; stroke-width: 0.1"/>
    <path d="M 131.289787 112.611387 
L 140.328229 107.989419 
L 140.404414 97.376959 
L 131.336549 101.892841 
z
" clip-path="url(#p78363ccf96)" style="fill: #182c3d; fill-opacity: 0.6; stroke: #000000; stroke-opacity: 0.6; stroke-width: 0.1"/>
    <path d="M 121.995349 149.385687 
L 131.151355 144.341611 
L 131.197193 133.835066 
L 122.01098 138.775539 
z
" clip-path="url(#p78363ccf96)" style="fill: #182c3d; fill-opacity: 0.6; stroke: #000000; stroke-opacity: 0.6; stroke-width: 0.1"/>
    <path d="M 131.336549 101.892841 
L 140.404414 97.376959 
L 140.481106 86.693929 
L 131.383626 91.1022 
z
" clip-path="url(#p78363ccf96)" style="fill: #182c3d; fill-opacity: 0.6; stroke: #000000; stroke-opacity: 0.6; stroke-width: 0.1"/>
    <path d="M 122.01098 138.775539 
L 131.197193 133.835066 
L 131.243335 123.258559 
L 122.026717 128.093925 
z
" clip-path="url(#p78363ccf96)" style="fill: #182c3d; fill-opacity: 0.6; stroke: #000000; stroke-opacity: 0.6; stroke-width: 0.1"/>
    <path d="M 112.659213 175.761855 
L 121.964399 170.394435 
L 121.979822 159.925084 
L 112.643432 165.189924 
z
" clip-path="url(#p78363ccf96)" style="fill: #182c3d; fill-opacity: 0.6; stroke: #000000; stroke-opacity: 0.6; stroke-width: 0.1"/>
    <path d="M 131.383626 91.1022 
L 140.481106 86.693929 
L 140.558309 75.939623 
L 131.431021 80.238735 
z
" clip-path="url(#p78363ccf96)" style="fill: #182c3d; fill-opacity: 0.6; stroke: #000000; stroke-opacity: 0.6; stroke-width: 0.1"/>
    <path d="M 122.026717 128.093925 
L 131.243335 123.258559 
L 131.289787 112.611387 
L 122.04256 117.340121 
z
" clip-path="url(#p78363ccf96)" style="fill: #182c3d; fill-opacity: 0.6; stroke: #000000; stroke-opacity: 0.6; stroke-width: 0.1"/>
    <path d="M 112.643432 165.189924 
L 121.979822 159.925084 
L 121.995349 149.385687 
L 112.627544 154.546444 
z
" clip-path="url(#p78363ccf96)" style="fill: #182c3d; fill-opacity: 0.6; stroke: #000000; stroke-opacity: 0.6; stroke-width: 0.1"/>
    <path d="M 131.431021 80.238735 
L 140.558309 75.939623 
L 140.636029 65.113325 
L 131.478736 69.301705 
z
" clip-path="url(#p78363ccf96)" style="fill: #182c3d; fill-opacity: 0.6; stroke: #000000; stroke-opacity: 0.6; stroke-width: 0.1"/>
    <path d="M 122.04256 117.340121 
L 131.289787 112.611387 
L 131.336549 101.892841 
L 122.05851 106.513392 
z
" clip-path="url(#p78363ccf96)" style="fill: #182c3d; fill-opacity: 0.6; stroke: #000000; stroke-opacity: 0.6; stroke-width: 0.1"/>
    <path d="M 112.627544 154.546444 
L 121.995349 149.385687 
L 122.01098 138.775539 
L 112.611549 143.830684 
z
" clip-path="url(#p78363ccf96)" style="fill: #182c3d; fill-opacity: 0.6; stroke: #000000; stroke-opacity: 0.6; stroke-width: 0.1"/>
    <path d="M 122.05851 106.513392 
L 131.336549 101.892841 
L 131.383626 91.1022 
L 122.074569 95.612993 
z
" clip-path="url(#p78363ccf96)" style="fill: #182c3d; fill-opacity: 0.6; stroke: #000000; stroke-opacity: 0.6; stroke-width: 0.1"/>
    <path d="M 112.611549 143.830684 
L 122.01098 138.775539 
L 122.026717 128.093925 
L 112.595445 133.041907 
z
" clip-path="url(#p78363ccf96)" style="fill: #182c3d; fill-opacity: 0.6; stroke: #000000; stroke-opacity: 0.6; stroke-width: 0.1"/>
    <path d="M 103.13774 181.254034 
L 112.659213 175.761855 
L 112.643432 165.189924 
L 103.089289 170.577557 
z
" clip-path="url(#p78363ccf96)" style="fill: #182c3d; fill-opacity: 0.6; stroke: #000000; stroke-opacity: 0.6; stroke-width: 0.1"/>
    <path d="M 122.074569 95.612993 
L 131.383626 91.1022 
L 131.431021 80.238735 
L 122.090737 84.638171 
z
" clip-path="url(#p78363ccf96)" style="fill: #182c3d; fill-opacity: 0.6; stroke: #000000; stroke-opacity: 0.6; stroke-width: 0.1"/>
    <path d="M 112.595445 133.041907 
L 122.026717 128.093925 
L 122.04256 117.340121 
L 112.57923 122.179363 
z
" clip-path="url(#p78363ccf96)" style="fill: #182c3d; fill-opacity: 0.6; stroke: #000000; stroke-opacity: 0.6; stroke-width: 0.1"/>
    <path d="M 103.089289 170.577557 
L 112.643432 165.189924 
L 112.627544 154.546444 
L 103.040506 159.827977 
z
" clip-path="url(#p78363ccf96)" style="fill: #182c3d; fill-opacity: 0.6; stroke: #000000; stroke-opacity: 0.6; stroke-width: 0.1"/>
    <path d="M 122.090737 84.638171 
L 131.431021 80.238735 
L 131.478736 69.301705 
L 122.107016 73.588161 
z
" clip-path="url(#p78363ccf96)" style="fill: #182c3d; fill-opacity: 0.6; stroke: #000000; stroke-opacity: 0.6; stroke-width: 0.1"/>
    <path d="M 112.57923 122.179363 
L 122.04256 117.340121 
L 122.05851 106.513392 
L 112.562904 111.242292 
z
" clip-path="url(#p78363ccf96)" style="fill: #182c3d; fill-opacity: 0.6; stroke: #000000; stroke-opacity: 0.6; stroke-width: 0.1"/>
    <path d="M 103.040506 159.827977 
L 112.627544 154.546444 
L 112.611549 143.830684 
L 102.991388 149.004541 
z
" clip-path="url(#p78363ccf96)" style="fill: #182c3d; fill-opacity: 0.6; stroke: #000000; stroke-opacity: 0.6; stroke-width: 0.1"/>
    <path d="M 112.562904 111.242292 
L 122.05851 106.513392 
L 122.074569 95.612993 
L 112.546466 100.229927 
z
" clip-path="url(#p78363ccf96)" style="fill: #182c3d; fill-opacity: 0.6; stroke: #000000; stroke-opacity: 0.6; stroke-width: 0.1"/>
    <path d="M 102.991388 149.004541 
L 112.611549 143.830684 
L 112.595445 133.041907 
L 102.941931 138.106484 
z
" clip-path="url(#p78363ccf96)" style="fill: #182c3d; fill-opacity: 0.6; stroke: #000000; stroke-opacity: 0.6; stroke-width: 0.1"/>
    <path d="M 93.392349 186.875372 
L 103.13774 181.254034 
L 103.089289 170.577557 
L 93.309684 176.092329 
z
" clip-path="url(#p78363ccf96)" style="fill: #182c3d; fill-opacity: 0.6; stroke: #000000; stroke-opacity: 0.6; stroke-width: 0.1"/>
    <path d="M 112.546466 100.229927 
L 122.074569 95.612993 
L 122.090737 84.638171 
L 112.529914 89.141485 
z
" clip-path="url(#p78363ccf96)" style="fill: #182c3d; fill-opacity: 0.6; stroke: #000000; stroke-opacity: 0.6; stroke-width: 0.1"/>
    <path d="M 102.941931 138.106484 
L 112.595445 133.041907 
L 112.57923 122.179363 
L 102.892133 127.133032 
z
" clip-path="url(#p78363ccf96)" style="fill: #182c3d; fill-opacity: 0.6; stroke: #000000; stroke-opacity: 0.6; stroke-width: 0.1"/>
    <path d="M 93.309684 176.092329 
L 103.089289 170.577557 
L 103.040506 159.827977 
L 93.226446 165.234578 
z
" clip-path="url(#p78363ccf96)" style="fill: #182c3d; fill-opacity: 0.6; stroke: #000000; stroke-opacity: 0.6; stroke-width: 0.1"/>
    <path d="M 112.529914 89.141485 
L 122.090737 84.638171 
L 122.107016 73.588161 
L 112.513248 77.976177 
z
" clip-path="url(#p78363ccf96)" style="fill: #182c3d; fill-opacity: 0.6; stroke: #000000; stroke-opacity: 0.6; stroke-width: 0.1"/>
    <path d="M 102.892133 127.133032 
L 112.57923 122.179363 
L 112.562904 111.242292 
L 102.841988 116.0834 
z
" clip-path="url(#p78363ccf96)" style="fill: #182c3d; fill-opacity: 0.6; stroke: #000000; stroke-opacity: 0.6; stroke-width: 0.1"/>
    <path d="M 93.226446 165.234578 
L 103.040506 159.827977 
L 102.991388 149.004541 
L 93.142629 154.30134 
z
" clip-path="url(#p78363ccf96)" style="fill: #182c3d; fill-opacity: 0.6; stroke: #000000; stroke-opacity: 0.6; stroke-width: 0.1"/>
    <path d="M 102.841988 116.0834 
L 112.562904 111.242292 
L 112.546466 100.229927 
L 102.791494 104.956792 
z
" clip-path="url(#p78363ccf96)" style="fill: #182c3d; fill-opacity: 0.6; stroke: #000000; stroke-opacity: 0.6; stroke-width: 0.1"/>
    <path d="M 93.142629 154.30134 
L 102.991388 149.004541 
L 102.941931 138.106484 
L 93.058228 143.291827 
z
" clip-path="url(#p78363ccf96)" style="fill: #182c3d; fill-opacity: 0.6; stroke: #000000; stroke-opacity: 0.6; stroke-width: 0.1"/>
    <path d="M 83.415049 192.630482 
L 93.392349 186.875372 
L 93.309684 176.092329 
L 83.296542 181.738793 
z
" clip-path="url(#p78363ccf96)" style="fill: #182c3d; fill-opacity: 0.6; stroke: #000000; stroke-opacity: 0.6; stroke-width: 0.1"/>
    <path d="M 102.791494 104.956792 
L 112.546466 100.229927 
L 112.529914 89.141485 
L 102.740648 93.7524 
z
" clip-path="url(#p78363ccf96)" style="fill: #182c3d; fill-opacity: 0.6; stroke: #000000; stroke-opacity: 0.6; stroke-width: 0.1"/>
    <path d="M 93.058228 143.291827 
L 102.941931 138.106484 
L 102.892133 127.133032 
L 92.973236 132.205236 
z
" clip-path="url(#p78363ccf96)" style="fill: #182c3d; fill-opacity: 0.6; stroke: #000000; stroke-opacity: 0.6; stroke-width: 0.1"/>
    <path d="M 83.296542 181.738793 
L 93.309684 176.092329 
L 93.226446 165.234578 
L 83.177205 170.77074 
z
" clip-path="url(#p78363ccf96)" style="fill: #182c3d; fill-opacity: 0.6; stroke: #000000; stroke-opacity: 0.6; stroke-width: 0.1"/>
    <path d="M 102.740648 93.7524 
L 112.529914 89.141485 
L 112.513248 77.976177 
L 102.689444 82.469407 
z
" clip-path="url(#p78363ccf96)" style="fill: #182c3d; fill-opacity: 0.6; stroke: #000000; stroke-opacity: 0.6; stroke-width: 0.1"/>
    <path d="M 92.973236 132.205236 
L 102.892133 127.133032 
L 102.841988 116.0834 
L 92.887646 121.040756 
z
" clip-path="url(#p78363ccf96)" style="fill: #182c3d; fill-opacity: 0.6; stroke: #000000; stroke-opacity: 0.6; stroke-width: 0.1"/>
    <path d="M 83.177205 170.77074 
L 93.226446 165.234578 
L 93.142629 154.30134 
L 83.057028 159.725517 
z
" clip-path="url(#p78363ccf96)" style="fill: #182c3d; fill-opacity: 0.6; stroke: #000000; stroke-opacity: 0.6; stroke-width: 0.1"/>
    <path d="M 92.887646 121.040756 
L 102.841988 116.0834 
L 102.791494 104.956792 
L 92.801454 109.797562 
z
" clip-path="url(#p78363ccf96)" style="fill: #182c3d; fill-opacity: 0.6; stroke: #000000; stroke-opacity: 0.6; stroke-width: 0.1"/>
    <path d="M 83.057028 159.725517 
L 93.142629 154.30134 
L 93.058228 143.291827 
L 82.936002 148.602307 
z
" clip-path="url(#p78363ccf96)" style="fill: #182c3d; fill-opacity: 0.6; stroke: #000000; stroke-opacity: 0.6; stroke-width: 0.1"/>
    <path d="M 73.197461 198.524194 
L 83.415049 192.630482 
L 83.296542 181.738793 
L 73.041397 187.521724 
z
" clip-path="url(#p78363ccf96)" style="fill: #182c3d; fill-opacity: 0.6; stroke: #000000; stroke-opacity: 0.6; stroke-width: 0.1"/>
    <path d="M 92.801454 109.797562 
L 102.791494 104.956792 
L 102.740648 93.7524 
L 92.714651 98.47482 
z
" clip-path="url(#p78363ccf96)" style="fill: #182c3d; fill-opacity: 0.6; stroke: #000000; stroke-opacity: 0.6; stroke-width: 0.1"/>
    <path d="M 82.936002 148.602307 
L 93.058228 143.291827 
L 92.973236 132.205236 
L 82.814119 137.400281 
z
" clip-path="url(#p78363ccf96)" style="fill: #182c3d; fill-opacity: 0.6; stroke: #000000; stroke-opacity: 0.6; stroke-width: 0.1"/>
    <path d="M 73.041397 187.521724 
L 83.296542 181.738793 
L 83.177205 170.77074 
L 72.884226 176.441179 
z
" clip-path="url(#p78363ccf96)" style="fill: #182c3d; fill-opacity: 0.6; stroke: #000000; stroke-opacity: 0.6; stroke-width: 0.1"/>
    <path d="M 92.714651 98.47482 
L 102.740648 93.7524 
L 102.689444 82.469407 
L 92.627232 87.071682 
z
" clip-path="url(#p78363ccf96)" style="fill: #182c3d; fill-opacity: 0.6; stroke: #000000; stroke-opacity: 0.6; stroke-width: 0.1"/>
    <path d="M 82.814119 137.400281 
L 92.973236 132.205236 
L 92.887646 121.040756 
L 82.691369 126.118598 
z
" clip-path="url(#p78363ccf96)" style="fill: #182c3d; fill-opacity: 0.6; stroke: #000000; stroke-opacity: 0.6; stroke-width: 0.1"/>
    <path d="M 72.884226 176.441179 
L 83.177205 170.77074 
L 83.057028 159.725517 
L 72.725935 165.281723 
z
" clip-path="url(#p78363ccf96)" style="fill: #182c3d; fill-opacity: 0.6; stroke: #000000; stroke-opacity: 0.6; stroke-width: 0.1"/>
    <path d="M 82.691369 126.118598 
L 92.887646 121.040756 
L 92.801454 109.797562 
L 82.567743 114.756405 
z
" clip-path="url(#p78363ccf96)" style="fill: #182c3d; fill-opacity: 0.6; stroke: #000000; stroke-opacity: 0.6; stroke-width: 0.1"/>
    <path d="M 72.725935 165.281723 
L 83.057028 159.725517 
L 82.936002 148.602307 
L 72.566514 154.04251 
z
" clip-path="url(#p78363ccf96)" style="fill: #182c3d; fill-opacity: 0.6; stroke: #000000; stroke-opacity: 0.6; stroke-width: 0.1"/>
    <path d="M 82.567743 114.756405 
L 92.801454 109.797562 
L 92.714651 98.47482 
L 82.443232 103.312837 
z
" clip-path="url(#p78363ccf96)" style="fill: #182c3d; fill-opacity: 0.6; stroke: #000000; stroke-opacity: 0.6; stroke-width: 0.1"/>
    <path d="M 72.566514 154.04251 
L 82.936002 148.602307 
L 82.814119 137.400281 
L 72.405948 142.722684 
z
" clip-path="url(#p78363ccf96)" style="fill: #182c3d; fill-opacity: 0.6; stroke: #000000; stroke-opacity: 0.6; stroke-width: 0.1"/>
    <path d="M 82.443232 103.312837 
L 92.714651 98.47482 
L 92.627232 87.071682 
L 82.317825 91.787018 
z
" clip-path="url(#p78363ccf96)" style="fill: #182c3d; fill-opacity: 0.6; stroke: #000000; stroke-opacity: 0.6; stroke-width: 0.1"/>
    <path d="M 72.405948 142.722684 
L 82.814119 137.400281 
L 82.691369 126.118598 
L 72.244227 131.321372 
z
" clip-path="url(#p78363ccf96)" style="fill: #182c3d; fill-opacity: 0.6; stroke: #000000; stroke-opacity: 0.6; stroke-width: 0.1"/>
    <path d="M 72.244227 131.321372 
L 82.691369 126.118598 
L 82.567743 114.756405 
L 72.081338 119.837693 
z
" clip-path="url(#p78363ccf96)" style="fill: #182c3d; fill-opacity: 0.6; stroke: #000000; stroke-opacity: 0.6; stroke-width: 0.1"/>
    <path d="M 72.081338 119.837693 
L 82.567743 114.756405 
L 82.443232 103.312837 
L 71.917267 108.27075 
z
" clip-path="url(#p78363ccf96)" style="fill: #182c3d; fill-opacity: 0.6; stroke: #000000; stroke-opacity: 0.6; stroke-width: 0.1"/>
    <path d="M 71.917267 108.27075 
L 82.443232 103.312837 
L 82.317825 91.787018 
L 71.752003 96.619634 
z
" clip-path="url(#p78363ccf96)" style="fill: #182c3d; fill-opacity: 0.6; stroke: #000000; stroke-opacity: 0.6; stroke-width: 0.1"/>
   </g>
   <g id="line2d_25">
    <path d="M 117.338378 173.062817 
L 117.338378 171.135774 
L 117.338378 169.206362 
L 117.338378 167.274577 
L 117.338378 165.340415 
L 117.338378 163.403871 
L 117.338378 161.464941 
L 117.338378 159.52362 
L 117.338378 157.579903 
L 117.338378 155.633788 
L 117.338378 153.685268 
L 117.338378 151.73434 
L 117.338378 149.780999 
L 117.338378 147.825241 
L 117.338378 145.867061 
L 117.338378 143.906454 
L 117.338378 141.943416 
L 117.338378 139.977944 
L 117.338378 138.010031 
L 117.338378 136.039674 
L 117.338378 134.066867 
L 117.338378 132.091607 
L 117.338378 130.113889 
L 117.338378 128.133708 
L 117.338378 126.15106 
L 117.338378 124.16594 
L 117.338378 122.178343 
L 117.338378 120.188265 
L 117.338378 118.1957 
L 117.338378 116.200646 
L 117.338378 114.203096 
L 117.338378 112.203046 
L 117.338378 110.200492 
L 117.338378 108.195428 
L 117.338378 106.18785 
L 117.338378 104.177753 
L 117.338378 102.165133 
L 117.338378 100.149985 
L 117.338378 98.132303 
L 117.338378 96.112084 
L 117.338378 94.089322 
L 117.338378 92.064012 
L 117.338378 90.036151 
L 117.338378 88.005732 
L 117.338378 85.972751 
L 117.338378 83.937204 
L 117.338378 81.899085 
L 117.338378 79.858389 
L 117.338378 77.815113 
L 117.338378 75.769249 
" clip-path="url(#p78363ccf96)" style="fill: none; stroke: #ff4500; stroke-width: 2.5; stroke-linecap: square"/>
   </g>
  </g>
 </g>
 <defs>
  <clipPath id="p78363ccf96">
   <rect x="7.2" y="20.817188" width="214.48" height="214.48"/>
  </clipPath>
 </defs>
</svg>
