<?xml version="1.0" encoding="utf-8" standalone="no"?>
<!DOCTYPE svg PUBLIC "-//W3C//DTD SVG 1.1//EN"
  "http://www.w3.org/Graphics/SVG/1.1/DTD/svg11.dtd">
<svg xmlns:xlink="http://www.w3.org/1999/xlink" width="249.072735pt" height="249.066603pt" viewBox="0 0 249.072735 249.066603" xmlns="http://www.w3.org/2000/svg" version="1.1">
 <metadata>
  <rdf:RDF xmlns:dc="http://purl.org/dc/elements/1.1/" xmlns:cc="http://creativecommons.org/ns#" xmlns:rdf="http://www.w3.org/1999/02/22-rdf-syntax-ns#">
   <cc:Work>
    <dc:type rdf:resource="http://purl.org/dc/dcmitype/StillImage"/>
    <dc:date>2025-06-11T09:21:56.386096</dc:date>
    <dc:format>image/svg+xml</dc:format>
    <dc:creator>
     <cc:Agent>
      <dc:title>Matplotlib v3.10.3, https://matplotlib.org/</dc:title>
     </cc:Agent>
    </dc:creator>
   </cc:Work>
  </rdf:RDF>
 </metadata>
 <defs>
  <style type="text/css">*{stroke-linejoin: round; stroke-linecap: butt}</style>
 </defs>
 <g id="figure_1">
  <g id="patch_1">
   <path d="M 0 249.066603 
L 249.072735 249.066603 
L 249.072735 0 
L 0 0 
L 0 249.066603 
z
" style="fill: none; opacity: 0"/>
  </g>
  <g id="patch_2">
   <path d="M 8.710773 235.278437 
L 223.190773 235.278437 
L 223.190773 20.798437 
L 8.710773 20.798437 
L 8.710773 235.278437 
z
" style="fill: none"/>
  </g>
  <g id="pane3d_1">
   <g id="patch_3">
    <path d="M 24.046063 167.37521 
L 126.617964 130.455503 
L 126.895266 41.900577 
L 20.424538 74.013141 
" style="fill: none; opacity: 0"/>
   </g>
  </g>
  <g id="pane3d_2">
   <g id="patch_4">
    <path d="M 126.617964 130.455503 
L 214.897775 175.032764 
L 218.616951 80.69311 
L 126.895266 41.900577 
" style="fill: none; opacity: 0"/>
   </g>
  </g>
  <g id="pane3d_3">
   <g id="patch_5">
    <path d="M 24.046063 167.37521 
L 109.827887 218.467746 
L 214.897775 175.032764 
L 126.617964 130.455503 
" style="fill: none; opacity: 0"/>
   </g>
  </g>
  <g id="grid3d_1">
   <g id="Line3DCollection_1">
    <path d="M 24.046063 167.37521 
L 126.617964 130.455503 
L 126.895266 41.900577 
" style="fill: none; stroke: #b0b0b0; stroke-width: 0.8"/>
    <path d="M 37.36974 175.310929 
L 140.393885 137.411713 
L 141.173064 47.939192 
" style="fill: none; stroke: #b0b0b0; stroke-width: 0.8"/>
    <path d="M 51.061239 183.465727 
L 154.525401 144.547481 
L 155.832918 54.139393 
" style="fill: none; stroke: #b0b0b0; stroke-width: 0.8"/>
    <path d="M 65.136005 191.848802 
L 169.026461 151.869852 
L 170.890373 60.507754 
" style="fill: none; stroke: #b0b0b0; stroke-width: 0.8"/>
    <path d="M 79.610359 200.469876 
L 183.911752 159.386242 
L 186.361826 67.05121 
" style="fill: none; stroke: #b0b0b0; stroke-width: 0.8"/>
    <path d="M 94.501563 209.33923 
L 199.196751 167.104466 
L 202.264588 73.777083 
" style="fill: none; stroke: #b0b0b0; stroke-width: 0.8"/>
    <path d="M 109.827887 218.467746 
L 214.897775 175.032764 
L 218.616951 80.69311 
" style="fill: none; stroke: #b0b0b0; stroke-width: 0.8"/>
   </g>
  </g>
  <g id="grid3d_2">
   <g id="Line3DCollection_2">
    <path d="M 20.424538 74.013141 
L 24.046063 167.37521 
L 109.827887 218.467746 
" style="fill: none; stroke: #b0b0b0; stroke-width: 0.8"/>
    <path d="M 39.195897 68.351524 
L 42.094065 160.879016 
L 128.399932 210.790223 
" style="fill: none; stroke: #b0b0b0; stroke-width: 0.8"/>
    <path d="M 57.537986 62.819379 
L 59.744192 154.526034 
L 146.527517 203.296437 
" style="fill: none; stroke: #b0b0b0; stroke-width: 0.8"/>
    <path d="M 75.465364 57.412315 
L 77.009455 148.311579 
L 164.226407 195.979868 
" style="fill: none; stroke: #b0b0b0; stroke-width: 0.8"/>
    <path d="M 92.991939 52.126137 
L 93.902309 142.231169 
L 181.511633 188.834306 
" style="fill: none; stroke: #b0b0b0; stroke-width: 0.8"/>
    <path d="M 110.131002 46.956835 
L 110.434672 136.280514 
L 198.397529 181.853823 
" style="fill: none; stroke: #b0b0b0; stroke-width: 0.8"/>
    <path d="M 126.895266 41.900577 
L 126.617964 130.455503 
L 214.897775 175.032764 
" style="fill: none; stroke: #b0b0b0; stroke-width: 0.8"/>
   </g>
  </g>
  <g id="grid3d_3">
   <g id="Line3DCollection_3">
    <path d="M 214.897775 175.032764 
L 126.617964 130.455503 
L 24.046063 167.37521 
" style="fill: none; stroke: #b0b0b0; stroke-width: 0.8"/>
    <path d="M 215.412018 161.988607 
L 126.656402 118.18036 
L 23.545105 154.460637 
" style="fill: none; stroke: #b0b0b0; stroke-width: 0.8"/>
    <path d="M 215.931797 148.804023 
L 126.695223 105.783142 
L 23.038825 141.408853 
" style="fill: none; stroke: #b0b0b0; stroke-width: 0.8"/>
    <path d="M 216.457203 135.47673 
L 126.734432 93.26202 
L 22.527137 128.217659 
" style="fill: none; stroke: #b0b0b0; stroke-width: 0.8"/>
    <path d="M 216.988326 122.004399 
L 126.774035 80.615126 
L 22.009954 114.88481 
" style="fill: none; stroke: #b0b0b0; stroke-width: 0.8"/>
    <path d="M 217.525261 108.384649 
L 126.814037 67.840556 
L 21.487188 101.408012 
" style="fill: none; stroke: #b0b0b0; stroke-width: 0.8"/>
    <path d="M 218.068103 94.615049 
L 126.854446 54.936368 
L 20.958747 87.784921 
" style="fill: none; stroke: #b0b0b0; stroke-width: 0.8"/>
    <path d="M 218.616951 80.69311 
L 126.895266 41.900577 
L 20.424538 74.013141 
" style="fill: none; stroke: #b0b0b0; stroke-width: 0.8"/>
   </g>
  </g>
  <g id="axis3d_1">
   <g id="line2d_1">
    <path d="M 24.046063 167.37521 
L 109.827887 218.467746 
" style="fill: none; stroke: #000000; stroke-width: 0.8; stroke-linecap: square"/>
   </g>
   <g id="xtick_1">
    <g id="line2d_2">
     <path d="M 24.921657 167.060049 
L 22.292028 168.006557 
" style="fill: none; stroke: #000000; stroke-width: 0.8; stroke-linecap: square"/>
    </g>
    <g id="text_1">
     <!-- −3 -->
     <g transform="translate(7.2 186.81182) scale(0.08 -0.08)">
      <defs>
       <path id="DejaVuSans-2212" d="M 678 2272 
L 4684 2272 
L 4684 1741 
L 678 1741 
L 678 2272 
z
" transform="scale(0.015625)"/>
       <path id="DejaVuSans-33" d="M 2597 2516 
Q 3050 2419 3304 2112 
Q 3559 1806 3559 1356 
Q 3559 666 3084 287 
Q 2609 -91 1734 -91 
Q 1441 -91 1130 -33 
Q 819 25 488 141 
L 488 750 
Q 750 597 1062 519 
Q 1375 441 1716 441 
Q 2309 441 2620 675 
Q 2931 909 2931 1356 
Q 2931 1769 2642 2001 
Q 2353 2234 1838 2234 
L 1294 2234 
L 1294 2753 
L 1863 2753 
Q 2328 2753 2575 2939 
Q 2822 3125 2822 3475 
Q 2822 3834 2567 4026 
Q 2313 4219 1838 4219 
Q 1578 4219 1281 4162 
Q 984 4106 628 3988 
L 628 4550 
Q 988 4650 1302 4700 
Q 1616 4750 1894 4750 
Q 2613 4750 3031 4423 
Q 3450 4097 3450 3541 
Q 3450 3153 3228 2886 
Q 3006 2619 2597 2516 
z
" transform="scale(0.015625)"/>
      </defs>
      <use xlink:href="#DejaVuSans-2212"/>
      <use xlink:href="#DejaVuSans-33" transform="translate(83.789062 0)"/>
     </g>
    </g>
   </g>
   <g id="xtick_2">
    <g id="line2d_3">
     <path d="M 38.249947 174.98713 
L 35.606426 175.959595 
" style="fill: none; stroke: #000000; stroke-width: 0.8; stroke-linecap: square"/>
    </g>
    <g id="text_2">
     <!-- −2 -->
     <g transform="translate(20.417123 194.955613) scale(0.08 -0.08)">
      <defs>
       <path id="DejaVuSans-32" d="M 1228 531 
L 3431 531 
L 3431 0 
L 469 0 
L 469 531 
Q 828 903 1448 1529 
Q 2069 2156 2228 2338 
Q 2531 2678 2651 2914 
Q 2772 3150 2772 3378 
Q 2772 3750 2511 3984 
Q 2250 4219 1831 4219 
Q 1534 4219 1204 4116 
Q 875 4013 500 3803 
L 500 4441 
Q 881 4594 1212 4672 
Q 1544 4750 1819 4750 
Q 2544 4750 2975 4387 
Q 3406 4025 3406 3419 
Q 3406 3131 3298 2873 
Q 3191 2616 2906 2266 
Q 2828 2175 2409 1742 
Q 1991 1309 1228 531 
z
" transform="scale(0.015625)"/>
      </defs>
      <use xlink:href="#DejaVuSans-2212"/>
      <use xlink:href="#DejaVuSans-32" transform="translate(83.789062 0)"/>
     </g>
    </g>
   </g>
   <g id="xtick_3">
    <g id="line2d_4">
     <path d="M 51.945982 183.132929 
L 49.288799 184.132433 
" style="fill: none; stroke: #000000; stroke-width: 0.8; stroke-linecap: square"/>
    </g>
    <g id="text_3">
     <!-- −1 -->
     <g transform="translate(34.000321 203.324963) scale(0.08 -0.08)">
      <defs>
       <path id="DejaVuSans-31" d="M 794 531 
L 1825 531 
L 1825 4091 
L 703 3866 
L 703 4441 
L 1819 4666 
L 2450 4666 
L 2450 531 
L 3481 531 
L 3481 0 
L 794 0 
L 794 531 
z
" transform="scale(0.015625)"/>
      </defs>
      <use xlink:href="#DejaVuSans-2212"/>
      <use xlink:href="#DejaVuSans-31" transform="translate(83.789062 0)"/>
     </g>
    </g>
   </g>
   <g id="xtick_4">
    <g id="line2d_5">
     <path d="M 66.025194 191.506625 
L 63.354616 192.534313 
" style="fill: none; stroke: #000000; stroke-width: 0.8; stroke-linecap: square"/>
    </g>
    <g id="text_4">
     <!-- 0 -->
     <g transform="translate(51.31689 211.929375) scale(0.08 -0.08)">
      <defs>
       <path id="DejaVuSans-30" d="M 2034 4250 
Q 1547 4250 1301 3770 
Q 1056 3291 1056 2328 
Q 1056 1369 1301 889 
Q 1547 409 2034 409 
Q 2525 409 2770 889 
Q 3016 1369 3016 2328 
Q 3016 3291 2770 3770 
Q 2525 4250 2034 4250 
z
M 2034 4750 
Q 2819 4750 3233 4129 
Q 3647 3509 3647 2328 
Q 3647 1150 3233 529 
Q 2819 -91 2034 -91 
Q 1250 -91 836 529 
Q 422 1150 422 2328 
Q 422 3509 836 4129 
Q 1250 4750 2034 4750 
z
" transform="scale(0.015625)"/>
      </defs>
      <use xlink:href="#DejaVuSans-30"/>
     </g>
    </g>
   </g>
   <g id="xtick_5">
    <g id="line2d_6">
     <path d="M 80.503892 200.117919 
L 77.820224 201.174998 
" style="fill: none; stroke: #000000; stroke-width: 0.8; stroke-linecap: square"/>
    </g>
    <g id="text_5">
     <!-- 1 -->
     <g transform="translate(65.679382 220.778892) scale(0.08 -0.08)">
      <use xlink:href="#DejaVuSans-31"/>
     </g>
    </g>
   </g>
   <g id="xtick_6">
    <g id="line2d_7">
     <path d="M 95.399324 208.977067 
L 92.702913 210.064817 
" style="fill: none; stroke: #000000; stroke-width: 0.8; stroke-linecap: square"/>
    </g>
    <g id="text_6">
     <!-- 2 -->
     <g transform="translate(80.456915 229.884138) scale(0.08 -0.08)">
      <use xlink:href="#DejaVuSans-32"/>
     </g>
    </g>
   </g>
   <g id="xtick_7">
    <g id="line2d_8">
     <path d="M 110.729743 218.094926 
L 108.020987 219.214703 
" style="fill: none; stroke: #000000; stroke-width: 0.8; stroke-linecap: square"/>
    </g>
    <g id="text_7">
     <!-- 3 -->
     <g transform="translate(95.667742 239.25636) scale(0.08 -0.08)">
      <use xlink:href="#DejaVuSans-33"/>
     </g>
    </g>
   </g>
   <g id="text_8">
    <!-- X -->
    <g transform="translate(37.448714 224.890022) scale(0.09 -0.09)">
     <defs>
      <path id="DejaVuSans-58" d="M 403 4666 
L 1081 4666 
L 2241 2931 
L 3406 4666 
L 4084 4666 
L 2584 2425 
L 4184 0 
L 3506 0 
L 2194 1984 
L 872 0 
L 191 0 
L 1856 2491 
L 403 4666 
z
" transform="scale(0.015625)"/>
     </defs>
     <use xlink:href="#DejaVuSans-58"/>
    </g>
   </g>
  </g>
  <g id="axis3d_2">
   <g id="line2d_9">
    <path d="M 214.897775 175.032764 
L 109.827887 218.467746 
" style="fill: none; stroke: #000000; stroke-width: 0.8; stroke-linecap: square"/>
   </g>
   <g id="xtick_8">
    <g id="line2d_10">
     <path d="M 109.081999 218.023487 
L 111.322807 219.358135 
" style="fill: none; stroke: #000000; stroke-width: 0.8; stroke-linecap: square"/>
    </g>
    <g id="text_9">
     <!-- −3 -->
     <g transform="translate(113.620774 240.202853) scale(0.08 -0.08)">
      <use xlink:href="#DejaVuSans-2212"/>
      <use xlink:href="#DejaVuSans-33" transform="translate(83.789062 0)"/>
     </g>
    </g>
   </g>
   <g id="xtick_9">
    <g id="line2d_11">
     <path d="M 127.650213 210.356656 
L 129.902491 211.659162 
" style="fill: none; stroke: #000000; stroke-width: 0.8; stroke-linecap: square"/>
    </g>
    <g id="text_10">
     <!-- −2 -->
     <g transform="translate(132.165316 232.297418) scale(0.08 -0.08)">
      <use xlink:href="#DejaVuSans-2212"/>
      <use xlink:href="#DejaVuSans-32" transform="translate(83.789062 0)"/>
     </g>
    </g>
   </g>
   <g id="xtick_10">
    <g id="line2d_12">
     <path d="M 145.774363 202.87318 
L 148.036922 204.144691 
" style="fill: none; stroke: #000000; stroke-width: 0.8; stroke-linecap: square"/>
    </g>
    <g id="text_11">
     <!-- −1 -->
     <g transform="translate(150.263921 224.582084) scale(0.08 -0.08)">
      <use xlink:href="#DejaVuSans-2212"/>
      <use xlink:href="#DejaVuSans-31" transform="translate(83.789062 0)"/>
     </g>
    </g>
   </g>
   <g id="xtick_11">
    <g id="line2d_13">
     <path d="M 163.470189 195.566559 
L 165.741916 196.808168 
" style="fill: none; stroke: #000000; stroke-width: 0.8; stroke-linecap: square"/>
    </g>
    <g id="text_12">
     <!-- 0 -->
     <g transform="translate(171.284358 217.050075) scale(0.08 -0.08)">
      <use xlink:href="#DejaVuSans-30"/>
     </g>
    </g>
   </g>
   <g id="xtick_12">
    <g id="line2d_14">
     <path d="M 180.752699 188.430596 
L 183.032549 189.643346 
" style="fill: none; stroke: #000000; stroke-width: 0.8; stroke-linecap: square"/>
    </g>
    <g id="text_13">
     <!-- 1 -->
     <g transform="translate(188.538024 209.694934) scale(0.08 -0.08)">
      <use xlink:href="#DejaVuSans-31"/>
     </g>
    </g>
   </g>
   <g id="xtick_13">
    <g id="line2d_15">
     <path d="M 197.636205 181.459383 
L 199.923198 182.644268 
" style="fill: none; stroke: #000000; stroke-width: 0.8; stroke-linecap: square"/>
    </g>
    <g id="text_14">
     <!-- 2 -->
     <g transform="translate(205.391239 202.510502) scale(0.08 -0.08)">
      <use xlink:href="#DejaVuSans-32"/>
     </g>
    </g>
   </g>
   <g id="xtick_14">
    <g id="line2d_16">
     <path d="M 214.134368 174.647278 
L 216.427585 175.805247 
" style="fill: none; stroke: #000000; stroke-width: 0.8; stroke-linecap: square"/>
    </g>
    <g id="text_15">
     <!-- 3 -->
     <g transform="translate(221.857784 195.490906) scale(0.08 -0.08)">
      <use xlink:href="#DejaVuSans-33"/>
     </g>
    </g>
   </g>
   <g id="text_16">
    <!-- Y -->
    <g transform="translate(182.471 231.236284) scale(0.09 -0.09)">
     <defs>
      <path id="DejaVuSans-59" d="M -13 4666 
L 666 4666 
L 1959 2747 
L 3244 4666 
L 3922 4666 
L 2272 2222 
L 2272 0 
L 1638 0 
L 1638 2222 
L -13 4666 
z
" transform="scale(0.015625)"/>
     </defs>
     <use xlink:href="#DejaVuSans-59"/>
    </g>
   </g>
  </g>
  <g id="axis3d_3">
   <g id="line2d_17">
    <path d="M 214.897775 175.032764 
L 218.616951 80.69311 
" style="fill: none; stroke: #000000; stroke-width: 0.8; stroke-linecap: square"/>
   </g>
   <g id="xtick_15">
    <g id="line2d_18">
     <path d="M 214.134368 174.647278 
L 216.427585 175.805247 
" style="fill: none; stroke: #000000; stroke-width: 0.8; stroke-linecap: square"/>
    </g>
    <g id="text_17">
     <!-- −2 -->
     <g transform="translate(228.933538 181.911272) scale(0.08 -0.08)">
      <use xlink:href="#DejaVuSans-2212"/>
      <use xlink:href="#DejaVuSans-32" transform="translate(83.789062 0)"/>
     </g>
    </g>
   </g>
   <g id="xtick_16">
    <g id="line2d_19">
     <path d="M 214.644189 161.60962 
L 216.950706 162.748077 
" style="fill: none; stroke: #000000; stroke-width: 0.8; stroke-linecap: square"/>
    </g>
    <g id="text_18">
     <!-- −1 -->
     <g transform="translate(229.555346 168.853642) scale(0.08 -0.08)">
      <use xlink:href="#DejaVuSans-2212"/>
      <use xlink:href="#DejaVuSans-31" transform="translate(83.789062 0)"/>
     </g>
    </g>
   </g>
   <g id="xtick_17">
    <g id="line2d_20">
     <path d="M 215.159495 148.431696 
L 217.479465 149.550152 
" style="fill: none; stroke: #000000; stroke-width: 0.8; stroke-linecap: square"/>
    </g>
    <g id="text_19">
     <!-- 0 -->
     <g transform="translate(233.535732 155.655246) scale(0.08 -0.08)">
      <use xlink:href="#DejaVuSans-30"/>
     </g>
    </g>
   </g>
   <g id="xtick_18">
    <g id="line2d_21">
     <path d="M 215.680375 135.111231 
L 218.013956 136.209185 
" style="fill: none; stroke: #000000; stroke-width: 0.8; stroke-linecap: square"/>
    </g>
    <g id="text_20">
     <!-- 1 -->
     <g transform="translate(234.171055 142.313796) scale(0.08 -0.08)">
      <use xlink:href="#DejaVuSans-31"/>
     </g>
    </g>
   </g>
   <g id="xtick_19">
    <g id="line2d_22">
     <path d="M 216.20692 121.645899 
L 218.554272 122.722837 
" style="fill: none; stroke: #000000; stroke-width: 0.8; stroke-linecap: square"/>
    </g>
    <g id="text_21">
     <!-- 2 -->
     <g transform="translate(234.813302 128.826954) scale(0.08 -0.08)">
      <use xlink:href="#DejaVuSans-32"/>
     </g>
    </g>
   </g>
   <g id="xtick_20">
    <g id="line2d_23">
     <path d="M 216.739222 108.033323 
L 219.100507 109.088718 
" style="fill: none; stroke: #000000; stroke-width: 0.8; stroke-linecap: square"/>
    </g>
    <g id="text_22">
     <!-- 3 -->
     <g transform="translate(235.462587 115.192328) scale(0.08 -0.08)">
      <use xlink:href="#DejaVuSans-33"/>
     </g>
    </g>
   </g>
   <g id="xtick_21">
    <g id="line2d_24">
     <path d="M 217.277377 94.271076 
L 219.652761 95.304388 
" style="fill: none; stroke: #000000; stroke-width: 0.8; stroke-linecap: square"/>
    </g>
    <g id="text_23">
     <!-- 4 -->
     <g transform="translate(236.119025 101.407477) scale(0.08 -0.08)">
      <defs>
       <path id="DejaVuSans-34" d="M 2419 4116 
L 825 1625 
L 2419 1625 
L 2419 4116 
z
M 2253 4666 
L 3047 4666 
L 3047 1625 
L 3713 1625 
L 3713 1100 
L 3047 1100 
L 3047 0 
L 2419 0 
L 2419 1100 
L 313 1100 
L 313 1709 
L 2253 4666 
z
" transform="scale(0.015625)"/>
      </defs>
      <use xlink:href="#DejaVuSans-34"/>
     </g>
    </g>
   </g>
   <g id="xtick_22">
    <g id="line2d_25">
     <path d="M 217.821482 80.356676 
L 220.211133 81.367348 
" style="fill: none; stroke: #000000; stroke-width: 0.8; stroke-linecap: square"/>
    </g>
    <g id="text_24">
     <!-- 5 -->
     <g transform="translate(236.782735 87.469905) scale(0.08 -0.08)">
      <defs>
       <path id="DejaVuSans-35" d="M 691 4666 
L 3169 4666 
L 3169 4134 
L 1269 4134 
L 1269 2991 
Q 1406 3038 1543 3061 
Q 1681 3084 1819 3084 
Q 2600 3084 3056 2656 
Q 3513 2228 3513 1497 
Q 3513 744 3044 326 
Q 2575 -91 1722 -91 
Q 1428 -91 1123 -41 
Q 819 9 494 109 
L 494 744 
Q 775 591 1075 516 
Q 1375 441 1709 441 
Q 2250 441 2565 725 
Q 2881 1009 2881 1497 
Q 2881 1984 2565 2268 
Q 2250 2553 1709 2553 
Q 1456 2553 1204 2497 
Q 953 2441 691 2322 
L 691 4666 
z
" transform="scale(0.015625)"/>
      </defs>
      <use xlink:href="#DejaVuSans-35"/>
     </g>
    </g>
   </g>
   <g id="text_25">
    <!-- Z -->
    <g transform="translate(257.872648 132.877767) scale(0.09 -0.09)">
     <defs>
      <path id="DejaVuSans-5a" d="M 359 4666 
L 4025 4666 
L 4025 4184 
L 1075 531 
L 4097 531 
L 4097 0 
L 288 0 
L 288 481 
L 3238 4134 
L 359 4134 
L 359 4666 
z
" transform="scale(0.015625)"/>
     </defs>
     <use xlink:href="#DejaVuSans-5a"/>
    </g>
   </g>
  </g>
  <g id="axes_1">
   <g id="Poly3DCollection_1">
    <path d="M 77.009455 148.311579 
L 86.022821 153.237819 
L 85.891347 143.392639 
L 76.843339 138.532458 
z
" clip-path="url(#p9bdc1d0411)" style="fill: #3e739f; fill-opacity: 0.5; stroke: #000000; stroke-opacity: 0.5; stroke-width: 0.1"/>
    <path d="M 76.843339 138.532458 
L 85.891347 143.392639 
L 85.758815 133.46828 
L 76.675898 128.675377 
z
" clip-path="url(#p9bdc1d0411)" style="fill: #3e739f; fill-opacity: 0.5; stroke: #000000; stroke-opacity: 0.5; stroke-width: 0.1"/>
    <path d="M 76.675898 128.675377 
L 85.758815 133.46828 
L 85.625214 123.463781 
L 76.507117 118.739397 
z
" clip-path="url(#p9bdc1d0411)" style="fill: #3e739f; fill-opacity: 0.5; stroke: #000000; stroke-opacity: 0.5; stroke-width: 0.1"/>
    <path d="M 86.022821 153.237819 
L 95.195088 158.250908 
L 95.099512 148.33885 
L 85.891347 143.392639 
z
" clip-path="url(#p9bdc1d0411)" style="fill: #3e739f; fill-opacity: 0.5; stroke: #000000; stroke-opacity: 0.5; stroke-width: 0.1"/>
    <path d="M 76.507117 118.739397 
L 85.625214 123.463781 
L 85.490529 113.37817 
L 76.33698 108.723569 
z
" clip-path="url(#p9bdc1d0411)" style="fill: #3e739f; fill-opacity: 0.5; stroke: #000000; stroke-opacity: 0.5; stroke-width: 0.1"/>
    <path d="M 85.891347 143.392639 
L 95.099512 148.33885 
L 95.00316 138.346366 
L 85.758815 133.46828 
z
" clip-path="url(#p9bdc1d0411)" style="fill: #3e739f; fill-opacity: 0.5; stroke: #000000; stroke-opacity: 0.5; stroke-width: 0.1"/>
    <path d="M 76.33698 108.723569 
L 85.490529 113.37817 
L 85.354748 103.210454 
L 76.16547 98.626925 
z
" clip-path="url(#p9bdc1d0411)" style="fill: #3e739f; fill-opacity: 0.5; stroke: #000000; stroke-opacity: 0.5; stroke-width: 0.1"/>
    <path d="M 85.758815 133.46828 
L 95.00316 138.346366 
L 94.906023 128.272473 
L 85.625214 123.463781 
z
" clip-path="url(#p9bdc1d0411)" style="fill: #3e739f; fill-opacity: 0.5; stroke: #000000; stroke-opacity: 0.5; stroke-width: 0.1"/>
    <path d="M 95.195088 158.250908 
L 104.530497 163.353161 
L 104.472125 153.373394 
L 95.099512 148.33885 
z
" clip-path="url(#p9bdc1d0411)" style="fill: #3e739f; fill-opacity: 0.5; stroke: #000000; stroke-opacity: 0.5; stroke-width: 0.1"/>
    <path d="M 76.16547 98.626925 
L 85.354748 103.210454 
L 85.217857 92.959628 
L 75.992571 88.448484 
z
" clip-path="url(#p9bdc1d0411)" style="fill: #3e739f; fill-opacity: 0.5; stroke: #000000; stroke-opacity: 0.5; stroke-width: 0.1"/>
    <path d="M 85.625214 123.463781 
L 94.906023 128.272473 
L 94.808092 118.116172 
L 85.490529 113.37817 
z
" clip-path="url(#p9bdc1d0411)" style="fill: #3e739f; fill-opacity: 0.5; stroke: #000000; stroke-opacity: 0.5; stroke-width: 0.1"/>
    <path d="M 95.099512 148.33885 
L 104.472125 153.373394 
L 104.413275 143.311925 
L 95.00316 138.346366 
z
" clip-path="url(#p9bdc1d0411)" style="fill: #3e739f; fill-opacity: 0.5; stroke: #000000; stroke-opacity: 0.5; stroke-width: 0.1"/>
    <path d="M 75.992571 88.448484 
L 85.217857 92.959628 
L 85.079843 82.624668 
L 75.818265 78.187248 
z
" clip-path="url(#p9bdc1d0411)" style="fill: #3e739f; fill-opacity: 0.5; stroke: #000000; stroke-opacity: 0.5; stroke-width: 0.1"/>
    <path d="M 85.490529 113.37817 
L 94.808092 118.116172 
L 94.709357 107.876448 
L 85.354748 103.210454 
z
" clip-path="url(#p9bdc1d0411)" style="fill: #3e739f; fill-opacity: 0.5; stroke: #000000; stroke-opacity: 0.5; stroke-width: 0.1"/>
    <path d="M 95.00316 138.346366 
L 104.413275 143.311925 
L 104.353941 133.167748 
L 94.906023 128.272473 
z
" clip-path="url(#p9bdc1d0411)" style="fill: #3e739f; fill-opacity: 0.5; stroke: #000000; stroke-opacity: 0.5; stroke-width: 0.1"/>
    <path d="M 104.530497 163.353161 
L 114.033439 168.54698 
L 114.01363 158.49866 
L 104.472125 153.373394 
z
" clip-path="url(#p9bdc1d0411)" style="fill: #3e739f; fill-opacity: 0.5; stroke: #000000; stroke-opacity: 0.5; stroke-width: 0.1"/>
    <path d="M 75.818265 78.187248 
L 85.079843 82.624668 
L 84.940691 72.204535 
L 75.642535 67.842202 
z
" clip-path="url(#p9bdc1d0411)" style="fill: #3e739f; fill-opacity: 0.5; stroke: #000000; stroke-opacity: 0.5; stroke-width: 0.1"/>
    <path d="M 85.354748 103.210454 
L 94.709357 107.876448 
L 94.609806 97.552269 
L 85.217857 92.959628 
z
" clip-path="url(#p9bdc1d0411)" style="fill: #3e739f; fill-opacity: 0.5; stroke: #000000; stroke-opacity: 0.5; stroke-width: 0.1"/>
    <path d="M 94.906023 128.272473 
L 104.353941 133.167748 
L 104.294117 122.939838 
L 94.808092 118.116172 
z
" clip-path="url(#p9bdc1d0411)" style="fill: #3e739f; fill-opacity: 0.5; stroke: #000000; stroke-opacity: 0.5; stroke-width: 0.1"/>
    <path d="M 104.472125 153.373394 
L 114.01363 158.49866 
L 113.993658 148.367333 
L 104.413275 143.311925 
z
" clip-path="url(#p9bdc1d0411)" style="fill: #3e739f; fill-opacity: 0.5; stroke: #000000; stroke-opacity: 0.5; stroke-width: 0.1"/>
    <path d="M 75.642535 67.842202 
L 84.940691 72.204535 
L 84.800387 61.69817 
L 75.465364 57.412315 
z
" clip-path="url(#p9bdc1d0411)" style="fill: #3e739f; fill-opacity: 0.5; stroke: #000000; stroke-opacity: 0.5; stroke-width: 0.1"/>
    <path d="M 85.217857 92.959628 
L 94.609806 97.552269 
L 94.509432 87.142586 
L 85.079843 82.624668 
z
" clip-path="url(#p9bdc1d0411)" style="fill: #3e739f; fill-opacity: 0.5; stroke: #000000; stroke-opacity: 0.5; stroke-width: 0.1"/>
    <path d="M 94.808092 118.116172 
L 104.294117 122.939838 
L 104.233797 112.627153 
L 94.709357 107.876448 
z
" clip-path="url(#p9bdc1d0411)" style="fill: #3e739f; fill-opacity: 0.5; stroke: #000000; stroke-opacity: 0.5; stroke-width: 0.1"/>
    <path d="M 104.413275 143.311925 
L 113.993658 148.367333 
L 113.97352 138.151967 
L 104.353941 133.167748 
z
" clip-path="url(#p9bdc1d0411)" style="fill: #3e739f; fill-opacity: 0.5; stroke: #000000; stroke-opacity: 0.5; stroke-width: 0.1"/>
    <path d="M 114.033439 168.54698 
L 123.708466 173.83485 
L 123.728636 163.717122 
L 114.01363 158.49866 
z
" clip-path="url(#p9bdc1d0411)" style="fill: #3e739f; fill-opacity: 0.5; stroke: #000000; stroke-opacity: 0.5; stroke-width: 0.1"/>
    <path d="M 85.079843 82.624668 
L 94.509432 87.142586 
L 94.408223 76.646332 
L 84.940691 72.204535 
z
" clip-path="url(#p9bdc1d0411)" style="fill: #3e739f; fill-opacity: 0.5; stroke: #000000; stroke-opacity: 0.5; stroke-width: 0.1"/>
    <path d="M 94.709357 107.876448 
L 104.233797 112.627153 
L 104.172976 102.228637 
L 94.609806 97.552269 
z
" clip-path="url(#p9bdc1d0411)" style="fill: #3e739f; fill-opacity: 0.5; stroke: #000000; stroke-opacity: 0.5; stroke-width: 0.1"/>
    <path d="M 104.353941 133.167748 
L 113.97352 138.151967 
L 113.953214 127.851511 
L 104.294117 122.939838 
z
" clip-path="url(#p9bdc1d0411)" style="fill: #3e739f; fill-opacity: 0.5; stroke: #000000; stroke-opacity: 0.5; stroke-width: 0.1"/>
    <path d="M 114.01363 158.49866 
L 123.728636 163.717122 
L 123.748974 153.51505 
L 113.993658 148.367333 
z
" clip-path="url(#p9bdc1d0411)" style="fill: #3e739f; fill-opacity: 0.5; stroke: #000000; stroke-opacity: 0.5; stroke-width: 0.1"/>
    <path d="M 84.940691 72.204535 
L 94.408223 76.646332 
L 94.306168 66.062423 
L 84.800387 61.69817 
z
" clip-path="url(#p9bdc1d0411)" style="fill: #3e739f; fill-opacity: 0.5; stroke: #000000; stroke-opacity: 0.5; stroke-width: 0.1"/>
    <path d="M 94.609806 97.552269 
L 104.172976 102.228637 
L 104.111646 91.743212 
L 94.509432 87.142586 
z
" clip-path="url(#p9bdc1d0411)" style="fill: #3e739f; fill-opacity: 0.5; stroke: #000000; stroke-opacity: 0.5; stroke-width: 0.1"/>
    <path d="M 104.294117 122.939838 
L 113.953214 127.851511 
L 113.932738 117.464897 
L 104.233797 112.627153 
z
" clip-path="url(#p9bdc1d0411)" style="fill: #3e739f; fill-opacity: 0.5; stroke: #000000; stroke-opacity: 0.5; stroke-width: 0.1"/>
    <path d="M 113.993658 148.367333 
L 123.748974 153.51505 
L 123.769482 143.227576 
L 113.97352 138.151967 
z
" clip-path="url(#p9bdc1d0411)" style="fill: #3e739f; fill-opacity: 0.5; stroke: #000000; stroke-opacity: 0.5; stroke-width: 0.1"/>
    <path d="M 123.708466 173.83485 
L 133.560293 179.219351 
L 133.621916 169.031345 
L 123.728636 163.717122 
z
" clip-path="url(#p9bdc1d0411)" style="fill: #3e739f; fill-opacity: 0.5; stroke: #000000; stroke-opacity: 0.5; stroke-width: 0.1"/>
    <path d="M 94.509432 87.142586 
L 104.111646 91.743212 
L 104.049801 81.169785 
L 94.408223 76.646332 
z
" clip-path="url(#p9bdc1d0411)" style="fill: #3e739f; fill-opacity: 0.5; stroke: #000000; stroke-opacity: 0.5; stroke-width: 0.1"/>
    <path d="M 104.233797 112.627153 
L 113.932738 117.464897 
L 113.91209 106.991041 
L 104.172976 102.228637 
z
" clip-path="url(#p9bdc1d0411)" style="fill: #3e739f; fill-opacity: 0.5; stroke: #000000; stroke-opacity: 0.5; stroke-width: 0.1"/>
    <path d="M 113.97352 138.151967 
L 123.769482 143.227576 
L 123.790163 132.853622 
L 113.953214 127.851511 
z
" clip-path="url(#p9bdc1d0411)" style="fill: #3e739f; fill-opacity: 0.5; stroke: #000000; stroke-opacity: 0.5; stroke-width: 0.1"/>
    <path d="M 123.728636 163.717122 
L 133.621916 169.031345 
L 133.684057 158.757627 
L 123.748974 153.51505 
z
" clip-path="url(#p9bdc1d0411)" style="fill: #3e739f; fill-opacity: 0.5; stroke: #000000; stroke-opacity: 0.5; stroke-width: 0.1"/>
    <path d="M 94.408223 76.646332 
L 104.049801 81.169785 
L 103.987435 70.507244 
L 94.306168 66.062423 
z
" clip-path="url(#p9bdc1d0411)" style="fill: #3e739f; fill-opacity: 0.5; stroke: #000000; stroke-opacity: 0.5; stroke-width: 0.1"/>
    <path d="M 104.172976 102.228637 
L 113.91209 106.991041 
L 113.891268 96.428839 
L 104.111646 91.743212 
z
" clip-path="url(#p9bdc1d0411)" style="fill: #3e739f; fill-opacity: 0.5; stroke: #000000; stroke-opacity: 0.5; stroke-width: 0.1"/>
    <path d="M 113.953214 127.851511 
L 123.790163 132.853622 
L 123.811018 122.392095 
L 113.932738 117.464897 
z
" clip-path="url(#p9bdc1d0411)" style="fill: #3e739f; fill-opacity: 0.5; stroke: #000000; stroke-opacity: 0.5; stroke-width: 0.1"/>
    <path d="M 123.748974 153.51505 
L 133.684057 158.757627 
L 133.746724 148.397111 
L 123.769482 143.227576 
z
" clip-path="url(#p9bdc1d0411)" style="fill: #3e739f; fill-opacity: 0.5; stroke: #000000; stroke-opacity: 0.5; stroke-width: 0.1"/>
    <path d="M 133.560293 179.219351 
L 143.593811 184.703155 
L 143.698423 174.44399 
L 133.621916 169.031345 
z
" clip-path="url(#p9bdc1d0411)" style="fill: #3e739f; fill-opacity: 0.5; stroke: #000000; stroke-opacity: 0.5; stroke-width: 0.1"/>
    <path d="M 104.111646 91.743212 
L 113.891268 96.428839 
L 113.87027 85.777167 
L 104.049801 81.169785 
z
" clip-path="url(#p9bdc1d0411)" style="fill: #3e739f; fill-opacity: 0.5; stroke: #000000; stroke-opacity: 0.5; stroke-width: 0.1"/>
    <path d="M 113.932738 117.464897 
L 123.811018 122.392095 
L 123.83205 111.841879 
L 113.91209 106.991041 
z
" clip-path="url(#p9bdc1d0411)" style="fill: #3e739f; fill-opacity: 0.5; stroke: #000000; stroke-opacity: 0.5; stroke-width: 0.1"/>
    <path d="M 123.769482 143.227576 
L 133.746724 148.397111 
L 133.809922 137.948693 
L 123.790163 132.853622 
z
" clip-path="url(#p9bdc1d0411)" style="fill: #3e739f; fill-opacity: 0.5; stroke: #000000; stroke-opacity: 0.5; stroke-width: 0.1"/>
    <path d="M 133.621916 169.031345 
L 143.698423 174.44399 
L 143.803924 164.097711 
L 133.684057 158.757627 
z
" clip-path="url(#p9bdc1d0411)" style="fill: #3e739f; fill-opacity: 0.5; stroke: #000000; stroke-opacity: 0.5; stroke-width: 0.1"/>
    <path d="M 104.049801 81.169785 
L 113.87027 85.777167 
L 113.849093 75.034885 
L 103.987435 70.507244 
z
" clip-path="url(#p9bdc1d0411)" style="fill: #3e739f; fill-opacity: 0.5; stroke: #000000; stroke-opacity: 0.5; stroke-width: 0.1"/>
    <path d="M 113.91209 106.991041 
L 123.83205 111.841879 
L 123.853262 101.201843 
L 113.891268 96.428839 
z
" clip-path="url(#p9bdc1d0411)" style="fill: #3e739f; fill-opacity: 0.5; stroke: #000000; stroke-opacity: 0.5; stroke-width: 0.1"/>
    <path d="M 123.790163 132.853622 
L 133.809922 137.948693 
L 133.873659 127.411249 
L 123.811018 122.392095 
z
" clip-path="url(#p9bdc1d0411)" style="fill: #3e739f; fill-opacity: 0.5; stroke: #000000; stroke-opacity: 0.5; stroke-width: 0.1"/>
    <path d="M 133.684057 158.757627 
L 143.803924 164.097711 
L 143.910324 153.663205 
L 133.746724 148.397111 
z
" clip-path="url(#p9bdc1d0411)" style="fill: #3e739f; fill-opacity: 0.5; stroke: #000000; stroke-opacity: 0.5; stroke-width: 0.1"/>
    <path d="M 143.593811 184.703155 
L 153.814095 190.289035 
L 153.963297 179.957816 
L 143.698423 174.44399 
z
" clip-path="url(#p9bdc1d0411)" style="fill: #3e739f; fill-opacity: 0.5; stroke: #000000; stroke-opacity: 0.5; stroke-width: 0.1"/>
    <path d="M 113.891268 96.428839 
L 123.853262 101.201843 
L 123.874654 90.470835 
L 113.87027 85.777167 
z
" clip-path="url(#p9bdc1d0411)" style="fill: #3e739f; fill-opacity: 0.5; stroke: #000000; stroke-opacity: 0.5; stroke-width: 0.1"/>
    <path d="M 123.811018 122.392095 
L 133.873659 127.411249 
L 133.937941 116.783636 
L 123.83205 111.841879 
z
" clip-path="url(#p9bdc1d0411)" style="fill: #3e739f; fill-opacity: 0.5; stroke: #000000; stroke-opacity: 0.5; stroke-width: 0.1"/>
    <path d="M 133.746724 148.397111 
L 143.910324 153.663205 
L 144.017635 143.139339 
L 133.809922 137.948693 
z
" clip-path="url(#p9bdc1d0411)" style="fill: #3e739f; fill-opacity: 0.5; stroke: #000000; stroke-opacity: 0.5; stroke-width: 0.1"/>
    <path d="M 143.698423 174.44399 
L 153.963297 179.957816 
L 154.113777 169.538048 
L 143.803924 164.097711 
z
" clip-path="url(#p9bdc1d0411)" style="fill: #3e739f; fill-opacity: 0.5; stroke: #000000; stroke-opacity: 0.5; stroke-width: 0.1"/>
    <path d="M 113.87027 85.777167 
L 123.874654 90.470835 
L 123.89623 79.647683 
L 113.849093 75.034885 
z
" clip-path="url(#p9bdc1d0411)" style="fill: #3e739f; fill-opacity: 0.5; stroke: #000000; stroke-opacity: 0.5; stroke-width: 0.1"/>
    <path d="M 123.83205 111.841879 
L 133.937941 116.783636 
L 134.002776 106.064693 
L 123.853262 101.201843 
z
" clip-path="url(#p9bdc1d0411)" style="fill: #3e739f; fill-opacity: 0.5; stroke: #000000; stroke-opacity: 0.5; stroke-width: 0.1"/>
    <path d="M 133.809922 137.948693 
L 144.017635 143.139339 
L 144.12587 132.524959 
L 133.873659 127.411249 
z
" clip-path="url(#p9bdc1d0411)" style="fill: #3e739f; fill-opacity: 0.5; stroke: #000000; stroke-opacity: 0.5; stroke-width: 0.1"/>
    <path d="M 143.803924 164.097711 
L 154.113777 169.538048 
L 154.265553 159.028589 
L 143.910324 153.663205 
z
" clip-path="url(#p9bdc1d0411)" style="fill: #3e739f; fill-opacity: 0.5; stroke: #000000; stroke-opacity: 0.5; stroke-width: 0.1"/>
    <path d="M 153.814095 190.289035 
L 164.226407 195.979868 
L 164.421867 185.575687 
L 153.963297 179.957816 
z
" clip-path="url(#p9bdc1d0411)" style="fill: #3e739f; fill-opacity: 0.5; stroke: #000000; stroke-opacity: 0.5; stroke-width: 0.1"/>
    <path d="M 123.853262 101.201843 
L 134.002776 106.064693 
L 134.06817 95.253236 
L 123.874654 90.470835 
z
" clip-path="url(#p9bdc1d0411)" style="fill: #3e739f; fill-opacity: 0.5; stroke: #000000; stroke-opacity: 0.5; stroke-width: 0.1"/>
    <path d="M 133.873659 127.411249 
L 144.12587 132.524959 
L 144.235039 121.818893 
L 133.937941 116.783636 
z
" clip-path="url(#p9bdc1d0411)" style="fill: #3e739f; fill-opacity: 0.5; stroke: #000000; stroke-opacity: 0.5; stroke-width: 0.1"/>
    <path d="M 143.910324 153.663205 
L 154.265553 159.028589 
L 154.418641 148.428275 
L 144.017635 143.139339 
z
" clip-path="url(#p9bdc1d0411)" style="fill: #3e739f; fill-opacity: 0.5; stroke: #000000; stroke-opacity: 0.5; stroke-width: 0.1"/>
    <path d="M 153.963297 179.957816 
L 164.421867 185.575687 
L 164.619018 175.081487 
L 154.113777 169.538048 
z
" clip-path="url(#p9bdc1d0411)" style="fill: #3e739f; fill-opacity: 0.5; stroke: #000000; stroke-opacity: 0.5; stroke-width: 0.1"/>
    <path d="M 123.874654 90.470835 
L 134.06817 95.253236 
L 134.134131 84.348063 
L 123.89623 79.647683 
z
" clip-path="url(#p9bdc1d0411)" style="fill: #3e739f; fill-opacity: 0.5; stroke: #000000; stroke-opacity: 0.5; stroke-width: 0.1"/>
    <path d="M 133.937941 116.783636 
L 144.235039 121.818893 
L 144.345155 111.019948 
L 134.002776 106.064693 
z
" clip-path="url(#p9bdc1d0411)" style="fill: #3e739f; fill-opacity: 0.5; stroke: #000000; stroke-opacity: 0.5; stroke-width: 0.1"/>
    <path d="M 144.017635 143.139339 
L 154.418641 148.428275 
L 154.573058 137.735923 
L 144.12587 132.524959 
z
" clip-path="url(#p9bdc1d0411)" style="fill: #3e739f; fill-opacity: 0.5; stroke: #000000; stroke-opacity: 0.5; stroke-width: 0.1"/>
    <path d="M 154.113777 169.538048 
L 164.619018 175.081487 
L 164.817882 164.496096 
L 154.265553 159.028589 
z
" clip-path="url(#p9bdc1d0411)" style="fill: #3e739f; fill-opacity: 0.5; stroke: #000000; stroke-opacity: 0.5; stroke-width: 0.1"/>
    <path d="M 134.002776 106.064693 
L 144.345155 111.019948 
L 144.456231 100.12691 
L 134.06817 95.253236 
z
" clip-path="url(#p9bdc1d0411)" style="fill: #3e739f; fill-opacity: 0.5; stroke: #000000; stroke-opacity: 0.5; stroke-width: 0.1"/>
    <path d="M 144.12587 132.524959 
L 154.573058 137.735923 
L 154.728822 126.950329 
L 144.235039 121.818893 
z
" clip-path="url(#p9bdc1d0411)" style="fill: #3e739f; fill-opacity: 0.5; stroke: #000000; stroke-opacity: 0.5; stroke-width: 0.1"/>
    <path d="M 154.265553 159.028589 
L 164.817882 164.496096 
L 165.018482 153.818318 
L 154.418641 148.428275 
z
" clip-path="url(#p9bdc1d0411)" style="fill: #3e739f; fill-opacity: 0.5; stroke: #000000; stroke-opacity: 0.5; stroke-width: 0.1"/>
    <path d="M 134.06817 95.253236 
L 144.456231 100.12691 
L 144.568278 89.138543 
L 134.134131 84.348063 
z
" clip-path="url(#p9bdc1d0411)" style="fill: #3e739f; fill-opacity: 0.5; stroke: #000000; stroke-opacity: 0.5; stroke-width: 0.1"/>
    <path d="M 144.235039 121.818893 
L 154.728822 126.950329 
L 154.88595 116.070269 
L 144.345155 111.019948 
z
" clip-path="url(#p9bdc1d0411)" style="fill: #3e739f; fill-opacity: 0.5; stroke: #000000; stroke-opacity: 0.5; stroke-width: 0.1"/>
    <path d="M 154.418641 148.428275 
L 165.018482 153.818318 
L 165.22084 143.04694 
L 154.573058 137.735923 
z
" clip-path="url(#p9bdc1d0411)" style="fill: #3e739f; fill-opacity: 0.5; stroke: #000000; stroke-opacity: 0.5; stroke-width: 0.1"/>
    <path d="M 144.345155 111.019948 
L 154.88595 116.070269 
L 155.04446 105.094495 
L 144.456231 100.12691 
z
" clip-path="url(#p9bdc1d0411)" style="fill: #3e739f; fill-opacity: 0.5; stroke: #000000; stroke-opacity: 0.5; stroke-width: 0.1"/>
    <path d="M 154.573058 137.735923 
L 165.22084 143.04694 
L 165.42498 132.180726 
L 154.728822 126.950329 
z
" clip-path="url(#p9bdc1d0411)" style="fill: #3e739f; fill-opacity: 0.5; stroke: #000000; stroke-opacity: 0.5; stroke-width: 0.1"/>
    <path d="M 144.456231 100.12691 
L 155.04446 105.094495 
L 155.204371 94.021739 
L 144.568278 89.138543 
z
" clip-path="url(#p9bdc1d0411)" style="fill: #3e739f; fill-opacity: 0.5; stroke: #000000; stroke-opacity: 0.5; stroke-width: 0.1"/>
    <path d="M 154.728822 126.950329 
L 165.42498 132.180726 
L 165.630926 121.218417 
L 154.88595 116.070269 
z
" clip-path="url(#p9bdc1d0411)" style="fill: #3e739f; fill-opacity: 0.5; stroke: #000000; stroke-opacity: 0.5; stroke-width: 0.1"/>
    <path d="M 154.88595 116.070269 
L 165.630926 121.218417 
L 165.8387 110.158732 
L 155.04446 105.094495 
z
" clip-path="url(#p9bdc1d0411)" style="fill: #3e739f; fill-opacity: 0.5; stroke: #000000; stroke-opacity: 0.5; stroke-width: 0.1"/>
    <path d="M 155.04446 105.094495 
L 165.8387 110.158732 
L 166.048329 99.00037 
L 155.204371 94.021739 
z
" clip-path="url(#p9bdc1d0411)" style="fill: #3e739f; fill-opacity: 0.5; stroke: #000000; stroke-opacity: 0.5; stroke-width: 0.1"/>
   </g>
   <g id="text_26">
    <!-- 2 Paralelos, 1 Secante (SI) -->
    <g transform="translate(50.33046 14.798437) scale(0.1 -0.1)">
     <defs>
      <path id="DejaVuSans-20" transform="scale(0.015625)"/>
      <path id="DejaVuSans-50" d="M 1259 4147 
L 1259 2394 
L 2053 2394 
Q 2494 2394 2734 2622 
Q 2975 2850 2975 3272 
Q 2975 3691 2734 3919 
Q 2494 4147 2053 4147 
L 1259 4147 
z
M 628 4666 
L 2053 4666 
Q 2838 4666 3239 4311 
Q 3641 3956 3641 3272 
Q 3641 2581 3239 2228 
Q 2838 1875 2053 1875 
L 1259 1875 
L 1259 0 
L 628 0 
L 628 4666 
z
" transform="scale(0.015625)"/>
      <path id="DejaVuSans-61" d="M 2194 1759 
Q 1497 1759 1228 1600 
Q 959 1441 959 1056 
Q 959 750 1161 570 
Q 1363 391 1709 391 
Q 2188 391 2477 730 
Q 2766 1069 2766 1631 
L 2766 1759 
L 2194 1759 
z
M 3341 1997 
L 3341 0 
L 2766 0 
L 2766 531 
Q 2569 213 2275 61 
Q 1981 -91 1556 -91 
Q 1019 -91 701 211 
Q 384 513 384 1019 
Q 384 1609 779 1909 
Q 1175 2209 1959 2209 
L 2766 2209 
L 2766 2266 
Q 2766 2663 2505 2880 
Q 2244 3097 1772 3097 
Q 1472 3097 1187 3025 
Q 903 2953 641 2809 
L 641 3341 
Q 956 3463 1253 3523 
Q 1550 3584 1831 3584 
Q 2591 3584 2966 3190 
Q 3341 2797 3341 1997 
z
" transform="scale(0.015625)"/>
      <path id="DejaVuSans-72" d="M 2631 2963 
Q 2534 3019 2420 3045 
Q 2306 3072 2169 3072 
Q 1681 3072 1420 2755 
Q 1159 2438 1159 1844 
L 1159 0 
L 581 0 
L 581 3500 
L 1159 3500 
L 1159 2956 
Q 1341 3275 1631 3429 
Q 1922 3584 2338 3584 
Q 2397 3584 2469 3576 
Q 2541 3569 2628 3553 
L 2631 2963 
z
" transform="scale(0.015625)"/>
      <path id="DejaVuSans-6c" d="M 603 4863 
L 1178 4863 
L 1178 0 
L 603 0 
L 603 4863 
z
" transform="scale(0.015625)"/>
      <path id="DejaVuSans-65" d="M 3597 1894 
L 3597 1613 
L 953 1613 
Q 991 1019 1311 708 
Q 1631 397 2203 397 
Q 2534 397 2845 478 
Q 3156 559 3463 722 
L 3463 178 
Q 3153 47 2828 -22 
Q 2503 -91 2169 -91 
Q 1331 -91 842 396 
Q 353 884 353 1716 
Q 353 2575 817 3079 
Q 1281 3584 2069 3584 
Q 2775 3584 3186 3129 
Q 3597 2675 3597 1894 
z
M 3022 2063 
Q 3016 2534 2758 2815 
Q 2500 3097 2075 3097 
Q 1594 3097 1305 2825 
Q 1016 2553 972 2059 
L 3022 2063 
z
" transform="scale(0.015625)"/>
      <path id="DejaVuSans-6f" d="M 1959 3097 
Q 1497 3097 1228 2736 
Q 959 2375 959 1747 
Q 959 1119 1226 758 
Q 1494 397 1959 397 
Q 2419 397 2687 759 
Q 2956 1122 2956 1747 
Q 2956 2369 2687 2733 
Q 2419 3097 1959 3097 
z
M 1959 3584 
Q 2709 3584 3137 3096 
Q 3566 2609 3566 1747 
Q 3566 888 3137 398 
Q 2709 -91 1959 -91 
Q 1206 -91 779 398 
Q 353 888 353 1747 
Q 353 2609 779 3096 
Q 1206 3584 1959 3584 
z
" transform="scale(0.015625)"/>
      <path id="DejaVuSans-73" d="M 2834 3397 
L 2834 2853 
Q 2591 2978 2328 3040 
Q 2066 3103 1784 3103 
Q 1356 3103 1142 2972 
Q 928 2841 928 2578 
Q 928 2378 1081 2264 
Q 1234 2150 1697 2047 
L 1894 2003 
Q 2506 1872 2764 1633 
Q 3022 1394 3022 966 
Q 3022 478 2636 193 
Q 2250 -91 1575 -91 
Q 1294 -91 989 -36 
Q 684 19 347 128 
L 347 722 
Q 666 556 975 473 
Q 1284 391 1588 391 
Q 1994 391 2212 530 
Q 2431 669 2431 922 
Q 2431 1156 2273 1281 
Q 2116 1406 1581 1522 
L 1381 1569 
Q 847 1681 609 1914 
Q 372 2147 372 2553 
Q 372 3047 722 3315 
Q 1072 3584 1716 3584 
Q 2034 3584 2315 3537 
Q 2597 3491 2834 3397 
z
" transform="scale(0.015625)"/>
      <path id="DejaVuSans-2c" d="M 750 794 
L 1409 794 
L 1409 256 
L 897 -744 
L 494 -744 
L 750 256 
L 750 794 
z
" transform="scale(0.015625)"/>
      <path id="DejaVuSans-53" d="M 3425 4513 
L 3425 3897 
Q 3066 4069 2747 4153 
Q 2428 4238 2131 4238 
Q 1616 4238 1336 4038 
Q 1056 3838 1056 3469 
Q 1056 3159 1242 3001 
Q 1428 2844 1947 2747 
L 2328 2669 
Q 3034 2534 3370 2195 
Q 3706 1856 3706 1288 
Q 3706 609 3251 259 
Q 2797 -91 1919 -91 
Q 1588 -91 1214 -16 
Q 841 59 441 206 
L 441 856 
Q 825 641 1194 531 
Q 1563 422 1919 422 
Q 2459 422 2753 634 
Q 3047 847 3047 1241 
Q 3047 1584 2836 1778 
Q 2625 1972 2144 2069 
L 1759 2144 
Q 1053 2284 737 2584 
Q 422 2884 422 3419 
Q 422 4038 858 4394 
Q 1294 4750 2059 4750 
Q 2388 4750 2728 4690 
Q 3069 4631 3425 4513 
z
" transform="scale(0.015625)"/>
      <path id="DejaVuSans-63" d="M 3122 3366 
L 3122 2828 
Q 2878 2963 2633 3030 
Q 2388 3097 2138 3097 
Q 1578 3097 1268 2742 
Q 959 2388 959 1747 
Q 959 1106 1268 751 
Q 1578 397 2138 397 
Q 2388 397 2633 464 
Q 2878 531 3122 666 
L 3122 134 
Q 2881 22 2623 -34 
Q 2366 -91 2075 -91 
Q 1284 -91 818 406 
Q 353 903 353 1747 
Q 353 2603 823 3093 
Q 1294 3584 2113 3584 
Q 2378 3584 2631 3529 
Q 2884 3475 3122 3366 
z
" transform="scale(0.015625)"/>
      <path id="DejaVuSans-6e" d="M 3513 2113 
L 3513 0 
L 2938 0 
L 2938 2094 
Q 2938 2591 2744 2837 
Q 2550 3084 2163 3084 
Q 1697 3084 1428 2787 
Q 1159 2491 1159 1978 
L 1159 0 
L 581 0 
L 581 3500 
L 1159 3500 
L 1159 2956 
Q 1366 3272 1645 3428 
Q 1925 3584 2291 3584 
Q 2894 3584 3203 3211 
Q 3513 2838 3513 2113 
z
" transform="scale(0.015625)"/>
      <path id="DejaVuSans-74" d="M 1172 4494 
L 1172 3500 
L 2356 3500 
L 2356 3053 
L 1172 3053 
L 1172 1153 
Q 1172 725 1289 603 
Q 1406 481 1766 481 
L 2356 481 
L 2356 0 
L 1766 0 
Q 1100 0 847 248 
Q 594 497 594 1153 
L 594 3053 
L 172 3053 
L 172 3500 
L 594 3500 
L 594 4494 
L 1172 4494 
z
" transform="scale(0.015625)"/>
      <path id="DejaVuSans-28" d="M 1984 4856 
Q 1566 4138 1362 3434 
Q 1159 2731 1159 2009 
Q 1159 1288 1364 580 
Q 1569 -128 1984 -844 
L 1484 -844 
Q 1016 -109 783 600 
Q 550 1309 550 2009 
Q 550 2706 781 3412 
Q 1013 4119 1484 4856 
L 1984 4856 
z
" transform="scale(0.015625)"/>
      <path id="DejaVuSans-49" d="M 628 4666 
L 1259 4666 
L 1259 0 
L 628 0 
L 628 4666 
z
" transform="scale(0.015625)"/>
      <path id="DejaVuSans-29" d="M 513 4856 
L 1013 4856 
Q 1481 4119 1714 3412 
Q 1947 2706 1947 2009 
Q 1947 1309 1714 600 
Q 1481 -109 1013 -844 
L 513 -844 
Q 928 -128 1133 580 
Q 1338 1288 1338 2009 
Q 1338 2731 1133 3434 
Q 928 4138 513 4856 
z
" transform="scale(0.015625)"/>
     </defs>
     <use xlink:href="#DejaVuSans-32"/>
     <use xlink:href="#DejaVuSans-20" transform="translate(63.623047 0)"/>
     <use xlink:href="#DejaVuSans-50" transform="translate(95.410156 0)"/>
     <use xlink:href="#DejaVuSans-61" transform="translate(151.212891 0)"/>
     <use xlink:href="#DejaVuSans-72" transform="translate(212.492188 0)"/>
     <use xlink:href="#DejaVuSans-61" transform="translate(253.605469 0)"/>
     <use xlink:href="#DejaVuSans-6c" transform="translate(314.884766 0)"/>
     <use xlink:href="#DejaVuSans-65" transform="translate(342.667969 0)"/>
     <use xlink:href="#DejaVuSans-6c" transform="translate(404.191406 0)"/>
     <use xlink:href="#DejaVuSans-6f" transform="translate(431.974609 0)"/>
     <use xlink:href="#DejaVuSans-73" transform="translate(493.15625 0)"/>
     <use xlink:href="#DejaVuSans-2c" transform="translate(545.255859 0)"/>
     <use xlink:href="#DejaVuSans-20" transform="translate(577.042969 0)"/>
     <use xlink:href="#DejaVuSans-31" transform="translate(608.830078 0)"/>
     <use xlink:href="#DejaVuSans-20" transform="translate(672.453125 0)"/>
     <use xlink:href="#DejaVuSans-53" transform="translate(704.240234 0)"/>
     <use xlink:href="#DejaVuSans-65" transform="translate(767.716797 0)"/>
     <use xlink:href="#DejaVuSans-63" transform="translate(829.240234 0)"/>
     <use xlink:href="#DejaVuSans-61" transform="translate(884.220703 0)"/>
     <use xlink:href="#DejaVuSans-6e" transform="translate(945.5 0)"/>
     <use xlink:href="#DejaVuSans-74" transform="translate(1008.878906 0)"/>
     <use xlink:href="#DejaVuSans-65" transform="translate(1048.087891 0)"/>
     <use xlink:href="#DejaVuSans-20" transform="translate(1109.611328 0)"/>
     <use xlink:href="#DejaVuSans-28" transform="translate(1141.398438 0)"/>
     <use xlink:href="#DejaVuSans-53" transform="translate(1180.412109 0)"/>
     <use xlink:href="#DejaVuSans-49" transform="translate(1243.888672 0)"/>
     <use xlink:href="#DejaVuSans-29" transform="translate(1273.380859 0)"/>
    </g>
   </g>
   <g id="Poly3DCollection_2">
    <path d="M 115.83546 107.843148 
L 125.05659 110.664133 
L 135.961318 106.048537 
L 126.703034 103.288889 
z
" clip-path="url(#p9bdc1d0411)" style="fill: #d4b300; fill-opacity: 0.6; stroke: #000000; stroke-opacity: 0.6; stroke-width: 0.1"/>
    <path d="M 104.818421 112.460044 
L 114.000483 115.343804 
L 125.05659 110.664133 
L 115.83546 107.843148 
z
" clip-path="url(#p9bdc1d0411)" style="fill: #d4b300; fill-opacity: 0.6; stroke: #000000; stroke-opacity: 0.6; stroke-width: 0.1"/>
    <path d="M 125.05659 110.664133 
L 134.450678 113.538031 
L 145.392057 108.859589 
L 135.961318 106.048537 
z
" clip-path="url(#p9bdc1d0411)" style="fill: #d4b300; fill-opacity: 0.6; stroke: #000000; stroke-opacity: 0.6; stroke-width: 0.1"/>
    <path d="M 93.648811 117.140877 
L 102.789821 120.088892 
L 114.000483 115.343804 
L 104.818421 112.460044 
z
" clip-path="url(#p9bdc1d0411)" style="fill: #d4b300; fill-opacity: 0.6; stroke: #000000; stroke-opacity: 0.6; stroke-width: 0.1"/>
    <path d="M 114.000483 115.343804 
L 123.355977 118.282033 
L 134.450678 113.538031 
L 125.05659 110.664133 
z
" clip-path="url(#p9bdc1d0411)" style="fill: #d4b300; fill-opacity: 0.6; stroke: #000000; stroke-opacity: 0.6; stroke-width: 0.1"/>
    <path d="M 134.450678 113.538031 
L 144.022637 116.466344 
L 155.000115 111.723495 
L 145.392057 108.859589 
z
" clip-path="url(#p9bdc1d0411)" style="fill: #d4b300; fill-opacity: 0.6; stroke: #000000; stroke-opacity: 0.6; stroke-width: 0.1"/>
    <path d="M 82.323438 121.886986 
L 91.421341 124.900779 
L 102.789821 120.088892 
L 93.648811 117.140877 
z
" clip-path="url(#p9bdc1d0411)" style="fill: #d4b300; fill-opacity: 0.6; stroke: #000000; stroke-opacity: 0.6; stroke-width: 0.1"/>
    <path d="M 102.789821 120.088892 
L 112.104706 123.092983 
L 123.355977 118.282033 
L 114.000483 115.343804 
z
" clip-path="url(#p9bdc1d0411)" style="fill: #d4b300; fill-opacity: 0.6; stroke: #000000; stroke-opacity: 0.6; stroke-width: 0.1"/>
    <path d="M 123.355977 118.282033 
L 132.889863 121.276289 
L 144.022637 116.466344 
L 134.450678 113.538031 
z
" clip-path="url(#p9bdc1d0411)" style="fill: #d4b300; fill-opacity: 0.6; stroke: #000000; stroke-opacity: 0.6; stroke-width: 0.1"/>
    <path d="M 70.839022 126.699745 
L 79.891686 129.780886 
L 91.421341 124.900779 
L 82.323438 121.886986 
z
" clip-path="url(#p9bdc1d0411)" style="fill: #d4b300; fill-opacity: 0.6; stroke: #000000; stroke-opacity: 0.6; stroke-width: 0.1"/>
    <path d="M 144.022637 116.466344 
L 153.777566 119.450632 
L 164.79054 114.64176 
L 155.000115 111.723495 
z
" clip-path="url(#p9bdc1d0411)" style="fill: #d4b300; fill-opacity: 0.6; stroke: #000000; stroke-opacity: 0.6; stroke-width: 0.1"/>
    <path d="M 91.421341 124.900779 
L 100.693528 127.972307 
L 112.104706 123.092983 
L 102.789821 120.088892 
z
" clip-path="url(#p9bdc1d0411)" style="fill: #d4b300; fill-opacity: 0.6; stroke: #000000; stroke-opacity: 0.6; stroke-width: 0.1"/>
    <path d="M 112.104706 123.092983 
L 121.598475 126.154764 
L 132.889863 121.276289 
L 123.355977 118.282033 
z
" clip-path="url(#p9bdc1d0411)" style="fill: #d4b300; fill-opacity: 0.6; stroke: #000000; stroke-opacity: 0.6; stroke-width: 0.1"/>
    <path d="M 59.192188 131.580567 
L 68.197405 134.730674 
L 79.891686 129.780886 
L 70.839022 126.699745 
z
" clip-path="url(#p9bdc1d0411)" style="fill: #d4b300; fill-opacity: 0.6; stroke: #000000; stroke-opacity: 0.6; stroke-width: 0.1"/>
    <path d="M 132.889863 121.276289 
L 142.607294 124.328189 
L 153.777566 119.450632 
L 144.022637 116.466344 
z
" clip-path="url(#p9bdc1d0411)" style="fill: #d4b300; fill-opacity: 0.6; stroke: #000000; stroke-opacity: 0.6; stroke-width: 0.1"/>
    <path d="M 79.891686 129.780886 
L 89.11901 132.921475 
L 100.693528 127.972307 
L 91.421341 124.900779 
z
" clip-path="url(#p9bdc1d0411)" style="fill: #d4b300; fill-opacity: 0.6; stroke: #000000; stroke-opacity: 0.6; stroke-width: 0.1"/>
    <path d="M 153.777566 119.450632 
L 163.720763 122.492516 
L 174.768575 117.615946 
L 164.79054 114.64176 
z
" clip-path="url(#p9bdc1d0411)" style="fill: #d4b300; fill-opacity: 0.6; stroke: #000000; stroke-opacity: 0.6; stroke-width: 0.1"/>
    <path d="M 100.693528 127.972307 
L 110.145057 131.103244 
L 121.598475 126.154764 
L 112.104706 123.092983 
z
" clip-path="url(#p9bdc1d0411)" style="fill: #d4b300; fill-opacity: 0.6; stroke: #000000; stroke-opacity: 0.6; stroke-width: 0.1"/>
    <path d="M 47.379467 136.530908 
L 56.334947 139.751645 
L 68.197405 134.730674 
L 59.192188 131.580567 
z
" clip-path="url(#p9bdc1d0411)" style="fill: #d4b300; fill-opacity: 0.6; stroke: #000000; stroke-opacity: 0.6; stroke-width: 0.1"/>
    <path d="M 121.598475 126.154764 
L 131.27633 129.275914 
L 142.607294 124.328189 
L 132.889863 121.276289 
z
" clip-path="url(#p9bdc1d0411)" style="fill: #d4b300; fill-opacity: 0.6; stroke: #000000; stroke-opacity: 0.6; stroke-width: 0.1"/>
    <path d="M 68.197405 134.730674 
L 77.37762 137.941995 
L 89.11901 132.921475 
L 79.891686 129.780886 
z
" clip-path="url(#p9bdc1d0411)" style="fill: #d4b300; fill-opacity: 0.6; stroke: #000000; stroke-opacity: 0.6; stroke-width: 0.1"/>
    <path d="M 142.607294 124.328189 
L 152.513621 127.439415 
L 163.720763 122.492516 
L 153.777566 119.450632 
z
" clip-path="url(#p9bdc1d0411)" style="fill: #d4b300; fill-opacity: 0.6; stroke: #000000; stroke-opacity: 0.6; stroke-width: 0.1"/>
    <path d="M 89.11901 132.921475 
L 98.526098 136.123247 
L 110.145057 131.103244 
L 100.693528 127.972307 
z
" clip-path="url(#p9bdc1d0411)" style="fill: #d4b300; fill-opacity: 0.6; stroke: #000000; stroke-opacity: 0.6; stroke-width: 0.1"/>
    <path d="M 163.720763 122.492516 
L 173.857731 125.59368 
L 184.939665 120.647677 
L 174.768575 117.615946 
z
" clip-path="url(#p9bdc1d0411)" style="fill: #d4b300; fill-opacity: 0.6; stroke: #000000; stroke-opacity: 0.6; stroke-width: 0.1"/>
    <path d="M 35.397289 141.552263 
L 44.300657 144.845347 
L 56.334947 139.751645 
L 47.379467 136.530908 
z
" clip-path="url(#p9bdc1d0411)" style="fill: #d4b300; fill-opacity: 0.6; stroke: #000000; stroke-opacity: 0.6; stroke-width: 0.1"/>
    <path d="M 110.145057 131.103244 
L 119.781181 134.29533 
L 131.27633 129.275914 
L 121.598475 126.154764 
z
" clip-path="url(#p9bdc1d0411)" style="fill: #d4b300; fill-opacity: 0.6; stroke: #000000; stroke-opacity: 0.6; stroke-width: 0.1"/>
    <path d="M 56.334947 139.751645 
L 65.465721 143.035424 
L 77.37762 137.941995 
L 68.197405 134.730674 
z
" clip-path="url(#p9bdc1d0411)" style="fill: #d4b300; fill-opacity: 0.6; stroke: #000000; stroke-opacity: 0.6; stroke-width: 0.1"/>
    <path d="M 131.27633 129.275914 
L 141.143679 132.458176 
L 152.513621 127.439415 
L 142.607294 124.328189 
z
" clip-path="url(#p9bdc1d0411)" style="fill: #d4b300; fill-opacity: 0.6; stroke: #000000; stroke-opacity: 0.6; stroke-width: 0.1"/>
    <path d="M 77.37762 137.941995 
L 86.737981 141.216334 
L 98.526098 136.123247 
L 89.11901 132.921475 
z
" clip-path="url(#p9bdc1d0411)" style="fill: #d4b300; fill-opacity: 0.6; stroke: #000000; stroke-opacity: 0.6; stroke-width: 0.1"/>
    <path d="M 152.513621 127.439415 
L 162.614407 130.611714 
L 173.857731 125.59368 
L 163.720763 122.492516 
z
" clip-path="url(#p9bdc1d0411)" style="fill: #d4b300; fill-opacity: 0.6; stroke: #000000; stroke-opacity: 0.6; stroke-width: 0.1"/>
    <path d="M 23.241981 146.646172 
L 32.090775 150.01337 
L 44.300657 144.845347 
L 35.397289 141.552263 
z
" clip-path="url(#p9bdc1d0411)" style="fill: #d4b300; fill-opacity: 0.6; stroke: #000000; stroke-opacity: 0.6; stroke-width: 0.1"/>
    <path d="M 98.526098 136.123247 
L 108.118253 139.388008 
L 119.781181 134.29533 
L 110.145057 131.103244 
z
" clip-path="url(#p9bdc1d0411)" style="fill: #d4b300; fill-opacity: 0.6; stroke: #000000; stroke-opacity: 0.6; stroke-width: 0.1"/>
    <path d="M 173.857731 125.59368 
L 184.194189 128.755873 
L 195.309466 123.738638 
L 184.939665 120.647677 
z
" clip-path="url(#p9bdc1d0411)" style="fill: #d4b300; fill-opacity: 0.6; stroke: #000000; stroke-opacity: 0.6; stroke-width: 0.1"/>
    <path d="M 44.300657 144.845347 
L 53.379574 148.20336 
L 65.465721 143.035424 
L 56.334947 139.751645 
z
" clip-path="url(#p9bdc1d0411)" style="fill: #d4b300; fill-opacity: 0.6; stroke: #000000; stroke-opacity: 0.6; stroke-width: 0.1"/>
    <path d="M 119.781181 134.29533 
L 129.607362 137.550375 
L 141.143679 132.458176 
L 131.27633 129.275914 
z
" clip-path="url(#p9bdc1d0411)" style="fill: #d4b300; fill-opacity: 0.6; stroke: #000000; stroke-opacity: 0.6; stroke-width: 0.1"/>
    <path d="M 65.465721 143.035424 
L 74.776987 146.384114 
L 86.737981 141.216334 
L 77.37762 137.941995 
z
" clip-path="url(#p9bdc1d0411)" style="fill: #d4b300; fill-opacity: 0.6; stroke: #000000; stroke-opacity: 0.6; stroke-width: 0.1"/>
    <path d="M 141.143679 132.458176 
L 151.206141 135.703363 
L 162.614407 130.611714 
L 152.513621 127.439415 
z
" clip-path="url(#p9bdc1d0411)" style="fill: #d4b300; fill-opacity: 0.6; stroke: #000000; stroke-opacity: 0.6; stroke-width: 0.1"/>
    <path d="M 86.737981 141.216334 
L 96.283845 144.555564 
L 108.118253 139.388008 
L 98.526098 136.123247 
z
" clip-path="url(#p9bdc1d0411)" style="fill: #d4b300; fill-opacity: 0.6; stroke: #000000; stroke-opacity: 0.6; stroke-width: 0.1"/>
    <path d="M 162.614407 130.611714 
L 172.915432 133.846901 
L 184.194189 128.755873 
L 173.857731 125.59368 
z
" clip-path="url(#p9bdc1d0411)" style="fill: #d4b300; fill-opacity: 0.6; stroke: #000000; stroke-opacity: 0.6; stroke-width: 0.1"/>
    <path d="M 32.090775 150.01337 
L 41.115327 153.44745 
L 53.379574 148.20336 
L 44.300657 144.845347 
z
" clip-path="url(#p9bdc1d0411)" style="fill: #d4b300; fill-opacity: 0.6; stroke: #000000; stroke-opacity: 0.6; stroke-width: 0.1"/>
    <path d="M 108.118253 139.388008 
L 117.900992 142.717636 
L 129.607362 137.550375 
L 119.781181 134.29533 
z
" clip-path="url(#p9bdc1d0411)" style="fill: #d4b300; fill-opacity: 0.6; stroke: #000000; stroke-opacity: 0.6; stroke-width: 0.1"/>
    <path d="M 184.194189 128.755873 
L 194.736086 131.980916 
L 205.883859 126.890583 
L 195.309466 123.738638 
z
" clip-path="url(#p9bdc1d0411)" style="fill: #d4b300; fill-opacity: 0.6; stroke: #000000; stroke-opacity: 0.6; stroke-width: 0.1"/>
    <path d="M 53.379574 148.20336 
L 62.639283 151.628242 
L 74.776987 146.384114 
L 65.465721 143.035424 
z
" clip-path="url(#p9bdc1d0411)" style="fill: #d4b300; fill-opacity: 0.6; stroke: #000000; stroke-opacity: 0.6; stroke-width: 0.1"/>
    <path d="M 129.607362 137.550375 
L 139.629278 140.870259 
L 151.206141 135.703363 
L 141.143679 132.458176 
z
" clip-path="url(#p9bdc1d0411)" style="fill: #d4b300; fill-opacity: 0.6; stroke: #000000; stroke-opacity: 0.6; stroke-width: 0.1"/>
    <path d="M 74.776987 146.384114 
L 84.274148 149.79966 
L 96.283845 144.555564 
L 86.737981 141.216334 
z
" clip-path="url(#p9bdc1d0411)" style="fill: #d4b300; fill-opacity: 0.6; stroke: #000000; stroke-opacity: 0.6; stroke-width: 0.1"/>
    <path d="M 151.206141 135.703363 
L 161.469563 139.01336 
L 172.915432 133.846901 
L 162.614407 130.611714 
z
" clip-path="url(#p9bdc1d0411)" style="fill: #d4b300; fill-opacity: 0.6; stroke: #000000; stroke-opacity: 0.6; stroke-width: 0.1"/>
    <path d="M 96.283845 144.555564 
L 106.020782 147.961632 
L 117.900992 142.717636 
L 108.118253 139.388008 
z
" clip-path="url(#p9bdc1d0411)" style="fill: #d4b300; fill-opacity: 0.6; stroke: #000000; stroke-opacity: 0.6; stroke-width: 0.1"/>
    <path d="M 172.915432 133.846901 
L 183.422713 137.146865 
L 194.736086 131.980916 
L 184.194189 128.755873 
z
" clip-path="url(#p9bdc1d0411)" style="fill: #d4b300; fill-opacity: 0.6; stroke: #000000; stroke-opacity: 0.6; stroke-width: 0.1"/>
    <path d="M 41.115327 153.44745 
L 50.320925 156.950422 
L 62.639283 151.628242 
L 53.379574 148.20336 
z
" clip-path="url(#p9bdc1d0411)" style="fill: #d4b300; fill-opacity: 0.6; stroke: #000000; stroke-opacity: 0.6; stroke-width: 0.1"/>
    <path d="M 117.900992 142.717636 
L 127.880053 146.114083 
L 139.629278 140.870259 
L 129.607362 137.550375 
z
" clip-path="url(#p9bdc1d0411)" style="fill: #d4b300; fill-opacity: 0.6; stroke: #000000; stroke-opacity: 0.6; stroke-width: 0.1"/>
    <path d="M 194.736086 131.980916 
L 205.489607 135.270699 
L 216.668961 130.105334 
L 205.883859 126.890583 
z
" clip-path="url(#p9bdc1d0411)" style="fill: #d4b300; fill-opacity: 0.6; stroke: #000000; stroke-opacity: 0.6; stroke-width: 0.1"/>
    <path d="M 62.639283 151.628242 
L 72.085238 155.122011 
L 84.274148 149.79966 
L 74.776987 146.384114 
z
" clip-path="url(#p9bdc1d0411)" style="fill: #d4b300; fill-opacity: 0.6; stroke: #000000; stroke-opacity: 0.6; stroke-width: 0.1"/>
    <path d="M 139.629278 140.870259 
L 149.852838 144.256941 
L 161.469563 139.01336 
L 151.206141 135.703363 
z
" clip-path="url(#p9bdc1d0411)" style="fill: #d4b300; fill-opacity: 0.6; stroke: #000000; stroke-opacity: 0.6; stroke-width: 0.1"/>
    <path d="M 84.274148 149.79966 
L 93.962829 153.284084 
L 106.020782 147.961632 
L 96.283845 144.555564 
z
" clip-path="url(#p9bdc1d0411)" style="fill: #d4b300; fill-opacity: 0.6; stroke: #000000; stroke-opacity: 0.6; stroke-width: 0.1"/>
    <path d="M 161.469563 139.01336 
L 171.940023 142.390129 
L 183.422713 137.146865 
L 172.915432 133.846901 
z
" clip-path="url(#p9bdc1d0411)" style="fill: #d4b300; fill-opacity: 0.6; stroke: #000000; stroke-opacity: 0.6; stroke-width: 0.1"/>
    <path d="M 106.020782 147.961632 
L 115.954586 151.436566 
L 127.880053 146.114083 
L 117.900992 142.717636 
z
" clip-path="url(#p9bdc1d0411)" style="fill: #d4b300; fill-opacity: 0.6; stroke: #000000; stroke-opacity: 0.6; stroke-width: 0.1"/>
    <path d="M 183.422713 137.146865 
L 194.142506 140.513572 
L 205.489607 135.270699 
L 194.736086 131.980916 
z
" clip-path="url(#p9bdc1d0411)" style="fill: #d4b300; fill-opacity: 0.6; stroke: #000000; stroke-opacity: 0.6; stroke-width: 0.1"/>
    <path d="M 50.320925 156.950422 
L 59.713073 160.524381 
L 72.085238 155.122011 
L 62.639283 151.628242 
z
" clip-path="url(#p9bdc1d0411)" style="fill: #d4b300; fill-opacity: 0.6; stroke: #000000; stroke-opacity: 0.6; stroke-width: 0.1"/>
    <path d="M 127.880053 146.114083 
L 138.061403 149.579382 
L 149.852838 144.256941 
L 139.629278 140.870259 
z
" clip-path="url(#p9bdc1d0411)" style="fill: #d4b300; fill-opacity: 0.6; stroke: #000000; stroke-opacity: 0.6; stroke-width: 0.1"/>
    <path d="M 72.085238 155.122011 
L 81.723115 158.686767 
L 93.962829 153.284084 
L 84.274148 149.79966 
z
" clip-path="url(#p9bdc1d0411)" style="fill: #d4b300; fill-opacity: 0.6; stroke: #000000; stroke-opacity: 0.6; stroke-width: 0.1"/>
    <path d="M 149.852838 144.256941 
L 160.284187 147.712455 
L 171.940023 142.390129 
L 161.469563 139.01336 
z
" clip-path="url(#p9bdc1d0411)" style="fill: #d4b300; fill-opacity: 0.6; stroke: #000000; stroke-opacity: 0.6; stroke-width: 0.1"/>
    <path d="M 93.962829 153.284084 
L 103.848882 156.839491 
L 115.954586 151.436566 
L 106.020782 147.961632 
z
" clip-path="url(#p9bdc1d0411)" style="fill: #d4b300; fill-opacity: 0.6; stroke: #000000; stroke-opacity: 0.6; stroke-width: 0.1"/>
    <path d="M 171.940023 142.390129 
L 182.623852 145.835709 
L 194.142506 140.513572 
L 183.422713 137.146865 
z
" clip-path="url(#p9bdc1d0411)" style="fill: #d4b300; fill-opacity: 0.6; stroke: #000000; stroke-opacity: 0.6; stroke-width: 0.1"/>
    <path d="M 115.954586 151.436566 
L 126.091288 154.982476 
L 138.061403 149.579382 
L 127.880053 146.114083 
z
" clip-path="url(#p9bdc1d0411)" style="fill: #d4b300; fill-opacity: 0.6; stroke: #000000; stroke-opacity: 0.6; stroke-width: 0.1"/>
    <path d="M 59.713073 160.524381 
L 69.2975 164.171508 
L 81.723115 158.686767 
L 72.085238 155.122011 
z
" clip-path="url(#p9bdc1d0411)" style="fill: #d4b300; fill-opacity: 0.6; stroke: #000000; stroke-opacity: 0.6; stroke-width: 0.1"/>
    <path d="M 138.061403 149.579382 
L 148.451258 153.115646 
L 160.284187 147.712455 
L 149.852838 144.256941 
z
" clip-path="url(#p9bdc1d0411)" style="fill: #d4b300; fill-opacity: 0.6; stroke: #000000; stroke-opacity: 0.6; stroke-width: 0.1"/>
    <path d="M 81.723115 158.686767 
L 91.558825 162.324694 
L 103.848882 156.839491 
L 93.962829 153.284084 
z
" clip-path="url(#p9bdc1d0411)" style="fill: #d4b300; fill-opacity: 0.6; stroke: #000000; stroke-opacity: 0.6; stroke-width: 0.1"/>
    <path d="M 160.284187 147.712455 
L 170.929727 151.238923 
L 182.623852 145.835709 
L 171.940023 142.390129 
z
" clip-path="url(#p9bdc1d0411)" style="fill: #d4b300; fill-opacity: 0.6; stroke: #000000; stroke-opacity: 0.6; stroke-width: 0.1"/>
    <path d="M 103.848882 156.839491 
L 113.9384 160.468071 
L 126.091288 154.982476 
L 115.954586 151.436566 
z
" clip-path="url(#p9bdc1d0411)" style="fill: #d4b300; fill-opacity: 0.6; stroke: #000000; stroke-opacity: 0.6; stroke-width: 0.1"/>
    <path d="M 126.091288 154.982476 
L 136.43717 158.601559 
L 148.451258 153.115646 
L 138.061403 149.579382 
z
" clip-path="url(#p9bdc1d0411)" style="fill: #d4b300; fill-opacity: 0.6; stroke: #000000; stroke-opacity: 0.6; stroke-width: 0.1"/>
    <path d="M 69.2975 164.171508 
L 79.08017 167.894071 
L 91.558825 162.324694 
L 81.723115 158.686767 
z
" clip-path="url(#p9bdc1d0411)" style="fill: #d4b300; fill-opacity: 0.6; stroke: #000000; stroke-opacity: 0.6; stroke-width: 0.1"/>
    <path d="M 148.451258 153.115646 
L 159.056089 156.725079 
L 170.929727 151.238923 
L 160.284187 147.712455 
z
" clip-path="url(#p9bdc1d0411)" style="fill: #d4b300; fill-opacity: 0.6; stroke: #000000; stroke-opacity: 0.6; stroke-width: 0.1"/>
    <path d="M 91.558825 162.324694 
L 101.59852 166.03807 
L 113.9384 160.468071 
L 103.848882 156.839491 
z
" clip-path="url(#p9bdc1d0411)" style="fill: #d4b300; fill-opacity: 0.6; stroke: #000000; stroke-opacity: 0.6; stroke-width: 0.1"/>
    <path d="M 113.9384 160.468071 
L 124.237729 164.172107 
L 136.43717 158.601559 
L 126.091288 154.982476 
z
" clip-path="url(#p9bdc1d0411)" style="fill: #d4b300; fill-opacity: 0.6; stroke: #000000; stroke-opacity: 0.6; stroke-width: 0.1"/>
    <path d="M 136.43717 158.601559 
L 146.998773 162.296103 
L 159.056089 156.725079 
L 148.451258 153.115646 
z
" clip-path="url(#p9bdc1d0411)" style="fill: #d4b300; fill-opacity: 0.6; stroke: #000000; stroke-opacity: 0.6; stroke-width: 0.1"/>
    <path d="M 79.08017 167.894071 
L 89.0673 171.694437 
L 101.59852 166.03807 
L 91.558825 162.324694 
z
" clip-path="url(#p9bdc1d0411)" style="fill: #d4b300; fill-opacity: 0.6; stroke: #000000; stroke-opacity: 0.6; stroke-width: 0.1"/>
    <path d="M 101.59852 166.03807 
L 111.848614 169.829266 
L 124.237729 164.172107 
L 113.9384 160.468071 
z
" clip-path="url(#p9bdc1d0411)" style="fill: #d4b300; fill-opacity: 0.6; stroke: #000000; stroke-opacity: 0.6; stroke-width: 0.1"/>
    <path d="M 124.237729 164.172107 
L 134.753484 167.953979 
L 146.998773 162.296103 
L 136.43717 158.601559 
z
" clip-path="url(#p9bdc1d0411)" style="fill: #d4b300; fill-opacity: 0.6; stroke: #000000; stroke-opacity: 0.6; stroke-width: 0.1"/>
    <path d="M 89.0673 171.694437 
L 99.265367 175.57507 
L 111.848614 169.829266 
L 101.59852 166.03807 
z
" clip-path="url(#p9bdc1d0411)" style="fill: #d4b300; fill-opacity: 0.6; stroke: #000000; stroke-opacity: 0.6; stroke-width: 0.1"/>
    <path d="M 111.848614 169.829266 
L 122.315791 173.700754 
L 134.753484 167.953979 
L 124.237729 164.172107 
z
" clip-path="url(#p9bdc1d0411)" style="fill: #d4b300; fill-opacity: 0.6; stroke: #000000; stroke-opacity: 0.6; stroke-width: 0.1"/>
    <path d="M 99.265367 175.57507 
L 109.681124 179.538539 
L 122.315791 173.700754 
L 111.848614 169.829266 
z
" clip-path="url(#p9bdc1d0411)" style="fill: #d4b300; fill-opacity: 0.6; stroke: #000000; stroke-opacity: 0.6; stroke-width: 0.1"/>
   </g>
   <g id="Poly3DCollection_3">
    <path d="M 115.804949 82.496876 
L 125.120025 85.108785 
L 136.134981 80.623074 
L 126.782003 78.070488 
z
" clip-path="url(#p9bdc1d0411)" style="fill: #90d427; fill-opacity: 0.6; stroke: #000000; stroke-opacity: 0.6; stroke-width: 0.1"/>
    <path d="M 104.675384 86.984763 
L 113.950586 89.657408 
L 125.120025 85.108785 
L 115.804949 82.496876 
z
" clip-path="url(#p9bdc1d0411)" style="fill: #90d427; fill-opacity: 0.6; stroke: #000000; stroke-opacity: 0.6; stroke-width: 0.1"/>
    <path d="M 125.120025 85.108785 
L 134.611625 87.77019 
L 145.663963 83.223695 
L 136.134981 80.623074 
z
" clip-path="url(#p9bdc1d0411)" style="fill: #90d427; fill-opacity: 0.6; stroke: #000000; stroke-opacity: 0.6; stroke-width: 0.1"/>
    <path d="M 93.390108 91.53544 
L 102.623389 94.270275 
L 113.950586 89.657408 
L 104.675384 86.984763 
z
" clip-path="url(#p9bdc1d0411)" style="fill: #90d427; fill-opacity: 0.6; stroke: #000000; stroke-opacity: 0.6; stroke-width: 0.1"/>
    <path d="M 113.950586 89.657408 
L 123.402798 92.381058 
L 134.611625 87.77019 
L 125.120025 85.108785 
z
" clip-path="url(#p9bdc1d0411)" style="fill: #90d427; fill-opacity: 0.6; stroke: #000000; stroke-opacity: 0.6; stroke-width: 0.1"/>
    <path d="M 134.611625 87.77019 
L 144.284812 90.482512 
L 155.373964 85.873719 
L 145.663963 83.223695 
z
" clip-path="url(#p9bdc1d0411)" style="fill: #90d427; fill-opacity: 0.6; stroke: #000000; stroke-opacity: 0.6; stroke-width: 0.1"/>
    <path d="M 81.945829 96.150232 
L 91.135069 98.948757 
L 102.623389 94.270275 
L 93.390108 91.53544 
z
" clip-path="url(#p9bdc1d0411)" style="fill: #90d427; fill-opacity: 0.6; stroke: #000000; stroke-opacity: 0.6; stroke-width: 0.1"/>
    <path d="M 102.623389 94.270275 
L 112.034138 97.057675 
L 123.402798 92.381058 
L 113.950586 89.657408 
z
" clip-path="url(#p9bdc1d0411)" style="fill: #90d427; fill-opacity: 0.6; stroke: #000000; stroke-opacity: 0.6; stroke-width: 0.1"/>
    <path d="M 123.402798 92.381058 
L 133.037139 95.157187 
L 144.284812 90.482512 
L 134.611625 87.77019 
z
" clip-path="url(#p9bdc1d0411)" style="fill: #90d427; fill-opacity: 0.6; stroke: #000000; stroke-opacity: 0.6; stroke-width: 0.1"/>
    <path d="M 70.339164 100.830505 
L 79.482164 103.694266 
L 91.135069 98.948757 
L 81.945829 96.150232 
z
" clip-path="url(#p9bdc1d0411)" style="fill: #90d427; fill-opacity: 0.6; stroke: #000000; stroke-opacity: 0.6; stroke-width: 0.1"/>
    <path d="M 144.284812 90.482512 
L 154.14485 93.247225 
L 165.270192 88.574568 
L 155.373964 85.873719 
z
" clip-path="url(#p9bdc1d0411)" style="fill: #90d427; fill-opacity: 0.6; stroke: #000000; stroke-opacity: 0.6; stroke-width: 0.1"/>
    <path d="M 91.135069 98.948757 
L 100.502199 101.801458 
L 112.034138 97.057675 
L 102.623389 94.270275 
z
" clip-path="url(#p9bdc1d0411)" style="fill: #90d427; fill-opacity: 0.6; stroke: #000000; stroke-opacity: 0.6; stroke-width: 0.1"/>
    <path d="M 112.034138 97.057675 
L 121.62752 99.89917 
L 133.037139 95.157187 
L 123.402798 92.381058 
z
" clip-path="url(#p9bdc1d0411)" style="fill: #90d427; fill-opacity: 0.6; stroke: #000000; stroke-opacity: 0.6; stroke-width: 0.1"/>
    <path d="M 58.566631 105.577663 
L 67.661111 108.50825 
L 79.482164 103.694266 
L 70.339164 100.830505 
z
" clip-path="url(#p9bdc1d0411)" style="fill: #90d427; fill-opacity: 0.6; stroke: #000000; stroke-opacity: 0.6; stroke-width: 0.1"/>
    <path d="M 133.037139 95.157187 
L 142.858922 97.987329 
L 154.14485 93.247225 
L 144.284812 90.482512 
z
" clip-path="url(#p9bdc1d0411)" style="fill: #90d427; fill-opacity: 0.6; stroke: #000000; stroke-opacity: 0.6; stroke-width: 0.1"/>
    <path d="M 79.482164 103.694266 
L 88.803439 106.613865 
L 100.502199 101.801458 
L 91.135069 98.948757 
z
" clip-path="url(#p9bdc1d0411)" style="fill: #90d427; fill-opacity: 0.6; stroke: #000000; stroke-opacity: 0.6; stroke-width: 0.1"/>
    <path d="M 154.14485 93.247225 
L 164.197204 96.065864 
L 175.358055 91.327717 
L 165.270192 88.574568 
z
" clip-path="url(#p9bdc1d0411)" style="fill: #90d427; fill-opacity: 0.6; stroke: #000000; stroke-opacity: 0.6; stroke-width: 0.1"/>
    <path d="M 100.502199 101.801458 
L 110.052434 104.709922 
L 121.62752 99.89917 
L 112.034138 97.057675 
z
" clip-path="url(#p9bdc1d0411)" style="fill: #90d427; fill-opacity: 0.6; stroke: #000000; stroke-opacity: 0.6; stroke-width: 0.1"/>
    <path d="M 46.624649 110.393149 
L 55.668244 113.392203 
L 67.661111 108.50825 
L 58.566631 105.577663 
z
" clip-path="url(#p9bdc1d0411)" style="fill: #90d427; fill-opacity: 0.6; stroke: #000000; stroke-opacity: 0.6; stroke-width: 0.1"/>
    <path d="M 121.62752 99.89917 
L 131.408906 102.796349 
L 142.858922 97.987329 
L 133.037139 95.157187 
z
" clip-path="url(#p9bdc1d0411)" style="fill: #90d427; fill-opacity: 0.6; stroke: #000000; stroke-opacity: 0.6; stroke-width: 0.1"/>
    <path d="M 67.661111 108.50825 
L 76.934212 111.496395 
L 88.803439 106.613865 
L 79.482164 103.694266 
z
" clip-path="url(#p9bdc1d0411)" style="fill: #90d427; fill-opacity: 0.6; stroke: #000000; stroke-opacity: 0.6; stroke-width: 0.1"/>
    <path d="M 142.858922 97.987329 
L 152.873671 100.873073 
L 164.197204 96.065864 
L 154.14485 93.247225 
z
" clip-path="url(#p9bdc1d0411)" style="fill: #90d427; fill-opacity: 0.6; stroke: #000000; stroke-opacity: 0.6; stroke-width: 0.1"/>
    <path d="M 88.803439 106.613865 
L 98.308254 109.590952 
L 110.052434 104.709922 
L 100.502199 101.801458 
z
" clip-path="url(#p9bdc1d0411)" style="fill: #90d427; fill-opacity: 0.6; stroke: #000000; stroke-opacity: 0.6; stroke-width: 0.1"/>
    <path d="M 164.197204 96.065864 
L 174.447557 98.94002 
L 185.643176 94.134701 
L 175.358055 91.327717 
z
" clip-path="url(#p9bdc1d0411)" style="fill: #90d427; fill-opacity: 0.6; stroke: #000000; stroke-opacity: 0.6; stroke-width: 0.1"/>
    <path d="M 34.509534 115.27845 
L 43.499791 118.347662 
L 55.668244 113.392203 
L 46.624649 110.393149 
z
" clip-path="url(#p9bdc1d0411)" style="fill: #90d427; fill-opacity: 0.6; stroke: #000000; stroke-opacity: 0.6; stroke-width: 0.1"/>
    <path d="M 110.052434 104.709922 
L 119.791197 107.675801 
L 131.408906 102.796349 
L 121.62752 99.89917 
z
" clip-path="url(#p9bdc1d0411)" style="fill: #90d427; fill-opacity: 0.6; stroke: #000000; stroke-opacity: 0.6; stroke-width: 0.1"/>
    <path d="M 55.668244 113.392203 
L 64.890765 116.450593 
L 76.934212 111.496395 
L 67.661111 108.50825 
z
" clip-path="url(#p9bdc1d0411)" style="fill: #90d427; fill-opacity: 0.6; stroke: #000000; stroke-opacity: 0.6; stroke-width: 0.1"/>
    <path d="M 131.408906 102.796349 
L 141.383875 105.750868 
L 152.873671 100.873073 
L 142.858922 97.987329 
z
" clip-path="url(#p9bdc1d0411)" style="fill: #90d427; fill-opacity: 0.6; stroke: #000000; stroke-opacity: 0.6; stroke-width: 0.1"/>
    <path d="M 76.934212 111.496395 
L 86.391248 114.543811 
L 98.308254 109.590952 
L 88.803439 106.613865 
z
" clip-path="url(#p9bdc1d0411)" style="fill: #90d427; fill-opacity: 0.6; stroke: #000000; stroke-opacity: 0.6; stroke-width: 0.1"/>
    <path d="M 152.873671 100.873073 
L 163.087131 103.816076 
L 174.447557 98.94002 
L 164.197204 96.065864 
z
" clip-path="url(#p9bdc1d0411)" style="fill: #90d427; fill-opacity: 0.6; stroke: #000000; stroke-opacity: 0.6; stroke-width: 0.1"/>
    <path d="M 22.217493 120.235094 
L 31.151866 123.376209 
L 43.499791 118.347662 
L 34.509534 115.27845 
z
" clip-path="url(#p9bdc1d0411)" style="fill: #90d427; fill-opacity: 0.6; stroke: #000000; stroke-opacity: 0.6; stroke-width: 0.1"/>
    <path d="M 98.308254 109.590952 
L 108.002085 112.627243 
L 119.791197 107.675801 
L 110.052434 104.709922 
z
" clip-path="url(#p9bdc1d0411)" style="fill: #90d427; fill-opacity: 0.6; stroke: #000000; stroke-opacity: 0.6; stroke-width: 0.1"/>
    <path d="M 174.447557 98.94002 
L 184.901816 101.871351 
L 196.131396 96.997115 
L 185.643176 94.134701 
z
" clip-path="url(#p9bdc1d0411)" style="fill: #90d427; fill-opacity: 0.6; stroke: #000000; stroke-opacity: 0.6; stroke-width: 0.1"/>
    <path d="M 43.499791 118.347662 
L 52.669233 121.478047 
L 64.890765 116.450593 
L 55.668244 113.392203 
z
" clip-path="url(#p9bdc1d0411)" style="fill: #90d427; fill-opacity: 0.6; stroke: #000000; stroke-opacity: 0.6; stroke-width: 0.1"/>
    <path d="M 119.791197 107.675801 
L 129.724126 110.700812 
L 141.383875 105.750868 
L 131.408906 102.796349 
z
" clip-path="url(#p9bdc1d0411)" style="fill: #90d427; fill-opacity: 0.6; stroke: #000000; stroke-opacity: 0.6; stroke-width: 0.1"/>
    <path d="M 64.890765 116.450593 
L 74.297573 119.570096 
L 86.391248 114.543811 
L 76.934212 111.496395 
z
" clip-path="url(#p9bdc1d0411)" style="fill: #90d427; fill-opacity: 0.6; stroke: #000000; stroke-opacity: 0.6; stroke-width: 0.1"/>
    <path d="M 141.383875 105.750868 
L 151.558232 108.764443 
L 163.087131 103.816076 
L 152.873671 100.873073 
z
" clip-path="url(#p9bdc1d0411)" style="fill: #90d427; fill-opacity: 0.6; stroke: #000000; stroke-opacity: 0.6; stroke-width: 0.1"/>
    <path d="M 86.391248 114.543811 
L 96.037747 117.652279 
L 108.002085 112.627243 
L 98.308254 109.590952 
z
" clip-path="url(#p9bdc1d0411)" style="fill: #90d427; fill-opacity: 0.6; stroke: #000000; stroke-opacity: 0.6; stroke-width: 0.1"/>
    <path d="M 163.087131 103.816076 
L 173.505274 106.818058 
L 184.901816 101.871351 
L 174.447557 98.94002 
z
" clip-path="url(#p9bdc1d0411)" style="fill: #90d427; fill-opacity: 0.6; stroke: #000000; stroke-opacity: 0.6; stroke-width: 0.1"/>
    <path d="M 31.151866 123.376209 
L 40.265636 126.580396 
L 52.669233 121.478047 
L 43.499791 118.347662 
z
" clip-path="url(#p9bdc1d0411)" style="fill: #90d427; fill-opacity: 0.6; stroke: #000000; stroke-opacity: 0.6; stroke-width: 0.1"/>
    <path d="M 108.002085 112.627243 
L 117.890625 115.72452 
L 129.724126 110.700812 
L 119.791197 107.675801 
z
" clip-path="url(#p9bdc1d0411)" style="fill: #90d427; fill-opacity: 0.6; stroke: #000000; stroke-opacity: 0.6; stroke-width: 0.1"/>
    <path d="M 184.901816 101.871351 
L 195.566128 104.86158 
L 206.828792 99.916616 
L 196.131396 96.997115 
z
" clip-path="url(#p9bdc1d0411)" style="fill: #90d427; fill-opacity: 0.6; stroke: #000000; stroke-opacity: 0.6; stroke-width: 0.1"/>
    <path d="M 52.669233 121.478047 
L 62.02327 124.671452 
L 74.297573 119.570096 
L 64.890765 116.450593 
z
" clip-path="url(#p9bdc1d0411)" style="fill: #90d427; fill-opacity: 0.6; stroke: #000000; stroke-opacity: 0.6; stroke-width: 0.1"/>
    <path d="M 129.724126 110.700812 
L 139.857086 113.786741 
L 151.558232 108.764443 
L 141.383875 105.750868 
z
" clip-path="url(#p9bdc1d0411)" style="fill: #90d427; fill-opacity: 0.6; stroke: #000000; stroke-opacity: 0.6; stroke-width: 0.1"/>
    <path d="M 74.297573 119.570096 
L 83.894248 122.752564 
L 96.037747 117.652279 
L 86.391248 114.543811 
z
" clip-path="url(#p9bdc1d0411)" style="fill: #90d427; fill-opacity: 0.6; stroke: #000000; stroke-opacity: 0.6; stroke-width: 0.1"/>
    <path d="M 151.558232 108.764443 
L 161.938016 111.838865 
L 173.505274 106.818058 
L 163.087131 103.816076 
z
" clip-path="url(#p9bdc1d0411)" style="fill: #90d427; fill-opacity: 0.6; stroke: #000000; stroke-opacity: 0.6; stroke-width: 0.1"/>
    <path d="M 96.037747 117.652279 
L 105.879459 120.823653 
L 117.890625 115.72452 
L 108.002085 112.627243 
z
" clip-path="url(#p9bdc1d0411)" style="fill: #90d427; fill-opacity: 0.6; stroke: #000000; stroke-opacity: 0.6; stroke-width: 0.1"/>
    <path d="M 173.505274 106.818058 
L 184.134315 109.880811 
L 195.566128 104.86158 
L 184.901816 101.871351 
z
" clip-path="url(#p9bdc1d0411)" style="fill: #90d427; fill-opacity: 0.6; stroke: #000000; stroke-opacity: 0.6; stroke-width: 0.1"/>
    <path d="M 40.265636 126.580396 
L 49.564262 129.849574 
L 62.02327 124.671452 
L 52.669233 121.478047 
z
" clip-path="url(#p9bdc1d0411)" style="fill: #90d427; fill-opacity: 0.6; stroke: #000000; stroke-opacity: 0.6; stroke-width: 0.1"/>
    <path d="M 117.890625 115.72452 
L 127.979801 118.884641 
L 139.857086 113.786741 
L 129.724126 110.700812 
z
" clip-path="url(#p9bdc1d0411)" style="fill: #90d427; fill-opacity: 0.6; stroke: #000000; stroke-opacity: 0.6; stroke-width: 0.1"/>
    <path d="M 195.566128 104.86158 
L 206.446887 107.9125 
L 217.741683 102.894929 
L 206.828792 99.916616 
z
" clip-path="url(#p9bdc1d0411)" style="fill: #90d427; fill-opacity: 0.6; stroke: #000000; stroke-opacity: 0.6; stroke-width: 0.1"/>
    <path d="M 62.02327 124.671452 
L 71.567533 127.929799 
L 83.894248 122.752564 
L 74.297573 119.570096 
z
" clip-path="url(#p9bdc1d0411)" style="fill: #90d427; fill-opacity: 0.6; stroke: #000000; stroke-opacity: 0.6; stroke-width: 0.1"/>
    <path d="M 139.857086 113.786741 
L 150.19618 116.935448 
L 161.938016 111.838865 
L 151.558232 108.764443 
z
" clip-path="url(#p9bdc1d0411)" style="fill: #90d427; fill-opacity: 0.6; stroke: #000000; stroke-opacity: 0.6; stroke-width: 0.1"/>
    <path d="M 83.894248 122.752564 
L 93.686598 125.999921 
L 105.879459 120.823653 
L 96.037747 117.652279 
z
" clip-path="url(#p9bdc1d0411)" style="fill: #90d427; fill-opacity: 0.6; stroke: #000000; stroke-opacity: 0.6; stroke-width: 0.1"/>
    <path d="M 161.938016 111.838865 
L 172.529512 114.975994 
L 184.134315 109.880811 
L 173.505274 106.818058 
z
" clip-path="url(#p9bdc1d0411)" style="fill: #90d427; fill-opacity: 0.6; stroke: #000000; stroke-opacity: 0.6; stroke-width: 0.1"/>
    <path d="M 105.879459 120.823653 
L 115.922372 124.05986 
L 127.979801 118.884641 
L 117.890625 115.72452 
z
" clip-path="url(#p9bdc1d0411)" style="fill: #90d427; fill-opacity: 0.6; stroke: #000000; stroke-opacity: 0.6; stroke-width: 0.1"/>
    <path d="M 184.134315 109.880811 
L 194.980724 113.006198 
L 206.446887 107.9125 
L 195.566128 104.86158 
z
" clip-path="url(#p9bdc1d0411)" style="fill: #90d427; fill-opacity: 0.6; stroke: #000000; stroke-opacity: 0.6; stroke-width: 0.1"/>
    <path d="M 49.564262 129.849574 
L 59.053425 133.18574 
L 71.567533 127.929799 
L 62.02327 124.671452 
z
" clip-path="url(#p9bdc1d0411)" style="fill: #90d427; fill-opacity: 0.6; stroke: #000000; stroke-opacity: 0.6; stroke-width: 0.1"/>
    <path d="M 127.979801 118.884641 
L 138.275782 122.109536 
L 150.19618 116.935448 
L 139.857086 113.786741 
z
" clip-path="url(#p9bdc1d0411)" style="fill: #90d427; fill-opacity: 0.6; stroke: #000000; stroke-opacity: 0.6; stroke-width: 0.1"/>
    <path d="M 71.567533 127.929799 
L 81.307886 131.255089 
L 93.686598 125.999921 
L 83.894248 122.752564 
z
" clip-path="url(#p9bdc1d0411)" style="fill: #90d427; fill-opacity: 0.6; stroke: #000000; stroke-opacity: 0.6; stroke-width: 0.1"/>
    <path d="M 150.19618 116.935448 
L 160.747764 120.148866 
L 172.529512 114.975994 
L 161.938016 111.838865 
z
" clip-path="url(#p9bdc1d0411)" style="fill: #90d427; fill-opacity: 0.6; stroke: #000000; stroke-opacity: 0.6; stroke-width: 0.1"/>
    <path d="M 93.686598 125.999921 
L 103.680668 129.314173 
L 115.922372 124.05986 
L 105.879459 120.823653 
z
" clip-path="url(#p9bdc1d0411)" style="fill: #90d427; fill-opacity: 0.6; stroke: #000000; stroke-opacity: 0.6; stroke-width: 0.1"/>
    <path d="M 172.529512 114.975994 
L 183.339264 118.177769 
L 194.980724 113.006198 
L 184.134315 109.880811 
z
" clip-path="url(#p9bdc1d0411)" style="fill: #90d427; fill-opacity: 0.6; stroke: #000000; stroke-opacity: 0.6; stroke-width: 0.1"/>
    <path d="M 115.922372 124.05986 
L 126.172718 127.362911 
L 138.275782 122.109536 
L 127.979801 118.884641 
z
" clip-path="url(#p9bdc1d0411)" style="fill: #90d427; fill-opacity: 0.6; stroke: #000000; stroke-opacity: 0.6; stroke-width: 0.1"/>
    <path d="M 59.053425 133.18574 
L 68.739042 136.590974 
L 81.307886 131.255089 
L 71.567533 127.929799 
z
" clip-path="url(#p9bdc1d0411)" style="fill: #90d427; fill-opacity: 0.6; stroke: #000000; stroke-opacity: 0.6; stroke-width: 0.1"/>
    <path d="M 138.275782 122.109536 
L 148.784992 125.401219 
L 160.747764 120.148866 
L 150.19618 116.935448 
z
" clip-path="url(#p9bdc1d0411)" style="fill: #90d427; fill-opacity: 0.6; stroke: #000000; stroke-opacity: 0.6; stroke-width: 0.1"/>
    <path d="M 81.307886 131.255089 
L 91.250433 134.649407 
L 103.680668 129.314173 
L 93.686598 125.999921 
z
" clip-path="url(#p9bdc1d0411)" style="fill: #90d427; fill-opacity: 0.6; stroke: #000000; stroke-opacity: 0.6; stroke-width: 0.1"/>
    <path d="M 160.747764 120.148866 
L 171.518456 123.429013 
L 183.339264 118.177769 
L 172.529512 114.975994 
z
" clip-path="url(#p9bdc1d0411)" style="fill: #90d427; fill-opacity: 0.6; stroke: #000000; stroke-opacity: 0.6; stroke-width: 0.1"/>
    <path d="M 103.680668 129.314173 
L 113.882757 132.697409 
L 126.172718 127.362911 
L 115.922372 124.05986 
z
" clip-path="url(#p9bdc1d0411)" style="fill: #90d427; fill-opacity: 0.6; stroke: #000000; stroke-opacity: 0.6; stroke-width: 0.1"/>
    <path d="M 126.172718 127.362911 
L 136.636992 130.734897 
L 148.784992 125.401219 
L 138.275782 122.109536 
z
" clip-path="url(#p9bdc1d0411)" style="fill: #90d427; fill-opacity: 0.6; stroke: #000000; stroke-opacity: 0.6; stroke-width: 0.1"/>
    <path d="M 68.739042 136.590974 
L 78.627277 140.067445 
L 91.250433 134.649407 
L 81.307886 131.255089 
z
" clip-path="url(#p9bdc1d0411)" style="fill: #90d427; fill-opacity: 0.6; stroke: #000000; stroke-opacity: 0.6; stroke-width: 0.1"/>
    <path d="M 148.784992 125.401219 
L 159.514124 128.761785 
L 171.518456 123.429013 
L 160.747764 120.148866 
z
" clip-path="url(#p9bdc1d0411)" style="fill: #90d427; fill-opacity: 0.6; stroke: #000000; stroke-opacity: 0.6; stroke-width: 0.1"/>
    <path d="M 91.250433 134.649407 
L 101.401537 138.114925 
L 113.882757 132.697409 
L 103.680668 129.314173 
z
" clip-path="url(#p9bdc1d0411)" style="fill: #90d427; fill-opacity: 0.6; stroke: #000000; stroke-opacity: 0.6; stroke-width: 0.1"/>
    <path d="M 113.882757 132.697409 
L 124.299428 136.151805 
L 136.636992 130.734897 
L 126.172718 127.362911 
z
" clip-path="url(#p9bdc1d0411)" style="fill: #90d427; fill-opacity: 0.6; stroke: #000000; stroke-opacity: 0.6; stroke-width: 0.1"/>
    <path d="M 136.636992 130.734897 
L 147.321961 134.178 
L 159.514124 128.761785 
L 148.784992 125.401219 
z
" clip-path="url(#p9bdc1d0411)" style="fill: #90d427; fill-opacity: 0.6; stroke: #000000; stroke-opacity: 0.6; stroke-width: 0.1"/>
    <path d="M 78.627277 140.067445 
L 88.724557 143.61741 
L 101.401537 138.114925 
L 91.250433 134.649407 
z
" clip-path="url(#p9bdc1d0411)" style="fill: #90d427; fill-opacity: 0.6; stroke: #000000; stroke-opacity: 0.6; stroke-width: 0.1"/>
    <path d="M 101.401537 138.114925 
L 111.767829 141.653906 
L 124.299428 136.151805 
L 113.882757 132.697409 
z
" clip-path="url(#p9bdc1d0411)" style="fill: #90d427; fill-opacity: 0.6; stroke: #000000; stroke-opacity: 0.6; stroke-width: 0.1"/>
    <path d="M 124.299428 136.151805 
L 134.937522 139.67963 
L 147.321961 134.178 
L 136.636992 130.734897 
z
" clip-path="url(#p9bdc1d0411)" style="fill: #90d427; fill-opacity: 0.6; stroke: #000000; stroke-opacity: 0.6; stroke-width: 0.1"/>
    <path d="M 88.724557 143.61741 
L 99.03758 147.243226 
L 111.767829 141.653906 
L 101.401537 138.114925 
z
" clip-path="url(#p9bdc1d0411)" style="fill: #90d427; fill-opacity: 0.6; stroke: #000000; stroke-opacity: 0.6; stroke-width: 0.1"/>
    <path d="M 111.767829 141.653906 
L 122.356224 145.268712 
L 134.937522 139.67963 
L 124.299428 136.151805 
z
" clip-path="url(#p9bdc1d0411)" style="fill: #90d427; fill-opacity: 0.6; stroke: #000000; stroke-opacity: 0.6; stroke-width: 0.1"/>
    <path d="M 99.03758 147.243226 
L 109.573335 150.947349 
L 122.356224 145.268712 
L 111.767829 141.653906 
z
" clip-path="url(#p9bdc1d0411)" style="fill: #90d427; fill-opacity: 0.6; stroke: #000000; stroke-opacity: 0.6; stroke-width: 0.1"/>
   </g>
   <g id="line2d_26">
    <path d="M 76.601319 124.284946 
L 80.878831 125.721192 
L 85.194907 127.170387 
L 89.550069 128.632705 
L 93.944852 130.108326 
L 98.379798 131.597433 
L 102.855461 133.100212 
L 107.372403 134.61685 
L 111.9312 136.147542 
L 116.532434 137.692483 
L 121.176702 139.251873 
L 125.86461 140.825916 
L 130.596775 142.41482 
L 135.373829 144.018795 
L 140.196411 145.638057 
L 145.065178 147.272826 
L 149.980794 148.923326 
L 154.94394 150.589785 
L 159.955308 152.272435 
L 165.015604 153.971514 
" clip-path="url(#p9bdc1d0411)" style="fill: none; stroke-dasharray: 6.475,2.8; stroke-dashoffset: 0; stroke: #ff4500; stroke-width: 1.75"/>
   </g>
   <g id="line2d_27">
    <path d="M 76.16301 98.482097 
L 80.483114 99.816316 
L 84.842573 101.162689 
L 89.241927 102.521384 
L 93.681726 103.892569 
L 98.162531 105.276419 
L 102.684912 106.673109 
L 107.249451 108.082819 
L 111.856739 109.505732 
L 116.507381 110.942034 
L 121.201991 112.391915 
L 125.941195 113.855569 
L 130.725633 115.333192 
L 135.555954 116.824986 
L 140.432822 118.331156 
L 145.356913 119.85191 
L 150.328917 121.387461 
L 155.349535 122.938027 
L 160.419485 124.503828 
L 165.539497 126.08509 
" clip-path="url(#p9bdc1d0411)" style="fill: none; stroke-dasharray: 6.475,2.8; stroke-dashoffset: 0; stroke: #ff4500; stroke-width: 1.75"/>
   </g>
  </g>
 </g>
 <defs>
  <clipPath id="p9bdc1d0411">
   <rect x="8.710773" y="20.798437" width="214.48" height="214.48"/>
  </clipPath>
 </defs>
</svg>
