<?xml version="1.0" encoding="utf-8" standalone="no"?>
<!DOCTYPE svg PUBLIC "-//W3C//DTD SVG 1.1//EN"
  "http://www.w3.org/Graphics/SVG/1.1/DTD/svg11.dtd">
<svg xmlns:xlink="http://www.w3.org/1999/xlink" width="247.128746pt" height="249.066603pt" viewBox="0 0 247.128746 249.066603" xmlns="http://www.w3.org/2000/svg" version="1.1">
 <metadata>
  <rdf:RDF xmlns:dc="http://purl.org/dc/elements/1.1/" xmlns:cc="http://creativecommons.org/ns#" xmlns:rdf="http://www.w3.org/1999/02/22-rdf-syntax-ns#">
   <cc:Work>
    <dc:type rdf:resource="http://purl.org/dc/dcmitype/StillImage"/>
    <dc:date>2025-06-11T09:21:56.717984</dc:date>
    <dc:format>image/svg+xml</dc:format>
    <dc:creator>
     <cc:Agent>
      <dc:title>Matplotlib v3.10.3, https://matplotlib.org/</dc:title>
     </cc:Agent>
    </dc:creator>
   </cc:Work>
  </rdf:RDF>
 </metadata>
 <defs>
  <style type="text/css">*{stroke-linejoin: round; stroke-linecap: butt}</style>
 </defs>
 <g id="figure_1">
  <g id="patch_1">
   <path d="M 0 249.066603 
L 247.128746 249.066603 
L 247.128746 0 
L 0 0 
L 0 249.066603 
z
" style="fill: none; opacity: 0"/>
  </g>
  <g id="patch_2">
   <path d="M 8.51213 235.278437 
L 222.99213 235.278437 
L 222.99213 20.798437 
L 8.51213 20.798437 
L 8.51213 235.278437 
z
" style="fill: none"/>
  </g>
  <g id="pane3d_1">
   <g id="patch_3">
    <path d="M 22.601884 175.032764 
L 110.881695 130.455503 
L 110.604393 41.900577 
L 18.882708 80.69311 
" style="fill: none; opacity: 0"/>
   </g>
  </g>
  <g id="pane3d_2">
   <g id="patch_4">
    <path d="M 110.881695 130.455503 
L 213.453596 167.37521 
L 217.075121 74.013141 
L 110.604393 41.900577 
" style="fill: none; opacity: 0"/>
   </g>
  </g>
  <g id="pane3d_3">
   <g id="patch_5">
    <path d="M 22.601884 175.032764 
L 127.671772 218.467746 
L 213.453596 167.37521 
L 110.881695 130.455503 
" style="fill: none; opacity: 0"/>
   </g>
  </g>
  <g id="grid3d_1">
   <g id="Line3DCollection_1">
    <path d="M 22.601884 175.032764 
L 110.881695 130.455503 
L 110.604393 41.900577 
" style="fill: none; stroke: #b0b0b0; stroke-width: 0.8"/>
    <path d="M 39.10213 181.853823 
L 127.064987 136.280514 
L 127.368657 46.956835 
" style="fill: none; stroke: #b0b0b0; stroke-width: 0.8"/>
    <path d="M 55.988026 188.834306 
L 143.59735 142.231169 
L 144.50772 52.126137 
" style="fill: none; stroke: #b0b0b0; stroke-width: 0.8"/>
    <path d="M 73.273252 195.979868 
L 160.490204 148.311579 
L 162.034295 57.412315 
" style="fill: none; stroke: #b0b0b0; stroke-width: 0.8"/>
    <path d="M 90.972142 203.296437 
L 177.755467 154.526034 
L 179.961673 62.819379 
" style="fill: none; stroke: #b0b0b0; stroke-width: 0.8"/>
    <path d="M 109.099727 210.790223 
L 195.405594 160.879016 
L 198.303762 68.351524 
" style="fill: none; stroke: #b0b0b0; stroke-width: 0.8"/>
    <path d="M 127.671772 218.467746 
L 213.453596 167.37521 
L 217.075121 74.013141 
" style="fill: none; stroke: #b0b0b0; stroke-width: 0.8"/>
   </g>
  </g>
  <g id="grid3d_2">
   <g id="Line3DCollection_2">
    <path d="M 18.882708 80.69311 
L 22.601884 175.032764 
L 127.671772 218.467746 
" style="fill: none; stroke: #b0b0b0; stroke-width: 0.8"/>
    <path d="M 35.235071 73.777083 
L 38.302908 167.104466 
L 142.998096 209.33923 
" style="fill: none; stroke: #b0b0b0; stroke-width: 0.8"/>
    <path d="M 51.137833 67.05121 
L 53.587907 159.386242 
L 157.8893 200.469876 
" style="fill: none; stroke: #b0b0b0; stroke-width: 0.8"/>
    <path d="M 66.609286 60.507754 
L 68.473198 151.869852 
L 172.363654 191.848802 
" style="fill: none; stroke: #b0b0b0; stroke-width: 0.8"/>
    <path d="M 81.666741 54.139393 
L 82.974258 144.547481 
L 186.43842 183.465727 
" style="fill: none; stroke: #b0b0b0; stroke-width: 0.8"/>
    <path d="M 96.326595 47.939192 
L 97.105774 137.411713 
L 200.129919 175.310929 
" style="fill: none; stroke: #b0b0b0; stroke-width: 0.8"/>
    <path d="M 110.604393 41.900577 
L 110.881695 130.455503 
L 213.453596 167.37521 
" style="fill: none; stroke: #b0b0b0; stroke-width: 0.8"/>
   </g>
  </g>
  <g id="grid3d_3">
   <g id="Line3DCollection_3">
    <path d="M 213.453596 167.37521 
L 110.881695 130.455503 
L 22.601884 175.032764 
" style="fill: none; stroke: #b0b0b0; stroke-width: 0.8"/>
    <path d="M 213.954554 154.460637 
L 110.843257 118.18036 
L 22.087641 161.988607 
" style="fill: none; stroke: #b0b0b0; stroke-width: 0.8"/>
    <path d="M 214.460834 141.408853 
L 110.804436 105.783142 
L 21.567862 148.804023 
" style="fill: none; stroke: #b0b0b0; stroke-width: 0.8"/>
    <path d="M 214.972522 128.217659 
L 110.765227 93.26202 
L 21.042456 135.47673 
" style="fill: none; stroke: #b0b0b0; stroke-width: 0.8"/>
    <path d="M 215.489705 114.88481 
L 110.725624 80.615126 
L 20.511333 122.004399 
" style="fill: none; stroke: #b0b0b0; stroke-width: 0.8"/>
    <path d="M 216.012471 101.408012 
L 110.685622 67.840556 
L 19.974398 108.384649 
" style="fill: none; stroke: #b0b0b0; stroke-width: 0.8"/>
    <path d="M 216.540912 87.784921 
L 110.645213 54.936368 
L 19.431556 94.615049 
" style="fill: none; stroke: #b0b0b0; stroke-width: 0.8"/>
    <path d="M 217.075121 74.013141 
L 110.604393 41.900577 
L 18.882708 80.69311 
" style="fill: none; stroke: #b0b0b0; stroke-width: 0.8"/>
   </g>
  </g>
  <g id="axis3d_1">
   <g id="line2d_1">
    <path d="M 22.601884 175.032764 
L 127.671772 218.467746 
" style="fill: none; stroke: #000000; stroke-width: 0.8; stroke-linecap: square"/>
   </g>
   <g id="xtick_1">
    <g id="line2d_2">
     <path d="M 23.365291 174.647278 
L 21.072074 175.805247 
" style="fill: none; stroke: #000000; stroke-width: 0.8; stroke-linecap: square"/>
    </g>
    <g id="text_1">
     <!-- −3 -->
     <g transform="translate(7.2 195.490906) scale(0.08 -0.08)">
      <defs>
       <path id="DejaVuSans-2212" d="M 678 2272 
L 4684 2272 
L 4684 1741 
L 678 1741 
L 678 2272 
z
" transform="scale(0.015625)"/>
       <path id="DejaVuSans-33" d="M 2597 2516 
Q 3050 2419 3304 2112 
Q 3559 1806 3559 1356 
Q 3559 666 3084 287 
Q 2609 -91 1734 -91 
Q 1441 -91 1130 -33 
Q 819 25 488 141 
L 488 750 
Q 750 597 1062 519 
Q 1375 441 1716 441 
Q 2309 441 2620 675 
Q 2931 909 2931 1356 
Q 2931 1769 2642 2001 
Q 2353 2234 1838 2234 
L 1294 2234 
L 1294 2753 
L 1863 2753 
Q 2328 2753 2575 2939 
Q 2822 3125 2822 3475 
Q 2822 3834 2567 4026 
Q 2313 4219 1838 4219 
Q 1578 4219 1281 4162 
Q 984 4106 628 3988 
L 628 4550 
Q 988 4650 1302 4700 
Q 1616 4750 1894 4750 
Q 2613 4750 3031 4423 
Q 3450 4097 3450 3541 
Q 3450 3153 3228 2886 
Q 3006 2619 2597 2516 
z
" transform="scale(0.015625)"/>
      </defs>
      <use xlink:href="#DejaVuSans-2212"/>
      <use xlink:href="#DejaVuSans-33" transform="translate(83.789062 0)"/>
     </g>
    </g>
   </g>
   <g id="xtick_2">
    <g id="line2d_3">
     <path d="M 39.863454 181.459383 
L 37.576461 182.644268 
" style="fill: none; stroke: #000000; stroke-width: 0.8; stroke-linecap: square"/>
    </g>
    <g id="text_2">
     <!-- −2 -->
     <g transform="translate(23.666545 202.510502) scale(0.08 -0.08)">
      <defs>
       <path id="DejaVuSans-32" d="M 1228 531 
L 3431 531 
L 3431 0 
L 469 0 
L 469 531 
Q 828 903 1448 1529 
Q 2069 2156 2228 2338 
Q 2531 2678 2651 2914 
Q 2772 3150 2772 3378 
Q 2772 3750 2511 3984 
Q 2250 4219 1831 4219 
Q 1534 4219 1204 4116 
Q 875 4013 500 3803 
L 500 4441 
Q 881 4594 1212 4672 
Q 1544 4750 1819 4750 
Q 2544 4750 2975 4387 
Q 3406 4025 3406 3419 
Q 3406 3131 3298 2873 
Q 3191 2616 2906 2266 
Q 2828 2175 2409 1742 
Q 1991 1309 1228 531 
z
" transform="scale(0.015625)"/>
      </defs>
      <use xlink:href="#DejaVuSans-2212"/>
      <use xlink:href="#DejaVuSans-32" transform="translate(83.789062 0)"/>
     </g>
    </g>
   </g>
   <g id="xtick_3">
    <g id="line2d_4">
     <path d="M 56.74696 188.430596 
L 54.46711 189.643346 
" style="fill: none; stroke: #000000; stroke-width: 0.8; stroke-linecap: square"/>
    </g>
    <g id="text_3">
     <!-- −1 -->
     <g transform="translate(40.51976 209.694934) scale(0.08 -0.08)">
      <defs>
       <path id="DejaVuSans-31" d="M 794 531 
L 1825 531 
L 1825 4091 
L 703 3866 
L 703 4441 
L 1819 4666 
L 2450 4666 
L 2450 531 
L 3481 531 
L 3481 0 
L 794 0 
L 794 531 
z
" transform="scale(0.015625)"/>
      </defs>
      <use xlink:href="#DejaVuSans-2212"/>
      <use xlink:href="#DejaVuSans-31" transform="translate(83.789062 0)"/>
     </g>
    </g>
   </g>
   <g id="xtick_4">
    <g id="line2d_5">
     <path d="M 74.02947 195.566559 
L 71.757743 196.808168 
" style="fill: none; stroke: #000000; stroke-width: 0.8; stroke-linecap: square"/>
    </g>
    <g id="text_4">
     <!-- 0 -->
     <g transform="translate(61.125301 217.050075) scale(0.08 -0.08)">
      <defs>
       <path id="DejaVuSans-30" d="M 2034 4250 
Q 1547 4250 1301 3770 
Q 1056 3291 1056 2328 
Q 1056 1369 1301 889 
Q 1547 409 2034 409 
Q 2525 409 2770 889 
Q 3016 1369 3016 2328 
Q 3016 3291 2770 3770 
Q 2525 4250 2034 4250 
z
M 2034 4750 
Q 2819 4750 3233 4129 
Q 3647 3509 3647 2328 
Q 3647 1150 3233 529 
Q 2819 -91 2034 -91 
Q 1250 -91 836 529 
Q 422 1150 422 2328 
Q 422 3509 836 4129 
Q 1250 4750 2034 4750 
z
" transform="scale(0.015625)"/>
      </defs>
      <use xlink:href="#DejaVuSans-30"/>
     </g>
    </g>
   </g>
   <g id="xtick_5">
    <g id="line2d_6">
     <path d="M 91.725296 202.87318 
L 89.462737 204.144691 
" style="fill: none; stroke: #000000; stroke-width: 0.8; stroke-linecap: square"/>
    </g>
    <g id="text_5">
     <!-- 1 -->
     <g transform="translate(78.793863 224.582084) scale(0.08 -0.08)">
      <use xlink:href="#DejaVuSans-31"/>
     </g>
    </g>
   </g>
   <g id="xtick_6">
    <g id="line2d_7">
     <path d="M 109.849446 210.356656 
L 107.597168 211.659162 
" style="fill: none; stroke: #000000; stroke-width: 0.8; stroke-linecap: square"/>
    </g>
    <g id="text_6">
     <!-- 2 -->
     <g transform="translate(96.892468 232.297418) scale(0.08 -0.08)">
      <use xlink:href="#DejaVuSans-32"/>
     </g>
    </g>
   </g>
   <g id="xtick_7">
    <g id="line2d_8">
     <path d="M 128.41766 218.023487 
L 126.176852 219.358135 
" style="fill: none; stroke: #000000; stroke-width: 0.8; stroke-linecap: square"/>
    </g>
    <g id="text_7">
     <!-- 3 -->
     <g transform="translate(115.43701 240.202853) scale(0.08 -0.08)">
      <use xlink:href="#DejaVuSans-33"/>
     </g>
    </g>
   </g>
   <g id="text_8">
    <!-- X -->
    <g transform="translate(49.197643 231.236284) scale(0.09 -0.09)">
     <defs>
      <path id="DejaVuSans-58" d="M 403 4666 
L 1081 4666 
L 2241 2931 
L 3406 4666 
L 4084 4666 
L 2584 2425 
L 4184 0 
L 3506 0 
L 2194 1984 
L 872 0 
L 191 0 
L 1856 2491 
L 403 4666 
z
" transform="scale(0.015625)"/>
     </defs>
     <use xlink:href="#DejaVuSans-58"/>
    </g>
   </g>
  </g>
  <g id="axis3d_2">
   <g id="line2d_9">
    <path d="M 213.453596 167.37521 
L 127.671772 218.467746 
" style="fill: none; stroke: #000000; stroke-width: 0.8; stroke-linecap: square"/>
   </g>
   <g id="xtick_8">
    <g id="line2d_10">
     <path d="M 126.769916 218.094926 
L 129.478672 219.214703 
" style="fill: none; stroke: #000000; stroke-width: 0.8; stroke-linecap: square"/>
    </g>
    <g id="text_9">
     <!-- −3 -->
     <g transform="translate(133.390042 239.25636) scale(0.08 -0.08)">
      <use xlink:href="#DejaVuSans-2212"/>
      <use xlink:href="#DejaVuSans-33" transform="translate(83.789062 0)"/>
     </g>
    </g>
   </g>
   <g id="xtick_9">
    <g id="line2d_11">
     <path d="M 142.100335 208.977067 
L 144.796746 210.064817 
" style="fill: none; stroke: #000000; stroke-width: 0.8; stroke-linecap: square"/>
    </g>
    <g id="text_10">
     <!-- −2 -->
     <g transform="translate(148.600869 229.884138) scale(0.08 -0.08)">
      <use xlink:href="#DejaVuSans-2212"/>
      <use xlink:href="#DejaVuSans-32" transform="translate(83.789062 0)"/>
     </g>
    </g>
   </g>
   <g id="xtick_10">
    <g id="line2d_12">
     <path d="M 156.995767 200.117919 
L 159.679435 201.174998 
" style="fill: none; stroke: #000000; stroke-width: 0.8; stroke-linecap: square"/>
    </g>
    <g id="text_11">
     <!-- −1 -->
     <g transform="translate(163.378402 220.778892) scale(0.08 -0.08)">
      <use xlink:href="#DejaVuSans-2212"/>
      <use xlink:href="#DejaVuSans-31" transform="translate(83.789062 0)"/>
     </g>
    </g>
   </g>
   <g id="xtick_11">
    <g id="line2d_13">
     <path d="M 171.474465 191.506625 
L 174.145043 192.534313 
" style="fill: none; stroke: #000000; stroke-width: 0.8; stroke-linecap: square"/>
    </g>
    <g id="text_12">
     <!-- 0 -->
     <g transform="translate(181.092769 211.929375) scale(0.08 -0.08)">
      <use xlink:href="#DejaVuSans-30"/>
     </g>
    </g>
   </g>
   <g id="xtick_12">
    <g id="line2d_14">
     <path d="M 185.553677 183.132929 
L 188.21086 184.132433 
" style="fill: none; stroke: #000000; stroke-width: 0.8; stroke-linecap: square"/>
    </g>
    <g id="text_13">
     <!-- 1 -->
     <g transform="translate(195.057463 203.324963) scale(0.08 -0.08)">
      <use xlink:href="#DejaVuSans-31"/>
     </g>
    </g>
   </g>
   <g id="xtick_13">
    <g id="line2d_15">
     <path d="M 199.249712 174.98713 
L 201.893233 175.959595 
" style="fill: none; stroke: #000000; stroke-width: 0.8; stroke-linecap: square"/>
    </g>
    <g id="text_14">
     <!-- 2 -->
     <g transform="translate(208.640661 194.955613) scale(0.08 -0.08)">
      <use xlink:href="#DejaVuSans-32"/>
     </g>
    </g>
   </g>
   <g id="xtick_14">
    <g id="line2d_16">
     <path d="M 212.578002 167.060049 
L 215.207631 168.006557 
" style="fill: none; stroke: #000000; stroke-width: 0.8; stroke-linecap: square"/>
    </g>
    <g id="text_15">
     <!-- 3 -->
     <g transform="translate(221.857784 186.81182) scale(0.08 -0.08)">
      <use xlink:href="#DejaVuSans-33"/>
     </g>
    </g>
   </g>
   <g id="text_16">
    <!-- Y -->
    <g transform="translate(194.21993 224.890022) scale(0.09 -0.09)">
     <defs>
      <path id="DejaVuSans-59" d="M -13 4666 
L 666 4666 
L 1959 2747 
L 3244 4666 
L 3922 4666 
L 2272 2222 
L 2272 0 
L 1638 0 
L 1638 2222 
L -13 4666 
z
" transform="scale(0.015625)"/>
     </defs>
     <use xlink:href="#DejaVuSans-59"/>
    </g>
   </g>
  </g>
  <g id="axis3d_3">
   <g id="line2d_17">
    <path d="M 213.453596 167.37521 
L 217.075121 74.013141 
" style="fill: none; stroke: #000000; stroke-width: 0.8; stroke-linecap: square"/>
   </g>
   <g id="xtick_15">
    <g id="line2d_18">
     <path d="M 212.578002 167.060049 
L 215.207631 168.006557 
" style="fill: none; stroke: #000000; stroke-width: 0.8; stroke-linecap: square"/>
    </g>
    <g id="text_17">
     <!-- −3 -->
     <g transform="translate(226.923629 172.676901) scale(0.08 -0.08)">
      <use xlink:href="#DejaVuSans-2212"/>
      <use xlink:href="#DejaVuSans-33" transform="translate(83.789062 0)"/>
     </g>
    </g>
   </g>
   <g id="xtick_16">
    <g id="line2d_19">
     <path d="M 213.074063 154.150831 
L 215.718413 155.081261 
" style="fill: none; stroke: #000000; stroke-width: 0.8; stroke-linecap: square"/>
    </g>
    <g id="text_18">
     <!-- −2 -->
     <g transform="translate(227.526116 159.775536) scale(0.08 -0.08)">
      <use xlink:href="#DejaVuSans-2212"/>
      <use xlink:href="#DejaVuSans-32" transform="translate(83.789062 0)"/>
     </g>
    </g>
   </g>
   <g id="xtick_17">
    <g id="line2d_20">
     <path d="M 213.575391 141.104535 
L 216.234628 142.018489 
" style="fill: none; stroke: #000000; stroke-width: 0.8; stroke-linecap: square"/>
    </g>
    <g id="text_19">
     <!-- −1 -->
     <g transform="translate(228.134996 146.737284) scale(0.08 -0.08)">
      <use xlink:href="#DejaVuSans-2212"/>
      <use xlink:href="#DejaVuSans-31" transform="translate(83.789062 0)"/>
     </g>
    </g>
   </g>
   <g id="xtick_18">
    <g id="line2d_21">
     <path d="M 214.082072 127.918964 
L 216.756362 128.816036 
" style="fill: none; stroke: #000000; stroke-width: 0.8; stroke-linecap: square"/>
    </g>
    <g id="text_20">
     <!-- 0 -->
     <g transform="translate(232.102246 133.559957) scale(0.08 -0.08)">
      <use xlink:href="#DejaVuSans-30"/>
     </g>
    </g>
   </g>
   <g id="xtick_19">
    <g id="line2d_22">
     <path d="M 214.59419 114.591876 
L 217.283706 115.471651 
" style="fill: none; stroke: #000000; stroke-width: 0.8; stroke-linecap: square"/>
    </g>
    <g id="text_21">
     <!-- 1 -->
     <g transform="translate(232.72422 120.241316) scale(0.08 -0.08)">
      <use xlink:href="#DejaVuSans-31"/>
     </g>
    </g>
   </g>
   <g id="xtick_20">
    <g id="line2d_23">
     <path d="M 215.111835 101.120981 
L 217.816749 101.983032 
" style="fill: none; stroke: #000000; stroke-width: 0.8; stroke-linecap: square"/>
    </g>
    <g id="text_22">
     <!-- 2 -->
     <g transform="translate(233.352901 106.779076) scale(0.08 -0.08)">
      <use xlink:href="#DejaVuSans-32"/>
     </g>
    </g>
   </g>
   <g id="xtick_21">
    <g id="line2d_24">
     <path d="M 215.635095 87.503939 
L 218.355585 88.347827 
" style="fill: none; stroke: #000000; stroke-width: 0.8; stroke-linecap: square"/>
    </g>
    <g id="text_23">
     <!-- 3 -->
     <g transform="translate(233.988396 93.170902) scale(0.08 -0.08)">
      <use xlink:href="#DejaVuSans-33"/>
     </g>
    </g>
   </g>
   <g id="xtick_22">
    <g id="line2d_25">
     <path d="M 216.164064 73.738358 
L 218.900309 74.563635 
" style="fill: none; stroke: #000000; stroke-width: 0.8; stroke-linecap: square"/>
    </g>
    <g id="text_24">
     <!-- 4 -->
     <g transform="translate(234.630817 79.414408) scale(0.08 -0.08)">
      <defs>
       <path id="DejaVuSans-34" d="M 2419 4116 
L 825 1625 
L 2419 1625 
L 2419 4116 
z
M 2253 4666 
L 3047 4666 
L 3047 1625 
L 3713 1625 
L 3713 1100 
L 3047 1100 
L 3047 0 
L 2419 0 
L 2419 1100 
L 313 1100 
L 313 1709 
L 2253 4666 
z
" transform="scale(0.015625)"/>
      </defs>
      <use xlink:href="#DejaVuSans-34"/>
     </g>
    </g>
   </g>
   <g id="text_25">
    <!-- Z -->
    <g transform="translate(254.964397 122.469412) scale(0.09 -0.09)">
     <defs>
      <path id="DejaVuSans-5a" d="M 359 4666 
L 4025 4666 
L 4025 4184 
L 1075 531 
L 4097 531 
L 4097 0 
L 288 0 
L 288 481 
L 3238 4134 
L 359 4134 
L 359 4666 
z
" transform="scale(0.015625)"/>
     </defs>
     <use xlink:href="#DejaVuSans-5a"/>
    </g>
   </g>
  </g>
  <g id="axes_1">
   <g id="Poly3DCollection_1">
    <path d="M 101.187453 54.676258 
L 112.323598 62.534549 
L 121.734256 49.64527 
L 110.604393 41.900577 
z
" clip-path="url(#p68ddf4b65f)" style="fill: #386991; fill-opacity: 0.6; stroke: #000000; stroke-opacity: 0.6; stroke-width: 0.1"/>
    <path d="M 91.669861 67.58849 
L 102.811784 75.562377 
L 112.323598 62.534549 
L 101.187453 54.676258 
z
" clip-path="url(#p68ddf4b65f)" style="fill: #386991; fill-opacity: 0.6; stroke: #000000; stroke-opacity: 0.6; stroke-width: 0.1"/>
    <path d="M 112.323598 62.534549 
L 123.586322 70.482162 
L 132.98995 57.477522 
L 121.734256 49.64527 
z
" clip-path="url(#p68ddf4b65f)" style="fill: #386991; fill-opacity: 0.6; stroke: #000000; stroke-opacity: 0.6; stroke-width: 0.1"/>
    <path d="M 82.049995 80.639474 
L 93.197174 88.730999 
L 102.811784 75.562377 
L 91.669861 67.58849 
z
" clip-path="url(#p68ddf4b65f)" style="fill: #386991; fill-opacity: 0.6; stroke: #000000; stroke-opacity: 0.6; stroke-width: 0.1"/>
    <path d="M 102.811784 75.562377 
L 114.081036 83.627389 
L 123.586322 70.482162 
L 112.323598 62.534549 
z
" clip-path="url(#p68ddf4b65f)" style="fill: #386991; fill-opacity: 0.6; stroke: #000000; stroke-opacity: 0.6; stroke-width: 0.1"/>
    <path d="M 123.586322 70.482162 
L 134.977795 78.520627 
L 144.373621 65.398826 
L 132.98995 57.477522 
z
" clip-path="url(#p68ddf4b65f)" style="fill: #386991; fill-opacity: 0.6; stroke: #000000; stroke-opacity: 0.6; stroke-width: 0.1"/>
    <path d="M 72.326197 93.83146 
L 83.478092 102.042711 
L 93.197174 88.730999 
L 82.049995 80.639474 
z
" clip-path="url(#p68ddf4b65f)" style="fill: #386991; fill-opacity: 0.6; stroke: #000000; stroke-opacity: 0.6; stroke-width: 0.1"/>
    <path d="M 93.197174 88.730999 
L 104.472435 96.915496 
L 114.081036 83.627389 
L 102.811784 75.562377 
z
" clip-path="url(#p68ddf4b65f)" style="fill: #386991; fill-opacity: 0.6; stroke: #000000; stroke-opacity: 0.6; stroke-width: 0.1"/>
    <path d="M 114.081036 83.627389 
L 125.479813 91.785097 
L 134.977795 78.520627 
L 123.586322 70.482162 
z
" clip-path="url(#p68ddf4b65f)" style="fill: #386991; fill-opacity: 0.6; stroke: #000000; stroke-opacity: 0.6; stroke-width: 0.1"/>
    <path d="M 134.977795 78.520627 
L 146.500238 86.651512 
L 155.887463 73.410711 
L 144.373621 65.398826 
z
" clip-path="url(#p68ddf4b65f)" style="fill: #386991; fill-opacity: 0.6; stroke: #000000; stroke-opacity: 0.6; stroke-width: 0.1"/>
    <path d="M 62.496774 107.166745 
L 73.652827 115.499857 
L 83.478092 102.042711 
L 72.326197 93.83146 
z
" clip-path="url(#p68ddf4b65f)" style="fill: #386991; fill-opacity: 0.6; stroke: #000000; stroke-opacity: 0.6; stroke-width: 0.1"/>
    <path d="M 83.478092 102.042711 
L 94.758824 110.348824 
L 104.472435 96.915496 
L 93.197174 88.730999 
z
" clip-path="url(#p68ddf4b65f)" style="fill: #386991; fill-opacity: 0.6; stroke: #000000; stroke-opacity: 0.6; stroke-width: 0.1"/>
    <path d="M 104.472435 96.915496 
L 115.877997 105.194576 
L 125.479813 91.785097 
L 114.081036 83.627389 
z
" clip-path="url(#p68ddf4b65f)" style="fill: #386991; fill-opacity: 0.6; stroke: #000000; stroke-opacity: 0.6; stroke-width: 0.1"/>
    <path d="M 125.479813 91.785097 
L 137.010359 100.037109 
L 146.500238 86.651512 
L 134.977795 78.520627 
z
" clip-path="url(#p68ddf4b65f)" style="fill: #386991; fill-opacity: 0.6; stroke: #000000; stroke-opacity: 0.6; stroke-width: 0.1"/>
    <path d="M 146.500238 86.651512 
L 158.155922 94.87642 
L 167.533724 81.514738 
L 155.887463 73.410711 
z
" clip-path="url(#p68ddf4b65f)" style="fill: #386991; fill-opacity: 0.6; stroke: #000000; stroke-opacity: 0.6; stroke-width: 0.1"/>
    <path d="M 52.559994 120.647677 
L 63.719628 129.104834 
L 73.652827 115.499857 
L 62.496774 107.166745 
z
" clip-path="url(#p68ddf4b65f)" style="fill: #386991; fill-opacity: 0.6; stroke: #000000; stroke-opacity: 0.6; stroke-width: 0.1"/>
    <path d="M 73.652827 115.499857 
L 84.938472 123.929768 
L 94.758824 110.348824 
L 83.478092 102.042711 
z
" clip-path="url(#p68ddf4b65f)" style="fill: #386991; fill-opacity: 0.6; stroke: #000000; stroke-opacity: 0.6; stroke-width: 0.1"/>
    <path d="M 94.758824 110.348824 
L 106.170636 118.751454 
L 115.877997 105.194576 
L 104.472435 96.915496 
z
" clip-path="url(#p68ddf4b65f)" style="fill: #386991; fill-opacity: 0.6; stroke: #000000; stroke-opacity: 0.6; stroke-width: 0.1"/>
    <path d="M 115.877997 105.194576 
L 127.416132 113.569889 
L 137.010359 100.037109 
L 125.479813 91.785097 
z
" clip-path="url(#p68ddf4b65f)" style="fill: #386991; fill-opacity: 0.6; stroke: #000000; stroke-opacity: 0.6; stroke-width: 0.1"/>
    <path d="M 137.010359 100.037109 
L 148.674974 108.385068 
L 158.155922 94.87642 
L 146.500238 86.651512 
z
" clip-path="url(#p68ddf4b65f)" style="fill: #386991; fill-opacity: 0.6; stroke: #000000; stroke-opacity: 0.6; stroke-width: 0.1"/>
    <path d="M 158.155922 94.87642 
L 169.947172 103.19699 
L 179.3147 89.712506 
L 167.533724 81.514738 
z
" clip-path="url(#p68ddf4b65f)" style="fill: #386991; fill-opacity: 0.6; stroke: #000000; stroke-opacity: 0.6; stroke-width: 0.1"/>
    <path d="M 42.514091 134.276653 
L 53.676707 142.86009 
L 63.719628 129.104834 
L 52.559994 120.647677 
z
" clip-path="url(#p68ddf4b65f)" style="fill: #386991; fill-opacity: 0.6; stroke: #000000; stroke-opacity: 0.6; stroke-width: 0.1"/>
    <path d="M 63.719628 129.104834 
L 75.009611 137.660774 
L 84.938472 123.929768 
L 73.652827 115.499857 
z
" clip-path="url(#p68ddf4b65f)" style="fill: #386991; fill-opacity: 0.6; stroke: #000000; stroke-opacity: 0.6; stroke-width: 0.1"/>
    <path d="M 84.938472 123.929768 
L 96.35598 132.458176 
L 106.170636 118.751454 
L 94.758824 110.348824 
z
" clip-path="url(#p68ddf4b65f)" style="fill: #386991; fill-opacity: 0.6; stroke: #000000; stroke-opacity: 0.6; stroke-width: 0.1"/>
    <path d="M 106.170636 118.751454 
L 117.715828 127.252293 
L 127.416132 113.569889 
L 115.877997 105.194576 
z
" clip-path="url(#p68ddf4b65f)" style="fill: #386991; fill-opacity: 0.6; stroke: #000000; stroke-opacity: 0.6; stroke-width: 0.1"/>
    <path d="M 127.416132 113.569889 
L 139.089166 122.043121 
L 148.674974 108.385068 
L 137.010359 100.037109 
z
" clip-path="url(#p68ddf4b65f)" style="fill: #386991; fill-opacity: 0.6; stroke: #000000; stroke-opacity: 0.6; stroke-width: 0.1"/>
    <path d="M 148.674974 108.385068 
L 160.476009 116.830659 
L 169.947172 103.19699 
L 158.155922 94.87642 
z
" clip-path="url(#p68ddf4b65f)" style="fill: #386991; fill-opacity: 0.6; stroke: #000000; stroke-opacity: 0.6; stroke-width: 0.1"/>
    <path d="M 169.947172 103.19699 
L 181.876367 111.614902 
L 191.232741 98.005651 
L 179.3147 89.712506 
z
" clip-path="url(#p68ddf4b65f)" style="fill: #386991; fill-opacity: 0.6; stroke: #000000; stroke-opacity: 0.6; stroke-width: 0.1"/>
    <path d="M 32.357256 148.056128 
L 43.522236 156.768131 
L 53.676707 142.86009 
L 42.514091 134.276653 
z
" clip-path="url(#p68ddf4b65f)" style="fill: #386991; fill-opacity: 0.6; stroke: #000000; stroke-opacity: 0.6; stroke-width: 0.1"/>
    <path d="M 53.676707 142.86009 
L 64.970432 151.544343 
L 75.009611 137.660774 
L 63.719628 129.104834 
z
" clip-path="url(#p68ddf4b65f)" style="fill: #386991; fill-opacity: 0.6; stroke: #000000; stroke-opacity: 0.6; stroke-width: 0.1"/>
    <path d="M 75.009611 137.660774 
L 86.432241 146.317239 
L 96.35598 132.458176 
L 84.938472 123.929768 
z
" clip-path="url(#p68ddf4b65f)" style="fill: #386991; fill-opacity: 0.6; stroke: #000000; stroke-opacity: 0.6; stroke-width: 0.1"/>
    <path d="M 96.35598 132.458176 
L 107.907676 141.086816 
L 117.715828 127.252293 
L 106.170636 118.751454 
z
" clip-path="url(#p68ddf4b65f)" style="fill: #386991; fill-opacity: 0.6; stroke: #000000; stroke-opacity: 0.6; stroke-width: 0.1"/>
    <path d="M 117.715828 127.252293 
L 129.396751 135.853071 
L 139.089166 122.043121 
L 127.416132 113.569889 
z
" clip-path="url(#p68ddf4b65f)" style="fill: #386991; fill-opacity: 0.6; stroke: #000000; stroke-opacity: 0.6; stroke-width: 0.1"/>
    <path d="M 139.089166 122.043121 
L 150.899478 130.616002 
L 160.476009 116.830659 
L 148.674974 108.385068 
z
" clip-path="url(#p68ddf4b65f)" style="fill: #386991; fill-opacity: 0.6; stroke: #000000; stroke-opacity: 0.6; stroke-width: 0.1"/>
    <path d="M 160.476009 116.830659 
L 172.415871 125.375604 
L 181.876367 111.614902 
L 169.947172 103.19699 
z
" clip-path="url(#p68ddf4b65f)" style="fill: #386991; fill-opacity: 0.6; stroke: #000000; stroke-opacity: 0.6; stroke-width: 0.1"/>
    <path d="M 181.876367 111.614902 
L 193.945942 120.131874 
L 203.290256 106.395848 
L 191.232741 98.005651 
z
" clip-path="url(#p68ddf4b65f)" style="fill: #386991; fill-opacity: 0.6; stroke: #000000; stroke-opacity: 0.6; stroke-width: 0.1"/>
    <path d="M 22.087641 161.988607 
L 33.254346 170.831516 
L 43.522236 156.768131 
L 32.357256 148.056128 
z
" clip-path="url(#p68ddf4b65f)" style="fill: #386991; fill-opacity: 0.6; stroke: #000000; stroke-opacity: 0.6; stroke-width: 0.1"/>
    <path d="M 43.522236 156.768131 
L 54.819086 165.583032 
L 64.970432 151.544343 
L 53.676707 142.86009 
z
" clip-path="url(#p68ddf4b65f)" style="fill: #386991; fill-opacity: 0.6; stroke: #000000; stroke-opacity: 0.6; stroke-width: 0.1"/>
    <path d="M 64.970432 151.544343 
L 76.397589 160.331198 
L 86.432241 146.317239 
L 75.009611 137.660774 
z
" clip-path="url(#p68ddf4b65f)" style="fill: #386991; fill-opacity: 0.6; stroke: #000000; stroke-opacity: 0.6; stroke-width: 0.1"/>
    <path d="M 86.432241 146.317239 
L 97.989869 155.07601 
L 107.907676 141.086816 
L 96.35598 132.458176 
z
" clip-path="url(#p68ddf4b65f)" style="fill: #386991; fill-opacity: 0.6; stroke: #000000; stroke-opacity: 0.6; stroke-width: 0.1"/>
    <path d="M 107.907676 141.086816 
L 119.59594 149.817467 
L 129.396751 135.853071 
L 117.715828 127.252293 
z
" clip-path="url(#p68ddf4b65f)" style="fill: #386991; fill-opacity: 0.6; stroke: #000000; stroke-opacity: 0.6; stroke-width: 0.1"/>
    <path d="M 129.396751 135.853071 
L 141.215814 144.555564 
L 150.899478 130.616002 
L 139.089166 122.043121 
z
" clip-path="url(#p68ddf4b65f)" style="fill: #386991; fill-opacity: 0.6; stroke: #000000; stroke-opacity: 0.6; stroke-width: 0.1"/>
    <path d="M 150.899478 130.616002 
L 162.849504 139.290298 
L 172.415871 125.375604 
L 160.476009 116.830659 
z
" clip-path="url(#p68ddf4b65f)" style="fill: #386991; fill-opacity: 0.6; stroke: #000000; stroke-opacity: 0.6; stroke-width: 0.1"/>
    <path d="M 172.415871 125.375604 
L 184.497025 134.021666 
L 193.945942 120.131874 
L 181.876367 111.614902 
z
" clip-path="url(#p68ddf4b65f)" style="fill: #386991; fill-opacity: 0.6; stroke: #000000; stroke-opacity: 0.6; stroke-width: 0.1"/>
    <path d="M 193.945942 120.131874 
L 206.158389 128.749665 
L 215.489705 114.88481 
L 203.290256 106.395848 
z
" clip-path="url(#p68ddf4b65f)" style="fill: #386991; fill-opacity: 0.6; stroke: #000000; stroke-opacity: 0.6; stroke-width: 0.1"/>
    <path d="M 33.254346 170.831516 
L 44.553682 179.779455 
L 54.819086 165.583032 
L 43.522236 156.768131 
z
" clip-path="url(#p68ddf4b65f)" style="fill: #386991; fill-opacity: 0.6; stroke: #000000; stroke-opacity: 0.6; stroke-width: 0.1"/>
    <path d="M 54.819086 165.583032 
L 66.250155 174.502663 
L 76.397589 160.331198 
L 64.970432 151.544343 
z
" clip-path="url(#p68ddf4b65f)" style="fill: #386991; fill-opacity: 0.6; stroke: #000000; stroke-opacity: 0.6; stroke-width: 0.1"/>
    <path d="M 76.397589 160.331198 
L 87.960557 169.222483 
L 97.989869 155.07601 
L 86.432241 146.317239 
z
" clip-path="url(#p68ddf4b65f)" style="fill: #386991; fill-opacity: 0.6; stroke: #000000; stroke-opacity: 0.6; stroke-width: 0.1"/>
    <path d="M 97.989869 155.07601 
L 109.684903 163.938913 
L 119.59594 149.817467 
L 107.907676 141.086816 
z
" clip-path="url(#p68ddf4b65f)" style="fill: #386991; fill-opacity: 0.6; stroke: #000000; stroke-opacity: 0.6; stroke-width: 0.1"/>
    <path d="M 119.59594 149.817467 
L 131.423207 158.651947 
L 141.215814 144.555564 
L 129.396751 135.853071 
z
" clip-path="url(#p68ddf4b65f)" style="fill: #386991; fill-opacity: 0.6; stroke: #000000; stroke-opacity: 0.6; stroke-width: 0.1"/>
    <path d="M 141.215814 144.555564 
L 153.175481 153.361584 
L 162.849504 139.290298 
L 150.899478 130.616002 
z
" clip-path="url(#p68ddf4b65f)" style="fill: #386991; fill-opacity: 0.6; stroke: #000000; stroke-opacity: 0.6; stroke-width: 0.1"/>
    <path d="M 162.849504 139.290298 
L 174.941738 148.06782 
L 184.497025 134.021666 
L 172.415871 125.375604 
z
" clip-path="url(#p68ddf4b65f)" style="fill: #386991; fill-opacity: 0.6; stroke: #000000; stroke-opacity: 0.6; stroke-width: 0.1"/>
    <path d="M 184.497025 134.021666 
L 196.721994 142.770652 
L 206.158389 128.749665 
L 193.945942 120.131874 
z
" clip-path="url(#p68ddf4b65f)" style="fill: #386991; fill-opacity: 0.6; stroke: #000000; stroke-opacity: 0.6; stroke-width: 0.1"/>
    <path d="M 44.553682 179.779455 
L 55.988026 188.834306 
L 66.250155 174.502663 
L 54.819086 165.583032 
z
" clip-path="url(#p68ddf4b65f)" style="fill: #386991; fill-opacity: 0.6; stroke: #000000; stroke-opacity: 0.6; stroke-width: 0.1"/>
    <path d="M 66.250155 174.502663 
L 77.817849 183.528903 
L 87.960557 169.222483 
L 76.397589 160.331198 
z
" clip-path="url(#p68ddf4b65f)" style="fill: #386991; fill-opacity: 0.6; stroke: #000000; stroke-opacity: 0.6; stroke-width: 0.1"/>
    <path d="M 87.960557 169.222483 
L 99.661772 178.220073 
L 109.684903 163.938913 
L 97.989869 155.07601 
z
" clip-path="url(#p68ddf4b65f)" style="fill: #386991; fill-opacity: 0.6; stroke: #000000; stroke-opacity: 0.6; stroke-width: 0.1"/>
    <path d="M 109.684903 163.938913 
L 121.519808 172.907814 
L 131.423207 158.651947 
L 119.59594 149.817467 
z
" clip-path="url(#p68ddf4b65f)" style="fill: #386991; fill-opacity: 0.6; stroke: #000000; stroke-opacity: 0.6; stroke-width: 0.1"/>
    <path d="M 131.423207 158.651947 
L 143.391972 167.592121 
L 153.175481 153.361584 
L 141.215814 144.555564 
z
" clip-path="url(#p68ddf4b65f)" style="fill: #386991; fill-opacity: 0.6; stroke: #000000; stroke-opacity: 0.6; stroke-width: 0.1"/>
    <path d="M 153.175481 153.361584 
L 165.278276 162.272992 
L 174.941738 148.06782 
L 162.849504 139.290298 
z
" clip-path="url(#p68ddf4b65f)" style="fill: #386991; fill-opacity: 0.6; stroke: #000000; stroke-opacity: 0.6; stroke-width: 0.1"/>
    <path d="M 174.941738 148.06782 
L 187.178734 156.950422 
L 196.721994 142.770652 
L 184.497025 134.021666 
z
" clip-path="url(#p68ddf4b65f)" style="fill: #386991; fill-opacity: 0.6; stroke: #000000; stroke-opacity: 0.6; stroke-width: 0.1"/>
    <path d="M 55.988026 188.834306 
L 67.559811 197.997997 
L 77.817849 183.528903 
L 66.250155 174.502663 
z
" clip-path="url(#p68ddf4b65f)" style="fill: #386991; fill-opacity: 0.6; stroke: #000000; stroke-opacity: 0.6; stroke-width: 0.1"/>
    <path d="M 77.817849 183.528903 
L 89.524634 192.663674 
L 99.661772 178.220073 
L 87.960557 169.222483 
z
" clip-path="url(#p68ddf4b65f)" style="fill: #386991; fill-opacity: 0.6; stroke: #000000; stroke-opacity: 0.6; stroke-width: 0.1"/>
    <path d="M 99.661772 178.220073 
L 111.503728 187.325886 
L 121.519808 172.907814 
L 109.684903 163.938913 
z
" clip-path="url(#p68ddf4b65f)" style="fill: #386991; fill-opacity: 0.6; stroke: #000000; stroke-opacity: 0.6; stroke-width: 0.1"/>
    <path d="M 121.519808 172.907814 
L 133.497109 181.984627 
L 143.391972 167.592121 
L 131.423207 158.651947 
z
" clip-path="url(#p68ddf4b65f)" style="fill: #386991; fill-opacity: 0.6; stroke: #000000; stroke-opacity: 0.6; stroke-width: 0.1"/>
    <path d="M 143.391972 167.592121 
L 155.50479 176.639896 
L 165.278276 162.272992 
L 153.175481 153.361584 
z
" clip-path="url(#p68ddf4b65f)" style="fill: #386991; fill-opacity: 0.6; stroke: #000000; stroke-opacity: 0.6; stroke-width: 0.1"/>
    <path d="M 165.278276 162.272992 
L 177.526784 171.291689 
L 187.178734 156.950422 
L 174.941738 148.06782 
z
" clip-path="url(#p68ddf4b65f)" style="fill: #386991; fill-opacity: 0.6; stroke: #000000; stroke-opacity: 0.6; stroke-width: 0.1"/>
    <path d="M 67.559811 197.997997 
L 79.271532 207.272502 
L 89.524634 192.663674 
L 77.817849 183.528903 
z
" clip-path="url(#p68ddf4b65f)" style="fill: #386991; fill-opacity: 0.6; stroke: #000000; stroke-opacity: 0.6; stroke-width: 0.1"/>
    <path d="M 89.524634 192.663674 
L 101.373032 201.908946 
L 111.503728 187.325886 
L 99.661772 178.220073 
z
" clip-path="url(#p68ddf4b65f)" style="fill: #386991; fill-opacity: 0.6; stroke: #000000; stroke-opacity: 0.6; stroke-width: 0.1"/>
    <path d="M 111.503728 187.325886 
L 123.48898 196.541884 
L 133.497109 181.984627 
L 121.519808 172.907814 
z
" clip-path="url(#p68ddf4b65f)" style="fill: #386991; fill-opacity: 0.6; stroke: #000000; stroke-opacity: 0.6; stroke-width: 0.1"/>
    <path d="M 133.497109 181.984627 
L 145.61939 191.171312 
L 155.50479 176.639896 
L 143.391972 167.592121 
z
" clip-path="url(#p68ddf4b65f)" style="fill: #386991; fill-opacity: 0.6; stroke: #000000; stroke-opacity: 0.6; stroke-width: 0.1"/>
    <path d="M 155.50479 176.639896 
L 167.764276 185.797227 
L 177.526784 171.291689 
L 165.278276 162.272992 
z
" clip-path="url(#p68ddf4b65f)" style="fill: #386991; fill-opacity: 0.6; stroke: #000000; stroke-opacity: 0.6; stroke-width: 0.1"/>
    <path d="M 79.271532 207.272502 
L 91.125741 216.659845 
L 101.373032 201.908946 
L 89.524634 192.663674 
z
" clip-path="url(#p68ddf4b65f)" style="fill: #386991; fill-opacity: 0.6; stroke: #000000; stroke-opacity: 0.6; stroke-width: 0.1"/>
    <path d="M 101.373032 201.908946 
L 113.365629 211.266736 
L 123.48898 196.541884 
L 111.503728 187.325886 
z
" clip-path="url(#p68ddf4b65f)" style="fill: #386991; fill-opacity: 0.6; stroke: #000000; stroke-opacity: 0.6; stroke-width: 0.1"/>
    <path d="M 123.48898 196.541884 
L 135.620144 205.870081 
L 145.61939 191.171312 
L 133.497109 181.984627 
z
" clip-path="url(#p68ddf4b65f)" style="fill: #386991; fill-opacity: 0.6; stroke: #000000; stroke-opacity: 0.6; stroke-width: 0.1"/>
    <path d="M 145.61939 191.171312 
L 157.8893 200.469876 
L 167.764276 185.797227 
L 155.50479 176.639896 
z
" clip-path="url(#p68ddf4b65f)" style="fill: #386991; fill-opacity: 0.6; stroke: #000000; stroke-opacity: 0.6; stroke-width: 0.1"/>
    <path d="M 91.125741 216.659845 
L 103.125054 226.162095 
L 113.365629 211.266736 
L 101.373032 201.908946 
z
" clip-path="url(#p68ddf4b65f)" style="fill: #386991; fill-opacity: 0.6; stroke: #000000; stroke-opacity: 0.6; stroke-width: 0.1"/>
    <path d="M 113.365629 211.266736 
L 125.505073 220.739111 
L 135.620144 205.870081 
L 123.48898 196.541884 
z
" clip-path="url(#p68ddf4b65f)" style="fill: #386991; fill-opacity: 0.6; stroke: #000000; stroke-opacity: 0.6; stroke-width: 0.1"/>
    <path d="M 135.620144 205.870081 
L 147.899901 215.312538 
L 157.8893 200.469876 
L 145.61939 191.171312 
z
" clip-path="url(#p68ddf4b65f)" style="fill: #386991; fill-opacity: 0.6; stroke: #000000; stroke-opacity: 0.6; stroke-width: 0.1"/>
    <path d="M 103.125054 226.162095 
L 115.272153 235.781377 
L 125.505073 220.739111 
L 113.365629 211.266736 
z
" clip-path="url(#p68ddf4b65f)" style="fill: #386991; fill-opacity: 0.6; stroke: #000000; stroke-opacity: 0.6; stroke-width: 0.1"/>
    <path d="M 125.505073 220.739111 
L 137.794079 230.328188 
L 147.899901 215.312538 
L 135.620144 205.870081 
z
" clip-path="url(#p68ddf4b65f)" style="fill: #386991; fill-opacity: 0.6; stroke: #000000; stroke-opacity: 0.6; stroke-width: 0.1"/>
    <path d="M 115.272153 235.781377 
L 127.569785 245.519866 
L 137.794079 230.328188 
L 125.505073 220.739111 
z
" clip-path="url(#p68ddf4b65f)" style="fill: #386991; fill-opacity: 0.6; stroke: #000000; stroke-opacity: 0.6; stroke-width: 0.1"/>
   </g>
   <g id="text_26">
    <!-- 2 Coinc., 1 Secante (SPI Reta) -->
    <g transform="translate(41.223223 14.798437) scale(0.1 -0.1)">
     <defs>
      <path id="DejaVuSans-20" transform="scale(0.015625)"/>
      <path id="DejaVuSans-43" d="M 4122 4306 
L 4122 3641 
Q 3803 3938 3442 4084 
Q 3081 4231 2675 4231 
Q 1875 4231 1450 3742 
Q 1025 3253 1025 2328 
Q 1025 1406 1450 917 
Q 1875 428 2675 428 
Q 3081 428 3442 575 
Q 3803 722 4122 1019 
L 4122 359 
Q 3791 134 3420 21 
Q 3050 -91 2638 -91 
Q 1578 -91 968 557 
Q 359 1206 359 2328 
Q 359 3453 968 4101 
Q 1578 4750 2638 4750 
Q 3056 4750 3426 4639 
Q 3797 4528 4122 4306 
z
" transform="scale(0.015625)"/>
      <path id="DejaVuSans-6f" d="M 1959 3097 
Q 1497 3097 1228 2736 
Q 959 2375 959 1747 
Q 959 1119 1226 758 
Q 1494 397 1959 397 
Q 2419 397 2687 759 
Q 2956 1122 2956 1747 
Q 2956 2369 2687 2733 
Q 2419 3097 1959 3097 
z
M 1959 3584 
Q 2709 3584 3137 3096 
Q 3566 2609 3566 1747 
Q 3566 888 3137 398 
Q 2709 -91 1959 -91 
Q 1206 -91 779 398 
Q 353 888 353 1747 
Q 353 2609 779 3096 
Q 1206 3584 1959 3584 
z
" transform="scale(0.015625)"/>
      <path id="DejaVuSans-69" d="M 603 3500 
L 1178 3500 
L 1178 0 
L 603 0 
L 603 3500 
z
M 603 4863 
L 1178 4863 
L 1178 4134 
L 603 4134 
L 603 4863 
z
" transform="scale(0.015625)"/>
      <path id="DejaVuSans-6e" d="M 3513 2113 
L 3513 0 
L 2938 0 
L 2938 2094 
Q 2938 2591 2744 2837 
Q 2550 3084 2163 3084 
Q 1697 3084 1428 2787 
Q 1159 2491 1159 1978 
L 1159 0 
L 581 0 
L 581 3500 
L 1159 3500 
L 1159 2956 
Q 1366 3272 1645 3428 
Q 1925 3584 2291 3584 
Q 2894 3584 3203 3211 
Q 3513 2838 3513 2113 
z
" transform="scale(0.015625)"/>
      <path id="DejaVuSans-63" d="M 3122 3366 
L 3122 2828 
Q 2878 2963 2633 3030 
Q 2388 3097 2138 3097 
Q 1578 3097 1268 2742 
Q 959 2388 959 1747 
Q 959 1106 1268 751 
Q 1578 397 2138 397 
Q 2388 397 2633 464 
Q 2878 531 3122 666 
L 3122 134 
Q 2881 22 2623 -34 
Q 2366 -91 2075 -91 
Q 1284 -91 818 406 
Q 353 903 353 1747 
Q 353 2603 823 3093 
Q 1294 3584 2113 3584 
Q 2378 3584 2631 3529 
Q 2884 3475 3122 3366 
z
" transform="scale(0.015625)"/>
      <path id="DejaVuSans-2e" d="M 684 794 
L 1344 794 
L 1344 0 
L 684 0 
L 684 794 
z
" transform="scale(0.015625)"/>
      <path id="DejaVuSans-2c" d="M 750 794 
L 1409 794 
L 1409 256 
L 897 -744 
L 494 -744 
L 750 256 
L 750 794 
z
" transform="scale(0.015625)"/>
      <path id="DejaVuSans-53" d="M 3425 4513 
L 3425 3897 
Q 3066 4069 2747 4153 
Q 2428 4238 2131 4238 
Q 1616 4238 1336 4038 
Q 1056 3838 1056 3469 
Q 1056 3159 1242 3001 
Q 1428 2844 1947 2747 
L 2328 2669 
Q 3034 2534 3370 2195 
Q 3706 1856 3706 1288 
Q 3706 609 3251 259 
Q 2797 -91 1919 -91 
Q 1588 -91 1214 -16 
Q 841 59 441 206 
L 441 856 
Q 825 641 1194 531 
Q 1563 422 1919 422 
Q 2459 422 2753 634 
Q 3047 847 3047 1241 
Q 3047 1584 2836 1778 
Q 2625 1972 2144 2069 
L 1759 2144 
Q 1053 2284 737 2584 
Q 422 2884 422 3419 
Q 422 4038 858 4394 
Q 1294 4750 2059 4750 
Q 2388 4750 2728 4690 
Q 3069 4631 3425 4513 
z
" transform="scale(0.015625)"/>
      <path id="DejaVuSans-65" d="M 3597 1894 
L 3597 1613 
L 953 1613 
Q 991 1019 1311 708 
Q 1631 397 2203 397 
Q 2534 397 2845 478 
Q 3156 559 3463 722 
L 3463 178 
Q 3153 47 2828 -22 
Q 2503 -91 2169 -91 
Q 1331 -91 842 396 
Q 353 884 353 1716 
Q 353 2575 817 3079 
Q 1281 3584 2069 3584 
Q 2775 3584 3186 3129 
Q 3597 2675 3597 1894 
z
M 3022 2063 
Q 3016 2534 2758 2815 
Q 2500 3097 2075 3097 
Q 1594 3097 1305 2825 
Q 1016 2553 972 2059 
L 3022 2063 
z
" transform="scale(0.015625)"/>
      <path id="DejaVuSans-61" d="M 2194 1759 
Q 1497 1759 1228 1600 
Q 959 1441 959 1056 
Q 959 750 1161 570 
Q 1363 391 1709 391 
Q 2188 391 2477 730 
Q 2766 1069 2766 1631 
L 2766 1759 
L 2194 1759 
z
M 3341 1997 
L 3341 0 
L 2766 0 
L 2766 531 
Q 2569 213 2275 61 
Q 1981 -91 1556 -91 
Q 1019 -91 701 211 
Q 384 513 384 1019 
Q 384 1609 779 1909 
Q 1175 2209 1959 2209 
L 2766 2209 
L 2766 2266 
Q 2766 2663 2505 2880 
Q 2244 3097 1772 3097 
Q 1472 3097 1187 3025 
Q 903 2953 641 2809 
L 641 3341 
Q 956 3463 1253 3523 
Q 1550 3584 1831 3584 
Q 2591 3584 2966 3190 
Q 3341 2797 3341 1997 
z
" transform="scale(0.015625)"/>
      <path id="DejaVuSans-74" d="M 1172 4494 
L 1172 3500 
L 2356 3500 
L 2356 3053 
L 1172 3053 
L 1172 1153 
Q 1172 725 1289 603 
Q 1406 481 1766 481 
L 2356 481 
L 2356 0 
L 1766 0 
Q 1100 0 847 248 
Q 594 497 594 1153 
L 594 3053 
L 172 3053 
L 172 3500 
L 594 3500 
L 594 4494 
L 1172 4494 
z
" transform="scale(0.015625)"/>
      <path id="DejaVuSans-28" d="M 1984 4856 
Q 1566 4138 1362 3434 
Q 1159 2731 1159 2009 
Q 1159 1288 1364 580 
Q 1569 -128 1984 -844 
L 1484 -844 
Q 1016 -109 783 600 
Q 550 1309 550 2009 
Q 550 2706 781 3412 
Q 1013 4119 1484 4856 
L 1984 4856 
z
" transform="scale(0.015625)"/>
      <path id="DejaVuSans-50" d="M 1259 4147 
L 1259 2394 
L 2053 2394 
Q 2494 2394 2734 2622 
Q 2975 2850 2975 3272 
Q 2975 3691 2734 3919 
Q 2494 4147 2053 4147 
L 1259 4147 
z
M 628 4666 
L 2053 4666 
Q 2838 4666 3239 4311 
Q 3641 3956 3641 3272 
Q 3641 2581 3239 2228 
Q 2838 1875 2053 1875 
L 1259 1875 
L 1259 0 
L 628 0 
L 628 4666 
z
" transform="scale(0.015625)"/>
      <path id="DejaVuSans-49" d="M 628 4666 
L 1259 4666 
L 1259 0 
L 628 0 
L 628 4666 
z
" transform="scale(0.015625)"/>
      <path id="DejaVuSans-52" d="M 2841 2188 
Q 3044 2119 3236 1894 
Q 3428 1669 3622 1275 
L 4263 0 
L 3584 0 
L 2988 1197 
Q 2756 1666 2539 1819 
Q 2322 1972 1947 1972 
L 1259 1972 
L 1259 0 
L 628 0 
L 628 4666 
L 2053 4666 
Q 2853 4666 3247 4331 
Q 3641 3997 3641 3322 
Q 3641 2881 3436 2590 
Q 3231 2300 2841 2188 
z
M 1259 4147 
L 1259 2491 
L 2053 2491 
Q 2509 2491 2742 2702 
Q 2975 2913 2975 3322 
Q 2975 3731 2742 3939 
Q 2509 4147 2053 4147 
L 1259 4147 
z
" transform="scale(0.015625)"/>
      <path id="DejaVuSans-29" d="M 513 4856 
L 1013 4856 
Q 1481 4119 1714 3412 
Q 1947 2706 1947 2009 
Q 1947 1309 1714 600 
Q 1481 -109 1013 -844 
L 513 -844 
Q 928 -128 1133 580 
Q 1338 1288 1338 2009 
Q 1338 2731 1133 3434 
Q 928 4138 513 4856 
z
" transform="scale(0.015625)"/>
     </defs>
     <use xlink:href="#DejaVuSans-32"/>
     <use xlink:href="#DejaVuSans-20" transform="translate(63.623047 0)"/>
     <use xlink:href="#DejaVuSans-43" transform="translate(95.410156 0)"/>
     <use xlink:href="#DejaVuSans-6f" transform="translate(165.234375 0)"/>
     <use xlink:href="#DejaVuSans-69" transform="translate(226.416016 0)"/>
     <use xlink:href="#DejaVuSans-6e" transform="translate(254.199219 0)"/>
     <use xlink:href="#DejaVuSans-63" transform="translate(317.578125 0)"/>
     <use xlink:href="#DejaVuSans-2e" transform="translate(372.558594 0)"/>
     <use xlink:href="#DejaVuSans-2c" transform="translate(404.345703 0)"/>
     <use xlink:href="#DejaVuSans-20" transform="translate(436.132812 0)"/>
     <use xlink:href="#DejaVuSans-31" transform="translate(467.919922 0)"/>
     <use xlink:href="#DejaVuSans-20" transform="translate(531.542969 0)"/>
     <use xlink:href="#DejaVuSans-53" transform="translate(563.330078 0)"/>
     <use xlink:href="#DejaVuSans-65" transform="translate(626.806641 0)"/>
     <use xlink:href="#DejaVuSans-63" transform="translate(688.330078 0)"/>
     <use xlink:href="#DejaVuSans-61" transform="translate(743.310547 0)"/>
     <use xlink:href="#DejaVuSans-6e" transform="translate(804.589844 0)"/>
     <use xlink:href="#DejaVuSans-74" transform="translate(867.96875 0)"/>
     <use xlink:href="#DejaVuSans-65" transform="translate(907.177734 0)"/>
     <use xlink:href="#DejaVuSans-20" transform="translate(968.701172 0)"/>
     <use xlink:href="#DejaVuSans-28" transform="translate(1000.488281 0)"/>
     <use xlink:href="#DejaVuSans-53" transform="translate(1039.501953 0)"/>
     <use xlink:href="#DejaVuSans-50" transform="translate(1102.978516 0)"/>
     <use xlink:href="#DejaVuSans-49" transform="translate(1163.28125 0)"/>
     <use xlink:href="#DejaVuSans-20" transform="translate(1192.773438 0)"/>
     <use xlink:href="#DejaVuSans-52" transform="translate(1224.560547 0)"/>
     <use xlink:href="#DejaVuSans-65" transform="translate(1289.542969 0)"/>
     <use xlink:href="#DejaVuSans-74" transform="translate(1351.066406 0)"/>
     <use xlink:href="#DejaVuSans-61" transform="translate(1390.275391 0)"/>
     <use xlink:href="#DejaVuSans-29" transform="translate(1451.554688 0)"/>
    </g>
   </g>
   <g id="Poly3DCollection_2">
    <path d="M 101.475071 96.785405 
L 112.411512 97.951416 
L 121.683451 91.84988 
L 110.757338 90.742763 
z
" clip-path="url(#p68ddf4b65f)" style="fill: #debb00; fill-opacity: 0.35; stroke: #000000; stroke-opacity: 0.35; stroke-width: 0.1"/>
    <path d="M 92.044652 102.924493 
L 102.99035 104.151152 
L 112.411512 97.951416 
L 101.475071 96.785405 
z
" clip-path="url(#p68ddf4b65f)" style="fill: #debb00; fill-opacity: 0.35; stroke: #000000; stroke-opacity: 0.35; stroke-width: 0.1"/>
    <path d="M 112.411512 97.951416 
L 123.530659 99.136907 
L 132.790639 92.975344 
L 121.683451 91.84988 
z
" clip-path="url(#p68ddf4b65f)" style="fill: #debb00; fill-opacity: 0.35; stroke: #000000; stroke-opacity: 0.35; stroke-width: 0.1"/>
    <path d="M 82.462504 109.162354 
L 93.416332 110.451476 
L 102.99035 104.151152 
L 92.044652 102.924493 
z
" clip-path="url(#p68ddf4b65f)" style="fill: #debb00; fill-opacity: 0.35; stroke: #000000; stroke-opacity: 0.35; stroke-width: 0.1"/>
    <path d="M 102.99035 104.151152 
L 114.120393 105.398469 
L 123.530659 99.136907 
L 112.411512 97.951416 
z
" clip-path="url(#p68ddf4b65f)" style="fill: #debb00; fill-opacity: 0.35; stroke: #000000; stroke-opacity: 0.35; stroke-width: 0.1"/>
    <path d="M 123.530659 99.136907 
L 134.837128 100.342369 
L 144.083442 94.119617 
L 132.790639 92.975344 
z
" clip-path="url(#p68ddf4b65f)" style="fill: #debb00; fill-opacity: 0.35; stroke: #000000; stroke-opacity: 0.35; stroke-width: 0.1"/>
    <path d="M 72.724936 115.501392 
L 83.685709 116.854857 
L 93.416332 110.451476 
L 82.462504 109.162354 
z
" clip-path="url(#p68ddf4b65f)" style="fill: #debb00; fill-opacity: 0.35; stroke: #000000; stroke-opacity: 0.35; stroke-width: 0.1"/>
    <path d="M 93.416332 110.451476 
L 104.556151 111.762486 
L 114.120393 105.398469 
L 102.99035 104.151152 
z
" clip-path="url(#p68ddf4b65f)" style="fill: #debb00; fill-opacity: 0.35; stroke: #000000; stroke-opacity: 0.35; stroke-width: 0.1"/>
    <path d="M 114.120393 105.398469 
L 125.439476 106.666972 
L 134.837128 100.342369 
L 123.530659 99.136907 
z
" clip-path="url(#p68ddf4b65f)" style="fill: #debb00; fill-opacity: 0.35; stroke: #000000; stroke-opacity: 0.35; stroke-width: 0.1"/>
    <path d="M 134.837128 100.342369 
L 146.335694 101.568312 
L 155.566551 95.283173 
L 144.083442 94.119617 
z
" clip-path="url(#p68ddf4b65f)" style="fill: #debb00; fill-opacity: 0.35; stroke: #000000; stroke-opacity: 0.35; stroke-width: 0.1"/>
    <path d="M 62.828137 121.944088 
L 73.794605 123.363845 
L 83.685709 116.854857 
L 72.724936 115.501392 
z
" clip-path="url(#p68ddf4b65f)" style="fill: #debb00; fill-opacity: 0.35; stroke: #000000; stroke-opacity: 0.35; stroke-width: 0.1"/>
    <path d="M 83.685709 116.854857 
L 94.834125 118.231493 
L 104.556151 111.762486 
L 93.416332 110.451476 
z
" clip-path="url(#p68ddf4b65f)" style="fill: #debb00; fill-opacity: 0.35; stroke: #000000; stroke-opacity: 0.35; stroke-width: 0.1"/>
    <path d="M 104.556151 111.762486 
L 115.886738 113.095948 
L 125.439476 106.666972 
L 114.120393 105.398469 
z
" clip-path="url(#p68ddf4b65f)" style="fill: #debb00; fill-opacity: 0.35; stroke: #000000; stroke-opacity: 0.35; stroke-width: 0.1"/>
    <path d="M 125.439476 106.666972 
L 136.952457 107.957205 
L 146.335694 101.568312 
L 134.837128 100.342369 
z
" clip-path="url(#p68ddf4b65f)" style="fill: #debb00; fill-opacity: 0.35; stroke: #000000; stroke-opacity: 0.35; stroke-width: 0.1"/>
    <path d="M 146.335694 101.568312 
L 158.031294 102.815263 
L 167.244819 96.466503 
L 155.566551 95.283173 
z
" clip-path="url(#p68ddf4b65f)" style="fill: #debb00; fill-opacity: 0.35; stroke: #000000; stroke-opacity: 0.35; stroke-width: 0.1"/>
    <path d="M 52.768167 128.493005 
L 63.739018 129.981073 
L 73.794605 123.363845 
L 62.828137 121.944088 
z
" clip-path="url(#p68ddf4b65f)" style="fill: #debb00; fill-opacity: 0.35; stroke: #000000; stroke-opacity: 0.35; stroke-width: 0.1"/>
    <path d="M 73.794605 123.363845 
L 84.950376 124.808109 
L 94.834125 118.231493 
L 83.685709 116.854857 
z
" clip-path="url(#p68ddf4b65f)" style="fill: #debb00; fill-opacity: 0.35; stroke: #000000; stroke-opacity: 0.35; stroke-width: 0.1"/>
    <path d="M 94.834125 118.231493 
L 106.175044 119.6319 
L 115.886738 113.095948 
L 104.556151 111.762486 
z
" clip-path="url(#p68ddf4b65f)" style="fill: #debb00; fill-opacity: 0.35; stroke: #000000; stroke-opacity: 0.35; stroke-width: 0.1"/>
    <path d="M 115.886738 113.095948 
L 127.413035 114.452442 
L 136.952457 107.957205 
L 125.439476 106.666972 
z
" clip-path="url(#p68ddf4b65f)" style="fill: #debb00; fill-opacity: 0.35; stroke: #000000; stroke-opacity: 0.35; stroke-width: 0.1"/>
    <path d="M 136.952457 107.957205 
L 148.664362 109.269731 
L 158.031294 102.815263 
L 146.335694 101.568312 
z
" clip-path="url(#p68ddf4b65f)" style="fill: #debb00; fill-opacity: 0.35; stroke: #000000; stroke-opacity: 0.35; stroke-width: 0.1"/>
    <path d="M 158.031294 102.815263 
L 169.929036 104.083765 
L 179.123262 97.670117 
L 167.244819 96.466503 
z
" clip-path="url(#p68ddf4b65f)" style="fill: #debb00; fill-opacity: 0.35; stroke: #000000; stroke-opacity: 0.35; stroke-width: 0.1"/>
    <path d="M 42.540958 135.150793 
L 53.514811 136.709264 
L 63.739018 129.981073 
L 52.768167 128.493005 
z
" clip-path="url(#p68ddf4b65f)" style="fill: #debb00; fill-opacity: 0.35; stroke: #000000; stroke-opacity: 0.35; stroke-width: 0.1"/>
    <path d="M 63.739018 129.981073 
L 74.900836 131.495043 
L 84.950376 124.808109 
L 73.794605 123.363845 
z
" clip-path="url(#p68ddf4b65f)" style="fill: #debb00; fill-opacity: 0.35; stroke: #000000; stroke-opacity: 0.35; stroke-width: 0.1"/>
    <path d="M 84.950376 124.808109 
L 96.300394 126.277522 
L 106.175044 119.6319 
L 94.834125 118.231493 
z
" clip-path="url(#p68ddf4b65f)" style="fill: #debb00; fill-opacity: 0.35; stroke: #000000; stroke-opacity: 0.35; stroke-width: 0.1"/>
    <path d="M 106.175044 119.6319 
L 117.713497 121.056699 
L 127.413035 114.452442 
L 115.886738 113.095948 
z
" clip-path="url(#p68ddf4b65f)" style="fill: #debb00; fill-opacity: 0.35; stroke: #000000; stroke-opacity: 0.35; stroke-width: 0.1"/>
    <path d="M 127.413035 114.452442 
L 139.140158 115.83257 
L 148.664362 109.269731 
L 136.952457 107.957205 
z
" clip-path="url(#p68ddf4b65f)" style="fill: #debb00; fill-opacity: 0.35; stroke: #000000; stroke-opacity: 0.35; stroke-width: 0.1"/>
    <path d="M 148.664362 109.269731 
L 160.580391 110.605132 
L 169.929036 104.083765 
L 158.031294 102.815263 
z
" clip-path="url(#p68ddf4b65f)" style="fill: #debb00; fill-opacity: 0.35; stroke: #000000; stroke-opacity: 0.35; stroke-width: 0.1"/>
    <path d="M 169.929036 104.083765 
L 182.034207 105.374383 
L 191.207072 98.894541 
L 179.123262 97.670117 
z
" clip-path="url(#p68ddf4b65f)" style="fill: #debb00; fill-opacity: 0.35; stroke: #000000; stroke-opacity: 0.35; stroke-width: 0.1"/>
    <path d="M 32.142306 141.920189 
L 43.117706 143.551233 
L 53.514811 136.709264 
L 42.540958 135.150793 
z
" clip-path="url(#p68ddf4b65f)" style="fill: #debb00; fill-opacity: 0.35; stroke: #000000; stroke-opacity: 0.35; stroke-width: 0.1"/>
    <path d="M 53.514811 136.709264 
L 64.681298 138.295092 
L 74.900836 131.495043 
L 63.739018 129.981073 
z
" clip-path="url(#p68ddf4b65f)" style="fill: #debb00; fill-opacity: 0.35; stroke: #000000; stroke-opacity: 0.35; stroke-width: 0.1"/>
    <path d="M 74.900836 131.495043 
L 86.25865 133.035597 
L 96.300394 126.277522 
L 84.950376 124.808109 
z
" clip-path="url(#p68ddf4b65f)" style="fill: #debb00; fill-opacity: 0.35; stroke: #000000; stroke-opacity: 0.35; stroke-width: 0.1"/>
    <path d="M 96.300394 126.277522 
L 107.849776 127.772745 
L 117.713497 121.056699 
L 106.175044 119.6319 
z
" clip-path="url(#p68ddf4b65f)" style="fill: #debb00; fill-opacity: 0.35; stroke: #000000; stroke-opacity: 0.35; stroke-width: 0.1"/>
    <path d="M 117.713497 121.056699 
L 129.454688 122.506533 
L 139.140158 115.83257 
L 127.413035 114.452442 
z
" clip-path="url(#p68ddf4b65f)" style="fill: #debb00; fill-opacity: 0.35; stroke: #000000; stroke-opacity: 0.35; stroke-width: 0.1"/>
    <path d="M 139.140158 115.83257 
L 151.073401 117.236956 
L 160.580391 110.605132 
L 148.664362 109.269731 
z
" clip-path="url(#p68ddf4b65f)" style="fill: #debb00; fill-opacity: 0.35; stroke: #000000; stroke-opacity: 0.35; stroke-width: 0.1"/>
    <path d="M 160.580391 110.605132 
L 172.705927 111.964013 
L 182.034207 105.374383 
L 169.929036 104.083765 
z
" clip-path="url(#p68ddf4b65f)" style="fill: #debb00; fill-opacity: 0.35; stroke: #000000; stroke-opacity: 0.35; stroke-width: 0.1"/>
    <path d="M 182.034207 105.374383 
L 194.352279 106.687699 
L 203.501621 100.140318 
L 191.207072 98.894541 
z
" clip-path="url(#p68ddf4b65f)" style="fill: #debb00; fill-opacity: 0.35; stroke: #000000; stroke-opacity: 0.35; stroke-width: 0.1"/>
    <path d="M 21.567862 148.804023 
L 32.54328 150.50989 
L 43.117706 143.551233 
L 32.142306 141.920189 
z
" clip-path="url(#p68ddf4b65f)" style="fill: #debb00; fill-opacity: 0.35; stroke: #000000; stroke-opacity: 0.35; stroke-width: 0.1"/>
    <path d="M 43.117706 143.551233 
L 54.287411 145.211152 
L 64.681298 138.295092 
L 53.514811 136.709264 
z
" clip-path="url(#p68ddf4b65f)" style="fill: #debb00; fill-opacity: 0.35; stroke: #000000; stroke-opacity: 0.35; stroke-width: 0.1"/>
    <path d="M 64.681298 138.295092 
L 76.045536 139.909004 
L 86.25865 133.035597 
L 74.900836 131.495043 
z
" clip-path="url(#p68ddf4b65f)" style="fill: #debb00; fill-opacity: 0.35; stroke: #000000; stroke-opacity: 0.35; stroke-width: 0.1"/>
    <path d="M 86.25865 133.035597 
L 97.817669 134.603443 
L 107.849776 127.772745 
L 96.300394 126.277522 
z
" clip-path="url(#p68ddf4b65f)" style="fill: #debb00; fill-opacity: 0.35; stroke: #000000; stroke-opacity: 0.35; stroke-width: 0.1"/>
    <path d="M 107.849776 127.772745 
L 119.603822 129.294465 
L 129.454688 122.506533 
L 117.713497 121.056699 
z
" clip-path="url(#p68ddf4b65f)" style="fill: #debb00; fill-opacity: 0.35; stroke: #000000; stroke-opacity: 0.35; stroke-width: 0.1"/>
    <path d="M 129.454688 122.506533 
L 141.40401 123.982067 
L 151.073401 117.236956 
L 139.140158 115.83257 
z
" clip-path="url(#p68ddf4b65f)" style="fill: #debb00; fill-opacity: 0.35; stroke: #000000; stroke-opacity: 0.35; stroke-width: 0.1"/>
    <path d="M 151.073401 117.236956 
L 163.218246 118.666245 
L 172.705927 111.964013 
L 160.580391 110.605132 
z
" clip-path="url(#p68ddf4b65f)" style="fill: #debb00; fill-opacity: 0.35; stroke: #000000; stroke-opacity: 0.35; stroke-width: 0.1"/>
    <path d="M 172.705927 111.964013 
L 185.046545 113.346997 
L 194.352279 106.687699 
L 182.034207 105.374383 
z
" clip-path="url(#p68ddf4b65f)" style="fill: #debb00; fill-opacity: 0.35; stroke: #000000; stroke-opacity: 0.35; stroke-width: 0.1"/>
    <path d="M 194.352279 106.687699 
L 206.888918 108.024319 
L 216.012471 101.408012 
L 203.501621 100.140318 
z
" clip-path="url(#p68ddf4b65f)" style="fill: #debb00; fill-opacity: 0.35; stroke: #000000; stroke-opacity: 0.35; stroke-width: 0.1"/>
    <path d="M 32.54328 150.50989 
L 43.714676 152.246218 
L 54.287411 145.211152 
L 43.117706 143.551233 
z
" clip-path="url(#p68ddf4b65f)" style="fill: #debb00; fill-opacity: 0.35; stroke: #000000; stroke-opacity: 0.35; stroke-width: 0.1"/>
    <path d="M 54.287411 145.211152 
L 65.656627 146.900721 
L 76.045536 139.909004 
L 64.681298 138.295092 
z
" clip-path="url(#p68ddf4b65f)" style="fill: #debb00; fill-opacity: 0.35; stroke: #000000; stroke-opacity: 0.35; stroke-width: 0.1"/>
    <path d="M 76.045536 139.909004 
L 87.612826 141.551754 
L 97.817669 134.603443 
L 86.25865 133.035597 
z
" clip-path="url(#p68ddf4b65f)" style="fill: #debb00; fill-opacity: 0.35; stroke: #000000; stroke-opacity: 0.35; stroke-width: 0.1"/>
    <path d="M 97.817669 134.603443 
L 109.583286 136.199311 
L 119.603822 129.294465 
L 107.849776 127.772745 
z
" clip-path="url(#p68ddf4b65f)" style="fill: #debb00; fill-opacity: 0.35; stroke: #000000; stroke-opacity: 0.35; stroke-width: 0.1"/>
    <path d="M 119.603822 129.294465 
L 131.568021 130.843392 
L 141.40401 123.982067 
L 129.454688 122.506533 
z
" clip-path="url(#p68ddf4b65f)" style="fill: #debb00; fill-opacity: 0.35; stroke: #000000; stroke-opacity: 0.35; stroke-width: 0.1"/>
    <path d="M 141.40401 123.982067 
L 153.567046 125.483991 
L 163.218246 118.666245 
L 151.073401 117.236956 
z
" clip-path="url(#p68ddf4b65f)" style="fill: #debb00; fill-opacity: 0.35; stroke: #000000; stroke-opacity: 0.35; stroke-width: 0.1"/>
    <path d="M 163.218246 118.666245 
L 175.580373 120.121105 
L 185.046545 113.346997 
L 172.705927 111.964013 
z
" clip-path="url(#p68ddf4b65f)" style="fill: #debb00; fill-opacity: 0.35; stroke: #000000; stroke-opacity: 0.35; stroke-width: 0.1"/>
    <path d="M 185.046545 113.346997 
L 197.608018 114.754732 
L 206.888918 108.024319 
L 194.352279 106.687699 
z
" clip-path="url(#p68ddf4b65f)" style="fill: #debb00; fill-opacity: 0.35; stroke: #000000; stroke-opacity: 0.35; stroke-width: 0.1"/>
    <path d="M 43.714676 152.246218 
L 55.087345 154.013829 
L 65.656627 146.900721 
L 54.287411 145.211152 
z
" clip-path="url(#p68ddf4b65f)" style="fill: #debb00; fill-opacity: 0.35; stroke: #000000; stroke-opacity: 0.35; stroke-width: 0.1"/>
    <path d="M 65.656627 146.900721 
L 77.230748 148.620741 
L 87.612826 141.551754 
L 76.045536 139.909004 
z
" clip-path="url(#p68ddf4b65f)" style="fill: #debb00; fill-opacity: 0.35; stroke: #000000; stroke-opacity: 0.35; stroke-width: 0.1"/>
    <path d="M 87.612826 141.551754 
L 99.388658 143.224119 
L 109.583286 136.199311 
L 97.817669 134.603443 
z
" clip-path="url(#p68ddf4b65f)" style="fill: #debb00; fill-opacity: 0.35; stroke: #000000; stroke-opacity: 0.35; stroke-width: 0.1"/>
    <path d="M 109.583286 136.199311 
L 121.561091 137.823961 
L 131.568021 130.843392 
L 119.603822 129.294465 
z
" clip-path="url(#p68ddf4b65f)" style="fill: #debb00; fill-opacity: 0.35; stroke: #000000; stroke-opacity: 0.35; stroke-width: 0.1"/>
    <path d="M 131.568021 130.843392 
L 143.74806 132.420262 
L 153.567046 125.483991 
L 141.40401 123.982067 
z
" clip-path="url(#p68ddf4b65f)" style="fill: #debb00; fill-opacity: 0.35; stroke: #000000; stroke-opacity: 0.35; stroke-width: 0.1"/>
    <path d="M 153.567046 125.483991 
L 165.94958 127.013019 
L 175.580373 120.121105 
L 163.218246 118.666245 
z
" clip-path="url(#p68ddf4b65f)" style="fill: #debb00; fill-opacity: 0.35; stroke: #000000; stroke-opacity: 0.35; stroke-width: 0.1"/>
    <path d="M 175.580373 120.121105 
L 188.165665 121.602229 
L 197.608018 114.754732 
L 185.046545 113.346997 
z
" clip-path="url(#p68ddf4b65f)" style="fill: #debb00; fill-opacity: 0.35; stroke: #000000; stroke-opacity: 0.35; stroke-width: 0.1"/>
    <path d="M 55.087345 154.013829 
L 66.666777 155.813576 
L 77.230748 148.620741 
L 65.656627 146.900721 
z
" clip-path="url(#p68ddf4b65f)" style="fill: #debb00; fill-opacity: 0.35; stroke: #000000; stroke-opacity: 0.35; stroke-width: 0.1"/>
    <path d="M 77.230748 148.620741 
L 89.015363 150.372042 
L 99.388658 143.224119 
L 87.612826 141.551754 
z
" clip-path="url(#p68ddf4b65f)" style="fill: #debb00; fill-opacity: 0.35; stroke: #000000; stroke-opacity: 0.35; stroke-width: 0.1"/>
    <path d="M 99.388658 143.224119 
L 111.378724 144.92691 
L 121.561091 137.823961 
L 109.583286 136.199311 
z
" clip-path="url(#p68ddf4b65f)" style="fill: #debb00; fill-opacity: 0.35; stroke: #000000; stroke-opacity: 0.35; stroke-width: 0.1"/>
    <path d="M 121.561091 137.823961 
L 133.756876 139.478176 
L 143.74806 132.420262 
L 131.568021 130.843392 
z
" clip-path="url(#p68ddf4b65f)" style="fill: #debb00; fill-opacity: 0.35; stroke: #000000; stroke-opacity: 0.35; stroke-width: 0.1"/>
    <path d="M 143.74806 132.420262 
L 156.149833 134.025838 
L 165.94958 127.013019 
L 153.567046 125.483991 
z
" clip-path="url(#p68ddf4b65f)" style="fill: #debb00; fill-opacity: 0.35; stroke: #000000; stroke-opacity: 0.35; stroke-width: 0.1"/>
    <path d="M 165.94958 127.013019 
L 178.557609 128.569892 
L 188.165665 121.602229 
L 175.580373 120.121105 
z
" clip-path="url(#p68ddf4b65f)" style="fill: #debb00; fill-opacity: 0.35; stroke: #000000; stroke-opacity: 0.35; stroke-width: 0.1"/>
    <path d="M 66.666777 155.813576 
L 78.458661 157.646344 
L 89.015363 150.372042 
L 77.230748 148.620741 
z
" clip-path="url(#p68ddf4b65f)" style="fill: #debb00; fill-opacity: 0.35; stroke: #000000; stroke-opacity: 0.35; stroke-width: 0.1"/>
    <path d="M 89.015363 150.372042 
L 101.016267 152.155485 
L 111.378724 144.92691 
L 99.388658 143.224119 
z
" clip-path="url(#p68ddf4b65f)" style="fill: #debb00; fill-opacity: 0.35; stroke: #000000; stroke-opacity: 0.35; stroke-width: 0.1"/>
    <path d="M 111.378724 144.92691 
L 123.588924 146.660963 
L 133.756876 139.478176 
L 121.561091 137.823961 
z
" clip-path="url(#p68ddf4b65f)" style="fill: #debb00; fill-opacity: 0.35; stroke: #000000; stroke-opacity: 0.35; stroke-width: 0.1"/>
    <path d="M 133.756876 139.478176 
L 146.176646 141.162773 
L 156.149833 134.025838 
L 143.74806 132.420262 
z
" clip-path="url(#p68ddf4b65f)" style="fill: #debb00; fill-opacity: 0.35; stroke: #000000; stroke-opacity: 0.35; stroke-width: 0.1"/>
    <path d="M 156.149833 134.025838 
L 168.779449 135.660912 
L 178.557609 128.569892 
L 165.94958 127.013019 
z
" clip-path="url(#p68ddf4b65f)" style="fill: #debb00; fill-opacity: 0.35; stroke: #000000; stroke-opacity: 0.35; stroke-width: 0.1"/>
    <path d="M 78.458661 157.646344 
L 90.468898 159.51305 
L 101.016267 152.155485 
L 89.015363 150.372042 
z
" clip-path="url(#p68ddf4b65f)" style="fill: #debb00; fill-opacity: 0.35; stroke: #000000; stroke-opacity: 0.35; stroke-width: 0.1"/>
    <path d="M 101.016267 152.155485 
L 113.23947 153.971964 
L 123.588924 146.660963 
L 111.378724 144.92691 
z
" clip-path="url(#p68ddf4b65f)" style="fill: #debb00; fill-opacity: 0.35; stroke: #000000; stroke-opacity: 0.35; stroke-width: 0.1"/>
    <path d="M 123.588924 146.660963 
L 136.025375 148.427147 
L 146.176646 141.162773 
L 133.756876 139.478176 
z
" clip-path="url(#p68ddf4b65f)" style="fill: #debb00; fill-opacity: 0.35; stroke: #000000; stroke-opacity: 0.35; stroke-width: 0.1"/>
    <path d="M 146.176646 141.162773 
L 158.826629 142.878595 
L 168.779449 135.660912 
L 156.149833 134.025838 
z
" clip-path="url(#p68ddf4b65f)" style="fill: #debb00; fill-opacity: 0.35; stroke: #000000; stroke-opacity: 0.35; stroke-width: 0.1"/>
    <path d="M 90.468898 159.51305 
L 102.703611 161.414645 
L 113.23947 153.971964 
L 101.016267 152.155485 
z
" clip-path="url(#p68ddf4b65f)" style="fill: #debb00; fill-opacity: 0.35; stroke: #000000; stroke-opacity: 0.35; stroke-width: 0.1"/>
    <path d="M 113.23947 153.971964 
L 125.691206 155.822405 
L 136.025375 148.427147 
L 123.588924 146.660963 
z
" clip-path="url(#p68ddf4b65f)" style="fill: #debb00; fill-opacity: 0.35; stroke: #000000; stroke-opacity: 0.35; stroke-width: 0.1"/>
    <path d="M 136.025375 148.427147 
L 148.694425 150.226365 
L 158.826629 142.878595 
L 146.176646 141.162773 
z
" clip-path="url(#p68ddf4b65f)" style="fill: #debb00; fill-opacity: 0.35; stroke: #000000; stroke-opacity: 0.35; stroke-width: 0.1"/>
    <path d="M 102.703611 161.414645 
L 115.169151 163.352117 
L 125.691206 155.822405 
L 113.23947 153.971964 
z
" clip-path="url(#p68ddf4b65f)" style="fill: #debb00; fill-opacity: 0.35; stroke: #000000; stroke-opacity: 0.35; stroke-width: 0.1"/>
    <path d="M 125.691206 155.822405 
L 138.377945 157.70777 
L 148.694425 150.226365 
L 136.025375 148.427147 
z
" clip-path="url(#p68ddf4b65f)" style="fill: #debb00; fill-opacity: 0.35; stroke: #000000; stroke-opacity: 0.35; stroke-width: 0.1"/>
    <path d="M 115.169151 163.352117 
L 127.872114 165.32649 
L 138.377945 157.70777 
L 125.691206 155.822405 
z
" clip-path="url(#p68ddf4b65f)" style="fill: #debb00; fill-opacity: 0.35; stroke: #000000; stroke-opacity: 0.35; stroke-width: 0.1"/>
   </g>
   <g id="Poly3DCollection_3">
    <path d="M 101.475071 96.785405 
L 112.411512 97.951416 
L 121.683451 91.84988 
L 110.757338 90.742763 
z
" clip-path="url(#p68ddf4b65f)" style="fill: #96de29; fill-opacity: 0.35; stroke: #a9a9a9; stroke-opacity: 0.35; stroke-width: 0.1"/>
    <path d="M 92.044652 102.924493 
L 102.99035 104.151152 
L 112.411512 97.951416 
L 101.475071 96.785405 
z
" clip-path="url(#p68ddf4b65f)" style="fill: #96de29; fill-opacity: 0.35; stroke: #a9a9a9; stroke-opacity: 0.35; stroke-width: 0.1"/>
    <path d="M 112.411512 97.951416 
L 123.530659 99.136907 
L 132.790639 92.975344 
L 121.683451 91.84988 
z
" clip-path="url(#p68ddf4b65f)" style="fill: #96de29; fill-opacity: 0.35; stroke: #a9a9a9; stroke-opacity: 0.35; stroke-width: 0.1"/>
    <path d="M 82.462504 109.162354 
L 93.416332 110.451476 
L 102.99035 104.151152 
L 92.044652 102.924493 
z
" clip-path="url(#p68ddf4b65f)" style="fill: #96de29; fill-opacity: 0.35; stroke: #a9a9a9; stroke-opacity: 0.35; stroke-width: 0.1"/>
    <path d="M 102.99035 104.151152 
L 114.120393 105.398469 
L 123.530659 99.136907 
L 112.411512 97.951416 
z
" clip-path="url(#p68ddf4b65f)" style="fill: #96de29; fill-opacity: 0.35; stroke: #a9a9a9; stroke-opacity: 0.35; stroke-width: 0.1"/>
    <path d="M 123.530659 99.136907 
L 134.837128 100.342369 
L 144.083442 94.119617 
L 132.790639 92.975344 
z
" clip-path="url(#p68ddf4b65f)" style="fill: #96de29; fill-opacity: 0.35; stroke: #a9a9a9; stroke-opacity: 0.35; stroke-width: 0.1"/>
    <path d="M 72.724936 115.501392 
L 83.685709 116.854857 
L 93.416332 110.451476 
L 82.462504 109.162354 
z
" clip-path="url(#p68ddf4b65f)" style="fill: #96de29; fill-opacity: 0.35; stroke: #a9a9a9; stroke-opacity: 0.35; stroke-width: 0.1"/>
    <path d="M 93.416332 110.451476 
L 104.556151 111.762486 
L 114.120393 105.398469 
L 102.99035 104.151152 
z
" clip-path="url(#p68ddf4b65f)" style="fill: #96de29; fill-opacity: 0.35; stroke: #a9a9a9; stroke-opacity: 0.35; stroke-width: 0.1"/>
    <path d="M 114.120393 105.398469 
L 125.439476 106.666972 
L 134.837128 100.342369 
L 123.530659 99.136907 
z
" clip-path="url(#p68ddf4b65f)" style="fill: #96de29; fill-opacity: 0.35; stroke: #a9a9a9; stroke-opacity: 0.35; stroke-width: 0.1"/>
    <path d="M 134.837128 100.342369 
L 146.335694 101.568312 
L 155.566551 95.283173 
L 144.083442 94.119617 
z
" clip-path="url(#p68ddf4b65f)" style="fill: #96de29; fill-opacity: 0.35; stroke: #a9a9a9; stroke-opacity: 0.35; stroke-width: 0.1"/>
    <path d="M 62.828137 121.944088 
L 73.794605 123.363845 
L 83.685709 116.854857 
L 72.724936 115.501392 
z
" clip-path="url(#p68ddf4b65f)" style="fill: #96de29; fill-opacity: 0.35; stroke: #a9a9a9; stroke-opacity: 0.35; stroke-width: 0.1"/>
    <path d="M 83.685709 116.854857 
L 94.834125 118.231493 
L 104.556151 111.762486 
L 93.416332 110.451476 
z
" clip-path="url(#p68ddf4b65f)" style="fill: #96de29; fill-opacity: 0.35; stroke: #a9a9a9; stroke-opacity: 0.35; stroke-width: 0.1"/>
    <path d="M 104.556151 111.762486 
L 115.886738 113.095948 
L 125.439476 106.666972 
L 114.120393 105.398469 
z
" clip-path="url(#p68ddf4b65f)" style="fill: #96de29; fill-opacity: 0.35; stroke: #a9a9a9; stroke-opacity: 0.35; stroke-width: 0.1"/>
    <path d="M 125.439476 106.666972 
L 136.952457 107.957205 
L 146.335694 101.568312 
L 134.837128 100.342369 
z
" clip-path="url(#p68ddf4b65f)" style="fill: #96de29; fill-opacity: 0.35; stroke: #a9a9a9; stroke-opacity: 0.35; stroke-width: 0.1"/>
    <path d="M 146.335694 101.568312 
L 158.031294 102.815263 
L 167.244819 96.466503 
L 155.566551 95.283173 
z
" clip-path="url(#p68ddf4b65f)" style="fill: #96de29; fill-opacity: 0.35; stroke: #a9a9a9; stroke-opacity: 0.35; stroke-width: 0.1"/>
    <path d="M 52.768167 128.493005 
L 63.739018 129.981073 
L 73.794605 123.363845 
L 62.828137 121.944088 
z
" clip-path="url(#p68ddf4b65f)" style="fill: #96de29; fill-opacity: 0.35; stroke: #a9a9a9; stroke-opacity: 0.35; stroke-width: 0.1"/>
    <path d="M 73.794605 123.363845 
L 84.950376 124.808109 
L 94.834125 118.231493 
L 83.685709 116.854857 
z
" clip-path="url(#p68ddf4b65f)" style="fill: #96de29; fill-opacity: 0.35; stroke: #a9a9a9; stroke-opacity: 0.35; stroke-width: 0.1"/>
    <path d="M 94.834125 118.231493 
L 106.175044 119.6319 
L 115.886738 113.095948 
L 104.556151 111.762486 
z
" clip-path="url(#p68ddf4b65f)" style="fill: #96de29; fill-opacity: 0.35; stroke: #a9a9a9; stroke-opacity: 0.35; stroke-width: 0.1"/>
    <path d="M 115.886738 113.095948 
L 127.413035 114.452442 
L 136.952457 107.957205 
L 125.439476 106.666972 
z
" clip-path="url(#p68ddf4b65f)" style="fill: #96de29; fill-opacity: 0.35; stroke: #a9a9a9; stroke-opacity: 0.35; stroke-width: 0.1"/>
    <path d="M 136.952457 107.957205 
L 148.664362 109.269731 
L 158.031294 102.815263 
L 146.335694 101.568312 
z
" clip-path="url(#p68ddf4b65f)" style="fill: #96de29; fill-opacity: 0.35; stroke: #a9a9a9; stroke-opacity: 0.35; stroke-width: 0.1"/>
    <path d="M 158.031294 102.815263 
L 169.929036 104.083765 
L 179.123262 97.670117 
L 167.244819 96.466503 
z
" clip-path="url(#p68ddf4b65f)" style="fill: #96de29; fill-opacity: 0.35; stroke: #a9a9a9; stroke-opacity: 0.35; stroke-width: 0.1"/>
    <path d="M 42.540958 135.150793 
L 53.514811 136.709264 
L 63.739018 129.981073 
L 52.768167 128.493005 
z
" clip-path="url(#p68ddf4b65f)" style="fill: #96de29; fill-opacity: 0.35; stroke: #a9a9a9; stroke-opacity: 0.35; stroke-width: 0.1"/>
    <path d="M 63.739018 129.981073 
L 74.900836 131.495043 
L 84.950376 124.808109 
L 73.794605 123.363845 
z
" clip-path="url(#p68ddf4b65f)" style="fill: #96de29; fill-opacity: 0.35; stroke: #a9a9a9; stroke-opacity: 0.35; stroke-width: 0.1"/>
    <path d="M 84.950376 124.808109 
L 96.300394 126.277522 
L 106.175044 119.6319 
L 94.834125 118.231493 
z
" clip-path="url(#p68ddf4b65f)" style="fill: #96de29; fill-opacity: 0.35; stroke: #a9a9a9; stroke-opacity: 0.35; stroke-width: 0.1"/>
    <path d="M 106.175044 119.6319 
L 117.713497 121.056699 
L 127.413035 114.452442 
L 115.886738 113.095948 
z
" clip-path="url(#p68ddf4b65f)" style="fill: #96de29; fill-opacity: 0.35; stroke: #a9a9a9; stroke-opacity: 0.35; stroke-width: 0.1"/>
    <path d="M 127.413035 114.452442 
L 139.140158 115.83257 
L 148.664362 109.269731 
L 136.952457 107.957205 
z
" clip-path="url(#p68ddf4b65f)" style="fill: #96de29; fill-opacity: 0.35; stroke: #a9a9a9; stroke-opacity: 0.35; stroke-width: 0.1"/>
    <path d="M 148.664362 109.269731 
L 160.580391 110.605132 
L 169.929036 104.083765 
L 158.031294 102.815263 
z
" clip-path="url(#p68ddf4b65f)" style="fill: #96de29; fill-opacity: 0.35; stroke: #a9a9a9; stroke-opacity: 0.35; stroke-width: 0.1"/>
    <path d="M 169.929036 104.083765 
L 182.034207 105.374383 
L 191.207072 98.894541 
L 179.123262 97.670117 
z
" clip-path="url(#p68ddf4b65f)" style="fill: #96de29; fill-opacity: 0.35; stroke: #a9a9a9; stroke-opacity: 0.35; stroke-width: 0.1"/>
    <path d="M 32.142306 141.920189 
L 43.117706 143.551233 
L 53.514811 136.709264 
L 42.540958 135.150793 
z
" clip-path="url(#p68ddf4b65f)" style="fill: #96de29; fill-opacity: 0.35; stroke: #a9a9a9; stroke-opacity: 0.35; stroke-width: 0.1"/>
    <path d="M 53.514811 136.709264 
L 64.681298 138.295092 
L 74.900836 131.495043 
L 63.739018 129.981073 
z
" clip-path="url(#p68ddf4b65f)" style="fill: #96de29; fill-opacity: 0.35; stroke: #a9a9a9; stroke-opacity: 0.35; stroke-width: 0.1"/>
    <path d="M 74.900836 131.495043 
L 86.25865 133.035597 
L 96.300394 126.277522 
L 84.950376 124.808109 
z
" clip-path="url(#p68ddf4b65f)" style="fill: #96de29; fill-opacity: 0.35; stroke: #a9a9a9; stroke-opacity: 0.35; stroke-width: 0.1"/>
    <path d="M 96.300394 126.277522 
L 107.849776 127.772745 
L 117.713497 121.056699 
L 106.175044 119.6319 
z
" clip-path="url(#p68ddf4b65f)" style="fill: #96de29; fill-opacity: 0.35; stroke: #a9a9a9; stroke-opacity: 0.35; stroke-width: 0.1"/>
    <path d="M 117.713497 121.056699 
L 129.454688 122.506533 
L 139.140158 115.83257 
L 127.413035 114.452442 
z
" clip-path="url(#p68ddf4b65f)" style="fill: #96de29; fill-opacity: 0.35; stroke: #a9a9a9; stroke-opacity: 0.35; stroke-width: 0.1"/>
    <path d="M 139.140158 115.83257 
L 151.073401 117.236956 
L 160.580391 110.605132 
L 148.664362 109.269731 
z
" clip-path="url(#p68ddf4b65f)" style="fill: #96de29; fill-opacity: 0.35; stroke: #a9a9a9; stroke-opacity: 0.35; stroke-width: 0.1"/>
    <path d="M 160.580391 110.605132 
L 172.705927 111.964013 
L 182.034207 105.374383 
L 169.929036 104.083765 
z
" clip-path="url(#p68ddf4b65f)" style="fill: #96de29; fill-opacity: 0.35; stroke: #a9a9a9; stroke-opacity: 0.35; stroke-width: 0.1"/>
    <path d="M 182.034207 105.374383 
L 194.352279 106.687699 
L 203.501621 100.140318 
L 191.207072 98.894541 
z
" clip-path="url(#p68ddf4b65f)" style="fill: #96de29; fill-opacity: 0.35; stroke: #a9a9a9; stroke-opacity: 0.35; stroke-width: 0.1"/>
    <path d="M 21.567862 148.804023 
L 32.54328 150.50989 
L 43.117706 143.551233 
L 32.142306 141.920189 
z
" clip-path="url(#p68ddf4b65f)" style="fill: #96de29; fill-opacity: 0.35; stroke: #a9a9a9; stroke-opacity: 0.35; stroke-width: 0.1"/>
    <path d="M 43.117706 143.551233 
L 54.287411 145.211152 
L 64.681298 138.295092 
L 53.514811 136.709264 
z
" clip-path="url(#p68ddf4b65f)" style="fill: #96de29; fill-opacity: 0.35; stroke: #a9a9a9; stroke-opacity: 0.35; stroke-width: 0.1"/>
    <path d="M 64.681298 138.295092 
L 76.045536 139.909004 
L 86.25865 133.035597 
L 74.900836 131.495043 
z
" clip-path="url(#p68ddf4b65f)" style="fill: #96de29; fill-opacity: 0.35; stroke: #a9a9a9; stroke-opacity: 0.35; stroke-width: 0.1"/>
    <path d="M 86.25865 133.035597 
L 97.817669 134.603443 
L 107.849776 127.772745 
L 96.300394 126.277522 
z
" clip-path="url(#p68ddf4b65f)" style="fill: #96de29; fill-opacity: 0.35; stroke: #a9a9a9; stroke-opacity: 0.35; stroke-width: 0.1"/>
    <path d="M 107.849776 127.772745 
L 119.603822 129.294465 
L 129.454688 122.506533 
L 117.713497 121.056699 
z
" clip-path="url(#p68ddf4b65f)" style="fill: #96de29; fill-opacity: 0.35; stroke: #a9a9a9; stroke-opacity: 0.35; stroke-width: 0.1"/>
    <path d="M 129.454688 122.506533 
L 141.40401 123.982067 
L 151.073401 117.236956 
L 139.140158 115.83257 
z
" clip-path="url(#p68ddf4b65f)" style="fill: #96de29; fill-opacity: 0.35; stroke: #a9a9a9; stroke-opacity: 0.35; stroke-width: 0.1"/>
    <path d="M 151.073401 117.236956 
L 163.218246 118.666245 
L 172.705927 111.964013 
L 160.580391 110.605132 
z
" clip-path="url(#p68ddf4b65f)" style="fill: #96de29; fill-opacity: 0.35; stroke: #a9a9a9; stroke-opacity: 0.35; stroke-width: 0.1"/>
    <path d="M 172.705927 111.964013 
L 185.046545 113.346997 
L 194.352279 106.687699 
L 182.034207 105.374383 
z
" clip-path="url(#p68ddf4b65f)" style="fill: #96de29; fill-opacity: 0.35; stroke: #a9a9a9; stroke-opacity: 0.35; stroke-width: 0.1"/>
    <path d="M 194.352279 106.687699 
L 206.888918 108.024319 
L 216.012471 101.408012 
L 203.501621 100.140318 
z
" clip-path="url(#p68ddf4b65f)" style="fill: #96de29; fill-opacity: 0.35; stroke: #a9a9a9; stroke-opacity: 0.35; stroke-width: 0.1"/>
    <path d="M 32.54328 150.50989 
L 43.714676 152.246218 
L 54.287411 145.211152 
L 43.117706 143.551233 
z
" clip-path="url(#p68ddf4b65f)" style="fill: #96de29; fill-opacity: 0.35; stroke: #a9a9a9; stroke-opacity: 0.35; stroke-width: 0.1"/>
    <path d="M 54.287411 145.211152 
L 65.656627 146.900721 
L 76.045536 139.909004 
L 64.681298 138.295092 
z
" clip-path="url(#p68ddf4b65f)" style="fill: #96de29; fill-opacity: 0.35; stroke: #a9a9a9; stroke-opacity: 0.35; stroke-width: 0.1"/>
    <path d="M 76.045536 139.909004 
L 87.612826 141.551754 
L 97.817669 134.603443 
L 86.25865 133.035597 
z
" clip-path="url(#p68ddf4b65f)" style="fill: #96de29; fill-opacity: 0.35; stroke: #a9a9a9; stroke-opacity: 0.35; stroke-width: 0.1"/>
    <path d="M 97.817669 134.603443 
L 109.583286 136.199311 
L 119.603822 129.294465 
L 107.849776 127.772745 
z
" clip-path="url(#p68ddf4b65f)" style="fill: #96de29; fill-opacity: 0.35; stroke: #a9a9a9; stroke-opacity: 0.35; stroke-width: 0.1"/>
    <path d="M 119.603822 129.294465 
L 131.568021 130.843392 
L 141.40401 123.982067 
L 129.454688 122.506533 
z
" clip-path="url(#p68ddf4b65f)" style="fill: #96de29; fill-opacity: 0.35; stroke: #a9a9a9; stroke-opacity: 0.35; stroke-width: 0.1"/>
    <path d="M 141.40401 123.982067 
L 153.567046 125.483991 
L 163.218246 118.666245 
L 151.073401 117.236956 
z
" clip-path="url(#p68ddf4b65f)" style="fill: #96de29; fill-opacity: 0.35; stroke: #a9a9a9; stroke-opacity: 0.35; stroke-width: 0.1"/>
    <path d="M 163.218246 118.666245 
L 175.580373 120.121105 
L 185.046545 113.346997 
L 172.705927 111.964013 
z
" clip-path="url(#p68ddf4b65f)" style="fill: #96de29; fill-opacity: 0.35; stroke: #a9a9a9; stroke-opacity: 0.35; stroke-width: 0.1"/>
    <path d="M 185.046545 113.346997 
L 197.608018 114.754732 
L 206.888918 108.024319 
L 194.352279 106.687699 
z
" clip-path="url(#p68ddf4b65f)" style="fill: #96de29; fill-opacity: 0.35; stroke: #a9a9a9; stroke-opacity: 0.35; stroke-width: 0.1"/>
    <path d="M 43.714676 152.246218 
L 55.087345 154.013829 
L 65.656627 146.900721 
L 54.287411 145.211152 
z
" clip-path="url(#p68ddf4b65f)" style="fill: #96de29; fill-opacity: 0.35; stroke: #a9a9a9; stroke-opacity: 0.35; stroke-width: 0.1"/>
    <path d="M 65.656627 146.900721 
L 77.230748 148.620741 
L 87.612826 141.551754 
L 76.045536 139.909004 
z
" clip-path="url(#p68ddf4b65f)" style="fill: #96de29; fill-opacity: 0.35; stroke: #a9a9a9; stroke-opacity: 0.35; stroke-width: 0.1"/>
    <path d="M 87.612826 141.551754 
L 99.388658 143.224119 
L 109.583286 136.199311 
L 97.817669 134.603443 
z
" clip-path="url(#p68ddf4b65f)" style="fill: #96de29; fill-opacity: 0.35; stroke: #a9a9a9; stroke-opacity: 0.35; stroke-width: 0.1"/>
    <path d="M 109.583286 136.199311 
L 121.561091 137.823961 
L 131.568021 130.843392 
L 119.603822 129.294465 
z
" clip-path="url(#p68ddf4b65f)" style="fill: #96de29; fill-opacity: 0.35; stroke: #a9a9a9; stroke-opacity: 0.35; stroke-width: 0.1"/>
    <path d="M 131.568021 130.843392 
L 143.74806 132.420262 
L 153.567046 125.483991 
L 141.40401 123.982067 
z
" clip-path="url(#p68ddf4b65f)" style="fill: #96de29; fill-opacity: 0.35; stroke: #a9a9a9; stroke-opacity: 0.35; stroke-width: 0.1"/>
    <path d="M 153.567046 125.483991 
L 165.94958 127.013019 
L 175.580373 120.121105 
L 163.218246 118.666245 
z
" clip-path="url(#p68ddf4b65f)" style="fill: #96de29; fill-opacity: 0.35; stroke: #a9a9a9; stroke-opacity: 0.35; stroke-width: 0.1"/>
    <path d="M 175.580373 120.121105 
L 188.165665 121.602229 
L 197.608018 114.754732 
L 185.046545 113.346997 
z
" clip-path="url(#p68ddf4b65f)" style="fill: #96de29; fill-opacity: 0.35; stroke: #a9a9a9; stroke-opacity: 0.35; stroke-width: 0.1"/>
    <path d="M 55.087345 154.013829 
L 66.666777 155.813576 
L 77.230748 148.620741 
L 65.656627 146.900721 
z
" clip-path="url(#p68ddf4b65f)" style="fill: #96de29; fill-opacity: 0.35; stroke: #a9a9a9; stroke-opacity: 0.35; stroke-width: 0.1"/>
    <path d="M 77.230748 148.620741 
L 89.015363 150.372042 
L 99.388658 143.224119 
L 87.612826 141.551754 
z
" clip-path="url(#p68ddf4b65f)" style="fill: #96de29; fill-opacity: 0.35; stroke: #a9a9a9; stroke-opacity: 0.35; stroke-width: 0.1"/>
    <path d="M 99.388658 143.224119 
L 111.378724 144.92691 
L 121.561091 137.823961 
L 109.583286 136.199311 
z
" clip-path="url(#p68ddf4b65f)" style="fill: #96de29; fill-opacity: 0.35; stroke: #a9a9a9; stroke-opacity: 0.35; stroke-width: 0.1"/>
    <path d="M 121.561091 137.823961 
L 133.756876 139.478176 
L 143.74806 132.420262 
L 131.568021 130.843392 
z
" clip-path="url(#p68ddf4b65f)" style="fill: #96de29; fill-opacity: 0.35; stroke: #a9a9a9; stroke-opacity: 0.35; stroke-width: 0.1"/>
    <path d="M 143.74806 132.420262 
L 156.149833 134.025838 
L 165.94958 127.013019 
L 153.567046 125.483991 
z
" clip-path="url(#p68ddf4b65f)" style="fill: #96de29; fill-opacity: 0.35; stroke: #a9a9a9; stroke-opacity: 0.35; stroke-width: 0.1"/>
    <path d="M 165.94958 127.013019 
L 178.557609 128.569892 
L 188.165665 121.602229 
L 175.580373 120.121105 
z
" clip-path="url(#p68ddf4b65f)" style="fill: #96de29; fill-opacity: 0.35; stroke: #a9a9a9; stroke-opacity: 0.35; stroke-width: 0.1"/>
    <path d="M 66.666777 155.813576 
L 78.458661 157.646344 
L 89.015363 150.372042 
L 77.230748 148.620741 
z
" clip-path="url(#p68ddf4b65f)" style="fill: #96de29; fill-opacity: 0.35; stroke: #a9a9a9; stroke-opacity: 0.35; stroke-width: 0.1"/>
    <path d="M 89.015363 150.372042 
L 101.016267 152.155485 
L 111.378724 144.92691 
L 99.388658 143.224119 
z
" clip-path="url(#p68ddf4b65f)" style="fill: #96de29; fill-opacity: 0.35; stroke: #a9a9a9; stroke-opacity: 0.35; stroke-width: 0.1"/>
    <path d="M 111.378724 144.92691 
L 123.588924 146.660963 
L 133.756876 139.478176 
L 121.561091 137.823961 
z
" clip-path="url(#p68ddf4b65f)" style="fill: #96de29; fill-opacity: 0.35; stroke: #a9a9a9; stroke-opacity: 0.35; stroke-width: 0.1"/>
    <path d="M 133.756876 139.478176 
L 146.176646 141.162773 
L 156.149833 134.025838 
L 143.74806 132.420262 
z
" clip-path="url(#p68ddf4b65f)" style="fill: #96de29; fill-opacity: 0.35; stroke: #a9a9a9; stroke-opacity: 0.35; stroke-width: 0.1"/>
    <path d="M 156.149833 134.025838 
L 168.779449 135.660912 
L 178.557609 128.569892 
L 165.94958 127.013019 
z
" clip-path="url(#p68ddf4b65f)" style="fill: #96de29; fill-opacity: 0.35; stroke: #a9a9a9; stroke-opacity: 0.35; stroke-width: 0.1"/>
    <path d="M 78.458661 157.646344 
L 90.468898 159.51305 
L 101.016267 152.155485 
L 89.015363 150.372042 
z
" clip-path="url(#p68ddf4b65f)" style="fill: #96de29; fill-opacity: 0.35; stroke: #a9a9a9; stroke-opacity: 0.35; stroke-width: 0.1"/>
    <path d="M 101.016267 152.155485 
L 113.23947 153.971964 
L 123.588924 146.660963 
L 111.378724 144.92691 
z
" clip-path="url(#p68ddf4b65f)" style="fill: #96de29; fill-opacity: 0.35; stroke: #a9a9a9; stroke-opacity: 0.35; stroke-width: 0.1"/>
    <path d="M 123.588924 146.660963 
L 136.025375 148.427147 
L 146.176646 141.162773 
L 133.756876 139.478176 
z
" clip-path="url(#p68ddf4b65f)" style="fill: #96de29; fill-opacity: 0.35; stroke: #a9a9a9; stroke-opacity: 0.35; stroke-width: 0.1"/>
    <path d="M 146.176646 141.162773 
L 158.826629 142.878595 
L 168.779449 135.660912 
L 156.149833 134.025838 
z
" clip-path="url(#p68ddf4b65f)" style="fill: #96de29; fill-opacity: 0.35; stroke: #a9a9a9; stroke-opacity: 0.35; stroke-width: 0.1"/>
    <path d="M 90.468898 159.51305 
L 102.703611 161.414645 
L 113.23947 153.971964 
L 101.016267 152.155485 
z
" clip-path="url(#p68ddf4b65f)" style="fill: #96de29; fill-opacity: 0.35; stroke: #a9a9a9; stroke-opacity: 0.35; stroke-width: 0.1"/>
    <path d="M 113.23947 153.971964 
L 125.691206 155.822405 
L 136.025375 148.427147 
L 123.588924 146.660963 
z
" clip-path="url(#p68ddf4b65f)" style="fill: #96de29; fill-opacity: 0.35; stroke: #a9a9a9; stroke-opacity: 0.35; stroke-width: 0.1"/>
    <path d="M 136.025375 148.427147 
L 148.694425 150.226365 
L 158.826629 142.878595 
L 146.176646 141.162773 
z
" clip-path="url(#p68ddf4b65f)" style="fill: #96de29; fill-opacity: 0.35; stroke: #a9a9a9; stroke-opacity: 0.35; stroke-width: 0.1"/>
    <path d="M 102.703611 161.414645 
L 115.169151 163.352117 
L 125.691206 155.822405 
L 113.23947 153.971964 
z
" clip-path="url(#p68ddf4b65f)" style="fill: #96de29; fill-opacity: 0.35; stroke: #a9a9a9; stroke-opacity: 0.35; stroke-width: 0.1"/>
    <path d="M 125.691206 155.822405 
L 138.377945 157.70777 
L 148.694425 150.226365 
L 136.025375 148.427147 
z
" clip-path="url(#p68ddf4b65f)" style="fill: #96de29; fill-opacity: 0.35; stroke: #a9a9a9; stroke-opacity: 0.35; stroke-width: 0.1"/>
    <path d="M 115.169151 163.352117 
L 127.872114 165.32649 
L 138.377945 157.70777 
L 125.691206 155.822405 
z
" clip-path="url(#p68ddf4b65f)" style="fill: #96de29; fill-opacity: 0.35; stroke: #a9a9a9; stroke-opacity: 0.35; stroke-width: 0.1"/>
   </g>
   <g id="line2d_26">
    <path d="M 41.250591 135.990807 
L 45.14709 135.04057 
L 49.044038 134.090224 
L 52.941436 133.139769 
L 56.839283 132.189203 
L 60.73758 131.238529 
L 64.636326 130.287744 
L 68.535521 129.33685 
L 72.435167 128.385847 
L 76.335262 127.434733 
L 80.235806 126.48351 
L 84.136801 125.532178 
L 88.038246 124.580735 
L 91.940141 123.629183 
L 95.842486 122.677521 
L 99.745281 121.725749 
L 103.648526 120.773867 
L 107.552222 119.821876 
L 111.456368 118.869775 
L 115.360965 117.917563 
L 119.266012 116.965242 
L 123.17151 116.012811 
L 127.077459 115.060271 
L 130.983858 114.10762 
L 134.890709 113.154859 
L 138.79801 112.201988 
L 142.705763 111.249007 
L 146.613967 110.295917 
L 150.522622 109.342716 
L 154.431728 108.389405 
L 158.341285 107.435984 
L 162.251295 106.482453 
L 166.161755 105.528812 
L 170.072667 104.57506 
L 173.984031 103.621199 
L 177.895847 102.667227 
L 181.808114 101.713145 
L 185.720834 100.758953 
L 189.634005 99.804651 
L 193.547629 98.850239 
L 197.461705 97.895716 
L 201.376233 96.941083 
L 205.291213 95.986339 
L 209.206645 95.031486 
L 213.122531 94.076522 
L 217.038868 93.121447 
L 220.955659 92.166262 
L 224.872902 91.210967 
L 228.790597 90.255561 
L 232.708746 89.300045 
" clip-path="url(#p68ddf4b65f)" style="fill: none; stroke: #ff4500; stroke-width: 2.5; stroke-linecap: square"/>
   </g>
  </g>
 </g>
 <defs>
  <clipPath id="p68ddf4b65f">
   <rect x="8.51213" y="20.798437" width="214.48" height="214.48"/>
  </clipPath>
 </defs>
</svg>
