<svg height="300" id="svg46" inkscape:version="1.4 (e7c3feb100, 2024-10-09)" sodipodi:docname="aux.svg" version="1.1" viewbox="0 0 375 300" width="375" xmlns="http://www.w3.org/2000/svg" xmlns:inkscape="http://www.inkscape.org/namespaces/inkscape" xmlns:sodipodi="http://sodipodi.sourceforge.net/DTD/sodipodi-0.dtd" xmlns:svg="http://www.w3.org/2000/svg">
<defs id="defs46"></defs>
<sodipodi:namedview bordercolor="#000000" borderopacity="0.25" id="namedview46" inkscape:current-layer="g46" inkscape:cx="250" inkscape:cy="200" inkscape:deskcolor="#d1d1d1" inkscape:pagecheckerboard="0" inkscape:pageopacity="0.0" inkscape:showpageshadow="2" inkscape:window-height="1008" inkscape:window-maximized="1" inkscape:window-width="1920" inkscape:window-x="1920" inkscape:window-y="0" inkscape:zoom="2" pagecolor="#ffffff"></sodipodi:namedview>
<!-- Fundo estilizado -->
<!-- Grade de fundo esmaecida -->
<!-- Eixos coordenados principais -->
<!-- Marcadores dos eixos -->
<!-- Setas dos eixos -->
<!-- Rótulos dos eixos -->
<!-- Elementos temáticos -->
<!-- Origem destacada -->
<!-- Quadrantes marcados -->
<!-- Bússola estilizada -->
<g id="g45" transform="translate(77,83.5)"></g>
<!-- Título da visualização -->
<g id="g46" transform="scale(0.75)">
<rect fill="#1d3557" height="400" id="rect1" opacity="0.9" width="500" x="0" y="0"></rect>
<g id="g16" opacity="0.2" stroke="#a8dadc" stroke-width="0.5">
<!-- Linhas verticais da grade -->
<line id="line1" x1="50" x2="50" y1="50" y2="350"></line>
<line id="line2" x1="100" x2="100" y1="50" y2="350"></line>
<line id="line3" x1="150" x2="150" y1="50" y2="350"></line>
<line id="line4" x1="200" x2="200" y1="50" y2="350"></line>
<line id="line5" x1="250" x2="250" y1="50" y2="350"></line>
<line id="line6" x1="300" x2="300" y1="50" y2="350"></line>
<line id="line7" x1="350" x2="350" y1="50" y2="350"></line>
<line id="line8" x1="400" x2="400" y1="50" y2="350"></line>
<line id="line9" x1="450" x2="450" y1="50" y2="350"></line>
<!-- Linhas horizontais da grade -->
<line id="line10" x1="50" x2="450" y1="50" y2="50"></line>
<line id="line11" x1="50" x2="450" y1="100" y2="100"></line>
<line id="line12" x1="50" x2="450" y1="150" y2="150"></line>
<line id="line13" x1="50" x2="450" y1="200" y2="200"></line>
<line id="line14" x1="50" x2="450" y1="250" y2="250"></line>
<line id="line15" x1="50" x2="450" y1="300" y2="300"></line>
<line id="line16" x1="50" x2="450" y1="350" y2="350"></line>
</g>
<g id="g18" stroke="#f0f0f0" stroke-width="2">
<!-- Eixo X -->
<line id="line17" x1="50" x2="450" y1="200" y2="200"></line>
<!-- Eixo Y -->
<line id="line18" x1="250" x2="250" y1="50" y2="350"></line>
</g>
<g fill="#ffd166" font-family="Arial" font-size="12px" id="g33" text-anchor="middle">
<!-- Marcadores Eixo X -->
<text id="text18" x="250" y="220">0</text>
<text id="text19" x="300" y="220">1</text>
<text id="text20" x="350" y="220">2</text>
<text id="text21" x="400" y="220">3</text>
<text id="text22" x="450" y="220">4</text>
<text id="text23" x="200" y="220">-1</text>
<text id="text24" x="150" y="220">-2</text>
<text id="text25" x="100" y="220">-3</text>
<text id="text26" x="50" y="220">-4</text>
<!-- Marcadores Eixo Y -->
<text id="text27" x="240" y="200">0</text>
<text id="text28" x="240" y="150">1</text>
<text id="text29" x="240" y="100">2</text>
<text id="text30" x="240" y="50">3</text>
<text id="text31" x="240" y="250">-1</text>
<text id="text32" x="240" y="300">-2</text>
<text id="text33" x="240" y="350">-3</text>
</g>
<g fill="#f0f0f0" id="g34">
<!-- Seta Eixo X -->
<polygon id="polygon33" points="445,205 455,200 445,195 "></polygon>
<!-- Seta Eixo Y -->
<polygon id="polygon34" points="255,55 250,45 245,55 "></polygon>
</g>
<g fill="#e63946" font-family="Arial" font-size="14px" font-weight="bold" id="g35">
<text id="text34" x="460" y="195">x</text>
<text id="text35" x="255" y="40">y</text>
</g>
<circle cx="250" cy="200" fill="#e63946" id="circle35" r="6"></circle>
<text fill="#e63946" font-family="Arial" font-size="12px" font-weight="bold" id="text36" x="260" y="190">Origem (0,0)</text>
<text fill="#a8dadc" font-family="Arial" font-size="10px" font-style="italic" id="text37" x="260" y="210">Marco Zero</text>
<text fill="#a8dadc" font-family="Arial" font-size="14px" font-weight="bold" id="text38" x="317.33334" y="111.33334">Quadrante I</text>
<text fill="#a8dadc" font-family="Arial" font-size="14px" font-weight="bold" id="text39" x="108.66666" y="126.66666">Quadrante II</text>
<text fill="#a8dadc" font-family="Arial" font-size="14px" font-weight="bold" id="text40" x="109.33334" y="286.66666">Quadrante III</text>
<text fill="#a8dadc" font-family="Arial" font-size="14px" font-weight="bold" id="text41" x="326.66666" y="287.33334">Quadrante IV</text>
<circle cx="0" cy="0" fill="none" id="circle41" r="15" stroke="#ffd166" stroke-width="1" transform="translate(77,83.5)"></circle>
<line id="line41" stroke="#ffd166" stroke-width="1.08972" transform="translate(77,83.5)" x1="0.75" x2="0.75" y1="-14.5" y2="14"></line>
<line id="line42" stroke="#ffd166" stroke-width="1.11803" transform="translate(77,83.5)" x1="-16" x2="14" y1="0" y2="0"></line>
<text fill="#ffd166" font-family="Arial" font-size="8px" id="text42" text-anchor="middle" transform="translate(77,83.5)" x="0" y="-18">N</text>
<text dominant-baseline="middle" fill="#ffd166" font-family="Arial" font-size="8px" id="text43" transform="translate(77,83.5)" x="18" y="0">L</text>
<text fill="#ffd166" font-family="Arial" font-size="8px" id="text44" text-anchor="middle" transform="translate(77,83.5)" x="0" y="26">S</text>
<text dominant-baseline="middle" fill="#ffd166" font-family="Arial" font-size="8px" id="text45" transform="translate(77,83.5)" x="-24" y="0">O</text>
<text fill="#f0f0f0" font-family="Arial" font-size="18px" font-weight="bold" id="text46" text-anchor="middle" x="250" y="25">O Plano Cartesiano: O Mapa Universal</text>
</g>
</svg>