<svg id="svg48" inkscape:version="1.4 (e7c3feb100, 2024-10-09)" sodipodi:docname="paresordenados.svg" version="1.1" viewBox="0 0 437.5 350" xmlns="http://www.w3.org/2000/svg" xmlns:inkscape="http://www.inkscape.org/namespaces/inkscape" xmlns:sodipodi="http://sodipodi.sourceforge.net/DTD/sodipodi-0.dtd" xmlns:svg="http://www.w3.org/2000/svg">
<defs id="defs48"></defs>
<sodipodi:namedview bordercolor="#000000" borderopacity="0.25" id="namedview48" inkscape:current-layer="svg48" inkscape:cx="250" inkscape:cy="200" inkscape:deskcolor="#d1d1d1" inkscape:pagecheckerboard="0" inkscape:pageopacity="0.0" inkscape:showpageshadow="2" inkscape:window-height="1008" inkscape:window-maximized="1" inkscape:window-width="1920" inkscape:window-x="1920" inkscape:window-y="0" inkscape:zoom="2" pagecolor="#ffffff"></sodipodi:namedview>
<!-- Fundo estilizado -->
<!-- Grade de fundo esmaecida -->
<!-- Eixos coordenados principais -->
<!-- Marcadores dos eixos -->
<!-- Pontos de exemplo com legendas -->
<!-- Ponto A (2,1) - Abrigo -->
<!-- Ponto B (-2,-1) - Zona Radioativa -->
<!-- Ponto C (3,-2) - Fonte de Água -->
<!-- Ponto D (-3,2) - Depósito de Suprimentos -->
<!-- Destaque das coordenadas - A(2,1) -->
<!-- Legenda de coordenadas para A -->
<!-- Painel de informações -->
<!-- Ícones temáticos -->
<!-- Bússola/Rosa dos ventos -->
<g id="g47" transform="translate(420,70)"></g>
<!-- Título da visualização -->
<g id="g48" transform="scale(0.875)">
<rect fill="#1d3557" height="400" id="rect1" opacity="0.9" width="500" x="0" y="0"></rect>
<g id="g16" opacity="0.2" stroke="#a8dadc" stroke-width="0.5">
<!-- Linhas verticais da grade -->
<line id="line1" x1="50" x2="50" y1="50" y2="350"></line>
<line id="line2" x1="100" x2="100" y1="50" y2="350"></line>
<line id="line3" x1="150" x2="150" y1="50" y2="350"></line>
<line id="line4" x1="200" x2="200" y1="50" y2="350"></line>
<line id="line5" x1="250" x2="250" y1="50" y2="350"></line>
<line id="line6" x1="300" x2="300" y1="50" y2="350"></line>
<line id="line7" x1="350" x2="350" y1="50" y2="350"></line>
<line id="line8" x1="400" x2="400" y1="50" y2="350"></line>
<line id="line9" x1="450" x2="450" y1="50" y2="350"></line>
<!-- Linhas horizontais da grade -->
<line id="line10" x1="50" x2="450" y1="50" y2="50"></line>
<line id="line11" x1="50" x2="450" y1="100" y2="100"></line>
<line id="line12" x1="50" x2="450" y1="150" y2="150"></line>
<line id="line13" x1="50" x2="450" y1="200" y2="200"></line>
<line id="line14" x1="50" x2="450" y1="250" y2="250"></line>
<line id="line15" x1="50" x2="450" y1="300" y2="300"></line>
<line id="line16" x1="50" x2="450" y1="350" y2="350"></line>
</g>
<g id="g18" stroke="#f0f0f0" stroke-width="2">
<!-- Eixo X -->
<line id="line17" x1="50" x2="450" y1="200" y2="200"></line>
<!-- Eixo Y -->
<line id="line18" x1="250" x2="250" y1="50" y2="350"></line>
</g>
<g fill="#ffd166" font-family="Arial" font-size="12px" id="g29" text-anchor="middle">
<!-- Marcadores Eixo X -->
<text id="text18" x="250" y="220">0</text>
<text id="text19" x="300" y="220">1</text>
<text id="text20" x="350" y="220">2</text>
<text id="text21" x="400" y="220">3</text>
<text id="text22" x="200" y="220">-1</text>
<text id="text23" x="150" y="220">-2</text>
<text id="text24" x="100" y="220">-3</text>
<!-- Marcadores Eixo Y -->
<text id="text25" x="235" y="200">0</text>
<text id="text26" x="235" y="150">1</text>
<text id="text27" x="235" y="100">2</text>
<text id="text28" x="235" y="250">-1</text>
<text id="text29" x="235" y="300">-2</text>
</g>
<circle cx="350" cy="150" fill="#e63946" id="circle29" r="8"></circle>
<text fill="#f0f0f0" font-family="Arial" font-size="12px" font-weight="bold" id="text30" x="360" y="145">A(2,1)</text>
<text fill="#a8dadc" font-family="Arial" font-size="10px" id="text31" x="360" y="160">Abrigo Principal</text>
<circle cx="150" cy="250" fill="#ff9500" id="circle31" r="8"></circle>
<text fill="#f0f0f0" font-family="Arial" font-size="12px" font-weight="bold" id="text32" x="160" y="245">B(-2,-1)</text>
<text fill="#a8dadc" font-family="Arial" font-size="10px" id="text33" x="160" y="260">Zona Radioativa</text>
<circle cx="400" cy="300" fill="#4cc9f0" id="circle33" r="8"></circle>
<text fill="#f0f0f0" font-family="Arial" font-size="12px" font-weight="bold" id="text34" x="410" y="295">C(3,-2)</text>
<text fill="#a8dadc" font-family="Arial" font-size="10px" id="text35" x="410" y="310">Fonte de Água</text>
<circle cx="100" cy="100" fill="#8ac926" id="circle35" r="8"></circle>
<text fill="#f0f0f0" font-family="Arial" font-size="12px" font-weight="bold" id="text36" x="110" y="95">D(-3,2)</text>
<text fill="#a8dadc" font-family="Arial" font-size="10px" id="text37" x="110" y="110">Depósito de Suprimentos</text>
<g id="g38" stroke-dasharray="4, 4" stroke-width="1">
<!-- Linha vertical do eixo Y até o ponto -->
<line id="line37" stroke="#e63946" x1="350" x2="350" y1="200" y2="150"></line>
<!-- Linha horizontal do eixo X até o ponto -->
<line id="line38" stroke="#e63946" x1="250" x2="350" y1="150" y2="150"></line>
</g>
<text fill="#e63946" font-family="Arial" font-size="12px" id="text38" x="290" y="140">x = 2</text>
<text fill="#e63946" font-family="Arial" font-size="12px" id="text39" x="360" y="185">y = 1</text>
<g id="g43" transform="translate(29,298)">
<rect fill="#457b9d" height="82.888885" id="rect39" opacity="0.7" rx="5.1805553" style="stroke-width:1.03611" width="186.5" x="0" y="0"></rect>
<text fill="#ffd166" font-family="Arial" font-size="14px" font-weight="bold" id="text40" x="10" y="20">Par Ordenado (x,y)</text>
<text fill="#f0f0f0" font-family="Arial" font-size="12px" id="text41" x="10" y="40">• Localização exata no mapa</text>
<text fill="#f0f0f0" font-family="Arial" font-size="12px" id="text42" x="10" y="60">• A ordem é crucial: (x,y) ≠ (y,x)</text>
<text fill="#f0f0f0" font-family="Arial" font-size="10px" font-style="italic" id="text43" x="10" y="75">Confundir coordenadas pode ser fatal</text>
</g>
<circle cx="0" cy="0" fill="none" id="circle43" r="20" stroke="#ffd166" stroke-width="1" transform="translate(420,70)"></circle>
<line id="line43" stroke="#ffd166" stroke-width="1" transform="translate(420,70)" x1="0" x2="0" y1="-16" y2="16"></line>
<line id="line44" stroke="#ffd166" stroke-width="1" transform="translate(420,70)" x1="-16" x2="16" y1="0" y2="0"></line>
<text fill="#ffd166" font-family="Arial" font-size="10px" id="text44" text-anchor="middle" transform="translate(420,70)" x="0" y="-22">N</text>
<text dominant-baseline="middle" fill="#ffd166" font-family="Arial" font-size="10px" id="text45" transform="translate(420,70)" x="22" y="0">L</text>
<text fill="#ffd166" font-family="Arial" font-size="10px" id="text46" text-anchor="middle" transform="translate(420,70)" x="0" y="34">S</text>
<text dominant-baseline="middle" fill="#ffd166" font-family="Arial" font-size="10px" id="text47" transform="translate(420,70)" x="-30.5" y="0">O</text>
<text fill="#f0f0f0" font-family="Arial" font-size="18px" font-weight="bold" id="text48" text-anchor="middle" x="250" y="25">Pares Ordenados: Coordenadas de Sobrevivência</text>
</g>
</svg>